<svg xmlns="http://www.w3.org/2000/svg" viewBox="0 0 432.02 431.01"><defs><style>.cls-1{fill:#00fe01;}.cls-2{fill:#3fd241;}.cls-3{fill:#4ac54b;}.cls-4{fill:#38d838;}.cls-5{fill:#4ac84b;}.cls-6{fill:#43ce44;}.cls-7{fill:#46c044;}.cls-8{fill:#46c247;}.cls-9{fill:#3dd23e;}.cls-10{fill:#41cf41;}.cls-11{fill:#3fd340;}.cls-12{fill:#4ec64e;}.cls-13{fill:#18b019;}.cls-14{fill:#37d839;}.cls-15{fill:#4ec14e;}.cls-16{fill:#4dc34d;}.cls-17{fill:#4ec04f;}.cls-18{fill:#000200;}.cls-19{fill:#4ec34e;}</style></defs><title>Asset 3</title><g id="Layer_2" data-name="Layer 2"><g id="Layer_1-2" data-name="Layer 1"><path d="M216,431h-2.67C95.51,431,0,335.49,0,217.66q0-4.2,0-8.41C0,93.68,93.68,0,209.26,0h9.42C336.51,0,432,95.51,432,213.35q0,2.16,0,4.31C432,335.49,336.51,431,218.68,431Z"/><path class="cls-1" d="M235.8,226.84c1.64-9.15,3.17-18.32,5-27.45.54-2.74-.16-3.56-2.86-3.52-6.66.11-13.32-.12-20,.1-3.14.1-3.88-1-3.93-4-.24-12.68-.33-12.67,12.27-12.68,4.66,0,9.33-.19,14,.06,3.4.19,4.7-1.25,5.24-4.42,2.09-12.28,4.49-24.51,6.44-36.82.52-3.29,1.57-4.48,5-4.52,13.32-.19,13.31-.3,10.73,12.78-1.8,9.13-3.52,18.27-5.41,27.38-.79,3.83-.3,6,4.45,5.61,5.13-.38,10.31-.18,15.47,0,2.57.07,3.75-.65,4.26-3.44,2.36-12.91,5.13-25.74,7.46-38.65.5-2.76,1.47-3.7,4.11-3.59,3.32.14,6.66.08,10,0,2.23,0,3.45.51,2.88,3.17-1.35,6.27-2.52,12.58-3.76,18.87-1.19,1.07-.07,2.66-.86,3.82-.39,5.66-1.9,11.12-3.1,16.63-1.79,3.75.92,3.32,3.13,3.36,5,0,9.93.11,14.89,0,2.57-.08,3.61.78,3.41,3.39-.32,4.26.43,8.57-.42,12.82-7,.07-13.94.26-20.91.17-2.67,0-3.86.87-4.32,3.5-1.11,6.35-2.44,12.66-3.68,19-1.52,1.43-.08,3.49-1.08,5a35,35,0,0,1-1.74,10.31c-.93,3.37-.2,4.86,3.67,4.68,5.82-.27,11.66.05,17.49-.12,3.07-.09,4.39.65,4.45,4.11.2,12.4.33,12.4-12.09,12.42-4.67,0-9.33.09-14,0-2.59-.07-3.71.73-4.2,3.52-2.49,14-5.27,27.9-8,41.85a66.78,66.78,0,0,1-16.63-.06l7.69-40.35c1.17-5.08,1.14-5.15-3.54-5.18-5.61,0-11.24.26-16.83-.11-3.18-.22-4,1.27-4.39,3.75-1,9.26-3.23,18.29-5,27.41-1.14,1-.15,2.49-.84,3.6a33.38,33.38,0,0,1-2,10.49,31.83,31.83,0,0,1-16.22,0c1.06-9.17,3.17-18.14,5-27.16,1.15-1,.17-2.55.85-3.68L229.86,255c-6.25-1-12.55-.34-18.83-.37-3.09,0-4-1.15-4.07-4.08-.43-11-.51-11,10.44-11h4.15c-4.25-.38-9.38.63-14.44-.45,5.67-1.67,11.48-.57,17.21-.72,8.49-.21,8.5-.06,10.63-7.85C236.1,229.48,235.1,228,235.8,226.84Z"/><path class="cls-1" d="M79.89,228c.7-15.14,8.15-26.77,20.47-30.86,11.95-4,22.17,0,31.76,7.43,6.74,5.25,12,12.2,19.7,16.3,1.44.77,3,1.37,4.48,2,1.4,1.16,2.77.85,4.12-.09,6.78-3.17,8.63-9.35,9.78-16,.81-1.31.83-2.85,1.29-4.27.47-2.2-.88-4.64.87-6.67,4.31-.08,8.63-.11,12.94-.26,2.46-.09,3.55.6,3.37,3.41-.63,9.78-1.88,19.52-6.92,28-7.11,12-20.7,16-34,11.26-9.54-3.41-16.48-10.73-23.73-17.47-3.39-3.16-6.95-6.09-11.36-7.75a6.89,6.89,0,0,0-6.3,0c-6.13,2.52-7.79,8-9.15,13.72-1.68,2.23.06,4.94-1,7.25.89,4.64-.69,6.68-5.69,6A92.65,92.65,0,0,0,80,239.9C79.08,235.94,79.39,232,79.89,228Z"/><path class="cls-2" d="M207.11,239.06h22.43v.71c-5.51,0-11,.14-16.52,0-3.88-.14-5.59,1.4-5.22,5.27a14.25,14.25,0,0,1,0,3c-.52,4.44,1.13,6.15,5.85,6.09,5.38-.07,10.91-1.25,16.2.86-6.59,0-13.19-.09-19.77,0-2.79.05-4-1-3.73-3.77C206.73,247.18,205.52,243,207.11,239.06Z"/><path class="cls-3" d="M324.12,195.69c0-3.79-.22-7.58-.07-11.36.13-3.16-1-4.41-4.28-4.36-5.26.08-10.52-.22-15.78-.36l.12-.27c5.94-.08,11.87-.18,17.81-.23,1.29,0,3.11-.14,3,1.65C324.79,185.73,326.38,190.83,324.12,195.69Z"/><path class="cls-4" d="M246.07,258.16c-.37-3,1.21-4.22,4-4.22,5.94,0,11.88-.13,17.82,0,4.13.12,5.29,2.12,2.9,5.73.57-3.37-.25-5.13-4.28-4.84a133.36,133.36,0,0,1-15.3,0C248.55,254.78,246.85,255.56,246.07,258.16Z"/><path class="cls-3" d="M222,299.65a75.26,75.26,0,0,0,16.22,0C234.94,301.82,224.58,301.81,222,299.65Z"/><path class="cls-5" d="M263.13,300.05l16.63.06A27.66,27.66,0,0,1,263.13,300.05Z"/><path class="cls-6" d="M79.89,228,80,239.9C77.6,236,79,232,79.89,228Z"/><path class="cls-7" d="M96.17,234.12c.14-2.45-1.23-5.12,1-7.26A19.34,19.34,0,0,1,96.17,234.12Z"/><path class="cls-8" d="M172.36,195.89l-.76,8.22c-1-.23-1-.88-.67-1.64C171.23,200.24,170,197.67,172.36,195.89Z"/><path class="cls-9" d="M106.37,213.15c2.09-1.54,4.19-2.06,6.3,0Z"/><path class="cls-10" d="M304.12,179.34l-.12.27c-2.22-.52-2.16-2-1.61-3.73,0-.06.29-.11.4-.06s.21.22.31.34C303.34,177.25,302.91,178.55,304.12,179.34Z"/><path class="cls-11" d="M160.42,222.79c-1.33,2.12-2.72,1.28-4.12.09Z"/><path class="cls-12" d="M306.21,159.52c.06-1.33-1-2.9.86-3.82A5,5,0,0,1,306.21,159.52Z"/><path class="cls-13" d="M170.93,202.47l.67,1.64a2.9,2.9,0,0,1-1.4,2.72A6.32,6.32,0,0,1,170.93,202.47Z"/><path class="cls-14" d="M294.13,223.37c-.1-1.78-.71-3.66,1.08-5A8.17,8.17,0,0,1,294.13,223.37Z"/><path class="cls-15" d="M235.8,226.84c-.21,1.24,1.11,2.83-.85,3.66A4.78,4.78,0,0,1,235.8,226.84Z"/><path class="cls-16" d="M227.8,268.8c-.21,1.25,1.13,2.85-.85,3.69A4.79,4.79,0,0,1,227.8,268.8Z"/><path class="cls-17" d="M240.23,289.17c.22-1.22-1.12-2.8.84-3.6A4.68,4.68,0,0,1,240.23,289.17Z"/><path class="cls-18" d="M257.06,201.62c.12-5.3,3.14-6.23,7.82-5.81a148.57,148.57,0,0,0,15,.08c2,0,3,.35,2.52,2.81q-3.74,18.29-7.19,36.63c-.41,2.19-1.31,3-3.57,3-6-.12-12-.14-18,0-3,.07-3.54-.87-2.94-3.8,2-9.75,3.71-19.57,5.52-29.37C256.91,204.08,255.93,202.6,257.06,201.62Z"/><path class="cls-19" d="M257.06,201.62a4.56,4.56,0,0,1-.84,3.55C256.47,204,255.08,202.4,257.06,201.62Z"/></g></g></svg>