<svg xmlns="http://www.w3.org/2000/svg" width="80mm" height="35mm" viewBox="0 0 283.465 124.016"><rect width="100%" height="100%" fill="#f6c915"/><g fill="#1a171b"><path d="m97.217 73.882-1.026 4.348H78.425l6.811-28.433h5.17l-5.768 24.085zM105.135 78.23h-4.965l5.172-21.458h4.963zm3.694-24.698q-1.11 0-1.93-.657-.82-.656-.82-1.968 0-1.519 1.046-2.503c1.046-.984 1.499-.985 2.401-.985q1.108 0 1.95.677.841.678.842 1.99 0 1.52-1.066 2.482-1.07.963-2.423.964M125.37 56.281q1.886 0 3.254.635a6.3 6.3 0 0 1 2.278 1.743q.902 1.108 1.352 2.607c.45 1.499.45 2.07.45 3.22q.002 2.83-.986 5.416a13.9 13.9 0 0 1-2.808 4.553q-1.825 1.97-4.453 3.14-2.626 1.17-5.907 1.17-.493-.002-1.312-.042a16 16 0 0 1-1.808-.206q-.983-.164-2.01-.45c-1.027-.287-1.313-.438-1.887-.74l7.18-30.115 5.195-.82-2.637 10.997q.899-.452 1.925-.78a7.1 7.1 0 0 1 2.174-.328m-6.162 18.3c1.256 0 2.414-.268 3.466-.801s1.955-1.252 2.707-2.154a10.1 10.1 0 0 0 1.745-3.098c.41-1.16.615-2.373.615-3.631 0-.63-.058-1.21-.163-1.743a3.75 3.75 0 0 0-.573-1.394 2.86 2.86 0 0 0-1.108-.942q-.695-.35-1.758-.351-.901 0-1.966.329c-1.065.329-1.363.56-1.964 1.026l-3.013 12.554q.368.081.84.144.472.06 1.172.06M135.658 70.475q0-2.747.882-5.312a14.3 14.3 0 0 1 2.544-4.556 12.6 12.6 0 0 1 3.998-3.18q2.34-1.189 5.252-1.19 3.118 0 4.843 1.601 1.722 1.599 1.721 4.103 0 2.585-1.27 4.184t-3.303 2.503q-2.032.903-4.597 1.232t-5.189.41a.4.4 0 0 0-.042.165v.41q.002 3.732 4.72 3.734 2.79 0 5.577-1.15l.414 4.022q-.987.451-2.79.904-1.808.45-4.102.451-2.3-.001-3.94-.656-1.642-.657-2.688-1.804-1.046-1.149-1.537-2.648c-.491-1.499-.493-2.072-.493-3.223M147.599 60.3q-1.23 0-2.34.492t-1.968 1.353q-.862.863-1.499 2.03c-.637 1.168-.732 1.62-.922 2.524q4.922-.165 7.159-1.19 2.235-1.025 2.235-3.078.001-.82-.596-1.477-.591-.654-2.069-.654M172.01 61.162a11 11 0 0 0-1.771-.451 13 13 0 0 0-2.222-.164c-.468 0-.96.034-1.484.102q-.78.105-1.318.266l-4.12 17.315h-4.964l4.925-20.473a35 35 0 0 1 3.733-1.005q2.008-.43 4.347-.43.493 0 1.11.062.611.061 1.21.143.592.082 1.107.204.514.125.88.287zM190.966 69.903q-.126.451-.246 1.477a16 16 0 0 0-.122 1.929q0 1.19.202 2.317c.14.753.356 1.512.66 2.276l-4.433.657a10.6 10.6 0 0 1-.779-2.092q-1.024.903-2.523 1.62c-1.499.718-2.128.718-3.385.718q-1.93 0-3.304-.637-1.374-.634-2.234-1.764-.863-1.127-1.272-2.646-.411-1.518-.41-3.283 0-2.994 1.067-5.58a13.4 13.4 0 0 1 2.973-4.471q1.909-1.887 4.535-2.975 2.624-1.087 5.745-1.086 1.599 0 3.218.267c1.62.267 2.17.513 3.262 1.005zm-2.7-9.274a8.7 8.7 0 0 0-1.766-.164q-1.846.001-3.41.8a8.7 8.7 0 0 0-2.689 2.133 9.8 9.8 0 0 0-1.743 3.058 10.6 10.6 0 0 0-.616 3.61c0 .63.052 1.219.165 1.764q.161.821.55 1.435c.39.614.61.739 1.048.985q.655.369 1.681.37 1.312-.001 2.32-.554a7.4 7.4 0 0 0 1.867-1.497 17 17 0 0 1 .186-2.01q.144-.944.388-1.887zM209.634 49.51q5.128.002 7.856 2.01 2.727 2.012 2.729 5.745 0 2.954-1.128 5.027a9.36 9.36 0 0 1-3.123 3.384q-1.99 1.311-4.762 1.906-2.774.596-6.096.597h-2.22l-2.4 10.051h-5.175l6.686-28.022a30 30 0 0 1 3.939-.554 52 52 0 0 1 3.694-.144m-.493 4.35q-.778 0-1.475.04-.701.041-1.395.122l-2.298 9.806h2.084q1.716 0 3.312-.286 1.595-.287 2.821-.966a5.3 5.3 0 0 0 1.964-1.845q.735-1.169.735-2.974 0-2.092-1.537-2.995-1.545-.902-4.21-.902M238.682 69.903q-.125.451-.247 1.477-.121 1.026-.122 1.929.001 1.19.204 2.317c.139.753.355 1.512.66 2.276l-4.434.657a10.7 10.7 0 0 1-.78-2.092q-1.021.903-2.522 1.62c-1.5.718-2.127.718-3.385.718q-1.93 0-3.302-.637-1.374-.634-2.236-1.764-.863-1.127-1.272-2.646c-.276-1.012-.41-2.106-.41-3.283q0-2.994 1.067-5.58a13.4 13.4 0 0 1 2.973-4.471q1.909-1.887 4.535-2.975 2.624-1.087 5.745-1.086 1.599 0 3.218.267c1.62.267 2.17.513 3.262 1.005zm-2.7-9.274a8.7 8.7 0 0 0-1.766-.164c-1.233 0-2.367.268-3.41.8a8.7 8.7 0 0 0-2.688 2.133 9.8 9.8 0 0 0-1.743 3.058 10.6 10.6 0 0 0-.617 3.61c0 .63.051 1.219.165 1.764q.162.821.55 1.435c.389.614.61.739 1.05.985.434.245.998.37 1.68.37q1.31-.001 2.32-.554a7.4 7.4 0 0 0 1.867-1.497 17 17 0 0 1 .185-2.01q.145-.944.386-1.887zM263.792 56.772q-.82 2.34-1.809 4.861a78 78 0 0 1-2.202 5.069 94 94 0 0 1-2.613 5.066 65 65 0 0 1-2.999 4.903 60 60 0 0 1-2.466 3.467 19 19 0 0 1-2.772 2.933q-1.5 1.273-3.305 2.052-1.811.78-4.107.78c-.852 0-1.61-.097-2.284-.287q-1.004-.288-1.706-.657l1.601-3.98q.577.326 1.293.535a5.8 5.8 0 0 0 1.58.203q1.93 0 3.386-1.004 1.455-1.005 2.646-2.729-1.312-4.554-2.218-9.887c-.906-5.333-.998-7.33-1.192-11.325h5.01q.04 1.722.184 3.817.145 2.092.376 4.286.226 2.196.56 4.33.33 2.132.743 3.938a45 45 0 0 0 2.303-4.145 80 80 0 0 0 1.977-4.328 60 60 0 0 0 1.583-4.185c.452-1.355.843-2.59 1.173-3.713zM31.373 78.101q-4.297.001-6.746-1.12-2.453-1.118-3.51-3.056-1.057-1.935-1.029-4.447.03-2.51.696-5.353l7.685-32.13 9.377-1.453-8.411 34.853q-.24 1.09-.27 1.997t.332 1.603q.362.697 1.24 1.12.876.425 2.452.544zM65.255 58.073q0 4.417-1.451 8.078c-1.451 3.66-2.308 4.549-4.024 6.323q-2.57 2.663-6.172 4.144-3.6 1.483-7.835 1.483-2.057 0-4.115-.363L38.936 88.69h-8.955l10.044-41.872q2.42-.724 5.536-1.3t6.746-.576q3.39 0 5.84 1.03 2.45 1.028 4.024 2.813 1.57 1.785 2.328 4.175c.507 1.594.756 3.298.756 5.113M43.294 70.477q1.026.241 2.54.241 2.359 0 4.296-.877a9.45 9.45 0 0 0 3.296-2.45q1.364-1.575 2.12-3.782.755-2.207.756-4.87 0-2.601-1.15-4.418Q54 52.506 51.16 52.506q-1.937 0-3.632.363z"/></g></svg>