<svg xmlns="http://www.w3.org/2000/svg" viewBox="0 0 80 80"><rect width="80" height="80" fill="#f6c915" rx="8"/><path fill="#FFF" d="M32.73 56.265q-3.88-.001-6.092-1.01c-2.213-1.01-2.531-1.594-3.171-2.762s-.946-2.493-.928-4.015.227-3.123.629-4.835l6.939-29.015 8.47-1.31-7.595 31.473q-.219.983-.246 1.802c-.027.82.082 1.03.3 1.448s.592.756 1.12 1.01 1.266.42 2.213.493zm7.803-28.244q2.19-.655 5.003-1.175c2.813-.52 3.907-.518 6.093-.518s3.799.309 5.273.928 2.686 1.467 3.634 2.54 1.647 2.332 2.102 3.77.683 2.98.683 4.62c0 2.657-.437 5.09-1.321 7.293s-2.076 4.108-3.624 5.71-3.406 2.851-5.576 3.748-4.523 1.334-7.072 1.334q-1.858 0-3.716-.33l-2.459 9.892h-8.086zm2.954 21.366c.619.145 1.384.213 2.295.213 1.42 0 2.713-.258 3.879-.788s2.158-1.265 2.978-2.212 1.456-2.084 1.912-3.415.683-2.795.683-4.398-.347-2.896-1.038-3.99-1.894-1.639-3.606-1.639q-1.75 0-3.28.329z"/></svg>