<?xml version="1.0" encoding="utf-8"?>
<!-- Generator: Adobe Illustrator 25.1.0, SVG Export Plug-In . SVG Version: 6.00 Build 0)  -->
<svg version="1.1" id="Layer_1" xmlns="http://www.w3.org/2000/svg" xmlns:xlink="http://www.w3.org/1999/xlink" x="0px" y="0px"
	 viewBox="0 0 540.8 388" style="enable-background:new 0 0 540.8 388;" xml:space="preserve">
<style type="text/css">
	.st0{fill:none;}
	.st1{fill:#02253F;}
	.st2{fill:#FFFFFF;}
	.st3{fill:#FC460A;}
</style>
<rect x="37.7" y="-38.7" class="st0" width="465.5" height="465.5"/>
<g id="Group_804" transform="translate(-994.32 -808.724)">
	<g id="Group_793" transform="translate(994.32 916.293)">
		<g id="Group_791" transform="translate(447.073)">
			<path id="Path_1504" class="st1" d="M17.9,133.2l-21.2-18.5l22.1-25.4L-3.3,63.8l21.2-18.5L56,89.3L17.9,133.2z"/>
		</g>
		<g id="Group_792" transform="translate(0 33.588)">
			<rect id="Rectangle_498" x="37.7" y="42.5" class="st1" width="446.9" height="26.8"/>
		</g>
	</g>
	<g id="Group_794" transform="translate(1104.899 1076.985)">
		<circle id="Ellipse_211" class="st2" cx="47.3" cy="50.5" r="19.8"/>
	</g>
	<g id="Group_795" transform="translate(1273.521 1076.985)">
		<circle id="Ellipse_212" class="st2" cx="31.8" cy="50.5" r="19.8"/>
	</g>
	<g id="Group_796" transform="translate(1020.588 808.724)">
		<circle id="Ellipse_213" class="st2" cx="55" cy="75.1" r="19.8"/>
	</g>
	<g id="Group_797" transform="translate(1189.21 808.724)">
		<circle id="Ellipse_214" class="st2" cx="39.5" cy="75.1" r="19.8"/>
	</g>
	<g id="Group_798" transform="translate(1357.832 808.724)">
		<circle id="Ellipse_215" class="st3" cx="24.1" cy="75.1" r="19.8"/>
	</g>
	<g id="Group_799" transform="translate(1364.859 875.39)">
		<rect id="Rectangle_499" x="3.7" y="49.3" class="st1" width="26.8" height="81"/>
	</g>
	<g id="Group_800" transform="translate(1027.617 875.39)">
		<rect id="Rectangle_500" x="34.6" y="49.3" class="st1" width="26.8" height="81"/>
	</g>
	<g id="Group_801" transform="translate(1111.928 964.584)">
		<rect id="Rectangle_501" x="26.8" y="41.1" class="st1" width="26.8" height="81"/>
	</g>
	<g id="Group_802" transform="translate(1196.238 875.39)">
		<rect id="Rectangle_502" x="19.2" y="49.3" class="st1" width="26.8" height="81"/>
	</g>
	<g id="Group_803" transform="translate(1280.549 964.584)">
		<rect id="Rectangle_503" x="11.4" y="41.1" class="st1" width="26.8" height="81"/>
	</g>
</g>
</svg>
