<svg version="1.1" xmlns="http://www.w3.org/2000/svg" viewBox="0 0 527.1111450195315 456.296341" width="527.1111450195315" height="456.296341">
  <!-- svg-source:excalidraw -->
  <!-- payload-type:application/vnd.excalidraw+json --><!-- payload-version:2 --><!-- payload-start -->eyJ2ZXJzaW9uIjoiMSIsImVuY29kaW5nIjoiYnN0cmluZyIsImNvbXByZXNzZWQiOnRydWUsImVuY29kZWQiOiJ4nN1bW2/byFx1MDAxNX73rzDc14g790vebMd2nPguJ7HdLFxmWqIkWjIlS7RseVx1MDAxMWBRZLuLXHUwMDE2RVx1MDAwYlx1MDAxNEi7Rd+aRS/oYot2UWxcdTAwMTO0vyZ2dv9FXHUwMDBmJVmkSNGmbrayNGBJM0POmZnzne+cM8NPpqanZ9xGxZq5Pz1jnWXMkp2tmqcz97zyulWt2WVcdTAwMDeqSPN3rXxSzTRbXHUwMDE2XFy3Urv/0Uf+XHUwMDFkRqZ81LrLKllHluPWoN1P4ff09CfN/4F+qlbGNZ18yWre0Kzyu2JcZodL18pOs1uNOKdKK9ZpYNdcdTAwMWVAd66VhdqcWapZfo1XNLN3Mm/PPiw94OvpnF3ZK51cdTAwMWXuNDb8XnN2qZR2XHUwMDFipaZUtTKMxK+rudVy0XpmZ91cdTAwMDLU4lB53F3V8km+4Fi1Wtc95YqZsd2GV4ZQp7Q1XHUwMDA196f9kjP4lcLCYIxRLbQkglx1MDAwYsI71d5cdTAwMDNSglx1MDAxOERcdTAwMGJcIrUmQnKpSEiy+XKpXFz1JPtcdNZcdTAwMTJniC/bgZkp5kFAJ+u3yeWsjNZ+m9P2eDmSXHUwMDA2hotxhDWn2J/ygmXnXHUwMDBiLjSR1MBMYaiPXGJiNVx1MDAxN0RcIlwiJdeEdiq83ivL2aZqfOyvQtU8spa9O5yTUik4lU62PZVXKuQrXHUwMDExbZe88IfntV9cYiif38NJJWu2lFx1MDAwNEtE4U8xpbXo1Jdsp1x1MDAxOO6+VM5cdTAwMTR9vZpcbvTVnz5jTOL0XHUwMDE5c5g4zlx1MDAxMFKJXHUwMDE1mm3MXHUwMDFlby1t1KtbxFx1MDAxMkyub1x1MDAwYt0oXHUwMDBmotBhtUmi0GgghSbSXHUwMDAwfdWgjEhRXHUwMDAwL6XdXG7NuVx1MDAwMdOgMahcdTAwMTLiimtcdTAwMWGv0Jb3d71CM5RBXFz2UGhtXHUwMDEw0EUmXHUwMDE0XHUwMDExWGKlolxuXHJNNJJU6qggLYXWXHUwMDA0SSmwviN97tzj31x1MDAxZFBC1zpzO8NcdTAwMGVoTD23uJ5bZyvVirlY2366kGd453Cm0+5F+9t1YEFcdTAwMDRcdDwqsHTJXHUwMDE5xFx0ioOJwlx1MDAxNCuiVHKU9Fx1MDAxZfNEo4RKXHUwMDAz1FNcdTAwMTDEXHRYVUZVN0ioMoh3Kc5cdTAwMTHRRMuhQFx1MDAxMmf1XHUwMDE5iqJcIsA/bVx1MDAxOGDJYDE8UYdcdTAwMDdCV0VfXHUwMDE2vF+l9KUqO27aPveWgKCu0kXzyC41upi7qa0wZZev/nHx9s1MV/lsyc57mjuTXHUwMDAxea1ql1K7NjhGnVx1MDAwNkd2Nlx1MDAxYmSHXGZ0ZtqOVV1OYtTLVTtvO2ZpO0ZcdTAwMTZcdTAwMTi79fBqubBcdTAwMTFYsFx1MDAwM7NmebXNaVx1MDAxYoLCaCw2MVx1MDAwM1x1MDAwZkEojpL7ZFx1MDAxYplTdZR6fJDmT588ml88XFxa2Kark1xyTq1ccqYo06RNYX7PPVx1MDAxOYyFXHUwMDA0XHUwMDFiXHI4XHUwMDA3YLCAIC3oUuBhxoW6K5dsMFxuy1x1MDAxNqp8k288cPMybzn7VtF5eHwygVx1MDAxNMZYXHUwMDFjTCisXHRcIoQlp7DeY55olGCkIWagXHUwMDE48zaHiW6YTFx1MDAxNIchoSlcdTAwMDWyvXNcdTAwMGUjfWjlcFx1MDAxY3bx819dfPHvMXHYXHJWPcxhYVnGz2FChUuvwClcdTAwMTlcdTAwMDZ1XHUwMDEwfYAzpU/54fbWVm12X8+t1ipib1x1MDAxOblcdTAwMTNcdTAwMGVOiVxyhIC8rsKwXGKFcVx1MDAwNewgR0JhXHUwMDA3XHUwMDE2O8hcdTAwMWVcZkphXG4zyTvRYITDXGKWUuFcdTAwMGYtXGYr7z1cXCjs19C5s+LsrqHFXHUwMDA3S7N7Tv9cdTAwMWPWj7VcdTAwMTiIw4SOg1x0xlJQLYHFXHUwMDEy46T3oCdcdTAwMWMnwlx1MDAxMJRcbnxcdTAwMTWIhYDCrnw9NFZcdTAwMTLrgYxcdTAwMDCxtZEgXHUwMDEw87w9NVx1MDAwMiTcLYdh0VV6XHKHvf/n77//9tvnzvs331xcvvr88o9/XHUwMDFmXHUwMDEznd1g4cN0do1YiZiNsmGYLTZhXHUwMDBl8YqUUpM+UiemWuNcdTAwMDXVyGX1mVmna0erx1x1MDAxNOvJhixhxOCEMUXiqK0rOuMhwe4sOovkXHUwMDE3sVx1MDAwNldcdTAwMDTMXHUwMDBlXHUwMDFlgVN6i9QmN9dTor7z+Fx0m1tzN3fwM5o9W5tAalPxWVxmXGZcdTAwMDGaZ/OTU1vvQU82TjgxMGfAbG1qXHUwMDBiJeLD8ZlcdTAwMWVcdTAwMGJQXHUwMDEyxmeKS1xuYMIjyFR8KPHZ+7cvL37zxZhcYu1cdTAwMDa7XHUwMDFlIbSQLOOPz6RcZpd20IlcYva2fv2VuFx0nDxVyVx1MDAxMtU42VZ8cXF1uc7E3HF9ssFJsWhvuLZILLTrXHUwMDFiSTGKkGS3xmJcIuKGYiYkUC/2NfpDYK3ZheJmZc/am91dX+Eou7hy3ljbnUTWXHUwMDEysbigmFx1MDAxMFx0XHUwMDExSnLW6j3oyVx1MDAwNlx1MDAwNuGGhDhHqFx1MDAxNmuFvTt0K8DoxVo8glx1MDAwNHDdIHZkd5xVxJRcdTAwMDVoc9ys9f2f//TDl68h9Fx1MDAxOSd73WDQw+zVkmkgXHUwMDBlY2RwXHUwMDBlIyz+qIdGhIJXXHUwMDE1yInfXHUwMDE4iZ1Vc7X0s42iu7NXX320aNXLVnrCsaq0IbRUoIMtXHUwMDEyi1x1MDAxZfXozjJcdTAwMGVcdTAwMWKLZXRmZCyGKJdaUvRh5Vx1MDAxNc/TZ4WlYlx1MDAwZZXn1lx1MDAxY3sxlds8zFx1MDAxZpL+aIxqXHUwMDFlcL7GdbyDx2YpMOGIY9pH8NV70JNcclxyrVxy6rE1btOY7IZcdTAwMDZcdTAwMDRfaKTQXHUwMDE4KvpcIlxcQjSM0J1GX5TzXHUwMDAw2499d+yzf/3wu6/HXHUwMDE1fV1vyyO7YyFZbmF3jIZLXHUwMDAzXqZEsFx1MDAxMH2k/Vx1MDAxZpj17Zp7ilxua6eLbPUg//jkvPB0suGJydXetVRcZkstus9faWEgKjxwesCQJP7QbVx1MDAwZalcZkI3gNNcdTAwMDRcdTAwMGaRRMHpbaBcdTAwMGKiXHUwMDA10Cdn8JmQuLSgXHUwMDAyJGZcdTAwMWZW1vBI7jdcdTAwMWVKa32zvFXfz+Xnnrg7+09cdTAwMDPEda/3Y1s3b6VE/dH2UU2uPNlafjybnt+Xm5nuXq76N6vV8mnS5y7YZrW2tbu6VV1pLMHDV09l2kn23Fx1MDAwNEQrpFxunOtcdTAwMWJcdTAwMTfRkthTKF7AqJHq51x1MDAxOErvVZpsKDNqaFwiNdZKYEpcdTAwMTTuPq1cdTAwMDV+XmIsN6/BfFDVg2iDselcdTAwMTXRQsgowd7cacDIwVx1MDAxY+k+9LJcdTAwMWai9We3k+b82X8uv3598frlxa+/ee5cXP7y1cUv/jIm2r2BiFwiSc+AZGG5Qlx1MDAxNIx7XHUwMDA3j3hcYlxulrFcdTAwMDdUQEcoYVr2kVx1MDAwMT1Ombu7c0WrpGaL5ysnlWdcdTAwMGI782yycStasGWhmJEo5EVzgFjNXGJVRMYneIbiXtXkXlxiXHUwMDFiiVx1MDAxMFx1MDAwMmHei3upwVqHUyhCXHUwMDEyXGZLxHGWlErCJJqsVOi4OPMmip9zXHUwMDBmMtlj+yx1suI8K+6zsy22aSelYrV/vJBZaaTFXFwly3gx7SylKmxkVHwrqVtgoFgqhiBcdTAwMGaUXGb3kbvtPZtcdTAwMTNccmmpXGbJiKRcdTAwMWFT6kFGh6AtscGxXHUwMDEylCBoxGj8WZphmFx1MDAxOItkVFxmJlZijfmP9kRolIqB5969/er7//324rOv3n336bvv/vb+r2/ef/nf5877P7z03uq0y5evPn/3dlxch0ZvYKlIWFx1MDAxYyNurLCjIO2WcemF7viMXHUwMDE2XHUwMDE1lDFNePJk7/XGeVwiwVxygYahhFwiiFx1MDAwYqGJkixcdTAwMTQyXHUwMDEzXHUwMDAznGtwLrFcdTAwMTBA2tecKLVcdTAwMTTXKDMgbVx1MDAxM/DmOVx1MDAwNb+BXHUwMDEzrIjgPV5UxUhcdTAwMTlEUYJhSYCaNe5x8IYyyZDSY3kvgtzM29dGjSB3P6+qXHUwMDA25tmsunO2k7WdfLdg7Ve0kzjJTSOSOfGkTIEjRjEjsKRcdTAwMWPUQ8Daq0CzvFnx0GRcdTAwMTBQfW83mCnwpZCMXGbecrK+UN3jMGvufPnoyHZhXHUwMDA2Nsq244ZbNIc06yGyYJmRZYAnXHUwMDA368LQrXhP7HaT/G/TvnY3f3S+f3yvZ+tUvOa1qiNK5z9xKvjZt93RsVx1MDAwNyVcdTAwMTRVXHUwMDFh3FOSPLy/3smaTLNDtcE0ULXiXGZcdHBcdTAwMWHC8Vx1MDAwMmZcdTAwMDbUgUFcdTAwMDJ3Xlx1MDAwNVR0pHZHcsBcdTAwMDJnXmCiMGLCX1x1MDAxM9/sNL1cdTAwMWZcdTAwMDRcdTAwMDFcdTAwMDPQgZeGiJhcdTAwMWSOXGJcdTAwMTBcdTAwMDVcdTAwMWXPjtOQVmdgRySh1bme+lx1MDAwM1ZcdTAwMDdcdTAwMTmIMUq1VN7mXGJWOLC73rE6pPnyLKiDXCJcZtDIoqHSj8TqxOqdd0U1LqHNSZL8jDNMzZOFVFx1MDAxOEDzXHUwMDEw+mqkRTh3Tpvv/3tcdTAwMWJ8iIOfr1wiYIKw3oCgWygwlN5+reQ90IRFXFybqJ1cdTAwMTjFZnKX7ctUy7VaqmC6mcJtWsDRXHUwMDA0IG1rwzCnkujoe1Cew1x1MDAxYbv9XHUwMDAzISo4b1wi0e5P2MB0STF8Onw8kIpXPu9KRfUuiql+TclofTJcZt5cdTAwMTjBgDDP8lx1MDAwNd7OXHRcdTAwMThHXHUwMDA0VsHLN0hwcVx1MDAxNZjSPqzjILavZWOm2jMzY1YqaVx1MDAxN9a+M96Zum2dzvXEYDPMn2qL5mHQarLbi6lcdTAwMTf/XHUwMDA3oUlcdTAwMTnwIn0=<!-- payload-end -->
  <defs>
    <style class="style-fonts">
      @font-face {
        font-family: "Virgil";
        src: url("https://excalidraw.com/Virgil.woff2");
      }
      @font-face {
        font-family: "Cascadia";
        src: url("https://excalidraw.com/Cascadia.woff2");
      }
      @font-face {
        font-family: "Assistant";
        src: url("https://excalidraw.com/Assistant-Regular.woff2");
      }
    </style>
    
  </defs>
  <g stroke-linecap="round" transform="translate(10 227.96309001562494) rotate(0 253.5555725097657 36.57405096337891)"><path d="M18.29 0 C195.01 -2.31, 369.78 -4.39, 488.82 0 C499.25 -2.16, 506.7 2.67, 507.11 18.29 C503.4 23.92, 508.6 36.47, 507.11 54.86 C509.19 63.76, 502.56 72.49, 488.82 73.15 C360.96 72.79, 232.05 73.09, 18.29 73.15 C8.93 71.19, 2.25 69.86, 0 54.86 C-0.28 48.82, -0.37 41.57, 0 18.29 C-1.55 3.09, 5.8 0.49, 18.29 0" stroke="none" stroke-width="0" fill="#ffec99"></path><path d="M18.29 0 C201.43 1.59, 385.43 1.76, 488.82 0 M18.29 0 C152.15 1.3, 286.02 1.29, 488.82 0 M488.82 0 C501.22 -0.74, 508.05 5.16, 507.11 18.29 M488.82 0 C499.86 0.42, 505.07 6.67, 507.11 18.29 M507.11 18.29 C506.63 26.75, 505.56 38.53, 507.11 54.86 M507.11 18.29 C506.27 29.08, 506.84 39.11, 507.11 54.86 M507.11 54.86 C505.52 65.87, 502.07 73.72, 488.82 73.15 M507.11 54.86 C506.59 69.23, 499.05 71.18, 488.82 73.15 M488.82 73.15 C330.86 74.72, 173.06 74.09, 18.29 73.15 M488.82 73.15 C323.51 74.26, 157.98 74.16, 18.29 73.15 M18.29 73.15 C7.72 72.62, 1.09 68.45, 0 54.86 M18.29 73.15 C6.72 73.47, 1.88 67.15, 0 54.86 M0 54.86 C-1.4 42.21, 1.97 27.44, 0 18.29 M0 54.86 C0.43 45.79, 0.12 36.22, 0 18.29 M0 18.29 C-0.38 7.12, 6.39 -1.12, 18.29 0 M0 18.29 C0.28 8.19, 7.32 -1.64, 18.29 0" stroke="#1971c2" stroke-width="1" fill="none"></path></g><g stroke-linecap="round" transform="translate(54.40739408105468 234.58345184179683) rotate(0 29.62962341308594 29.953689550292964)"><path d="M14.81 0 C20.93 0, 27.05 0, 44.44 0 C54.32 0, 59.26 4.94, 59.26 14.81 C59.26 24.05, 59.26 33.29, 59.26 45.09 C59.26 54.97, 54.32 59.91, 44.44 59.91 C36.14 59.91, 27.84 59.91, 14.81 59.91 C4.94 59.91, 0 54.97, 0 45.09 C0 37.21, 0 29.32, 0 14.81 C0 4.94, 4.94 0, 14.81 0" stroke="none" stroke-width="0" fill="#40c057"></path><path d="M14.81 0 C24.98 0, 35.14 0, 44.44 0 M14.81 0 C25.46 0, 36.1 0, 44.44 0 M44.44 0 C54.32 0, 59.26 4.94, 59.26 14.81 M44.44 0 C54.32 0, 59.26 4.94, 59.26 14.81 M59.26 14.81 C59.26 23.65, 59.26 32.49, 59.26 45.09 M59.26 14.81 C59.26 25.91, 59.26 37.01, 59.26 45.09 M59.26 45.09 C59.26 54.97, 54.32 59.91, 44.44 59.91 M59.26 45.09 C59.26 54.97, 54.32 59.91, 44.44 59.91 M44.44 59.91 C34.97 59.91, 25.5 59.91, 14.81 59.91 M44.44 59.91 C33.72 59.91, 23 59.91, 14.81 59.91 M14.81 59.91 C4.94 59.91, 0 54.97, 0 45.09 M14.81 59.91 C4.94 59.91, 0 54.97, 0 45.09 M0 45.09 C0 36.66, 0 28.23, 0 14.81 M0 45.09 C0 36.7, 0 28.31, 0 14.81 M0 14.81 C0 4.94, 4.94 0, 14.81 0 M0 14.81 C0 4.94, 4.94 0, 14.81 0" stroke="#1e1e1e" stroke-width="2" fill="none"></path></g><g transform="translate(64.03701749414063 252.03714139208978) rotate(0 20 12.5)"><text x="20" y="0" font-family="Virgil, Segoe UI Emoji" font-size="20px" fill="#1e1e1e" text-anchor="middle" style="white-space: pre;" direction="ltr" dominant-baseline="text-before-edge">新建</text></g><g stroke-linecap="round" transform="translate(125.92788908105467 234.58345184179683) rotate(0 29.629623413085938 29.95368955029297)"><path d="M14.81 0 C26.4 0, 37.98 0, 44.44 0 C54.32 0, 59.26 4.94, 59.26 14.81 C59.26 23.54, 59.26 32.26, 59.26 45.09 C59.26 54.97, 54.32 59.91, 44.44 59.91 C33.39 59.91, 22.34 59.91, 14.81 59.91 C4.94 59.91, 0 54.97, 0 45.09 C0 37.42, 0 29.75, 0 14.81 C0 4.94, 4.94 0, 14.81 0" stroke="none" stroke-width="0" fill="#ffec99"></path><path d="M14.81 0 C23.69 0, 32.57 0, 44.44 0 M14.81 0 C26.35 0, 37.88 0, 44.44 0 M44.44 0 C54.32 0, 59.26 4.94, 59.26 14.81 M44.44 0 C54.32 0, 59.26 4.94, 59.26 14.81 M59.26 14.81 C59.26 21.14, 59.26 27.47, 59.26 45.09 M59.26 14.81 C59.26 26.2, 59.26 37.58, 59.26 45.09 M59.26 45.09 C59.26 54.97, 54.32 59.91, 44.44 59.91 M59.26 45.09 C59.26 54.97, 54.32 59.91, 44.44 59.91 M44.44 59.91 C33.72 59.91, 23 59.91, 14.81 59.91 M44.44 59.91 C34.26 59.91, 24.08 59.91, 14.81 59.91 M14.81 59.91 C4.94 59.91, 0 54.97, 0 45.09 M14.81 59.91 C4.94 59.91, 0 54.97, 0 45.09 M0 45.09 C0 38.71, 0 32.32, 0 14.81 M0 45.09 C0 37.7, 0 30.31, 0 14.81 M0 14.81 C0 4.94, 4.94 0, 14.81 0 M0 14.81 C0 4.94, 4.94 0, 14.81 0" stroke="#1e1e1e" stroke-width="2" fill="none"></path></g><g transform="translate(135.5575124941406 252.03714139208978) rotate(0 20 12.5)"><text x="20" y="0" font-family="Virgil, Segoe UI Emoji" font-size="20px" fill="#1e1e1e" text-anchor="middle" style="white-space: pre;" direction="ltr" dominant-baseline="text-before-edge">再制</text></g><g stroke-linecap="round" transform="translate(197.44838408105466 234.67607284179684) rotate(0 29.629623413085938 29.907379050292967)"><path d="M14.81 0 C24.4 0, 33.98 0, 44.44 0 C54.32 0, 59.26 4.94, 59.26 14.81 C59.26 22.12, 59.26 29.42, 59.26 45 C59.26 54.88, 54.32 59.81, 44.44 59.81 C33.09 59.81, 21.74 59.81, 14.81 59.81 C4.94 59.81, 0 54.88, 0 45 C0 34.77, 0 24.55, 0 14.81 C0 4.94, 4.94 0, 14.81 0" stroke="none" stroke-width="0" fill="#be4bdb"></path><path d="M14.81 0 C22.41 0, 30 0, 44.44 0 M14.81 0 C20.88 0, 26.95 0, 44.44 0 M44.44 0 C54.32 0, 59.26 4.94, 59.26 14.81 M44.44 0 C54.32 0, 59.26 4.94, 59.26 14.81 M59.26 14.81 C59.26 20.98, 59.26 27.14, 59.26 45 M59.26 14.81 C59.26 25.58, 59.26 36.35, 59.26 45 M59.26 45 C59.26 54.88, 54.32 59.81, 44.44 59.81 M59.26 45 C59.26 54.88, 54.32 59.81, 44.44 59.81 M44.44 59.81 C35.4 59.81, 26.36 59.81, 14.81 59.81 M44.44 59.81 C33.07 59.81, 21.7 59.81, 14.81 59.81 M14.81 59.81 C4.94 59.81, 0 54.88, 0 45 M14.81 59.81 C4.94 59.81, 0 54.88, 0 45 M0 45 C0 34.51, 0 24.03, 0 14.81 M0 45 C0 34.12, 0 23.25, 0 14.81 M0 14.81 C0 4.94, 4.94 0, 14.81 0 M0 14.81 C0 4.94, 4.94 0, 14.81 0" stroke="#1e1e1e" stroke-width="2" fill="none"></path></g><g transform="translate(203.0780074941406 244.58345189208978) rotate(0 24 20)"><text x="24" y="0" font-family="Virgil, Segoe UI Emoji" font-size="16px" fill="#1e1e1e" text-anchor="middle" style="white-space: pre;" direction="ltr" dominant-baseline="text-before-edge">粘贴</text><text x="24" y="20" font-family="Virgil, Segoe UI Emoji" font-size="16px" fill="#1e1e1e" text-anchor="middle" style="white-space: pre;" direction="ltr" dominant-baseline="text-before-edge">纯文本</text></g><g stroke-linecap="round" transform="translate(268.96887908105464 234.5834518417968) rotate(0 29.629623413085938 29.953689550292964)"><path d="M14.81 0 C25.44 0, 36.07 0, 44.44 0 C54.32 0, 59.26 4.94, 59.26 14.81 C59.26 21.28, 59.26 27.75, 59.26 45.09 C59.26 54.97, 54.32 59.91, 44.44 59.91 C33.23 59.91, 22.02 59.91, 14.81 59.91 C4.94 59.91, 0 54.97, 0 45.09 C0 35.9, 0 26.7, 0 14.81 C0 4.94, 4.94 0, 14.81 0" stroke="none" stroke-width="0" fill="#ffec99"></path><path d="M14.81 0 C25.87 0, 36.92 0, 44.44 0 M14.81 0 C23.93 0, 33.04 0, 44.44 0 M44.44 0 C54.32 0, 59.26 4.94, 59.26 14.81 M44.44 0 C54.32 0, 59.26 4.94, 59.26 14.81 M59.26 14.81 C59.26 21.37, 59.26 27.92, 59.26 45.09 M59.26 14.81 C59.26 21.54, 59.26 28.26, 59.26 45.09 M59.26 45.09 C59.26 54.97, 54.32 59.91, 44.44 59.91 M59.26 45.09 C59.26 54.97, 54.32 59.91, 44.44 59.91 M44.44 59.91 C37.84 59.91, 31.23 59.91, 14.81 59.91 M44.44 59.91 C36.55 59.91, 28.66 59.91, 14.81 59.91 M14.81 59.91 C4.94 59.91, 0 54.97, 0 45.09 M14.81 59.91 C4.94 59.91, 0 54.97, 0 45.09 M0 45.09 C0 36.35, 0 27.6, 0 14.81 M0 45.09 C0 35.36, 0 25.63, 0 14.81 M0 14.81 C0 4.94, 4.94 0, 14.81 0 M0 14.81 C0 4.94, 4.94 0, 14.81 0" stroke="#1e1e1e" stroke-width="2" fill="none"></path></g><g transform="translate(278.5985024941406 252.03714139208978) rotate(0 20 12.5)"><text x="20" y="0" font-family="Virgil, Segoe UI Emoji" font-size="20px" fill="#1e1e1e" text-anchor="middle" style="white-space: pre;" direction="ltr" dominant-baseline="text-before-edge">组合</text></g><g stroke-linecap="round" transform="translate(342.55554208105474 234.58345184179683) rotate(0 29.629623413085938 30)"><path d="M14.81 0 C22.53 0, 30.25 0, 44.44 0 C54.32 0, 59.26 4.94, 59.26 14.81 C59.26 26.27, 59.26 37.72, 59.26 45.19 C59.26 55.06, 54.32 60, 44.44 60 C35.53 60, 26.61 60, 14.81 60 C4.94 60, 0 55.06, 0 45.19 C0 35.35, 0 25.51, 0 14.81 C0 4.94, 4.94 0, 14.81 0" stroke="none" stroke-width="0" fill="#ffec99"></path><path d="M14.81 0 C26.58 0, 38.35 0, 44.44 0 M14.81 0 C22.76 0, 30.7 0, 44.44 0 M44.44 0 C54.32 0, 59.26 4.94, 59.26 14.81 M44.44 0 C54.32 0, 59.26 4.94, 59.26 14.81 M59.26 14.81 C59.26 23.21, 59.26 31.61, 59.26 45.19 M59.26 14.81 C59.26 20.93, 59.26 27.05, 59.26 45.19 M59.26 45.19 C59.26 55.06, 54.32 60, 44.44 60 M59.26 45.19 C59.26 55.06, 54.32 60, 44.44 60 M44.44 60 C32.7 60, 20.95 60, 14.81 60 M44.44 60 C36.1 60, 27.76 60, 14.81 60 M14.81 60 C4.94 60, 0 55.06, 0 45.19 M14.81 60 C4.94 60, 0 55.06, 0 45.19 M0 45.19 C0 37.49, 0 29.79, 0 14.81 M0 45.19 C0 37.8, 0 30.41, 0 14.81 M0 14.81 C0 4.94, 4.94 0, 14.81 0 M0 14.81 C0 4.94, 4.94 0, 14.81 0" stroke="#1e1e1e" stroke-width="2" fill="none"></path></g><g transform="translate(352.1851654941407 239.58345184179683) rotate(0 20 25)"><text x="20" y="0" font-family="Virgil, Segoe UI Emoji" font-size="20px" fill="#1e1e1e" text-anchor="middle" style="white-space: pre;" direction="ltr" dominant-baseline="text-before-edge">解除</text><text x="20" y="25" font-family="Virgil, Segoe UI Emoji" font-size="20px" fill="#1e1e1e" text-anchor="middle" style="white-space: pre;" direction="ltr" dominant-baseline="text-before-edge">组合</text></g><g stroke-linecap="round" transform="translate(416.1422050810548 234.6760728417968) rotate(0 29.629623413085938 30)"><path d="M14.81 0 C23.84 0, 32.87 0, 44.44 0 C54.32 0, 59.26 4.94, 59.26 14.81 C59.26 23.23, 59.26 31.64, 59.26 45.19 C59.26 55.06, 54.32 60, 44.44 60 C37.62 60, 30.79 60, 14.81 60 C4.94 60, 0 55.06, 0 45.19 C0 34.07, 0 22.95, 0 14.81 C0 4.94, 4.94 0, 14.81 0" stroke="none" stroke-width="0" fill="#ffc9c9"></path><path d="M14.81 0 C24.21 0, 33.61 0, 44.44 0 M14.81 0 C22.79 0, 30.77 0, 44.44 0 M44.44 0 C54.32 0, 59.26 4.94, 59.26 14.81 M44.44 0 C54.32 0, 59.26 4.94, 59.26 14.81 M59.26 14.81 C59.26 26.23, 59.26 37.64, 59.26 45.19 M59.26 14.81 C59.26 25.45, 59.26 36.09, 59.26 45.19 M59.26 45.19 C59.26 55.06, 54.32 60, 44.44 60 M59.26 45.19 C59.26 55.06, 54.32 60, 44.44 60 M44.44 60 C33.17 60, 21.9 60, 14.81 60 M44.44 60 C34.58 60, 24.71 60, 14.81 60 M14.81 60 C4.94 60, 0 55.06, 0 45.19 M14.81 60 C4.94 60, 0 55.06, 0 45.19 M0 45.19 C0 37.79, 0 30.4, 0 14.81 M0 45.19 C0 36.68, 0 28.17, 0 14.81 M0 14.81 C0 4.94, 4.94 0, 14.81 0 M0 14.81 C0 4.94, 4.94 0, 14.81 0" stroke="#1e1e1e" stroke-width="2" fill="none"></path></g><g transform="translate(425.7718284941407 252.1760728417968) rotate(0 20 12.5)"><text x="20" y="0" font-family="Virgil, Segoe UI Emoji" font-size="20px" fill="#1e1e1e" text-anchor="middle" style="white-space: pre;" direction="ltr" dominant-baseline="text-before-edge">关闭</text></g><g stroke-linecap="round" transform="translate(155.55751275683593 386.296341) rotate(0 54.81480407714844 30)"><path d="M15 0 C33.94 0, 52.87 0, 94.63 0 C104.63 0, 109.63 5, 109.63 15 C109.63 25.64, 109.63 36.27, 109.63 45 C109.63 55, 104.63 60, 94.63 60 C64.52 60, 34.42 60, 15 60 C5 60, 0 55, 0 45 C0 36.72, 0 28.44, 0 15 C0 5, 5 0, 15 0" stroke="none" stroke-width="0" fill="#fa5252"></path><path d="M15 0 C38.34 0, 61.68 0, 94.63 0 M15 0 C33.27 0, 51.54 0, 94.63 0 M94.63 0 C104.63 0, 109.63 5, 109.63 15 M94.63 0 C104.63 0, 109.63 5, 109.63 15 M109.63 15 C109.63 22.16, 109.63 29.32, 109.63 45 M109.63 15 C109.63 22.13, 109.63 29.26, 109.63 45 M109.63 45 C109.63 55, 104.63 60, 94.63 60 M109.63 45 C109.63 55, 104.63 60, 94.63 60 M94.63 60 C72.09 60, 49.56 60, 15 60 M94.63 60 C68.35 60, 42.07 60, 15 60 M15 60 C5 60, 0 55, 0 45 M15 60 C5 60, 0 55, 0 45 M0 45 C0 35.59, 0 26.18, 0 15 M0 45 C0 37.37, 0 29.75, 0 15 M0 15 C0 5, 5 0, 15 0 M0 15 C0 5, 5 0, 15 0" stroke="#f08c00" stroke-width="2" fill="none"></path></g><g transform="translate(170.37231683398437 393.296341) rotate(0 40 23)"><text x="40" y="0" font-family="Helvetica, Segoe UI Emoji" font-size="20px" fill="#ffffff" text-anchor="middle" style="white-space: pre;" direction="ltr" dominant-baseline="text-before-edge">点此处可</text><text x="40" y="23" font-family="Helvetica, Segoe UI Emoji" font-size="20px" fill="#ffffff" text-anchor="middle" style="white-space: pre;" direction="ltr" dominant-baseline="text-before-edge">拖动</text></g><g stroke-linecap="round" transform="translate(90.37233997265625 10) rotate(0 94.81479613330079 31.740737915039062)"><path d="M15.87 0 C73.7 0, 131.53 0, 173.76 0 C184.34 0, 189.63 5.29, 189.63 15.87 C189.63 22.61, 189.63 29.35, 189.63 47.61 C189.63 58.19, 184.34 63.48, 173.76 63.48 C141.79 63.48, 109.82 63.48, 15.87 63.48 C5.29 63.48, 0 58.19, 0 47.61 C0 35.58, 0 23.54, 0 15.87 C0 5.29, 5.29 0, 15.87 0" stroke="none" stroke-width="0" fill="#fa5252"></path><path d="M15.87 0 C66.93 0, 117.98 0, 173.76 0 M15.87 0 C65.23 0, 114.58 0, 173.76 0 M173.76 0 C184.34 0, 189.63 5.29, 189.63 15.87 M173.76 0 C184.34 0, 189.63 5.29, 189.63 15.87 M189.63 15.87 C189.63 24.22, 189.63 32.57, 189.63 47.61 M189.63 15.87 C189.63 27.29, 189.63 38.71, 189.63 47.61 M189.63 47.61 C189.63 58.19, 184.34 63.48, 173.76 63.48 M189.63 47.61 C189.63 58.19, 184.34 63.48, 173.76 63.48 M173.76 63.48 C121.44 63.48, 69.12 63.48, 15.87 63.48 M173.76 63.48 C134.74 63.48, 95.72 63.48, 15.87 63.48 M15.87 63.48 C5.29 63.48, 0 58.19, 0 47.61 M15.87 63.48 C5.29 63.48, 0 58.19, 0 47.61 M0 47.61 C0 39.53, 0 31.44, 0 15.87 M0 47.61 C0 36.02, 0 24.43, 0 15.87 M0 15.87 C0 5.29, 5.29 0, 15.87 0 M0 15.87 C0 5.29, 5.29 0, 15.87 0" stroke="#f08c00" stroke-width="2" fill="none"></path></g><g transform="translate(105.18713610595704 18.740737915039062) rotate(0 80 23)"><text x="80" y="0" font-family="Helvetica, Segoe UI Emoji" font-size="20px" fill="#ffffff" text-anchor="middle" style="white-space: pre;" direction="ltr" dominant-baseline="text-before-edge">可以输入一个空白</text><text x="80" y="23" font-family="Helvetica, Segoe UI Emoji" font-size="20px" fill="#ffffff" text-anchor="middle" style="white-space: pre;" direction="ltr" dominant-baseline="text-before-edge">的drawio文件</text></g><g stroke-linecap="round"><g transform="translate(151.31260264194373 382.4314551086597) rotate(0 -61.52663976091327 -54.141607463509565)"><path d="M0 0 C-20.51 -18.05, -102.54 -90.24, -123.05 -108.28 M0 0 C-20.51 -18.05, -102.54 -90.24, -123.05 -108.28" stroke="#e8590c" stroke-width="2" fill="none"></path></g><g transform="translate(151.31260264194373 382.4314551086597) rotate(0 -61.52663976091327 -54.141607463509565)"><path d="M-99.77 -99.18 C-109 -102.79, -118.23 -106.4, -123.05 -108.28 M-99.77 -99.18 C-105.42 -101.39, -111.08 -103.6, -123.05 -108.28" stroke="#e8590c" stroke-width="2" fill="none"></path></g><g transform="translate(151.31260264194373 382.4314551086597) rotate(0 -61.52663976091327 -54.141607463509565)"><path d="M-111.07 -86.34 C-115.82 -95.04, -120.57 -103.74, -123.05 -108.28 M-111.07 -86.34 C-113.98 -91.67, -116.89 -97, -123.05 -108.28" stroke="#e8590c" stroke-width="2" fill="none"></path></g></g><mask></mask><g stroke-linecap="round"><g transform="translate(165.93911551329998 76.07408231249997) rotate(0 -37.617712969052334 89.37040718164062)"><path d="M0 0 C-12.54 29.79, -62.7 148.95, -75.24 178.74 M0 0 C-12.54 29.79, -62.7 148.95, -75.24 178.74" stroke="#e8590c" stroke-width="2" fill="none"></path></g><g transform="translate(165.93911551329998 76.07408231249997) rotate(0 -37.617712969052334 89.37040718164062)"><path d="M-74 153.77 C-74.29 159.65, -74.58 165.53, -75.24 178.74 M-74 153.77 C-74.44 162.63, -74.88 171.48, -75.24 178.74" stroke="#e8590c" stroke-width="2" fill="none"></path></g><g transform="translate(165.93911551329998 76.07408231249997) rotate(0 -37.617712969052334 89.37040718164062)"><path d="M-58.24 160.41 C-62.24 164.72, -66.24 169.04, -75.24 178.74 M-58.24 160.41 C-64.27 166.91, -70.3 173.41, -75.24 178.74" stroke="#e8590c" stroke-width="2" fill="none"></path></g></g><mask></mask><g stroke-linecap="round"><g transform="translate(262.61112188232426 384.22228298291014) rotate(0 119.33334350585938 -58.333343505859375)"><path d="M0 0 C82.44 -40.3, 164.87 -80.59, 238.67 -116.67 M0 0 C54 -26.4, 108 -52.79, 238.67 -116.67" stroke="#1e1e1e" stroke-width="2" fill="none"></path></g><g transform="translate(262.61112188232426 384.22228298291014) rotate(0 119.33334350585938 -58.333343505859375)"><path d="M221.32 -98.67 C227.31 -104.88, 233.3 -111.1, 238.67 -116.67 M221.32 -98.67 C225.24 -102.74, 229.17 -106.81, 238.67 -116.67" stroke="#1e1e1e" stroke-width="2" fill="none"></path></g><g transform="translate(262.61112188232426 384.22228298291014) rotate(0 119.33334350585938 -58.333343505859375)"><path d="M213.81 -114.03 C222.39 -114.94, 230.98 -115.85, 238.67 -116.67 M213.81 -114.03 C219.43 -114.63, 225.06 -115.22, 238.67 -116.67" stroke="#1e1e1e" stroke-width="2" fill="none"></path></g></g><mask></mask></svg>