<svg version="1.1" xmlns="http://www.w3.org/2000/svg" viewBox="0 0 831.8148739111327 337.88150597656255" width="831.8148739111327" height="337.88150597656255">
  <!-- svg-source:excalidraw -->
  <!-- payload-type:application/vnd.excalidraw+json --><!-- payload-version:2 --><!-- payload-start -->eyJ2ZXJzaW9uIjoiMSIsImVuY29kaW5nIjoiYnN0cmluZyIsImNvbXByZXNzZWQiOnRydWUsImVuY29kZWQiOiJ4nO2cW2/jxlx1MDAxNcff91NcdTAwMTjua8zMzJlr3rzy+r62ZPmydlx1MDAxM1x1MDAxOLREWbSpiynKslx1MDAxNeShQIumQdGgaJJtXHUwMDEzXHUwMDE0SNBcdTAwMTbIS1NcdTAwMTQpXG60XHTyaWJv9lt0RpZNmTa9kmWRMlDtwrCHpGY4/P/mnDNzOO8/mZiYXGZO687kO1x1MDAxM5POScH23KJvtybfMuXHjt9wa1V9iHT+btSafqFzZjlcYuqNd95+O7zCKtQqXHUwMDE3VzmeU3GqQUOf93P998TE+52fPfX4TiGwq/ue07mgc6inKlxm0dKVWrVTLVx1MDAwMMKYU8KvTnBcdTAwMWIzurrAKeqjJdtrOOFcdTAwMTFTNLnTzLjT895cZlvNl9z6jtc6eHGaXHJrLbmel1x1MDAwZk69i3uyXHUwMDBi5abf06ZG4NdcdTAwMGWdLbdcdTAwMTiU9XFcdTAwMWMpv7quWFx1MDAwYkxcdTAwMDOuXHUwMDBl+7XmfrnqNExcdTAwMDegq9Ja3S64wan5XCJcdTAwMTSWXvRC73kn5j4txlx1MDAxOFx1MDAwN8BcboApfb/s6rD5XHUwMDAyii2KXHUwMDA0cGBCYYSZiLQsU/NqvmnZz7BcdTAwMTK4QMKm7dmFw33dvmoxPKdUclxuSoXntLr3K6iwXHUwMDAwgFx1MDAxMEyBMcrDTi877n45MI+KgDlcdTAwMDX0XHSISaZAhi1xOs+EXHUwMDEwhjDlKLxcdTAwMDFTfX2h2FHHe+GD8O2Ks2CuqDY9r7crq8VuV16qKNRcdTAwMTF0Sz5cYu/PnP+sR39hXHLNetG+0Fx0XHUwMDE2us8w55RKXHUwMDFhdp3nVlx1MDAwZqPVe7XCYSitJz113ZB04JxcdTAwMDS3qVnxODFcdTAwMGItdMBE9i9mb6rcXFxaJ8dqtZZ/uri0dOTkiqVcdTAwMTgxXHUwMDE3/FqjMVW2g0J5YEE3alx1MDAxYemH1DORXHUwMDE2o1RcYkw4XHUwMDEylGBJr+lZaL3rMiGN6rmWdqyeXHUwMDFkXHUwMDA0XHUwMDE48N163iMlsrd3U89YKItcdTAwMDORmLCbSlx1MDAwNm7d0C6WmGJcdTAwMDSK0+HFe+3AwCqVXHUwMDAzqDRsVa1cdTAwMWHk3bZ5XHUwMDFhmF8rnbUrrnd6OapfyNjIV/feZj5TKzrnXHUwMDFmfjbnXHUwMDA28829i19cdTAwMWP73eqrz3/56vvPfvrh92d/+nry2mXTnrtf7cjTKV1HIHC1cbg6XHUwMDFj1Orh0YJuhu1WXHUwMDFk/2a31Xx3363a3vr9mqR7yJm/fKzYwqxHLFxyx1x1MDAxYzWPm9xcdTAwMGJmLGJNXHUwMDEzZlx1MDAxNFOkXHUwMDA37FD5b8L5UJBlhFx1MDAwYvmjYGplafFpwd/YWjl9XGY4YyBcdTAwMTbmkiDe5TnUkflcdTAwMDLAwpL6w9VcdTAwMDXP0Yb1mCfH/LtcdTAwMWbOlFtI9zeDW3k2JjLKM1x1MDAwNz3EXHUwMDAwpSFcZsnjLLHgiPeK9Vx1MDAxZThD3zif/+OTiWRpvV5jfzDCvWAklERLQ1x1MDAxOEFhjihcdTAwMGJcdTAwMDfON8G42XSXc+5+w59fab8oPVu1K7uB8yhglMZbXHUwMDA0RbvG9b4skpJyKL2naaUhbHdcIqh9SUSlcVx002SQXFxcdTAwMGIhRs3g2T8/PvvPp68/+ebVXHUwMDE3f0yWxdtrXHUwMDFlKZM9xEWZ1FZD6PGahz30Jib3/bnFtVxcbqGyOVfb8Xhzb9vObTxcdTAwMDYmddRkKVx1MDAxMILAXHUwMDA1k6HXcCuTNNKwh/F3XHQng1pIXHKG4lx1MDAxOHiqXHUwMDE2kiilXHUwMDA2XHTLhqNz4uyvn59/8S/98+ybz88+/Pf5b3+jgUmW0ze14SGIvXvKhcf6tUwoTiTg/qPURXLUmN8ur5LFXCJvZY6yrS1nqVx1MDAxOENthLy0eGXUksiEWuri0+NcInZUo1lcdTAwMTHmg5iSOoRcdTAwMTTDXHUwMDAxW3CKtGjfXHUwMDA0llx1MDAwYmaBXHUwMDFlXHJkqP6QVmYpPbhcblwiXHUwMDExXHUwMDExQEGEXHUwMDFhuGJcdTAwMTdcdTAwMThWKFx1MDAxY3+TR1eHR7xn8m7IXHUwMDE5lTtcdTAwMTWrx4k4xWrzXHUwMDBlxs/vW7C7W8eLxTVZWDr2XHUwMDFiT3HlpFWsrE2Pt2AlMTOAlDCi75QgXHUwMDEyp9dLPY/EwFCwXHUwMDA0XHUwMDAyoVx1MDAxZDpcdTAwMDAlr2nypm6jcsVEN1x1MDAwZjCTaVxuduDJlSFcdTAwMDQrYidcdTAwMDIx45Rrp2CAMbahnmVcdTAwMGVKXHUwMDFi87l5QLXM6s6pIMWZ8ZYsXHUwMDA2ZWnPn1x1MDAwMO9qVjw+zeqnhJlCXCJN/4ggKdkg0ctcdTAwMTCaVfHePOWU6U5i/XvzO5Wl7ZPykTx2d1x0X/Tm2yf+RmHMNauERVx1MDAxNCAqupqlj0+zXGYpXbNEaUbcXHUwMDA0aZdFJaJZ0rPUdMOVXHUwMDE1Olx1MDAxNsKif8mqhc1mXHUwMDFlSo3DoPa0ZS+g2aO2JOMtWcLAXCKMXHUwMDAyI13JsrslO9xaS5wrO6RrIM2SYoqDrHbzdSxAklx1MDAxMSzBcYLFTMPLucT9K3bxYG7u+HhuXHQ1irNlf0bkKrasjrdiXHUwMDAxXHUwMDEzXHUwMDBiXHUwMDBiybnqKvZ2wcbPXFymJ1SuQzZJXHUwMDExSdGHZUohJJJcdLpcYsT7sFxuYSx1/Nd/2GWX/LncSp418sWCY3tcdTAwMDGp7EyN+eBcblxcWZzoXGJcdTAwMWTdLVV08YGhJGuzoiyVXHUwMDFlWLLae5WSUJ5m1EWAqJ5cdTAwMDWDkSqWx1x1MDAwZa6c6I5AbICg6+TALtszq7PTLXd5ZvnU2V4+2lx1MDAxZfOJLUqYxaRcdTAwMTZrd6JcdTAwMDDHTFx1MDAxNFxcKpaPn2Kx4Uxp5lJ1YIlQgJORrEBxkjVcdClcdTAwMWNcdTAwMGKG+l/WJPuzWTSX3Wft3Vx1MDAwM9fOl6ZcdTAwMTaXXHUwMDBmxZhrVlKLIS1J3NVsTND1MJpcdTAwMWSJY1x1MDAwMMIsPyuV5jxcdTAwMDHGOmxlyUhWxo6yXHUwMDFhXHUwMDFioGRcdTAwMTC3YCVDvUJ5XHUwMDEzXHUwMDAyJ1dabTdcdTAwMGaX7SDwx1uxjFwiS5tUimRXsY9OsNhcYtZkpqA0XHUwMDE1XHUwMDBiVPSkT41SsYDic0c0N4BcdTAwMDVcdTAwMTkg6ML11ZP2s0pcdTAwMTOtzK5cdTAwMTRhN9tiuVx1MDAwMlx1MDAxYnPJKm5Rolx1MDAwNGb9SHa42CuaWfIgitVN7sxssVTnYjkgmsw0XHUwMDAx4HjFUmrQwVx1MDAwM7hcdTAwMDXtlTouiudLR2uZbZZrbzR2W35mvFx1MDAxNctcdTAwMTmxQGFESF+KJUNJdjSDrFnbZUShVFx1MDAwN1kpqHowtyA2XHUwMDBmXGLFzlx1MDAxNEjBqX5O0P/w6uTKa63nUzZ+1jpZXyAnm/xoeWG8xarA0jGL4lx1MDAwNGOih4jI+1x1MDAxYoTpqIxcIoFcdTAwMDRcdTAwMDFcci/rmaN9SLFcdTAwMTLtlcQk/2B5M/mHmcRcdTAwMWJK0lxc3GJKo8VcdTAwMDZcdTAwMTlQw1bdJ9t9vqdnk0j06a2vr6RcdTAwMWVM74dcdTAwMWZcdTAwMTbR0kv8iFx1MDAwZUxcdTAwMThcdTAwMTe0/zT1ermSLWxcdTAwMWNXt9xse23XX2nS0+zBeOOnXVx1MDAwM0tokyjgXHUwMDEx8YdcdTAwMTWWXGJ4uvxxqVx1MDAwNlpcXFx1MDAxZZI/kjB/JCH+4I41XHUwMDFkzrCQiPRcdTAwMGag3Vx1MDAxMJtZurPSRFNuXHUwMDBiXHTKVclbXHUwMDFmb1x1MDAwMFx0klx1MDAxNlx1MDAxNmZxpFx1MDAwYmBk3nEsXHUwMDAxXHUwMDA0rm9cZmi6qzlcdFx1MDAxYkBIXHUwMDE4QEhcYkB+R7SkXVx1MDAxY0bZICtVuVYtz+XmTslfdtu7zemD4qZcdTAwMWNzXHUwMDAwObJ0XGZiZlE7XHUwMDAwRpOtuFx1MDAwNT38XHK3UFx1MDAxNYdfj4t/93uWenxQlLFU37NEcG2gXHUwMDE4NXg/fveXV1/+4t3q2Z9fxlx1MDAxMFjQjXb8XHUwMDExMHhr1aN8a7I3Xzq6XGJcdTAwMDfSpFNcdTAwMGbwzuRcZj7OZNq2Y8PeMy+LZ6eWZX68UVx1MDAwNG1rXHUwMDEwIEbIrShGTWFyLN7qhEqsXHUwMDEwXGKearpcdTAwMThiSIhB0sWGY/Hs+09ffZLwS83ROkdqXGZlbDSIpYwmW72JwMxUXHUwMDFibVx1MDAxZfmtzP6WvTUnjo7VfFx1MDAwNo85gYLqcJAw2TWG0UXwiDFcdTAwMWPN1GHf1lAwoZ9J76CYXHUwMDAygVxcd8YgKVx1MDAxYcNcdTAwMTF4/vLLs/9+rE3Shy9/+iphXHUwMDEy4+pcdTAwMWWlRVx1MDAwNKSipVdEglx1MDAxMlx1MDAxY1x1MDAxOFx1MDAxOYDI5TbenSbtdqve9l+o5dlKfqcx7mv85lx1MDAwNUnMMYVHQKSZl0Ep50whpf8nXHUwMDA35I/ffXf20VfpXHUwMDAwXHUwMDE5V/dIgYTYrHEslY5OXHUwMDAwVP9A5re225lm3c94XHUwMDFiLf/EXHUwMDBljtfn9l6MOZBcbltIKYH4rUBGnNSUfVROqNBPJd1kXHUwMDA1guhASYxDWshvv379649cdTAwMTK2jJE6R+mjXHUwMDAyjbWImj2uXHUwMDBmy/6DRLS6vjfVymwvzLLi3ObJwm4jXHUwMDFmjHmiJqPC0uwhfLtBXHUwMDFjK/5Amj1cdTAwMDLSzbzAjHGcXHUwMDFjfq//8MP57/6WLH7ROkeKXHUwMDFmj52i0c6PSaugXHUwMDAzLFg4M2vPp2dcdTAwMGXpRnD6ot0qXHUwMDEx79TdXHUwMDFm9+xcdTAwMTJcdTAwMDRcdTAwMTZcIsTklfQxSVx1MDAwM/Ev+pU6n9FcdTAwMDJIXHUwMDEwIKR692RIIfWJkd5tXHUwMDEyRlxyoPZcdTAwMDTPv/w+WVx1MDAwMKN1jlx1MDAxNEBcdTAwMTmbMIOVxEpcdTAwMDFD/Vx1MDAwM4jJTmHKhYXV7EJtY3ZTtnaLzbUxXHUwMDA3kElLSfNyeD9cdTAwMDZwNFx1MDAxYnD0z59UuqUk1UlSszdsglx1MDAwMJ796tvXL/+e8CRppM6HXHUwMDAwsOTrZ3i5wfFlcy8hjLeBxGT8XHKyXHUwMDBiXHUwMDBlYSuHrb2pxTV+0F6aPn1ur+9VlsdcdTAwMWNBXGZmXyrFTTa4UjE7yVx0REBcdTAwMTEmZKRdg5nAuJxgZF1LN77CMFJ+OTMjXHUwMDA1XHUwMDAzkq4hXHUwMDA0wfn9Nmit19zeXbLNJ/xtXCJ8OJ0/rn5/763bz77WQWFJeN2TyPWTnt1cYjK1SsU121dnTWOiXHJvuJWmp2836+tOMltjvzNcdTAwMTH4zZ476JZf9NHDcydcdTAwMTiTktJcdTAwMDE2mVxintLn6zNrm+6Um6lnW1x1MDAxYvOHQXHM50IlZpZJKTavPJm3ziMvlVx1MDAwMrKo7GyhLTCR6o63R5LkzqxnilRcdTAwMTOZQVxiUP/n7oq7J90qJu16PVx1MDAxZuiLJy+3TJ88dp3W01t3fu9cYuZJl1pDR+cr3//gyVx1MDAwN/9cdTAwMDNcdTAwMTmINHoifQ==<!-- payload-end -->
  <defs>
    <style class="style-fonts">
      @font-face {
        font-family: "Virgil";
        src: url("https://excalidraw.com/Virgil.woff2");
      }
      @font-face {
        font-family: "Cascadia";
        src: url("https://excalidraw.com/Cascadia.woff2");
      }
      @font-face {
        font-family: "Assistant";
        src: url("https://excalidraw.com/Assistant-Regular.woff2");
      }
    </style>
    
  </defs>
  <g stroke-linecap="round" transform="translate(10 10) rotate(0 373.6666107177733 111.66667175292969)"><path d="M7.86 8.16 C7.86 8.16, 7.86 8.16, 7.86 8.16 M7.86 8.16 C7.86 8.16, 7.86 8.16, 7.86 8.16 M2.35 20.59 C7.19 15.03, 12.02 9.47, 18.1 2.48 M2.35 20.59 C6.19 16.18, 10.02 11.77, 18.1 2.48 M0.78 28.5 C8.49 19.64, 16.19 10.77, 25.05 0.58 M0.78 28.5 C7.72 20.52, 14.66 12.54, 25.05 0.58 M0.52 34.9 C7.01 27.43, 13.51 19.96, 30.7 0.18 M0.52 34.9 C10.54 23.37, 20.56 11.84, 30.7 0.18 M0.26 41.3 C8.75 31.53, 17.24 21.76, 36.34 -0.21 M0.26 41.3 C10.57 29.44, 20.88 17.57, 36.34 -0.21 M-0.01 47.7 C12.68 33.1, 25.37 18.5, 41.33 0.15 M-0.01 47.7 C11.42 34.55, 22.85 21.4, 41.33 0.15 M0.39 53.34 C13.8 37.92, 27.2 22.49, 46.97 -0.25 M0.39 53.34 C13.24 38.56, 26.08 23.78, 46.97 -0.25 M0.13 59.74 C15.58 41.96, 31.04 24.18, 51.96 0.11 M0.13 59.74 C11.16 47.05, 22.19 34.36, 51.96 0.11 M0.52 65.38 C20.82 42.03, 41.12 18.67, 57.6 -0.28 M0.52 65.38 C22.77 39.79, 45.01 14.2, 57.6 -0.28 M0.26 71.78 C19.54 49.59, 38.83 27.41, 62.59 0.08 M0.26 71.78 C25.03 43.28, 49.81 14.78, 62.59 0.08 M0.65 77.42 C19.01 56.3, 37.37 35.18, 67.57 0.44 M0.65 77.42 C22.84 51.9, 45.02 26.38, 67.57 0.44 M0.39 83.82 C27.04 53.17, 53.68 22.52, 73.22 0.04 M0.39 83.82 C22.76 58.08, 45.14 32.35, 73.22 0.04 M0.13 90.22 C26.2 60.23, 52.27 30.24, 78.2 0.41 M0.13 90.22 C21.65 65.47, 43.16 40.72, 78.2 0.41 M0.53 95.86 C25.32 67.34, 50.11 38.82, 83.85 0.01 M0.53 95.86 C28.77 63.37, 57 30.89, 83.85 0.01 M0.26 102.26 C33.85 63.62, 67.43 24.99, 88.83 0.37 M0.26 102.26 C32.72 64.92, 65.18 27.58, 88.83 0.37 M0.66 107.9 C23.09 82.1, 45.52 56.29, 94.48 -0.02 M0.66 107.9 C29.74 74.45, 58.82 40.99, 94.48 -0.02 M0.4 114.3 C31.08 79.01, 61.75 43.72, 99.46 0.34 M0.4 114.3 C22.12 89.31, 43.84 64.32, 99.46 0.34 M0.79 119.94 C35.2 80.36, 69.61 40.77, 105.11 -0.06 M0.79 119.94 C38.14 76.98, 75.48 34.02, 105.11 -0.06 M0.53 126.34 C42.11 78.5, 83.7 30.67, 110.09 0.3 M0.53 126.34 C24.54 98.71, 48.56 71.09, 110.09 0.3 M0.27 132.74 C24.96 104.33, 49.65 75.93, 115.74 -0.09 M0.27 132.74 C28.08 100.74, 55.9 68.74, 115.74 -0.09 M0.66 138.38 C36.4 97.27, 72.13 56.17, 120.72 0.27 M0.66 138.38 C27.29 107.75, 53.92 77.11, 120.72 0.27 M0.4 144.78 C43.2 95.55, 86 46.31, 126.37 -0.13 M0.4 144.78 C30.24 110.45, 60.09 76.12, 126.37 -0.13 M0.8 150.42 C43.56 101.23, 86.31 52.04, 131.35 0.23 M0.8 150.42 C33.83 112.41, 66.87 74.41, 131.35 0.23 M0.54 156.82 C36.15 115.85, 71.76 74.88, 137 -0.16 M0.54 156.82 C33.92 118.42, 67.3 80.02, 137 -0.16 M0.93 162.46 C55.58 99.6, 110.22 36.73, 141.98 0.2 M0.93 162.46 C30.43 128.52, 59.93 94.59, 141.98 0.2 M0.67 168.86 C49.99 112.12, 99.31 55.39, 147.63 -0.2 M0.67 168.86 C42.24 121.03, 83.82 73.2, 147.63 -0.2 M0.41 175.26 C53.72 113.93, 107.03 52.6, 152.61 0.16 M0.41 175.26 C54.68 112.82, 108.96 50.38, 152.61 0.16 M0.8 180.9 C36.45 139.89, 72.1 98.88, 158.26 -0.23 M0.8 180.9 C62.36 110.09, 123.91 39.28, 158.26 -0.23 M0.54 187.3 C56.46 122.97, 112.38 58.64, 163.24 0.13 M0.54 187.3 C38.33 143.82, 76.12 100.35, 163.24 0.13 M0.94 192.94 C34.67 154.14, 68.4 115.34, 168.89 -0.27 M0.94 192.94 C56.06 129.53, 111.19 66.11, 168.89 -0.27 M0.67 199.34 C43.97 149.53, 87.26 99.73, 173.87 0.09 M0.67 199.34 C60.13 130.94, 119.6 62.53, 173.87 0.09 M1.72 204.23 C42.65 157.15, 83.57 110.07, 178.86 0.45 M1.72 204.23 C50.36 148.28, 98.99 92.33, 178.86 0.45 M3.43 208.36 C40.75 165.43, 78.07 122.5, 184.5 0.06 M3.43 208.36 C51.81 152.71, 100.18 97.06, 184.5 0.06 M5.79 211.74 C59.77 149.65, 113.74 87.56, 189.49 0.42 M5.79 211.74 C66.43 141.99, 127.06 72.24, 189.49 0.42 M8.16 215.12 C64.95 149.78, 121.74 84.45, 195.13 0.03 M8.16 215.12 C73.9 139.48, 139.65 63.85, 195.13 0.03 M11.18 217.74 C62.33 158.9, 113.48 100.05, 200.12 0.39 M11.18 217.74 C51.84 170.97, 92.5 124.19, 200.12 0.39 M14.85 219.61 C70.08 156.08, 125.31 92.55, 205.76 -0.01 M14.85 219.61 C55.86 172.44, 96.87 125.26, 205.76 -0.01 M18.53 221.48 C66.19 166.65, 113.86 111.82, 210.75 0.35 M18.53 221.48 C89.78 139.51, 161.04 57.54, 210.75 0.35 M22.86 222.6 C73.9 163.87, 124.95 105.15, 216.39 -0.04 M22.86 222.6 C70.29 168.03, 117.72 113.47, 216.39 -0.04 M27.19 223.71 C69.22 175.36, 111.24 127.02, 221.38 0.32 M27.19 223.71 C77.21 166.16, 127.24 108.62, 221.38 0.32 M32.17 224.07 C106.78 138.24, 181.39 52.42, 227.02 -0.08 M32.17 224.07 C90.85 156.57, 149.53 89.07, 227.02 -0.08 M37.82 223.68 C109.99 140.65, 182.17 57.62, 232.01 0.28 M37.82 223.68 C87.79 166.2, 137.75 108.71, 232.01 0.28 M42.8 224.04 C112.39 143.98, 181.98 63.93, 237.65 -0.11 M42.8 224.04 C84.13 176.5, 125.45 128.96, 237.65 -0.11 M48.45 223.64 C90 175.84, 131.56 128.03, 242.64 0.25 M48.45 223.64 C120.59 140.65, 192.73 57.67, 242.64 0.25 M53.43 224 C121.94 145.19, 190.45 66.38, 248.28 -0.15 M53.43 224 C107.45 161.87, 161.46 99.74, 248.28 -0.15 M59.08 223.61 C107.3 168.13, 155.53 112.65, 253.27 0.21 M59.08 223.61 C121.63 151.64, 184.19 79.68, 253.27 0.21 M64.06 223.97 C119.8 159.85, 175.54 95.73, 258.91 -0.18 M64.06 223.97 C135.41 141.9, 206.75 59.83, 258.91 -0.18 M69.71 223.57 C124.93 160.05, 180.15 96.53, 263.9 0.18 M69.71 223.57 C118.56 167.37, 167.41 111.17, 263.9 0.18 M74.69 223.93 C139.97 148.84, 205.25 73.75, 269.54 -0.22 M74.69 223.93 C117.35 174.87, 160 125.8, 269.54 -0.22 M80.34 223.54 C145.66 148.4, 210.98 73.25, 274.53 0.14 M80.34 223.54 C123.53 173.85, 166.72 124.17, 274.53 0.14 M85.33 223.9 C129.68 172.87, 174.04 121.84, 280.17 -0.25 M85.33 223.9 C152.69 146.4, 220.06 68.9, 280.17 -0.25 M90.97 223.5 C153.77 151.26, 216.57 79.01, 285.16 0.11 M90.97 223.5 C152.64 152.56, 214.32 81.61, 285.16 0.11 M95.96 223.86 C163.73 145.9, 231.5 67.94, 290.8 -0.28 M95.96 223.86 C159.72 150.51, 223.49 77.15, 290.8 -0.28 M101.6 223.47 C173.28 141, 244.97 58.54, 295.79 0.08 M101.6 223.47 C167.69 147.44, 233.79 71.4, 295.79 0.08 M106.59 223.83 C152.04 171.54, 197.49 119.25, 300.78 0.44 M106.59 223.83 C167.63 153.6, 228.68 83.38, 300.78 0.44 M112.23 223.43 C170.88 155.97, 229.53 88.5, 306.42 0.04 M112.23 223.43 C173.26 153.23, 234.29 83.02, 306.42 0.04 M117.22 223.79 C171.52 161.33, 225.82 98.86, 311.41 0.4 M117.22 223.79 C180.96 150.47, 244.7 77.14, 311.41 0.4 M122.86 223.4 C191.81 144.08, 260.77 64.76, 317.05 0.01 M122.86 223.4 C197.27 137.8, 271.69 52.19, 317.05 0.01 M127.85 223.76 C172.98 171.83, 218.12 119.91, 322.04 0.37 M127.85 223.76 C197.84 143.24, 267.84 62.72, 322.04 0.37 M133.49 223.37 C185.17 163.92, 236.84 104.47, 327.68 -0.03 M133.49 223.37 C193.95 153.82, 254.4 84.27, 327.68 -0.03 M138.48 223.73 C195.79 157.8, 253.1 91.87, 332.67 0.33 M138.48 223.73 C191.46 162.78, 244.43 101.83, 332.67 0.33 M143.46 224.09 C217.03 139.46, 290.6 54.82, 338.31 -0.06 M143.46 224.09 C218.12 138.2, 292.78 52.32, 338.31 -0.06 M149.11 223.69 C192.79 173.44, 236.47 123.18, 343.3 0.3 M149.11 223.69 C206.88 157.23, 264.65 90.77, 343.3 0.3 M154.09 224.05 C219.68 148.61, 285.26 73.16, 348.94 -0.1 M154.09 224.05 C213.23 156.02, 272.37 87.99, 348.94 -0.1 M159.74 223.66 C205.16 171.4, 250.59 119.14, 353.93 0.26 M159.74 223.66 C225.17 148.38, 290.61 73.1, 353.93 0.26 M164.72 224.02 C241.69 135.48, 318.65 46.94, 359.57 -0.13 M164.72 224.02 C222.69 157.34, 280.65 90.66, 359.57 -0.13 M170.37 223.62 C226.44 159.12, 282.5 94.62, 364.56 0.23 M170.37 223.62 C221.63 164.65, 272.9 105.67, 364.56 0.23 M175.35 223.98 C235.63 154.65, 295.9 85.31, 370.2 -0.17 M175.35 223.98 C216.37 176.79, 257.39 129.61, 370.2 -0.17 M181 223.59 C221.91 176.52, 262.83 129.45, 375.19 0.19 M181 223.59 C224.04 174.07, 267.09 124.54, 375.19 0.19 M185.98 223.95 C232.9 169.98, 279.82 116, 380.83 -0.2 M185.98 223.95 C226.58 177.24, 267.19 130.53, 380.83 -0.2 M191.63 223.55 C264.63 139.57, 337.63 55.6, 385.82 0.16 M191.63 223.55 C254.43 151.31, 317.23 79.06, 385.82 0.16 M196.61 223.91 C246.35 166.7, 296.09 109.48, 391.46 -0.24 M196.61 223.91 C250.61 161.8, 304.6 99.69, 391.46 -0.24 M202.26 223.52 C244.03 175.47, 285.8 127.41, 396.45 0.12 M202.26 223.52 C270.79 144.68, 339.32 65.84, 396.45 0.12 M207.24 223.88 C250.76 173.82, 294.27 123.76, 402.09 -0.27 M207.24 223.88 C270.19 151.46, 333.14 79.05, 402.09 -0.27 M212.89 223.48 C273.8 153.41, 334.72 83.33, 407.08 0.09 M212.89 223.48 C264.19 164.46, 315.5 105.44, 407.08 0.09 M217.87 223.84 C280.06 152.3, 342.25 80.76, 412.07 0.45 M217.87 223.84 C270.88 162.86, 323.89 101.88, 412.07 0.45 M223.52 223.45 C284.06 153.8, 344.6 84.16, 417.71 0.06 M223.52 223.45 C278.21 160.53, 332.91 97.61, 417.71 0.06 M228.5 223.81 C291.81 150.98, 355.12 78.16, 422.7 0.42 M228.5 223.81 C301.09 140.3, 373.68 56.8, 422.7 0.42 M234.15 223.42 C273.79 177.81, 313.44 132.2, 428.34 0.02 M234.15 223.42 C311.8 134.08, 389.46 44.75, 428.34 0.02 M239.13 223.78 C302.29 151.12, 365.44 78.47, 433.33 0.38 M239.13 223.78 C296.01 158.35, 352.88 92.93, 433.33 0.38 M244.78 223.38 C291.45 169.69, 338.12 116, 438.97 -0.01 M244.78 223.38 C299.9 159.97, 355.03 96.55, 438.97 -0.01 M249.76 223.74 C290.01 177.45, 330.25 131.15, 443.96 0.35 M249.76 223.74 C292.06 175.09, 334.35 126.43, 443.96 0.35 M254.75 224.1 C298.49 173.78, 342.24 123.46, 449.6 -0.05 M254.75 224.1 C326.63 141.41, 398.51 58.72, 449.6 -0.05 M260.39 223.71 C331.48 141.93, 402.56 60.16, 454.59 0.31 M260.39 223.71 C329.62 144.07, 398.86 64.42, 454.59 0.31 M265.38 224.07 C307.37 175.77, 349.35 127.47, 460.23 -0.08 M265.38 224.07 C335.63 143.25, 405.89 62.43, 460.23 -0.08 M271.02 223.67 C309.94 178.9, 348.85 134.14, 465.22 0.28 M271.02 223.67 C317.1 170.67, 363.17 117.67, 465.22 0.28 M276.01 224.03 C320.21 173.19, 364.41 122.34, 470.86 -0.12 M276.01 224.03 C341.23 149, 406.46 73.97, 470.86 -0.12 M281.65 223.64 C323.14 175.91, 364.63 128.18, 475.85 0.24 M281.65 223.64 C322.17 177.03, 362.68 130.43, 475.85 0.24 M286.64 224 C350.32 150.74, 414 77.48, 481.49 -0.15 M286.64 224 C332.95 170.72, 379.26 117.45, 481.49 -0.15 M292.28 223.6 C353.24 153.48, 414.2 83.35, 486.48 0.21 M292.28 223.6 C358.2 147.77, 424.12 71.94, 486.48 0.21 M297.27 223.96 C363.2 148.12, 429.13 72.28, 492.12 -0.19 M297.27 223.96 C372.46 137.47, 447.65 50.98, 492.12 -0.19 M302.91 223.57 C363.87 153.44, 424.84 83.31, 497.11 0.17 M302.91 223.57 C364.85 152.32, 426.78 81.08, 497.11 0.17 M307.9 223.93 C373.96 147.94, 440.02 71.94, 502.75 -0.22 M307.9 223.93 C379.25 141.85, 450.61 59.76, 502.75 -0.22 M313.54 223.53 C358.43 171.9, 403.32 120.26, 507.74 0.14 M313.54 223.53 C382.79 143.88, 452.03 64.23, 507.74 0.14 M318.53 223.89 C388.9 142.94, 459.28 61.98, 513.38 -0.25 M318.53 223.89 C383.96 148.63, 449.39 73.36, 513.38 -0.25 M324.17 223.5 C399.47 136.88, 474.77 50.26, 518.37 0.11 M324.17 223.5 C378.97 160.47, 433.76 97.43, 518.37 0.11 M329.16 223.86 C385.82 158.69, 442.47 93.51, 523.35 0.47 M329.16 223.86 C391.71 151.9, 454.26 79.95, 523.35 0.47 M334.8 223.47 C395.11 154.09, 455.41 84.72, 529 0.07 M334.8 223.47 C382.54 168.55, 430.29 113.63, 529 0.07 M339.79 223.83 C412.12 140.62, 484.44 57.42, 533.98 0.43 M339.79 223.83 C402.51 151.68, 465.22 79.54, 533.98 0.43 M345.43 223.43 C390.3 171.82, 435.17 120.2, 539.63 0.04 M345.43 223.43 C387.78 174.72, 430.12 126.01, 539.63 0.04 M350.42 223.79 C408.6 156.86, 466.79 89.93, 544.61 0.4 M350.42 223.79 C390.5 177.68, 430.58 131.58, 544.61 0.4 M356.06 223.4 C430.92 137.29, 505.77 51.17, 550.26 0 M356.06 223.4 C412.29 158.72, 468.51 94.05, 550.26 0 M361.05 223.76 C424.03 151.31, 487.01 78.85, 555.24 0.36 M361.05 223.76 C401.99 176.66, 442.94 129.56, 555.24 0.36 M366.69 223.36 C427.81 153.06, 488.92 82.76, 560.89 -0.03 M366.69 223.36 C438.8 140.41, 510.9 57.47, 560.89 -0.03 M371.68 223.72 C440.09 145.02, 508.51 66.32, 565.87 0.33 M371.68 223.72 C419.26 168.99, 466.84 114.26, 565.87 0.33 M376.67 224.08 C447.66 142.42, 518.65 60.76, 571.52 -0.07 M376.67 224.08 C434.11 158, 491.55 91.92, 571.52 -0.07 M382.31 223.69 C429.69 169.19, 477.06 114.69, 576.5 0.29 M382.31 223.69 C457.65 137.03, 532.98 50.36, 576.5 0.29 M387.3 224.05 C462.24 137.84, 537.18 51.63, 582.15 -0.1 M387.3 224.05 C448.03 154.19, 508.76 84.32, 582.15 -0.1 M392.94 223.65 C454 153.41, 515.06 83.17, 587.14 0.26 M392.94 223.65 C468.47 136.76, 544 49.88, 587.14 0.26 M397.93 224.01 C442.85 172.34, 487.76 120.67, 592.78 -0.14 M397.93 224.01 C474.69 135.71, 551.44 47.42, 592.78 -0.14 M403.57 223.62 C448.91 171.46, 494.25 119.3, 597.77 0.22 M403.57 223.62 C474.98 141.47, 546.38 59.33, 597.77 0.22 M408.56 223.98 C459.55 165.32, 510.54 106.67, 603.41 -0.17 M408.56 223.98 C473.61 149.14, 538.67 74.3, 603.41 -0.17 M414.2 223.58 C477.44 150.84, 540.68 78.09, 608.4 0.19 M414.2 223.58 C475.21 153.4, 536.22 83.21, 608.4 0.19 M419.19 223.94 C466.43 169.6, 513.67 115.26, 614.04 -0.2 M419.19 223.94 C466.76 169.22, 514.33 114.5, 614.04 -0.2 M424.83 223.55 C477.28 163.22, 529.72 102.88, 619.03 0.16 M424.83 223.55 C500.3 136.73, 575.77 49.91, 619.03 0.16 M429.82 223.91 C476.94 169.71, 524.05 115.5, 624.67 -0.24 M429.82 223.91 C480.02 166.16, 530.22 108.41, 624.67 -0.24 M435.46 223.51 C474.42 178.7, 513.38 133.88, 629.66 0.12 M435.46 223.51 C478.51 173.99, 521.56 124.47, 629.66 0.12 M440.45 223.87 C505.43 149.12, 570.41 74.37, 635.3 -0.27 M440.45 223.87 C484.8 172.85, 529.15 121.83, 635.3 -0.27 M446.09 223.48 C486.07 177.49, 526.04 131.51, 640.29 0.09 M446.09 223.48 C487.69 175.63, 529.29 127.78, 640.29 0.09 M451.08 223.84 C508.54 157.74, 566 91.64, 645.27 0.45 M451.08 223.84 C495.29 172.98, 539.5 122.12, 645.27 0.45 M456.72 223.45 C501.19 172.29, 545.66 121.13, 650.92 0.05 M456.72 223.45 C502.83 170.41, 548.94 117.36, 650.92 0.05 M461.71 223.81 C522.31 154.09, 582.92 84.37, 655.9 0.41 M461.71 223.81 C510.58 167.59, 559.44 111.37, 655.9 0.41 M467.35 223.41 C538.81 141.21, 610.27 59, 661.55 0.02 M467.35 223.41 C532 149.05, 596.64 74.68, 661.55 0.02 M472.34 223.77 C524.74 163.49, 577.14 103.21, 666.53 0.38 M472.34 223.77 C533.26 153.69, 594.19 83.6, 666.53 0.38 M477.98 223.38 C550.89 139.51, 623.79 55.64, 672.18 -0.02 M477.98 223.38 C519.23 175.93, 560.48 128.48, 672.18 -0.02 M482.97 223.74 C533.77 165.3, 584.57 106.86, 677.16 0.34 M482.97 223.74 C550.63 145.9, 618.29 68.07, 677.16 0.34 M487.96 224.1 C557.83 143.71, 627.71 63.33, 682.81 -0.05 M487.96 224.1 C557.74 143.82, 627.53 63.54, 682.81 -0.05 M493.6 223.7 C548.85 160.14, 604.1 96.58, 687.79 0.31 M493.6 223.7 C553.9 154.33, 614.2 84.97, 687.79 0.31 M498.59 224.06 C553.05 161.4, 607.52 98.74, 693.44 -0.09 M498.59 224.06 C561.44 151.76, 624.29 79.45, 693.44 -0.09 M504.23 223.67 C570.34 147.62, 636.45 71.57, 698.42 0.27 M504.23 223.67 C557.66 162.2, 611.1 100.73, 698.42 0.27 M509.22 224.03 C558.88 166.9, 608.54 109.76, 704.07 -0.12 M509.22 224.03 C553.73 172.82, 598.25 121.6, 704.07 -0.12 M514.86 223.63 C580.08 148.6, 645.3 73.58, 709.05 0.24 M514.86 223.63 C580.45 148.18, 646.05 72.72, 709.05 0.24 M519.85 223.99 C569.73 166.61, 619.61 109.23, 714.7 -0.16 M519.85 223.99 C572.25 163.71, 624.65 103.43, 714.7 -0.16 M525.49 223.6 C599.67 138.26, 673.85 52.93, 719.68 0.2 M525.49 223.6 C586.49 153.43, 647.48 83.26, 719.68 0.2 M530.48 223.96 C570.92 177.44, 611.36 130.92, 724.01 1.32 M530.48 223.96 C570.61 177.8, 610.73 131.63, 724.01 1.32 M536.12 223.56 C592.97 158.16, 649.82 92.77, 729 1.68 M536.12 223.56 C582.45 170.26, 628.79 116.96, 729 1.68 M541.11 223.92 C597.52 159.03, 653.92 94.14, 732.68 3.55 M541.11 223.92 C594.25 162.78, 647.4 101.64, 732.68 3.55 M546.75 223.53 C602.62 159.26, 658.49 94.98, 736.35 5.42 M546.75 223.53 C598.41 164.1, 650.07 104.67, 736.35 5.42 M551.74 223.89 C598.26 170.37, 644.79 116.85, 739.37 8.04 M551.74 223.89 C604.88 162.76, 658.02 101.62, 739.37 8.04 M557.38 223.5 C613.99 158.37, 670.6 93.25, 741.73 11.42 M557.38 223.5 C628.83 141.3, 700.28 59.1, 741.73 11.42 M562.37 223.86 C609.53 169.6, 656.7 115.34, 744.1 14.8 M562.37 223.86 C616.72 161.33, 671.07 98.81, 744.1 14.8 M568.01 223.46 C614.57 169.9, 661.13 116.33, 745.8 18.93 M568.01 223.46 C618.24 165.68, 668.47 107.9, 745.8 18.93 M573 223.82 C620.64 169.01, 668.29 114.2, 746.85 23.82 M573 223.82 C637.26 149.9, 701.51 75.98, 746.85 23.82 M578.64 223.43 C645.03 147.05, 711.42 70.68, 747.25 29.47 M578.64 223.43 C624.94 170.17, 671.23 116.91, 747.25 29.47 M583.63 223.79 C631.15 169.11, 678.68 114.44, 746.99 35.86 M583.63 223.79 C617.9 184.36, 652.18 144.93, 746.99 35.86 M589.27 223.39 C643.35 161.18, 697.42 98.98, 747.38 41.51 M589.27 223.39 C621.12 186.76, 652.97 150.12, 747.38 41.51 M594.26 223.75 C634.67 177.26, 675.08 130.77, 747.12 47.9 M594.26 223.75 C640.87 170.13, 687.49 116.5, 747.12 47.9 M599.24 224.11 C636.41 181.35, 673.58 138.6, 747.51 53.55 M599.24 224.11 C646.83 169.37, 694.42 114.62, 747.51 53.55 M604.89 223.72 C633.82 190.43, 662.76 157.14, 747.25 59.95 M604.89 223.72 C634.87 189.22, 664.86 154.72, 747.25 59.95 M609.87 224.08 C646.86 181.53, 683.85 138.98, 747.65 65.59 M609.87 224.08 C639.01 190.57, 668.14 157.05, 747.65 65.59 M615.52 223.68 C651.27 182.56, 687.02 141.43, 747.39 71.99 M615.52 223.68 C648.85 185.34, 682.18 147, 747.39 71.99 M620.5 224.04 C652 187.81, 683.5 151.58, 747.12 78.38 M620.5 224.04 C654.87 184.51, 689.24 144.97, 747.12 78.38 M626.15 223.65 C660.88 183.69, 695.61 143.74, 747.52 84.03 M626.15 223.65 C653.76 191.88, 681.38 160.11, 747.52 84.03 M631.13 224.01 C660.12 190.66, 689.11 157.32, 747.26 90.43 M631.13 224.01 C656.66 194.65, 682.18 165.28, 747.26 90.43 M636.78 223.61 C661.32 195.38, 685.86 167.15, 747.65 96.07 M636.78 223.61 C670.2 185.16, 703.63 146.71, 747.65 96.07 M641.76 223.97 C666.47 195.56, 691.17 167.14, 747.39 102.47 M641.76 223.97 C683.56 175.89, 725.36 127.8, 747.39 102.47 M647.41 223.58 C677.95 188.44, 708.5 153.31, 747.78 108.11 M647.41 223.58 C678.67 187.62, 709.93 151.65, 747.78 108.11 M652.39 223.94 C687.49 183.57, 722.58 143.2, 747.52 114.51 M652.39 223.94 C677.01 195.63, 701.62 167.31, 747.52 114.51 M658.04 223.55 C686.35 190.98, 714.66 158.41, 747.26 120.9 M658.04 223.55 C681.65 196.39, 705.25 169.23, 747.26 120.9 M663.02 223.91 C690.69 192.08, 718.36 160.25, 747.66 126.55 M663.02 223.91 C687.45 195.81, 711.87 167.71, 747.66 126.55 M668.67 223.51 C692.07 196.58, 715.48 169.66, 747.39 132.95 M668.67 223.51 C687.43 201.92, 706.2 180.33, 747.39 132.95 M673.65 223.87 C702.17 191.06, 730.69 158.26, 747.79 138.59 M673.65 223.87 C694.82 199.53, 715.98 175.19, 747.79 138.59 M679.3 223.48 C695.4 204.95, 711.51 186.42, 747.53 144.99 M679.3 223.48 C698.44 201.45, 717.59 179.43, 747.53 144.99 M684.28 223.84 C704.89 200.13, 725.49 176.43, 747.92 150.63 M684.28 223.84 C701.45 204.09, 718.61 184.35, 747.92 150.63 M689.93 223.44 C711.86 198.21, 733.79 172.98, 747.66 157.03 M689.93 223.44 C707.79 202.9, 725.64 182.36, 747.66 157.03 M694.92 223.8 C712.26 203.85, 729.6 183.91, 747.4 163.42 M694.92 223.8 C714.97 200.73, 735.03 177.66, 747.4 163.42 M700.56 223.41 C716.14 205.49, 731.72 187.56, 747.79 169.07 M700.56 223.41 C710.62 211.84, 720.67 200.27, 747.79 169.07 M705.55 223.77 C717.95 209.5, 730.35 195.23, 747.53 175.47 M705.55 223.77 C721.66 205.23, 737.78 186.69, 747.53 175.47 M711.19 223.37 C723.74 208.94, 736.29 194.5, 747.93 181.11 M711.19 223.37 C724.05 208.57, 736.92 193.77, 747.93 181.11 M716.18 223.73 C726.08 212.34, 735.98 200.95, 747.67 187.51 M716.18 223.73 C727.39 210.83, 738.6 197.93, 747.67 187.51 M721.82 223.34 C727.74 216.53, 733.66 209.71, 748.06 193.15 M721.82 223.34 C728.38 215.79, 734.95 208.24, 748.06 193.15 M728.12 222.19 C735.24 214, 742.36 205.81, 746.49 201.06 M728.12 222.19 C731.8 217.95, 735.49 213.71, 746.49 201.06" stroke="#ffec99" stroke-width="0.5" fill="none"></path><path d="M32 0 C286.73 0, 541.46 0, 715.33 0 M715.33 0 C736.67 0, 747.33 10.67, 747.33 32 M747.33 32 C747.33 81.46, 747.33 130.93, 747.33 191.33 M747.33 191.33 C747.33 212.67, 736.67 223.33, 715.33 223.33 M715.33 223.33 C482.58 223.33, 249.82 223.33, 32 223.33 M32 223.33 C10.67 223.33, 0 212.67, 0 191.33 M0 191.33 C0 135.99, 0 80.66, 0 32 M0 32 C0 10.67, 10.67 0, 32 0" stroke="#1971c2" stroke-width="1.5" fill="none" stroke-dasharray="1.5 7"></path></g><g transform="translate(34.989138067382754 42.111114976562504) rotate(0 89.81640625 18.4)"><text x="0" y="0" font-family="Helvetica, Segoe UI Emoji" font-size="16px" fill="#e03131" text-anchor="start" style="white-space: pre;" direction="ltr" dominant-baseline="text-before-edge">VSCode或GitHub或Gitea</text><text x="0" y="18.4" font-family="Helvetica, Segoe UI Emoji" font-size="16px" fill="#e03131" text-anchor="start" style="white-space: pre;" direction="ltr" dominant-baseline="text-before-edge">的编辑器</text></g><g transform="translate(138.6125730673827 286.4815059765625) rotate(0 23.0009765625 20.69999999999999)"><text x="0" y="0" font-family="Helvetica, Segoe UI Emoji" font-size="36px" fill="#1e1e1e" text-anchor="start" style="white-space: pre;" direction="ltr" dominant-baseline="text-before-edge">比 </text></g><g transform="translate(189.99830806738277 286.4815059765625) rotate(0 72 20.69999999999999)"><text x="0" y="0" font-family="Helvetica, Segoe UI Emoji" font-size="36px" fill="#2f9e44" text-anchor="start" style="white-space: pre;" direction="ltr" dominant-baseline="text-before-edge">屏幕键盘</text></g><g transform="translate(339.3820900673829 286.4815059765626) rotate(0 131.00097656250003 20.69999999999999)"><text x="0" y="0" font-family="Helvetica, Segoe UI Emoji" font-size="36px" fill="#e03131" text-anchor="start" style="white-space: pre;" direction="ltr" dominant-baseline="text-before-edge"> 多更多定制按键</text></g><g stroke-linecap="round" transform="translate(61.25101180664052 210.37040701953117) rotate(0 337.67074350000007 22.962936401367188)"><path d="M0 0 L675.34 0 L675.34 45.93 L0 45.93" stroke="none" stroke-width="0" fill="#ced4da"></path><path d="M0 0 C180.52 0, 361.04 0, 675.34 0 M0 0 C145.6 0, 291.19 0, 675.34 0 M675.34 0 C675.34 12.66, 675.34 25.31, 675.34 45.93 M675.34 0 C675.34 12.11, 675.34 24.21, 675.34 45.93 M675.34 45.93 C499.99 45.93, 324.63 45.93, 0 45.93 M675.34 45.93 C510.88 45.93, 346.42 45.93, 0 45.93 M0 45.93 C0 31.14, 0 16.36, 0 0 M0 45.93 C0 34.15, 0 22.37, 0 0" stroke="#e03131" stroke-width="1" fill="none"></path></g><g stroke-linecap="round" transform="translate(88.85179208496083 210.37040742089837) rotate(0 21.851852416992188 22.962936)"><path d="M0 0 L43.7 0 L43.7 45.93 L0 45.93" stroke="none" stroke-width="0" fill="#b2f2bb"></path><path d="M0 0 C9.04 0, 18.08 0, 43.7 0 M0 0 C15.84 0, 31.68 0, 43.7 0 M43.7 0 C43.7 17.18, 43.7 34.37, 43.7 45.93 M43.7 0 C43.7 10.25, 43.7 20.49, 43.7 45.93 M43.7 45.93 C26.33 45.93, 8.97 45.93, 0 45.93 M43.7 45.93 C26.79 45.93, 9.89 45.93, 0 45.93 M0 45.93 C0 31.94, 0 17.96, 0 0 M0 45.93 C0 31.08, 0 16.24, 0 0" stroke="#e03131" stroke-width="1" fill="none"></path></g><g stroke-linecap="round" transform="translate(146.29460308496084 210.37040742089837) rotate(0 21.851852416992188 22.962936)"><path d="M0 0 L43.7 0 L43.7 45.93 L0 45.93" stroke="none" stroke-width="0" fill="#b2f2bb"></path><path d="M0 0 C9.52 0, 19.04 0, 43.7 0 M0 0 C16.23 0, 32.45 0, 43.7 0 M43.7 0 C43.7 15.12, 43.7 30.24, 43.7 45.93 M43.7 0 C43.7 10.98, 43.7 21.97, 43.7 45.93 M43.7 45.93 C28.56 45.93, 13.41 45.93, 0 45.93 M43.7 45.93 C33.32 45.93, 22.93 45.93, 0 45.93 M0 45.93 C0 34.35, 0 22.77, 0 0 M0 45.93 C0 31.55, 0 17.17, 0 0" stroke="#e03131" stroke-width="1" fill="none"></path></g><g stroke-linecap="round" transform="translate(203.73741408496082 210.37040742089837) rotate(0 21.851852416992188 22.962936)"><path d="M0 0 L43.7 0 L43.7 45.93 L0 45.93" stroke="none" stroke-width="0" fill="#b2f2bb"></path><path d="M0 0 C10.21 0, 20.42 0, 43.7 0 M0 0 C8.95 0, 17.91 0, 43.7 0 M43.7 0 C43.7 11.07, 43.7 22.14, 43.7 45.93 M43.7 0 C43.7 13.99, 43.7 27.99, 43.7 45.93 M43.7 45.93 C28.74 45.93, 13.78 45.93, 0 45.93 M43.7 45.93 C31.65 45.93, 19.59 45.93, 0 45.93 M0 45.93 C0 32.44, 0 18.95, 0 0 M0 45.93 C0 33.3, 0 20.68, 0 0" stroke="#e03131" stroke-width="1" fill="none"></path></g><g stroke-linecap="round" transform="translate(259.6987190849608 210.3704074208984) rotate(0 21.851852416992188 22.962935999999985)"><path d="M0 0 L43.7 0 L43.7 45.93 L0 45.93" stroke="none" stroke-width="0" fill="#ced4da"></path><path d="M0 0 C12.84 0, 25.68 0, 43.7 0 M0 0 C10.05 0, 20.1 0, 43.7 0 M43.7 0 C43.7 9.23, 43.7 18.46, 43.7 45.93 M43.7 0 C43.7 10.7, 43.7 21.41, 43.7 45.93 M43.7 45.93 C28.32 45.93, 12.93 45.93, 0 45.93 M43.7 45.93 C31.82 45.93, 19.95 45.93, 0 45.93 M0 45.93 C0 27.71, 0 9.5, 0 0 M0 45.93 C0 36.04, 0 26.15, 0 0" stroke="#e03131" stroke-width="1" fill="none"></path></g><g stroke-linecap="round" transform="translate(318.6230360849608 210.37040742089843) rotate(0 21.851852416992188 22.962936)"><path d="M0 0 L43.7 0 L43.7 45.93 L0 45.93" stroke="none" stroke-width="0" fill="#ced4da"></path><path d="M0 0 C16.14 0, 32.29 0, 43.7 0 M0 0 C11.5 0, 22.99 0, 43.7 0 M43.7 0 C43.7 15.1, 43.7 30.2, 43.7 45.93 M43.7 0 C43.7 11.22, 43.7 22.44, 43.7 45.93 M43.7 45.93 C33.98 45.93, 24.25 45.93, 0 45.93 M43.7 45.93 C33.95 45.93, 24.2 45.93, 0 45.93 M0 45.93 C0 36.22, 0 26.51, 0 0 M0 45.93 C0 33.26, 0 20.59, 0 0" stroke="#e03131" stroke-width="1" fill="none"></path></g><g stroke-linecap="round" transform="translate(376.06584708496075 210.37040742089846) rotate(0 21.851852416992188 22.962936000000013)"><path d="M0 0 L43.7 0 L43.7 45.93 L0 45.93" stroke="none" stroke-width="0" fill="#a5d8ff"></path><path d="M0 0 C15.89 0, 31.79 0, 43.7 0 M0 0 C11.98 0, 23.96 0, 43.7 0 M43.7 0 C43.7 14.27, 43.7 28.55, 43.7 45.93 M43.7 0 C43.7 14.7, 43.7 29.41, 43.7 45.93 M43.7 45.93 C28.06 45.93, 12.41 45.93, 0 45.93 M43.7 45.93 C26.99 45.93, 10.29 45.93, 0 45.93 M0 45.93 C0 31.85, 0 17.78, 0 0 M0 45.93 C0 28.41, 0 10.89, 0 0" stroke="#e03131" stroke-width="1" fill="none"></path></g><g stroke-linecap="round" transform="translate(432.02715208496073 210.3704074208985) rotate(0 21.851852416992188 22.962936)"><path d="M0 0 L43.7 0 L43.7 45.93 L0 45.93" stroke="none" stroke-width="0" fill="#a5d8ff"></path><path d="M0 0 C12.48 0, 24.95 0, 43.7 0 M0 0 C15.51 0, 31.02 0, 43.7 0 M43.7 0 C43.7 13.5, 43.7 26.99, 43.7 45.93 M43.7 0 C43.7 12.03, 43.7 24.07, 43.7 45.93 M43.7 45.93 C28.57 45.93, 13.43 45.93, 0 45.93 M43.7 45.93 C29.95 45.93, 16.2 45.93, 0 45.93 M0 45.93 C0 31.7, 0 17.48, 0 0 M0 45.93 C0 32.61, 0 19.29, 0 0" stroke="#e03131" stroke-width="1" fill="none"></path></g><g stroke-linecap="round" transform="translate(490.9514680849607 210.3704074208985) rotate(0 21.85185241699216 22.962936)"><path d="M0 0 L43.7 0 L43.7 45.93 L0 45.93" stroke="none" stroke-width="0" fill="#ced4da"></path><path d="M0 0 C15.35 0, 30.71 0, 43.7 0 M0 0 C16.49 0, 32.99 0, 43.7 0 M43.7 0 C43.7 13.71, 43.7 27.42, 43.7 45.93 M43.7 0 C43.7 10.79, 43.7 21.57, 43.7 45.93 M43.7 45.93 C26.55 45.93, 9.39 45.93, 0 45.93 M43.7 45.93 C28.12 45.93, 12.54 45.93, 0 45.93 M0 45.93 C0 35.54, 0 25.16, 0 0 M0 45.93 C0 36.31, 0 26.69, 0 0" stroke="#e03131" stroke-width="1" fill="none"></path></g><g stroke-linecap="round" transform="translate(546.9127750849607 210.3704074208985) rotate(0 21.851852416992188 22.962936)"><path d="M0 0 L43.7 0 L43.7 45.93 L0 45.93" stroke="none" stroke-width="0" fill="#ced4da"></path><path d="M0 0 C10.31 0, 20.62 0, 43.7 0 M0 0 C16.65 0, 33.3 0, 43.7 0 M43.7 0 C43.7 15.9, 43.7 31.8, 43.7 45.93 M43.7 0 C43.7 17.87, 43.7 35.74, 43.7 45.93 M43.7 45.93 C34.26 45.93, 24.81 45.93, 0 45.93 M43.7 45.93 C28.82 45.93, 13.94 45.93, 0 45.93 M0 45.93 C0 33.37, 0 20.81, 0 0 M0 45.93 C0 33.23, 0 20.54, 0 0" stroke="#e03131" stroke-width="1" fill="none"></path></g><g stroke-linecap="round" transform="translate(602.8740820849607 210.37040742089852) rotate(0 21.851852416992188 22.962935999999985)"><path d="M0 0 L43.7 0 L43.7 45.93 L0 45.93" stroke="none" stroke-width="0" fill="#2f9e44"></path><path d="M0 0 C9.57 0, 19.13 0, 43.7 0 M0 0 C12.72 0, 25.43 0, 43.7 0 M43.7 0 C43.7 12.19, 43.7 24.38, 43.7 45.93 M43.7 0 C43.7 14.11, 43.7 28.21, 43.7 45.93 M43.7 45.93 C31.16 45.93, 18.62 45.93, 0 45.93 M43.7 45.93 C27.05 45.93, 10.4 45.93, 0 45.93 M0 45.93 C0 28.62, 0 11.32, 0 0 M0 45.93 C0 35, 0 24.07, 0 0" stroke="#e03131" stroke-width="1" fill="none"></path></g><g stroke-linecap="round" transform="translate(658.8353890849606 210.37040742089854) rotate(0 21.851852416992188 22.962936)"><path d="M0 0 L43.7 0 L43.7 45.93 L0 45.93" stroke="none" stroke-width="0" fill="#ced4da"></path><path d="M0 0 C17.24 0, 34.49 0, 43.7 0 M0 0 C14.79 0, 29.58 0, 43.7 0 M43.7 0 C43.7 12.73, 43.7 25.46, 43.7 45.93 M43.7 0 C43.7 16.5, 43.7 33, 43.7 45.93 M43.7 45.93 C30.09 45.93, 16.48 45.93, 0 45.93 M43.7 45.93 C31.88 45.93, 20.06 45.93, 0 45.93 M0 45.93 C0 28.42, 0 10.91, 0 0 M0 45.93 C0 32.53, 0 19.13, 0 0" stroke="#e03131" stroke-width="1" fill="none"></path></g><g transform="translate(99.73632891894522 224.13334365234368) rotate(0 10.2265625 9.199999999999989)"><text x="0" y="0" font-family="Helvetica, Segoe UI Emoji" font-size="16px" fill="#e03131" text-anchor="start" style="white-space: pre;" direction="ltr" dominant-baseline="text-before-edge">H1</text></g><g transform="translate(157.17913991894522 224.13334365234368) rotate(0 10.2265625 9.199999999999989)"><text x="0" y="0" font-family="Helvetica, Segoe UI Emoji" font-size="16px" fill="#e03131" text-anchor="start" style="white-space: pre;" direction="ltr" dominant-baseline="text-before-edge">H2</text></g><g transform="translate(214.62195091894523 224.13334365234368) rotate(0 10.2265625 9.199999999999989)"><text x="0" y="0" font-family="Helvetica, Segoe UI Emoji" font-size="16px" fill="#e03131" text-anchor="start" style="white-space: pre;" direction="ltr" dominant-baseline="text-before-edge">H3</text></g><g transform="translate(267.0320769189453 214.93334365234372) rotate(0 16 18.39999999999999)"><text x="16" y="0" font-family="Helvetica, Segoe UI Emoji" font-size="16px" fill="#e03131" text-anchor="middle" style="white-space: pre;" direction="ltr" dominant-baseline="text-before-edge">代码</text><text x="16" y="18.4" font-family="Helvetica, Segoe UI Emoji" font-size="16px" fill="#e03131" text-anchor="middle" style="white-space: pre;" direction="ltr" dominant-baseline="text-before-edge">块</text></g><g transform="translate(324.4748889189453 224.13334365234365) rotate(0 16 9.200000000000003)"><text x="0" y="0" font-family="Helvetica, Segoe UI Emoji" font-size="16px" fill="#e03131" text-anchor="start" style="white-space: pre;" direction="ltr" dominant-baseline="text-before-edge">引用</text></g><g transform="translate(381.1769469189452 214.93334365234375) rotate(0 16 18.400000000000006)"><text x="0" y="0" font-family="Helvetica, Segoe UI Emoji" font-size="16px" fill="#e03131" text-anchor="start" style="white-space: pre;" direction="ltr" dominant-baseline="text-before-edge">无序</text><text x="0" y="18.4" font-family="Helvetica, Segoe UI Emoji" font-size="16px" fill="#e03131" text-anchor="start" style="white-space: pre;" direction="ltr" dominant-baseline="text-before-edge">列表</text></g><g transform="translate(439.3605099189452 214.93334365234375) rotate(0 16 18.400000000000006)"><text x="0" y="0" font-family="Helvetica, Segoe UI Emoji" font-size="16px" fill="#e03131" text-anchor="start" style="white-space: pre;" direction="ltr" dominant-baseline="text-before-edge">任务</text><text x="0" y="18.4" font-family="Helvetica, Segoe UI Emoji" font-size="16px" fill="#e03131" text-anchor="start" style="white-space: pre;" direction="ltr" dominant-baseline="text-before-edge">列表</text></g><g transform="translate(497.5440729189452 224.13334365234374) rotate(0 16 9.199999999999989)"><text x="0" y="0" font-family="Helvetica, Segoe UI Emoji" font-size="16px" fill="#e03131" text-anchor="start" style="white-space: pre;" direction="ltr" dominant-baseline="text-before-edge">注释</text></g><g transform="translate(553.5053799189452 224.13334365234374) rotate(0 16 9.199999999999989)"><text x="0" y="0" font-family="Helvetica, Segoe UI Emoji" font-size="16px" fill="#e03131" text-anchor="start" style="white-space: pre;" direction="ltr" dominant-baseline="text-before-edge">链接</text></g><g transform="translate(609.4666869189452 224.13334365234377) rotate(0 16 9.200000000000003)"><text x="0" y="0" font-family="Helvetica, Segoe UI Emoji" font-size="16px" fill="#ffffff" text-anchor="start" style="white-space: pre;" direction="ltr" dominant-baseline="text-before-edge">表格</text></g><g transform="translate(665.4279939189452 224.13334365234383) rotate(0 16 9.200000000000003)"><text x="0" y="0" font-family="Helvetica, Segoe UI Emoji" font-size="16px" fill="#e03131" text-anchor="start" style="white-space: pre;" direction="ltr" dominant-baseline="text-before-edge">关闭</text></g><g transform="translate(620.3333285986328 286.48150666015624) rotate(0 0.00004999999998744897 0.00004999999998744897)" stroke="none"><path fill="#ffffff" d="M 1.57,-1.57 Q 1.57,-1.57 1.77,-1.27 1.98,-0.98 2.09,-0.64 2.20,-0.29 2.19,0.05 2.18,0.41 2.05,0.75 1.93,1.09 1.70,1.37 1.48,1.65 1.18,1.84 0.87,2.04 0.52,2.12 0.18,2.21 -0.17,2.18 -0.53,2.15 -0.86,2.01 -1.19,1.87 -1.46,1.63 -1.73,1.39 -1.90,1.07 -2.08,0.76 -2.15,0.41 -2.21,0.05 -2.17,-0.29 -2.12,-0.65 -1.96,-0.97 -1.80,-1.29 -1.54,-1.54 -1.29,-1.80 -0.97,-1.96 -0.65,-2.12 -0.29,-2.17 0.06,-2.21 0.41,-2.15 0.76,-2.08 1.07,-1.90 1.39,-1.73 1.63,-1.46 1.87,-1.19 2.01,-0.86 2.15,-0.53 2.18,-0.17 2.21,0.18 2.12,0.52 2.03,0.87 1.84,1.18 1.65,1.48 1.37,1.70 1.09,1.93 0.75,2.05 0.41,2.18 0.05,2.19 -0.30,2.20 -0.64,2.09 -0.98,1.98 -1.27,1.77 -1.57,1.56 -1.57,1.57 -1.57,1.57 -1.73,1.35 -1.90,1.14 -2.01,0.90 -2.12,0.66 -2.16,0.39 -2.21,0.13 -2.20,-0.13 -2.18,-0.40 -2.10,-0.65 -2.02,-0.91 -1.88,-1.14 -1.74,-1.36 -1.55,-1.55 -1.36,-1.74 -1.14,-1.88 -0.91,-2.02 -0.65,-2.10 -0.40,-2.18 -0.13,-2.20 0.13,-2.21 0.39,-2.16 0.66,-2.12 0.90,-2.01 1.14,-1.90 1.35,-1.73 1.57,-1.57 1.57,-1.57 L 1.57,-1.57 Z"></path></g><g transform="translate(821.8147739111328 199.0740969921875) rotate(0 0.00004999999998744897 0.00005000000000165983)" stroke="none"><path fill="#ffffff" d="M 1.57,-1.57 Q 1.57,-1.57 1.77,-1.27 1.98,-0.98 2.09,-0.64 2.20,-0.29 2.19,0.05 2.18,0.41 2.05,0.75 1.93,1.09 1.70,1.37 1.48,1.65 1.18,1.84 0.87,2.04 0.52,2.12 0.18,2.21 -0.17,2.18 -0.53,2.15 -0.86,2.01 -1.19,1.87 -1.46,1.63 -1.73,1.39 -1.90,1.07 -2.08,0.76 -2.15,0.41 -2.21,0.05 -2.17,-0.29 -2.12,-0.65 -1.96,-0.97 -1.80,-1.29 -1.54,-1.54 -1.29,-1.80 -0.97,-1.96 -0.65,-2.12 -0.29,-2.17 0.06,-2.21 0.41,-2.15 0.76,-2.08 1.07,-1.90 1.39,-1.73 1.63,-1.46 1.87,-1.19 2.01,-0.86 2.15,-0.53 2.18,-0.17 2.21,0.18 2.12,0.52 2.03,0.87 1.84,1.18 1.65,1.48 1.37,1.70 1.09,1.93 0.75,2.05 0.41,2.18 0.05,2.19 -0.30,2.20 -0.64,2.09 -0.98,1.98 -1.27,1.77 -1.57,1.56 -1.57,1.57 -1.57,1.57 -1.73,1.35 -1.90,1.14 -2.01,0.90 -2.12,0.66 -2.16,0.39 -2.21,0.13 -2.20,-0.13 -2.18,-0.40 -2.10,-0.65 -2.02,-0.91 -1.88,-1.14 -1.74,-1.36 -1.55,-1.55 -1.36,-1.74 -1.14,-1.88 -0.91,-2.02 -0.65,-2.10 -0.40,-2.18 -0.13,-2.20 0.13,-2.21 0.39,-2.16 0.66,-2.12 0.90,-2.01 1.14,-1.90 1.35,-1.73 1.57,-1.57 1.57,-1.57 L 1.57,-1.57 Z"></path></g></svg>