<?xml version="1.0" encoding="iso-8859-1"?>
<!-- Generator: Adobe Illustrator 19.0.0, SVG Export Plug-In . SVG Version: 6.00 Build 0)  -->
<svg version="1.1" id="Layer_1" xmlns="http://www.w3.org/2000/svg" xmlns:xlink="http://www.w3.org/1999/xlink" x="0px" y="0px"
	 viewBox="0 0 512 512" style="enable-background:new 0 0 512 512;" xml:space="preserve">
<g>
	<path style="fill:#999999;" d="M256.04,0h-14.928h-0.264h-1.768h-0.272l0,0h-0.28l0,0h-0.28l0,0h-0.176h-0.128h-0.176h-0.128
		h-0.176h-0.12h-0.192l0,0h-0.296l0,0h-0.288l0,0h-0.288l0,0h-0.296l0,0h-0.296l0,0l-0.8,0.064l0,0h-0.296l0,0h-0.296l0,0h-0.304
		l0,0c-5.936,0.536-11.8,1.24-17.6,2.128L218.864,18c12.32-1.616,24.752-2.288,37.176-2L256.04,0L256.04,0z M177.32,12.328
		c-12.696,4.088-25.048,9.176-36.944,15.2l7.2,14.272c11.152-5.656,22.728-10.424,34.624-14.272l-4.912-15.2H177.32z
		 M106.264,48.328c-10.816,7.824-21,16.48-30.472,25.888l11.264,11.36c8.888-8.808,18.44-16.912,28.576-24.24l-9.368-12.968
		C106.264,48.368,106.264,48.328,106.264,48.328z M49.68,104.472c-2.136,2.928-4.224,5.904-6.28,8.92l0,0l-0.256,0.384l0,0
		l-0.168,0.256l0,0l-0.088,0.128l0,0l-0.168,0.248l0,0l-0.08,0.12l0,0l-0.08,0.12l0,0l-0.08,0.12l0,0l-0.16,0.24l0,0l-0.08,0.12l0,0
		l-0.08,0.12l0,0l-0.08,0.12l0,0l-0.08,0.12l0,0l-0.072,0.112l0,0l-0.072,0.112l0,0l-0.072,0.112l0,0l-0.08,0.12l0,0l-0.072,0.112
		l0,0l-0.072,0.104l0,0l-0.072,0.112l0,0l-0.072,0.112l0,0l-0.072,0.104l0,0l-0.072,0.112l0,0l-0.064,0.104l0,0l-0.072,0.112l0,0
		l-0.072,0.112l0,0L41,117.024l0,0l-0.072,0.112l0,0l-0.072,0.112l0,0l-0.072,0.104l0,0l-0.072,0.112l0,0l-0.064,0.104l0,0
		l-0.072,0.112l0,0l-0.072,0.112l0,0l-0.056,0.096l0,0l-0.064,0.104l0,0l-0.056,0.088l0,0l-0.056,0.096v0.04l-0.064,0.104l0,0
		l-0.056,0.088l0,0l-0.064,0.104l0,0l-0.064,0.096l0,0l-0.056,0.088l0,0l-0.064,0.104l0,0l-0.056,0.08l0,0l-0.064,0.096v0.04
		l-0.064,0.104l0,0l-0.048,0.08l0,0l-0.064,0.104l0,0l-0.056,0.088v0.048l-0.048,0.08v0.04l-0.064,0.104v0.04l-0.048,0.072v0.048
		l-0.056,0.088v0.048l-0.896,1.16v0.04l-0.048,0.072v0.04l-0.064,0.104v0.048l-0.048,0.072v0.064l-0.048,0.08v0.048l-0.064,0.096
		v0.04l-0.048,0.08l0,0l-0.064,0.104v0.048L38,122.144v0.048l-0.048,0.08v0.04l-0.064,0.096v0.04l-0.048,0.08v0.048l-0.056,0.088
		v0.048l-0.064,0.096v0.048l-0.048,0.072v0.04l-0.064,0.096v0.048l-0.056,0.096l0,0l-0.056,0.088v0.04l-0.064,0.104v0.04
		l-0.048,0.08v0.056l-0.056,0.088v0.048l-0.064,0.104v0.04l-0.04,0.072v0.048l-0.056,0.096v0.048l-0.048,0.08v0.056l-0.048,0.08
		v0.048l-0.064,0.104v0.04l-0.048,0.072v0.048l-0.056,0.096v0.048l-0.048,0.08v0.064l-0.04,0.072v0.048l-0.056,0.096v0.056v0.064
		v0.064l-0.048,0.08v0.048l-0.056,0.104v0.04l-0.048,0.072v0.04l-0.064,0.104v0.04l-0.056,0.088v0.056l-0.048,0.08v0.048
		l-0.056,0.096v0.048l-0.04,0.072v0.056l-0.056,0.088v0.048l-0.056,0.104v0.048l-0.04,0.072v0.048l-0.056,0.096V127l-0.048,0.08
		v0.056l-0.048,0.08v0.048l-0.056,0.096v0.048l-0.04,0.072v0.048l-0.056,0.096v0.048l-0.056,0.088v0.048l-0.048,0.08v0.04
		l-0.056,0.104v0.04l-0.048,0.088v0.048l-0.056,0.088v0.048l-0.056,0.104v0.04l-0.048,0.08l0,0l-0.056,0.104v0.04l-0.056,0.096l0,0
		l-0.048,0.088v0.048l-0.056,0.104v0.04l-0.048,0.088v0.04l-0.056,0.096v0.048l-0.056,0.104v0.04l-0.04,0.08v0.04l-0.056,0.104v0.04
		l-0.056,0.096v0.04l-0.048,0.088v0.048l-0.056,0.104v0.04l-0.048,0.08l0,0l-0.056,0.104v0.04l-0.056,0.104v0.04l-0.048,0.08v0.04
		l-0.056,0.104l0,0l-0.056,0.096l0,0l-0.056,0.104l0,0l-0.064,0.112l0,0l-0.048,0.096l0,0l-0.064,0.112l0,0L34.28,131.4l0,0
		l-0.048,0.096l0,0L32.04,132l0,0l-0.056,0.096l0,0l-0.064,0.112l0,0l-0.064,0.112l0,0l-0.056,0.104l0,0l-0.064,0.12l0,0
		l-0.064,0.112l0,0l-0.056,0.104l0,0l-0.064,0.112l0,0l-0.064,0.112l0,0l-0.064,0.12l0,0l-0.064,0.12l0,0l-0.056,0.112l0,0
		l-0.064,0.12l0,0l-0.136,0.248l0,0l-0.064,0.12l0,0l-0.064,0.12l0,0l-0.064,0.128l0,0l-0.136,0.256l0,0l-0.064,0.128l0,0
		l-0.064,0.128l0,0l-0.072,0.128l0,0l-0.072,0.128l0,0l-0.072,0.128l0,0l-0.064,0.128l0,0l-0.136,0.256l0,0l-0.064,0.128l0,0
		l-0.064,0.128l0,0l-0.072,0.128l0,0l-0.072,0.128l0,0l-0.072,0.128l0,0l-0.072,0.136l0,0l-0.144,0.264l0,0l-0.072,0.136l0,0
		l-0.072,0.136l0,0l-0.072,0.136l0,0l-0.144,0.272l0,0l-0.072,0.136l0,0l-0.144,0.272l0,0l-0.144,0.272l14.208,7.36
		c5.752-11.104,12.368-21.744,19.776-31.816L49.68,104.472z M13.048,175.2c-1.304,3.912-2.512,7.872-3.624,11.872l0,0l-0.08,0.296
		l0,0l-0.08,0.296l0,0l-0.12,0.448l0,0l-0.08,0.296l0,0l-0.08,0.288l0,0v0.144l0,0v0.144l0,0v0.144l0,0l-0.072,0.28l0,0v0.136l0,0
		v0.128l0,0v0.136l0,0v0.128l0,0v0.136l0,0v0.128l0,0v0.128l0,0v0.128l0,0v0.112l0,0v0.128l0,0v0.112l0,0v0.128l0,0v0.128l0,0v0.112
		l0,0v0.12l0,0v0.096v0.04v0.12v0.04v0.104l0,0v0.12v0.048v0.104v0.056v0.088v0.056v0.112v0.048v0.088v0.048v0.112v0.056v0.088
		v0.064v0.088v0.056v0.096v0.064v0.072v0.064v0.104v0.064v0.072v0.08v0.08v0.064v0.056v0.112v0.064v0.064v0.072v0.104v0.064v0.064
		v0.104v0.072v0.056v0.088v0.08v0.072v0.064v0.104v0.064v0.072v0.056v0.112v0.056v0.072v0.104v0.072v0.048v0.12v0.056v0.072v0.048
		V196v0.048v0.072v0.056v0.12v0.048v0.128v0.04v0.08v0.048v0.128v0.04v0.08v0.048v0.128v0.536v0.08l0,0v0.168l0,0V198l0,0v0.08
		v0.048v0.128v0.144v0.08l0,0v0.144l0,0l-2.472,0.32l0,0v0.168l0,0v0.088l0,0v0.152l0,0v0.088l0,0v0.152v0.04L6.184,200v0.04v0.144
		l0,0v0.08l0,0v0.136v0.04v0.08l0,0v0.136v0.144l-0.056,0.256v0.04v0.128v0.048v0.08v0.048v0.136l0,0v0.08l0,0v0.152v0.048v0.128
		v0.048v0.08v0.048v0.128v0.152v0.08v0.048v0.12v0.048v0.072v0.08v0.096V203v0.104v0.064v0.072v0.056v0.112v0.056v0.072v0.064v0.104
		v0.064v0.072v0.104v0.072v0.064v0.096v0.072v0.064v0.08v0.08v0.088v0.056v0.104v0.064v0.08v0.056v0.112v0.056v0.088v0.048v0.12
		v0.056v0.096v0.056v0.096v0.048v0.12v0.048v0.096V206v0.12v0.04v0.096l0,0v0.12v0.024v0.12l0,0v0.104l0,0v0.128l0,0v0.12l0,0v0.136
		l0,0v0.128l0,0v0.144l0,0v0.144l0,0v0.136l0,0v0.144l0,0v0.152l0,0v0.152l0,0l-0.056,0.296l0,0c-0.336,1.8-0.656,3.616-0.96,5.432
		l15.784,2.608c2.04-12.336,5.04-24.488,8.976-36.352l-15.2-5.048L13.048,175.2z M0.04,253.824v0.264l0,0v1.168l0,0V256l0,0v1.64
		l0,0v13.8v0.264v0.944l0,0v0.152v0.264v1.064v0.264l0,0v0.264v0.448v0.16v0.144v0.168l0,0v0.128v0.256v0.144v0.16v0.76v0.256v0.144
		v0.152v1.784v0.136v3.456v0.12v0.176v0.12v0.176v0.112l0,0v0.112V284v0.12v0.176v0.12v0.168v0.128l0,0v0.112l0,0v0.136l0,0v0.128
		l0,0v0.272l0,0v0.128l0,0v0.136l0,0v0.128l0,0v0.28l0,0v0.28l0,0v0.28l0,0c0.28,2.328,0.584,4.64,0.928,6.944L16.8,291.2
		c-1.104-11.696-1.36-23.464-0.76-35.2v-2.04L0.04,253.824z M26.968,327.864l-15.264,4.8c0.632,2,1.28,3.992,1.952,5.976l0,0
		l0.408,1.184l0,0c0.344,0.984,0.688,1.968,1.04,2.952l0,0c3.312,9.2,7.152,18.2,11.504,26.952l14.328-7.12
		C35.376,351.416,30.704,339.8,26.968,327.864L26.968,327.864z M60.176,394.752L47.144,404c7.688,10.832,16.208,21.056,25.48,30.576
		l0,0l0.104,0.112l11.456-11.2c-8.736-8.968-16.76-18.592-24-28.8L60.176,394.752z M112.344,448.256l-9.6,12.8
		c8.056,6.032,16.464,11.584,25.176,16.632l0,0l0.416,0.24l0,0l0.24,0.136l0,0l0.144,0.08l0,0l0.232,0.136l0,0l0.144,0.08l0,0
		l0.08,0.048l0,0l0.128,0.072l0,0l0.12,0.072l0,0h0.072l0,0l0.12,0.064l0,0h0.072h0.056l0.096,0.056h0.048l0.104,0.056h0.056h0.064
		h0.048l0.096,0.056h0.056h0.056l0.096,0.056h0.056h0.064l0.08,0.04h0.064h0.056l0.096,0.056h0.048H131h0.048l0.104,0.056h0.048
		l0.08,0.048h0.064l0.072,0.04h0.048l0.104,0.056h0.048l0.08,0.04h0.056l0.088,0.048h0.056l0.096,0.056h0.04l0.08,0.048l0,0
		l0.104,0.056l0,0l0.104,0.056l0,0l0.096,0.056l0,0l0.112,0.064l0,0l0.096,0.056l0,0l0.112,0.064l0,0l0.112,0.064l0,0l0.104,0.056
		l0,0l0.12,0.064l0,0l0.12,0.064l0,0L133.32,480l0,0l0.128,0.072l0,0l0.128,0.072l0,0l0.128,0.072l0,0l0.128,0.072l0,0l0.128,0.072
		l0,0l0.128,0.072l0,0l0.264,0.144l0,0l0.136,0.072l0,0l0.136,0.072l0,0l0.136,0.072l0,0l0.264,0.144l0,0l0.136,0.072l0,0
		l0.272,0.144l0,0l0.408,0.216l0,0l8.2-13.064c-11.056-5.848-21.632-12.552-31.648-20.048L112.344,448.256z M178.376,483.2
		l-5.176,15.144c9.984,3.408,20.176,6.2,30.504,8.344l0,0l0.304,0.064l0,0l0.304,0.064l0,0h0.152l0,0l0.288,0.056l0,0l0.28,0.056
		l0,0h0.136l0,0h0.128l0,0h0.136l0,0h0.128l0,0h0.136l0,0h0.136l0,0h0.112l0,0h0.128h0.04h0.104l0,0h0.12h0.048h0.104h0.048h0.096
		h0.056h0.112h0.048h0.08h0.312h0.112h0.056h0.08h0.072h0.096h0.056h0.08h0.096h0.072h0.064h0.08h0.088h0.056h0.08h0.088h0.08h0.048
		h0.144l0,0h0.088l0,0h0.152l0,0l0.272,0.048l0,0l0.288,0.056l0,0h0.192l0,0l0.296,0.056l0,0l1.784,0.312l2.736-15.76
		C202.256,489.768,190.176,486.944,178.376,483.2z M289.384,493.744c-11.048,1.512-22.192,2.272-33.344,2.256c-1.36,0-2.72,0-4.08,0
		l-0.264,16h0.952h22.464h0.256h0.856h0.256h0.152h0.264h0.432h0.264h0.144h0.272h0.144h0.264l0,0h0.4l0,0h0.416l0,0h0.272l0,0
		l0.8-0.08l0,0c3.768-0.36,7.504-0.792,11.2-1.312l-2.2-15.848L289.384,493.744z M360.84,472
		c-11.24,5.464-22.896,10.032-34.856,13.672l4.656,15.312c12.76-3.88,25.2-8.76,37.2-14.592L360.84,472z M422.128,429.28
		c-9.032,8.656-18.72,16.6-28.984,23.76l9.152,13.128l0,0l0.072-0.048h0.04l0.096-0.064h0.048l0.072-0.056h0.056l0.072-0.048h0.048
		l0.096-0.064h0.04L403,465.84l0.064-0.04l0.072-0.048h0.056l0.064-0.048l0.08-0.056h0.048h0.056l0.088-0.064h0.056l0.056-0.04
		l0.08-0.056h0.048l0.064-0.04l0.08-0.056l0.056-0.04h0.048l0.088-0.064h0.056l0.056-0.04h0.048l0.096-0.072l0,0l0.112-0.08l0,0
		l0.064-0.048l0,0l0.112-0.08l0,0l0.064-0.048l0,0l0.144-0.104l0,0l0.128-0.088l0,0l0.072-0.056l0,0l0.136-0.096l0,0l0.216-0.16l0,0
		l0.128-0.096l0,0l0.224-0.16l0,0l0.68-0.96l0,0l0.232-0.168l0,0l0.152-0.112l0,0l0.232-0.168l0,0
		c3.288-2.408,6.512-4.88,9.672-7.432l0,0l0.368-0.296l0,0l0.592-0.48l0,0l0.584-0.48l0,0l0.36-0.296l0,0l0.216-0.176l0,0
		l0.12-0.096l0,0l0.216-0.176l0,0l0.136-0.112l0,0l0.072-0.056l0,0l0.128-0.112l0,0l0.136-0.112l0,0l0.072-0.056l0,0l0.128-0.104
		l0,0l0.208-0.176l0,0l0.12-0.104l0,0l0.208-0.176l0,0l0.128-0.104l0,0l0.064-0.056l0,0l0.112-0.096l0,0l0.2-0.168l0,0l0.096-0.08
		l0,0l0.064-0.048l0,0l0.104-0.088l0,0l0.48-0.472l0,0l0.064-0.056l0,0l0.096-0.088l0,0l0.192-0.168l0,0l0.096-0.08l0,0l0.056-0.048
		l0.056-0.048l0.08-0.064h0.04l0.088-0.072l0.048-0.04l0.056-0.048l0.048-0.04l0.08-0.072h0.048l0.048-0.048l0.08-0.064l0.056-0.048
		l0.048-0.04l0.072-0.064l0.056-0.048l0.048-0.04l0.08-0.064l0.048-0.04l0.056-0.048l0.056-0.048l0.072-0.064h0.048l0.064-0.056
		l0.064-0.056l0.056-0.048h0.048l0.08-0.072l0.048-0.048l0.224-0.312l0.064-0.056l0.064-0.056l0.048-0.04l0.08-0.072h0.048
		l0.056-0.048l0.056-0.048l0.072-0.064h0.04l0.072-0.064l0.056-0.048l0.064-0.056h0.04l0.08-0.072l0.048-0.04l0.056-0.048
		l0.056-0.048l0.064-0.056h0.04l0.088-0.072l0,0l0.112-0.28h0.04l0.08-0.072h0.04l0.08-0.072l0,0l0.064-0.056l0,0l0.088-0.072h0.04
		l0.072-0.064h0.04l0.072-0.064l0,0l0.088-0.08l0,0l0.072-0.064l0,0l0.088-0.08l0,0l0.088-0.08l0,0l0.072-0.064l0,0l0.088-0.08l0,0
		l0.08-0.072l0,0l0.088-0.08l0,0l0.096-0.08l0,0l0.08-0.072l0,0l0.096-0.088l0,0l0.096-0.088l0,0l0.08-0.072l0,0l0.096-0.08l0,0
		l0.088-0.08l0,0l0.088-0.08l0,0l0.696-0.76l0,0l0.096-0.088l0,0l0.104-0.088l0,0l0.096-0.088l0,0l0.088-0.08l0,0l0.096-0.088l0,0
		l0.096-0.088l0,0l0.096-0.088l0,0l0.096-0.088l0,0l0.088-0.08l0,0l0.096-0.088l0,0l0.096-0.088l0,0l0.088-0.08l0,0l0.096-0.088l0,0
		l0.096-0.088l0,0l0.088-0.088l0,0l0.096-0.088l0,0l0.096-0.088l0,0l0.104-0.096l0,0l0.104-0.096l0,0l0.096-0.088l0,0l0.096-0.096
		l0,0l0.104-0.096l0,0l0.096-0.088l0,0l0.096-0.088l0,0l0.096-0.088l0,0l0.104-0.096l0,0l0.096-0.096l0,0l0.088-0.088l0,0
		l0.096-0.088l0,0l0.096-0.096l0,0l0.096-0.096l0,0l0.104-0.096l0,0l0.104-0.096l0,0l0.104-0.096l0,0l0.712-0.648l0,0l0.096-0.096
		l0,0l0.104-0.096l0,0l0.208-0.192l0,0l0.104-0.096l0,0l0.104-0.096l0,0l0.104-0.096l0,0l0.096-0.096l0,0l0.088-0.088l0,0
		l0.096-0.096l0,0l-11.064-11.552L422.128,429.28z M467.4,369.848c-5.944,11.008-12.736,21.528-20.312,31.48l12.728,9.696
		c2.864-3.736,5.624-7.576,8.28-11.52l0,0l0.264-0.384l0,0l0.168-0.248l0,0l0.08-0.12l0,0l0.08-0.12l0,0l0.08-0.12l0,0l0.08-0.112
		l0,0l0.072-0.104l0,0l0.072-0.112l0,0l0.072-0.104l0,0l0.072-0.104l0,0l0.072-0.104l0,0l0.056-0.088l0,0l0.064-0.096v-0.048
		l0.056-0.088v-0.048l0.048-0.072v-0.048l0.064-0.096v-0.048l0.04-0.064l0.048-0.08v-0.056v-0.056l0.048-0.072l0.048-0.072v-0.056
		l0.056-0.088v-0.056l0.04-0.064v-0.04l0.072-0.104l0,0l0.144-0.216l0,0l0.08-0.128l0,0l0.152-0.232l0,0l0.152-0.24l0,0
		c3.768-5.792,7.296-11.736,10.592-17.84l-14.08-7.6L467.4,369.848z M492.144,299.448c-2.248,12.296-5.456,24.4-9.6,36.192
		l15.096,5.304c0.664-1.88,1.304-3.768,1.92-5.672l0,0l0.088-0.272l0,0l0.088-0.272l0,0l0.056-0.184l0,0v-0.088l0,0l0.048-0.152l0,0
		l0.08-0.256l0,0l0.04-0.136l0,0v-0.072v-0.048v-0.12v-0.048v-0.072v-0.048v-0.112v-0.056v-0.064v-0.104v-0.064v-0.064v-0.088
		v-0.072v-0.064v-0.08v-0.072v-0.08v-0.056v-0.112v-0.048v-0.088v-0.048v-0.112v-0.048v-0.088v-0.048v-0.112v-0.048v-0.104v-0.056
		v-0.088v-0.048v-0.112v-0.048v-0.096l0,0v-0.12v-0.04v-0.112l0,0v-0.12l0,0v-0.128l0,0v-0.112l0,0v-0.128l0,0v-0.112l0,0v-0.128
		l0,0v-0.128l0,0v-0.128l0,0l0.04-0.136l0,0v-0.128l0,0l0.04-0.136l0,0l0.08-0.272l0,0l0.08-0.28l0,0l0.04-0.144l0,0l0.04-0.144l0,0
		l1.488-0.728l0,0l0.08-0.288l0,0l0.128-0.44l0,0l0.088-0.296l0,0l0.088-0.296l0,0c1.304-4.544,2.48-9.136,3.536-13.776l0,0
		l0.072-0.304l0,0l0.064-0.296l0,0v-0.144l0,0v-0.144l0,0v-0.144l0,0l0.064-0.288l0,0v-0.144l0,0v-0.136l0,0v-0.136l0,0v-0.128l0,0
		v-0.136l0,0v-0.136l0,0v-0.128l0,0v-0.128l0,0V310.4l0,0v-0.128l0,0v-0.112l0,0v-0.112v-0.056v-0.12v-0.04v-0.088v-0.384v-0.112
		v-0.056v-0.08v-0.056v-0.104v-0.056v-0.08v-0.088v-0.072v-0.064v-0.072v-0.096v-0.064v-0.072v-0.104v-0.072v-0.056v-0.128v-0.048
		v-0.08v-0.04v-0.136v-0.04l0.056-0.264l0,0l0.056-0.28l0,0v-0.184l0,0c0.304-1.504,0.592-3.024,0.872-4.544l-15.736-2.872
		L492.144,299.448z M509.896,222.648l-15.864,2.064c1.344,10.376,2.008,20.824,2.008,31.288c0,2.04-0.024,4.08-0.08,6.112l16,0.4
		c0-0.616,0-1.24,0-1.864l0,0v-1.792l0,0v-0.088l0,0v-0.088l0,0v-0.088l0,0v-2.4l0,0V256l0,0v-7.432l0,0v-0.184l0,0v-0.632v-0.384
		V247.2l0,0v-0.304l0,0V246.8l0,0v-0.408l0,0v-0.104l0,0v-0.408l0,0c-0.304-7.864-0.96-15.632-1.96-23.296L509.896,222.648z
		 M487.368,146.232l-14.448,6.872c5.36,11.264,9.824,22.936,13.36,34.896l15.344-4.52c-3.768-12.792-8.544-25.272-14.272-37.32
		L487.368,146.232z M442.368,80.48l-11.64,10.976c8.584,9.104,16.44,18.864,23.512,29.184l13.2-9.04c-1.064-1.6-2.16-3.16-3.28-4.68
		l0,0l-0.28-0.392l0,0l-0.16-0.224l0,0l-0.112-0.152l0,0l-0.056-0.08l0,0l-0.104-0.144l0,0l-0.208-0.328l0,0l-0.088-0.12l0,0
		L463,105.272l0,0l-0.072-0.096v-0.04l-0.04-0.064v-0.048l-0.064-0.088v-0.048v-0.056l-0.064-0.088v-0.056v-0.056l-0.056-0.08
		v-0.056l-0.04-0.056l-0.064-0.088v-0.048l-0.048-0.056l-0.04-0.056l-0.056-0.08v-0.04l-0.064-0.08v-0.056l-0.048-0.064v-0.04
		l-0.064-0.088v-0.048l-0.056-0.072l-0.04-0.056l-0.056-0.072v-0.04l-0.072-0.096l0,0l-0.064-0.08l0,0l-0.072-0.104l0,0
		l-0.072-0.096l0,0l-0.064-0.088l0,0l-0.08-0.104l0,0l-0.08-0.112l0,0l-0.784-0.376l0,0l-0.08-0.104l0,0l-0.072-0.104l0,0
		l-0.088-0.112l0,0l-0.08-0.112l0,0l-0.08-0.104l0,0l-0.088-0.112l0,0l-0.176-0.232l0,0l-0.136-0.24l0,0l-0.176-0.232l0,0
		l-0.088-0.12l0,0l-0.096-0.12l0,0l-0.088-0.12l0,0l-0.184-0.24l0,0l-0.288-0.368l0,0l-0.288-0.368l0,0l-0.192-0.248l0,0
		c-2.664-3.464-5.432-6.848-8.296-10.168l0,0l-0.2-0.232l0,0L449.88,88.8l0,0l-0.096-0.112l0,0l-0.192-0.224l0,0l-0.096-0.112l0,0
		L449.4,88.24l0,0l-0.096-0.104l0,0l-0.088-0.104l0,0l-0.08-0.096l0,0l-0.088-0.096l0,0l-0.208-0.24l0,0l-0.08-0.096l0,0
		l-0.08-0.096l0,0l-0.072-0.08l0,0l-0.08-0.096l0,0l-0.08-0.088l0,0l-0.064-0.072l0,0l-0.08-0.088l0,0l-0.264-0.304v-0.048
		l-0.064-0.072v-0.04l-0.072-0.088v-0.04l-0.048-0.056l-0.048-0.056l-0.056-0.064l-0.04-0.048l-0.064-0.064l-0.056-0.064
		l-0.04-0.048l-0.064-0.08l-0.048-0.056l-0.048-0.056v-0.04l-0.08-0.088l0,0L447.08,85.6l0,0l-0.096-0.112l0,0l-0.096-0.112l0,0
		l-0.056-0.064l0,0l-0.12-0.136l0,0l-0.184-0.208l0,0l-0.128-0.136l0,0c-1.304-1.448-2.624-2.88-3.96-4.296L442.368,80.48z
		 M379.392,31.68l-7.736,13.92c10.952,6.04,21.416,12.92,31.304,20.584l9.808-12.584l0,0l0,0l-0.104-0.08l0,0l-0.208-0.16l0,0
		l-0.112-0.088l0,0l-0.064-0.048l0,0l-0.112-0.088l0,0l-0.128-0.096l0,0l-0.296-0.24l0,0l-0.12-0.088l0,0l-0.216-0.16l0,0
		l-0.168-0.184l0,0l-0.224-0.168l0,0l-0.272-0.2l0,0l-0.144-0.112l0,0l-0.224-0.168l0,0L410,51.432l0,0
		c-2.608-1.968-5.256-3.888-7.944-5.752l0,0l-0.416-0.272l0,0l-1.032-0.712l0,0l-0.24-0.16l0,0l-0.16-0.104l0,0l-0.232-0.16l0,0
		l-0.152-0.104l0,0l-0.08-0.056l0,0L399.584,44l0,0l-0.224-0.152l0,0l-0.12-0.08l0,0l-0.072-0.048l0,0l-0.136-0.088l0,0
		l-0.144-0.096l0,0l-0.072-0.048l0,0l-0.128-0.088l0,0l-0.224-0.152l0,0l-0.128-0.088l0,0l-0.072-0.048l0,0l-0.12-0.08l0,0
		l-0.112-0.08l0,0l-0.392-0.248l0,0l-0.128-0.08l0,0l-0.216-0.144l0,0l-0.12-0.08l0,0l-0.072-0.048l0,0l-0.264-0.168l0,0
		l-0.128-0.088l0,0l-0.064-0.04l0,0l-0.112-0.072l0,0l-0.064-0.04h-0.048l-0.096-0.064h-0.04l-0.248-0.216H396l-0.024-0.064h-0.048
		l-0.096-0.064h-0.048l-0.08-0.056l-0.064-0.04h-0.064h-0.048l-0.096-0.064h-0.048h-0.056l-0.088-0.256h-0.056h-0.056l-0.072-0.048
		l-0.072-0.048h-0.056h-0.056l-0.08-0.056h-0.056h-0.056l-0.088-0.056h-0.056h-0.056l-0.088-0.056h-0.064h-0.056l-0.08-0.056h-0.056
		l-0.064-0.04h-0.048l-0.096-0.064h-0.048l-0.072-0.048l-0.064-0.04l-0.104-0.504h-0.048L393.528,40h-0.048l-0.064-0.04l-0.064-0.04
		l-0.08-0.048h-0.048l-0.088-0.056h-0.056l-0.072-0.048h-0.048l-0.12-0.168h-0.048l-0.08-0.048h-0.056l-0.08-0.048h-0.048
		l-0.096-0.064h-0.048l-0.064-0.04l-0.032-0.2h-0.072h-0.048l-0.128-0.104h-0.048l-0.072-0.048h-0.048l-0.096-0.064h-0.048
		l-0.08-0.048H391.6l-0.08-0.048h-0.048l-0.104-0.064l0,0l-0.08-0.048l0,0l-0.096-0.064h-0.04l-0.144-0.312l0,0l-0.088-0.056l0,0
		l-0.104-0.064h-0.04l-0.08-0.048h-0.048l-0.088-0.056h-0.04l-0.104-0.064l0,0l-0.08-0.048h-0.04L390.192,38l0,0l-0.104-0.064l0,0
		L390,37.88l0,0l-0.32-0.28l0,0l-0.088-0.056l0,0l-0.112-0.064l0,0l-0.104-0.064l0,0l-0.088-0.056l0,0l-0.104-0.064l0,0
		l-0.344-0.184l0,0l-0.104-0.064l0,0l-0.112-0.064l0,0l-0.096-0.056l0,0l-0.176-0.128l0,0l-0.112-0.064l0,0l-0.088-0.056l0,0
		l-0.104-0.064l0,0l-0.104-0.064l0,0l-0.104-0.064l0,0l-0.112-0.064l0,0l-0.096-0.056l0,0l-0.392-0.216l0,0l-0.112-0.064l0,0
		L387.016,36l0,0l-0.104-0.064l0,0l-0.096-0.056l0,0l-0.104-0.064l0,0l-0.272-0.152l0,0l-0.104-0.064l0,0l-0.112-0.064l0,0
		l-0.112-0.064l0,0l-0.096-0.056l0,0l-0.112-0.064l0,0L385.64,35.2l0,0l-0.112-0.064l0,0l-0.112-0.064l0,0l-0.096-0.056l0,0
		l-0.112-0.064l0,0l-0.112-0.064l0,0l-0.256-0.168l0,0l-0.112-0.064l0,0l-0.096-0.056l0,0l-0.192-0.12l0,0l-0.144-0.08l0,0
		l-0.096-0.056l0,0l-0.16-0.096l0,0l-0.096-0.056l0,0l-0.096-0.056l0,0l-0.104-0.064l0,0l-0.096-0.056l0,0l-0.112-0.064l0,0
		l-0.296-0.184l0,0l-0.088-0.048l0,0l-0.2-0.12h-0.04l-0.096-0.056l0,0l-0.096-0.056h-0.048l-0.104-0.056l0,0l-0.128-0.12l0,0
		l-0.104-0.064l0,0l-0.112-0.064l0,0l-0.088-0.048h-0.04l-0.104-0.056h-0.048l-0.08-0.048h-0.056l-0.08-0.048h-0.048l-0.232-0.184
		h-0.04l-0.072-0.04h-0.048l-0.104-0.056h-0.048l-0.08-0.048h-0.064l-0.072-0.04h-0.048l-0.104-0.056h-0.048l-0.08-0.04h-0.064
		l-0.08-0.04h-0.056l-0.096-0.056h-0.056h-0.064h-0.056L380.088,32h-0.048h-0.064l-0.088-0.048h-0.056h-0.056l-0.096-0.048h-0.064
		h-0.056l-0.088-0.048h-0.064l0,0L379.392,31.68z M304.44,4.568l-3.008,15.712c12.28,2.352,24.352,5.664,36.112,9.904l5.432-15.048
		c-6.984-2.52-14.112-4.744-21.376-6.664l0,0l-0.76-0.2l0,0l-0.296-0.08l0,0l-0.448-0.12l0,0L319.784,8l0,0l-0.296-0.08l0,0h-0.136
		l0,0h-0.128l0,0h-0.136l0,0l-0.36-0.192l0,0h-0.136l0,0h-0.128l0,0h-0.136l0,0H318.2l0,0h-0.128l0,0h-0.128l0,0h-0.128l0,0h-0.136
		l0,0h-0.112l0,0h-0.128l0,0h-0.12l0,0h-0.128l0,0h-0.128l0,0h-0.104l0,0h-0.128l0,0h-0.104l0,0H316.6h-0.04h-0.12l0,0h-0.104
		h-0.048h-0.12h-0.528h-0.096h-0.048h-0.12h-0.04L315.24,6.88h-0.04h-0.112h-0.048h-0.112h-0.048h-0.088h-0.048h-0.12h-0.048h-0.088
		h-0.048h-0.112h-0.056h-0.096h-0.056h-0.096h-0.048h-0.12h-0.04h-0.088h-0.088h-0.12h-0.048h-0.088h-0.056h-0.104h-0.048h-0.104
		h-0.056h-0.088h-0.056h-0.112h-0.048h-0.088H312.6h-0.12h-0.048h-0.096h-0.056h-0.104h-0.056l-0.08-0.744h-0.08h-0.08h-0.056
		h-0.112h-0.056h-0.08h-0.056h-0.104h-0.056h-0.096H311.2h-0.088h-0.056h-0.12h-0.048H310.8h-0.04h-0.12h-0.056h-0.088h-0.064
		h-0.096h-0.056h-0.12h-0.04h-0.088h-0.048h-0.12h-0.048h-0.088h-0.088L309.56,5.6h-0.048h-0.096h-0.064h-0.088h-0.048h-0.12h-0.048
		h-0.096h-0.04h-0.12h-0.048h-0.096l0,0h-0.12h-0.088h-0.128l0,0h-0.104h-0.04l-0.128-0.32l0,0h-0.104l0,0h-0.128l0,0h-0.128l0,0
		h-0.12h-0.04l-0.28-0.16l0,0h-0.104l0,0h-0.128h-0.04h-0.112l0,0h-0.128l0,0l-0.288-0.16l0,0h-0.12l0,0h-0.128l0,0h-0.12l0,0
		h-0.136l0,0h-0.128l0,0h-0.136l0,0h-0.136l0,0h-0.128l0,0h-0.136l0,0h-0.128l0,0h-0.136l0,0l-0.552-0.392H304.44z M256.04,0v16
		c2.728,0,5.448,0.048,8.152,0.136l0.536-16C262.936,0.088,261.152,0.04,259.36,0H256.04z"/>
	<path style="fill:#999999;" d="M256.04,55.904h-9.656l-2.24,0.12l0,0h-0.24h-1.04h-0.24h-0.08
		c-8.816,0.584-17.584,1.752-26.248,3.496l1.6,7.84c12.568-2.408,25.344-3.568,38.144-3.456V55.904z M178.144,71.632
		c-11.784,4.992-23.064,11.096-33.68,18.248l0,0l-0.064,0.04l0,0h-0.056l0,0h-0.056l0,0h-0.056l0,0h-0.056l0,0h-0.048l0,0h-0.048
		l0,0h-0.048l0,0h-0.048l0,0h-0.04l0,0h-0.04l0,0h-0.04l0,0h-0.04l0,0h-0.04l0,0l0,0l0,0l0,0l0,0l0,0l0,0l0,0l0,0l0,0h-0.04l0,0
		l-0.12,0.08l4.52,6.6c10.56-7.24,21.816-13.4,33.6-18.4l-3.12-7.368L178.144,71.632z M112.544,116.52
		c-9.304,9.568-17.632,20.04-24.856,31.256l6.728,4.336c6.944-10.768,14.944-20.824,23.872-30.008l-5.736-5.6L112.544,116.52z
		 M69.544,183.344c-2.376,6.088-4.456,12.32-6.24,18.696l0,0v0.064l0,0v0.048v0.096v0.056l0,0v0.048l0,0v0.04v0.152v0.048l0,0v0.056
		l0,0v0.048v0.248v0.048l0,0v0.048l0,0v0.048l0,0v0.056l0,0v0.064l0,0v0.056l0,0v0.056l0,0v0.056l0,0v0.056l0,0v0.064l0,0v0.064l0,0
		v0.064l0,0v0.064l0,0v0.064l0,0v0.064l0,0v0.064l0,0v0.072l0,0v0.064l0,0v0.064l0,0v0.072l0,0l-0.056,0.224l0,0v0.072l0,0
		c-1.464,5.56-2.696,11.208-3.688,16.952l7.888,1.36c1.968-12.456,5.168-24.688,9.552-36.512L69.544,183.344z M64.04,261.432
		l-8,0.224c0.168,5.992,0.592,11.928,1.28,17.792v1.768l0,0v0.072l0,0v0.072l0,0v0.072l0,0v0.072l0,0v0.296l0,0v0.064l0,0v0.072l0,0
		v0.072l0,0v0.072l0,0v0.072l0,0v0.072l0,0v0.176l0,0v0.072l0,0v0.072l0,0v0.072l0,0L57.368,283l0,0
		c0.832,6.184,1.944,12.272,3.336,18.264l7.792-1.8C65.752,286.968,64.264,274.224,64.04,261.432z M81.248,335.744l-7.272,3.328
		c0.536,1.144,1.064,2.28,1.6,3.408l0,0v0.056l0,0v0.056l0,0v0.056l0,0v0.056l0,0v0.048l0,0v0.04l0,0l0,0l0,0l0,0v0.04l0,0v0.048
		l0,0v0.048l0,0v0.048l0,0v0.048l0,0v0.056l0,0v0.056l0,0c4.248,8.72,9.12,17.112,14.584,25.12l0,0l0.04,0.064l0,0l0.04,0.056l0,0
		l0.04,0.056l0,0v0.056l0,0v0.048l0,0v0.056l0,0v0.056l0,0v0.056l0,0v0.056l0,0l0.296,0.424l0,0v0.048l0,0l0,0l0,0l0,0l0,0l0,0
		v0.048l0,0v0.048l0,0v0.04l0,0v0.04l0,0v0.048l0,0v0.048l0,0v0.048l0,0v0.048l0,0v0.056l0,0v0.056l0,0v0.048l0,0v0.056l0,0
		l0.04,0.064l0,0c0.68,0.976,1.376,1.944,2.08,2.912l6.472-4.704c-7.536-10.36-14.016-21.448-19.344-33.096L81.248,335.744z
		 M126.112,397.464l-5.416,5.888l0.232,0.208l0,0l0.224,0.208l0,0c9.696,8.856,20.24,16.744,31.48,23.544l4.144-6.848
		c-10.96-6.632-21.24-14.344-30.672-23.016L126.112,397.464z M191.4,436.936l-2.696,7.536c4.904,1.752,9.888,3.32,14.96,4.688l0,0
		h0.072l0,0l0.52,0.144l0,0l0.296,0.08l0,0h0.072l0,0l0.224,0.056l0,0h0.064l0,0l0.52,0.136l0,0h0.064l0,0h0.144l0,0h0.072l0,0
		h0.064l0,0h0.144l0,0h0.072l0,0h0.136l0,0h0.144l0,0l0.8,0.208l0,0h0.048l0,0h0.048l0,0h0.056l0,0h0.056l0,0h0.056l0,0h0.056l0,0
		h0.056l0,0h0.056h0.656h0.056l0,0h0.056l0,0h0.056l0,0h0.056l0,0h0.048h0.256h0.048l0,0h0.056h0.176h0.048l0,0h0.048l0,0h0.056l0,0
		h0.056l0,0h0.064l0,0h0.064l0,0h0.056l0,0h0.056l0,0h0.056l0,0h0.056l0,0h0.056h0.096h0.056l0,0h0.056l0,0h0.056l0,0h0.064l0,0
		h0.072l0,0h0.064l0,0h0.064l0,0h0.064l0,0h0.072l0,0h0.072l0,0h0.064l0,0h0.064l0,0h0.064l0,0h0.064l0,0h0.056l0,0h0.064l0,0h0.064
		l0,0h0.064l0,0h0.056l0,0h0.064l0,0h0.064l0,0h0.064l0,0h0.064l0,0h0.064l0,0h0.064l0,0h0.064l0,0h0.064l0,0h0.064l0,0h0.064l0,0
		h0.064l0,0h0.056l0,0h0.064l0,0h0.072l0,0h0.064l0,0h0.072l0,0h0.072l0,0h0.072l0,0h0.08l0,0h0.072l0,0
		c1.528,0.336,3.072,0.656,4.616,0.952l0,0h0.152l0,0h0.072l0,0h0.072l0,0h0.144l0,0h0.064l0,0h0.064l0,0h0.064l0,0h0.064h3.68
		h0.072h0.08h0.072l0,0h0.072l0,0h0.072h0.08c1.6,0.264,3.152,0.512,4.744,0.736l1.136-7.92c-12.68-1.816-25.144-4.904-37.208-9.208
		L191.4,436.936z M304.8,441.856c-12.392,3.232-25.08,5.224-37.872,5.936l0.448,8c1.152-0.064,2.304-0.136,3.448-0.224h4.376
		c10.68-1.016,21.256-2.888,31.632-5.6l-2.024-7.736L304.8,441.856z M373.256,408.208c-10.144,7.824-21.048,14.616-32.544,20.272
		l3.528,7.2c2.016-0.992,4.016-2.016,5.992-3.072l0,0h0.056l0,0h0.056l0,0h0.048l0,0h0.04l0,0h0.04l0,0l0,0l0,0l0,0l0,0l0,0l0,0l0,0
		l0,0l0,0l0,0l0,0l0,0l0,0l0,0l0,0l0,0l0,0h0.04l0,0h0.04l0,0h0.048l0,0h0.048l0,0h0.056l0,0h0.056l0,0h0.064l0,0l0.688-0.376l0,0
		h0.064l0,0h0.064l0,0h0.064l0,0h0.064l0,0h0.056l0,0h0.056l0,0h0.056l0,0h0.056l0,0h0.056l0,0h0.064l0,0h0.064l0,0h0.064l0,0h0.064
		l0,0c4.176-2.32,8.256-4.784,12.24-7.392l0,0l0.064-0.04l0,0h0.056l0,0l0.064-0.04l0,0h0.056l0,0h0.056l0,0h0.056l0,0h0.056l0,0
		h0.056l0,0h0.048l0,0h0.048l0,0h0.048l0,0h0.048l0,0h0.056l0,0h0.056l0,0h0.056l0,0h0.056l0,0l0.064-0.04l0,0l0.064-0.04l0,0
		l0.384-0.256l0,0h0.04l0,0h0.048l0,0h0.04l0,0l0,0l0,0l0,0l0,0l0,0l0,0h0.04l0,0l0,0l0,0l0,0l0,0l0,0l0,0l0,0l0,0l0,0l0,0l0,0l0,0
		l0,0l0,0l0,0l0,0l0,0h0.04l0,0l0,0l0,0l0,0l0,0h0.04l0,0h0.056l0,0c3.352-2.28,6.632-4.648,9.832-7.12l-4.888-6.336
		L373.256,408.208z M423.288,350.608c-6.32,11.144-13.736,21.632-22.136,31.304l6.04,5.248c4.376-5.032,8.488-10.28,12.352-15.744
		l0,0v-0.048l0,0v-0.048l0,0v-0.048l0,0v-0.048l0,0v-0.048l0,0v-0.048l0,0v-0.048l0,0v-0.048l0,0l0,0l0,0l0,0l0,0l0,0l0,0v-0.04l0,0
		v-0.04l0,0v-0.04l0,0v-0.048l0,0v-0.048l0,0v-0.048v-0.04l0,0l0.04-0.064l0,0l0.04-0.064l0,0v-0.048l0,0v-0.056l0,0v-0.048l0,0
		V370.4l0,0v-0.048l0,0v-0.048l0,0v-0.048l0,0v-0.04l0,0v-0.048l0,0v-0.048l0,0v-0.048l0,0v-0.048l0,0v-0.048l0,0v-0.056l0,0
		l0.04-0.064l0,0V369.8l0,0l0.048-0.064l0,0c3.224-4.704,6.256-9.544,9.08-14.528l-6.96-3.944L423.288,350.608z M446.904,278.088
		c-1.456,12.72-4.184,25.272-8.144,37.448l7.608,2.48c1.976-6.056,3.656-12.24,5.056-18.544l0,0v-0.152l0,0v-0.144l0,0v-0.072l0,0
		v-0.064l0,0v-0.064l0,0v-0.056l0,0v-0.072l0,0v-0.064l0,0v-0.072l0,0v-0.056l0,0v-0.064l0,0v-0.056v-0.632l0,0v-0.064l0,0v-0.144
		l0,0c1.288-6.088,2.288-12.264,3.008-18.544l-7.952-0.912L446.904,278.088z M448.152,199.8l-7.68,2.24
		c3.584,12.296,5.928,24.92,7,37.688l8-0.672c-1.112-13.296-3.56-26.456-7.296-39.264L448.152,199.8z M411.096,129.504l-6.192,5.064
		c8.104,9.92,15.2,20.632,21.184,31.96l7.08-3.736C426.936,150.992,419.552,139.84,411.096,129.504L411.096,129.504z M349.64,79.096
		l-3.744,7.072c11.32,6.008,22.008,13.12,31.912,21.248l5.072-6.184C372.568,92.768,361.432,85.352,349.64,79.096z M273.4,56.648
		l-0.688,8c12.76,1.096,25.384,3.472,37.672,7.08L312.64,64c-4.136-1.208-8.336-2.288-12.6-3.248l0,0h-0.152l0,0h-0.152l0,0
		l-0.296-0.064l0,0h-0.072l0,0h-0.072l0,0h-0.072l0,0h-0.064l0,0h-0.064l0,0h-0.064l0,0h-0.064l0,0h-0.064l0,0h-0.064l0,0h-0.064
		l0,0h-0.064l0,0h-0.064l0,0h-0.064l0,0h-0.064l0,0h-0.072l0,0h-0.064l0,0h-0.064l0,0h-0.064l0,0h-0.064l0,0h-0.064l0,0h-0.056l0,0
		h-0.064h-0.368h-0.064h-4.864h-0.064l0,0h-0.072l0,0h-0.064l0,0h-0.064l0,0h-0.072l0,0h-0.072l0,0h-0.072l0,0h-0.072l0,0h-0.152
		l0,0c-6.104-1.104-12.296-1.928-18.576-2.472L273.4,56.648z"/>
</g>
<g>
</g>
<g>
</g>
<g>
</g>
<g>
</g>
<g>
</g>
<g>
</g>
<g>
</g>
<g>
</g>
<g>
</g>
<g>
</g>
<g>
</g>
<g>
</g>
<g>
</g>
<g>
</g>
<g>
</g>
</svg>
