<?xml version="1.0" encoding="UTF-8" standalone="no"?>
<svg
   xmlns:dc="http://purl.org/dc/elements/1.1/"
   xmlns:cc="http://creativecommons.org/ns#"
   xmlns:rdf="http://www.w3.org/1999/02/22-rdf-syntax-ns#"
   xmlns:svg="http://www.w3.org/2000/svg"
   xmlns="http://www.w3.org/2000/svg"
   xmlns:sodipodi="http://sodipodi.sourceforge.net/DTD/sodipodi-0.dtd"
   xmlns:inkscape="http://www.inkscape.org/namespaces/inkscape"
   version="1.1"
   x="0px"
   y="0px"
   viewBox="0 0 192 192"
   xml:space="preserve"
   id="svg60"
   sodipodi:docname="Schedule.svg"
   width="192"
   height="192"
   inkscape:version="1.0.1 (3bc2e813f5, 2020-09-07)"
   inkscape:export-filename="C:\[W]\Game\[S]Game-1212\oss.edit.cordova\src\res\android\mipmap-xxxhdpi\ic_launcher.png"
   inkscape:export-xdpi="96"
   inkscape:export-ydpi="96"><metadata
   id="metadata66"><rdf:RDF><cc:Work
       rdf:about=""><dc:format>image/svg+xml</dc:format><dc:type
         rdf:resource="http://purl.org/dc/dcmitype/StillImage" /><dc:title></dc:title></cc:Work></rdf:RDF></metadata><defs
   id="defs64" /><sodipodi:namedview
   pagecolor="#ffffff"
   bordercolor="#666666"
   borderopacity="1"
   objecttolerance="10"
   gridtolerance="10"
   guidetolerance="10"
   inkscape:pageopacity="0"
   inkscape:pageshadow="2"
   inkscape:window-width="1920"
   inkscape:window-height="986"
   id="namedview62"
   showgrid="false"
   inkscape:zoom="3.7916667"
   inkscape:cx="96"
   inkscape:cy="96"
   inkscape:window-x="-11"
   inkscape:window-y="-11"
   inkscape:window-maximized="1"
   inkscape:current-layer="svg60" />



















<g
   id="g97"
   transform="matrix(4.4210526,0,0,4.4210526,7.5789474,7.5789474)"><g
     id="g8">
	<rect
   x="4.5"
   y="6.5"
   style="fill:#ffffff"
   width="34"
   height="32"
   id="rect2" />
	<g
   id="g6">
		<path
   style="fill:#788b9c"
   d="M 38,7 V 38 H 5 V 7 H 38 M 39,6 H 4 v 33 h 35 z"
   id="path4" />
	</g>
</g><g
     id="g16">
	<rect
   x="4.5"
   y="6.5"
   style="fill:#f78f8f"
   width="34"
   height="6"
   id="rect10" />
	<g
   id="g14">
		<path
   style="fill:#c74343"
   d="m 38,7 v 5 H 5 V 7 H 38 M 39,6 H 4 v 7 h 35 z"
   id="path12" />
	</g>
</g><rect
     x="30"
     y="17"
     style="fill:#c5d4de"
     width="3"
     height="3"
     id="rect18" /><rect
     x="25"
     y="17"
     style="fill:#c5d4de"
     width="3"
     height="3"
     id="rect20" /><rect
     x="20"
     y="17"
     style="fill:#c5d4de"
     width="3"
     height="3"
     id="rect22" /><rect
     x="15"
     y="17"
     style="fill:#c5d4de"
     width="3"
     height="3"
     id="rect24" /><rect
     x="30"
     y="22"
     style="fill:#c5d4de"
     width="3"
     height="3"
     id="rect26" /><rect
     x="25"
     y="22"
     style="fill:#c5d4de"
     width="3"
     height="3"
     id="rect28" /><rect
     x="20"
     y="22"
     style="fill:#c5d4de"
     width="3"
     height="3"
     id="rect30" /><rect
     x="15"
     y="22"
     style="fill:#c5d4de"
     width="3"
     height="3"
     id="rect32" /><rect
     x="10"
     y="22"
     style="fill:#c5d4de"
     width="3"
     height="3"
     id="rect34" /><rect
     x="25"
     y="27"
     style="fill:#c5d4de"
     width="3"
     height="3"
     id="rect36" /><rect
     x="20"
     y="27"
     style="fill:#c5d4de"
     width="3"
     height="3"
     id="rect38" /><rect
     x="15"
     y="27"
     style="fill:#c5d4de"
     width="3"
     height="3"
     id="rect40" /><rect
     x="10"
     y="27"
     style="fill:#c5d4de"
     width="3"
     height="3"
     id="rect42" /><rect
     x="5"
     y="35"
     style="fill:#e1ebf2"
     width="33"
     height="3"
     id="rect44" /><g
     id="g52">
	<path
   style="fill:#8bb7f0"
   d="m 11.5,21.5 c -5.514,0 -10,-4.486 -10,-10 0,-5.514 4.486,-10 10,-10 5.514,0 10,4.486 10,10 0,5.514 -4.486,10 -10,10 z"
   id="path46" />
	<g
   id="g50">
		<path
   style="fill:#4e7ab5"
   d="M 11.5,2 C 16.738,2 21,6.262 21,11.5 21,16.738 16.738,21 11.5,21 6.262,21 2,16.738 2,11.5 2,6.262 6.262,2 11.5,2 m 0,-1 C 5.701,1 1,5.701 1,11.5 1,17.299 5.701,22 11.5,22 17.299,22 22,17.299 22,11.5 22,5.701 17.299,1 11.5,1 Z"
   id="path48" />
	</g>
</g><circle
     style="fill:#ffffff"
     cx="11.5"
     cy="11.5"
     r="7.5"
     id="circle54" /><circle
     style="fill:#36404d"
     cx="11.5"
     cy="11.5"
     r="1.25"
     id="circle56" /><polyline
     style="fill:none;stroke:#36404d;stroke-miterlimit:10"
     points="14.5,15.25 11.5,11.5 13.75,5.5 "
     id="polyline58" /></g>
<text
   xml:space="preserve"
   style="font-style:normal;font-weight:normal;font-size:40px;line-height:1.25;font-family:sans-serif;letter-spacing:0px;word-spacing:0px;fill:#000000;fill-opacity:1;stroke:none"
   x="108.13187"
   y="173.8022"
   id="text101"><tspan
     sodipodi:role="line"
     id="tspan99"
     x="108.13187"
     y="173.8022"
     style="font-style:normal;font-variant:normal;font-weight:bold;font-stretch:normal;font-size:53.3333px;font-family:Arial;-inkscape-font-specification:'Arial Bold';fill:#000000">EF</tspan></text></svg>
