<?xml version="1.0" encoding="iso-8859-1"?>
<!-- Generator: Adobe Illustrator 19.0.0, SVG Export Plug-In . SVG Version: 6.00 Build 0)  -->
<svg version="1.1" id="Layer_1" xmlns="http://www.w3.org/2000/svg" xmlns:xlink="http://www.w3.org/1999/xlink" x="0px" y="0px"
	 viewBox="0 0 488.948 488.948" style="enable-background:new 0 0 488.948 488.948;" xml:space="preserve">
<g>
	<polygon style="fill:#2488FF;" points="395.727,340.663 367.443,368.948 393.301,394.806 95.648,394.806 121.505,368.948 
		93.221,340.663 19.079,414.806 93.221,488.948 121.505,460.663 95.648,434.806 393.301,434.806 367.443,460.663 395.727,488.948 
		469.869,414.806 	"/>
	<polygon style="fill:#005ECE;" points="126.974,40 224.474,40 224.474,275 174.474,275 174.474,315 314.474,315 314.474,275 
		264.474,275 264.474,40 361.974,40 361.974,90 401.974,90 401.974,0 86.974,0 86.974,90 126.974,90 	"/>
</g>
<g>
</g>
<g>
</g>
<g>
</g>
<g>
</g>
<g>
</g>
<g>
</g>
<g>
</g>
<g>
</g>
<g>
</g>
<g>
</g>
<g>
</g>
<g>
</g>
<g>
</g>
<g>
</g>
<g>
</g>
</svg>
