<?xml version="1.0" encoding="iso-8859-1"?>
<!-- Generator: Adobe Illustrator 19.0.0, SVG Export Plug-In . SVG Version: 6.00 Build 0)  -->
<svg version="1.1" id="Layer_1" xmlns="http://www.w3.org/2000/svg" xmlns:xlink="http://www.w3.org/1999/xlink" x="0px" y="0px"
	 viewBox="0 0 480 480" style="enable-background:new 0 0 480 480;" xml:space="preserve">
<rect x="64" y="40" style="fill:#93A4AA;" width="352" height="48"/>
<polyline style="fill:#7C8E93;" points="64,40 416,40 416,88 "/>
<path style="fill:#6799A5;" d="M80,104v376h320V104H80z M168,422.4c0,4-4,7.2-8,7.2s-8-3.2-8-7.2V161.6c0-4,4-7.2,8-7.2s8,3.2,8,7.2
	V422.4z M224,422.4c0,4-4,7.2-8,7.2s-8-3.2-8-7.2V161.6c0-4,4-7.2,8-7.2s8,3.2,8,7.2V422.4z M272,422.4c0,4-4,7.2-8,7.2
	s-8-3.2-8-7.2V161.6c0-4,4-7.2,8-7.2s8,3.2,8,7.2V422.4z M328,422.4c0,4-4,7.2-8,7.2s-8-3.2-8-7.2V161.6c0-4,4-7.2,8-7.2
	s8,3.2,8,7.2V422.4z"/>
<g>
	<rect x="128" style="fill:#54868E;" width="16" height="24"/>
	<rect x="336" style="fill:#54868E;" width="16" height="24"/>
</g>
<rect x="128" style="fill:#6799A5;" width="224" height="16"/>
<path style="fill:#54868E;" d="M240,104v376h160V104H240z M272,422.4c0,4-4,7.2-8,7.2s-8-3.2-8-7.2V161.6c0-4,4-7.2,8-7.2
	s8,3.2,8,7.2V422.4z M328,422.4c0,4-4,7.2-8,7.2s-8-3.2-8-7.2V161.6c0-4,4-7.2,8-7.2s8,3.2,8,7.2V422.4z"/>
<g>
</g>
<g>
</g>
<g>
</g>
<g>
</g>
<g>
</g>
<g>
</g>
<g>
</g>
<g>
</g>
<g>
</g>
<g>
</g>
<g>
</g>
<g>
</g>
<g>
</g>
<g>
</g>
<g>
</g>
</svg>
