<?xml version="1.0" encoding="UTF-8" standalone="no"?>
<!-- Created with Inkscape (http://www.inkscape.org/) -->

<svg
   xmlns:dc="http://purl.org/dc/elements/1.1/"
   xmlns:cc="http://creativecommons.org/ns#"
   xmlns:rdf="http://www.w3.org/1999/02/22-rdf-syntax-ns#"
   xmlns:svg="http://www.w3.org/2000/svg"
   xmlns="http://www.w3.org/2000/svg"
   xmlns:sodipodi="http://sodipodi.sourceforge.net/DTD/sodipodi-0.dtd"
   xmlns:inkscape="http://www.inkscape.org/namespaces/inkscape"
   width="70mm"
   height="70mm"
   viewBox="0 0 248.03149 248.03149"
   id="svg4526"
   version="1.1"
   inkscape:version="0.91 r13725"
   sodipodi:docname="user_workflow.svg">
  <defs
     id="defs4528">
    <clipPath
       id="clipPath2560"
       clipPathUnits="userSpaceOnUse">
      <path
         inkscape:connector-curvature="0"
         id="path2562"
         sodipodi:nodetypes="cccccc"
         style="color:#000000;fill:none;stroke:#ffffff;stroke-width:1.82509995;stroke-linecap:square"
         d="M 14.03,17.05 13.895,40.132 54.664,80.961 77.765,57.847 36.965,17.026 14.03,17.05 Z" />
    </clipPath>
  </defs>
  <sodipodi:namedview
     id="base"
     pagecolor="#ffffff"
     bordercolor="#666666"
     borderopacity="1.0"
     inkscape:pageopacity="0.0"
     inkscape:pageshadow="2"
     inkscape:zoom="0.98994949"
     inkscape:cx="-191.16648"
     inkscape:cy="55.467616"
     inkscape:document-units="px"
     inkscape:current-layer="layer1"
     showgrid="false"
     inkscape:window-width="1536"
     inkscape:window-height="801"
     inkscape:window-x="-8"
     inkscape:window-y="-8"
     inkscape:window-maximized="1" />
  <metadata
     id="metadata4531">
    <rdf:RDF>
      <cc:Work
         rdf:about="">
        <dc:format>image/svg+xml</dc:format>
        <dc:type
           rdf:resource="http://purl.org/dc/dcmitype/StillImage" />
        <dc:title></dc:title>
      </cc:Work>
    </rdf:RDF>
  </metadata>
  <g
     inkscape:label="Laag 1"
     inkscape:groupmode="layer"
     id="layer1"
     transform="translate(0,-804.33071)">
    <path
       style="opacity:1;fill:#030904;fill-opacity:1;fill-rule:nonzero;stroke:#000000;stroke-width:0.50507629;stroke-opacity:1"
       d="m 70.362525,1043.7272 c -2.2224,-0.2267 -4.7225,-0.6821 -5.5559,-1.012 -0.8334,-0.3299 -9.3384,-2.8569 -18.9001,-5.6157 -9.5617,-2.7588 -17.4523,-5.0834 -17.5347,-5.1657 -0.2391,-0.2392 2.2788,-42.51164 2.8639,-48.08141 2.2676,-21.58406 6.0483,-32.16101 14.8649,-41.58634 7.5909,-8.11487 14.9224,-11.77177 27.5448,-13.73911 5.5107,-0.85889 39.443295,-1.23111 47.620595,-0.52237 13.0001,1.12673 21.3056,3.10399 29.1231,6.93322 3.9457,1.93271 5.526,3.0883 9.1422,6.68524 9.4197,9.36932 13.7657,22.358 15.8544,47.38281 1.1656,13.96556 2.4884,42.59716 1.9903,43.07936 -0.9176,0.8884 -17.7367,5.5971 -23.3654,6.5414 -20.4406,3.4292 -70.257495,6.467 -83.648095,5.1006 z"
       id="path4293-4"
       inkscape:connector-curvature="0" />
    <ellipse
       style="opacity:1;fill:#000700;fill-opacity:1;fill-rule:nonzero;stroke:#000000;stroke-opacity:1"
       id="path4295-9"
       cx="100.90107"
       cy="884.11365"
       rx="40.658642"
       ry="38.327599" />
    <ellipse
       style="opacity:1;fill:#666666;fill-opacity:1;fill-rule:nonzero;stroke:#ffffff;stroke-width:7.51900005;stroke-miterlimit:4;stroke-dasharray:none;stroke-opacity:1"
       id="path4344-6"
       cx="188.8725"
       cy="959.41583"
       rx="52.857143"
       ry="50.714287" />
    <path
       id="path8"
       pointer-events="none"
       stroke-miterlimit="10"
       d="m 172.54795,939.04035 0,4.98726 0,-3.74045 0,3.39882"
       inkscape:connector-curvature="0"
       style="fill:none;stroke:#ffffff;stroke-width:0.75;stroke-miterlimit:10;stroke-dasharray:none;stroke-opacity:1" />
    <path
       id="path10"
       pointer-events="none"
       stroke-miterlimit="10"
       d="m 172.54795,944.99514 -0.97875,-1.74554 0.97875,0.43638 0.97875,-0.43638 z"
       inkscape:connector-curvature="0"
       style="fill:#ffffff;fill-opacity:1;stroke:#ffffff;stroke-width:0.26406986;stroke-miterlimit:10;stroke-opacity:1" />
    <rect
       id="rect12"
       pointer-events="none"
       ry="2.2442679"
       rx="2.5167959"
       height="14.961786"
       width="27.964399"
       y="924.07855"
       x="158.56575"
       style="fill:#ffffff;stroke:#ffffff;stroke-width:0.26406986;stroke-opacity:1" />
    <path
       id="path14"
       pointer-events="none"
       stroke-miterlimit="10"
       d="m 183.73371,952.75532 26.56618,0 0,19.60742"
       inkscape:connector-curvature="0"
       style="fill:none;stroke:#ffffff;stroke-width:0.75;stroke-miterlimit:10;stroke-dasharray:none;stroke-opacity:1" />
    <path
       id="path16"
       pointer-events="none"
       stroke-miterlimit="10"
       d="m 210.29989,973.6719 -0.97876,-1.74555 0.97876,0.43639 0.97875,-0.43639 z"
       inkscape:connector-curvature="0"
       style="fill:#ffffff;fill-opacity:1;stroke:#ffffff;stroke-width:0.26406986;stroke-miterlimit:10;stroke-opacity:1" />
    <path
       id="path18"
       pointer-events="none"
       stroke-miterlimit="10"
       d="m 172.54795,960.23621 0,10.87971"
       inkscape:connector-curvature="0"
       style="fill:none;stroke:#ffffff;stroke-width:0.75;stroke-miterlimit:10;stroke-dasharray:none;stroke-opacity:1" />
    <path
       id="path20"
       pointer-events="none"
       stroke-miterlimit="10"
       d="m 172.54795,972.42508 -0.97875,-1.74554 0.97875,0.43638 0.97875,-0.43638 z"
       inkscape:connector-curvature="0"
       style="fill:#ffffff;fill-opacity:1;stroke:#ffffff;stroke-width:0.26406986;stroke-miterlimit:10;stroke-opacity:1" />
    <path
       id="path22"
       pointer-events="none"
       stroke-miterlimit="10"
       d="m 172.54795,945.27442 11.18576,7.4809 -11.18576,7.48089 -11.18576,-7.48089 z"
       inkscape:connector-curvature="0"
       style="fill:#ffffff;stroke:#ffffff;stroke-width:0.26406986;stroke-miterlimit:10;stroke-opacity:1" />
    <ellipse
       id="ellipse24"
       pointer-events="none"
       ry="6.2340779"
       rx="12.58398"
       cy="980.18524"
       cx="210.2999"
       style="fill:#ffffff;stroke:#ffffff;stroke-width:0.26406986;stroke-opacity:1" />
    <path
       id="path26"
       pointer-events="none"
       stroke-miterlimit="10"
       d="m 186.53015,980.18526 9.40443,0"
       inkscape:connector-curvature="0"
       style="fill:none;stroke:#ffffff;stroke-width:0.75;stroke-miterlimit:10;stroke-dasharray:none;stroke-opacity:1" />
    <path
       id="path28"
       pointer-events="none"
       stroke-miterlimit="10"
       d="m 197.40271,980.18526 -1.95751,0.87277 0.48938,-0.87277 -0.48938,-0.87277 z"
       inkscape:connector-curvature="0"
       style="fill:#ffffff;fill-opacity:1;stroke:#ffffff;stroke-width:0.26406986;stroke-miterlimit:10;stroke-opacity:1" />
    <rect
       id="rect30"
       pointer-events="none"
       ry="2.2442679"
       rx="2.5167959"
       height="14.961786"
       width="27.964399"
       y="972.70435"
       x="158.56575"
       style="fill:#ffffff;stroke:#ffffff;stroke-width:0.26406986;stroke-opacity:1" />
  </g>
</svg>
