<?xml version="1.0" ?><!DOCTYPE svg  PUBLIC '-//W3C//DTD SVG 1.1//EN'  'http://www.w3.org/Graphics/SVG/1.1/DTD/svg11.dtd'><svg id="Layer_1" style="enable-background:new 0 0 74 74;" version="1.1" viewBox="0 0 74 74" xml:space="preserve" xmlns="http://www.w3.org/2000/svg" xmlns:xlink="http://www.w3.org/1999/xlink"><style type="text/css">
	.st0{fill:#7688A1;}
	.st1{fill:#FABB8E;}
	.st2{fill:#E69D6A;}
	.st3{fill:#594667;}
	.st4{fill:#E73A36;}
	.st5{fill:#CFE5E4;}
	.st6{fill:#FFFFFF;}
	.st7{fill:#EEF1F6;}
	.st8{fill:#8EDAFA;}
	.st9{fill:#FFF383;}
	.st10{fill:#70B7D6;}
	.st11{fill:#FFAEC3;}
	.st12{fill:#FF9DB2;}
	.st13{fill:#F18DA2;}
	.st14{fill:#FFDF97;}
	.st15{fill:#49375B;}
	.st16{fill:#452E1B;}
	.st17{fill:#FEF6B0;}
	.st18{fill:#FFCCA9;}
	.st19{fill:#FED766;}
	.st20{fill:#8A9DB2;}
	.st21{fill:#5D738C;}
	.st22{fill:#2C3E50;}
	.st23{fill:#EC685E;}
	.st24{fill:#54758C;}
	.st25{fill:#D12828;}
	.st26{fill:#69567C;}
	.st27{fill:#857399;}
	.st28{fill:#705D82;}
	.st29{fill:#EAA678;}
	.st30{fill:#D88D5B;}
	.st31{fill:#3597D3;}
	.st32{fill:#E27491;}
	.st33{fill:#E4F2F1;}
	.st34{fill:#FFE576;}
	.st35{fill:#FFB8CB;}
	.st36{fill:#C91F1F;}
	.st37{fill:#E0E2EE;}
	.st38{fill:#FEFEFE;}
	.st39{fill:#E5E5E5;}
	.st40{fill:#D3D3D3;}
	.st41{fill:#C2C3C4;}
	.st42{fill:none;}
	.st43{fill:#FFFBD7;}
	.st44{fill:#CCCCCC;}
	.st45{fill:#FFF5B0;}
	.st46{fill:#EDEFF4;}
	.st47{fill:#F0F2F7;}
	.st48{fill:#D3EBF7;}
</style><g><path class="st11" d="M49.4,10.9l-42,42c0.7,0.2,1.4,0.6,1.9,1.2c1.1,1.1,1.5,2.5,1.4,3.9l42.9-42.9L49.4,10.9z"/><path class="st12" d="M53.6,15.1L10.7,58c1.4-0.1,2.8,0.3,3.9,1.4c1.1,1.1,1.5,2.5,1.4,3.9l42.9-42.9L53.6,15.1z"/><path class="st13" d="M58.9,20.4L16,63.3c1.4-0.1,2.8,0.3,3.9,1.4c0.6,0.6,1,1.2,1.2,2l42-42L58.9,20.4z"/><rect class="st7" height="19.4" transform="matrix(-0.7071 0.7071 -0.7071 -0.7071 110.0436 -13.0164)" width="4.1" x="55.7" y="6.6"/><path class="st3" d="M66,21.7l5.9-5.9c1.4-1.4,1.4-3.8,0-5.2l-8.5-8.5c-1.4-1.4-3.8-1.4-5.2,0L52.3,8L66,21.7z"/><path class="st14" d="M6,71.4l15.1-4.8c-0.2-0.7-0.6-1.4-1.2-2c-1.1-1.1-2.5-1.5-3.9-1.4c0.1-1.4-0.3-2.8-1.4-3.9   c-1.1-1.1-2.5-1.5-3.9-1.4c0.1-1.4-0.3-2.8-1.4-3.9c-0.6-0.6-1.2-1-1.9-1.2L2.6,68c0.8,0.2,1.5,0.7,2.1,1.3   C5.3,69.9,5.7,70.6,6,71.4z"/><path class="st3" d="M6,71.4c-0.2-0.8-0.7-1.5-1.3-2.1c-0.6-0.6-1.3-1-2.1-1.3L1,73L6,71.4z"/></g></svg>