<?xml version="1.0" encoding="UTF-8" standalone="no"?>
<!-- Generator: Adobe Illustrator 19.0.0, SVG Export Plug-In . SVG Version: 6.00 Build 0)  -->

<svg
   version="1.1"
   id="Layer_1"
   x="0px"
   y="0px"
   viewBox="0 0 512 512"
   style="enable-background:new 0 0 512 512;"
   xml:space="preserve"
   sodipodi:docname="pencil-draw#2.svg"
   inkscape:version="1.1.1 (3bf5ae0d25, 2021-09-20)"
   inkscape:export-filename="C:\Users\i\Documents\GitHub\drawfund.github.io\docs\_images\misc\pencil-draw#2.png"
   inkscape:export-xdpi="96"
   inkscape:export-ydpi="96"
   xmlns:inkscape="http://www.inkscape.org/namespaces/inkscape"
   xmlns:sodipodi="http://sodipodi.sourceforge.net/DTD/sodipodi-0.dtd"
   xmlns="http://www.w3.org/2000/svg"
   xmlns:svg="http://www.w3.org/2000/svg"><defs
   id="defs71" /><sodipodi:namedview
   id="namedview69"
   pagecolor="#ffffff"
   bordercolor="#999999"
   borderopacity="1"
   inkscape:pageshadow="0"
   inkscape:pageopacity="0"
   inkscape:pagecheckerboard="0"
   showgrid="false"
   inkscape:zoom="1.017006"
   inkscape:cx="323.00696"
   inkscape:cy="312.68253"
   inkscape:window-width="1920"
   inkscape:window-height="986"
   inkscape:window-x="-11"
   inkscape:window-y="-11"
   inkscape:window-maximized="1"
   inkscape:current-layer="Layer_1" />









<g
   id="g91"><rect
     x="306.57"
     y="354.953"
     transform="matrix(-0.7071 0.7071 -0.7071 -0.7071 906.4882 377.2645)"
     style="fill:#AD4826;"
     width="137.08"
     height="42.838"
     id="rect2" /><rect
     x="336.846"
     y="385.269"
     transform="matrix(-0.7071 0.7071 -0.7071 -0.7071 979.609 407.6083)"
     style="fill:#E66032;"
     width="137.08"
     height="42.838"
     id="rect4" /><path
     style="fill:#FADFD6;"
     d="M469.014,373.338l-96.925,96.934l31.692,31.692c13.383,13.383,35.084,13.383,48.467,0l48.467-48.467  c13.383-13.383,13.383-35.084,0-48.467L469.014,373.338z"
     id="path6" /><polygon
     style="fill:#E66032;"
     points="160.049,64.373 111.711,112.703 361.602,359.595 408.433,312.756 "
     id="polygon8" /><polygon
     style="fill:#EB805B;"
     points="63.115,161.298 311.499,409.69 361.602,359.595 111.711,112.703 "
     id="polygon10" /><polygon
     style="fill:#AD4826;"
     points="1.249,3.371 41.114,98.489 96.692,42.911 "
     id="polygon12" /><polygon
     style="fill:#FADFD6;"
     points="41.114,98.489 63.115,161.298 160.049,64.364 96.692,42.911 "
     id="polygon14" /><path
     style="fill:#F5B945;"
     d="M62.773,495.803l-48.467-48.467c-13.383-13.383-13.383-35.084,0-48.467L403.146,10.037  c13.383-13.383,35.084-13.383,48.467,0l48.467,48.467c13.383,13.383,13.383,35.084,0,48.467L111.24,495.803  C97.857,509.186,76.155,509.186,62.773,495.803z"
     id="path16" /><ellipse
     style="fill:#FFFFFF;"
     cx="414.014"
     cy="97.764"
     rx="18.849"
     ry="18.849"
     id="ellipse18" /><g
     id="g36">
	
		<rect
   x="328.781"
   y="86.456"
   transform="matrix(-0.7071 0.7071 -0.7071 -0.7071 655.1948 -47.0812)"
   style="fill:#E66032;"
   width="17.135"
   height="51.397"
   id="rect20" />
	
		<rect
   x="298.499"
   y="120.289"
   transform="matrix(-0.7071 0.7071 -0.7071 -0.7071 633.4859 46.7197)"
   style="fill:#E66032;"
   width="17.135"
   height="68.54"
   id="rect22" />
	
		<rect
   x="256.094"
   y="159.154"
   transform="matrix(-0.7071 0.7071 -0.7071 -0.7071 582.5163 128.4188)"
   style="fill:#E66032;"
   width="17.135"
   height="51.397"
   id="rect24" />
	
		<rect
   x="225.803"
   y="192.993"
   transform="matrix(-0.7071 0.7071 -0.7071 -0.7071 560.7952 222.2369)"
   style="fill:#E66032;"
   width="17.135"
   height="68.54"
   id="rect26" />
	
		<rect
   x="183.386"
   y="231.842"
   transform="matrix(-0.7071 0.7071 -0.7071 -0.7071 509.7938 303.9177)"
   style="fill:#E66032;"
   width="17.135"
   height="51.397"
   id="rect28" />
	
		<rect
   x="153.101"
   y="265.678"
   transform="matrix(-0.7071 0.7071 -0.7071 -0.7071 488.0814 397.7273)"
   style="fill:#E66032;"
   width="17.135"
   height="68.54"
   id="rect30" />
	
		<rect
   x="110.725"
   y="304.544"
   transform="matrix(-0.7071 0.7071 -0.7071 -0.7071 437.1617 479.4056)"
   style="fill:#E66032;"
   width="17.135"
   height="51.397"
   id="rect32" />
	
		<rect
   x="80.403"
   y="338.405"
   transform="matrix(-0.7072 0.707 -0.707 -0.7072 415.3755 573.3308)"
   style="fill:#E66032;"
   width="17.135"
   height="68.54"
   id="rect34" />
</g></g>
<g
   id="g38">
</g>
<g
   id="g40">
</g>
<g
   id="g42">
</g>
<g
   id="g44">
</g>
<g
   id="g46">
</g>
<g
   id="g48">
</g>
<g
   id="g50">
</g>
<g
   id="g52">
</g>
<g
   id="g54">
</g>
<g
   id="g56">
</g>
<g
   id="g58">
</g>
<g
   id="g60">
</g>
<g
   id="g62">
</g>
<g
   id="g64">
</g>
<g
   id="g66">
</g>
</svg>
