<svg xmlns="http://www.w3.org/2000/svg" width="1742.12" height="450.43" viewBox="68.96 55.62 1742.12 450.43"><text xml:space="preserve" x="622.591" y="417.772" style="font-style:normal;font-weight:400;font-size:384.859px;line-height:1.25;font-family:sans-serif;letter-spacing:0;word-spacing:0;fill:purple;fill-opacity:1;stroke:none;stroke-width:1"><tspan x="622.591" y="417.772" style="font-style:normal;font-variant:normal;font-weight:700;font-stretch:normal;font-size:384.859px;font-family:Arial;-inkscape-font-specification:&quot;Arial Bold&quot;;stroke-width:1;fill:purple">Draw</tspan></text><g style="stroke-width:1.1367" transform="matrix(.87974 0 0 .87974 67.861 55.62)"><path d="M306.57 354.953h137.08v42.838H306.57z" style="fill:#ad4826;stroke-width:1.1367" transform="rotate(134.999 375.113 376.373)"/><path d="M336.846 385.269h137.08v42.838h-137.08z" style="fill:#e66032;stroke-width:1.1367" transform="rotate(134.999 405.389 406.689)"/><path d="m469.014 373.338-96.925 96.934 31.692 31.692c13.383 13.383 35.084 13.383 48.467 0l48.467-48.467c13.383-13.383 13.383-35.084 0-48.467z" style="fill:#fadfd6;stroke-width:1.1367"/><path d="m160.049 64.373-48.338 48.33 249.891 246.892 46.831-46.839z" style="fill:#e66032;stroke-width:1.1367"/><path d="M63.115 161.298 311.499 409.69l50.103-50.095-249.891-246.892z" style="fill:#eb805b;stroke-width:1.1367"/><path d="m41.114 98.489 55.578-55.578L1.249 3.371z" style="fill:#ad4826;stroke-width:1.1367"/><path d="m41.114 98.489 22.001 62.809 96.934-96.934-63.357-21.453z" style="fill:#fadfd6;stroke-width:1.1367"/><path d="m62.773 495.803-48.467-48.467c-13.383-13.383-13.383-35.084 0-48.467l388.84-388.832c13.383-13.383 35.084-13.383 48.467 0l48.467 48.467c13.383 13.383 13.383 35.084 0 48.467L111.24 495.803c-13.383 13.383-35.085 13.383-48.467 0" style="fill:#f5b945;stroke-width:1.1367"/><circle cx="414.014" cy="97.764" r="18.849" style="fill:#fff;stroke-width:1.1367"/><g style="stroke-width:1.1367"><path d="M328.781 86.456h17.135v51.397h-17.135z" style="fill:#e66032;stroke-width:1.1367" transform="rotate(134.999 337.35 112.155)"/><path d="M298.499 120.289h17.135v68.54h-17.135z" style="fill:#e66032;stroke-width:1.1367" transform="rotate(134.999 307.069 154.56)"/><path d="M256.094 159.154h17.135v51.397h-17.135z" style="fill:#e66032;stroke-width:1.1367" transform="rotate(134.999 264.663 184.853)"/><path d="M225.803 192.993h17.135v68.54h-17.135z" style="fill:#e66032;stroke-width:1.1367" transform="rotate(134.999 234.372 227.264)"/><path d="M183.386 231.842h17.135v51.397h-17.135z" style="fill:#e66032;stroke-width:1.1367" transform="rotate(134.999 191.955 257.541)"/><path d="M153.101 265.678h17.135v68.54h-17.135z" style="fill:#e66032;stroke-width:1.1367" transform="rotate(134.999 161.67 299.95)"/><path d="M110.725 304.544h17.135v51.397h-17.135z" style="fill:#e66032;stroke-width:1.1367" transform="rotate(134.999 119.294 330.243)"/><path d="M80.403 338.405h17.135v68.54H80.403z" style="fill:#e66032;stroke-width:1.1367" transform="rotate(135.008 88.972 372.677)"/></g></g></svg>