<?xml version="1.0" encoding="UTF-8" standalone="no"?>
<!-- Generator: Adobe Illustrator 22.1.0, SVG Export Plug-In . SVG Version: 6.00 Build 0)  -->

<svg
   version="1.1"
   id="apps_development"
   x="0px"
   y="0px"
   viewBox="0 0 256 256"
   xml:space="preserve"
   sodipodi:docname="Review - 副本.svg"
   inkscape:version="1.1.1 (3bf5ae0d25, 2021-09-20)"
   width="256"
   height="256"
   xmlns:inkscape="http://www.inkscape.org/namespaces/inkscape"
   xmlns:sodipodi="http://sodipodi.sourceforge.net/DTD/sodipodi-0.dtd"
   xmlns:xlink="http://www.w3.org/1999/xlink"
   xmlns="http://www.w3.org/2000/svg"
   xmlns:svg="http://www.w3.org/2000/svg"><defs
   id="defs266">
	
	
	
	
	
	
	
	
	
	
	
	
	
	

		
		
		
		
		
		
		
		
		
		
		
		
		
		
		
		
		
		
		
		
	</defs><sodipodi:namedview
   id="namedview264"
   pagecolor="#ffffff"
   bordercolor="#999999"
   borderopacity="1"
   inkscape:pageshadow="0"
   inkscape:pageopacity="0"
   inkscape:pagecheckerboard="0"
   showgrid="false"
   inkscape:snap-nodes="false"
   inkscape:snap-global="false"
   inkscape:zoom="1.572"
   inkscape:cx="84.923664"
   inkscape:cy="199.10941"
   inkscape:window-width="1920"
   inkscape:window-height="986"
   inkscape:window-x="-11"
   inkscape:window-y="-11"
   inkscape:window-maximized="1"
   inkscape:current-layer="apps_development" />
<style
   type="text/css"
   id="style2">
	.st0{fill:#F2F2F2;}
	.st1{fill:#B7BFC7;}
	.st2{fill:#2D333A;}
	.st3{fill:#FFFFFF;}
	.st4{fill:#00BFFF;}
	.st5{fill:#4C5258;}
	.st6{opacity:0.2;}
	.st7{fill:#FF5B40;}
	.st8{fill:#FFB13E;}
	.st9{clip-path:url(#XMLID_2_);}
	.st10{fill:#DCE4E8;}
</style>

<g
   id="g2491"
   transform="matrix(0.91855041,0,0,0.91855041,-102.0165,-109.76677)"
   style="stroke-width:1.08867"><g
     id="g79"
     style="stroke-width:1.08867">
			<g
   id="XMLID_5804_"
   style="stroke-width:1.08867">
				<g
   id="XMLID_5805_"
   style="stroke-width:1.08867">
					<g
   id="XMLID_5812_"
   style="stroke-width:1.08867">
						<path
   class="st3"
   d="m 294.8,123.4 56.7,56.7 v 198 c 0,9 -7.3,16.2 -16.2,16.2 H 166 c -9,0 -16.2,-7.3 -16.2,-16.2 V 139.6 c 0,-9 7.3,-16.2 16.2,-16.2 z"
   id="path63"
   style="stroke-width:1.08867" />
					</g>
					<g
   id="XMLID_5811_"
   style="stroke-width:1.08867">
						<polygon
   class="st4"
   points="294.8,123.4 351.5,180.1 294.8,180.1 "
   id="polygon66"
   style="stroke-width:1.08867" />
					</g>
					<g
   id="XMLID_5810_"
   style="stroke-width:1.08867">
						<path
   class="st2"
   d="m 351.5,184.1 h -51 c -5.3,0 -9.6,-4.3 -9.6,-9.6 v -51 h 7.9 v 51 c 0,0.9 0.8,1.7 1.7,1.7 h 51 z"
   id="path69"
   style="stroke-width:1.08867" />
					</g>
				</g>
			</g>
			<g
   id="XMLID_5803_"
   style="stroke-width:1.08867">
				<g
   id="g76"
   style="stroke-width:1.08867">
					<path
   class="st2"
   d="M 335.3,398.2 H 166 c -11.1,0 -20.1,-9 -20.1,-20.1 V 139.6 c 0,-11.1 9,-20.1 20.1,-20.1 h 130.4 l 59,59 v 199.6 c 0,11.1 -9,20.1 -20.1,20.1 z M 166,127.3 c -6.8,0 -12.3,5.5 -12.3,12.3 v 238.5 c 0,6.8 5.5,12.3 12.3,12.3 h 169.3 c 6.8,0 12.3,-5.5 12.3,-12.3 V 181.7 l -54.4,-54.4 z"
   id="path74"
   style="stroke-width:1.08867" />
				</g>
			</g>
		</g><g
     id="g120"
     style="stroke-width:1.08867">
			<path
   class="st4"
   d="m 200.2,214.2 c 0,-8.7 -7.1,-15.8 -15.8,-15.8 -8.7,0 -15.8,7.1 -15.8,15.8 0,8.7 7.1,15.8 15.8,15.8 4.1,0 7.9,-1.6 10.7,-4.2 v 1.4 c 0,1.4 1.1,2.5 2.5,2.5 1.4,0 2.5,-1.1 2.5,-2.5 z m -5,0 c 0,5.9 -4.8,10.7 -10.7,10.7 -5.9,0 -10.7,-4.8 -10.7,-10.7 0,-5.9 4.8,-10.7 10.7,-10.7 5.9,0 10.7,4.8 10.7,10.7 z"
   id="path118"
   style="stroke-width:1.08867" />
		</g><path
     class="st2"
     d="M 224.5,238.4 H 171 c -1.5,0 -2.8,1.3 -2.8,2.8 v 0.1 c 0,1.5 1.3,2.8 2.8,2.8 h 53.5 c 1.6,0 2.8,-1.3 2.8,-2.8 0,0 0,0 0,-0.1 0,-1.5 -1.2,-2.8 -2.8,-2.8 z"
     id="path125"
     style="fill:#ffff00;stroke-width:1.08867" /><g
     id="g133"
     style="stroke-width:1.08867">
			<path
   class="st2"
   d="M 214.8,329.4 H 171 c -1.5,0 -2.8,1.3 -2.8,2.8 v 0.1 c 0,1.5 1.3,2.8 2.8,2.8 h 43.8 c 1.6,0 2.8,-1.3 2.8,-2.8 0,0 0,0 0,-0.1 0,-1.5 -1.2,-2.8 -2.8,-2.8 z"
   id="path127"
   style="stroke-width:1.08867" />
			<path
   class="st2"
   d="M 214.8,346.5 H 171 c -1.5,0 -2.8,1.3 -2.8,2.8 v 0.1 c 0,1.5 1.3,2.8 2.8,2.8 h 43.8 c 1.6,0 2.8,-1.3 2.8,-2.8 0,0 0,0 0,-0.1 0,-1.5 -1.2,-2.8 -2.8,-2.8 z"
   id="path129"
   style="stroke-width:1.08867" />
			<path
   class="st2"
   d="M 214.8,363.6 H 171 c -1.5,0 -2.8,1.3 -2.8,2.8 v 0.1 c 0,1.5 1.3,2.8 2.8,2.8 h 43.8 c 1.6,0 2.8,-1.3 2.8,-2.8 0,0 0,0 0,-0.1 0,-1.6 -1.2,-2.8 -2.8,-2.8 z"
   id="path131"
   style="stroke-width:1.08867" />
		</g><path
     class="st2"
     d="m 226.8,221.4 h -18.6 c -1.5,0 -2.8,1.3 -2.8,2.8 v 0.1 c 0,1.5 1.3,2.8 2.8,2.8 h 18.6 c 1.3,0 2.4,-0.8 2.7,-2.1 0,0 0,-0.1 0,-0.1 0.5,-1.8 -0.8,-3.5 -2.7,-3.5 z"
     id="path135"
     style="stroke-width:1.08867" /><path
     class="st2"
     d="m 234.2,204.3 h -26 c -1.5,0 -2.8,1.3 -2.8,2.8 v 0.1 c 0,1.5 1.3,2.8 2.8,2.8 h 25.9 c 1,0 1.9,-0.5 2.4,-1.4 0,0 0,-0.1 0,-0.1 1.2,-1.8 -0.1,-4.2 -2.3,-4.2 z"
     id="path137"
     style="stroke-width:1.08867" /><path
     class="st2"
     d="m 248.2,289.6 h -77.5 c -1.5,0 -2.8,1.3 -2.8,2.8 v 0.1 c 0,1.5 1.3,2.8 2.8,2.8 h 77.7 c 2.6,0 3.8,-3.3 1.8,-4.9 0,0 -0.1,-0.1 -0.1,-0.1 -0.6,-0.5 -1.3,-0.7 -1.9,-0.7 z"
     id="path139"
     style="fill:#0000ff;stroke-width:1.08867" /><path
     class="st2"
     d="m 226.6,255.5 h -56 c -1.5,0 -2.8,1.3 -2.8,2.8 v 0.1 c 0,1.5 1.3,2.8 2.8,2.8 h 56.1 c 1.8,0 3.2,-1.7 2.7,-3.5 0,0 0,-0.1 0,-0.1 -0.4,-1.3 -1.5,-2.1 -2.8,-2.1 z"
     id="path141"
     style="fill:#ff00ff;stroke-width:1.08867" /><path
     class="st2"
     d="m 233.7,272.5 h -63.1 c -1.5,0 -2.8,1.3 -2.8,2.8 v 0.1 c 0,1.5 1.3,2.8 2.8,2.8 h 63.2 c 2.2,0 3.5,-2.4 2.4,-4.3 0,0 0,0 0,-0.1 -0.6,-0.7 -1.5,-1.3 -2.5,-1.3 z"
     id="path143"
     style="fill:#ff0000;stroke-width:1.08867" /><path
     class="st2"
     d="m 233.7,149.8 h -63.1 c -1.5,0 -2.8,1.3 -2.8,2.8 v 0.1 c 0,1.5 1.3,2.8 2.8,2.8 h 63.2 c 2.2,0 3.5,-2.4 2.4,-4.3 0,0 0,0 0,-0.1 -0.6,-0.8 -1.5,-1.3 -2.5,-1.3 z"
     id="path145"
     style="stroke-width:1.08867" /><path
     class="st2"
     d="M 307.7,306.7 H 170.6 c -1.5,0 -2.8,1.3 -2.8,2.8 v 0.1 c 0,1.5 1.3,2.8 2.8,2.8 h 137.1 c 2.2,0 3.5,-2.4 2.4,-4.3 0,0 0,0 0,-0.1 -0.5,-0.8 -1.4,-1.3 -2.4,-1.3 z"
     id="path147"
     style="fill:#008000;stroke-width:1.08867" /><g
     id="g174"
     style="stroke-width:1.08867">
			<g
   id="g169"
   style="stroke-width:1.08867">
				<defs
   id="defs150">
					<path
   id="XMLID_83_"
   d="M 297.9,366 H 240 c -2.2,0 -3.9,-1.8 -3.9,-3.9 v -25.4 c 0,-2.2 1.8,-3.9 3.9,-3.9 h 57.9 c 2.2,0 3.9,1.8 3.9,3.9 v 25.4 c 0,2.1 -1.8,3.9 -3.9,3.9 z" />
				</defs>
				<clipPath
   id="XMLID_2_">
					<use
   xlink:href="#XMLID_83_"
   style="overflow:visible"
   id="use152"
   x="0"
   y="0"
   width="100%"
   height="100%" />
				</clipPath>
				<g
   class="st9"
   clip-path="url(#XMLID_2_)"
   id="g167"
   style="stroke-width:1.08867">
					<path
   id="XMLID_193_"
   class="st7"
   d="M 297.9,366 H 240 c -2.2,0 -3.9,-1.8 -3.9,-3.9 v -25.4 c 0,-2.2 1.8,-3.9 3.9,-3.9 h 57.9 c 2.2,0 3.9,1.8 3.9,3.9 v 25.4 c 0,2.1 -1.8,3.9 -3.9,3.9 z"
   style="stroke-width:1.08867" />
					<polygon
   id="XMLID_110_"
   class="st1"
   points="269.4,367.7 254.7,348.7 239.2,367.7 "
   style="stroke-width:1.08867" />
					<g
   id="XMLID_109_"
   style="stroke-width:1.08867">
						<polygon
   class="st2"
   points="258.3,355.4 254.7,350.8 240.2,368.5 238.2,366.9 254.7,346.7 260.2,353.8 "
   id="polygon157"
   style="stroke-width:1.08867" />
					</g>
					<polygon
   id="XMLID_108_"
   class="st0"
   points="290.3,367.3 271.4,343 251.4,367.3 "
   style="stroke-width:1.08867" />
					<path
   id="XMLID_106_"
   class="st3"
   d="m 295.3,349.5 c 0,-0.4 -0.3,-0.8 -0.8,-0.8 -0.1,0 -0.2,0 -0.3,0.1 -0.1,-0.3 -0.4,-0.5 -0.8,-0.6 0,-0.1 0,-0.1 0,-0.2 0,-0.7 -0.6,-1.3 -1.3,-1.3 -0.3,0 -0.6,0.1 -0.9,0.3 -0.1,-1.2 -1.1,-2.2 -2.3,-2.2 -1.1,0 -2,0.7 -2.3,1.7 -0.1,0 -0.2,0 -0.3,0 -0.8,0 -1.4,0.5 -1.6,1.2 -0.2,-0.1 -0.4,-0.1 -0.5,-0.1 -0.8,0 -1.5,0.7 -1.5,1.5 0,0.3 0.1,0.5 0.2,0.7 H 295 c 0.2,-0.1 0.3,-0.2 0.3,-0.3 z"
   style="stroke-width:1.08867" />
					<path
   id="XMLID_195_"
   class="st3"
   d="m 248.1,351 c 0,-0.2 -0.2,-0.4 -0.4,-0.4 -0.1,0 -0.1,0 -0.2,0 -0.1,-0.2 -0.2,-0.3 -0.4,-0.3 0,0 0,-0.1 0,-0.1 0,-0.4 -0.3,-0.7 -0.7,-0.7 -0.2,0 -0.4,0.1 -0.5,0.2 0,-0.7 -0.6,-1.2 -1.3,-1.2 -0.6,0 -1.1,0.4 -1.3,1 -0.1,0 -0.1,0 -0.2,0 -0.4,0 -0.8,0.3 -0.9,0.7 -0.1,0 -0.2,-0.1 -0.3,-0.1 -0.5,0 -0.8,0.4 -0.8,0.8 0,0.2 0.1,0.3 0.1,0.4 h 6.8 c 0.1,-0.1 0.1,-0.2 0.1,-0.3 z"
   style="stroke-width:1.08867" />
					<path
   id="XMLID_105_"
   class="st3"
   d="m 265.1,344.3 c 0,-0.4 -0.3,-0.7 -0.7,-0.7 -0.1,0 -0.2,0 -0.3,0.1 -0.1,-0.3 -0.4,-0.4 -0.7,-0.5 0,-0.1 0,-0.1 0,-0.2 0,-0.6 -0.5,-1.1 -1.1,-1.1 -0.3,0 -0.5,0.1 -0.7,0.3 -0.1,-1.1 -0.9,-1.9 -2,-1.9 -0.9,0 -1.7,0.6 -2,1.5 -0.1,0 -0.2,0 -0.3,0 -0.6,0 -1.2,0.4 -1.3,1 -0.1,-0.1 -0.3,-0.1 -0.5,-0.1 -0.7,0 -1.3,0.6 -1.3,1.3 0,0.2 0.1,0.4 0.2,0.6 H 265 c 0,-0.1 0.1,-0.2 0.1,-0.3 z"
   style="stroke-width:1.08867" />
					<g
   id="XMLID_196_"
   style="stroke-width:1.08867">
						<polygon
   class="st2"
   points="289.3,368.1 271.3,345 252.4,368.1 250.4,366.5 271.4,341 291.3,366.5 "
   id="polygon164"
   style="stroke-width:1.08867" />
					</g>
				</g>
			</g>
			<g
   id="XMLID_112_"
   style="stroke-width:1.08867">
				<path
   class="st2"
   d="m 298,375.2 h -58.2 c -6.9,0 -12.5,-5.6 -12.5,-12.5 V 336 c 0,-6.9 5.6,-12.5 12.5,-12.5 H 298 c 6.9,0 12.5,5.6 12.5,12.5 v 26.6 c 0,7 -5.6,12.6 -12.5,12.6 z m -58.2,-47 c -4.3,0 -7.8,3.5 -7.8,7.8 v 26.6 c 0,4.3 3.5,7.8 7.8,7.8 H 298 c 4.3,0 7.8,-3.5 7.8,-7.8 V 336 c 0,-4.3 -3.5,-7.8 -7.8,-7.8 z"
   id="path171"
   style="stroke-width:1.08867" />
			</g>
		</g><path
     d="m 246.68589,211.47662 c -4.85841,0 -8.98438,3.91846 -8.98438,8.78906 v 44.92186 c 0,4.8706 4.12597,8.78906 8.98438,8.78906 h 82.03125 c 4.8584,0 8.98437,-3.91846 8.98437,-8.78906 v -44.92186 c 0,-4.8706 -4.12597,-8.78906 -8.98437,-8.78906 z m 0,6.25 h 82.03125 c 1.61131,0 2.73437,1.19627 2.73437,2.53906 v 44.92186 c 0,1.34279 -1.12306,2.53906 -2.73437,2.53906 h -82.03125 c -1.61135,0 -2.73438,-1.19627 -2.73438,-2.53906 v -44.92186 c 0,-1.34279 1.12303,-2.53906 2.73438,-2.53906 z m 6.64062,9.37498 v 31.25 h 9.375 v -20.80078 l 9.375,12.40235 9.375,-12.40235 v 20.80078 h 9.375 v -31.25 h -9.375 l -9.375,12.5 -9.375,-12.5 z m 53.125,0 v 15.625 h -9.375 l 14.0625,15.625 14.0625,-15.625 h -9.375 v -15.625 z"
     id="path2-6"
     style="fill:#ff0000;stroke-width:1.08867" /></g></svg>
