<svg xmlns="http://www.w3.org/2000/svg" xml:space="preserve" viewBox="0 0 260 184"><path fill="#d1a41a" d="M44.99 121.28q4.44 5.475 9.87 11.1c-10.5 3.17-17.5 9.06-21.8 14.3-6.82 8.23-10.4 19.1-9.6 28.4H5.26c3.64-7.9 18.2-30.7 39.6-53.8zM255.29 180.28h-22.1c-50.6-26.4-95.1-45-142-49.1.1-6.57 1.27-14 3.52-22.3l-4.35-1.17c-2.31 8.52-3.52 16.2-3.66 23.1-4.92-.33-9.87-.49-14.9-.49-4.23 0-8.09.391-11.6 1.07-4.59-4.58-8.5-8.96-11.8-13.1 21.8-22.7 57.6-43.2 88.9-50.9 8.79 29.2 27.7 49.2 50.6 62.7a96 96 0 0 0 4.95-3.02l40 43 1.75-.15c10.9-.939 17.1 4.98 18.8 6.82 1.21 1.34 1.93 2.57 2.33 3.54z"/><path fill="#ffdc76" d="M235.29 36.08c.811 39.7-19.4 71.3-47.8 87.5-48.1-24-57.2-84.7-49-117 2.28 12.5 6.43 20.3 15.4 24.1 19.5-5.59 46.4-6.03 66.2-.57 8.25-6 11.5-15.2 13.2-23.2 2.18 9.32 1.93 29.5 1.94 29.5z"/><path d="m100.29 80.48 14-6.8 8 21.6zM84.59 88.38l8.7-5.2 8 14.1zM67.69 99.28l7.6-5 3.8 13zM202.29 135.28l-5-5-7 11zM212.29 147.28l-4-4-12 8zM194.29 24.48l-14 .3 8 18.5zM139.29 59.58l-2-7.9 14 7.1zM142.29 71.28l-1-5.2 8 3.3zM234.29 62.88l2-6-11 4.6zM230.29 75.08l1-4.9-8 2.4zM133.29 90.58h26.2v3.24h-26.2zM133.29 82.78h26.2v3.24h-26.2zM213.29 90.58h26.2v3.24h-26.2zM213.29 82.78h26.2v3.24h-26.2z"/><path d="M204.29 63.58h-42.8v-2.92h13.3c1.64-7.02 1.96-13.7-.014-17.1-.844-1.45-2.01-2.12-3.67-2.12-7.61 0-10.8 8.05-10.9 8.39l.002-.002-2.73-1.02c.156-.42 3.96-10.3 13.6-10.3 2.69 0 4.83 1.24 6.19 3.57 2.41 4.14 2.13 11.3.494 18.6h23.4c3.1-9.12 9.58-13.4 20.4-13.4v2.92c-11.7 0-15 4.97-17.4 10.5h12.7l-.029 2.9z"/><path d="m206.29 77.98.019-.003c-3.46-5.1-4.55-9.46-3.11-14.4l-2.97.015c-1.04 3.3-.62 8.27 1.93 12.5h-29.7c1.81-3.62 3.48-8.03 4.7-12.5h-3.02c-1.35 4.79-3.24 9.52-5.37 13.3l-.69 1.21 16.7 10.5-9.38 6.18 1.61 2.44 10.5-6.91 11.3 7.38 1.55-2.47-10.5-6.49s15.7-10.2 16.5-10.7q-.005-.01-.012-.019zm-18.9 8.81-12.3-7.75 24.1.006z"/><path d="M238.99 33.135c-.018-5.05-1.584-26.394-4.455-32.27-7.791 2.977-21.978 12.649-25.146 22.509-15.345-2.31-32.67-2.032-47.916.607-2.534-10.658-15.246-18.725-24.849-23.307-4.05 6.883-5.85 22.809-5.386 34.163q-.026.017-.053.036c1.782 47.51 24.948 77.09 55.242 95.018 31.185-17.928 53.46-52.887 52.569-96.711q.02.01.037.021zm-27.878-9.5q.41.068.821.14zm23.067 12.948c.801 39.541-19.206 71.015-47.322 87.15-47.62-23.904-56.628-84.361-48.51-116.532 2.257 12.45 6.355 20.219 15.246 24.004 19.305-5.568 45.936-6.006 65.538-.567 8.167-5.976 11.385-15.14 13.068-23.107 2.158 9.282 1.91 29.382 1.92 29.382z"/><path d="M254.83 173.272c-4.89-5.508-14.454-8.107-22.473-7.918-5.683-6.803-38.61-41.733-38.61-41.733l-2.287 2.889 39.798 43.027 1.723-.148c10.79-.932 16.929 4.96 18.612 6.792 1.188 1.345 1.91 2.57 2.306 3.526H232.02c-50.094-26.294-94.149-44.82-140.58-48.903.103-6.544 1.258-13.944 3.485-22.211l-4.296-1.176c-2.287 8.486-3.485 16.136-3.624 23.008a221 221 0 0 0-14.75-.493c-4.198 0-8.02.392-11.485 1.076-4.544-4.572-8.415-8.924-11.682-13.048 21.681-22.709 57.52-43.326 88.605-50.895l-1.01-4.383c-33.462 8.118-70.092 30.179-90.486 51.593-9.464-12.848-13.266-23.406-14.355-31.374-1.405-10.06.987-19.322 6.93-26.792 9.306-11.654 22.473-12.45 36.135-10.16-.265 2.162.017 4.223.877 5.498 3.593 5.339 22.869 7.221 34.452 2.042-8.514-11.952-25.74-17.828-30.492-15.538-1.584.777-2.772 2.202-3.594 3.875-4.703-.846-9.366-1.474-12.771-1.454-11.98.088-21.186 4.302-28.017 12.848-6.732 8.416-9.455 18.825-7.87 30.179 1.504 10.757 6.79 22.21 15.641 34.063a285 285 0 0 0-4.267 4.701c-21.582 24.303-37.422 50.497-37.422 54.78v2.241h28.512l-.5-2.66c-1.613-8.565 1.604-19.321 8.198-27.29 4.138-5.02 10.989-10.756 21.78-13.445 9.563 9.392 21.78 19.322 35.343 28.983h21.186v-2.24c0-2.53-1.248-4.742-3.505-6.236-3.346-2.201-8.514-2.51-13.266-.877-4.524-5.07-7.068-11.853-7.613-20.22 46.035 4.104 89.991 22.81 139.59 48.904h27.324l.357-1.802c.511-2.57-.879-6.006-3.712-9.193zM34.06 146.579c-6.752 8.197-10.296 19.024-9.504 28.287H6.538c3.614-7.859 18.018-30.578 39.204-53.585 2.93 3.645 6.188 7.32 9.771 11.055-10.395 3.158-17.325 9.024-21.582 14.243z"/></svg>