<?xml version="1.0" encoding="iso-8859-1"?>
<!-- Generator: Adobe Illustrator 19.0.0, SVG Export Plug-In . SVG Version: 6.00 Build 0)  -->
<svg version="1.1" id="Layer_1" xmlns="http://www.w3.org/2000/svg" xmlns:xlink="http://www.w3.org/1999/xlink" x="0px" y="0px"
	 viewBox="0 0 473.935 473.935" style="enable-background:new 0 0 473.935 473.935;" xml:space="preserve">
<circle style="fill:#EFEFEF;" cx="236.967" cy="236.967" r="236.967"/>
<g>
	<circle style="fill:#B6E2EA;" cx="248.941" cy="132.235" r="35.495"/>
	<circle style="fill:#B6E2EA;" cx="190.139" cy="215.931" r="35.495"/>
</g>
<path style="fill:#FBC096;" d="M179.176,207.714l-11.629,28.954c0,0-3.065,10.35-4.857,26.533
	c-2.627,23.787-0.322,36.797,4.393,51.685c12.741,40.254,24.894,57.317,24.894,57.317l48.112-99.606l-9.942-19.162
	c0,0-1.115,12.333-8.056,15.891c-10.092,5.182-14.193,3.42-14.193,3.42s-7.379-3.663-11.173-16.546
	c-0.823-2.773-1.321-7.225-0.438-9.815c1.871-5.508,2.866-10.305,3.944-15.742c5.347-27.019-16.307-32.587-16.307-32.587
	L179.176,207.714z"/>
<path style="fill:#FDD7B3;" d="M177.537,211.164l5.1-13.493c0,0,6.095,0.977,3.573,7.061
	C184.552,208.728,183.157,211.924,177.537,211.164z"/>
<path style="fill:#FBC096;" d="M344.121,319.717c-2.548,13.407-24.441,42.02-34.859,39.394l2.934-11.835
	c-10.417-2.634-4.322-8.239-2.17-16.759l7.521-68.83c2.148-8.516,9.661-12.546,20.075-9.901l0,0
	c10.413,2.634,7.57,19.749,7.734,31.809L344.121,319.717z"/>
<path style="fill:#EDAC80;" d="M324.941,302.018l4.879-18.264l1.998-32.763c-2.746,0.03-3.154-0.389-11.121,3.465L310.37,316.14
	C311.691,314.677,324.334,303.942,324.941,302.018z"/>
<g>
	<path style="fill:#FBC096;" d="M209.398,291.04l-13.803,32.445c-19.319,14.597-11.543,60.475,26.073,73.672
		c38.211,13.407,75.715-15.974,107.161-50.682c0,0,5.77-5.586,7.891-11.184c7.061-18.63,6.597-23.88,6.597-23.88L209.398,291.04z"/>
	<path style="fill:#FBC096;" d="M331.998,318.785c-2.144,8.513-35.008,41.785-45.425,39.15l0,0
		c-10.417-2.634-17.115-11.667-14.96-20.187l16.595-95.165c2.155-8.513,9.56-16.142,23.019-10.904l0,0
		c10.413,2.627,17.818,17.523,17.074,27.656L331.998,318.785z"/>
</g>
<path style="fill:#EDAC80;" d="M291.867,286.411l6.63-20.531l6.84-35.768c-5.673-0.726-10.118-1.051-11.341,3.813l-13.878,63.356
	C281.446,295.815,291.268,288.338,291.867,286.411z"/>
<path style="fill:#FBC096;" d="M297.315,303.781c-0.644,9.074-31.356,35.641-41.77,33.018l0,0
	c-10.41-2.642-17.115-11.678-14.96-20.187l23.584-93.238c2.144-8.524,12.333-13.295,22.754-10.66l0,0
	c10.421,2.642,13.777,8.767,13.452,19.629"/>
<path style="fill:#EDAC80;" d="M277.469,270.973l0.385-16.494l2.208-42.443c-10.223,0.909-13.878,4.041-19.334,5.983l-11.629,58.114
	C250.423,274.677,276.877,272.904,277.469,270.973z"/>
<path style="fill:#FBC096;" d="M246.337,324.724c0.191,10.746,0.962,19.244-9.777,19.427l0,0
	c-10.743,0.195-64.905,42.282-26.967-41.964l15.768-31.517c0,0,5.403-17.463,7.401-29.343c0.816-4.842,4.703-72.011,4.703-72.011
	c-3.132-16.292-2.72-52.142,9.081-52.243l2.14-0.079c7.491-0.543,12.707,3.042,14.582,14.889l8.535,75.637
	c0,0,6.941,47.958,6.724,56.976c-0.281,12.239-5.28,46.147-5.28,46.147L246.337,324.724z"/>
<g>
	<path style="fill:#FDD7B3;" d="M262.049,129.567l-1.257-4.576c-0.135-2.915-5.13-6.668-10.413-6.529
		c-5.287,0.135-6.638,4.501-6.492,7.409l0.711,4.617c0,0-0.21,0.647,6.159,0.453C258.644,130.693,260.395,131.123,262.049,129.567z"
		/>
	<path style="fill:#FDD7B3;" d="M265.671,194.229c0.037,0.681-0.281,1.235-0.718,1.272l-13.766,0.778
		c-0.438,0.03-0.823-0.49-0.857-1.171l0,0c-0.041-0.674,0.281-1.235,0.715-1.265l13.77-0.786
		C265.248,193.028,265.633,193.555,265.671,194.229L265.671,194.229z"/>
	<path style="fill:#FDD7B3;" d="M264.818,201.177c0.037,0.599-0.243,1.096-0.636,1.119l-6.803,0.389
		c-0.385,0.022-0.73-0.449-0.756-1.033l0,0c-0.037-0.599,0.251-1.089,0.632-1.126l6.799-0.389
		C264.451,200.126,264.788,200.586,264.818,201.177L264.818,201.177z"/>
	<path style="fill:#FDD7B3;" d="M174.453,240.5c-0.138,0.561-0.707,0.887-1.276,0.745l-5.126-1.25
		c-0.561-0.146-0.894-0.722-0.752-1.272l0,0c0.15-0.561,0.718-0.883,1.276-0.748l5.134,1.25
		C174.27,239.366,174.611,239.942,174.453,240.5L174.453,240.5z"/>
	<path style="fill:#FDD7B3;" d="M171.011,243.71c-0.138,0.554-0.707,0.894-1.272,0.741l-2.769-0.587
		c-0.554-0.146-0.887-0.715-0.752-1.265l0,0c0.15-0.569,0.722-0.894,1.276-0.756l2.776,0.584
		C170.828,242.584,171.164,243.156,171.011,243.71L171.011,243.71z"/>
</g>
<g>
	<path style="fill:#F5B88E;" d="M283.598,299.227c0.662,2.717-1.886,4.752-6.309,4.692c-2.687-0.037-2.107,2.582,0.606,2.612
		c6.679,0.09,10.993-2.829,9.957-7.053C287.44,297.79,283.182,297.525,283.598,299.227L283.598,299.227z"/>
	<path style="fill:#F5B88E;" d="M313.91,304.956c0.546,4.943-4.127,7.326-11.326,5.89c-2.604-0.52-1.523,2.387,1.051,2.907
		c8.89,1.759,15.042-1.538,14.368-7.592C317.809,304.387,313.711,303.167,313.91,304.956L313.91,304.956z"/>
	<path style="fill:#F5B88E;" d="M334.927,313.431c0.775,3.297-2.428,5.721-7.794,5.613c-2.69-0.052-2.11,2.571,0.606,2.627
		c7.637,0.146,12.565-3.192,11.446-7.981C338.789,312.001,334.531,311.743,334.927,313.431L334.927,313.431z"/>
	<path style="fill:#F5B88E;" d="M258.225,286.318c0.771,3.293-2.432,5.714-7.794,5.609c-2.694-0.052-2.107,2.571,0.606,2.623
		c7.633,0.138,12.561-3.192,11.446-7.981C262.086,284.888,257.824,284.623,258.225,286.318L258.225,286.318z"/>
</g>
<path style="fill:#B6E2EA;" d="M192.87,121.679c-6.339-9.403-16.561-14.428-27.521-14.541c0.76-0.763,1.534-1.538,2.294-2.301
	c6.327-6.327-3.48-16.123-9.8-9.792c-4.913,4.909-9.822,9.815-14.735,14.731c-2.672,2.668-2.672,7.136,0,9.807
	c4.898,4.902,9.8,9.8,14.705,14.701c6.32,6.32,16.131-3.48,9.8-9.8c-1.04-1.04-2.084-2.08-3.121-3.128
	c14.324-0.393,24.819,14.952,17.107,28.127c-8.7,14.866-29.081,9.957-34.237-4.808c-3.012-8.644-15.925-2.683-12.928,5.92
	c8.954,25.661,43.693,29.47,58.697,7.21C200.339,147.105,200.014,132.28,192.87,121.679z"/>
<g>
</g>
<g>
</g>
<g>
</g>
<g>
</g>
<g>
</g>
<g>
</g>
<g>
</g>
<g>
</g>
<g>
</g>
<g>
</g>
<g>
</g>
<g>
</g>
<g>
</g>
<g>
</g>
<g>
</g>
</svg>
