<?xml version="1.0" encoding="iso-8859-1"?>
<!-- Generator: Adobe Illustrator 19.0.0, SVG Export Plug-In . SVG Version: 6.00 Build 0)  -->
<svg version="1.1" id="Layer_1" xmlns="http://www.w3.org/2000/svg" xmlns:xlink="http://www.w3.org/1999/xlink" x="0px" y="0px"
	 viewBox="0 0 488.5 488.5" style="enable-background:new 0 0 488.5 488.5;" xml:space="preserve">
<g>
	<path style="fill:#FFDA44;" d="M176.652,288.85v83.09h-61.3v19.99c0,53.25,43.32,96.57,96.58,96.57h103.32
		c53.26,0,96.58-43.32,96.58-96.57V288.85H176.652z"/>
	<path style="fill:#FFCD00;" d="M411.832,288.85h-51.29c0-14.15,11.5-25.65,25.64-25.65C400.332,263.2,411.832,274.7,411.832,288.85
		z"/>
	<path style="fill:#FFCD00;" d="M350.542,257.07v31.78h-51.3v-31.78c0-14.14,11.5-25.65,25.65-25.65
		C339.032,231.42,350.542,242.93,350.542,257.07z"/>
	<path style="fill:#FFCD00;" d="M289.242,125.65v163.2h-51.3v-163.2c0-14.14,11.51-25.65,25.65-25.65
		C277.732,100,289.242,111.51,289.242,125.65z"/>
	<path style="fill:#FFCD00;" d="M227.942,154.75v134.1h-51.29v-134.1c0-14.15,11.5-25.65,25.64-25.65
		C216.442,129.1,227.942,140.6,227.942,154.75z"/>
	<path style="fill:#FFCD00;" d="M166.652,301.89v70.05h-51.3v-70.05c0-14.14,11.5-25.65,25.65-25.65
		C155.142,276.24,166.652,287.75,166.652,301.89z"/>
	<path style="fill:#00E7F0;" d="M132.894,184.841c-4.142-9.525-6.242-19.649-6.242-30.091c0-41.714,33.933-75.65,75.642-75.65
		c0.565,0,1.131,0.006,1.697,0.019C218.229,60.957,240.289,50,263.592,50c41.712,0,75.648,33.936,75.649,75.649
		c0,10.438-2.099,20.559-6.239,30.081l-27.512-11.96c2.489-5.726,3.751-11.822,3.751-18.12C309.24,100.479,288.763,80,263.592,80
		c-16.018,0-31.071,8.598-39.287,22.439l-5.155,8.686l-9.986-1.51c-2.257-0.342-4.568-0.515-6.87-0.515
		c-25.167,0-45.642,20.479-45.642,45.65c0,6.301,1.263,12.4,3.754,18.128L132.894,184.841z"/>
	<path style="fill:#00E7F0;" d="M132.07,258.91c-34.691-23.459-55.402-62.398-55.402-104.161
		c0-61.286,44.592-113.708,104.502-123.877C204.056,10.929,233.131,0,263.574,0c69.284,0,125.65,56.366,125.65,125.649
		c0,33.611-13.135,65.211-36.985,88.978l-21.176-21.25c18.16-18.097,28.161-42.149,28.161-67.728
		c0-52.741-42.908-95.649-95.65-95.649c-24.383,0-47.617,9.219-65.424,25.96l-3.529,3.318l-4.804,0.627
		c-47.403,6.187-83.149,46.961-83.149,94.844c0,31.789,15.778,61.437,42.207,79.309L132.07,258.91z"/>
</g>
<g>
</g>
<g>
</g>
<g>
</g>
<g>
</g>
<g>
</g>
<g>
</g>
<g>
</g>
<g>
</g>
<g>
</g>
<g>
</g>
<g>
</g>
<g>
</g>
<g>
</g>
<g>
</g>
<g>
</g>
</svg>
