<svg version="1.1" xmlns="http://www.w3.org/2000/svg" viewBox="0 0 578.666688046875 334" width="578.666688046875" height="334">
  <!-- svg-source:excalidraw -->
  
  <defs>
    <style class="style-fonts">
      @font-face {
        font-family: "Virgil";
        src: url("https://excalidraw.com/Virgil.woff2");
      }
      @font-face {
        font-family: "Cascadia";
        src: url("https://excalidraw.com/Cascadia.woff2");
      }
      @font-face {
        font-family: "Assistant";
        src: url("https://excalidraw.com/Assistant-Regular.woff2");
      }
    </style>
    
  </defs>
  <g stroke-linecap="round" transform="translate(10 10) rotate(0 174.33334350585938 65)"><path d="M0 0 C0 0, 0 0, 0 0 M0 0 C0 0, 0 0, 0 0 M-0.26 6.4 C1.64 4.21, 3.55 2.02, 4.99 0.36 M-0.26 6.4 C1.33 4.56, 2.93 2.73, 4.99 0.36 M0.13 12.04 C3.05 8.69, 5.96 5.34, 10.63 -0.03 M0.13 12.04 C2.56 9.25, 4.98 6.47, 10.63 -0.03 M-0.13 18.44 C4.12 13.56, 8.36 8.67, 15.62 0.33 M-0.13 18.44 C4.77 12.8, 9.68 7.16, 15.62 0.33 M0.27 24.08 C7.2 16.1, 14.14 8.13, 21.26 -0.07 M0.27 24.08 C5.44 18.13, 10.61 12.18, 21.26 -0.07 M0 30.48 C10.2 18.75, 20.4 7.02, 26.25 0.29 M0 30.48 C5.74 23.88, 11.47 17.29, 26.25 0.29 M-0.26 36.88 C10.86 24.09, 21.97 11.31, 31.89 -0.1 M-0.26 36.88 C9.67 25.45, 19.6 14.03, 31.89 -0.1 M0.14 42.52 C7.82 33.68, 15.51 24.84, 36.88 0.26 M0.14 42.52 C7.95 33.53, 15.76 24.55, 36.88 0.26 M-0.12 48.92 C13.85 32.84, 27.83 16.76, 42.52 -0.14 M-0.12 48.92 C10.7 36.47, 21.52 24.02, 42.52 -0.14 M0.27 54.56 C15.64 36.88, 31.01 19.2, 47.51 0.22 M0.27 54.56 C14.53 38.16, 28.78 21.76, 47.51 0.22 M0.01 60.96 C17.84 40.45, 35.66 19.94, 53.15 -0.17 M0.01 60.96 C20.55 37.33, 41.1 13.7, 53.15 -0.17 M-0.25 67.36 C19.35 44.8, 38.96 22.25, 58.14 0.19 M-0.25 67.36 C12.26 52.96, 24.77 38.57, 58.14 0.19 M0.14 73 C24.47 45.01, 48.8 17.03, 63.78 -0.21 M0.14 73 C24.52 44.95, 48.9 16.91, 63.78 -0.21 M-0.12 79.4 C23.57 52.15, 47.26 24.9, 68.77 0.15 M-0.12 79.4 C20.45 55.73, 41.03 32.06, 68.77 0.15 M0.28 85.04 C25.22 56.35, 50.16 27.65, 74.41 -0.24 M0.28 85.04 C29.16 51.81, 58.05 18.58, 74.41 -0.24 M0.01 91.44 C20.47 67.91, 40.93 44.38, 79.4 0.12 M0.01 91.44 C17.77 71.01, 35.53 50.58, 79.4 0.12 M-0.25 97.84 C18.6 76.16, 37.44 54.48, 85.04 -0.28 M-0.25 97.84 C27.28 66.17, 54.8 34.51, 85.04 -0.28 M0.15 103.48 C26.21 73.49, 52.28 43.51, 90.03 0.08 M0.15 103.48 C25.2 74.66, 50.24 45.85, 90.03 0.08 M-0.11 109.88 C29.9 75.35, 59.91 40.83, 95.67 -0.31 M-0.11 109.88 C35.25 69.2, 70.61 28.52, 95.67 -0.31 M0.28 115.52 C26.21 85.69, 52.14 55.86, 100.66 0.05 M0.28 115.52 C27.69 83.99, 55.1 52.46, 100.66 0.05 M0.02 121.92 C26.16 91.85, 52.29 61.79, 106.3 -0.34 M0.02 121.92 C30.43 86.94, 60.84 51.95, 106.3 -0.34 M-0.24 128.32 C31.52 91.78, 63.27 55.25, 111.29 0.02 M-0.24 128.32 C26.15 97.95, 52.54 67.59, 111.29 0.02 M3.43 130.19 C37.93 90.5, 72.42 50.82, 116.27 0.38 M3.43 130.19 C37.41 91.1, 71.38 52.02, 116.27 0.38 M8.42 130.55 C42.03 91.88, 75.64 53.22, 121.92 -0.02 M8.42 130.55 C44.69 88.82, 80.96 47.1, 121.92 -0.02 M14.06 130.15 C51.79 86.75, 89.52 43.35, 126.91 0.34 M14.06 130.15 C37.96 102.66, 61.85 75.17, 126.91 0.34 M19.05 130.51 C55.82 88.22, 92.58 45.92, 132.55 -0.05 M19.05 130.51 C52.22 92.35, 85.39 54.19, 132.55 -0.05 M24.69 130.12 C50.44 100.49, 76.2 70.87, 137.54 0.31 M24.69 130.12 C57 92.95, 89.31 55.78, 137.54 0.31 M29.68 130.48 C52.88 103.78, 76.09 77.09, 143.18 -0.09 M29.68 130.48 C57.54 98.43, 85.4 66.38, 143.18 -0.09 M34.67 130.84 C61.72 99.71, 88.77 68.59, 148.17 0.27 M34.67 130.84 C75.88 83.42, 117.1 36.01, 148.17 0.27 M40.31 130.44 C71.92 94.08, 103.53 57.72, 153.81 -0.12 M40.31 130.44 C73.25 92.55, 106.2 54.65, 153.81 -0.12 M45.3 130.8 C76 95.48, 106.71 60.16, 158.8 0.24 M45.3 130.8 C85.12 84.99, 124.95 39.17, 158.8 0.24 M50.94 130.41 C84.05 92.32, 117.15 54.24, 164.44 -0.16 M50.94 130.41 C80.22 96.72, 109.5 63.04, 164.44 -0.16 M55.93 130.77 C99.64 80.48, 143.35 30.2, 169.43 0.2 M55.93 130.77 C93.23 87.85, 130.54 44.93, 169.43 0.2 M61.57 130.37 C94.97 91.95, 128.38 53.52, 175.07 -0.19 M61.57 130.37 C84.31 104.22, 107.05 78.06, 175.07 -0.19 M66.56 130.73 C100.3 91.92, 134.05 53.1, 180.06 0.17 M66.56 130.73 C94.46 98.64, 122.36 66.54, 180.06 0.17 M72.2 130.34 C110.94 85.78, 149.67 41.22, 185.7 -0.23 M72.2 130.34 C105.04 92.56, 137.88 54.78, 185.7 -0.23 M77.19 130.7 C108.61 94.55, 140.03 58.41, 190.69 0.13 M77.19 130.7 C102.38 101.72, 127.57 72.74, 190.69 0.13 M82.83 130.3 C127.35 79.09, 171.88 27.87, 196.33 -0.26 M82.83 130.3 C118.84 88.88, 154.85 47.46, 196.33 -0.26 M87.82 130.66 C115.99 98.26, 144.15 65.86, 201.32 0.1 M87.82 130.66 C115.86 98.41, 143.89 66.16, 201.32 0.1 M93.46 130.27 C117.48 102.64, 141.5 75.01, 206.96 -0.3 M93.46 130.27 C138.49 78.47, 183.52 26.66, 206.96 -0.3 M98.45 130.63 C131.43 92.69, 164.4 54.76, 211.95 0.06 M98.45 130.63 C130.38 93.89, 162.31 57.16, 211.95 0.06 M104.09 130.23 C134.54 95.2, 165 60.17, 217.59 -0.33 M104.09 130.23 C133.69 96.19, 163.28 62.14, 217.59 -0.33 M109.08 130.6 C147.42 86.49, 185.76 42.38, 222.58 0.03 M109.08 130.6 C149.43 84.18, 189.78 37.76, 222.58 0.03 M114.72 130.2 C141.51 99.38, 168.31 68.56, 228.22 -0.36 M114.72 130.2 C155.86 82.87, 197 35.55, 228.22 -0.36 M119.71 130.56 C151.32 94.2, 182.92 57.84, 233.21 0 M119.71 130.56 C150.4 95.26, 181.09 59.95, 233.21 0 M125.35 130.17 C158.45 92.09, 191.54 54.02, 238.19 0.36 M125.35 130.17 C167.73 81.42, 210.1 32.67, 238.19 0.36 M130.34 130.53 C159.37 97.12, 188.41 63.72, 243.84 -0.04 M130.34 130.53 C164.07 91.72, 197.81 52.91, 243.84 -0.04 M135.98 130.13 C161.15 101.18, 186.32 72.22, 248.82 0.32 M135.98 130.13 C169.13 92, 202.27 53.87, 248.82 0.32 M140.97 130.49 C182.71 82.47, 224.45 34.46, 254.47 -0.07 M140.97 130.49 C172.47 94.25, 203.97 58.01, 254.47 -0.07 M146.61 130.1 C181.94 89.45, 217.28 48.8, 259.45 0.29 M146.61 130.1 C184 87.09, 221.38 44.08, 259.45 0.29 M151.6 130.46 C193.24 82.55, 234.88 34.65, 265.1 -0.11 M151.6 130.46 C188.28 88.26, 224.96 46.06, 265.1 -0.11 M156.58 130.82 C185.64 97.4, 214.69 63.98, 270.08 0.25 M156.58 130.82 C181.86 101.74, 207.14 72.66, 270.08 0.25 M162.23 130.42 C203.15 83.35, 244.07 36.27, 275.73 -0.14 M162.23 130.42 C198.13 89.13, 234.03 47.83, 275.73 -0.14 M167.22 130.78 C195.44 98.31, 223.67 65.84, 280.71 0.22 M167.22 130.78 C203.85 88.63, 240.49 46.49, 280.71 0.22 M172.86 130.39 C208.12 89.82, 243.38 49.26, 286.36 -0.18 M172.86 130.39 C196.62 103.06, 220.38 75.72, 286.36 -0.18 M177.85 130.75 C211.12 92.47, 244.4 54.19, 291.34 0.18 M177.85 130.75 C212.65 90.7, 247.46 50.66, 291.34 0.18 M183.49 130.35 C221.39 86.75, 259.3 43.15, 296.99 -0.21 M183.49 130.35 C220.39 87.91, 257.29 45.46, 296.99 -0.21 M188.48 130.71 C222.06 92.07, 255.65 53.43, 301.97 0.15 M188.48 130.71 C219.1 95.49, 249.72 60.26, 301.97 0.15 M194.12 130.32 C217.02 103.97, 239.92 77.63, 307.62 -0.25 M194.12 130.32 C223.25 96.81, 252.38 63.3, 307.62 -0.25 M199.11 130.68 C240.89 82.61, 282.68 34.54, 312.6 0.11 M199.11 130.68 C224.97 100.93, 250.83 71.18, 312.6 0.11 M204.75 130.28 C232.01 98.93, 259.27 67.57, 318.25 -0.28 M204.75 130.28 C246.45 82.31, 288.16 34.33, 318.25 -0.28 M209.74 130.64 C246.71 88.12, 283.68 45.59, 323.23 0.08 M209.74 130.64 C234.36 102.32, 258.99 73.99, 323.23 0.08 M215.38 130.25 C241.47 100.24, 267.56 70.22, 328.88 -0.31 M215.38 130.25 C248.42 92.24, 281.47 54.22, 328.88 -0.31 M220.37 130.61 C264.54 79.79, 308.72 28.97, 333.86 0.05 M220.37 130.61 C265.02 79.24, 309.68 27.86, 333.86 0.05 M226.01 130.22 C260.78 90.22, 295.54 50.22, 339.51 -0.35 M226.01 130.22 C252.32 99.95, 278.63 69.68, 339.51 -0.35 M231 130.58 C263.23 93.5, 295.45 56.42, 344.49 0.01 M231 130.58 C268.91 86.96, 306.83 43.34, 344.49 0.01 M236.64 130.18 C265.94 96.48, 295.23 62.78, 349.48 0.37 M236.64 130.18 C266.4 95.94, 296.17 61.7, 349.48 0.37 M241.63 130.54 C278.19 88.48, 314.76 46.41, 349.22 6.77 M241.63 130.54 C277.75 88.99, 313.87 47.43, 349.22 6.77 M247.27 130.15 C271.28 102.53, 295.28 74.91, 349.61 12.41 M247.27 130.15 C270.98 102.87, 294.69 75.6, 349.61 12.41 M252.26 130.51 C290.27 86.77, 328.29 43.04, 349.35 18.81 M252.26 130.51 C282.92 95.23, 313.58 59.96, 349.35 18.81 M257.9 130.11 C278.93 105.92, 299.97 81.72, 349.09 25.21 M257.9 130.11 C280.74 103.84, 303.58 77.56, 349.09 25.21 M262.89 130.47 C286.99 102.74, 311.1 75.01, 349.49 30.85 M262.89 130.47 C289.89 99.4, 316.9 68.33, 349.49 30.85 M267.87 130.83 C284.31 111.92, 300.75 93.01, 349.22 37.25 M267.87 130.83 C284.59 111.6, 301.31 92.37, 349.22 37.25 M273.52 130.44 C299.72 100.29, 325.93 70.14, 349.62 42.89 M273.52 130.44 C302.58 97, 331.64 63.57, 349.62 42.89 M278.5 130.8 C303.84 101.65, 329.18 72.5, 349.36 49.29 M278.5 130.8 C296.38 110.23, 314.25 89.67, 349.36 49.29 M284.15 130.4 C306.11 105.13, 328.08 79.86, 349.1 55.69 M284.15 130.4 C303.9 107.68, 323.65 84.96, 349.1 55.69 M289.13 130.76 C304.88 112.65, 320.63 94.53, 349.49 61.33 M289.13 130.76 C308.25 108.77, 327.37 86.78, 349.49 61.33 M294.78 130.37 C311.84 110.74, 328.9 91.11, 349.23 67.73 M294.78 130.37 C309.86 113.01, 324.95 95.65, 349.23 67.73 M299.76 130.73 C316.23 111.79, 332.69 92.85, 349.62 73.37 M299.76 130.73 C319.47 108.06, 339.17 85.4, 349.62 73.37 M305.41 130.33 C319.81 113.76, 334.22 97.19, 349.36 79.77 M305.41 130.33 C315.06 119.22, 324.72 108.12, 349.36 79.77 M310.39 130.69 C323.49 115.63, 336.58 100.56, 349.1 86.17 M310.39 130.69 C320.22 119.39, 330.05 108.08, 349.1 86.17 M316.04 130.3 C327.56 117.05, 339.08 103.79, 349.5 91.81 M316.04 130.3 C325.11 119.86, 334.18 109.43, 349.5 91.81 M321.02 130.66 C329.85 120.5, 338.68 110.35, 349.23 98.21 M321.02 130.66 C330.33 119.95, 339.64 109.24, 349.23 98.21 M326.67 130.27 C334.25 121.54, 341.84 112.81, 349.63 103.85 M326.67 130.27 C333.34 122.58, 340.02 114.9, 349.63 103.85 M331.65 130.63 C335.84 125.81, 340.03 120.99, 349.37 110.25 M331.65 130.63 C335.74 125.93, 339.82 121.23, 349.37 110.25 M337.3 130.23 C341.53 125.36, 345.76 120.5, 349.11 116.65 M337.3 130.23 C341.53 125.36, 345.77 120.49, 349.11 116.65 M342.28 130.59 C344.78 127.72, 347.27 124.85, 349.5 122.29 M342.28 130.59 C343.96 128.66, 345.65 126.72, 349.5 122.29 M347.93 130.2 C348.33 129.74, 348.73 129.28, 349.24 128.69 M347.93 130.2 C348.29 129.78, 348.65 129.37, 349.24 128.69" stroke="#ffec99" stroke-width="0.5" fill="none"></path><path d="M0 0 C129.98 0, 259.95 0, 348.67 0 M0 0 C93.4 0, 186.81 0, 348.67 0 M348.67 0 C348.67 45.74, 348.67 91.49, 348.67 130 M348.67 0 C348.67 43.97, 348.67 87.94, 348.67 130 M348.67 130 C238.43 130, 128.2 130, 0 130 M348.67 130 C226.28 130, 103.9 130, 0 130 M0 130 C0 80.14, 0 30.29, 0 0 M0 130 C0 87.3, 0 44.61, 0 0" stroke="#1971c2" stroke-width="1" fill="none"></path></g><g transform="translate(148.33334350585938 54.3) rotate(0 36 20.7)"><text x="36" y="0" font-family="Helvetica, Segoe UI Emoji" font-size="36px" fill="#1e1e1e" text-anchor="middle" style="white-space: pre;" direction="ltr" dominant-baseline="text-before-edge">电脑</text></g><g stroke-linecap="round" transform="translate(10.00000097656249 166.99999992675782) rotate(0 174.33334350585938 78.50000003662109)"><path d="M0 0 C0 0, 0 0, 0 0 M0 0 C0 0, 0 0, 0 0 M-0.26 6.4 C1.75 4.09, 3.76 1.78, 4.99 0.36 M-0.26 6.4 C0.97 4.98, 2.2 3.57, 4.99 0.36 M0.13 12.04 C2.95 8.8, 5.77 5.56, 10.63 -0.03 M0.13 12.04 C3.45 8.22, 6.77 4.4, 10.63 -0.03 M-0.13 18.44 C4.58 13.02, 9.29 7.61, 15.62 0.33 M-0.13 18.44 C3.55 14.21, 7.23 9.98, 15.62 0.33 M0.27 24.08 C5.84 17.67, 11.42 11.25, 21.26 -0.07 M0.27 24.08 C8 15.19, 15.73 6.29, 21.26 -0.07 M0 30.48 C8.61 20.59, 17.21 10.69, 26.25 0.29 M0 30.48 C7.02 22.41, 14.03 14.34, 26.25 0.29 M-0.26 36.88 C6.9 28.65, 14.05 20.42, 31.89 -0.1 M-0.26 36.88 C8.82 26.44, 17.89 16, 31.89 -0.1 M0.14 42.52 C13.87 26.72, 27.61 10.92, 36.88 0.26 M0.14 42.52 C11.57 29.37, 22.99 16.23, 36.88 0.26 M-0.12 48.92 C12.77 34.08, 25.67 19.25, 42.52 -0.14 M-0.12 48.92 C10.01 37.26, 20.14 25.61, 42.52 -0.14 M0.27 54.56 C16.06 36.39, 31.86 18.23, 47.51 0.22 M0.27 54.56 C13.17 39.73, 26.06 24.89, 47.51 0.22 M0.01 60.96 C11.22 48.06, 22.43 35.17, 53.15 -0.17 M0.01 60.96 C21.06 36.74, 42.11 12.53, 53.15 -0.17 M-0.25 67.36 C23 40.61, 46.25 13.87, 58.14 0.19 M-0.25 67.36 C16.92 47.6, 34.09 27.85, 58.14 0.19 M0.14 73 C18.97 51.35, 37.79 29.69, 63.78 -0.21 M0.14 73 C13.05 58.15, 25.96 43.3, 63.78 -0.21 M-0.12 79.4 C23.77 51.92, 47.66 24.44, 68.77 0.15 M-0.12 79.4 C16.96 59.75, 34.05 40.09, 68.77 0.15 M0.28 85.04 C18.58 63.99, 36.87 42.94, 74.41 -0.24 M0.28 85.04 C21.43 60.71, 42.58 36.38, 74.41 -0.24 M0.01 91.44 C20.15 68.28, 40.28 45.11, 79.4 0.12 M0.01 91.44 C19.17 69.4, 38.33 47.36, 79.4 0.12 M-0.25 97.84 C33.55 58.96, 67.34 20.09, 85.04 -0.28 M-0.25 97.84 C29.95 63.1, 60.15 28.36, 85.04 -0.28 M0.15 103.48 C34.7 63.73, 69.26 23.98, 90.03 0.08 M0.15 103.48 C28.33 71.06, 56.5 38.65, 90.03 0.08 M-0.11 109.88 C20.79 85.83, 41.69 61.78, 95.67 -0.31 M-0.11 109.88 C28.85 76.56, 57.81 43.24, 95.67 -0.31 M0.28 115.52 C30.1 81.21, 59.92 46.91, 100.66 0.05 M0.28 115.52 C34.07 76.65, 67.87 37.77, 100.66 0.05 M0.02 121.92 C24.4 93.88, 48.77 65.83, 106.3 -0.34 M0.02 121.92 C32.58 84.47, 65.13 47.01, 106.3 -0.34 M-0.24 128.32 C37.86 84.48, 75.97 40.65, 111.29 0.02 M-0.24 128.32 C34.98 87.79, 70.21 47.27, 111.29 0.02 M0.15 133.96 C33.62 95.45, 67.1 56.95, 116.27 0.38 M0.15 133.96 C37.88 90.56, 75.6 47.17, 116.27 0.38 M-0.11 140.36 C43.87 89.77, 87.85 39.18, 121.92 -0.02 M-0.11 140.36 C35.14 99.81, 70.38 59.26, 121.92 -0.02 M0.29 146 C37.73 102.92, 75.18 59.84, 126.91 0.34 M0.29 146 C50.89 87.78, 101.5 29.57, 126.91 0.34 M0.02 152.4 C51.41 93.28, 102.8 34.17, 132.55 -0.05 M0.02 152.4 C30.01 117.9, 60 83.4, 132.55 -0.05 M1.07 157.29 C41.32 110.99, 81.57 64.69, 137.54 0.31 M1.07 157.29 C49.56 101.51, 98.05 45.73, 137.54 0.31 M6.06 157.65 C54.1 102.38, 102.14 47.12, 143.18 -0.09 M6.06 157.65 C51.54 105.33, 97.01 53.02, 143.18 -0.09 M11.05 158.01 C61.92 99.49, 112.79 40.96, 148.17 0.27 M11.05 158.01 C52.06 110.82, 93.08 63.64, 148.17 0.27 M16.69 157.61 C67.02 99.71, 117.35 41.81, 153.81 -0.12 M16.69 157.61 C63.47 103.8, 110.25 49.99, 153.81 -0.12 M21.68 157.97 C69.86 102.54, 118.04 47.12, 158.8 0.24 M21.68 157.97 C65.73 107.3, 109.78 56.62, 158.8 0.24 M27.32 157.58 C61.44 118.32, 95.57 79.07, 164.44 -0.16 M27.32 157.58 C58.02 122.26, 88.72 86.95, 164.44 -0.16 M32.31 157.94 C74.23 109.72, 116.14 61.5, 169.43 0.2 M32.31 157.94 C86.43 95.67, 140.56 33.41, 169.43 0.2 M37.95 157.54 C92.65 94.62, 147.35 31.69, 175.07 -0.19 M37.95 157.54 C76.58 113.11, 115.2 68.68, 175.07 -0.19 M42.94 157.9 C76.63 119.14, 110.32 80.39, 180.06 0.17 M42.94 157.9 C80.68 114.48, 118.43 71.06, 180.06 0.17 M48.58 157.51 C91.46 108.19, 134.33 58.86, 185.7 -0.23 M48.58 157.51 C82.77 118.18, 116.95 78.86, 185.7 -0.23 M53.57 157.87 C84.48 122.31, 115.39 86.76, 190.69 0.13 M53.57 157.87 C81.2 126.08, 108.83 94.29, 190.69 0.13 M59.21 157.47 C97.29 113.67, 135.37 69.87, 196.33 -0.26 M59.21 157.47 C113.27 95.29, 167.32 33.11, 196.33 -0.26 M64.2 157.83 C97.24 119.82, 130.28 81.81, 201.32 0.1 M64.2 157.83 C118.34 95.55, 172.49 33.26, 201.32 0.1 M69.84 157.44 C107.37 114.26, 144.9 71.09, 206.96 -0.3 M69.84 157.44 C99.56 123.25, 129.28 89.06, 206.96 -0.3 M74.83 157.8 C120.18 105.63, 165.53 53.46, 211.95 0.06 M74.83 157.8 C124.13 101.09, 173.43 44.37, 211.95 0.06 M80.47 157.4 C117.86 114.39, 155.25 71.38, 217.59 -0.33 M80.47 157.4 C128.47 102.19, 176.46 46.98, 217.59 -0.33 M85.46 157.76 C123.2 114.34, 160.95 70.92, 222.58 0.03 M85.46 157.76 C137.92 97.42, 190.38 37.07, 222.58 0.03 M91.1 157.37 C137.55 103.94, 184 50.5, 228.22 -0.36 M91.1 157.37 C126.75 116.36, 162.4 75.36, 228.22 -0.36 M96.09 157.73 C136.85 110.84, 177.61 63.95, 233.21 0 M96.09 157.73 C128.15 120.85, 160.22 83.96, 233.21 0 M101.73 157.34 C146.52 105.81, 191.32 54.28, 238.19 0.36 M101.73 157.34 C148.86 103.12, 195.99 48.9, 238.19 0.36 M106.72 157.7 C156.31 100.65, 205.91 43.6, 243.84 -0.04 M106.72 157.7 C143.19 115.74, 179.66 73.79, 243.84 -0.04 M112.36 157.3 C165.54 96.13, 218.71 34.96, 248.82 0.32 M112.36 157.3 C144.81 119.97, 177.26 82.65, 248.82 0.32 M117.35 157.66 C155.14 114.19, 192.93 70.72, 254.47 -0.07 M117.35 157.66 C160.46 108.06, 203.58 58.47, 254.47 -0.07 M122.34 158.02 C158.49 116.43, 194.65 74.83, 259.45 0.29 M122.34 158.02 C163.69 110.45, 205.04 62.88, 259.45 0.29 M127.98 157.63 C181.22 96.38, 234.46 35.13, 265.1 -0.11 M127.98 157.63 C182.49 94.92, 237 32.22, 265.1 -0.11 M132.97 157.99 C185.52 97.54, 238.07 37.08, 270.08 0.25 M132.97 157.99 C178.76 105.31, 224.55 52.63, 270.08 0.25 M138.61 157.59 C178.55 111.65, 218.49 65.7, 275.73 -0.14 M138.61 157.59 C168.28 123.46, 197.95 89.33, 275.73 -0.14 M143.6 157.95 C194.79 99.06, 245.99 40.16, 280.71 0.22 M143.6 157.95 C179.92 116.17, 216.25 74.38, 280.71 0.22 M149.24 157.56 C192.87 107.37, 236.5 57.17, 286.36 -0.18 M149.24 157.56 C184.18 117.36, 219.13 77.16, 286.36 -0.18 M154.23 157.92 C202.41 102.49, 250.58 47.07, 291.34 0.18 M154.23 157.92 C189.5 117.34, 224.78 76.75, 291.34 0.18 M159.87 157.52 C193.45 118.89, 227.04 80.26, 296.99 -0.21 M159.87 157.52 C198.22 113.4, 236.57 69.29, 296.99 -0.21 M164.86 157.88 C195.93 122.13, 227.01 86.38, 301.97 0.15 M164.86 157.88 C193.2 125.28, 221.54 92.68, 301.97 0.15 M170.5 157.49 C223.9 96.05, 277.31 34.62, 307.62 -0.25 M170.5 157.49 C203.47 119.56, 236.44 81.63, 307.62 -0.25 M175.49 157.85 C203.03 126.17, 230.57 94.49, 312.6 0.11 M175.49 157.85 C208.61 119.75, 241.73 81.65, 312.6 0.11 M181.13 157.45 C223.92 108.22, 266.72 59, 318.25 -0.28 M181.13 157.45 C231.79 99.18, 282.45 40.9, 318.25 -0.28 M186.12 157.81 C222.84 115.57, 259.56 73.33, 323.23 0.08 M186.12 157.81 C216.72 122.61, 247.31 87.41, 323.23 0.08 M191.76 157.42 C234.98 107.7, 278.2 57.98, 328.88 -0.31 M191.76 157.42 C230.41 112.96, 269.06 68.5, 328.88 -0.31 M196.75 157.78 C239.74 108.32, 282.73 58.87, 333.86 0.05 M196.75 157.78 C230.42 119.05, 264.09 80.31, 333.86 0.05 M202.39 157.39 C249.48 103.22, 296.57 49.05, 339.51 -0.35 M202.39 157.39 C240.19 113.9, 277.99 70.42, 339.51 -0.35 M207.38 157.75 C237.03 123.64, 266.67 89.53, 344.49 0.01 M207.38 157.75 C253.4 104.8, 299.42 51.86, 344.49 0.01 M213.02 157.35 C251.71 112.85, 290.39 68.34, 349.48 0.37 M213.02 157.35 C244.63 120.99, 276.24 84.63, 349.48 0.37 M218.01 157.71 C263.44 105.45, 308.87 53.18, 349.22 6.77 M218.01 157.71 C264.34 104.41, 310.67 51.12, 349.22 6.77 M223.65 157.32 C256.96 119, 290.27 80.68, 349.61 12.41 M223.65 157.32 C263.12 111.91, 302.6 66.5, 349.61 12.41 M228.64 157.68 C260.77 120.71, 292.91 83.74, 349.35 18.81 M228.64 157.68 C263.7 117.35, 298.75 77.02, 349.35 18.81 M234.28 157.28 C275.32 110.08, 316.35 62.87, 349.09 25.21 M234.28 157.28 C264.97 121.98, 295.66 86.67, 349.09 25.21 M239.27 157.64 C264.71 128.37, 290.16 99.1, 349.49 30.85 M239.27 157.64 C280.37 110.36, 321.48 63.07, 349.49 30.85 M244.25 158 C273.2 124.7, 302.15 91.4, 349.22 37.25 M244.25 158 C278.12 119.04, 311.99 80.08, 349.22 37.25 M249.9 157.61 C278.53 124.67, 307.16 91.73, 349.62 42.89 M249.9 157.61 C285.68 116.45, 321.45 75.29, 349.62 42.89 M254.88 157.97 C280.87 128.08, 306.85 98.18, 349.36 49.29 M254.88 157.97 C282.41 126.3, 309.94 94.63, 349.36 49.29 M260.53 157.57 C293.67 119.45, 326.8 81.33, 349.1 55.69 M260.53 157.57 C281.69 133.23, 302.84 108.9, 349.1 55.69 M265.51 157.93 C286.76 133.49, 308 109.06, 349.49 61.33 M265.51 157.93 C288.06 132, 310.6 106.06, 349.49 61.33 M271.16 157.54 C288.59 137.49, 306.02 117.43, 349.23 67.73 M271.16 157.54 C297.47 127.27, 323.78 97.01, 349.23 67.73 M276.15 157.9 C294.48 136.81, 312.81 115.72, 349.62 73.37 M276.15 157.9 C300.5 129.88, 324.86 101.86, 349.62 73.37 M281.79 157.5 C299.22 137.45, 316.66 117.39, 349.36 79.77 M281.79 157.5 C295.96 141.2, 310.13 124.9, 349.36 79.77 M286.78 157.86 C308.38 133.01, 329.99 108.15, 349.1 86.17 M286.78 157.86 C301.79 140.59, 316.81 123.32, 349.1 86.17 M292.42 157.47 C309.2 138.16, 325.98 118.86, 349.5 91.81 M292.42 157.47 C312.19 134.73, 331.96 111.98, 349.5 91.81 M297.41 157.83 C316.52 135.84, 335.63 113.85, 349.23 98.21 M297.41 157.83 C315.03 137.55, 332.66 117.28, 349.23 98.21 M303.05 157.43 C314.19 144.62, 325.34 131.8, 349.63 103.85 M303.05 157.43 C315.59 143.01, 328.13 128.58, 349.63 103.85 M308.04 157.79 C323.84 139.61, 339.65 121.43, 349.37 110.25 M308.04 157.79 C318.58 145.67, 329.12 133.54, 349.37 110.25 M313.68 157.4 C327.63 141.36, 341.57 125.31, 349.11 116.65 M313.68 157.4 C321.94 147.9, 330.2 138.39, 349.11 116.65 M318.67 157.76 C330.88 143.71, 343.09 129.66, 349.5 122.29 M318.67 157.76 C330.84 143.76, 343.01 129.76, 349.5 122.29 M324.31 157.37 C333.03 147.34, 341.74 137.31, 349.24 128.69 M324.31 157.37 C332.44 148.01, 340.57 138.66, 349.24 128.69 M329.3 157.73 C334.6 151.62, 339.9 145.52, 349.63 134.33 M329.3 157.73 C334.4 151.86, 339.5 145.99, 349.63 134.33 M334.94 157.33 C339.15 152.49, 343.36 147.65, 349.37 140.73 M334.94 157.33 C340.26 151.21, 345.58 145.08, 349.37 140.73 M339.93 157.69 C343.32 153.79, 346.71 149.88, 349.11 147.13 M339.93 157.69 C342.66 154.54, 345.4 151.4, 349.11 147.13 M345.57 157.3 C346.73 155.96, 347.9 154.61, 349.51 152.77 M345.57 157.3 C346.41 156.33, 347.26 155.35, 349.51 152.77" stroke="#ffec99" stroke-width="0.5" fill="none"></path><path d="M0 0 C81.63 0, 163.25 0, 348.67 0 M0 0 C133.34 0, 266.67 0, 348.67 0 M348.67 0 C348.67 36.09, 348.67 72.19, 348.67 157 M348.67 0 C348.67 47.63, 348.67 95.26, 348.67 157 M348.67 157 C275.26 157, 201.86 157, 0 157 M348.67 157 C210.75 157, 72.84 157, 0 157 M0 157 C0 99.46, 0 41.92, 0 0 M0 157 C0 105.56, 0 54.11, 0 0" stroke="#1971c2" stroke-width="1" fill="none"></path></g><g stroke-linecap="round" transform="translate(396.66662701171873 10) rotate(0 86.00003051757815 156.9999999633789)"><path d="M0 0 C0 0, 0 0, 0 0 M0 0 C0 0, 0 0, 0 0 M-0.26 6.4 C1.01 4.94, 2.27 3.48, 4.99 0.36 M-0.26 6.4 C0.92 5.04, 2.1 3.69, 4.99 0.36 M0.13 12.04 C2.47 9.35, 4.81 6.66, 10.63 -0.03 M0.13 12.04 C4.31 7.24, 8.48 2.44, 10.63 -0.03 M-0.13 18.44 C4.94 12.61, 10.01 6.77, 15.62 0.33 M-0.13 18.44 C5.15 12.36, 10.43 6.29, 15.62 0.33 M0.27 24.08 C6.79 16.58, 13.31 9.07, 21.26 -0.07 M0.27 24.08 C8.32 14.82, 16.37 5.56, 21.26 -0.07 M0 30.48 C9.84 19.17, 19.67 7.85, 26.25 0.29 M0 30.48 C5.65 23.99, 11.29 17.5, 26.25 0.29 M-0.26 36.88 C11.15 23.76, 22.56 10.63, 31.89 -0.1 M-0.26 36.88 C10.67 24.31, 21.59 11.74, 31.89 -0.1 M0.14 42.52 C10.71 30.36, 21.28 18.2, 36.88 0.26 M0.14 42.52 C11.69 29.23, 23.24 15.95, 36.88 0.26 M-0.12 48.92 C10.39 36.82, 20.91 24.72, 42.52 -0.14 M-0.12 48.92 C10.57 36.61, 21.27 24.31, 42.52 -0.14 M0.27 54.56 C13.57 39.26, 26.88 23.96, 47.51 0.22 M0.27 54.56 C10.97 42.25, 21.67 29.95, 47.51 0.22 M0.01 60.96 C13.86 45.03, 27.71 29.1, 53.15 -0.17 M0.01 60.96 C20.9 36.92, 41.79 12.89, 53.15 -0.17 M-0.25 67.36 C12 53.27, 24.25 39.18, 58.14 0.19 M-0.25 67.36 C22.32 41.39, 44.89 15.43, 58.14 0.19 M0.14 73 C22.68 47.07, 45.22 21.14, 63.78 -0.21 M0.14 73 C15.14 55.75, 30.14 38.49, 63.78 -0.21 M-0.12 79.4 C17.69 58.91, 35.5 38.43, 68.77 0.15 M-0.12 79.4 C25.51 49.91, 51.14 20.43, 68.77 0.15 M0.28 85.04 C20.11 62.23, 39.94 39.41, 74.41 -0.24 M0.28 85.04 C25.44 56.1, 50.59 27.16, 74.41 -0.24 M0.01 91.44 C19.61 68.9, 39.21 46.35, 79.4 0.12 M0.01 91.44 C16.1 72.94, 32.18 54.44, 79.4 0.12 M-0.25 97.84 C18.82 75.9, 37.88 53.97, 85.04 -0.28 M-0.25 97.84 C21.71 72.58, 43.67 47.32, 85.04 -0.28 M0.15 103.48 C29.51 69.7, 58.88 35.92, 90.03 0.08 M0.15 103.48 C21.71 78.67, 43.27 53.87, 90.03 0.08 M-0.11 109.88 C21.73 84.74, 43.58 59.61, 95.67 -0.31 M-0.11 109.88 C22.43 83.95, 44.97 58.02, 95.67 -0.31 M0.28 115.52 C28.66 82.87, 57.05 50.22, 100.66 0.05 M0.28 115.52 C29.19 82.26, 58.1 49.01, 100.66 0.05 M0.02 121.92 C39.31 76.71, 78.61 31.51, 106.3 -0.34 M0.02 121.92 C33.02 83.95, 66.02 45.99, 106.3 -0.34 M-0.24 128.32 C25.69 98.48, 51.62 68.65, 111.29 0.02 M-0.24 128.32 C32.44 90.72, 65.13 53.12, 111.29 0.02 M0.15 133.96 C37.3 91.23, 74.44 48.5, 116.27 0.38 M0.15 133.96 C24.87 105.53, 49.58 77.1, 116.27 0.38 M-0.11 140.36 C39.71 94.55, 79.52 48.75, 121.92 -0.02 M-0.11 140.36 C29.59 106.19, 59.3 72.02, 121.92 -0.02 M0.29 146 C29.76 112.1, 59.23 78.2, 126.91 0.34 M0.29 146 C33.73 107.52, 67.18 69.04, 126.91 0.34 M0.02 152.4 C32.79 114.71, 65.55 77.02, 132.55 -0.05 M0.02 152.4 C35.75 111.3, 71.48 70.19, 132.55 -0.05 M-0.24 158.8 C33.57 119.9, 67.38 81.01, 137.54 0.31 M-0.24 158.8 C38.16 114.62, 76.56 70.45, 137.54 0.31 M0.16 164.44 C44.67 113.23, 89.19 62.02, 143.18 -0.09 M0.16 164.44 C49.41 107.78, 98.67 51.12, 143.18 -0.09 M-0.1 170.84 C55.89 106.42, 111.89 42, 148.17 0.27 M-0.1 170.84 C38.86 126.02, 77.82 81.2, 148.17 0.27 M0.29 176.48 C56.65 111.65, 113.01 46.81, 153.81 -0.12 M0.29 176.48 C59.03 108.9, 117.78 41.32, 153.81 -0.12 M0.03 182.88 C36.9 140.46, 73.77 98.05, 158.8 0.24 M0.03 182.88 C50.02 125.37, 100 67.87, 158.8 0.24 M-0.23 189.27 C48.58 133.13, 97.38 76.98, 164.44 -0.16 M-0.23 189.27 C56.01 124.58, 112.24 59.88, 164.44 -0.16 M0.16 194.92 C50.01 137.57, 99.86 80.22, 169.43 0.2 M0.16 194.92 C55.28 131.51, 110.4 68.1, 169.43 0.2 M-0.1 201.32 C53.99 139.09, 108.08 76.87, 172.44 2.83 M-0.1 201.32 C55.16 137.74, 110.42 74.17, 172.44 2.83 M0.3 206.96 C40.32 160.91, 80.35 114.87, 172.18 9.22 M0.3 206.96 C48.09 151.98, 95.88 97, 172.18 9.22 M0.03 213.36 C45.68 160.85, 91.32 108.34, 171.92 15.62 M0.03 213.36 C44.79 161.87, 89.55 110.37, 171.92 15.62 M-0.23 219.75 C68.5 140.69, 137.23 61.62, 172.32 21.27 M-0.23 219.75 C59.67 150.86, 119.56 81.96, 172.32 21.27 M0.17 225.4 C57.34 159.63, 114.51 93.86, 172.05 27.66 M0.17 225.4 C42.38 176.84, 84.59 128.28, 172.05 27.66 M-0.09 231.8 C55.96 167.31, 112.01 102.83, 172.45 33.31 M-0.09 231.8 C34.44 192.07, 68.97 152.34, 172.45 33.31 M0.3 237.44 C56.59 172.69, 112.88 107.93, 172.19 39.7 M0.3 237.44 C34.96 197.57, 69.61 157.7, 172.19 39.7 M0.04 243.84 C39.43 198.52, 78.82 153.21, 171.93 46.1 M0.04 243.84 C51.01 185.2, 101.98 126.56, 171.93 46.1 M-0.22 250.23 C68.07 171.68, 136.36 93.12, 172.32 51.75 M-0.22 250.23 C68.21 171.51, 136.64 92.79, 172.32 51.75 M0.17 255.88 C53.59 194.42, 107.01 132.97, 172.06 58.14 M0.17 255.88 C66.86 179.16, 133.55 102.44, 172.06 58.14 M-0.09 262.27 C54.43 199.56, 108.95 136.84, 172.45 63.79 M-0.09 262.27 C58.7 194.64, 117.5 127, 172.45 63.79 M0.3 267.92 C43.63 218.08, 86.95 168.24, 172.19 70.18 M0.3 267.92 C37.82 224.76, 75.34 181.6, 172.19 70.18 M0.04 274.32 C68.68 195.36, 137.31 116.41, 171.93 76.58 M0.04 274.32 C49.29 217.67, 98.53 161.02, 171.93 76.58 M-0.22 280.71 C54.67 217.57, 109.57 154.42, 172.33 82.22 M-0.22 280.71 C38.33 236.37, 76.87 192.03, 172.33 82.22 M0.18 286.36 C67.18 209.27, 134.19 132.19, 172.06 88.62 M0.18 286.36 C56.62 221.42, 113.07 156.49, 172.06 88.62 M-0.08 292.75 C44.26 241.74, 88.61 190.72, 172.46 94.27 M-0.08 292.75 C39.87 246.79, 79.83 200.82, 172.46 94.27 M0.31 298.4 C62.95 226.34, 125.59 154.27, 172.2 100.66 M0.31 298.4 C52.44 238.43, 104.57 178.46, 172.2 100.66 M0.05 304.8 C68.71 225.8, 137.38 146.81, 171.94 107.06 M0.05 304.8 C62.48 232.97, 124.91 161.15, 171.94 107.06 M-0.21 311.19 C39.96 264.98, 80.13 218.76, 172.33 112.7 M-0.21 311.19 C49.84 253.61, 99.9 196.03, 172.33 112.7 M2.15 314.57 C63.17 244.38, 124.19 174.18, 172.07 119.1 M2.15 314.57 C58.37 249.9, 114.59 185.22, 172.07 119.1 M7.14 314.93 C46.4 269.76, 85.67 224.59, 172.46 124.75 M7.14 314.93 C58.4 255.96, 109.66 196.99, 172.46 124.75 M12.78 314.54 C65.76 253.59, 118.74 192.64, 172.2 131.14 M12.78 314.54 C66.87 252.31, 120.96 190.09, 172.2 131.14 M17.77 314.9 C56.89 269.89, 96.02 224.88, 171.94 137.54 M17.77 314.9 C52.69 274.72, 87.61 234.55, 171.94 137.54 M23.41 314.5 C82.74 246.25, 142.07 178, 172.34 143.18 M23.41 314.5 C80.81 248.47, 138.21 182.44, 172.34 143.18 M28.4 314.86 C70.03 266.97, 111.66 219.08, 172.07 149.58 M28.4 314.86 C63.59 274.38, 98.79 233.89, 172.07 149.58 M34.04 314.47 C64.39 279.55, 94.74 244.64, 172.47 155.22 M34.04 314.47 C83.66 257.39, 133.28 200.31, 172.47 155.22 M39.03 314.83 C90.49 255.62, 141.96 196.42, 172.21 161.62 M39.03 314.83 C67.42 282.17, 95.81 249.51, 172.21 161.62 M44.67 314.43 C87.92 264.68, 131.18 214.92, 171.95 168.02 M44.67 314.43 C87.9 264.71, 131.13 214.98, 171.95 168.02 M49.66 314.79 C88.61 269.98, 127.57 225.17, 172.34 173.66 M49.66 314.79 C89.04 269.49, 128.43 224.18, 172.34 173.66 M55.3 314.4 C88.91 275.74, 122.51 237.08, 172.08 180.06 M55.3 314.4 C90.63 273.76, 125.96 233.12, 172.08 180.06 M60.29 314.76 C92.59 277.6, 124.89 240.44, 171.82 186.46 M60.29 314.76 C82.67 289.01, 105.05 263.27, 171.82 186.46 M65.93 314.36 C95 280.92, 124.08 247.48, 172.21 192.1 M65.93 314.36 C88.55 288.35, 111.16 262.33, 172.21 192.1 M70.92 314.72 C95.38 286.59, 119.83 258.45, 171.95 198.5 M70.92 314.72 C93.79 288.41, 116.66 262.1, 171.95 198.5 M76.56 314.33 C104.38 282.33, 132.2 250.33, 172.34 204.14 M76.56 314.33 C108.01 278.15, 139.46 241.97, 172.34 204.14 M81.55 314.69 C112.97 278.54, 144.4 242.39, 172.08 210.54 M81.55 314.69 C100.98 292.34, 120.41 269.99, 172.08 210.54 M87.19 314.3 C105.35 293.41, 123.5 272.52, 171.82 216.94 M87.19 314.3 C112.52 285.16, 137.84 256.03, 171.82 216.94 M92.18 314.66 C116.97 286.14, 141.75 257.62, 172.22 222.58 M92.18 314.66 C118.11 284.82, 144.05 254.98, 172.22 222.58 M97.16 315.02 C119.96 288.79, 142.75 262.57, 171.96 228.98 M97.16 315.02 C117.19 291.98, 137.22 268.94, 171.96 228.98 M102.81 314.62 C121.42 293.21, 140.04 271.79, 172.35 234.62 M102.81 314.62 C127.53 286.18, 152.26 257.73, 172.35 234.62 M107.79 314.98 C127.27 292.58, 146.74 270.18, 172.09 241.02 M107.79 314.98 C131.48 287.74, 155.16 260.49, 172.09 241.02 M113.44 314.59 C130.47 294.99, 147.5 275.4, 171.83 247.42 M113.44 314.59 C128.16 297.65, 142.89 280.71, 171.83 247.42 M118.42 314.95 C136.36 294.32, 154.29 273.69, 172.22 253.06 M118.42 314.95 C130.67 300.86, 142.92 286.77, 172.22 253.06 M124.07 314.55 C137.72 298.84, 151.38 283.13, 171.96 259.46 M124.07 314.55 C143.18 292.56, 162.3 270.57, 171.96 259.46 M129.05 314.91 C137.87 304.77, 146.68 294.64, 172.35 265.1 M129.05 314.91 C140.5 301.74, 151.95 288.57, 172.35 265.1 M134.7 314.52 C145.33 302.29, 155.96 290.05, 172.09 271.5 M134.7 314.52 C146.81 300.59, 158.92 286.66, 172.09 271.5 M139.68 314.88 C149.45 303.65, 159.21 292.42, 171.83 277.9 M139.68 314.88 C152.21 300.47, 164.74 286.05, 171.83 277.9 M145.33 314.48 C154.97 303.4, 164.6 292.31, 172.23 283.54 M145.33 314.48 C155.98 302.23, 166.63 289.98, 172.23 283.54 M150.31 314.84 C156.95 307.21, 163.59 299.57, 171.96 289.94 M150.31 314.84 C156.96 307.2, 163.6 299.56, 171.96 289.94 M155.96 314.45 C161.02 308.62, 166.09 302.79, 172.36 295.58 M155.96 314.45 C161.32 308.28, 166.69 302.11, 172.36 295.58 M160.94 314.81 C163.94 311.37, 166.93 307.93, 172.1 301.98 M160.94 314.81 C163.3 312.1, 165.65 309.4, 172.1 301.98 M166.59 314.41 C168.53 312.18, 170.48 309.94, 171.84 308.38 M166.59 314.41 C168.01 312.78, 169.44 311.14, 171.84 308.38" stroke="#ffec99" stroke-width="0.5" fill="none"></path><path d="M0 0 C37.69 0, 75.37 0, 172 0 M0 0 C51.51 0, 103.02 0, 172 0 M172 0 C172 97.63, 172 195.27, 172 314 M172 0 C172 68.21, 172 136.42, 172 314 M172 314 C127.02 314, 82.04 314, 0 314 M172 314 C127.37 314, 82.74 314, 0 314 M0 314 C0 226.5, 0 139, 0 0 M0 314 C0 227.94, 0 141.88, 0 0" stroke="#1971c2" stroke-width="1" fill="none"></path></g><g stroke-linecap="round"><g transform="translate(446.4654543044243 59.17446338126696) rotate(0 -2.01602922770158 24.825536618733047)" fill-rule="evenodd"><path d="M-25.63 9.52 C-25.63 9.52, -25.63 9.52, -25.63 9.52 M-25.63 9.52 C-25.63 9.52, -25.63 9.52, -25.63 9.52 M-25.23 15.16 C-23.5 13.19, -22.4 11.32, -17.36 6.11 M-25.23 15.16 C-22.08 11.59, -18.98 8.48, -17.36 6.11 M-25.5 21.56 C-22.01 16.23, -16.12 12.08, -9.75 3.45 M-25.5 21.56 C-19.51 14.77, -12.86 6.84, -9.75 3.45 M-25.76 27.96 C-17.95 19.66, -9.46 10.32, -2.14 0.79 M-25.76 27.96 C-19.98 21.6, -14.22 14.58, -2.14 0.79 M-25.36 33.6 C-20.25 26.18, -13.37 20.2, 2.85 1.15 M-25.36 33.6 C-18.17 25.31, -11.14 16.91, 2.85 1.15 M-24.31 38.49 C-12.31 24.03, -1.05 12.3, 6.52 3.02 M-24.31 38.49 C-13.61 26.15, -2.96 13.38, 6.52 3.02 M-20.64 40.36 C-12.03 28.97, -2.26 20.51, 10.2 4.89 M-20.64 40.36 C-9.56 27.28, 2.11 14.48, 10.2 4.89 M-16.96 42.23 C-6.75 29.98, 3.53 17.49, 13.87 6.76 M-16.96 42.23 C-9.15 33.53, -1.07 24.03, 13.87 6.76 M-13.29 44.1 C-5.48 35.58, 2.42 24.84, 17.55 8.63 M-13.29 44.1 C-2.61 31.97, 7.44 19.7, 17.55 8.63 M-9.61 45.97 C-2.84 39.13, 3.91 31.45, 21.22 10.5 M-9.61 45.97 C-2.57 37.92, 4.8 30.23, 21.22 10.5 M-5.94 47.84 C0.64 41.16, 6.79 34.42, 22.27 15.39 M-5.94 47.84 C1.12 39.94, 6.95 32.64, 22.27 15.39 M-2.92 50.46 C3.61 42.11, 10.03 35.36, 22.01 21.78 M-2.92 50.46 C6.27 40.3, 16.21 28.66, 22.01 21.78 M6.66 45.54 C11.64 40.31, 15.05 36.14, 21.75 28.18 M6.66 45.54 C12.34 39.51, 17.27 33.15, 21.75 28.18 M15.58 41.37 C17.63 38.38, 19.67 36.25, 22.14 33.83 M15.58 41.37 C17.83 39.1, 19.84 36.25, 22.14 33.83" stroke="#be4bdb" stroke-width="0.5" fill="none"></path><path d="M0 0 C-9.28 3.05, -19.39 6.06, -25.35 9.2 M0 0 C-8.01 2.83, -15.74 5.42, -25.35 9.2 M-25.35 9.2 C-25.34 20.77, -25.12 31.58, -25.64 38.05 M-25.35 9.2 C-25.43 16.16, -25.63 22.09, -25.64 38.05 M-25.64 38.05 C-18.01 41.35, -12.04 44.6, -3.09 49.65 M-25.64 38.05 C-21.46 40.81, -16.6 42.34, -3.09 49.65 M-3.09 49.65 C3.16 47.11, 10.26 42.77, 21.09 37.92 M-3.09 49.65 C2.11 46.71, 8.48 44.8, 21.09 37.92 M21.09 37.92 C20.73 28.19, 22.28 17.57, 21.61 10.2 M21.09 37.92 C21.08 28.98, 21.75 20.56, 21.61 10.2 M21.61 10.2 C13.7 7.12, 7.34 2.88, 0 0 M21.61 10.2 C14.15 6.9, 7.96 3.23, 0 0 M0 0 C0 0, 0 0, 0 0 M0 0 C0 0, 0 0, 0 0" stroke="#881fa3" stroke-width="1" fill="none"></path></g></g><mask></mask><g stroke-linecap="round"><g transform="translate(53.7987673044243 191.84111938126696) rotate(0 -2.01602922770158 24.82553661873304)" fill-rule="evenodd"><path d="M-25.63 9.52 C-25.63 9.52, -25.63 9.52, -25.63 9.52 M-25.63 9.52 C-25.63 9.52, -25.63 9.52, -25.63 9.52 M-25.23 15.16 C-23.19 13.09, -20.29 10.42, -17.36 6.11 M-25.23 15.16 C-23.15 13.04, -21.28 10.55, -17.36 6.11 M-25.5 21.56 C-22.08 16.65, -18.27 13.12, -9.75 3.45 M-25.5 21.56 C-20.61 16.01, -16.9 11.4, -9.75 3.45 M-25.76 27.96 C-17.6 18.38, -10.9 10.66, -2.14 0.79 M-25.76 27.96 C-17.28 18.11, -8.54 8.47, -2.14 0.79 M-25.36 33.6 C-15.19 23.49, -6.13 11.47, 2.85 1.15 M-25.36 33.6 C-18.72 26.36, -12.33 18.74, 2.85 1.15 M-24.31 38.49 C-16.55 28.3, -8.92 19.77, 6.52 3.02 M-24.31 38.49 C-14.27 26.09, -3.68 15, 6.52 3.02 M-20.64 40.36 C-11.26 30.43, -3.5 19.79, 10.2 4.89 M-20.64 40.36 C-12.88 31.53, -5.59 23.43, 10.2 4.89 M-16.96 42.23 C-7.9 31.3, 0.44 21.85, 13.87 6.76 M-16.96 42.23 C-7.64 31.32, 2.26 20.18, 13.87 6.76 M-13.29 44.1 C-3.4 31.86, 7.96 18.33, 17.55 8.63 M-13.29 44.1 C-3.3 32.15, 7.29 21.23, 17.55 8.63 M-9.61 45.97 C-3.27 38.79, 5.21 29.67, 21.22 10.5 M-9.61 45.97 C-2.77 38.85, 3.47 31.12, 21.22 10.5 M-5.94 47.84 C2.87 37.91, 11.23 28.34, 22.27 15.39 M-5.94 47.84 C0.16 40.72, 5.96 34.06, 22.27 15.39 M-2.92 50.46 C5.89 40.43, 13.59 31.05, 22.01 21.78 M-2.92 50.46 C3.42 43.47, 10.27 35.27, 22.01 21.78 M6.66 45.54 C11.88 40.39, 15.95 34.42, 21.75 28.18 M6.66 45.54 C11.31 40.3, 15.29 35.24, 21.75 28.18 M15.58 41.37 C17.67 38.82, 19.03 37.28, 22.14 33.83 M15.58 41.37 C17.44 39.56, 19.2 37.16, 22.14 33.83" stroke="#be4bdb" stroke-width="0.5" fill="none"></path><path d="M0 0 C-6.64 3.34, -13.77 4.49, -25.35 9.2 M0 0 C-5.84 1.78, -11.27 4.31, -25.35 9.2 M-25.35 9.2 C-26.04 18.94, -24.82 29.13, -25.64 38.05 M-25.35 9.2 C-25.42 19.75, -25.4 30.34, -25.64 38.05 M-25.64 38.05 C-17.02 42.84, -9.56 47.18, -3.09 49.65 M-25.64 38.05 C-18.55 41.81, -12.18 45.31, -3.09 49.65 M-3.09 49.65 C2.09 46.79, 9.46 44.61, 21.09 37.92 M-3.09 49.65 C2.03 47.25, 6.98 44.51, 21.09 37.92 M21.09 37.92 C20.81 28.98, 21.39 21.13, 21.61 10.2 M21.09 37.92 C21.49 31.67, 21.67 25.53, 21.61 10.2 M21.61 10.2 C14.36 5.72, 5.44 3.04, 0 0 M21.61 10.2 C13.85 6.32, 6.13 2.37, 0 0 M0 0 C0 0, 0 0, 0 0 M0 0 C0 0, 0 0, 0 0" stroke="#881fa3" stroke-width="1" fill="none"></path></g></g><mask></mask><g stroke-linecap="round"><g transform="translate(472.8027463044244 108.82553738126697) rotate(0 -2.01602922770158 24.825536618733047)" fill-rule="evenodd"><path d="M-25.63 9.52 C-25.63 9.52, -25.63 9.52, -25.63 9.52 M-25.63 9.52 C-25.63 9.52, -25.63 9.52, -25.63 9.52 M-25.23 15.16 C-23.36 13.29, -22.04 11.34, -17.36 6.11 M-25.23 15.16 C-22.65 12.03, -19.91 9.1, -17.36 6.11 M-25.5 21.56 C-21.73 17.58, -19.91 13.93, -9.75 3.45 M-25.5 21.56 C-21.72 17.54, -18.55 13.09, -9.75 3.45 M-25.76 27.96 C-19.08 19.51, -11.01 11.54, -2.14 0.79 M-25.76 27.96 C-16.59 17.27, -6.8 6.27, -2.14 0.79 M-25.36 33.6 C-13.63 21.57, -3.18 8.28, 2.85 1.15 M-25.36 33.6 C-16.88 23.3, -7.57 13.44, 2.85 1.15 M-24.31 38.49 C-13.08 24.39, -0.15 10.77, 6.52 3.02 M-24.31 38.49 C-15.07 27.56, -5.22 16.17, 6.52 3.02 M-20.64 40.36 C-10.83 28.31, -0.02 16.82, 10.2 4.89 M-20.64 40.36 C-12.89 30.95, -4.68 22.38, 10.2 4.89 M-16.96 42.23 C-9.46 34.22, -4.04 26.4, 13.87 6.76 M-16.96 42.23 C-4.85 28.03, 7.86 14.32, 13.87 6.76 M-13.29 44.1 C-3.87 34.43, 4.88 24.53, 17.55 8.63 M-13.29 44.1 C-3.28 32.92, 6.5 21.37, 17.55 8.63 M-9.61 45.97 C-2.24 38.44, 3.77 30.41, 21.22 10.5 M-9.61 45.97 C2.72 32.25, 14.41 18.02, 21.22 10.5 M-5.94 47.84 C4.2 37.37, 13.22 27.02, 22.27 15.39 M-5.94 47.84 C0.8 39.29, 8.17 31.55, 22.27 15.39 M-2.92 50.46 C3.69 43.77, 8.12 38.18, 22.01 21.78 M-2.92 50.46 C6.29 39.97, 14.9 29.5, 22.01 21.78 M6.66 45.54 C11.2 40.03, 16.75 35.71, 21.75 28.18 M6.66 45.54 C12.55 38.2, 18.72 31.35, 21.75 28.18 M15.58 41.37 C18.01 38.6, 19.99 36.3, 22.14 33.83 M15.58 41.37 C16.95 39.69, 18.39 37.94, 22.14 33.83" stroke="#be4bdb" stroke-width="0.5" fill="none"></path><path d="M0 0 C-7.73 2.29, -15.43 5.21, -25.35 9.2 M0 0 C-7.24 2.38, -14.68 5.37, -25.35 9.2 M-25.35 9.2 C-25.11 19.21, -25.26 27.93, -25.64 38.05 M-25.35 9.2 C-25.27 17.8, -25.74 25.93, -25.64 38.05 M-25.64 38.05 C-18.64 42.61, -11.2 45.49, -3.09 49.65 M-25.64 38.05 C-18.17 41.67, -11.72 44.77, -3.09 49.65 M-3.09 49.65 C3.75 45.62, 11.85 42.88, 21.09 37.92 M-3.09 49.65 C2.09 46.54, 8.1 44.2, 21.09 37.92 M21.09 37.92 C22.15 29.6, 22.03 22.91, 21.61 10.2 M21.09 37.92 C20.99 30.4, 21.35 22.78, 21.61 10.2 M21.61 10.2 C16.94 8.45, 10.9 4.49, 0 0 M21.61 10.2 C13.12 6.18, 4.1 2.11, 0 0 M0 0 C0 0, 0 0, 0 0 M0 0 C0 0, 0 0, 0 0" stroke="#881fa3" stroke-width="1" fill="none"></path></g></g><mask></mask><g stroke-linecap="round"><g transform="translate(80.13605930442435 241.492193381267) rotate(0 -2.01602922770158 24.825536618733054)" fill-rule="evenodd"><path d="M-25.63 9.52 C-25.63 9.52, -25.63 9.52, -25.63 9.52 M-25.63 9.52 C-25.63 9.52, -25.63 9.52, -25.63 9.52 M-25.23 15.16 C-21.91 12.37, -19.17 8.53, -17.36 6.11 M-25.23 15.16 C-22.77 12.5, -20.67 9.62, -17.36 6.11 M-25.5 21.56 C-20.57 14.78, -14.26 9.65, -9.75 3.45 M-25.5 21.56 C-20.66 15.11, -14.88 9.67, -9.75 3.45 M-25.76 27.96 C-17.15 16.78, -6.69 6.93, -2.14 0.79 M-25.76 27.96 C-18.43 19.68, -10.9 11.24, -2.14 0.79 M-25.36 33.6 C-16.39 24.25, -9.32 14.46, 2.85 1.15 M-25.36 33.6 C-17.67 25.03, -10.36 16, 2.85 1.15 M-24.31 38.49 C-14.15 25.06, -2.32 13.88, 6.52 3.02 M-24.31 38.49 C-16.8 29.25, -7.98 20.2, 6.52 3.02 M-20.64 40.36 C-10.01 27.78, -0.09 16.13, 10.2 4.89 M-20.64 40.36 C-10.95 28.97, -0.5 17.3, 10.2 4.89 M-16.96 42.23 C-8.15 30.95, 2.14 20.25, 13.87 6.76 M-16.96 42.23 C-7.2 31.28, 2.35 20.23, 13.87 6.76 M-13.29 44.1 C-5.44 35.03, 1.12 26.6, 17.55 8.63 M-13.29 44.1 C-6 35.71, 2.31 26.23, 17.55 8.63 M-9.61 45.97 C-2.29 39.32, 3.06 30.63, 21.22 10.5 M-9.61 45.97 C1.06 34.13, 11.12 22.01, 21.22 10.5 M-5.94 47.84 C-0.5 41.57, 5.3 33.21, 22.27 15.39 M-5.94 47.84 C3.29 36.81, 12.98 26.61, 22.27 15.39 M-2.92 50.46 C4.31 41.53, 12.18 31.89, 22.01 21.78 M-2.92 50.46 C6.49 40.53, 14.68 29.84, 22.01 21.78 M6.66 45.54 C11.3 40.19, 15.1 36.05, 21.75 28.18 M6.66 45.54 C10.86 40.28, 15.23 35.55, 21.75 28.18 M15.58 41.37 C17.62 38.25, 20.66 35.77, 22.14 33.83 M15.58 41.37 C17.84 39.12, 19.51 36.33, 22.14 33.83" stroke="#be4bdb" stroke-width="0.5" fill="none"></path><path d="M0 0 C-5.91 2.64, -13.98 4.15, -25.35 9.2 M0 0 C-10.06 3.6, -19.43 7.29, -25.35 9.2 M-25.35 9.2 C-25.48 16.8, -25.18 23.36, -25.64 38.05 M-25.35 9.2 C-25.35 18.72, -25.29 28.27, -25.64 38.05 M-25.64 38.05 C-18.95 41.06, -12.82 44.14, -3.09 49.65 M-25.64 38.05 C-19.72 40.7, -13.99 43.68, -3.09 49.65 M-3.09 49.65 C2.68 47.43, 9.17 43.21, 21.09 37.92 M-3.09 49.65 C5.91 45.45, 14.63 40.89, 21.09 37.92 M21.09 37.92 C20.96 31.67, 22.01 24.96, 21.61 10.2 M21.09 37.92 C21.24 27.64, 21.56 16.79, 21.61 10.2 M21.61 10.2 C13.53 6.76, 7.09 3.79, 0 0 M21.61 10.2 C16.06 7.87, 10.33 5.48, 0 0 M0 0 C0 0, 0 0, 0 0 M0 0 C0 0, 0 0, 0 0" stroke="#881fa3" stroke-width="1" fill="none"></path></g></g><mask></mask><g stroke-linecap="round"><g transform="translate(508.3116543044242 59.174463381266946) rotate(0 -2.01602922770158 24.825536618733047)" fill-rule="evenodd"><path d="M-25.63 9.52 C-25.63 9.52, -25.63 9.52, -25.63 9.52 M-25.63 9.52 C-25.63 9.52, -25.63 9.52, -25.63 9.52 M-25.23 15.16 C-23.36 13.32, -21.44 10.12, -17.36 6.11 M-25.23 15.16 C-22.45 12.09, -20.08 8.94, -17.36 6.11 M-25.5 21.56 C-22.02 18.5, -18.55 14.58, -9.75 3.45 M-25.5 21.56 C-21.92 17.49, -17.99 13.76, -9.75 3.45 M-25.76 27.96 C-20.17 22.44, -15.03 16.86, -2.14 0.79 M-25.76 27.96 C-19.79 21.31, -15.05 15.26, -2.14 0.79 M-25.36 33.6 C-17.96 24.26, -10.69 16.53, 2.85 1.15 M-25.36 33.6 C-14.94 22.04, -3.78 8.99, 2.85 1.15 M-24.31 38.49 C-14.73 27.95, -6.75 18.52, 6.52 3.02 M-24.31 38.49 C-13.17 26.07, -2.71 13.36, 6.52 3.02 M-20.64 40.36 C-10.46 27.32, -0.27 16.05, 10.2 4.89 M-20.64 40.36 C-10.28 29.08, -0.37 16.59, 10.2 4.89 M-16.96 42.23 C-6.97 30.19, 3.96 18.07, 13.87 6.76 M-16.96 42.23 C-5.06 28.51, 6.76 15.1, 13.87 6.76 M-13.29 44.1 C-5.56 35.48, 0.31 27.61, 17.55 8.63 M-13.29 44.1 C-1.16 31.12, 9.76 17.31, 17.55 8.63 M-9.61 45.97 C-0.19 35.11, 9.45 23.33, 21.22 10.5 M-9.61 45.97 C-0.12 35.84, 8.19 24.39, 21.22 10.5 M-5.94 47.84 C0.62 40.23, 9.15 32.24, 22.27 15.39 M-5.94 47.84 C3.31 37.47, 11.76 27.37, 22.27 15.39 M-2.92 50.46 C3.2 43.7, 7.89 36.02, 22.01 21.78 M-2.92 50.46 C3.4 43.27, 10.4 35.17, 22.01 21.78 M6.66 45.54 C11.28 41.05, 15.18 36.12, 21.75 28.18 M6.66 45.54 C12.82 38.65, 17.58 32.79, 21.75 28.18 M15.58 41.37 C17.27 39.69, 18.77 37.77, 22.14 33.83 M15.58 41.37 C17.61 39.05, 19.7 36.37, 22.14 33.83" stroke="#be4bdb" stroke-width="0.5" fill="none"></path><path d="M0 0 C-10.43 3.57, -18.33 6.52, -25.35 9.2 M0 0 C-5.05 1.56, -11.05 4.1, -25.35 9.2 M-25.35 9.2 C-25.34 14.87, -26.25 20.74, -25.64 38.05 M-25.35 9.2 C-25.35 20.03, -25.29 31.61, -25.64 38.05 M-25.64 38.05 C-20.35 40.79, -12.61 44.73, -3.09 49.65 M-25.64 38.05 C-16.81 43.11, -7.44 47.05, -3.09 49.65 M-3.09 49.65 C4.92 46.37, 13.59 42.06, 21.09 37.92 M-3.09 49.65 C2.87 47, 8.77 43.69, 21.09 37.92 M21.09 37.92 C20.42 31.56, 21.49 26.58, 21.61 10.2 M21.09 37.92 C21.05 30.78, 20.83 23.62, 21.61 10.2 M21.61 10.2 C13.95 5.44, 5.48 3.22, 0 0 M21.61 10.2 C13.88 6.76, 6.1 2.87, 0 0 M0 0 C0 0, 0 0, 0 0 M0 0 C0 0, 0 0, 0 0" stroke="#881fa3" stroke-width="1" fill="none"></path></g></g><mask></mask><g stroke-linecap="round"><g transform="translate(115.6449673044242 191.84111938126694) rotate(0 -2.016029227701587 24.825536618733047)" fill-rule="evenodd"><path d="M-25.63 9.52 C-25.63 9.52, -25.63 9.52, -25.63 9.52 M-25.63 9.52 C-25.63 9.52, -25.63 9.52, -25.63 9.52 M-25.23 15.16 C-22.04 12.47, -19.89 8.62, -17.36 6.11 M-25.23 15.16 C-22.44 11.86, -19.84 8.86, -17.36 6.11 M-25.5 21.56 C-21.33 16.77, -15.53 10.33, -9.75 3.45 M-25.5 21.56 C-20.46 15.53, -14.39 9.38, -9.75 3.45 M-25.76 27.96 C-18.44 19.5, -9.77 10.37, -2.14 0.79 M-25.76 27.96 C-19.83 21.44, -14.06 14.7, -2.14 0.79 M-25.36 33.6 C-17.23 23.97, -9.5 13.97, 2.85 1.15 M-25.36 33.6 C-18.24 25.33, -11.57 17.72, 2.85 1.15 M-24.31 38.49 C-17 29.32, -7.44 19.28, 6.52 3.02 M-24.31 38.49 C-15.16 28.43, -5.84 17.66, 6.52 3.02 M-20.64 40.36 C-13.45 31.1, -5.31 22.14, 10.2 4.89 M-20.64 40.36 C-10.12 28.67, 0.14 16.35, 10.2 4.89 M-16.96 42.23 C-10.87 34.84, -4.2 27.9, 13.87 6.76 M-16.96 42.23 C-5.95 29.77, 4.96 17.08, 13.87 6.76 M-13.29 44.1 C-1.22 29.08, 11.47 15.55, 17.55 8.63 M-13.29 44.1 C-5.4 35.85, 1.39 26.55, 17.55 8.63 M-9.61 45.97 C-2.52 38.28, 2.5 31.41, 21.22 10.5 M-9.61 45.97 C-1.06 36.1, 7.22 25.84, 21.22 10.5 M-5.94 47.84 C5.03 35.37, 13.9 24.33, 22.27 15.39 M-5.94 47.84 C4.05 36.39, 14.86 24.13, 22.27 15.39 M-2.92 50.46 C3.88 42.18, 9.99 35.72, 22.01 21.78 M-2.92 50.46 C4.84 41.51, 11.83 33.41, 22.01 21.78 M6.66 45.54 C9.47 41.74, 13.47 37.44, 21.75 28.18 M6.66 45.54 C9.56 41.74, 13 38.5, 21.75 28.18 M15.58 41.37 C16.59 40.09, 18.24 38.2, 22.14 33.83 M15.58 41.37 C17.44 39.13, 18.76 37.36, 22.14 33.83" stroke="#be4bdb" stroke-width="0.5" fill="none"></path><path d="M0 0 C-8.23 2.55, -17.55 7.08, -25.35 9.2 M0 0 C-5.67 2.3, -11.29 3.79, -25.35 9.2 M-25.35 9.2 C-24.68 18.3, -24.98 27.06, -25.64 38.05 M-25.35 9.2 C-25.3 17.63, -25.23 25.33, -25.64 38.05 M-25.64 38.05 C-17.37 43.12, -9.14 45.98, -3.09 49.65 M-25.64 38.05 C-20.12 41.11, -14.34 43.64, -3.09 49.65 M-3.09 49.65 C2.64 47.82, 6.42 45.34, 21.09 37.92 M-3.09 49.65 C2.77 46.5, 8.24 43.81, 21.09 37.92 M21.09 37.92 C21.22 28.32, 20.81 18.03, 21.61 10.2 M21.09 37.92 C21.63 28.71, 21.7 19.53, 21.61 10.2 M21.61 10.2 C17.17 8.62, 13.33 5.49, 0 0 M21.61 10.2 C16.88 7.52, 12.11 5.29, 0 0 M0 0 C0 0, 0 0, 0 0 M0 0 C0 0, 0 0, 0 0" stroke="#881fa3" stroke-width="1" fill="none"></path></g></g><mask></mask><g stroke-linecap="round"><g transform="translate(531.9406213044241 108.82553738126694) rotate(0 -2.0160292277015515 24.825536618733047)" fill-rule="evenodd"><path d="M-25.63 9.52 C-25.63 9.52, -25.63 9.52, -25.63 9.52 M-25.63 9.52 C-25.63 9.52, -25.63 9.52, -25.63 9.52 M-25.5 21.56 C-22.57 18.42, -18.42 12.47, -9.75 3.45 M-25.5 21.56 C-18.85 14.12, -12.61 6.95, -9.75 3.45 M-25.36 33.6 C-15.68 22.25, -3.25 8.64, 2.85 1.15 M-25.36 33.6 C-15.39 22.5, -5.72 10.74, 2.85 1.15 M-20.64 40.36 C-11.29 30.57, -4.02 20.56, 10.2 4.89 M-20.64 40.36 C-12.58 31.19, -4.27 21.87, 10.2 4.89 M-13.29 44.1 C-6.43 35.3, 2.31 26.65, 17.55 8.63 M-13.29 44.1 C-3.9 33.05, 5.55 22.2, 17.55 8.63 M-5.94 47.84 C4.49 36.86, 12.94 26.61, 22.27 15.39 M-5.94 47.84 C1.81 39.25, 9.83 29.82, 22.27 15.39 M6.66 45.54 C11.02 40.75, 15.63 34.23, 21.75 28.18 M6.66 45.54 C10.21 41.57, 13.32 37.59, 21.75 28.18 M-25.35 38.31 C-25.35 38.31, -25.35 38.31, -25.35 38.31 M-25.35 38.31 C-25.35 38.31, -25.35 38.31, -25.35 38.31 M-1.23 48.67 C-6.47 44.19, -13.24 38.81, -25.39 27.68 M-1.23 48.67 C-6.2 44.03, -12.19 39.69, -25.39 27.68 M6.28 44.6 C-4.08 35.44, -12.48 28.2, -25.42 17.05 M6.28 44.6 C-5.59 34.07, -16.79 23.77, -25.42 17.05 M13.79 40.53 C4.39 31.24, -4.21 24.41, -23.19 8.39 M13.79 40.53 C3.86 32.15, -6.38 22.64, -23.19 8.39 M21.3 36.46 C12.66 28.86, 5.05 22.72, -14.92 4.97 M21.3 36.46 C8.84 25.73, -2.82 15.2, -14.92 4.97 M21.27 25.83 C11.42 17.5, 1.85 9.28, -5.9 2.22 M21.27 25.83 C11.93 17.86, 1.96 9.55, -5.9 2.22 M21.99 15.86 C17.9 12.17, 12.27 8.09, 6.89 2.74 M21.99 15.86 C17.83 12.51, 14.74 9.61, 6.89 2.74" stroke="#ffffff" stroke-width="1" fill="none"></path><path d="M0 0 C-8.98 2.41, -16.56 5.81, -25.35 9.2 M0 0 C-8.91 3.24, -16.92 6.56, -25.35 9.2 M-25.35 9.2 C-25.83 18.2, -25.66 27.71, -25.64 38.05 M-25.35 9.2 C-25.13 18.33, -25.64 26.79, -25.64 38.05 M-25.64 38.05 C-17.28 41.94, -8.77 46.64, -3.09 49.65 M-25.64 38.05 C-17.96 41.71, -9.65 46.02, -3.09 49.65 M-3.09 49.65 C5.35 46.42, 11.22 41.8, 21.09 37.92 M-3.09 49.65 C3.06 46.47, 8.4 43.87, 21.09 37.92 M21.09 37.92 C21.93 29.67, 21.13 21.4, 21.61 10.2 M21.09 37.92 C20.89 31.08, 21.12 23.36, 21.61 10.2 M21.61 10.2 C15.96 8.05, 9.82 5.47, 0 0 M21.61 10.2 C13.78 6.6, 5.71 2.92, 0 0 M0 0 C0 0, 0 0, 0 0 M0 0 C0 0, 0 0, 0 0" stroke="#881fa3" stroke-width="2" fill="none"></path></g></g><mask></mask><g stroke-linecap="round"><g transform="translate(318.8855943044241 243.68223838126696) rotate(0 -2.01602922770158 24.82553661873304)" fill-rule="evenodd"><path d="M-25.63 9.52 C-25.63 9.52, -25.63 9.52, -25.63 9.52 M-25.63 9.52 C-25.63 9.52, -25.63 9.52, -25.63 9.52 M-25.5 21.56 C-22.05 16.42, -16.84 12.96, -9.75 3.45 M-25.5 21.56 C-21.91 17.9, -18.3 13.47, -9.75 3.45 M-25.36 33.6 C-18.38 26.14, -10.44 16.37, 2.85 1.15 M-25.36 33.6 C-17.72 25.01, -10.61 16.52, 2.85 1.15 M-20.64 40.36 C-13.45 31.14, -6.81 23.4, 10.2 4.89 M-20.64 40.36 C-13.04 31.95, -6.38 23.65, 10.2 4.89 M-13.29 44.1 C-5 35.61, 3.28 26.04, 17.55 8.63 M-13.29 44.1 C-6.6 36.28, 0.41 27.67, 17.55 8.63 M-5.94 47.84 C0.66 38.89, 8.78 32.63, 22.27 15.39 M-5.94 47.84 C4.56 36.19, 15.34 24.12, 22.27 15.39 M6.66 45.54 C11.58 39.46, 17.86 33.57, 21.75 28.18 M6.66 45.54 C11.2 40.39, 15.83 34.2, 21.75 28.18 M-25.35 38.31 C-25.35 38.31, -25.35 38.31, -25.35 38.31 M-25.35 38.31 C-25.35 38.31, -25.35 38.31, -25.35 38.31 M-1.23 48.67 C-10.74 40.01, -19.39 32.83, -25.39 27.68 M-1.23 48.67 C-7.82 42.34, -15.32 36.58, -25.39 27.68 M6.28 44.6 C-6.63 32.74, -19.95 23.49, -25.42 17.05 M6.28 44.6 C-4.92 34.5, -16.65 23.98, -25.42 17.05 M13.79 40.53 C2.75 30.66, -8.7 21.53, -23.19 8.39 M13.79 40.53 C3.96 32.63, -5.91 23.76, -23.19 8.39 M21.3 36.46 C9.3 26.27, -3.54 15.24, -14.92 4.97 M21.3 36.46 C9.06 25.88, -4.5 14.46, -14.92 4.97 M21.27 25.83 C15.6 21.4, 9.65 15.28, -5.9 2.22 M21.27 25.83 C14.2 19.62, 5.87 13.17, -5.9 2.22 M21.99 15.86 C17.18 12.26, 11.7 7.89, 6.89 2.74 M21.99 15.86 C16.86 11.19, 10.75 6.19, 6.89 2.74" stroke="#ffffff" stroke-width="1" fill="none"></path><path d="M0 0 C-11.03 3.34, -19.86 7.42, -25.35 9.2 M0 0 C-7.78 2.5, -15.97 5.5, -25.35 9.2 M-25.35 9.2 C-26.07 18.77, -25.43 26.68, -25.64 38.05 M-25.35 9.2 C-25.41 16.61, -25.58 23.23, -25.64 38.05 M-25.64 38.05 C-16.44 42.23, -9.27 46.55, -3.09 49.65 M-25.64 38.05 C-20.69 40.08, -16.51 42.54, -3.09 49.65 M-3.09 49.65 C3.23 47.46, 7.89 44.08, 21.09 37.92 M-3.09 49.65 C5.32 45.5, 13.51 41.56, 21.09 37.92 M21.09 37.92 C21.53 28.83, 21.58 21.03, 21.61 10.2 M21.09 37.92 C21.23 31.76, 21.15 26.13, 21.61 10.2 M21.61 10.2 C17.23 7.48, 11.22 4.67, 0 0 M21.61 10.2 C14.36 7.01, 6.46 3.7, 0 0 M0 0 C0 0, 0 0, 0 0 M0 0 C0 0, 0 0, 0 0" stroke="#881fa3" stroke-width="2" fill="none"></path></g></g><mask></mask><g stroke-linecap="round"><g transform="translate(139.27393430442407 241.49219338126696) rotate(0 -2.016029227701587 24.82553661873304)" fill-rule="evenodd"><path d="M-25.63 9.52 C-25.63 9.52, -25.63 9.52, -25.63 9.52 M-25.63 9.52 C-25.63 9.52, -25.63 9.52, -25.63 9.52 M-25.23 15.16 C-22.65 12.48, -21.2 10.75, -17.36 6.11 M-25.23 15.16 C-22.64 11.91, -19.74 8.96, -17.36 6.11 M-25.5 21.56 C-20.8 17.24, -17.76 13.61, -9.75 3.45 M-25.5 21.56 C-19.21 14.89, -13.03 8.05, -9.75 3.45 M-25.76 27.96 C-16.74 18.76, -8.42 7.73, -2.14 0.79 M-25.76 27.96 C-18.72 20.12, -11.9 11.88, -2.14 0.79 M-25.36 33.6 C-15.61 21.59, -6.2 10.51, 2.85 1.15 M-25.36 33.6 C-16.08 22.46, -6.11 11.53, 2.85 1.15 M-24.31 38.49 C-15.9 29.69, -8.38 19.98, 6.52 3.02 M-24.31 38.49 C-17.02 30.72, -10.46 22.79, 6.52 3.02 M-20.64 40.36 C-9.98 27.55, 0.99 16.19, 10.2 4.89 M-20.64 40.36 C-8.94 27.21, 2.13 13.79, 10.2 4.89 M-16.96 42.23 C-6.97 30.8, 3.45 19.64, 13.87 6.76 M-16.96 42.23 C-9.02 33.26, -1.31 24.32, 13.87 6.76 M-13.29 44.1 C-7.86 36.98, -0.94 28.71, 17.55 8.63 M-13.29 44.1 C-4.79 34.31, 2.63 24.87, 17.55 8.63 M-9.61 45.97 C-3.45 37.54, 3.55 30.75, 21.22 10.5 M-9.61 45.97 C2.17 32.21, 13.57 18.95, 21.22 10.5 M-5.94 47.84 C3.38 35.59, 14.12 25.75, 22.27 15.39 M-5.94 47.84 C2.98 38.32, 11.09 28.26, 22.27 15.39 M-2.92 50.46 C5.64 39.54, 16.01 29.42, 22.01 21.78 M-2.92 50.46 C4.07 41.8, 11.94 32.61, 22.01 21.78 M6.66 45.54 C11.72 39.88, 16.31 33.41, 21.75 28.18 M6.66 45.54 C11.66 39.68, 17.21 33.41, 21.75 28.18 M15.58 41.37 C18.14 38.7, 20.07 36.17, 22.14 33.83 M15.58 41.37 C17.61 38.46, 20.13 36.08, 22.14 33.83 M-25.35 38.31 C-25.35 38.31, -25.35 38.31, -25.35 38.31 M-25.35 38.31 C-25.35 38.31, -25.35 38.31, -25.35 38.31 M-10.65 45.79 C-13.98 42.88, -18.14 40.1, -25.75 32.67 M-10.65 45.79 C-16.68 40.44, -22.23 35.36, -25.75 32.67 M-1.23 48.67 C-10.05 42.07, -17.74 35.13, -25.39 27.68 M-1.23 48.67 C-9.58 41, -18.65 33.06, -25.39 27.68 M2.14 46.31 C-6.62 38.71, -16.59 29.84, -25.78 22.04 M2.14 46.31 C-7.75 37.78, -17.21 29.1, -25.78 22.04 M6.28 44.6 C-2.41 36.91, -11.65 29.01, -25.42 17.05 M6.28 44.6 C-3.16 36.69, -12.24 28.64, -25.42 17.05 M10.41 42.9 C2.26 36.59, -5.05 28.33, -25.06 12.06 M10.41 42.9 C1.93 35.61, -6.57 27.89, -25.06 12.06 M13.79 40.53 C0.19 29.3, -10.94 17.74, -23.19 8.39 M13.79 40.53 C3.64 31.49, -6.22 23.6, -23.19 8.39 M17.92 38.83 C9.24 31.73, 3.24 25.64, -19.06 6.68 M17.92 38.83 C4.66 27.97, -7.87 16.83, -19.06 6.68 M21.3 36.46 C12.16 27.82, 1.58 19.54, -14.92 4.97 M21.3 36.46 C6.9 24.09, -7.06 11.74, -14.92 4.97 M21.66 31.48 C15.79 26.58, 8.73 19.47, -10.03 3.92 M21.66 31.48 C13.5 24.12, 5.57 17.03, -10.03 3.92 M21.27 25.83 C11.55 18.29, 0.92 9.61, -5.9 2.22 M21.27 25.83 C12.87 18.56, 4.1 10.82, -5.9 2.22 M21.63 20.85 C17.03 17.52, 11.78 13.08, -1.77 0.51 M21.63 20.85 C16.88 16.8, 11.83 11.84, -1.77 0.51 M21.99 15.86 C16.68 11.02, 11.49 5.46, 6.89 2.74 M21.99 15.86 C17.01 11.29, 11.26 6.82, 6.89 2.74 M21.59 10.22 C21.09 9.79, 20.43 9.09, 20.08 8.9 M21.59 10.22 C21.05 9.68, 20.43 9.21, 20.08 8.9" stroke="#fa5252" stroke-width="0.5" fill="none"></path><path d="M0 0 C-9.02 2.34, -16 5.42, -25.35 9.2 M0 0 C-6.42 2.64, -13.68 4.89, -25.35 9.2 M-25.35 9.2 C-25.13 17.05, -25.25 23.5, -25.64 38.05 M-25.35 9.2 C-25.13 18.15, -25.68 26.85, -25.64 38.05 M-25.64 38.05 C-16.54 42.28, -9.78 45.97, -3.09 49.65 M-25.64 38.05 C-17.64 41.9, -10.22 45.77, -3.09 49.65 M-3.09 49.65 C2.75 46.14, 7.94 43.93, 21.09 37.92 M-3.09 49.65 C4.86 45.61, 13.28 41.83, 21.09 37.92 M21.09 37.92 C22.03 30.41, 22.24 24.76, 21.61 10.2 M21.09 37.92 C21.4 27.76, 21.74 16.39, 21.61 10.2 M21.61 10.2 C13.86 6.9, 4.47 1.61, 0 0 M21.61 10.2 C14.4 7.44, 7.61 3.54, 0 0 M0 0 C0 0, 0 0, 0 0 M0 0 C0 0, 0 0, 0 0" stroke="#881fa3" stroke-width="1" fill="none"></path></g></g><mask></mask><g stroke-linecap="round"><g transform="translate(496.7344583044241 158.47661138126693) rotate(0 -2.0160292277016083 24.825536618733047)" fill-rule="evenodd"><path d="M-25.63 9.52 C-25.63 9.52, -25.63 9.52, -25.63 9.52 M-25.63 9.52 C-25.63 9.52, -25.63 9.52, -25.63 9.52 M-25.5 21.56 C-20.93 16.53, -16.1 9.77, -9.75 3.45 M-25.5 21.56 C-21.8 17.42, -18.54 13.27, -9.75 3.45 M-25.36 33.6 C-17.92 24.64, -10.43 15.18, 2.85 1.15 M-25.36 33.6 C-14.23 20.65, -3.2 9.02, 2.85 1.15 M-20.64 40.36 C-12.67 32.44, -6.24 23.58, 10.2 4.89 M-20.64 40.36 C-13.45 32.5, -7.33 24.97, 10.2 4.89 M-13.29 44.1 C-4.3 32.41, 6.64 22.72, 17.55 8.63 M-13.29 44.1 C-2.13 30.95, 9.66 17.74, 17.55 8.63 M-5.94 47.84 C1.23 38.72, 9.2 31.81, 22.27 15.39 M-5.94 47.84 C2.03 39.27, 9.69 29.67, 22.27 15.39 M6.66 45.54 C9.61 41.3, 13.53 38.33, 21.75 28.18 M6.66 45.54 C11.6 39.6, 17.4 33.88, 21.75 28.18 M-25.35 38.31 C-25.35 38.31, -25.35 38.31, -25.35 38.31 M-25.35 38.31 C-25.35 38.31, -25.35 38.31, -25.35 38.31 M-1.23 48.67 C-8.07 42.56, -16.46 36.08, -25.39 27.68 M-1.23 48.67 C-7.62 43.32, -12.97 38.46, -25.39 27.68 M6.28 44.6 C0.18 38.7, -6.24 32.39, -25.42 17.05 M6.28 44.6 C-3.94 35.91, -13.79 27.64, -25.42 17.05 M13.79 40.53 C6.11 33.35, -2.09 26.33, -23.19 8.39 M13.79 40.53 C0.29 28.04, -13.97 16.57, -23.19 8.39 M21.3 36.46 C8.36 24.68, -4.53 12.75, -14.92 4.97 M21.3 36.46 C7.63 23.62, -7.37 11.32, -14.92 4.97 M21.27 25.83 C12.41 18.47, 1.73 8.45, -5.9 2.22 M21.27 25.83 C15.33 20.23, 8.89 14.56, -5.9 2.22 M21.99 15.86 C17.68 12.06, 14.32 9.28, 6.89 2.74 M21.99 15.86 C17.33 12.56, 13.41 8.71, 6.89 2.74" stroke="#40c057" stroke-width="1" fill="none"></path><path d="M0 0 C-6.68 3.09, -13.83 5.76, -25.35 9.2 M0 0 C-9.16 3.59, -18.62 7.11, -25.35 9.2 M-25.35 9.2 C-25.42 15.35, -25.87 23.13, -25.64 38.05 M-25.35 9.2 C-25.26 16.28, -25.43 23.47, -25.64 38.05 M-25.64 38.05 C-20.09 41.98, -13.85 43.84, -3.09 49.65 M-25.64 38.05 C-20.39 40.81, -14.56 44.24, -3.09 49.65 M-3.09 49.65 C1.72 47.93, 7.76 43.4, 21.09 37.92 M-3.09 49.65 C6.84 44.71, 16.39 40.04, 21.09 37.92 M21.09 37.92 C20.37 28.46, 22.39 16.64, 21.61 10.2 M21.09 37.92 C21.24 28.57, 21.12 18.48, 21.61 10.2 M21.61 10.2 C16.06 7.88, 8.34 5.1, 0 0 M21.61 10.2 C15.91 7.66, 10.47 4.96, 0 0 M0 0 C0 0, 0 0, 0 0 M0 0 C0 0, 0 0, 0 0" stroke="#881fa3" stroke-width="2" fill="none"></path></g></g><mask></mask><g stroke-linecap="round"><g transform="translate(237.512500304424 191.84111938126694) rotate(0 -2.01602922770158 24.825536618733054)" fill-rule="evenodd"><path d="M-25.63 9.52 C-25.63 9.52, -25.63 9.52, -25.63 9.52 M-25.63 9.52 C-25.63 9.52, -25.63 9.52, -25.63 9.52 M-25.5 21.56 C-19.78 14.23, -12.45 7.46, -9.75 3.45 M-25.5 21.56 C-20.28 15.47, -14.54 8.76, -9.75 3.45 M-25.36 33.6 C-17.46 24.69, -8.93 16.1, 2.85 1.15 M-25.36 33.6 C-18.41 26.3, -11.69 18.43, 2.85 1.15 M-20.64 40.36 C-12.98 32.38, -7.16 24.16, 10.2 4.89 M-20.64 40.36 C-11.93 30.41, -3.61 20.89, 10.2 4.89 M-13.29 44.1 C-1.68 29.6, 10.84 16.13, 17.55 8.63 M-13.29 44.1 C-3.95 33.42, 5.62 21.96, 17.55 8.63 M-5.94 47.84 C0.86 40.18, 6.76 32.56, 22.27 15.39 M-5.94 47.84 C-0.16 41.27, 5.45 34.71, 22.27 15.39 M6.66 45.54 C11.14 40.03, 17.11 34.73, 21.75 28.18 M6.66 45.54 C10.53 40.98, 14.1 36.5, 21.75 28.18 M-25.35 38.31 C-25.35 38.31, -25.35 38.31, -25.35 38.31 M-25.35 38.31 C-25.35 38.31, -25.35 38.31, -25.35 38.31 M-1.23 48.67 C-8.74 41.25, -17.38 34.63, -25.39 27.68 M-1.23 48.67 C-6.73 43.84, -11.92 39.45, -25.39 27.68 M6.28 44.6 C-6.8 34.41, -18.24 24.38, -25.42 17.05 M6.28 44.6 C-5.19 34.28, -16.17 25.09, -25.42 17.05 M13.79 40.53 C3.35 32.45, -4.67 23.9, -23.19 8.39 M13.79 40.53 C2.6 30.83, -9.14 21.13, -23.19 8.39 M21.3 36.46 C12.39 29.61, 4.29 21.67, -14.92 4.97 M21.3 36.46 C7.7 24.33, -6.4 12.78, -14.92 4.97 M21.27 25.83 C11.83 17.5, 1.56 9.81, -5.9 2.22 M21.27 25.83 C14.25 19.95, 6.8 13.69, -5.9 2.22 M21.99 15.86 C18.21 13.06, 14.72 10.39, 6.89 2.74 M21.99 15.86 C15.95 10.92, 10.97 6.4, 6.89 2.74" stroke="#40c057" stroke-width="1" fill="none"></path><path d="M0 0 C-10.31 4.27, -19.86 6.5, -25.35 9.2 M0 0 C-6.4 2.14, -13.18 4.61, -25.35 9.2 M-25.35 9.2 C-24.7 17.9, -25.57 26.1, -25.64 38.05 M-25.35 9.2 C-25.12 18.33, -25.18 28.13, -25.64 38.05 M-25.64 38.05 C-17.19 41.83, -9.27 47.08, -3.09 49.65 M-25.64 38.05 C-18.39 41.59, -11.01 45.35, -3.09 49.65 M-3.09 49.65 C3.09 46.84, 10.54 43.08, 21.09 37.92 M-3.09 49.65 C3.78 46.05, 10.88 42.86, 21.09 37.92 M21.09 37.92 C20.52 30.88, 21.77 22.89, 21.61 10.2 M21.09 37.92 C21.49 29.86, 20.8 21.74, 21.61 10.2 M21.61 10.2 C16.96 7.31, 10.33 5.46, 0 0 M21.61 10.2 C15.93 7.05, 9.18 4.77, 0 0 M0 0 C0 0, 0 0, 0 0 M0 0 C0 0, 0 0, 0 0" stroke="#881fa3" stroke-width="2" fill="none"></path></g></g><mask></mask><g stroke-linecap="round"><g transform="translate(258.83100330442403 241.49219338126693) rotate(0 -2.01602922770158 24.825536618733054)" fill-rule="evenodd"><path d="M-25.63 9.52 C-25.63 9.52, -25.63 9.52, -25.63 9.52 M-25.63 9.52 C-25.63 9.52, -25.63 9.52, -25.63 9.52 M-25.5 21.56 C-21.33 17.66, -19.68 14.06, -9.75 3.45 M-25.5 21.56 C-21.08 16.43, -17.58 12.16, -9.75 3.45 M-25.36 33.6 C-18.78 24.18, -9.54 17.31, 2.85 1.15 M-25.36 33.6 C-16.13 23.58, -7.02 13.2, 2.85 1.15 M-20.64 40.36 C-13.2 32.55, -5.7 23.61, 10.2 4.89 M-20.64 40.36 C-12.36 30.2, -2.86 20.25, 10.2 4.89 M-13.29 44.1 C-1.55 30.91, 10.47 17.1, 17.55 8.63 M-13.29 44.1 C-1.5 30.13, 10.88 16.1, 17.55 8.63 M-5.94 47.84 C1.43 38.25, 8.56 29.78, 22.27 15.39 M-5.94 47.84 C1.23 40.18, 8.16 32, 22.27 15.39 M6.66 45.54 C11.06 38.95, 17.5 34.59, 21.75 28.18 M6.66 45.54 C11.95 39.24, 17.13 33.27, 21.75 28.18 M-25.35 38.31 C-25.35 38.31, -25.35 38.31, -25.35 38.31 M-25.35 38.31 C-25.35 38.31, -25.35 38.31, -25.35 38.31 M-1.23 48.67 C-6.97 45.22, -11.51 39.03, -25.39 27.68 M-1.23 48.67 C-9.33 41.42, -16.65 35.23, -25.39 27.68 M6.28 44.6 C0.32 39.08, -6.46 33.04, -25.42 17.05 M6.28 44.6 C-5.03 35.21, -16.48 25.52, -25.42 17.05 M13.79 40.53 C0.97 28.65, -12.67 17.2, -23.19 8.39 M13.79 40.53 C2.07 30.35, -9.33 20.96, -23.19 8.39 M21.3 36.46 C7.8 24.78, -3.15 14.23, -14.92 4.97 M21.3 36.46 C8.27 25.28, -5.59 13.61, -14.92 4.97 M21.27 25.83 C14.83 20, 5.59 12.14, -5.9 2.22 M21.27 25.83 C15.63 20.84, 9.11 15.24, -5.9 2.22 M21.99 15.86 C17.87 11.78, 11.43 7.04, 6.89 2.74 M21.99 15.86 C18.45 12.81, 16.04 10.78, 6.89 2.74" stroke="#40c057" stroke-width="1" fill="none"></path><path d="M0 0 C-10.02 3.33, -18.13 6.33, -25.35 9.2 M0 0 C-6.43 2.04, -12.34 4.35, -25.35 9.2 M-25.35 9.2 C-24.53 18.51, -25.71 25.19, -25.64 38.05 M-25.35 9.2 C-25.56 17.52, -25.33 25.9, -25.64 38.05 M-25.64 38.05 C-16.42 42.7, -7.91 47.57, -3.09 49.65 M-25.64 38.05 C-21.05 40.43, -16.4 42.66, -3.09 49.65 M-3.09 49.65 C6.61 44.3, 16.03 40.67, 21.09 37.92 M-3.09 49.65 C5.99 45.67, 16.09 40.27, 21.09 37.92 M21.09 37.92 C20.8 31.24, 20.98 22.49, 21.61 10.2 M21.09 37.92 C21.3 30.8, 21.37 22.74, 21.61 10.2 M21.61 10.2 C14.88 7.54, 6.34 3.75, 0 0 M21.61 10.2 C17.56 8.2, 13.32 6.06, 0 0 M0 0 C0 0, 0 0, 0 0 M0 0 C0 0, 0 0, 0 0" stroke="#881fa3" stroke-width="2" fill="none"></path></g></g><mask></mask><g stroke-linecap="round"><g transform="translate(436.73445830442404 158.47661138126693) rotate(0 -2.01602922770158 24.825536618733047)" fill-rule="evenodd"><path d="M-25.63 9.52 C-25.63 9.52, -25.63 9.52, -25.63 9.52 M-25.63 9.52 C-25.63 9.52, -25.63 9.52, -25.63 9.52 M-25.5 21.56 C-19.87 15.3, -14.71 10.43, -9.75 3.45 M-25.5 21.56 C-19.6 14.52, -13.98 8.23, -9.75 3.45 M-25.36 33.6 C-16.35 22.09, -7.24 10.98, 2.85 1.15 M-25.36 33.6 C-17.56 24.26, -9.05 14.5, 2.85 1.15 M-20.64 40.36 C-11.87 29.7, -2.61 19.95, 10.2 4.89 M-20.64 40.36 C-12.19 30.56, -2.83 20.39, 10.2 4.89 M-13.29 44.1 C-3.47 33.94, 4.08 23.68, 17.55 8.63 M-13.29 44.1 C-5.42 35.1, 1.46 26.74, 17.55 8.63 M-5.94 47.84 C2.86 38.36, 9.55 30.39, 22.27 15.39 M-5.94 47.84 C0.23 40.99, 5.87 35.07, 22.27 15.39 M6.66 45.54 C11.93 39.57, 18.85 32.73, 21.75 28.18 M6.66 45.54 C10.34 41.61, 14.46 36.64, 21.75 28.18 M-25.35 38.31 C-25.35 38.31, -25.35 38.31, -25.35 38.31 M-25.35 38.31 C-25.35 38.31, -25.35 38.31, -25.35 38.31 M-1.23 48.67 C-10 41.65, -17.75 33.49, -25.39 27.68 M-1.23 48.67 C-7.96 43.07, -14.39 37.44, -25.39 27.68 M6.28 44.6 C-0.89 39.11, -8.39 32.23, -25.42 17.05 M6.28 44.6 C-0.56 38.47, -8.34 32.13, -25.42 17.05 M13.79 40.53 C3.89 31.45, -6.85 23.18, -23.19 8.39 M13.79 40.53 C-1.32 27.55, -15.98 15.06, -23.19 8.39 M21.3 36.46 C9.68 27.15, -1.56 16.48, -14.92 4.97 M21.3 36.46 C13.58 29.28, 5.32 22.07, -14.92 4.97 M21.27 25.83 C15.66 21.43, 9.8 16.76, -5.9 2.22 M21.27 25.83 C12.08 18.13, 3.58 10.54, -5.9 2.22 M21.99 15.86 C17.86 12.56, 13.09 9.27, 6.89 2.74 M21.99 15.86 C18.93 13.2, 16.02 10.21, 6.89 2.74" stroke="#ffffff" stroke-width="1" fill="none"></path><path d="M0 0 C-6.53 2.41, -13.09 4.76, -25.35 9.2 M0 0 C-6.18 2.1, -12.57 5.01, -25.35 9.2 M-25.35 9.2 C-25.67 18.44, -25.84 26.17, -25.64 38.05 M-25.35 9.2 C-25.27 19.52, -25.93 30.22, -25.64 38.05 M-25.64 38.05 C-18.1 41.93, -8.31 46.88, -3.09 49.65 M-25.64 38.05 C-19.06 41.44, -12.37 44.79, -3.09 49.65 M-3.09 49.65 C4.96 46.09, 11.54 43.28, 21.09 37.92 M-3.09 49.65 C1.74 47.01, 7.18 44.79, 21.09 37.92 M21.09 37.92 C20.54 27.43, 21.64 18.69, 21.61 10.2 M21.09 37.92 C21.4 29.9, 21.63 21.39, 21.61 10.2 M21.61 10.2 C17.23 7.14, 10.58 4.9, 0 0 M21.61 10.2 C15.98 7.65, 10.43 5.03, 0 0 M0 0 C0 0, 0 0, 0 0 M0 0 C0 0, 0 0, 0 0" stroke="#881fa3" stroke-width="2" fill="none"></path></g></g><mask></mask><g stroke-linecap="round"><g transform="translate(299.99274030442405 191.84111938126694) rotate(0 -2.01602922770158 24.825536618733047)" fill-rule="evenodd"><path d="M-25.63 9.52 C-25.63 9.52, -25.63 9.52, -25.63 9.52 M-25.63 9.52 C-25.63 9.52, -25.63 9.52, -25.63 9.52 M-25.5 21.56 C-20.31 15.22, -15.05 10.43, -9.75 3.45 M-25.5 21.56 C-22.77 18.21, -18.89 13.94, -9.75 3.45 M-25.36 33.6 C-15.07 22.13, -6.07 11.17, 2.85 1.15 M-25.36 33.6 C-18.65 25.28, -11.65 17, 2.85 1.15 M-20.64 40.36 C-13.65 32.08, -7.71 26.31, 10.2 4.89 M-20.64 40.36 C-9.87 28, 1.38 15.62, 10.2 4.89 M-13.29 44.1 C-5.31 34.69, 3.38 25.71, 17.55 8.63 M-13.29 44.1 C-3.59 33.61, 6.07 22.71, 17.55 8.63 M-5.94 47.84 C3.6 38.47, 12.75 28.18, 22.27 15.39 M-5.94 47.84 C4.56 36.24, 14.62 24.23, 22.27 15.39 M6.66 45.54 C13.21 39.11, 18.09 32.18, 21.75 28.18 M6.66 45.54 C9.43 41.82, 12.63 38.31, 21.75 28.18 M-25.35 38.31 C-25.35 38.31, -25.35 38.31, -25.35 38.31 M-25.35 38.31 C-25.35 38.31, -25.35 38.31, -25.35 38.31 M-1.23 48.67 C-8.13 44.23, -14.17 38.36, -25.39 27.68 M-1.23 48.67 C-6.04 44.53, -10.74 40.5, -25.39 27.68 M6.28 44.6 C-5.1 35.43, -15.13 25.74, -25.42 17.05 M6.28 44.6 C-1.72 37.82, -9.1 31.83, -25.42 17.05 M13.79 40.53 C1.4 31.11, -8.94 20.08, -23.19 8.39 M13.79 40.53 C0.31 28.27, -13.03 17.14, -23.19 8.39 M21.3 36.46 C6.98 23.72, -7.22 12.35, -14.92 4.97 M21.3 36.46 C9.18 26.01, -2.88 15.48, -14.92 4.97 M21.27 25.83 C13.93 18.92, 5.09 12.96, -5.9 2.22 M21.27 25.83 C12.41 17.87, 4.34 11, -5.9 2.22 M21.99 15.86 C17.22 11.08, 11.79 8.19, 6.89 2.74 M21.99 15.86 C15.81 10.96, 10.67 5.96, 6.89 2.74" stroke="#ffffff" stroke-width="1" fill="none"></path><path d="M0 0 C-9 3.04, -18.26 7.51, -25.35 9.2 M0 0 C-5.45 2.14, -10.91 3.87, -25.35 9.2 M-25.35 9.2 C-25.91 16.21, -25.99 23.39, -25.64 38.05 M-25.35 9.2 C-25.21 15.76, -25.49 22.82, -25.64 38.05 M-25.64 38.05 C-20.77 40.43, -14.79 42.5, -3.09 49.65 M-25.64 38.05 C-19.02 41.72, -12.56 44.6, -3.09 49.65 M-3.09 49.65 C4.1 45.98, 12.33 43.51, 21.09 37.92 M-3.09 49.65 C2.03 47.39, 8.04 44.06, 21.09 37.92 M21.09 37.92 C21.59 28.08, 22.39 17.81, 21.61 10.2 M21.09 37.92 C21.07 31.81, 20.9 25.43, 21.61 10.2 M21.61 10.2 C16.84 7.96, 13.69 6.25, 0 0 M21.61 10.2 C14.97 7.32, 9.11 4.7, 0 0 M0 0 C0 0, 0 0, 0 0 M0 0 C0 0, 0 0, 0 0" stroke="#881fa3" stroke-width="2" fill="none"></path></g></g><mask></mask><g stroke-linecap="round"><g transform="translate(177.512500304424 191.8411193812669) rotate(0 -2.016029227701594 24.82553661873304)" fill-rule="evenodd"><path d="M-25.63 9.52 C-25.63 9.52, -25.63 9.52, -25.63 9.52 M-25.63 9.52 C-25.63 9.52, -25.63 9.52, -25.63 9.52 M-25.5 21.56 C-19.94 15.6, -13.8 9.02, -9.75 3.45 M-25.5 21.56 C-20.34 15.94, -15.79 10, -9.75 3.45 M-25.36 33.6 C-19.33 27.35, -12.95 19.44, 2.85 1.15 M-25.36 33.6 C-18.87 26.69, -12.94 19.17, 2.85 1.15 M-20.64 40.36 C-12.34 30.22, -4.27 21.08, 10.2 4.89 M-20.64 40.36 C-10.34 28.3, 0.4 16.85, 10.2 4.89 M-13.29 44.1 C-4.74 33.48, 4.83 23.88, 17.55 8.63 M-13.29 44.1 C-2.65 32.13, 7.2 20.06, 17.55 8.63 M-5.94 47.84 C-0.67 41.2, 4.64 33.7, 22.27 15.39 M-5.94 47.84 C1.56 39.08, 9.09 30.86, 22.27 15.39 M6.66 45.54 C10.32 42.03, 14.2 37.31, 21.75 28.18 M6.66 45.54 C11.66 39.32, 16.75 33.57, 21.75 28.18 M-25.35 38.31 C-25.35 38.31, -25.35 38.31, -25.35 38.31 M-25.35 38.31 C-25.35 38.31, -25.35 38.31, -25.35 38.31 M-1.23 48.67 C-8.28 42.37, -14.75 36.29, -25.39 27.68 M-1.23 48.67 C-10.61 40.43, -19.45 33.59, -25.39 27.68 M6.28 44.6 C-4.47 34.56, -15.09 25.71, -25.42 17.05 M6.28 44.6 C-4.85 35.64, -14.85 25.8, -25.42 17.05 M13.79 40.53 C0.59 29.23, -13.28 16.85, -23.19 8.39 M13.79 40.53 C5.19 33.02, -3.09 25.42, -23.19 8.39 M21.3 36.46 C10.51 26.31, -1.58 17.13, -14.92 4.97 M21.3 36.46 C7.17 23.87, -6.68 12.19, -14.92 4.97 M21.27 25.83 C14.63 19.32, 8.68 14.17, -5.9 2.22 M21.27 25.83 C14.89 19.58, 8.05 13.81, -5.9 2.22 M21.99 15.86 C18.81 12.58, 15.85 10.74, 6.89 2.74 M21.99 15.86 C16.49 11.06, 11.28 5.96, 6.89 2.74" stroke="#fd7e14" stroke-width="1" fill="none"></path><path d="M0 0 C-7.17 2.08, -16.44 5.33, -25.35 9.2 M0 0 C-8.32 2.98, -16.25 5.83, -25.35 9.2 M-25.35 9.2 C-25.16 20.07, -25.53 31.52, -25.64 38.05 M-25.35 9.2 C-25.55 18.92, -25.16 28.37, -25.64 38.05 M-25.64 38.05 C-19.2 41.12, -11.44 45.42, -3.09 49.65 M-25.64 38.05 C-20.39 40.54, -14.97 43.8, -3.09 49.65 M-3.09 49.65 C5.99 45.03, 14.09 41.45, 21.09 37.92 M-3.09 49.65 C5.04 45.89, 13.64 41.33, 21.09 37.92 M21.09 37.92 C22.01 30.36, 22.08 22.08, 21.61 10.2 M21.09 37.92 C21.52 26.53, 21.91 15.81, 21.61 10.2 M21.61 10.2 C14.55 6.46, 8.61 3.88, 0 0 M21.61 10.2 C13.87 6.53, 6.89 2.66, 0 0 M0 0 C0 0, 0 0, 0 0 M0 0 C0 0, 0 0, 0 0" stroke="#881fa3" stroke-width="2" fill="none"></path></g></g><mask></mask><g stroke-linecap="round"><g transform="translate(198.831003304424 241.4921933812669) rotate(0 -2.01602922770158 24.82553661873304)" fill-rule="evenodd"><path d="M-25.63 9.52 C-25.63 9.52, -25.63 9.52, -25.63 9.52 M-25.63 9.52 C-25.63 9.52, -25.63 9.52, -25.63 9.52 M-25.5 21.56 C-21.2 15.6, -16.6 11.04, -9.75 3.45 M-25.5 21.56 C-21.86 16.57, -17.37 11.86, -9.75 3.45 M-25.36 33.6 C-19.08 26.39, -10.26 17.49, 2.85 1.15 M-25.36 33.6 C-16.91 24.55, -8.84 14.55, 2.85 1.15 M-20.64 40.36 C-7.62 26.36, 4.25 12.49, 10.2 4.89 M-20.64 40.36 C-8.49 26.8, 3.85 13.05, 10.2 4.89 M-13.29 44.1 C-6.13 36.21, 0.42 30.25, 17.55 8.63 M-13.29 44.1 C-0.81 29.8, 11.61 15.71, 17.55 8.63 M-5.94 47.84 C2.55 36.51, 12.16 25.65, 22.27 15.39 M-5.94 47.84 C0.14 41.37, 5.68 34.2, 22.27 15.39 M6.66 45.54 C11.76 39.66, 19.09 32.46, 21.75 28.18 M6.66 45.54 C11.83 39.28, 17.32 33.55, 21.75 28.18 M-25.35 38.31 C-25.35 38.31, -25.35 38.31, -25.35 38.31 M-25.35 38.31 C-25.35 38.31, -25.35 38.31, -25.35 38.31 M-1.23 48.67 C-7 42.27, -15.65 37.09, -25.39 27.68 M-1.23 48.67 C-10.61 41.05, -19.14 32.21, -25.39 27.68 M6.28 44.6 C-0.78 38.74, -8.14 33.13, -25.42 17.05 M6.28 44.6 C-2.21 36.36, -11.13 29.28, -25.42 17.05 M13.79 40.53 C4.19 32.78, -4.65 25.2, -23.19 8.39 M13.79 40.53 C0.91 29.22, -11.05 19.03, -23.19 8.39 M21.3 36.46 C6.54 25.1, -6.85 13.1, -14.92 4.97 M21.3 36.46 C7.6 24.4, -6.28 12.58, -14.92 4.97 M21.27 25.83 C15.37 19.61, 7.56 13.98, -5.9 2.22 M21.27 25.83 C15.52 20.87, 9.4 15.9, -5.9 2.22 M21.99 15.86 C16.19 10.01, 9.7 4.52, 6.89 2.74 M21.99 15.86 C17.73 12.7, 14.58 9.06, 6.89 2.74" stroke="#fd7e14" stroke-width="1" fill="none"></path><path d="M0 0 C-9.59 3.42, -19.45 6.16, -25.35 9.2 M0 0 C-6.21 1.65, -12.1 4.22, -25.35 9.2 M-25.35 9.2 C-24.52 18.85, -26.31 28.84, -25.64 38.05 M-25.35 9.2 C-25.26 17.89, -25.11 26.6, -25.64 38.05 M-25.64 38.05 C-18.89 41.87, -12.01 43.65, -3.09 49.65 M-25.64 38.05 C-19.94 40.86, -14.54 44.21, -3.09 49.65 M-3.09 49.65 C1.76 47.48, 8.31 44.93, 21.09 37.92 M-3.09 49.65 C5.72 46.16, 13.14 41.48, 21.09 37.92 M21.09 37.92 C21.66 30.21, 20.26 23.11, 21.61 10.2 M21.09 37.92 C21.7 27.5, 21.44 17.1, 21.61 10.2 M21.61 10.2 C14.45 6.2, 6.31 1.89, 0 0 M21.61 10.2 C16.3 8.14, 10.73 5.36, 0 0 M0 0 C0 0, 0 0, 0 0 M0 0 C0 0, 0 0, 0 0" stroke="#881fa3" stroke-width="2" fill="none"></path></g></g><mask></mask><g transform="translate(410.19132425878905 293.33331200000003) rotate(0 47.99999999999997 9.200000000000003)"><text x="0" y="0" font-family="Helvetica, Segoe UI Emoji" font-size="16px" fill="#1e1e1e" text-anchor="start" style="white-space: pre;" direction="ltr" dominant-baseline="text-before-edge">手机竖屏模式</text></g><g transform="translate(17.645392258788988 293.3333120000001) rotate(0 48 9.200000000000003)"><text x="0" y="0" font-family="Helvetica, Segoe UI Emoji" font-size="16px" fill="#1e1e1e" text-anchor="start" style="white-space: pre;" direction="ltr" dominant-baseline="text-before-edge">手机横屏模式</text></g><g transform="translate(425.338218258789 167.20214800000002) rotate(0 9.337890625 16.099999999999998)"><text x="0" y="0" font-family="Helvetica, Segoe UI Emoji" font-size="28px" fill="#1e1e1e" text-anchor="start" style="white-space: pre;" direction="ltr" dominant-baseline="text-before-edge">A</text></g><g transform="translate(288.59650025878904 200.56665600000002) rotate(0 9.337890625 16.1)"><text x="0" y="0" font-family="Helvetica, Segoe UI Emoji" font-size="28px" fill="#1e1e1e" text-anchor="start" style="white-space: pre;" direction="ltr" dominant-baseline="text-before-edge">A</text></g><g transform="translate(510.803498258789 124.45107399999999) rotate(0 19.12109375 9.2)"><text x="0" y="0" font-family="Helvetica, Segoe UI Emoji" font-size="16px" fill="#1e1e1e" text-anchor="start" style="white-space: pre;" direction="ltr" dominant-baseline="text-before-edge">Enter</text></g><g transform="translate(297.748471258789 259.307775) rotate(0 19.12109375 9.200000000000003)"><text x="0" y="0" font-family="Helvetica, Segoe UI Emoji" font-size="16px" fill="#1e1e1e" text-anchor="start" style="white-space: pre;" direction="ltr" dominant-baseline="text-before-edge">Enter</text></g><g stroke-linecap="round"><g transform="translate(25.00001625878906 171.66668701171875) rotate(0 29.666671752929688 -40.66667175292969)"><path d="M0 0 C18.38 -25.19, 36.76 -50.38, 59.33 -81.33 M0 0 C14.9 -20.42, 29.8 -40.85, 59.33 -81.33" stroke="#1e1e1e" stroke-width="2" fill="none"></path></g><g transform="translate(25.00001625878906 171.66668701171875) rotate(0 29.666671752929688 -40.66667175292969)"><path d="M52.4 -57.32 C54.54 -64.75, 56.69 -72.19, 59.33 -81.33 M52.4 -57.32 C54.14 -63.35, 55.88 -69.38, 59.33 -81.33" stroke="#1e1e1e" stroke-width="2" fill="none"></path></g><g transform="translate(25.00001625878906 171.66668701171875) rotate(0 29.666671752929688 -40.66667175292969)"><path d="M38.58 -67.39 C45.01 -71.71, 51.44 -76.03, 59.33 -81.33 M38.58 -67.39 C43.79 -70.89, 49 -74.39, 59.33 -81.33" stroke="#1e1e1e" stroke-width="2" fill="none"></path></g></g><mask></mask><g stroke-linecap="round"><g transform="translate(411.6667032705078 49.66668701171875) rotate(0 -71.66665649414062 0.666656494140625)"><path d="M0 0 C-28.83 0.27, -57.65 0.54, -143.33 1.33 M0 0 C-49.81 0.46, -99.62 0.93, -143.33 1.33" stroke="#1e1e1e" stroke-width="2" fill="none"></path></g><g transform="translate(411.6667032705078 49.66668701171875) rotate(0 -71.66665649414062 0.666656494140625)"><path d="M-119.92 -7.44 C-124.63 -5.67, -129.34 -3.91, -143.33 1.33 M-119.92 -7.44 C-128.06 -4.39, -136.19 -1.34, -143.33 1.33" stroke="#1e1e1e" stroke-width="2" fill="none"></path></g><g transform="translate(411.6667032705078 49.66668701171875) rotate(0 -71.66665649414062 0.666656494140625)"><path d="M-119.76 9.66 C-124.5 7.99, -129.24 6.31, -143.33 1.33 M-119.76 9.66 C-127.95 6.77, -136.14 3.87, -143.33 1.33" stroke="#1e1e1e" stroke-width="2" fill="none"></path></g></g><mask></mask></svg>