<?xml version="1.0" encoding="iso-8859-1"?>
<!-- Uploaded to: SVG Repo, www.svgrepo.com, Generator: SVG Repo Mixer Tools -->
<!DOCTYPE svg PUBLIC "-//W3C//DTD SVG 1.1//EN" "http://www.w3.org/Graphics/SVG/1.1/DTD/svg11.dtd">
<svg fill="#000000" version="1.1" id="Capa_1" xmlns="http://www.w3.org/2000/svg" xmlns:xlink="http://www.w3.org/1999/xlink" 
	 width="800px" height="800px" viewBox="0 0 169.351 169.351"
	 xml:space="preserve">
<g>
	<g>
		<path d="M19.449,100.249c0,8.281,50.336,8.281,50.336,0c0-7.003-8.068-16.465-18.962-19.229c4.552-3.054,7.691-9.101,7.691-14.538
			c0-7.675-6.217-13.904-13.898-13.904c-7.675,0-13.899,6.229-13.899,13.904c0,5.438,3.136,11.484,7.676,14.538
			C27.523,83.784,19.449,93.246,19.449,100.249z M43.498,85.062h-0.061l-2.302-2.648c1.12,0.396,2.268,0.651,3.486,0.651
			c1.215,0,2.363-0.243,3.483-0.64l-2.305,2.637h-0.058l5.943,14.358l-7.063,7.039l-7.06-7.039L43.498,85.062z"/>
		<path d="M69.785,79.509c0,1.802,1.44,3.251,3.242,3.251h39.391c0.512-0.365,1.114-0.694,1.937-0.925v-5.572H73.027
			C71.234,76.263,69.785,77.715,69.785,79.509z"/>
		<path d="M114.354,61.467H73.027c-1.793,0-3.242,1.446-3.242,3.249c0,1.79,1.44,3.249,3.242,3.249h41.327V61.467z"/>
		<path d="M20.164,128.612c-6.67,0-12.096-5.432-12.096-12.093V42.52c0-6.667,5.426-12.093,12.096-12.093h94.19v-8.062h-94.19
			C9.042,22.365,0,31.402,0,42.52v73.993c0,11.118,9.042,20.148,20.164,20.148h94.738l2.156-8.062H20.164V128.612z"/>
		<path d="M153.995,23.007v8.431c4.287,1.863,7.289,6.123,7.289,11.082v73.993c0,6.234-4.769,11.319-10.827,11.965l2.101,7.855
			c9.518-1.62,16.794-9.853,16.794-19.82V42.52C169.351,33.073,162.788,25.178,153.995,23.007z"/>
		<path d="M119.469,75.518c1.912-2.271,5.206-2.409,8.805,0.085c3.021-6.348,8.769-6.342,11.795-0.006
			c3.599-2.494,6.887-2.356,8.805-0.079c1.163,1.382,1.626,3.339,1.419,5.976c0.231-0.023,0.371,0.037,0.591,0.024V16.23h-33.411
			v65.3c0.219,0,0.353-0.055,0.597-0.037C117.837,78.864,118.312,76.9,119.469,75.518z"/>
		<path d="M128.579,119.083c-0.098-0.024-0.183-0.055-0.286-0.092c-2.211,1.596-4.232,2.083-5.895,1.767l-7.154,26.707l6.929-4.713
			l3.075,7.404l7.143-26.652C130.905,122.851,129.62,121.396,128.579,119.083z"/>
		<path d="M140.056,118.991c-0.097,0.037-0.188,0.067-0.286,0.092c-1.205,2.697-2.752,4.189-4.555,4.622l7.886,29.416l2.667-10.084
			l7.35,7.398l-7.922-29.538C143.673,120.916,141.926,120.349,140.056,118.991z"/>
		<path d="M137.846,116.86c0.938-0.183,1.827-0.487,2.722-0.792c4.865,4.092,7.514,2.558,6.406-3.702
			c0.7-0.608,1.352-1.267,1.954-1.973c6.272,1.12,7.794-1.534,3.702-6.394c0.311-0.889,0.615-1.771,0.792-2.716
			c5.882-2.168,5.882-5.188-0.013-7.355c-0.17-0.938-0.469-1.827-0.779-2.716c4.092-4.865,2.558-7.514-3.702-6.406
			c-0.615-0.693-1.267-1.352-1.961-1.961c1.108-6.262-1.54-7.791-6.405-3.701c-0.889-0.305-1.766-0.604-2.716-0.78
			c-2.168-5.897-5.188-5.897-7.355,0c-0.932,0.176-1.827,0.475-2.716,0.78c-4.865-4.089-7.515-2.561-6.394,3.701
			c-0.707,0.621-1.364,1.268-1.974,1.967c-6.259-1.113-7.794,1.541-3.702,6.4c-0.304,0.895-0.608,1.777-0.779,2.716
			c-5.894,2.167-5.894,5.2,0,7.355c0.177,0.938,0.476,1.827,0.779,2.722c-4.092,4.865-2.557,7.514,3.702,6.4
			c0.615,0.706,1.267,1.352,1.961,1.96c-1.108,6.267,1.541,7.794,6.406,3.702c0.889,0.305,1.777,0.609,2.728,0.792
			C132.658,122.748,135.691,122.748,137.846,116.86z"/>
	</g>
</g>
</svg>