<svg width="515" height="404" viewBox="0 0 515 404" fill="none" xmlns="http://www.w3.org/2000/svg">
<path d="M378.294 279.482C377.967 279.627 377.684 279.857 377.476 280.148C377.267 280.439 377.141 280.78 377.11 281.137L377.016 314.231C377.05 313.874 377.178 313.533 377.386 313.241C377.593 312.948 377.874 312.715 378.2 312.564L394.241 303.239L394.336 270.145L378.294 279.482Z" fill="#280A38"/>
<path d="M450.24 291.219L450.146 324.313C450.146 322.162 448.82 320.011 446.156 318.321L445.635 318.002C444.382 317.289 443.046 316.734 441.657 316.347C441.281 316.242 440.919 316.091 440.58 315.898C440.251 315.744 439.969 315.507 439.762 315.211C439.554 314.914 439.428 314.568 439.396 314.208L439.49 281.113C439.52 281.474 439.645 281.821 439.853 282.118C440.061 282.415 440.345 282.652 440.674 282.803C441.014 282.997 441.375 283.148 441.752 283.253C443.139 283.644 444.474 284.2 445.73 284.907L446.251 285.226C448.914 286.917 450.24 289.056 450.24 291.219Z" fill="#280A38"/>
<path d="M387.908 291.219L387.813 324.313C387.813 326.677 386.215 328.982 383.077 330.731C377.312 333.887 368.148 333.934 362.252 330.849L361.708 330.542C360.628 329.942 359.656 329.167 358.831 328.249C358.605 328.001 358.341 327.789 358.049 327.623C357.159 327.168 356.173 326.931 355.173 326.931C354.172 326.931 353.186 327.168 352.296 327.623L352.39 294.528C353.281 294.074 354.267 293.837 355.267 293.837C356.267 293.837 357.253 294.074 358.144 294.528C358.436 294.695 358.7 294.906 358.926 295.155C359.751 296.073 360.723 296.848 361.802 297.448L362.347 297.755C368.267 300.84 377.406 300.793 383.172 297.637C386.309 295.887 387.908 293.559 387.908 291.219Z" fill="#280A38"/>
<path d="M394.384 270.145L378.294 279.482C376.672 280.427 376.755 281.917 378.294 282.803C378.626 282.988 378.98 283.131 379.348 283.229C380.759 283.628 382.118 284.192 383.397 284.907C389.506 288.453 389.435 294.185 383.148 297.637C377.383 300.792 368.219 300.84 362.323 297.755L361.779 297.447C360.699 296.847 359.727 296.073 358.902 295.154C358.676 294.906 358.412 294.695 358.12 294.528C357.23 294.074 356.244 293.837 355.244 293.837C354.243 293.837 353.257 294.074 352.367 294.528L336.514 303.724L320.555 294.528C318.933 293.5 319.04 292.058 320.555 291.207C320.888 291.02 321.242 290.873 321.609 290.769C322.997 290.366 324.33 289.791 325.575 289.056C331.494 285.51 331.494 280.037 325.646 276.598L325.184 276.338C321.94 274.776 318.387 273.955 314.785 273.934C311.183 273.914 307.621 274.695 304.359 276.22L303.826 276.503C302.752 277.111 301.785 277.89 300.961 278.808C300.744 279.056 300.488 279.268 300.204 279.435C299.31 279.886 298.323 280.122 297.321 280.122C296.319 280.122 295.332 279.886 294.438 279.435L278.219 270.145L336.1 236.554L394.384 270.145Z" fill="#FF9F00"/>
<path d="M352.355 294.528L352.26 327.646L336.408 336.842L336.502 303.724L352.355 294.528Z" fill="#280A38"/>
<path d="M414.806 312.919L398.859 303.724L398.764 336.818L414.711 346.014C415.039 346.161 415.322 346.394 415.53 346.686C415.738 346.979 415.864 347.322 415.895 347.68L415.978 314.586C415.952 314.228 415.829 313.884 415.622 313.591C415.416 313.298 415.134 313.065 414.806 312.919Z" fill="#280A38"/>
<path d="M353.657 314.586L353.562 347.68C353.562 348.531 352.769 349.359 351.301 349.784C349.721 350.232 348.211 350.896 346.814 351.758C344.21 353.425 342.907 355.552 342.907 357.668L342.99 324.573C342.99 322.458 344.304 320.33 346.909 318.664C348.306 317.802 349.816 317.137 351.396 316.69C352.805 316.241 353.657 315.437 353.657 314.586Z" fill="#280A38"/>
<path d="M405.252 357.691L405.347 324.597C405.347 326.819 406.744 329.029 409.538 330.731L409.846 330.92C415.86 334.383 425.568 334.383 431.535 330.92C432.63 330.308 433.607 329.508 434.423 328.556C435.607 327.126 438.958 326.842 440.923 327.965L440.828 361.06C438.875 359.937 435.548 360.22 434.329 361.651C433.506 362.595 432.529 363.394 431.44 364.014C425.52 367.478 415.765 367.478 409.763 364.014L409.443 363.825C406.649 362.123 405.252 359.901 405.252 357.691Z" fill="white"/>
<path d="M515 303.724L457.119 337.303L440.923 327.965C438.958 326.843 435.643 327.126 434.423 328.556C433.608 329.508 432.63 330.308 431.535 330.92C425.615 334.383 415.86 334.383 409.846 330.92L409.538 330.731C404.056 327.386 403.938 322.091 409.265 318.687C410.658 317.825 412.164 317.161 413.741 316.713C416.239 315.992 416.783 314.089 414.806 312.943L398.859 303.747L414.7 294.552C415.592 294.103 416.577 293.869 417.576 293.869C418.576 293.869 419.561 294.103 420.453 294.552C420.734 294.715 420.986 294.922 421.199 295.167C422.035 296.112 423.023 296.911 424.123 297.53C430.232 301.076 440.177 300.994 446.121 297.353C451.555 294.008 451.614 288.713 446.251 285.309L445.73 284.99C444.474 284.283 443.139 283.727 441.752 283.335C441.376 283.231 441.014 283.08 440.675 282.886C439.135 282 439.005 280.522 440.675 279.565L456.764 270.228L515 303.724Z" fill="#3264FF"/>
<path d="M515 303.724L514.905 336.842L457.024 370.421L457.119 337.303L515 303.724Z" fill="white"/>
<path d="M457.119 337.302L457.024 370.42L440.828 361.083L440.923 327.965L457.119 337.302Z" fill="#280A38"/>
<path d="M325.504 276.551C331.423 280.097 331.494 285.569 325.717 289.008C324.41 289.772 323.009 290.364 321.55 290.769C321.182 290.873 320.829 291.02 320.496 291.207C319.028 292.058 318.909 293.5 320.413 294.445L336.502 303.724L320.65 312.919C320.25 313.148 319.819 313.319 319.371 313.427C317.867 313.798 316.279 313.618 314.896 312.919C314.604 312.753 314.34 312.541 314.115 312.293C313.29 311.35 312.314 310.551 311.226 309.929L310.693 309.633C309.979 309.262 309.239 308.942 308.479 308.676C302.6 306.655 296.172 306.925 290.484 309.432L289.868 309.751C289.075 310.224 288.921 310.319 288.767 310.425C283.641 313.971 283.937 319.124 289.489 322.398C289.963 322.67 290.318 322.859 290.673 323.036C291.642 323.486 292.643 323.861 293.669 324.159C294.024 324.259 294.366 324.402 294.687 324.585C295.871 325.259 296.214 326.299 295.575 327.161C295.356 327.445 295.087 327.685 294.781 327.871L278.621 337.243L220.349 303.664L278.219 270.145L294.414 279.482C295.308 279.934 296.296 280.169 297.297 280.169C298.299 280.169 299.286 279.934 300.18 279.482C300.465 279.315 300.721 279.104 300.938 278.855C301.761 277.937 302.729 277.158 303.803 276.551L304.336 276.267C307.598 274.742 311.159 273.961 314.761 273.982C318.364 274.002 321.916 274.823 325.16 276.385L325.504 276.551Z" fill="#3264FF"/>
<path d="M278.621 337.303L278.526 370.421L220.254 336.842L220.349 303.724L278.621 337.303Z" fill="#280A38"/>
<path d="M394.762 337.302L336.881 370.893L278.621 337.302L294.71 327.965C295.034 327.78 295.322 327.54 295.563 327.256C296.214 326.357 295.882 325.317 294.722 324.644C294.395 324.465 294.05 324.323 293.692 324.218C292.698 323.938 291.728 323.579 290.792 323.142C290.318 322.918 289.963 322.729 289.608 322.54C283.925 319.183 283.629 314.053 288.59 310.59L289.276 310.141C290.022 309.716 290.188 309.633 290.365 309.55C296.082 307.015 302.546 306.723 308.467 308.735C309.227 309.001 309.967 309.32 310.681 309.692L311.214 309.987C312.302 310.61 313.278 311.409 314.103 312.351C314.329 312.6 314.592 312.811 314.884 312.978C316.255 313.675 317.831 313.855 319.324 313.486C319.785 313.383 320.228 313.212 320.638 312.978L336.491 303.782L352.438 312.978C354.427 314.16 353.87 316.027 351.384 316.748C349.804 317.196 348.294 317.86 346.897 318.722C341.57 322.126 341.7 327.421 347.169 330.766L347.489 330.955C353.491 334.418 363.199 334.418 369.178 330.955C370.27 330.339 371.248 329.539 372.067 328.591C373.251 327.161 376.601 326.877 378.555 328.012L394.762 337.302Z" fill="#FF9F00"/>
<path d="M394.762 337.303L394.668 370.421L336.786 404L336.881 370.894L394.762 337.303Z" fill="white"/>
<path d="M336.881 370.894L336.786 404L278.526 370.421L278.621 337.303L336.881 370.894Z" fill="#280A38"/>
<path d="M136.706 195.151C137.033 195.299 137.315 195.532 137.523 195.825C137.731 196.117 137.857 196.46 137.89 196.817L137.984 229.911C137.95 229.555 137.822 229.213 137.614 228.921C137.407 228.629 137.126 228.396 136.8 228.245L120.759 218.943L120.664 185.849L136.706 195.151Z" fill="#280A38"/>
<path d="M64.7598 206.9L64.8545 239.994C64.8545 237.843 66.1805 235.692 68.8443 234.002C69.0108 233.884 69.1848 233.777 69.3652 233.682C70.6182 232.97 71.9542 232.414 73.3431 232.028C73.7194 231.923 74.0813 231.772 74.4205 231.579C74.7487 231.425 75.0307 231.188 75.2385 230.891C75.4462 230.595 75.5724 230.249 75.6044 229.888L75.5097 196.794C75.4789 197.155 75.3532 197.501 75.1453 197.798C74.9374 198.095 74.6547 198.331 74.3257 198.484C73.9866 198.678 73.6247 198.828 73.2484 198.933C71.8613 199.325 70.5259 199.881 69.2705 200.588L68.7495 200.907C66.0857 202.597 64.7598 204.748 64.7598 206.9Z" fill="#280A38"/>
<path d="M127.093 206.899L127.187 239.994C127.187 242.358 128.786 244.663 131.923 246.412C137.688 249.568 146.852 249.615 152.748 246.518L153.292 246.223C154.372 245.623 155.344 244.848 156.169 243.93C156.395 243.681 156.659 243.47 156.951 243.303C157.841 242.849 158.827 242.612 159.828 242.612C160.828 242.612 161.814 242.849 162.704 243.303L162.61 210.209C161.719 209.754 160.733 209.518 159.733 209.518C158.733 209.518 157.747 209.754 156.856 210.209C156.564 210.375 156.3 210.587 156.075 210.835C155.249 211.753 154.277 212.528 153.198 213.128L152.724 213.412C146.805 216.497 137.665 216.45 131.899 213.294C128.691 211.568 127.093 209.24 127.093 206.899Z" fill="#280A38"/>
<path d="M120.616 185.825L136.706 195.151C138.328 196.096 138.245 197.597 136.706 198.484C136.374 198.669 136.02 198.812 135.652 198.909C134.241 199.309 132.882 199.872 131.603 200.588C125.494 204.134 125.565 209.866 131.852 213.317C137.617 216.473 146.781 216.52 152.677 213.435L153.221 213.128C154.301 212.528 155.273 211.753 156.098 210.835C156.324 210.587 156.588 210.375 156.88 210.209C157.77 209.754 158.756 209.517 159.756 209.517C160.757 209.517 161.743 209.754 162.633 210.209L178.486 219.404L194.445 210.209C196.067 209.181 195.96 207.739 194.445 206.888C194.112 206.701 193.758 206.554 193.391 206.45C191.986 206.058 190.634 205.494 189.366 204.772C183.446 201.226 183.446 195.754 189.295 192.314L189.757 192.054C193.001 190.492 196.554 189.671 200.156 189.651C203.758 189.63 207.319 190.411 210.582 191.936L211.114 192.22C212.188 192.827 213.156 193.606 213.979 194.524C214.197 194.773 214.452 194.984 214.737 195.151C215.631 195.603 216.618 195.838 217.62 195.838C218.622 195.838 219.609 195.603 220.503 195.151L236.699 185.813L178.817 152.223L120.616 185.825Z" fill="#FF9F00"/>
<path d="M162.645 210.209L162.74 243.327L178.593 252.523L178.498 219.405L162.645 210.209Z" fill="#280A38"/>
<path d="M100.194 228.6L116.141 219.404L116.236 252.499L100.289 261.694C99.9609 261.842 99.6784 262.074 99.4703 262.367C99.2623 262.66 99.1361 263.003 99.1048 263.361L99.022 230.266C99.0484 229.909 99.1714 229.565 99.3777 229.272C99.5841 228.978 99.8662 228.746 100.194 228.6Z" fill="#280A38"/>
<path d="M161.343 230.267L161.438 263.361C161.438 264.212 162.231 265.039 163.699 265.465C165.279 265.913 166.789 266.577 168.186 267.439C170.791 269.105 172.093 271.233 172.093 273.348L172.01 240.254C172.01 238.138 170.696 236.011 168.091 234.344C166.694 233.482 165.184 232.818 163.604 232.37C162.195 231.945 161.343 231.141 161.343 230.267Z" fill="#280A38"/>
<path d="M109.748 273.372L109.654 240.277C109.654 242.488 108.257 244.71 105.463 246.412L105.155 246.601C99.1405 250.064 89.4324 250.064 83.4655 246.601C82.3739 245.984 81.3967 245.184 80.5768 244.237C79.3929 242.807 76.0424 242.523 74.0771 243.646L74.1719 276.74C76.1253 275.558 79.4521 275.901 80.6715 277.331C81.4946 278.276 82.4712 279.075 83.5603 279.695C89.4798 283.158 99.2352 283.158 105.238 279.695L105.557 279.506C108.351 277.804 109.748 275.582 109.748 273.372Z" fill="white"/>
<path d="M0 219.404L57.8813 252.983L74.0771 243.646C76.0424 242.523 79.3574 242.807 80.5768 244.237C81.3967 245.185 82.3739 245.984 83.4655 246.601C89.3851 250.064 99.1405 250.064 105.155 246.601L105.463 246.412C110.944 243.067 111.062 237.772 105.735 234.368C104.342 233.506 102.836 232.841 101.26 232.394C98.7616 231.673 98.217 229.77 100.194 228.624L116.141 219.428L100.301 210.233C99.4084 209.784 98.423 209.55 97.4238 209.55C96.4246 209.55 95.4392 209.784 94.5469 210.233C94.2662 210.395 94.0142 210.603 93.801 210.847C92.9654 211.793 91.977 212.592 90.8768 213.211C84.7678 216.757 74.823 216.674 68.8798 213.034C63.4456 209.689 63.3864 204.382 68.7495 200.99L69.2705 200.671C70.5259 199.963 71.8613 199.408 73.2484 199.016C73.6247 198.911 73.9866 198.76 74.3258 198.567C75.8648 197.68 75.9951 196.203 74.3258 195.234L58.2364 185.908L0 219.404Z" fill="#3264FF"/>
<path d="M0 219.404L0.0947126 252.522L57.976 286.101L57.8813 252.983L0 219.404Z" fill="white"/>
<path d="M57.8813 252.983L57.9761 286.101L74.1719 276.764L74.0772 243.646L57.8813 252.983Z" fill="#280A38"/>
<path d="M189.496 192.231C183.577 195.777 183.506 201.25 189.283 204.689C190.593 205.448 191.993 206.04 193.451 206.45C193.818 206.554 194.171 206.701 194.504 206.887C195.972 207.738 196.091 209.18 194.587 210.126L178.498 219.404L194.35 228.6C194.749 228.829 195.18 228.997 195.629 229.096C197.132 229.477 198.722 229.3 200.104 228.6C200.396 228.433 200.66 228.222 200.885 227.973C201.715 227.052 202.691 226.273 203.774 225.668L204.307 225.373C205.021 225.002 205.761 224.682 206.521 224.416C212.401 222.395 218.828 222.665 224.516 225.172L225.132 225.491C225.925 225.964 226.079 226.059 226.233 226.165C231.359 229.711 231.063 234.864 225.511 238.138C225.037 238.41 224.682 238.599 224.327 238.776C223.36 239.246 222.359 239.641 221.332 239.958C220.976 240.058 220.634 240.201 220.313 240.384C219.13 241.057 218.786 242.086 219.425 242.96C219.644 243.244 219.913 243.484 220.219 243.669L236.379 253.042L294.651 219.463L236.782 185.825L220.586 195.163C219.692 195.614 218.705 195.85 217.703 195.85C216.701 195.85 215.714 195.614 214.82 195.163C214.535 194.996 214.28 194.784 214.062 194.536C213.239 193.618 212.271 192.839 211.197 192.231L210.665 191.948C207.402 190.423 203.841 189.642 200.239 189.662C196.637 189.683 193.084 190.504 189.84 192.066L189.496 192.231Z" fill="#3264FF"/>
<path d="M236.379 252.983L236.474 286.101L294.746 252.522L294.651 219.404L236.379 252.983Z" fill="#280A38"/>
<path d="M120.238 252.983L178.119 286.562L236.379 252.983L220.29 243.646C219.963 243.461 219.674 243.216 219.437 242.925C218.786 242.039 219.118 240.998 220.278 240.325C220.605 240.146 220.95 240.004 221.308 239.899C222.302 239.62 223.273 239.26 224.209 238.824C224.682 238.599 225.037 238.41 225.393 238.221C231.075 234.864 231.312 229.734 226.411 226.271L225.724 225.822C224.978 225.397 224.812 225.314 224.635 225.231C218.918 222.696 212.455 222.404 206.533 224.416C205.773 224.682 205.033 225.002 204.319 225.373L203.786 225.669C202.703 226.273 201.727 227.052 200.897 227.973C200.672 228.222 200.408 228.433 200.116 228.6C198.746 229.297 197.169 229.477 195.676 229.108C195.215 229.005 194.772 228.834 194.362 228.6L178.51 219.404L162.563 228.6C160.574 229.782 161.13 231.649 163.616 232.37C165.196 232.818 166.706 233.482 168.103 234.344C173.431 237.748 173.301 243.043 167.831 246.388L167.511 246.577C161.509 250.04 151.801 250.04 145.822 246.577C144.733 245.957 143.756 245.158 142.933 244.213C141.749 242.783 138.399 242.499 136.445 243.622L120.238 252.983Z" fill="#FF9F00"/>
<path d="M120.238 252.983L120.333 286.101L178.214 319.68L178.119 286.562L120.238 252.983Z" fill="white"/>
<path d="M178.119 286.562L178.214 319.68L236.474 286.101L236.379 252.983L178.119 286.562Z" fill="#280A38"/>
<path opacity="0.2" d="M335.366 339.123C359.872 339.123 379.738 327.672 379.738 313.546C379.738 299.42 359.872 287.969 335.366 287.969C310.859 287.969 290.993 299.42 290.993 313.546C290.993 327.672 310.859 339.123 335.366 339.123Z" fill="#0B0244"/>
<path d="M308.124 236.944C307.568 238.451 307.171 240.012 306.94 241.601C307.69 243.247 308.658 244.785 309.817 246.175C311.213 247.815 312.84 249.245 314.647 250.418C315.695 250.967 316.666 251.65 317.536 252.451C317.748 252.431 317.951 252.358 318.128 252.239C318.128 252.239 318.495 249.674 317.406 248.433C316.316 247.192 317.938 245.336 317.938 245.336L315.156 238.067L308.124 236.944Z" fill="#FCD1C5"/>
<path d="M334.869 317.316C332.05 317.952 329.183 318.347 326.297 318.498C322.07 318.64 310.575 320.862 310.8 324.928C311.025 328.994 316.909 334.986 324.379 335.873C331.85 336.759 341.498 334.691 346.364 334.868C347.486 334.912 348.601 334.675 349.608 334.178C350.614 333.681 351.48 332.941 352.126 332.024C352.773 331.107 353.179 330.044 353.308 328.93C353.436 327.817 353.284 326.689 352.864 325.649C351.064 321.051 334.869 317.316 334.869 317.316Z" fill="black"/>
<path d="M360.334 306.348C360.334 306.348 361.885 308.853 361.057 310.366C360.228 311.879 358.061 315.685 351.313 311.974C344.565 308.262 331.494 302.979 331.494 302.979C331.494 302.979 323.988 299.055 324.486 294.457C324.983 289.86 331.944 290.604 331.944 290.604L360.334 306.348Z" fill="black"/>
<path d="M285.156 141.243C285.156 141.243 280.693 141.302 278.727 140.415C276.762 139.529 271.068 137.661 270.712 137.472C270.357 137.283 267.161 137.082 265.775 136.16C265.567 136.226 265.381 136.348 265.237 136.513C265.094 136.678 265 136.88 264.964 137.095C264.928 137.31 264.953 137.532 265.036 137.734C265.119 137.936 265.256 138.111 265.432 138.24C266.485 139.123 267.75 139.718 269.102 139.966L271.363 141.278C271.363 141.278 266.794 143.642 266.379 143.796C265.965 143.949 262.129 146.892 261.75 147.069C261.371 147.247 259.643 148.571 260.306 149.753C260.306 149.753 260.377 150.024 261.229 150.202C261.229 150.202 258.779 151.313 259.382 152.566C259.986 153.818 261.549 153.251 261.549 153.251C261.549 153.251 262.129 155.402 265.101 153.736C265.101 153.736 265.444 156.407 272.003 153.617C273.502 153.228 275.047 153.037 276.596 153.05C280.163 152.833 283.619 151.728 286.648 149.835C289.454 147.802 285.156 141.243 285.156 141.243Z" fill="#E5D6C9"/>
<path d="M276.585 153.003C280.152 152.786 283.607 151.681 286.636 149.788C288.53 148.452 287.204 145.06 286.127 142.956C284.789 142.306 283.617 141.774 283.617 141.774C283.617 141.774 283.818 148.263 283.617 149.232C283.416 150.202 277.603 151.36 273.838 151.915C270.898 152.421 267.989 153.092 265.125 153.925C265.42 154.516 266.675 155.804 271.944 153.558C273.459 153.169 275.02 152.982 276.585 153.003Z" fill="#D9BFAD"/>
<path d="M336.763 128.643C336.763 128.643 327.493 130.262 324.332 131.266C321.171 132.271 294.734 137.495 284.955 139.871C284.66 139.957 284.394 140.121 284.186 140.346C283.977 140.57 283.834 140.848 283.771 141.148C283.622 141.675 283.598 142.229 283.7 142.767C283.972 143.866 284.884 154.858 290.306 153.062C293.652 152.146 297.058 151.467 300.5 151.029C304.312 150.52 320.555 149.279 320.555 149.279L348.034 133.571L336.763 128.643Z" fill="#B066FF"/>
<path d="M316.861 240.431C316.861 240.431 319.324 270.712 325.362 282.141C331.399 293.571 332.82 314.716 334.063 318.782C335.306 322.847 339.249 328.556 345.63 329.797C352.011 331.038 353.136 326.854 352.876 324.337C352.615 321.819 350.922 317.753 350.958 315.023C351.072 313.25 351.358 311.493 351.81 309.775C351.81 309.775 359.091 311.891 360.334 306.407C360.054 305.618 359.84 304.808 359.695 303.984C359.624 303.168 360.808 283.205 361.045 280.782C361.281 278.359 360.228 265.216 358.322 258.703C356.415 252.191 357.41 238.469 357.41 238.469L336.313 235.396L316.861 240.431Z" fill="#280A38"/>
<path d="M351.112 240.596C350.924 243.614 350.144 246.566 348.815 249.283C348.815 249.283 348.519 265.322 346.66 273.407C346.66 273.407 349.028 289.611 350.638 294.682C352.248 299.752 351.822 309.728 351.822 309.728C352.476 309.942 353.158 310.062 353.846 310.083C355.03 310.083 355.563 290.427 353.846 286.928C352.13 283.43 351.017 267.946 351.81 263.219C352.603 258.491 352.663 244.993 353.633 242.605C353.915 241.966 353.961 241.248 353.764 240.577C353.567 239.907 353.139 239.328 352.556 238.941L351.112 240.596Z" fill="black"/>
<path d="M335.366 128.891C335.366 128.891 329.02 133.287 329.198 141.029L333.862 140.131C333.862 140.131 332.678 131.515 335.366 128.891Z" fill="#8C52CC"/>
<path d="M335.567 247.026C349.572 247.558 357.256 241.578 357.256 241.578C357.327 239.663 357.41 238.41 357.41 238.41L336.313 235.337L316.861 240.431C316.861 240.431 317.346 246.424 318.424 254.094C321.857 254.473 325.385 246.282 325.385 246.282L334.999 246.955C334.999 246.955 321.549 246.506 335.567 247.026Z" fill="black"/>
<path d="M319.572 240.904C319.572 240.904 349.833 253.291 365.058 230.42C365.495 229.745 365.718 228.954 365.697 228.151L365.638 222.761C365.627 222.08 365.744 221.402 365.982 220.764C366.482 219.387 366.62 217.906 366.384 216.461C365.378 210.41 362.667 193.886 362.039 189.277C361.281 183.651 364.821 161.146 370.161 151.454C375.5 141.762 362.974 119.707 362.974 119.707C361.999 118.191 360.561 117.027 358.873 116.389C357.184 115.75 355.335 115.671 353.598 116.162C353.598 116.162 359.517 120.417 356.12 124.742C352.722 129.068 342.86 132.461 342.86 132.461C342.86 132.461 324.557 141.491 318.164 152.719C316.683 156.994 315.83 161.461 315.63 165.98C315.334 173.45 315.89 191.345 315.535 193.815C315.18 196.286 313.961 213.199 314.044 213.991C314.126 214.783 319.572 240.904 319.572 240.904Z" fill="#B066FF"/>
<path d="M328.795 243.468C328.795 243.468 347.737 196.025 347.228 178.556C346.743 161.441 320.164 212.667 320.164 212.667L319.572 240.903C322.566 242.024 325.652 242.883 328.795 243.468Z" fill="#8C52CC"/>
<path d="M319.999 186.971C320.73 183.07 321.157 179.119 321.277 175.152C321.478 168.273 323.645 156.855 336.254 159.018C354.012 162.08 345.926 186.581 343.89 190.836C341.853 195.091 333.708 214.345 333.235 215.432C332.761 216.52 320.212 240.253 315.713 245.974C315.623 246.095 315.51 246.197 315.38 246.273C315.249 246.349 315.105 246.397 314.955 246.415C314.805 246.433 314.653 246.42 314.508 246.376C314.364 246.333 314.23 246.26 314.114 246.163C312.362 244.674 308.432 241.14 307.946 238.918C307.319 236.057 310.03 225.715 310.03 225.715C310.03 225.715 317.358 199.713 317.962 198.531C318.471 197.621 318.826 193.318 319.999 186.971Z" fill="#B066FF"/>
<path d="M335.661 129.494C335.238 128.555 334.592 127.735 333.779 127.102C332.966 126.47 332.011 126.045 330.997 125.865C327.706 125.475 325.847 124.541 325.527 123.312C325.326 121.779 324.969 120.27 324.462 118.809C323.801 116.731 323.345 114.593 323.1 112.426C323.1 112.32 320.614 111.528 320.507 110.417C320.401 109.306 321.774 105.406 321.632 105.098C320.871 103.679 320.465 102.098 320.448 100.489C320.606 98.1306 321.125 95.8107 321.987 93.6097C323.029 91.3286 330.275 77.4407 348.471 85.017C366.668 92.5932 352.414 107.805 354.012 117.792C354.012 117.792 355.598 119.908 352.544 123.407C349.489 126.905 340.705 127.52 335.661 129.494Z" fill="#FCD1C5"/>
<path d="M352.497 123.371C355.551 119.825 353.965 117.757 353.965 117.757C353.772 116.282 353.82 114.785 354.107 113.325L346.885 114.566C346.885 114.566 336.419 104.957 337.082 110.027C337.745 115.098 335.153 115.937 335.153 115.937L337.284 118.738C337.828 119.447 337.473 120.275 337.011 121.102C333.874 126.232 326.534 124.553 326.522 124.553C327.898 125.315 329.427 125.763 330.997 125.865C332.012 126.046 332.967 126.47 333.78 127.103C334.593 127.735 335.239 128.556 335.662 129.494C340.705 127.52 349.407 126.893 352.497 123.371Z" fill="#E2B1A6"/>
<path d="M321.241 88.2319C321.241 88.2319 319.892 91.955 321.94 93.5743C323.988 95.1935 325.847 96.7182 325.847 96.7182L325.752 101.446C325.741 102.126 325.926 102.795 326.285 103.373L328.819 107.415C329.314 108.195 329.569 109.103 329.553 110.027V111.953C329.547 112.232 329.641 112.503 329.816 112.719C329.992 112.935 330.238 113.083 330.512 113.135L331.198 113.218C331.482 113.245 331.764 113.159 331.986 112.981C332.207 112.802 332.349 112.543 332.382 112.261L332.725 109.578C332.725 109.578 334.122 107.45 337.07 110.074L339.734 111.256C340.106 111.417 340.441 111.653 340.716 111.951C340.991 112.248 341.201 112.599 341.332 112.982C342.043 115.05 343.57 119.14 344.754 119.837C346.364 120.771 352.722 117.65 353.586 116.232C354.45 114.814 356.782 105.311 358.191 100.772C359.6 96.2336 359.079 84.9815 345.535 81.8612C331.991 78.7409 323.207 84.1896 321.241 88.2319Z" fill="#BF9678"/>
<path d="M353.598 116.138C354.462 114.732 356.794 105.217 358.203 100.678C354.474 102.89 350.348 104.351 346.056 104.98C339.213 105.891 325.823 97.9834 325.823 97.9834L325.752 101.458C325.741 102.138 325.926 102.807 326.285 103.385L328.819 107.427C329.314 108.208 329.569 109.116 329.553 110.039V111.966C329.548 112.244 329.641 112.515 329.817 112.731C329.992 112.947 330.238 113.095 330.512 113.148L331.198 113.23C331.482 113.257 331.765 113.172 331.986 112.993C332.207 112.814 332.35 112.556 332.382 112.273L332.726 109.59C332.726 109.59 334.123 107.463 337.071 110.087L340.93 111.741C340.93 111.741 343.156 118.833 344.754 119.802C346.352 120.771 352.734 117.556 353.598 116.138Z" fill="#997861"/>
<path d="M353.858 116.599C353.858 116.599 359.044 119.908 356.321 124.435C353.598 128.962 334.383 136.822 333.412 138.015C333.412 138.015 332.785 131.16 335.366 128.891C335.366 128.891 350.011 126.314 352.355 122.638C354.699 118.963 353.858 116.599 353.858 116.599Z" fill="#F0F6FF"/>
<path d="M353.858 116.599C353.858 116.599 354.687 118.963 352.355 122.638C350.591 125.416 341.771 127.567 337.58 128.454C337.58 128.454 339.119 129.352 341.617 133.772C347.536 130.853 354.734 127.082 356.321 124.435C359.044 119.908 353.858 116.599 353.858 116.599Z" fill="#C4CCD6"/>
<path d="M344.02 163.002C348.661 177.93 335.851 200.753 333.957 207.408C332.063 214.062 312.8 244.934 312.789 244.946C313.309 245.419 313.783 245.833 314.162 246.128C314.277 246.225 314.411 246.298 314.556 246.341C314.7 246.385 314.852 246.398 315.002 246.38C315.152 246.362 315.297 246.314 315.427 246.238C315.557 246.162 315.671 246.06 315.76 245.939C320.212 240.254 332.879 216.39 333.282 215.397C333.685 214.405 341.842 195.08 343.937 190.801C345.524 187.409 351.088 170.862 344.02 163.002Z" fill="#8C52CC"/>
<path d="M357.09 131.267C357.09 131.267 348.519 135.994 344.34 138.063C340.161 140.131 335.579 143.003 335.579 143.003L334.016 141.419L332.039 145.533C332.039 145.533 325.456 149.303 322.355 152.482C319.988 154.939 318.023 157.751 316.53 160.815C316.53 160.815 324.817 150.402 331.293 147.365L333.022 146.525L334.063 143.263L335.603 144.93C335.603 144.93 354.45 134.091 357.09 131.267Z" fill="#8C52CC"/>
<path opacity="0.2" d="M193.569 253.55C218.075 253.55 237.942 242.099 237.942 227.973C237.942 213.847 218.075 202.396 193.569 202.396C169.062 202.396 149.196 213.847 149.196 227.973C149.196 242.099 169.062 253.55 193.569 253.55Z" fill="#0B0244"/>
<path d="M219.556 132.271C219.556 132.271 222.752 132.815 223.924 132.271C226.461 131.424 229.219 131.521 231.691 132.543C235.242 133.796 234.935 133.607 236.332 133.725C237.829 133.748 239.314 134 240.736 134.47C241.482 134.931 242.879 135.829 241.576 137.673C240.274 139.517 235.408 137.791 234.615 137.673C233.822 137.555 232.957 138.926 233.36 140.19C233.763 141.455 241.079 149.457 242.239 150.26C243.4 151.064 248.348 154.362 248.561 155.674C248.774 156.986 248.561 157.163 248.561 157.163C248.561 157.163 250.006 158.475 249.497 159.681C248.988 160.886 246.726 159.03 246.312 159.314C246.312 159.314 246.679 160.662 246.134 160.91C245.59 161.158 242.358 159.905 241.979 159.527C241.979 159.527 241.6 160.555 239.765 159.527C237.93 158.499 230.862 154.314 230.01 153.605C228.52 152.172 226.938 150.838 225.274 149.61C223.818 148.4 222.453 147.084 221.189 145.674C219.051 144.164 216.685 143.003 214.181 142.235C212.511 141.916 219.556 132.271 219.556 132.271Z" fill="#E5D6C9"/>
<path d="M225.168 146.738C223.546 143.795 218.123 141.514 218.123 141.514C218.49 139.15 221.947 132.496 221.947 132.496C221.154 132.471 220.363 132.396 219.58 132.271C219.58 132.271 212.535 141.916 214.205 142.235C216.709 143.003 219.075 144.164 221.213 145.675C222.477 147.084 223.842 148.4 225.298 149.611C226.962 150.838 228.544 152.172 230.033 153.606C230.862 154.35 237.895 158.333 239.73 159.421C241.565 160.508 241.944 159.421 241.944 159.421C242.322 159.799 245.495 161.052 246.099 160.804C246.703 160.555 246.277 159.208 246.277 159.208C244.805 158.395 243.273 157.696 241.695 157.116C239.339 156.336 226.79 149.693 225.168 146.738Z" fill="#D9BFAD"/>
<path d="M214.287 121.646C214.689 123.796 214.836 125.985 214.725 128.17C214.477 131.113 208.581 127.272 208.806 126.763C209.031 126.255 211.6 121.835 211.6 121.835L214.287 121.646Z" fill="#E5D6C9"/>
<path d="M188.561 33.0823C188.561 33.0823 191.829 32.9405 195.807 39.4648C199.642 45.7527 206.391 68.2451 209.931 76.8733C210.241 77.6352 210.471 78.4275 210.617 79.2372C211.801 85.9742 217.152 117.639 217.389 121.444C215.294 122.852 213.031 123.991 210.653 124.837L204.852 122.922L199.145 65.5148L189.887 35.2098L188.561 33.0823Z" fill="#8C52CC"/>
<path d="M170.021 221.957C170.021 221.957 168.908 227.264 169.512 228.292C170.116 229.321 177.042 237.133 177.799 238.173C178.557 239.213 182.097 245.62 188.656 247.168C195.215 248.716 199.678 248.35 200.566 245.253C201.454 242.156 197.606 237.086 195.83 235.443C194.054 233.8 186.56 224.912 185.175 223.624C184.227 222.812 183.063 222.295 181.825 222.134L173.277 223.624L170.021 221.957Z" fill="black"/>
<path d="M196.529 206.072C196.529 206.072 203.064 208.602 206.485 209.464C209.907 210.327 218.052 216.402 217.969 219.452C217.887 222.501 213.861 224.629 209.789 224.333C206.325 223.903 203.005 222.69 200.081 220.787C197.962 219.336 195.624 218.234 193.155 217.525C189.816 216.497 184.441 215.989 183.553 214.204C182.93 212.457 182.59 210.621 182.547 208.767L196.529 206.072Z" fill="black"/>
<path d="M181.754 204.972C181.754 204.653 182.038 204.121 182.073 203.909C182.223 201.184 182.223 198.454 182.073 195.73L180.641 197.692C180.641 197.692 181.647 204.263 183.624 214.546C184.121 217.158 185.483 219.841 185.684 221.319C186.288 225.715 183.672 226.578 183.672 226.578C178.356 230.573 173.81 228.162 172.188 226.874C170.566 225.585 169.997 223.529 167.736 216.13C165.475 208.731 163.533 193.224 164.019 189.536C164.911 183.348 165.433 177.112 165.581 170.861C165.522 164.644 160.739 144.776 160.739 144.776L180.546 140.935L194.078 133.938L204.39 135.498C204.39 135.498 205.704 131.148 207.066 144.693C208.439 158.439 200.104 182.752 200.104 182.752C197.902 194.796 197.346 208.636 196.091 210.516C194.836 212.395 189.911 216.827 185.341 213.388C184.495 212.824 183.724 212.157 183.044 211.402L181.754 204.972Z" fill="#280A38"/>
<path d="M180.653 197.692C184.722 186.325 187.932 174.67 190.254 162.824C193.285 145.97 198.541 143.594 200.732 140.568C202.354 141.321 204.042 141.922 205.775 142.365C205.96 142.386 206.147 142.386 206.332 142.365C207.788 142.365 199.051 153.18 197.476 155.969C195.901 158.758 186.821 182.657 186.241 185.955C185.661 189.253 184.974 212.312 185.708 213.636C186.442 214.96 183.198 212.631 183.198 212.631C183.198 212.631 181.209 207.585 180.653 197.692Z" fill="black"/>
<path d="M197.559 134.517L194.078 133.985L180.546 140.982L160.739 144.859C160.739 144.859 165.475 164.728 165.581 170.945C165.435 177.179 164.917 183.399 164.031 189.572C163.545 193.224 165.499 208.802 167.748 216.166C168.731 219.369 169.382 221.579 169.95 223.151C170.85 227.335 174.011 228.009 174.011 228.009C174.011 228.009 166.244 203.992 166.907 189.939C167.582 176.086 169.571 164.562 169.204 161.879C169.204 161.879 191.769 154.953 195.996 140.427C196.683 138.122 197.18 136.172 197.559 134.517Z" fill="black"/>
<path d="M158.478 36.1795C157.609 36.9083 156.938 37.843 156.524 38.898C156.181 40.269 154.157 45.1505 154.157 45.1505C154.157 45.1505 144.685 57.6436 143.016 61.4731C142.035 63.6312 141.282 65.885 140.767 68.1983L165.747 98.9289C165.747 98.9289 156.998 129.033 159.437 140.013C161.876 150.993 165.12 155.26 169.05 156.454C172.981 157.648 194.007 149.031 195.451 138.028C196.896 127.024 196.304 125.783 196.304 125.783C196.304 125.783 206.118 128.395 206.734 125.901C207.35 123.407 205.55 105.453 204.994 102.888C204.437 100.324 202.981 72.016 202.981 72.016C202.981 72.016 197.002 45.9069 196.659 44.6186C196.316 43.3303 192.598 33.5201 187.827 32.9646C183.056 32.4091 177.101 39.9972 177.101 39.9972L158.478 36.1795Z" fill="#B066FF"/>
<path d="M159.602 35.2334C159.014 35.6593 158.595 36.2787 158.419 36.9827C158.075 37.8843 157.962 38.8577 158.093 39.8138C158.223 40.7698 158.592 41.678 159.164 42.4551C160.952 44.7126 175.337 56.4256 181.161 66.2831C186.986 76.1405 194.327 87.3453 194.942 89.6501C194.942 89.6501 197.594 73.8829 195.191 66.6258C192.787 59.3687 185.187 44.7599 183.577 43.6725C181.967 42.5851 172.069 41.6513 172.069 41.6513L159.602 35.2334Z" fill="#F0F6FF"/>
<path d="M174.461 51.0836C174.028 51.793 173.689 52.5559 173.454 53.3529C173.454 53.3529 169.275 51.2254 167.535 50.4453L173.951 54.8894C174.074 53.9739 174.309 53.0769 174.65 52.2182C174.65 52.2182 178.296 55.0313 178.77 56.2132C179.244 57.3951 186.051 74.427 186.051 74.427L189.603 80.2185L190.514 78.8238L184.701 63.0094C184.701 63.0094 181.422 58.0334 181.386 57.9152L179.125 52.4546L174.461 51.0836Z" fill="#C4CCD6"/>
<path d="M174.461 51.0838C174.461 51.0838 176.592 47.1124 180.712 47.2661C180.712 47.2661 181.896 52.1593 182.227 54.1568C182.227 54.1568 179.563 55.3387 178.498 54.3696C177.432 53.4004 174.461 51.0838 174.461 51.0838Z" fill="#F0324E"/>
<path d="M181.6 53.0925C181.6 53.0925 192.184 66.0938 195.889 81.861L195.12 89.9809L189.544 80.0644C189.544 80.0644 180.416 57.3002 178.296 53.1397C176.177 48.9793 181.6 53.0925 181.6 53.0925Z" fill="#F0324E"/>
<path d="M164.054 105.382C163.344 108.159 162.515 111.622 161.686 115.334C161.686 115.334 177.373 135.77 192.669 144.09C194.128 142.347 195.093 140.245 195.463 138.003C195.985 134.534 196.309 131.038 196.434 127.531L178.675 114.069L164.054 105.382Z" fill="#8C52CC"/>
<path d="M162.989 75.3721C162.989 75.3721 167.523 81.5536 168.731 82.1091C169.938 82.6647 179.729 99.8383 181.754 103.053C183.778 106.268 189.023 110.842 189.023 110.842L184.039 111.327L164.504 85.1704L162.989 75.3721Z" fill="#8C52CC"/>
<path d="M165.747 80.8217C163.839 75.943 160.743 71.6165 156.738 68.234C152.239 64.4636 146.319 60.7996 143.194 64.0972C137.688 69.9005 140.033 80.8453 147.681 91.0691C155.329 101.293 167.594 116.15 170.471 118.632C173.348 121.114 196.872 138.725 210.416 145.391C210.904 145.629 211.464 145.671 211.982 145.508C212.499 145.345 212.935 144.99 213.198 144.517C215.069 141.432 218.94 135.061 220.302 132.378C220.443 132.119 220.483 131.817 220.413 131.531C220.343 131.244 220.168 130.994 219.923 130.83C214.974 127.662 190.242 111.777 182.914 106.848C181.783 106.082 180.866 105.04 180.25 103.822C178.107 99.6619 172.602 89.4026 167.76 84.1548C166.895 83.2084 166.212 82.1104 165.747 80.9162V80.8217Z" fill="#B066FF"/>
<path d="M183.944 38.4844L192.598 47.2189L190.361 47.9872L193.214 49.6419C193.214 49.6419 200.14 65.9646 198.624 84.4501C198.624 84.4501 202.058 69.9122 194.623 49.311L192.314 48.129L193.865 47.6444L183.944 38.4844Z" fill="#8C52CC"/>
<path d="M159.425 33.756C159.585 34.0911 159.658 34.4609 159.638 34.8316C159.539 35.7065 159.508 36.5876 159.543 37.4673C159.65 38.2829 165.072 47.4075 176.118 47.4902L177.716 45.1263C177.716 45.1263 182.203 44.9136 184.074 43.2825C185.945 41.6514 184.784 38.8029 184.784 38.8029L185.057 35.3753C185.089 34.9667 185.27 34.5842 185.566 34.2997C186.003 33.9434 186.352 33.4902 186.584 32.9759C186.598 32.4165 186.468 31.8628 186.205 31.3685C186.053 31.0441 185.992 30.6847 186.027 30.3284C186.2 28.6499 186.055 26.954 185.601 25.3288C185.435 24.6692 185.435 23.979 185.601 23.3195C185.902 22.2431 186.14 21.1498 186.312 20.0455C186.383 19.1472 184.867 16.7597 184.796 15.8259C184.45 14.4202 183.991 13.0446 183.423 11.7128C183.423 11.7128 175.135 -3.56974 161.876 3.04914C148.616 9.66802 155.459 24.005 157.14 28.059C157.14 28.059 158.738 31.3567 159.022 32.0895C159.307 32.8223 159.094 33.035 159.425 33.756Z" fill="#FCD1C5"/>
<path d="M184.619 13.3204C184.676 13.8513 184.605 14.3883 184.411 14.886C184.218 15.3838 183.907 15.8278 183.506 16.1807C180.973 18.4726 177.825 19.9762 174.449 20.5066C171.465 20.8967 169.832 21.0503 168.944 21.0976C168.644 21.1186 168.364 21.2523 168.16 21.4717C167.955 21.6911 167.842 21.9799 167.843 22.2795C167.783 23.3906 167.665 25.0807 167.511 26.2154C167.445 26.6693 167.314 27.1113 167.12 27.5274L166.173 29.5248C166.061 29.767 165.877 29.9692 165.646 30.1044C165.416 30.2395 165.149 30.3012 164.883 30.2813H164.67C164.371 30.2636 164.089 30.1412 163.872 29.9357C163.656 29.7303 163.519 29.4549 163.486 29.1584V29.0284C163.392 28.2632 163.112 27.5326 162.67 26.9001C162.229 26.2677 161.639 25.7526 160.952 25.3999C160.592 25.2058 160.193 25.0926 159.784 25.0681C159.375 25.0436 158.966 25.1084 158.584 25.258C158.284 25.3708 158.01 25.5435 157.778 25.7655C157.546 25.9875 157.362 26.2542 157.237 26.5493C157.112 26.8445 157.048 27.162 157.05 27.4825C157.052 27.8031 157.119 28.1199 157.247 28.4138C155.426 26.0962 154.056 23.4582 153.209 20.6366C151.955 16.2162 152.251 8.22624 158.04 4.08943C163.829 -0.0473663 171.323 -1.82029 177.752 2.75383C183.115 6.40604 184.358 10.8974 184.619 13.3204Z" fill="#BF9678"/>
<path d="M162.693 32.0422C162.409 31.6877 162.776 34.7489 159.638 34.8316C159.539 35.7065 159.508 36.5877 159.544 37.4674C159.65 38.2829 165.072 47.4075 176.118 47.4902L177.717 45.1263C177.717 45.1263 167.547 40.1977 165.747 37.952C163.948 35.7063 162.989 32.3968 162.693 32.0422Z" fill="#E2B1A6"/>
<path d="M180.712 47.2664C182.231 47.4263 183.722 47.7963 185.139 48.3656C185.352 47.2657 185.206 46.127 184.725 45.1152C184.725 45.1152 185.637 45.8362 185.625 49.4293L180.889 47.9046L180.712 47.2664Z" fill="#C4CCD6"/>
<path d="M214.418 142.093C214.418 142.093 188.75 127.366 180.084 121.492C171.418 115.618 147.136 90.9035 142.199 81.3652C143.623 84.8278 145.494 88.0899 147.764 91.069C155.495 101.423 167.677 116.15 170.554 118.632C173.431 121.114 196.955 138.725 210.499 145.391C210.987 145.629 211.547 145.67 212.065 145.508C212.582 145.345 213.018 144.99 213.281 144.516L214.572 142.401C214.441 142.212 214.418 142.093 214.418 142.093Z" fill="#8C52CC"/>
<path d="M155.388 45.9189L167.12 62.5725L170.128 61.497L170.293 64.6764C170.293 64.6764 184.323 75.113 194.824 96.7898C194.824 96.7898 180.937 74.4629 169.879 67.0285L168.873 63.8372L166.505 64.3809L155.388 45.9189Z" fill="#8C52CC"/>
<path d="M154.334 22.7643L153.979 22.658C154.813 24.7152 155.933 26.645 157.306 28.3904C157.178 28.0965 157.111 27.7796 157.109 27.4591C157.108 27.1386 157.171 26.8211 157.296 26.5259C157.422 26.2307 157.605 25.964 157.837 25.742C158.069 25.5201 158.343 25.3474 158.644 25.2346C159.025 25.085 159.434 25.0202 159.843 25.0446C160.252 25.0691 160.651 25.1824 161.011 25.3764C161.692 25.7372 162.275 26.2585 162.708 26.8949C163.141 27.5314 163.412 28.2638 163.498 29.0286V29.1114C163.531 29.4079 163.668 29.6832 163.884 29.8887C164.101 30.0941 164.383 30.2165 164.682 30.2342H164.895C165.161 30.2542 165.428 30.1924 165.658 30.0573C165.889 29.9221 166.073 29.72 166.185 29.4778L167.132 27.4803C167.326 27.0642 167.457 26.6223 167.523 26.1683C167.677 24.9864 167.795 23.3435 167.854 22.2325C167.843 22.2206 160.017 24.75 154.334 22.7643Z" fill="#997861"/>
</svg>
