<?xml version="1.0" encoding="UTF-8" standalone="no"?>
<!-- Uploaded to: SVG Repo, www.svgrepo.com, Generator: SVG Repo Mixer Tools -->

<svg
   fill="#000000"
   width="800px"
   height="800px"
   viewBox="0 0 32 32"
   version="1.1"
   id="svg6"
   sodipodi:docname="wifi-white-win10.svg"
   inkscape:version="1.2.2 (732a01da63, 2022-12-09)"
   xmlns:inkscape="http://www.inkscape.org/namespaces/inkscape"
   xmlns:sodipodi="http://sodipodi.sourceforge.net/DTD/sodipodi-0.dtd"
   xmlns="http://www.w3.org/2000/svg"
   xmlns:svg="http://www.w3.org/2000/svg"
   xmlns:rdf="http://www.w3.org/1999/02/22-rdf-syntax-ns#"
   xmlns:cc="http://creativecommons.org/ns#"
   xmlns:dc="http://purl.org/dc/elements/1.1/">
  <defs
     id="defs10" />
  <sodipodi:namedview
     id="namedview8"
     pagecolor="#ffffff"
     bordercolor="#000000"
     borderopacity="0.25"
     inkscape:showpageshadow="2"
     inkscape:pageopacity="0.0"
     inkscape:pagecheckerboard="0"
     inkscape:deskcolor="#d1d1d1"
     showgrid="false"
     inkscape:zoom="0.99"
     inkscape:cx="400"
     inkscape:cy="642.42424"
     inkscape:window-width="1920"
     inkscape:window-height="986"
     inkscape:window-x="-11"
     inkscape:window-y="-11"
     inkscape:window-maximized="1"
     inkscape:current-layer="svg6" />
  <title
     id="title2">wifi</title>
  <path
     d="m 23.823428,20.447548 c -1.633416,0 -2.957119,1.323704 -2.957119,2.957121 0,1.633417 1.323703,2.95712 2.95712,2.957121 1.633416,0 2.957121,-1.323704 2.957121,-2.957121 0,-1.633417 -1.323705,-2.957121 -2.957122,-2.957121 z m 2.957122,-8.3778 -1e-6,4.1889 c -5.579072,0 -10.102434,4.523362 -10.102434,10.102434 h -4.1889 c -10e-7,-7.892725 6.398609,-14.291334 14.291335,-14.291334 z M 26.779842,9.1133345 C 17.2537,9.1133344 9.5313871,16.835647 9.5313871,26.36179 H 5.2194499 c 0,-11.907679 9.6527141,-21.5603921 21.5603931,-21.5603923 z"
     id="path4"
     style="fill:#ffffff" />
  <metadata
     id="metadata217">
    <rdf:RDF>
      <cc:Work
         rdf:about="">
        <dc:title>wifi</dc:title>
      </cc:Work>
    </rdf:RDF>
  </metadata>
</svg>
