<?xml version="1.0" encoding="utf-8"?>
<!-- Uploaded to: SVG Repo, www.svgrepo.com, Generator: SVG Repo Mixer Tools -->
<svg fill="#000000" width="800px" height="800px" viewBox="0 0 32 32" version="1.1" xmlns="http://www.w3.org/2000/svg">
<title>wifi</title>
<path d="M18.091 21.12c-1.155-1.155-3.027-1.155-4.182 0s-1.155 3.027 0 4.182c1.155 1.155 3.027 1.155 4.182 0s1.155-3.027 0-4.182zM26.106 17.287l-2.962 2.962c-3.945-3.945-10.342-3.945-14.287 0l-2.962-2.962c5.581-5.581 14.63-5.581 20.211 0v0zM28.196 15.196c-6.736-6.736-17.657-6.736-24.393 0l-3.049-3.049c8.42-8.42 22.071-8.42 30.491 0l-3.049 3.049z"></path>
</svg>