<?xml version="1.0" encoding="iso-8859-1"?>
<!-- Uploaded to: SVG Repo, www.svgrepo.com, Generator: SVG Repo Mixer Tools -->
<svg height="800px" width="800px" version="1.1" id="Layer_1" xmlns="http://www.w3.org/2000/svg" xmlns:xlink="http://www.w3.org/1999/xlink" 
	 viewBox="0 0 512 512" xml:space="preserve">
<circle style="fill:#00DFC1;" cx="256" cy="255.996" r="255.996"/>
<path style="fill:#00B5A3;" d="M506.121,310.724L256.003,60.606L51.012,375.453L174.21,498.651
	C199.894,507.305,227.401,512,256.003,512C378.603,512,481.055,425.811,506.121,310.724z"/>
<polygon style="fill:#FFEC97;" points="256.003,60.606 51.012,375.453 460.996,375.453 "/>
<polygon style="fill:#FFDF47;" points="460.996,375.453 256.003,60.606 256,60.612 256,375.453 "/>
<path style="fill:#394CE2;" d="M256.005,176.455c0,0,35.633,126.682,134.419,198.998h70.572L256.003,60.606L51.012,375.453h70.572
	C220.371,303.136,256.005,176.455,256.005,176.455z"/>
<path style="fill:#1B2DDD;" d="M256.003,60.606L256,60.612v115.86l0.005-0.018c0,0,35.633,126.682,134.419,198.998h70.572
	L256.003,60.606z"/>
<path style="fill:#959FEF;" d="M122.537,305.654l-0.953,69.797c98.786-72.316,134.421-198.998,134.421-198.998
	S217.973,287.716,122.537,305.654z"/>
<path style="fill:#6D76E7;" d="M389.474,305.654l0.953,69.797c-98.786-72.316-134.422-198.998-134.422-198.998
	S294.038,287.716,389.474,305.654z"/>
</svg>