<?xml version="1.0" encoding="iso-8859-1"?>
<!-- Uploaded to: SVG Repo, www.svgrepo.com, Generator: SVG Repo Mixer Tools -->
<svg height="800px" width="800px" version="1.1" id="Layer_1" xmlns="http://www.w3.org/2000/svg" xmlns:xlink="http://www.w3.org/1999/xlink" 
	 viewBox="0 0 468.096 468.096" xml:space="preserve">
<g>
	<polygon style="fill:#FCB641;" points="88,130.048 48,154.048 0,418.048 32,434.048 	"/>
	<polygon style="fill:#FCB641;" points="376,130.048 416,154.048 468.096,418.048 432,434.048 	"/>
</g>
<path style="fill:#FDC567;" d="M376,130.048L240.656,69.896l19.784-13.192c3.68-2.448,4.672-7.416,2.216-11.096
	s-7.416-4.672-11.096-2.216L240,51.104v-9.056c0-4.416-3.576-8-8-8s-8,3.584-8,8v9.056l-11.56-7.712
	c-3.696-2.456-8.648-1.464-11.096,2.216c-2.456,3.672-1.464,8.648,2.216,11.096l19.784,13.192L88,130.048l-56,304h400L376,130.048z"
	/>
<path style="fill:#FEE5BB;" d="M341.728,434.048H122.272c-9.68,0-17.136-8.52-15.856-18.112l27.736-208
	c1.056-7.952,7.84-13.888,15.856-13.888h163.984c8.016,0,14.8,5.936,15.856,13.888l27.736,208
	C358.864,425.528,351.4,434.048,341.728,434.048z"/>
<path style="fill:#FEFAF8;" d="M232,298.048L232,298.048c-8.84,0-16-7.16-16-16v-32h32v32C248,290.888,240.84,298.048,232,298.048z"
	/>
<path style="fill:#73390E;" d="M232,226.048c-4.424,0-8-3.584-8-8v-24c0-4.416,3.576-8,8-8c4.424,0,8,3.584,8,8v24
	C240,222.464,236.424,226.048,232,226.048z"/>
<g>
	<path style="fill:#E67F33;" d="M264,242.048h-16v-10c0-8.84-7.16-16-16-16s-16,7.16-16,16v10h-16c-4.424,0-8,3.584-8,8s3.576,8,8,8
		h64c4.424,0,8-3.584,8-8S268.424,242.048,264,242.048z"/>
	<path style="fill:#E67F33;" d="M232,354.048c-4.424,0-8-3.584-8-8v-16c0-4.416,3.576-8,8-8c4.424,0,8,3.584,8,8v16
		C240,350.464,236.424,354.048,232,354.048z"/>
	<path style="fill:#E67F33;" d="M176,314.048c-2.048,0-4.096-0.784-5.656-2.344c-3.128-3.128-3.128-8.184,0-11.312l8-8
		c3.128-3.128,8.184-3.128,11.312,0s3.128,8.184,0,11.312l-8,8C180.096,313.264,178.048,314.048,176,314.048z"/>
	<path style="fill:#E67F33;" d="M288,314.048c-2.048,0-4.096-0.784-5.656-2.344l-8-8c-3.128-3.128-3.128-8.184,0-11.312
		s8.184-3.128,11.312,0l8,8c3.128,3.128,3.128,8.184,0,11.312C292.096,313.264,290.048,314.048,288,314.048z"/>
</g>
<path style="fill:#AD5F26;" d="M312,194.048H152c-8.84,0-16-7.16-16-16l0,0c0-8.84,7.16-16,16-16h160c8.84,0,16,7.16,16,16l0,0
	C328,186.888,320.84,194.048,312,194.048z"/>
<path style="fill:#E67F33;" d="M248,194.048h-32v-48c0-8.84,7.16-16,16-16l0,0c8.84,0,16,7.16,16,16V194.048z"/>
</svg>