<?xml version="1.0" encoding="utf-8"?>
<!-- Uploaded to: SVG Repo, www.svgrepo.com, Generator: SVG Repo Mixer Tools -->
<svg width="800px" height="800px" viewBox="0 0 1024 1024" class="icon"  version="1.1" xmlns="http://www.w3.org/2000/svg"><path d="M906 598.7c-1.1 11-11.2 16.5-19.8 21.5-8 4.6-16 9.3-23.9 13.9-12.8 7.4-25.5 14.8-38.3 22.2-16 9.3-31.9 18.6-47.9 27.8-17.6 10.2-35.2 20.5-52.9 30.7-17.7 10.3-35.4 20.6-53.2 30.9-16.3 9.5-32.5 18.9-48.8 28.4-13.3 7.7-26.5 15.4-39.8 23.1-8.7 5-17.4 10.1-26.1 15.1-6.6 3.8-12.8 7.6-20.3 9.8-19.5 5.6-41.1 3.7-58.7-6.5-6.3-3.7-12.7-7.3-19-11-11.6-6.7-23.1-13.3-34.7-20-15.2-8.8-30.4-17.6-45.6-26.3-17.3-10-34.7-20-52-30-17.9-10.3-35.8-20.7-53.7-31-16.9-9.8-33.8-19.5-50.8-29.3l-43.2-24.9c-10.3-6-20.7-11.9-31-17.9-4.7-2.7-9.4-5.4-14.1-8.2-7.4-4.3-14.7-11.1-14.7-20.3 0 8.4 0 16.8-0.1 25.3 0 3-0.2 6.1 0 9.2 0.6 8.1 7 14.4 13.7 18.4 4.1 2.5 8.3 4.8 12.5 7.2 10.8 6.2 21.6 12.5 32.4 18.7 15.6 9 31.1 18 46.7 27 18.5 10.7 37.1 21.4 55.6 32.1 19.3 11.2 38.6 22.3 58 33.5 18.4 10.6 36.7 21.2 55.1 31.8 15.3 8.8 30.5 17.6 45.8 26.4 10.3 6 20.7 11.9 31 17.9 6 3.4 11.9 7.3 18.4 9.7 20.3 7.4 44.1 5.8 62.8-5.1 7.1-4.1 14.2-8.3 21.3-12.4 13.1-7.6 26.2-15.2 39.2-22.8 17.1-9.9 34.1-19.8 51.2-29.8 19.1-11.1 38.2-22.2 57.2-33.3l57.3-33.3c17.1-10 34.2-19.9 51.4-29.9 13.3-7.7 26.6-15.4 39.9-23.2 7.3-4.3 14.7-8.5 22-12.8 2.2-1.3 4.5-2.6 6.6-4.1 5.6-4.2 10-10 10.1-17.3 0.1-3.7 0-7.3 0-11 0-7.3 0-14.7 0.1-22 0.4 0.8 0.4 1.3 0.3 1.8 0 0.3 0.1-0.2 0 0zM906.1 597.2z" fill="#7A9EFD" /><path d="M891.8 577.2c19 11 19.1 28.9 0.2 39.9L547.6 817.2c-18.9 11-49.8 11-68.8 0L132.1 617.1c-19-11-19.1-28.9-0.2-39.9L476.3 377c18.9-11 49.8-11 68.8 0l346.7 200.2z" fill="#E4ECF9" /><path d="M551.9 454.6l4.5-0.3h0.3c1.5-0.1 3-0.2 4.6-0.3h0.5c1.6-0.1 3.2-0.3 4.8-0.4 1.6-0.1 3.2-0.3 4.8-0.4 0.2 0 0.5 0 0.7-0.1l4.5-0.3c0.2 0 0.5 0 0.7-0.1 1.5-0.1 2.9-0.2 4.4-0.3h0.5c1.5-0.1 2.9-0.2 4.3-0.2h0.1c0.9 0 1.8-0.1 2.7-0.1h6c0.8 0 1.5 0 2.2 0.1h0.6c0.4 0 0.8 0.1 1.2 0.1 0.2 0 0.4 0.1 0.6 0.1 0.3 0 0.7 0.1 1 0.1 0.2 0 0.4 0.1 0.6 0.1 0.3 0.1 0.6 0.1 0.9 0.2 0.2 0.1 0.5 0.1 0.7 0.2 0.6 0.3 1.3 0.5 2 0.7 0.2 0.1 0.4 0.1 0.6 0.2l1.8 0.6c0.7 0.2 1.4 0.5 2.1 0.7 0.2 0.1 0.4 0.1 0.5 0.2 0.6 0.2 1.2 0.4 1.8 0.7 0.2 0.1 0.4 0.1 0.6 0.2 0.3 0.1 0.6 0.3 0.9 0.4 0.3 0.1 0.6 0.3 0.8 0.4 0.3 0.1 0.6 0.3 0.9 0.4 0.3 0.2 0.7 0.3 1 0.5l-14.8-8.6c-0.1-0.1-0.2-0.1-0.3-0.2-0.2-0.1-0.5-0.2-0.7-0.4-0.3-0.2-0.6-0.3-0.9-0.4-0.3-0.1-0.6-0.3-0.8-0.4-0.3-0.1-0.6-0.3-0.9-0.4-0.1 0-0.1-0.1-0.2-0.1-0.1-0.1-0.3-0.1-0.4-0.1-0.6-0.2-1.2-0.5-1.8-0.7-0.2-0.1-0.4-0.1-0.5-0.2-0.7-0.3-1.4-0.5-2.1-0.7l-1.8-0.6c-0.2-0.1-0.4-0.1-0.6-0.2-0.7-0.2-1.4-0.5-2-0.7-0.1 0-0.3-0.1-0.4-0.1-0.1 0-0.2 0-0.3-0.1-0.3-0.1-0.6-0.1-0.9-0.2-0.1 0-0.2 0-0.3-0.1h-0.3c-0.3 0-0.6-0.1-1-0.1-0.2 0-0.4-0.1-0.7-0.1-0.4 0-0.8-0.1-1.2-0.1h-0.5-0.1c-0.7 0-1.4-0.1-2.2-0.1H574.4c-0.9 0-1.7 0.1-2.6 0.1h-0.1c-1.4 0.1-2.8 0.1-4.3 0.2h-0.5c-1.4 0.1-2.9 0.2-4.4 0.3h-0.7l-4.5 0.3c-0.3 0-0.6 0-0.8 0.1-1.6 0.1-3.1 0.2-4.7 0.4-1.6 0.1-3.3 0.3-4.9 0.4h-0.4c-1.6 0.1-3.1 0.2-4.6 0.3h-0.3l-4.5 0.3h-0.6c-1.4 0.1-2.8 0.2-4.1 0.2h-0.8c-0.8 0-1.7 0.1-2.5 0.1H522.5c-0.7 0-1.3 0-1.9-0.1h-0.4c-0.6 0-1.1-0.1-1.7-0.1h-0.2c-0.6-0.1-1.1-0.1-1.6-0.2s-0.9-0.2-1.3-0.3l14.8 8.6c0.4 0.1 0.8 0.2 1.3 0.3h0.1c0.5 0.1 1.1 0.2 1.6 0.2h0.2c0.5 0.1 1.1 0.1 1.6 0.1h0.4c0.6 0 1.3 0.1 1.9 0.1H543.9c0.8 0 1.6-0.1 2.5-0.1h0.8c1.3-0.1 2.7-0.1 4.1-0.2 0.2 0.2 0.4 0.2 0.6 0.2z" fill="#2A2ABC" /><path d="M526.9 453.1l-14.8-8.6s0.1 0 0.1 0.1l14.8 8.6c0-0.1 0-0.1-0.1-0.1M527.1 453.1l-14.8-8.6c0.3 0.2 0.7 0.4 1 0.5l14.8 8.6c-0.4-0.1-0.7-0.3-1-0.5" fill="" /><path d="M528.1 453.6l-14.8-8.6c0.4 0.1 0.7 0.3 1.1 0.4l14.8 8.6c-0.4-0.1-0.7-0.2-1.1-0.4" fill="" /><path d="M529.2 454l-14.8-8.6c0.3 0.1 0.6 0.2 0.9 0.2l14.8 8.6c-0.3 0-0.6-0.1-0.9-0.2" fill="" /><path d="M444 481.9v-0.4c0-1.1 0-2.2-0.1-3.3l-14.8-8.6c0.1 1.1 0.1 2.2 0.1 3.3v0.4c0 1.1-0.1 2.2-0.2 3.3 0 0.2 0 0.4-0.1 0.6-0.1 0.7-0.2 1.5-0.3 2.2-0.1 0.6-0.2 1.1-0.3 1.7-0.2 1.2-0.5 2.3-0.8 3.5 0 0.1-0.1 0.2-0.1 0.3-0.3 1.1-0.7 2.2-1.1 3.3-0.1 0.3-0.2 0.5-0.3 0.7-0.4 1.2-0.9 2.3-1.4 3.5l-0.3 0.6c-0.5 1.2-1.1 2.4-1.7 3.6 0 0.1-0.1 0.1-0.1 0.2-0.7 1.3-1.4 2.5-2.2 3.7-0.2 0.3-0.4 0.6-0.6 1-0.4 0.6-0.8 1.1-1.2 1.8l-0.6 0.9c-0.3 0.5-0.7 1-1.1 1.5-0.2 0.3-0.5 0.7-0.7 1-0.4 0.5-0.8 1.1-1.2 1.6-0.2 0.3-0.5 0.6-0.7 1l-2.4 3c-0.1 0.2-0.3 0.3-0.4 0.5-0.7 0.9-1.5 1.8-2.2 2.7-0.3 0.3-0.6 0.7-0.9 1.1-0.7 0.8-1.4 1.6-2 2.4-0.3 0.4-0.6 0.7-0.9 1.1-0.9 1-1.8 2.1-2.7 3.2l-0.3 0.3c-1 1.2-2.1 2.4-3.2 3.7-0.3 0.3-0.6 0.7-0.9 1.1l-2.4 2.7c-0.4 0.4-0.7 0.8-1.1 1.2l-2.7 3c-0.2 0.2-0.4 0.5-0.6 0.7-1.1 1.3-2.3 2.5-3.4 3.8-0.3 0.3-0.6 0.7-0.9 1-0.9 0.9-1.7 1.9-2.6 2.8-0.4 0.4-0.8 0.8-1.1 1.2-0.9 1-1.8 1.9-2.6 2.8-0.3 0.3-0.5 0.6-0.8 0.9-1.1 1.2-2.2 2.4-3.4 3.6-0.3 0.4-0.7 0.7-1 1.1-0.8 0.8-1.6 1.7-2.3 2.5-0.5 0.5-0.9 1-1.4 1.5-0.7 0.7-1.3 1.4-2 2.1-2.4 2.6-4.8 5.1-6.9 7.4-0.3 0.3-0.6 0.7-0.9 1-0.7 0.7-1.3 1.4-2 2.1-0.3 0.3-0.6 0.6-0.8 0.9-0.8 0.9-1.7 1.8-2.4 2.6l-0.1 0.1c-0.8 0.9-1.5 1.7-2.3 2.5l-0.6 0.6c-0.5 0.6-1 1.1-1.4 1.6-0.2 0.2-0.4 0.4-0.6 0.7-0.5 0.5-0.9 1.1-1.4 1.5l-0.3 0.3-0.1 0.1c-0.3 0.3-0.5 0.6-0.8 0.9-0.1 0.1-0.2 0.3-0.4 0.4-0.3 0.4-0.6 0.8-0.9 1.1-0.7 0.9-1.4 1.7-2.1 2.6-0.2 0.2-0.3 0.5-0.5 0.7-0.9 1.1-1.7 2.3-2.5 3.4-0.3 0.4-0.5 0.7-0.8 1.1-0.1 0.1-0.2 0.2-0.2 0.3-0.9 1.2-1.7 2.5-2.5 3.8l-0.6 0.9s0 0.1-0.1 0.1c-1 1.6-2 3.1-2.9 4.7v0.1c-0.3 0.4-0.5 0.9-0.7 1.3-0.6 1.1-1.3 2.2-1.9 3.3 0 0.1-0.1 0.1-0.1 0.2-0.3 0.6-0.6 1.2-0.9 1.7-0.5 1-1 1.9-1.5 2.9 0 0.1-0.1 0.2-0.1 0.3-0.3 0.6-0.5 1.2-0.8 1.7-0.4 1-0.9 1.9-1.3 2.9-0.1 0.1-0.1 0.3-0.2 0.4-0.2 0.5-0.4 1.1-0.7 1.6l-1.2 3c-0.1 0.2-0.2 0.4-0.2 0.6-0.2 0.5-0.3 0.9-0.5 1.4-0.4 1.1-0.8 2.1-1.2 3.2-0.1 0.3-0.2 0.6-0.3 0.8-0.1 0.4-0.2 0.8-0.3 1.1-0.4 1.2-0.8 2.4-1.1 3.6-0.1 0.4-0.2 0.8-0.4 1.2l-0.3 1.2c-0.1 0.4-0.2 0.8-0.3 1.1-0.4 1.4-0.7 2.8-1 4.3-0.3 1.5-0.6 3-0.8 4.5-0.1 0.5-0.1 1-0.2 1.4-0.1 0.8-0.3 1.6-0.4 2.3 0 0.2 0 0.4-0.1 0.6l-0.3 3.3c0 0.5-0.1 1.1-0.1 1.6-0.1 1.6-0.2 3.3-0.2 4.9l14.8 8.6c0-1.6 0.1-3.2 0.2-4.9 0-0.5 0.1-1.1 0.1-1.6l0.3-3.3c0.1-1 0.3-1.9 0.4-2.9 0.1-0.5 0.1-1 0.2-1.4 0.3-1.5 0.5-3 0.8-4.5 0.3-1.4 0.6-2.8 1-4.3 0.1-0.4 0.2-0.8 0.3-1.1 0.2-0.8 0.4-1.6 0.7-2.4 0.4-1.2 0.7-2.4 1.1-3.6 0.2-0.7 0.4-1.3 0.7-2 0.4-1.1 0.8-2.1 1.2-3.2 0.2-0.7 0.5-1.3 0.7-2l1.2-3c0.3-0.7 0.5-1.3 0.8-2 0.4-1 0.9-1.9 1.3-2.9 0.3-0.7 0.6-1.3 0.9-2 0.5-1 1-1.9 1.5-2.9 0.3-0.6 0.6-1.3 1-1.9 0.6-1.1 1.2-2.2 1.9-3.3 0.3-0.5 0.5-1 0.8-1.4 0.9-1.6 1.9-3.2 2.9-4.7l0.6-0.9c0.8-1.3 1.7-2.5 2.5-3.8 0.3-0.5 0.7-1 1-1.4 0.8-1.2 1.7-2.3 2.5-3.4 0.9-1.1 1.7-2.2 2.6-3.3 0.3-0.3 0.6-0.7 0.9-1.1l0.4-0.4c0.2-0.3 0.5-0.6 0.8-0.9 0.1-0.1 0.2-0.2 0.3-0.4 0.4-0.5 0.9-1 1.4-1.5 0.2-0.2 0.4-0.4 0.6-0.7 0.5-0.5 0.9-1 1.4-1.6 0.2-0.2 0.4-0.4 0.6-0.7 0.7-0.8 1.4-1.6 2.2-2.4l0.2-0.2c0.7-0.8 1.5-1.6 2.3-2.5 0.3-0.3 0.6-0.6 0.9-1 0.6-0.7 1.2-1.3 1.9-2 0.3-0.4 0.7-0.7 1-1.1 0.8-0.9 1.6-1.7 2.4-2.6 1.1-1.2 2.3-2.4 3.5-3.7 0.2-0.2 0.3-0.4 0.5-0.6 0.9-1 1.8-1.9 2.7-2.9 0.3-0.4 0.7-0.7 1-1.1 0.9-1 1.8-1.9 2.7-2.9l0.8-0.8c1.1-1.2 2.3-2.4 3.4-3.7 0.3-0.3 0.5-0.6 0.8-0.9 0.9-0.9 1.7-1.9 2.6-2.8 0.4-0.4 0.8-0.8 1.1-1.2 0.9-1 1.8-1.9 2.6-2.9 0.3-0.3 0.6-0.6 0.9-1 1.1-1.3 2.3-2.5 3.4-3.8 0.2-0.3 0.5-0.5 0.7-0.8l2.7-3c0.3-0.4 0.7-0.8 1-1.2l2.4-2.7c0.3-0.4 0.6-0.7 1-1.1 1.1-1.2 2.1-2.4 3.2-3.6l0.1-0.1 0.3-0.3c0.9-1.1 1.8-2.1 2.7-3.1 0.3-0.4 0.6-0.7 0.9-1.1 0.7-0.8 1.4-1.6 2-2.4 0.3-0.4 0.6-0.7 0.9-1.1 0.8-0.9 1.5-1.8 2.2-2.7 0.1-0.2 0.3-0.3 0.4-0.5 0.8-1 1.6-2.1 2.4-3 0.1-0.1 0.1-0.2 0.2-0.2 0.2-0.2 0.4-0.5 0.5-0.7 0.4-0.6 0.8-1.1 1.2-1.6 0.3-0.3 0.5-0.7 0.7-1 0.4-0.5 0.7-1 1.1-1.5 0.1-0.2 0.2-0.3 0.4-0.5 0.1-0.1 0.2-0.3 0.3-0.4 0.4-0.6 0.8-1.2 1.2-1.7 0.1-0.2 0.2-0.3 0.3-0.5 0.1-0.2 0.2-0.3 0.3-0.4 0.4-0.6 0.7-1.2 1.1-1.8 0.4-0.6 0.7-1.3 1.1-1.9 0-0.1 0.1-0.1 0.1-0.2v-0.1c0.4-0.7 0.8-1.5 1.1-2.2 0.2-0.4 0.4-0.8 0.6-1.3l0.3-0.6c0.1-0.1 0.1-0.3 0.2-0.4 0.3-0.8 0.7-1.6 1-2.3 0.1-0.2 0.2-0.4 0.2-0.7 0.1-0.3 0.2-0.5 0.3-0.8 0.1-0.4 0.3-0.7 0.4-1.1 0.2-0.7 0.5-1.5 0.7-2.2 0-0.1 0.1-0.2 0.1-0.3v-0.1c0.3-1 0.5-2 0.7-3 0-0.1 0-0.3 0.1-0.4 0.1-0.6 0.2-1.1 0.3-1.7 0.1-0.5 0.2-1.1 0.3-1.6 0-0.2 0-0.4 0.1-0.6 0-0.2 0-0.4 0.1-0.6-0.1-1.1-0.1-2.2 0-3.3z" fill="#2A2ABC" /><path d="M476.8 212.6c3.4-2 6.2-3.2 8.7-4.7 8.8-5.1 21.6-8.8 25.6-4.6 0.2-0.1 3.7-3 8.7-5.9 5.6-3.3 12.9-6.4 18.4-5.2 10.4 3.3 30.4 3.7 30.7 116.5 0 2.9 0.2 58.2 10.6 67-0.2 1-4.1 20.1-38.6 45-6.3 4.5-12.7 8.7-19.1 12.3-2.6 11.4 0.9 19.7 8.3 21.1 13.6 3.2 61.6-5 72.8-1.3 10.4 4.2 27.2 4.7 27.3 41.6L333.1 666.2c0.2-23.9 11.4-52.3 29.4-74.4 8-10.1 59.8-62.3 72.6-82.6 6.4-10.2 9.6-21.7 8.7-30.9-5 2.8-10.1 5.3-15.1 7.4-13.8 5.9-33.2 11.6-40.1 1.3 0.5-1.5 10.3-29.1 10.2-79-0.9-48.5 2.1-109.5 34-151.1 22.8-29.7 35.4-39.4 44-44.3z" fill="#4040FF" /><path d="M389.4 488c-0.3-0.3-0.6-0.7-0.8-1.1l-14.8-8.6c0.5 0.7 1.1 1.4 1.7 2 0.6 0.6 1.3 1.1 2.1 1.5l14.8 8.6c-1.1-0.6-2.1-1.4-3-2.4z" fill="#2A2ABC" /><path d="M531.4 186.6c-0.1 0-0.2-0.1-0.2-0.1-0.3-0.2-0.7-0.3-1-0.5-0.4-0.2-0.7-0.4-1.1-0.5 0 0-0.1 0-0.1-0.1-0.4-0.2-0.7-0.3-1.1-0.4-0.3-0.1-0.6-0.2-0.8-0.3-0.5-0.1-0.9-0.3-1.3-0.4-0.8-0.2-1.6-0.5-2.3-0.7-0.2 0-0.3-0.1-0.5-0.1-0.4-0.1-0.8-0.1-1.3-0.1H520.3c-0.2 0-0.5 0.1-0.7 0.1-0.3 0-0.5 0-0.8 0.1h-0.4c-0.2 0-0.5 0.1-0.7 0.2-0.5 0.1-0.9 0.2-1.4 0.3-0.1 0-0.3 0.1-0.4 0.1l-0.9 0.3c-0.3 0.1-0.6 0.2-0.8 0.3l-1.5 0.6c-0.2 0.1-0.5 0.2-0.7 0.3-0.1 0-0.1 0-0.2 0.1s-0.3 0.1-0.4 0.2c-0.9 0.4-1.7 0.8-2.5 1.2-0.3 0.1-0.5 0.3-0.8 0.4-1 0.5-1.9 1-2.8 1.5-4.6 2.7-7.9 5.2-8.6 5.8l-1.2-0.7h-0.1l-0.6-0.3c-0.1 0-0.1 0-0.2-0.1-0.1 0-0.2-0.1-0.3-0.1-0.1 0-0.2-0.1-0.3-0.1-0.1 0-0.3-0.1-0.4-0.1-0.1 0-0.3-0.1-0.4-0.1h-0.2c-0.2 0-0.3 0-0.5-0.1-0.2 0-0.4-0.1-0.7-0.1h-2.2c-0.7 0-1.5 0.1-2.2 0.2h-0.1c-0.2 0-0.3 0.1-0.5 0.1-0.4 0.1-0.8 0.1-1.2 0.2-0.2 0-0.5 0.1-0.7 0.2l-1.2 0.3c-0.1 0-0.3 0.1-0.4 0.1-0.1 0-0.2 0.1-0.2 0.1-0.9 0.2-1.8 0.5-2.7 0.8-0.1 0.1-0.3 0.1-0.4 0.2-0.9 0.3-1.8 0.7-2.8 1h-0.1s-0.1 0-0.1 0.1c-1.1 0.4-2.1 0.9-3.2 1.4h-0.1c-1.1 0.5-2.1 1.1-3.1 1.6-2.5 1.5-5.3 2.7-8.7 4.7-0.6 0.3-1.2 0.7-1.8 1.1l-0.1 0.1c-0.6 0.4-1.2 0.7-1.8 1.1-0.1 0-0.1 0.1-0.2 0.1-0.6 0.4-1.2 0.8-1.9 1.3l-0.2 0.2c-0.6 0.5-1.3 1-2 1.5l-0.2 0.2c-0.7 0.6-1.5 1.1-2.2 1.8l-0.1 0.1c-0.8 0.7-1.6 1.4-2.5 2.1l-0.1 0.1c-0.8 0.7-1.7 1.5-2.6 2.3-0.1 0.1-0.2 0.1-0.2 0.2-0.9 0.8-1.7 1.6-2.6 2.5l-0.1 0.1-0.2 0.2-2.2 2.2-0.3 0.3c-0.8 0.8-1.5 1.6-2.4 2.5l-0.1 0.1c-0.8 0.9-1.6 1.8-2.5 2.7-0.1 0.2-0.3 0.3-0.4 0.5-0.8 0.9-1.7 1.9-2.5 2.9-0.1 0.1-0.2 0.2-0.2 0.3l-0.3 0.3c-0.9 1-1.7 2-2.6 3.1-0.1 0.1-0.2 0.3-0.4 0.4l-2.7 3.3-0.3 0.3c-1 1.2-2 2.4-3 3.7-0.2 0.2-0.4 0.5-0.6 0.7-1 1.3-2 2.5-3 3.9-0.1 0.1-0.1 0.2-0.2 0.3-0.5 0.6-1 1.2-1.5 1.9-1 1.3-2 2.7-3 4v0.1c-0.2 0.2-0.3 0.5-0.5 0.7-0.8 1.2-1.6 2.3-2.4 3.5-0.1 0.1-0.1 0.2-0.2 0.3-0.3 0.5-0.6 0.9-0.9 1.4-0.5 0.9-1.1 1.8-1.6 2.7-0.1 0.1-0.2 0.3-0.3 0.4-0.3 0.5-0.5 0.9-0.8 1.4l-1.5 2.7c-0.1 0.2-0.2 0.4-0.4 0.6l-0.6 1.2c-0.5 1-1 1.9-1.5 2.9-0.1 0.3-0.3 0.6-0.4 0.9-0.2 0.3-0.3 0.6-0.4 1-0.5 1.1-1 2.2-1.5 3.4-0.2 0.4-0.3 0.7-0.5 1.1-0.1 0.2-0.2 0.4-0.2 0.6-0.8 1.8-1.5 3.7-2.3 5.5v0.1c0 0.1-0.1 0.2-0.1 0.3-0.8 2.1-1.5 4.2-2.3 6.3-0.1 0.3-0.2 0.5-0.3 0.8l-0.3 0.9c-0.3 0.8-0.5 1.5-0.7 2.3-0.3 0.8-0.5 1.6-0.7 2.4-0.2 0.8-0.5 1.5-0.7 2.3-0.1 0.5-0.3 0.9-0.4 1.4-0.1 0.3-0.1 0.5-0.2 0.8-0.4 1.5-0.8 3-1.2 4.6l-0.3 1.2c-0.5 1.9-0.9 3.8-1.3 5.8 0 0.1-0.1 0.2-0.1 0.4-0.1 0.6-0.2 1.1-0.3 1.7l-0.6 3c-0.1 0.7-0.3 1.5-0.4 2.2-0.2 1-0.4 1.9-0.5 2.9-0.1 0.8-0.3 1.5-0.4 2.3-0.2 1-0.3 1.9-0.5 2.9-0.1 0.8-0.2 1.6-0.3 2.3-0.1 1-0.3 1.9-0.4 2.9 0 0.4-0.1 0.7-0.1 1.1 0 0.3-0.1 0.5-0.1 0.8-0.3 2.5-0.6 4.9-0.9 7.4 0 0.3-0.1 0.6-0.1 0.9-0.2 2.4-0.5 4.8-0.6 7.2 0 0.3-0.1 0.6-0.1 0.9-0.2 2.5-0.3 4.9-0.5 7.4 0 0.5-0.1 1-0.1 1.5-0.1 2.4-0.2 4.8-0.3 7.3v1.2c-0.1 2.4-0.1 4.7-0.2 7.1v0.5c0 2.4-0.1 4.9-0.1 7.3V392.9c0 2.3 0.1 4.7 0.1 7V407.2c0 1.4-0.1 2.8-0.1 4.2v1.4c-0.1 1.8-0.1 3.5-0.2 5.2v0.9c-0.1 1.4-0.1 2.8-0.2 4.1 0 0.5-0.1 1-0.1 1.4-0.1 1.3-0.2 2.7-0.3 4 0 0.3 0 0.5-0.1 0.8-0.1 1.5-0.3 3-0.4 4.5 0 0.4-0.1 0.8-0.1 1.1l-0.3 3.3c0 0.4-0.1 0.8-0.1 1.2-0.2 1.4-0.3 2.7-0.5 4-0.1 1-0.3 2-0.4 3 0 0.3-0.1 0.6-0.1 1-0.1 0.6-0.2 1.3-0.3 1.9-0.1 0.4-0.1 0.7-0.2 1.1-0.1 0.6-0.2 1.1-0.3 1.6-0.1 0.4-0.1 0.8-0.2 1.1l-0.3 1.5c-0.1 0.4-0.1 0.7-0.2 1.1-0.1 0.5-0.2 0.9-0.3 1.4-0.1 0.4-0.1 0.7-0.2 1-0.1 0.4-0.2 0.9-0.3 1.3-0.1 0.3-0.1 0.7-0.2 1-0.1 0.4-0.2 0.8-0.3 1.3-0.1 0.3-0.1 0.6-0.2 0.9-0.1 0.3-0.1 0.5-0.2 0.8-0.2 0.8-0.3 1.5-0.5 2.2 0 0.2-0.1 0.4-0.1 0.5l-0.6 2.4c0 0.2-0.1 0.3-0.1 0.5-0.2 0.6-0.3 1.2-0.4 1.8 0 0.2-0.1 0.3-0.1 0.5-0.2 0.6-0.3 1.3-0.5 1.8 0 0.1-0.1 0.2-0.1 0.3l-0.3 1.2c0 0.1-0.1 0.3-0.1 0.4l-0.3 0.9c0 0.1-0.1 0.2-0.1 0.3-0.1 0.4-0.2 0.7-0.3 1v0.1c-0.1 0.3-0.2 0.5-0.2 0.7 0 0.1 0 0.1-0.1 0.2-0.1 0.2-0.1 0.3-0.1 0.4v0.1c0 0.1-0.1 0.2-0.1 0.3l14.8 8.6c0-0.1 0.1-0.1 0.1-0.3v-0.1c0-0.1 0.1-0.2 0.1-0.4v-0.1-0.1c0.1-0.2 0.1-0.4 0.2-0.7v-0.1c0.1-0.3 0.2-0.6 0.3-1 0-0.1 0.1-0.2 0.1-0.3l0.3-0.9c0-0.1 0.1-0.3 0.1-0.4l0.3-1.2c0-0.1 0-0.2 0.1-0.3v-0.1c0.2-0.6 0.3-1.2 0.5-1.8 0-0.2 0.1-0.3 0.1-0.5 0.1-0.6 0.3-1.1 0.4-1.8 0-0.2 0.1-0.3 0.1-0.5 0.2-0.8 0.4-1.5 0.6-2.4 0-0.2 0.1-0.4 0.1-0.5 0.2-0.7 0.3-1.4 0.5-2.2 0-0.2 0.1-0.3 0.1-0.4 0-0.1 0-0.2 0.1-0.4 0.1-0.3 0.1-0.6 0.2-0.9l0.3-1.2c0.1-0.3 0.1-0.7 0.2-1 0.1-0.4 0.2-0.9 0.3-1.3 0.1-0.3 0.1-0.7 0.2-1.1 0.1-0.5 0.2-0.9 0.3-1.4 0.1-0.4 0.1-0.7 0.2-1.1l0.3-1.5c0.1-0.4 0.1-0.7 0.2-1.1 0.1-0.5 0.2-1.1 0.3-1.6 0.1-0.4 0.1-0.7 0.2-1.1 0.1-0.6 0.2-1.3 0.3-1.9 0-0.3 0.1-0.6 0.1-1 0.1-1 0.3-2 0.4-3 0.2-1.3 0.3-2.7 0.5-4 0-0.4 0.1-0.8 0.1-1.2l0.3-3.3c0-0.4 0.1-0.8 0.1-1.1 0.1-1.5 0.3-3 0.4-4.5 0-0.3 0-0.5 0.1-0.8 0.1-1.3 0.2-2.6 0.3-4 0-0.5 0.1-0.9 0.1-1.4 0.1-1.4 0.2-2.7 0.2-4.1v-0.9c0.1-1.7 0.1-3.4 0.2-5.2v-1.4c0-1.4 0.1-2.8 0.1-4.2v-1.6-5.7c0-2.3-0.1-4.6-0.1-7v-1.3-6.9-1.3c0-2.4 0-4.8 0.1-7.3v-0.5c0-2.3 0.1-4.7 0.2-7.1v-1.2c0.1-2.4 0.2-4.8 0.3-7.3 0-0.5 0.1-1 0.1-1.5 0.1-2.5 0.3-4.9 0.5-7.4 0-0.3 0.1-0.6 0.1-0.9l0.6-7.2c0-0.3 0.1-0.6 0.1-0.9 0.3-2.5 0.5-4.9 0.9-7.4 0.1-0.6 0.2-1.2 0.2-1.9 0.1-1 0.3-1.9 0.4-2.9 0.1-0.8 0.2-1.6 0.3-2.3 0.1-1 0.3-1.9 0.5-2.9 0.1-0.8 0.2-1.5 0.4-2.3 0.2-1 0.3-1.9 0.5-2.9 0.1-0.7 0.3-1.5 0.4-2.2l0.6-3c0.1-0.7 0.3-1.4 0.4-2.1 0.4-1.9 0.9-3.8 1.3-5.8l0.3-1.2c0.4-1.5 0.8-3.1 1.2-4.6 0.2-0.7 0.4-1.5 0.6-2.2 0.2-0.8 0.4-1.6 0.7-2.3 0.2-0.8 0.5-1.6 0.7-2.4 0.2-0.8 0.5-1.5 0.7-2.3 0.2-0.6 0.4-1.2 0.6-1.7 0.7-2.1 1.5-4.2 2.3-6.3 0-0.1 0.1-0.2 0.1-0.3 0.7-1.9 1.5-3.7 2.3-5.5 0.2-0.6 0.5-1.1 0.7-1.7 0.5-1.1 1-2.3 1.5-3.4 0.3-0.6 0.6-1.2 0.9-1.9 0.5-1 1-2 1.5-2.9 0.3-0.6 0.6-1.2 1-1.8l1.5-2.7c0.3-0.6 0.7-1.2 1-1.8 0.5-0.9 1.1-1.8 1.6-2.7 0.3-0.6 0.7-1.1 1-1.7 0.8-1.2 1.6-2.4 2.4-3.5 0.2-0.3 0.3-0.5 0.5-0.8 1-1.4 1.9-2.7 3-4 0.6-0.7 1.1-1.4 1.7-2.2 1-1.3 2.1-2.6 3.1-3.9 0.2-0.2 0.4-0.5 0.5-0.7 1-1.3 2-2.5 3-3.7 0.1-0.1 0.2-0.2 0.2-0.3 0.9-1.1 1.9-2.3 2.8-3.3 0.1-0.1 0.2-0.3 0.4-0.4 0.9-1.1 1.8-2.1 2.7-3.1 0.2-0.2 0.3-0.4 0.5-0.6 0.9-1 1.7-2 2.6-2.9 0.1-0.2 0.3-0.3 0.4-0.4 0.9-0.9 1.7-1.9 2.5-2.7l0.1-0.1c0.8-0.9 1.6-1.7 2.4-2.5l0.3-0.3 2.2-2.2 0.4-0.4c0.9-0.9 1.8-1.7 2.6-2.5l0.2-0.2c0.9-0.8 1.7-1.6 2.6-2.3l0.1-0.1c0.9-0.8 1.7-1.5 2.5-2.1l0.1-0.1c0.8-0.6 1.5-1.2 2.2-1.8l0.2-0.2c0.7-0.5 1.3-1 2-1.5 0.1-0.1 0.2-0.1 0.2-0.2 0.6-0.5 1.2-0.9 1.8-1.3 0.1 0 0.1-0.1 0.2-0.1 0.6-0.4 1.2-0.8 1.8-1.1l0.1-0.1c0.6-0.4 1.2-0.7 1.8-1.1 3.4-2 6.2-3.2 8.7-4.7 1-0.6 2-1.1 3.1-1.6h0.1c1-0.5 2.1-1 3.2-1.4 0.1 0 0.1-0.1 0.2-0.1 0.9-0.4 1.8-0.7 2.8-1 0.1-0.1 0.3-0.1 0.4-0.2 0.9-0.3 1.8-0.6 2.7-0.8 0.2-0.1 0.4-0.1 0.6-0.2l1.2-0.3c0.2-0.1 0.5-0.1 0.7-0.2 0.4-0.1 0.8-0.2 1.2-0.2 0.2 0 0.4-0.1 0.6-0.1 0.8-0.1 1.5-0.2 2.2-0.2h2.1c0.2 0 0.4 0 0.7 0.1 0.2 0 0.4 0.1 0.6 0.1 0.1 0 0.3 0.1 0.4 0.1 0.2 0.1 0.4 0.1 0.6 0.2l2.3 1.3c0.2-0.1 3.7-3 8.7-5.9 0.9-0.5 1.8-1 2.8-1.5 0.3-0.1 0.5-0.3 0.8-0.4 0.8-0.4 1.7-0.8 2.5-1.2l0.6-0.3c0.2-0.1 0.5-0.2 0.7-0.3 0.5-0.2 1-0.4 1.6-0.6 0.3-0.1 0.6-0.2 0.8-0.3 0.4-0.1 0.9-0.3 1.3-0.4 0.5-0.1 0.9-0.2 1.4-0.3 0.4-0.1 0.8-0.2 1.2-0.2 0.3 0 0.5-0.1 0.8-0.1 0.5 0 1-0.1 1.5-0.1h0.4c0.7 0 1.4 0.1 2 0.2 0.5 0.2 1 0.3 1.6 0.5h0.1c0.2 0.1 0.5 0.1 0.7 0.2 0.4 0.1 0.8 0.3 1.3 0.4 0.3 0.1 0.6 0.2 0.8 0.3 0.4 0.1 0.8 0.3 1.2 0.5 0.4 0.2 0.7 0.4 1.1 0.5l1.2 0.6-14.8-8.6z" fill="#2A2ABC" /><path d="M492.6 457.2c1.7 0.8 3.2 1.6 4.5 2.3 1.2 0.7 2.1 1.8 2.8 3.1 0.6 1.2 0.6 3-0.2 4.8-2 5.2-3.6 9.4-5 12.5-1.1 2.8-2.6 5.4-4.2 7.9 0.8 2.1 1.6 5 2.6 8.7 1 3.7 1.9 7.6 2.8 11.6 0.9 4 1.7 7.7 2.4 10.9 0.6 2.2 1 4.6 1.1 7.1-0.1 1.8-0.7 3.8-1.6 5.7-1.2 2.6-2.5 5.2-4.1 7.6-1.5 2.5-3.2 4.9-5 7.2-1.3 1.8-2.8 3.4-4.4 4.5-1.6 0.8-3 1-4.3 0.6-1.7-0.4-3.3-1.1-4.6-2.1-1.4-1-2.7-2-3.9-3.2-0.9-0.7-1.5-2-1.7-3.6 0.1-3 0.4-6.2 0.9-9.4 0.6-4.3 1.3-8.8 2.2-13.8 0.8-4.9 1.8-9.7 2.7-14.5 1-4.7 1.7-8.4 2.2-10.9-1.7-0.8-3.1-2.1-4.1-3.9a132 132 0 0 0-4.5-6.7c-0.7-0.8-0.8-2.4-0.2-4.1 0.6-1.9 1.4-3.7 2.4-5.6 1.2-2.5 2.6-4.9 4.1-7.3l17.1-9.4z" fill="#2828CE" /><path d="M487.6 558.1c-0.9-0.7-1.5-2-1.7-3.6 0-1.4 0.1-2.8 0.3-4.2 0-0.4 0.1-0.9 0.1-1.3 0.1-1.3 0.3-2.6 0.5-3.9 0.6-4.3 1.3-8.8 2.2-13.8 0.8-4.9 1.8-9.7 2.7-14.5 1-4.7 1.7-8.4 2.2-10.9l-10.8-6.3c-0.5 2.6-1.2 6.2-2.2 10.9-1 4.7-1.9 9.5-2.7 14.5-0.9 4.9-1.6 9.5-2.2 13.8-0.1 0.8-0.2 1.5-0.3 2.3-0.1 0.6-0.1 1.1-0.2 1.7 0 0.4-0.1 0.9-0.1 1.3l-0.3 4.2c0.2 1.6 0.7 2.8 1.7 3.6 1.2 1.2 2.5 2.3 3.9 3.2 0.3 0.2 0.7 0.5 1 0.7l10.8 6.3c-0.3-0.2-0.7-0.4-1-0.7-1.4-1-2.7-2.1-3.9-3.3z" fill="#ACC5EA" /><path d="M508.6 468.7l-10.8-6.3c1.2 0.5 2.2 1.1 3.2 1.6l10.8 6.3c-0.9-0.6-2-1.1-3.2-1.6" fill="#878787" /><path d="M511.8 470.3L501 464c0.1 0.1 0.2 0.1 0.3 0.2l10.8 6.3c-0.1-0.1-0.2-0.2-0.3-0.2" fill="#838383" /><path d="M491.6 478.5l-10.8-6.3 17-9.8 10.8 6.3z" fill="#ACC5EA" /><path d="M508.6 468.7c1.7 0.8 3.2 1.6 4.5 2.3 1.2 0.7 2.1 1.8 2.8 3.1 0.6 1.2 0.6 3-0.2 4.8-2 5.2-3.6 9.4-5 12.5-1.1 2.8-2.6 5.4-4.2 7.9 0.8 2.1 1.6 5 2.6 8.7 1 3.7 1.9 7.6 2.8 11.6 0.9 4 1.7 7.7 2.4 10.9 0.6 2.2 1 4.6 1.1 7.1-0.1 1.8-0.7 3.8-1.6 5.7-1.2 2.6-2.5 5.2-4.1 7.6-1.5 2.5-3.2 4.9-5 7.2-1.3 1.8-2.8 3.4-4.4 4.5-1.6 0.8-3 1-4.3 0.6-1.7-0.4-3.3-1.1-4.6-2.1-1.4-1-2.7-2-3.9-3.2-0.9-0.7-1.5-2-1.7-3.6 0.1-3 0.4-6.2 0.9-9.4 0.6-4.3 1.3-8.8 2.2-13.8 0.8-4.9 1.8-9.7 2.7-14.5 1-4.7 1.7-8.4 2.2-10.9-1.7-0.8-3.1-2.1-4.1-3.9a132 132 0 0 0-4.5-6.7c-0.7-0.8-0.8-2.4-0.2-4.1 0.6-1.9 1.4-3.7 2.4-5.6 1.2-2.5 2.6-4.9 4.1-7.3l17.1-9.4z" fill="#FFFFFF" /><path d="M489.8 502.1l-10.8-6.3c0.9 1.5 2.1 2.8 3.6 3.6l10.8 6.3c-1.5-0.9-2.7-2.1-3.6-3.6zM485.3 495.4c-0.2-0.2-0.3-0.4-0.4-0.7 0-0.1 0-0.1-0.1-0.2-0.1-0.2-0.1-0.5-0.1-0.7v-0.1c0-0.3 0-0.7 0.1-1v-0.1l0.3-1.2c0.3-0.9 0.7-1.8 1-2.7v-0.1c0.4-0.9 0.8-1.8 1.3-2.7 0.5-1.1 1.1-2.2 1.7-3.2 0.2-0.3 0.3-0.6 0.5-0.9 0.6-1.1 1.2-2.1 1.9-3.2l-10.8-6.3c-0.5 0.8-1 1.6-1.4 2.4-0.1 0.3-0.3 0.5-0.4 0.8-0.2 0.3-0.3 0.6-0.5 0.9-0.2 0.3-0.3 0.6-0.5 0.9-0.4 0.8-0.8 1.5-1.2 2.3 0 0 0 0.1-0.1 0.1-0.2 0.4-0.4 0.8-0.6 1.3-0.2 0.4-0.4 0.9-0.6 1.3v0.2c-0.2 0.4-0.3 0.8-0.5 1.2-0.2 0.5-0.4 1-0.5 1.4v0.1c0 0.1-0.1 0.2-0.1 0.3 0 0.1-0.1 0.2-0.1 0.3 0 0.1-0.1 0.3-0.1 0.4V487.6c0 0.3 0.1 0.5 0.1 0.7 0 0.1 0 0.1 0.1 0.2 0.1 0.2 0.2 0.5 0.4 0.7 1.7 2.5 3.2 4.8 4.5 6.7l10.8 6.3c-1.4-2.1-2.9-4.3-4.7-6.8z" fill="#ACC5EA" /><path d="M662.1 529.7l-14.8-8.6 45.5 19.3 14.9 8.6z" fill="#C68620" /><path d="M683.4 504l-14.8-8.6c-4.2-2.4-4-8.1-7.3-10.1l14.8 8.6c3.2 1.9 3.1 7.7 7.3 10.1" fill="#C68620" /><path d="M650.8 536.2l-14.8-8.6v-13l14.8 8.6z" fill="#C68620" /><path d="M650.8 523.2l-14.8-8.6 11.3-6.6 14.8 8.7zM628.2 549.3l-14.9-8.6 22.7-13.1 14.8 8.6zM571.7 627.5l-14.8-8.7 45.2-71.6 14.8 8.6z" fill="#C68620" /><path d="M571.8 657.8l-0.1-30.4-14.8-8.6 0.1 30.4c0 3.6 1.5 6.1 3.7 7.4l14.8 8.6c-2.2-1.3-3.7-3.8-3.7-7.4zM616.9 555.8l-14.8-8.6v-13l14.8 8.6z" fill="#C68620" /><path d="M616.9 542.8l-14.8-8.6 11.2-6.5 14.8 8.6z" fill="#C68620" /><path d="M662.1 516.7v13l45.5 19.3 0.1 30.4c0 8.4-7.9 19.8-15.2 24l-105.7 61c-7.3 4.2-15.1 1.9-15.1-6.5l-0.1-30.4 45.2-71.7v-13l11.2-6.5v13l22.7-13.1v-13l11.4-6.5z" fill="#FFCD2E" /><path d="M639.3 482c2.2-1.3 43.6-25 66.1-22.9 8.7 0.8 13 7.3 13.2 15.1 0.2 9.2-5.2 20.4-15.9 26.5-3.1 1.8-6.6 3.1-10.5 3.9-16.5 3.3-9.9-12.4-19.9-11.3-15.8 1.8-31 10.3-32.8 11.4-1.7 1-17.1 10.1-33.2 26.8-9.9 10.3-3.2 18.4-19.7 34.2-3.9 3.7-7.4 6.4-10.5 8.2-10.6 6.1-16.1 1.4-16-8 0.1-8.1 4.4-19.6 13.1-30.5 22.5-28 63.9-52.1 66.1-53.4z" fill="#FFCD2E" /><path d="M640.4 481.4c0.2-0.1 0.3-0.2 0.5-0.3 0.1-0.1 0.3-0.2 0.4-0.2l0.6-0.3c0.2-0.1 0.3-0.2 0.5-0.3 0.2-0.1 0.5-0.3 0.7-0.4l0.6-0.3c0.3-0.1 0.6-0.3 0.9-0.5l0.6-0.3c0.3-0.2 0.6-0.3 1-0.5 0.2-0.1 0.5-0.3 0.7-0.4 0.3-0.2 0.7-0.4 1.1-0.5 0.3-0.1 0.5-0.3 0.8-0.4l1.2-0.6c0.3-0.1 0.5-0.3 0.8-0.4 0.4-0.2 0.9-0.4 1.3-0.7 0.3-0.1 0.5-0.3 0.8-0.4l1.8-0.9c0.1-0.1 0.3-0.1 0.4-0.2 0.8-0.4 1.5-0.7 2.3-1.1 0.2-0.1 0.5-0.2 0.7-0.3 0.6-0.3 1.1-0.5 1.7-0.8 0.3-0.1 0.6-0.3 0.9-0.4 0.5-0.2 1.1-0.5 1.6-0.7 0.3-0.2 0.7-0.3 1.1-0.5 0.5-0.2 1-0.5 1.6-0.7 0.4-0.2 0.8-0.3 1.1-0.5 0.5-0.2 1-0.4 1.6-0.7 0.3-0.1 0.6-0.2 0.9-0.4 1.3-0.5 2.6-1.1 4-1.6 0.1 0 0.3-0.1 0.4-0.1 1.3-0.5 2.6-1 3.9-1.4 0.2-0.1 0.4-0.1 0.6-0.2 1.3-0.5 2.6-0.9 4-1.3 0.3-0.1 0.5-0.2 0.8-0.2 1.3-0.4 2.6-0.8 4-1.2 0.2-0.1 0.4-0.1 0.6-0.1 1.3-0.3 2.6-0.7 3.8-0.9 0.1 0 0.2-0.1 0.3-0.1 1.3-0.3 2.6-0.5 3.8-0.7 0.3 0 0.6-0.1 0.8-0.1 0.5-0.1 1.1-0.1 1.6-0.2 0.3 0 0.7-0.1 1-0.1 0.6-0.1 1.2-0.1 1.7-0.1 0.3 0 0.5 0 0.8-0.1h3.3c0.4 0 0.9 0 1.3 0.1 0.5 0.1 1.1 0.1 1.6 0.2 0.3 0.1 0.7 0.1 1 0.2 0.2 0.1 0.5 0.1 0.7 0.2 0.3 0.1 0.6 0.2 0.8 0.3 0.2 0.1 0.5 0.2 0.7 0.3 0.3 0.1 0.5 0.2 0.8 0.4 0.2 0.1 0.5 0.2 0.7 0.4l-14.8-8.6s-0.1-0.1-0.2-0.1l-0.6-0.3c-0.3-0.1-0.5-0.3-0.8-0.4h-0.1c-0.2-0.1-0.4-0.1-0.6-0.2-0.3-0.1-0.6-0.2-0.8-0.3h-0.1c-0.2-0.1-0.4-0.1-0.6-0.1-0.3-0.1-0.6-0.2-1-0.2h-0.2c-0.5-0.1-0.9-0.1-1.4-0.2-0.3 0-0.6-0.1-0.9-0.1h-0.4c-1.1-0.1-2.2-0.1-3.3 0h-0.1c-0.2 0-0.5 0-0.7 0.1-0.6 0-1.1 0.1-1.7 0.1-0.3 0-0.7 0.1-1 0.1-0.5 0.1-1.1 0.1-1.6 0.2-0.1 0-0.3 0-0.4 0.1-0.1 0-0.3 0.1-0.4 0.1-1.3 0.2-2.5 0.4-3.8 0.7-0.1 0-0.2 0.1-0.3 0.1-1.3 0.3-2.6 0.6-3.8 0.9-0.1 0-0.2 0.1-0.4 0.1-0.1 0-0.1 0-0.2 0.1-1.3 0.4-2.6 0.7-4 1.2-0.3 0.1-0.5 0.2-0.8 0.2-1.3 0.4-2.6 0.9-4 1.3-0.2 0.1-0.4 0.1-0.6 0.2-1.3 0.5-2.6 0.9-3.8 1.4-0.1 0.1-0.3 0.1-0.4 0.2-1.3 0.5-2.6 1-3.9 1.6-0.1 0.1-0.3 0.1-0.4 0.2-0.2 0.1-0.3 0.1-0.5 0.2l-1.5 0.6c-0.4 0.2-0.8 0.3-1.1 0.5-0.5 0.2-1 0.4-1.5 0.7-0.4 0.2-0.7 0.3-1.1 0.5-0.5 0.2-1 0.5-1.6 0.7-0.3 0.1-0.7 0.3-1 0.4-0.6 0.3-1.2 0.5-1.8 0.8-0.2 0.1-0.5 0.2-0.7 0.3-0.8 0.4-1.6 0.8-2.4 1.1-0.1 0.1-0.3 0.1-0.4 0.2l-1.8 0.9c-0.3 0.1-0.5 0.2-0.7 0.4-0.5 0.2-0.9 0.5-1.4 0.7-0.3 0.1-0.5 0.3-0.8 0.4l-1.2 0.6c-0.3 0.1-0.5 0.3-0.8 0.4-0.3 0.2-0.7 0.4-1 0.5-0.3 0.1-0.5 0.3-0.8 0.4-0.3 0.2-0.6 0.3-0.9 0.5-0.2 0.1-0.5 0.2-0.7 0.4-0.3 0.1-0.5 0.3-0.8 0.4l-0.6 0.3c-0.2 0.1-0.5 0.3-0.7 0.4-0.2 0.1-0.3 0.2-0.5 0.3-0.2 0.1-0.4 0.2-0.6 0.4-0.1 0.1-0.3 0.2-0.4 0.2-0.2 0.1-0.4 0.2-0.5 0.3-0.1 0-0.2 0.1-0.2 0.1-0.1 0.1-0.3 0.1-0.4 0.2-0.2 0.1-0.5 0.3-0.5 0.3-0.1 0-0.2 0.1-0.3 0.2 0 0-0.1 0-0.1 0.1-0.1 0.1-0.2 0.1-0.4 0.2-0.1 0-0.1 0.1-0.2 0.1-0.1 0.1-0.3 0.2-0.4 0.3-0.1 0.1-0.2 0.1-0.3 0.2-0.2 0.1-0.3 0.2-0.5 0.3-0.1 0.1-0.3 0.2-0.4 0.2-0.2 0.1-0.4 0.3-0.7 0.4-0.1 0.1-0.3 0.2-0.4 0.2-0.4 0.2-0.8 0.5-1.2 0.7-0.1 0-0.2 0.1-0.2 0.2-0.4 0.2-0.7 0.5-1.1 0.7-0.1 0.1-0.3 0.2-0.5 0.3-0.3 0.2-0.7 0.4-1 0.6-0.2 0.1-0.4 0.3-0.7 0.4-0.3 0.2-0.7 0.4-1 0.6-0.2 0.1-0.4 0.3-0.7 0.4-0.4 0.2-0.8 0.5-1.2 0.8-0.2 0.1-0.4 0.3-0.6 0.4-0.5 0.3-1 0.6-1.5 1-0.1 0.1-0.3 0.2-0.4 0.3-0.7 0.4-1.3 0.9-2 1.3-0.1 0.1-0.3 0.2-0.5 0.3-0.5 0.4-1.1 0.7-1.6 1.1-0.2 0.2-0.5 0.3-0.7 0.5-0.5 0.3-1 0.7-1.4 1-0.3 0.2-0.6 0.4-0.8 0.6-0.5 0.3-0.9 0.7-1.4 1l-0.9 0.6c-0.5 0.4-1 0.7-1.5 1.1-0.3 0.2-0.6 0.4-0.8 0.6-0.6 0.4-1.2 0.9-1.9 1.4-0.2 0.1-0.3 0.2-0.5 0.4l-2.4 1.8c-0.2 0.2-0.4 0.3-0.7 0.5-0.6 0.5-1.2 0.9-1.8 1.4-0.3 0.2-0.6 0.5-0.9 0.7-0.5 0.4-1.1 0.8-1.6 1.2-0.3 0.3-0.6 0.5-1 0.8-0.5 0.4-1 0.8-1.6 1.3-0.3 0.3-0.6 0.5-1 0.8-0.6 0.4-1.1 0.9-1.7 1.4-0.3 0.2-0.6 0.5-0.8 0.7-0.7 0.6-1.5 1.2-2.2 1.9-0.1 0.1-0.2 0.2-0.3 0.2-0.8 0.7-1.7 1.4-2.5 2.1-0.3 0.2-0.5 0.4-0.7 0.7-0.6 0.5-1.1 1-1.7 1.5-0.3 0.3-0.6 0.6-0.9 0.8-0.5 0.5-1 0.9-1.5 1.4l-0.9 0.9c-0.5 0.5-1 1-1.5 1.4l-0.9 0.9-0.4 0.4-0.4 0.4c-1.1 1.1-2.3 2.3-3.3 3.4l-0.3 0.3c-1.1 1.2-2.2 2.4-3.3 3.7l-0.4 0.4c-0.1 0.1-0.2 0.3-0.3 0.4-1 1.1-1.9 2.2-2.8 3.4-0.2 0.3-0.5 0.6-0.7 0.9-0.7 0.9-1.4 1.9-2.1 2.9-0.1 0.1-0.1 0.2-0.2 0.2-0.1 0.2-0.2 0.3-0.3 0.5l-1.2 1.8c-0.3 0.5-0.6 1.1-1 1.6-0.1 0.2-0.2 0.3-0.3 0.5-0.1 0.1-0.1 0.2-0.2 0.3-0.4 0.8-0.9 1.5-1.3 2.3-0.2 0.3-0.3 0.7-0.5 1l-0.3 0.6-0.3 0.6c-0.4 0.7-0.7 1.5-1 2.2l-0.3 0.6c-0.1 0.2-0.2 0.4-0.2 0.6-0.1 0.3-0.3 0.6-0.4 0.9-0.3 0.7-0.6 1.5-0.8 2.2 0 0.1 0 0.2-0.1 0.3-0.1 0.2-0.1 0.3-0.1 0.5-0.2 0.5-0.3 1.1-0.5 1.6-0.1 0.4-0.2 0.9-0.3 1.3-0.1 0.2-0.1 0.5-0.2 0.7 0 0.1-0.1 0.3-0.1 0.4-0.2 0.9-0.3 1.8-0.5 2.7v0.2c-0.1 1.1-0.2 2.2-0.2 3.2-0.1 4.7 1.3 8.2 4 9.8l14.8 8.6c-2.7-1.6-4.1-5.1-4-9.8 0-1 0.1-2.1 0.2-3.2v-0.2c0.1-1 0.3-2 0.6-3.1 0.1-0.2 0.1-0.5 0.2-0.7 0.2-0.9 0.5-1.9 0.8-2.9 0-0.2 0.1-0.3 0.1-0.5 0.4-1.1 0.8-2.3 1.3-3.4 0.1-0.2 0.2-0.4 0.2-0.6 0.5-1.1 1-2.3 1.6-3.5l0.3-0.6c0.6-1.2 1.3-2.4 2-3.6 0.1-0.2 0.2-0.3 0.3-0.5 0.7-1.1 1.4-2.3 2.2-3.4 0.1-0.2 0.2-0.3 0.3-0.5 0.9-1.3 1.9-2.7 3-4 0.9-1.1 1.9-2.3 2.8-3.4 0.2-0.3 0.5-0.6 0.7-0.8 1.1-1.2 2.2-2.5 3.3-3.7l0.3-0.3c1.1-1.2 2.2-2.3 3.3-3.4l0.8-0.8 0.9-0.9c0.5-0.5 1-1 1.5-1.4l0.9-0.9c0.5-0.5 1-0.9 1.5-1.4 0.3-0.3 0.6-0.6 0.9-0.8 0.6-0.5 1.1-1 1.7-1.5 0.3-0.2 0.5-0.5 0.8-0.7 0.8-0.7 1.6-1.4 2.5-2.1l0.3-0.3c0.7-0.6 1.5-1.2 2.2-1.8 0.3-0.2 0.6-0.5 0.8-0.7 0.6-0.5 1.1-0.9 1.7-1.4 0.3-0.3 0.6-0.5 1-0.8 0.5-0.4 1-0.8 1.6-1.2 0.3-0.3 0.7-0.5 1-0.8 0.5-0.4 1-0.8 1.6-1.2 0.3-0.2 0.6-0.5 0.9-0.7 0.6-0.4 1.2-0.9 1.7-1.3 0.2-0.2 0.5-0.4 0.7-0.5l2.4-1.8c0.2-0.1 0.3-0.2 0.5-0.4 0.6-0.5 1.2-0.9 1.9-1.4 0.3-0.2 0.6-0.4 0.8-0.6 0.5-0.4 1-0.7 1.5-1.1l0.9-0.6c0.5-0.3 1-0.7 1.4-1 0.3-0.2 0.6-0.4 0.8-0.6 0.5-0.3 1-0.7 1.4-1 0.2-0.2 0.5-0.3 0.7-0.5 0.6-0.4 1.1-0.7 1.6-1.1 0.2-0.1 0.3-0.2 0.5-0.3 0.7-0.5 1.3-0.9 2-1.3 0.2-0.1 0.3-0.2 0.5-0.3 0.5-0.3 1-0.6 1.4-0.9 0.2-0.1 0.4-0.3 0.6-0.4 0.4-0.3 0.8-0.5 1.2-0.8 0.2-0.1 0.5-0.3 0.7-0.4 0.3-0.2 0.7-0.4 1-0.6 0.2-0.1 0.4-0.3 0.7-0.4 0.4-0.2 0.7-0.4 1-0.6 0.2-0.1 0.3-0.2 0.5-0.3 0.4-0.2 0.8-0.5 1.1-0.7 0.1 0 0.2-0.1 0.2-0.2 0.4-0.3 0.8-0.5 1.2-0.7 0.1-0.1 0.3-0.2 0.4-0.2 0.2-0.1 0.5-0.3 0.7-0.4 0.1-0.1 0.3-0.2 0.4-0.2 0.2-0.1 0.4-0.2 0.5-0.3 0.1-0.1 0.2-0.1 0.3-0.2 0.2-0.1 0.3-0.2 0.4-0.3 0.1 0 0.1-0.1 0.2-0.1 0.1-0.1 0.3-0.2 0.4-0.2 0 0 0.1 0 0.1-0.1 0.1-0.1 0.2-0.1 0.3-0.2 0.1-0.1 0.3-0.2 0.5-0.3 0.1-0.1 0.2-0.1 0.4-0.2 0-0.7 0.1-0.8 0.1-0.8z" fill="#C68620" /><path d="M642.7 555.6c13.1-7.6 23.7-1.5 23.8 13.5 0 15-10.5 33.3-23.6 40.9-13.1 7.6-23.7 1.5-23.8-13.5 0-15 10.5-33.3 23.6-40.9z" fill="#C68620" /><path d="M659.8 559.6h0.1c0.6-0.2 1.2-0.3 1.7-0.5 0.3-0.1 0.6-0.1 1-0.2s0.8-0.1 1.3-0.2c0.2 0 0.5-0.1 0.7-0.1h1.8c0.6 0 1.2 0.1 1.8 0.2 0.1 0 0.3 0.1 0.4 0.1 0.4 0.1 0.9 0.2 1.3 0.4 0.1 0 0.3 0.1 0.4 0.1 0.5 0.2 1.1 0.5 1.6 0.7l-8.6-5s-0.1 0-0.1-0.1l-1.2-0.6c-0.1 0-0.2-0.1-0.2-0.1-0.1-0.1-0.3-0.1-0.4-0.1-0.2-0.1-0.4-0.2-0.6-0.2-0.2-0.1-0.5-0.1-0.7-0.2-0.1 0-0.3-0.1-0.4-0.1-0.1 0-0.1 0-0.2-0.1-0.5-0.1-0.9-0.1-1.4-0.2h-1.9c-0.2 0-0.5 0-0.7 0.1-0.2 0-0.4 0-0.7 0.1-0.2 0-0.4 0.1-0.6 0.1-0.3 0.1-0.6 0.1-1 0.2-0.2 0-0.3 0.1-0.5 0.1-0.4 0.1-0.8 0.2-1.2 0.4h-0.1c-0.5 0.2-1 0.3-1.5 0.6l-0.6 0.3-0.6 0.3c-0.7 0.3-1.4 0.7-2.2 1.1-0.8 0.4-1.5 0.9-2.3 1.4-0.2 0.2-0.5 0.3-0.7 0.5-0.5 0.4-1 0.7-1.5 1.1-0.3 0.2-0.5 0.4-0.8 0.7-0.5 0.4-0.9 0.8-1.3 1.2-0.3 0.2-0.5 0.5-0.8 0.7l-0.5 0.5c-0.2 0.2-0.3 0.4-0.5 0.5-0.5 0.5-1.1 1.1-1.6 1.7l-0.5 0.5c-0.1 0.2-0.3 0.3-0.4 0.5-0.3 0.4-0.6 0.7-0.9 1.1-0.2 0.2-0.4 0.5-0.6 0.7-0.2 0.2-0.3 0.4-0.5 0.6-0.2 0.3-0.4 0.6-0.7 0.9-0.1 0.2-0.3 0.4-0.5 0.6-0.2 0.4-0.5 0.7-0.7 1.1-0.2 0.2-0.3 0.5-0.5 0.7-0.1 0.1-0.1 0.2-0.2 0.3-0.4 0.7-0.8 1.3-1.2 2l-0.1 0.1c-0.1 0.1-0.2 0.3-0.2 0.4-0.3 0.5-0.5 1-0.8 1.4-0.1 0.2-0.2 0.5-0.3 0.7-0.1 0.2-0.2 0.5-0.4 0.7l-0.3 0.6c-0.3 0.6-0.5 1.1-0.8 1.7 0 0.1-0.1 0.2-0.1 0.3v0.1l-0.9 2.1c0 0.1-0.1 0.3-0.1 0.4-0.1 0.3-0.2 0.5-0.3 0.8-0.1 0.4-0.3 0.7-0.4 1.1-0.1 0.3-0.2 0.6-0.3 0.8-0.1 0.3-0.2 0.7-0.3 1-0.1 0.2-0.1 0.4-0.2 0.6-0.1 0.4-0.2 0.7-0.3 1.1l-0.3 1.2c0 0.1-0.1 0.3-0.1 0.4-0.1 0.3-0.1 0.6-0.1 0.9-0.1 0.6-0.2 1.3-0.3 1.9 0 0.2-0.1 0.3-0.1 0.5-0.1 0.4-0.1 0.8-0.1 1.2 0 0.3-0.1 0.6-0.1 0.8-0.1 0.9-0.1 1.8-0.1 2.6 0 7.5 2.7 12.7 6.9 15.2l8.6 5c-4.3-2.5-6.9-7.7-6.9-15.2 0-0.9 0-1.7 0.1-2.6 0-0.3 0.1-0.6 0.1-0.8 0.1-0.6 0.1-1.1 0.2-1.7 0.1-0.6 0.2-1.3 0.3-1.9 0.1-0.4 0.2-0.9 0.3-1.3l0.3-1.2c0.1-0.6 0.3-1.1 0.5-1.7 0.1-0.3 0.2-0.7 0.3-1 0.2-0.6 0.4-1.3 0.6-1.9 0.1-0.3 0.2-0.5 0.3-0.8 0.3-0.9 0.7-1.7 1-2.6 0-0.1 0.1-0.2 0.1-0.3 0.3-0.8 0.7-1.5 1.1-2.3 0.1-0.2 0.2-0.5 0.4-0.7l1.2-2.1c0.1-0.1 0.2-0.3 0.2-0.4l1.5-2.4c0.1-0.2 0.3-0.5 0.5-0.7 0.4-0.6 0.8-1.1 1.2-1.7 0.2-0.3 0.4-0.6 0.7-0.9 0.3-0.5 0.7-0.9 1.1-1.4 0.3-0.4 0.6-0.8 0.9-1.1 0.3-0.3 0.6-0.7 0.9-1 0.5-0.6 1-1.1 1.6-1.7l1-1c0.3-0.3 0.5-0.5 0.8-0.7 0.4-0.4 0.9-0.8 1.3-1.2 0.3-0.2 0.5-0.5 0.8-0.7 0.5-0.4 1-0.8 1.5-1.1 0.2-0.2 0.5-0.4 0.7-0.5 0.7-0.5 1.5-1 2.3-1.4 0.7-0.4 1.5-0.8 2.2-1.1l0.6-0.3c0.5-0.1 1.1-0.4 1.8-0.6z" fill="#E8CFAC" /><path d="M655 561.8c13.1-7.6 23.7-1.5 23.8 13.5 0 15-10.5 33.3-23.6 40.9-13.1 7.6-23.7 1.5-23.8-13.5 0-15 10.5-33.4 23.6-40.9z" fill="#FFFFFF" /></svg>