<?xml version="1.0" encoding="utf-8"?>
<!-- Uploaded to: SVG Repo, www.svgrepo.com, Generator: SVG Repo Mixer Tools -->
<svg width="800px" height="800px" viewBox="0 0 1024 1024" class="icon"  version="1.1" xmlns="http://www.w3.org/2000/svg"><path d="M906 558.4c-1.1 11-11.2 16.5-19.8 21.5-8 4.6-16 9.3-23.9 13.9-12.8 7.4-25.5 14.8-38.3 22.2-16 9.3-31.9 18.6-47.9 27.8-17.6 10.2-35.2 20.5-52.9 30.7-17.7 10.3-35.4 20.6-53.2 30.9-16.3 9.5-32.5 18.9-48.8 28.4-13.3 7.7-26.5 15.4-39.8 23.1-8.7 5-17.4 10.1-26.1 15.1-6.6 3.8-12.8 7.6-20.3 9.8-19.5 5.6-41.1 3.7-58.7-6.5-6.3-3.7-12.7-7.3-19-11-11.6-6.7-23.1-13.3-34.7-20-15.2-8.8-30.4-17.6-45.6-26.3-17.3-10-34.7-20-52-30-17.9-10.3-35.8-20.7-53.7-31-16.9-9.8-33.8-19.5-50.8-29.3l-43.2-24.9c-10.3-6-20.7-11.9-31-17.9-4.7-2.7-9.4-5.4-14.1-8.2-7.4-4.3-14.7-11.1-14.7-20.3 0 8.4 0 16.8-0.1 25.3 0 3-0.2 6.1 0 9.2 0.6 8.1 7 14.4 13.7 18.4 4.1 2.5 8.3 4.8 12.5 7.2 10.8 6.2 21.6 12.5 32.4 18.7 15.6 9 31.1 18 46.7 27 18.5 10.7 37.1 21.4 55.6 32.1 19.3 11.2 38.6 22.3 58 33.5 18.4 10.6 36.7 21.2 55.1 31.8 15.3 8.8 30.5 17.6 45.8 26.4 10.3 6 20.7 11.9 31 17.9 6 3.4 11.9 7.3 18.4 9.7 20.3 7.4 44.1 5.8 62.8-5.1 7.1-4.1 14.2-8.3 21.3-12.4 13.1-7.6 26.2-15.2 39.2-22.8 17.1-9.9 34.1-19.8 51.2-29.8 19.1-11.1 38.2-22.2 57.2-33.3l57.3-33.3c17.1-10 34.2-19.9 51.4-29.9 13.3-7.7 26.6-15.4 39.9-23.2 7.3-4.3 14.7-8.5 22-12.8 2.2-1.3 4.5-2.6 6.6-4.1 5.6-4.2 10-10 10.1-17.3 0.1-3.7 0-7.3 0-11 0-7.3 0-14.7 0.1-22 0.4 0.8 0.4 1.3 0.3 1.8 0 0.3 0.1-0.2 0 0zM906.1 556.8z" fill="#7A9EFD" /><path d="M891.8 536.9c19 11 19.1 28.9 0.2 39.9L547.6 776.9c-18.9 11-49.8 11-68.8 0L132.1 576.8c-19-11-19.1-28.9-0.2-39.9l344.4-200.2c18.9-11 49.8-11 68.8 0l346.7 200.2z" fill="#E4ECF9" /><path d="M493.4 553.6l-7.2-16.1-14.8-8.6 7.2 16.1c0.6 1.3 1.5 2.3 2.6 2.9l14.8 8.6c-1.1-0.6-2-1.6-2.6-2.9zM631.3 292.3c0.4-0.2 0.8-0.3 1.2-0.4 0.2 0 0.3-0.1 0.5-0.1s0.3-0.1 0.5-0.1 0.4-0.1 0.6-0.1H635.3c0.2 0 0.5 0.1 0.7 0.1h0.2c0.2 0 0.4 0.1 0.5 0.2 0.1 0 0.1 0 0.2 0.1 0.2 0.1 0.5 0.2 0.7 0.3l-14.8-8.6h-0.1c-0.2-0.1-0.3-0.2-0.5-0.3h-0.1c-0.1 0-0.1 0-0.2-0.1-0.1 0-0.2-0.1-0.3-0.1-0.1 0-0.2 0-0.3-0.1h-0.2-0.1c-0.2 0-0.4-0.1-0.6-0.1H619.6h-0.8-0.1c-0.2 0-0.3 0.1-0.5 0.1-0.1 0-0.2 0-0.3 0.1h-0.1c-0.4 0.1-0.8 0.2-1.2 0.4-0.4 0.1-0.7 0.3-1.1 0.5l-17.6 9.2 14.8 8.6 17.6-9.2c0.3-0.1 0.6-0.2 1-0.4zM564.7 328c0.1 0 0.1 0 0 0 0.1-0.7 0.1-1.3 0.2-1.9 0.2-5-1.5-8.5-4.3-10.1l-14.8-8.6c2.8 1.6 4.5 5.2 4.3 10.1 0 0.6-0.1 1.2-0.2 1.8 0 0.2-0.1 0.3-0.1 0.5-0.1 0.5-0.1 0.9-0.2 1.4-0.1 0.4-0.2 0.8-0.3 1.3 0 0.2-0.1 0.3-0.1 0.5-0.2 0.6-0.3 1.1-0.5 1.7 0 0.1-0.1 0.3-0.1 0.4-0.2 0.4-0.3 0.9-0.5 1.3-0.1 0.2-0.1 0.3-0.2 0.5-0.2 0.5-0.4 1-0.7 1.5v0.1c-0.3 0.5-0.5 1.1-0.8 1.6-0.1 0.1-0.2 0.3-0.2 0.4-0.2 0.4-0.5 0.8-0.7 1.2-0.1 0.1-0.2 0.3-0.3 0.4-0.3 0.5-0.6 1-0.9 1.4l-0.1 0.1c-0.4 0.5-0.7 1-1.1 1.5-0.2 0.3-0.5 0.6-0.7 0.9-0.2 0.2-0.4 0.5-0.6 0.7-0.5 0.6-1.1 1.2-1.6 1.7-0.2 0.2-0.5 0.5-0.8 0.7l-0.6 0.6c-0.3 0.3-0.6 0.5-0.9 0.7-0.2 0.2-0.4 0.3-0.6 0.5-0.3 0.3-0.7 0.5-1 0.7-0.2 0.1-0.3 0.2-0.5 0.4-0.5 0.3-1 0.7-1.5 1-0.3 0.2-0.6 0.3-0.9 0.5-0.5 0.3-1.1 0.5-1.6 0.7-0.6 0.3-1.2 0.5-1.8 0.6-0.2 0.1-0.5 0.1-0.7 0.2-0.3 0.1-0.5 0.1-0.8 0.2-0.3 0-0.6 0.1-0.9 0.1h-1.8c-0.3 0-0.7-0.1-1-0.1-0.1 0-0.2 0-0.3-0.1-0.3-0.1-0.5-0.1-0.8-0.2-0.1 0-0.2-0.1-0.3-0.1-0.3-0.1-0.7-0.3-1-0.5l14.8 8.6h0.1c0.3 0.1 0.5 0.3 0.8 0.4h0.1c0.1 0 0.2 0.1 0.3 0.1 0.1 0.1 0.3 0.1 0.4 0.2 0.1 0 0.2 0.1 0.4 0.1 0.1 0 0.2 0.1 0.3 0.1h0.2c0.3 0 0.5 0.1 0.8 0.1H542.4c0.2 0 0.4 0 0.7-0.1h0.2c0.3 0 0.5-0.1 0.8-0.2 0.2 0 0.4-0.1 0.5-0.1 0.1 0 0.1 0 0.2-0.1l1.8-0.6c0.5-0.2 1-0.5 1.5-0.7 0.3-0.2 0.6-0.3 0.9-0.5 0.5-0.3 1-0.6 1.5-1 0.2-0.1 0.3-0.2 0.5-0.4 0.3-0.2 0.7-0.5 1-0.7 0.2-0.2 0.4-0.3 0.6-0.5 0.3-0.2 0.6-0.5 0.9-0.7l0.6-0.6 0.6-0.6s0.1-0.1 0.1-0.2c0.6-0.6 1.1-1.1 1.6-1.7 0.2-0.2 0.3-0.4 0.5-0.6 0.2-0.3 0.5-0.6 0.7-0.9l0.1-0.1c0.4-0.5 0.7-1 1.1-1.4l0.1-0.1c0.3-0.4 0.6-0.8 0.8-1.2 0-0.1 0.1-0.1 0.1-0.2 0.1-0.1 0.2-0.3 0.3-0.4 0.1-0.2 0.3-0.4 0.4-0.6 0.1-0.2 0.2-0.4 0.3-0.5 0.1-0.1 0.2-0.3 0.2-0.4 0.1-0.1 0.1-0.2 0.2-0.3 0.2-0.4 0.4-0.8 0.6-1.3v-0.1c0.2-0.4 0.4-0.8 0.5-1.2 0.1-0.1 0.1-0.2 0.1-0.4 0.1-0.2 0.1-0.3 0.2-0.5s0.1-0.3 0.2-0.5c0.1-0.3 0.2-0.5 0.3-0.8 0-0.1 0.1-0.3 0.1-0.4 0-0.1 0-0.1 0.1-0.2 0.2-0.5 0.3-1 0.4-1.5v-0.1c0-0.2 0.1-0.3 0.1-0.5 0.1-0.4 0.2-0.7 0.3-1.1v-0.1c0.1-0.5 0.2-0.9 0.2-1.4 0.4-0.1 0.4-0.2 0.4-0.4z" fill="#2A2ABC" /><path d="M580 265.1l-14.8-8.6c1.6 0.7 3.2 1.5 4.7 2.4l14.8 8.6c-1.5-0.9-3.1-1.7-4.7-2.4" fill="#A35F0F" /><path d="M584.7 267.5l-14.8-8.6c0.2 0.1 0.5 0.3 0.7 0.4l14.8 8.6c-0.2-0.2-0.5-0.3-0.7-0.4" fill="#9E5C0E" /><path d="M579.2 203.9c-0.1 0-0.2-0.1-0.3-0.1-0.2-0.1-0.5-0.2-0.7-0.3-0.1 0-0.2-0.1-0.2-0.1h-0.4c-0.2 0-0.4-0.1-0.6-0.1-0.1 0-0.3 0-0.4-0.1h-0.4c-0.3 0-0.5 0.1-0.8 0.1-0.2 0-0.3 0-0.5 0.1-0.1 0-0.2 0-0.3 0.1-0.1 0-0.2 0.1-0.3 0.1-0.4 0.1-0.9 0.2-1.4 0.4h-0.1c-6.2 2.6-14.1 6.2-22.7 11.2-1.4 0.8-2.7 1.6-4.1 2.5-0.3 0.2-0.5 0.3-0.8 0.5-1.4 0.8-2.7 1.7-4.1 2.6-0.3 0.2-0.5 0.3-0.8 0.5-1.4 0.9-2.7 1.8-4.1 2.8-0.1 0.1-0.2 0.1-0.3 0.2-1.4 1-2.9 2-4.3 3.1-0.3 0.2-0.6 0.4-0.9 0.7-1.4 1.1-2.9 2.2-4.3 3.3-0.2 0.2-0.5 0.4-0.7 0.6-1.4 1.1-2.7 2.2-4.1 3.4-0.2 0.2-0.4 0.3-0.5 0.5-1.5 1.2-2.9 2.5-4.3 3.8-0.3 0.3-0.6 0.6-0.9 0.8-1.4 1.3-2.9 2.7-4.3 4.1l-0.2 0.2-0.5 0.5c-1 1-2.1 2.1-3.1 3.2-0.3 0.4-0.7 0.7-1 1.1-1.2 1.3-2.5 2.7-3.7 4.1-0.2 0.1-0.5 0.2-0.9 0.3-0.1 0-0.2 0.1-0.3 0.1-0.3 0.1-0.6 0.2-1 0.4h-0.1c-0.3 0.1-0.6 0.3-1 0.4-0.1 0-0.2 0.1-0.2 0.1-0.2 0.1-0.4 0.1-0.5 0.2-0.3 0.1-0.6 0.3-1 0.4l-0.6 0.3c-0.4 0.2-0.7 0.3-1.1 0.5l-0.6 0.3c-0.5 0.2-1 0.5-1.6 0.7-0.1 0.1-0.2 0.1-0.3 0.2-0.7 0.3-1.4 0.7-2.1 1-0.2 0.1-0.5 0.2-0.7 0.3-0.5 0.3-1 0.5-1.6 0.8-0.3 0.1-0.6 0.3-0.9 0.4-0.5 0.3-1 0.5-1.6 0.8-0.3 0.2-0.6 0.3-0.9 0.5l-1.8 0.9c-0.3 0.1-0.5 0.3-0.8 0.4-0.8 0.4-1.6 0.8-2.4 1.3-0.1 0.1-0.2 0.1-0.3 0.2-0.9 0.5-1.9 1-2.8 1.5-0.3 0.2-0.6 0.3-0.9 0.5-0.7 0.4-1.4 0.7-2.1 1.1-0.4 0.2-0.7 0.4-1.1 0.6-0.7 0.4-1.3 0.7-2 1.1-0.4 0.2-0.7 0.4-1.1 0.6-0.7 0.4-1.5 0.8-2.2 1.2-0.3 0.2-0.7 0.4-1 0.6-1.1 0.6-2.2 1.2-3.3 1.9-23.9 13.8-54.2 33.3-78.1 53.9-1.1 1-2.3 2-3.4 2.9-0.4 0.4-0.8 0.7-1.2 1.1-0.7 0.6-1.4 1.2-2 1.8-0.5 0.4-0.9 0.8-1.3 1.2-0.6 0.5-1.2 1.1-1.7 1.6-0.4 0.4-0.8 0.8-1.3 1.2-0.5 0.5-1.1 1-1.6 1.5l-0.1 0.1-0.6 0.6c-0.7 0.7-1.4 1.4-2 2.1-0.3 0.3-0.6 0.7-0.9 1-0.5 0.6-1.1 1.1-1.6 1.7-0.3 0.4-0.7 0.7-1 1.1-0.5 0.5-1 1-1.4 1.6-0.3 0.4-0.7 0.7-1 1.1-0.3 0.3-0.6 0.6-0.8 1-0.1 0.1-0.2 0.3-0.4 0.4-0.7 0.8-1.4 1.6-2 2.4-0.2 0.2-0.4 0.5-0.6 0.7-0.9 1-1.7 2.1-2.5 3.1l-0.1 0.1c-0.1 0.1-0.1 0.2-0.2 0.2-1.4 1.8-2.7 3.5-3.9 5.3 0 0.1-0.1 0.1-0.1 0.2-0.1 0.1-0.2 0.2-0.2 0.4-1.1 1.6-2.2 3.2-3.2 4.8l-0.1 0.1c-0.1 0.1-0.1 0.2-0.2 0.3-1 1.6-2 3.2-2.9 4.8-0.2 0.3-0.3 0.5-0.5 0.8-0.6 0.9-1.1 1.9-1.6 2.8-0.6 1.1-1.2 2.1-1.8 3.2-0.6 1.1-1.2 2.1-1.8 3.2-0.6 1.1-1.2 2.1-1.7 3.2-0.1 0.1-0.1 0.3-0.2 0.4-0.7 1.4-1.5 2.8-2.2 4.2-0.3 0.5-0.6 1.1-0.8 1.6l-3 6s0 0.1-0.1 0.1c-0.2 0.4-0.3 0.7-0.5 1.1-0.8 1.6-1.6 3.3-2.3 4.9l-0.9 2.1c-0.4 1-0.9 1.9-1.3 2.9-0.1 0.3-0.3 0.7-0.4 1-0.3 0.7-0.6 1.5-0.9 2.2-0.5 1.2-1 2.5-1.5 3.7-0.3 0.8-0.6 1.5-0.9 2.3l-0.6 1.5c-0.3 0.7-0.5 1.4-0.8 2.2-0.3 0.8-0.6 1.5-0.8 2.3-0.5 1.3-0.9 2.6-1.4 3.9-0.2 0.7-0.5 1.3-0.7 2-0.1 0.2-0.1 0.3-0.2 0.5l-1.2 3.9c-0.2 0.5-0.4 1.1-0.5 1.6-0.6 1.9-1.2 3.9-1.7 5.8v0.1c-0.4 1.3-0.7 2.6-1 3.9l-0.6 2.4c-0.4 1.5-0.7 2.9-1 4.4-0.1 0.6-0.3 1.2-0.4 1.7-0.5 2.4-1 4.7-1.4 7.1-0.1 0.7-0.2 1.4-0.4 2.2-0.3 1.7-0.5 3.3-0.8 5-0.1 0.4-0.1 0.8-0.2 1.3-0.1 1-0.2 1.9-0.3 2.9-2.3 20.5-0.4 38.9 5.5 53.5 12.1 29.6 29.1 55.2 44.6 81.4 0.6 0.9 1.3 1.7 2.2 2.2l14.8 8.6c-0.9-0.5-1.6-1.2-2.2-2.2-15.5-26.2-32.5-51.8-44.6-81.4-6-14.6-7.9-33-5.5-53.5 0.2-1.4 0.3-2.7 0.5-4.1 0.2-1.7 0.5-3.3 0.8-5 0.1-0.7 0.2-1.4 0.4-2.2 0.4-2.4 0.9-4.7 1.4-7.1 0.1-0.6 0.3-1.2 0.4-1.8 0.3-1.5 0.7-2.9 1-4.4l0.6-2.4c0.3-1.3 0.7-2.6 1-3.8 0.5-2 1.1-3.9 1.7-5.9 0.2-0.5 0.4-1.1 0.5-1.6 0.5-1.4 0.9-2.9 1.4-4.3 0.2-0.7 0.5-1.3 0.7-2 0.4-1.3 0.9-2.6 1.4-3.9 0.3-0.8 0.6-1.5 0.8-2.3 0.5-1.2 0.9-2.4 1.4-3.7 0.3-0.8 0.6-1.5 0.9-2.3 0.5-1.2 1-2.5 1.5-3.7 0.3-0.7 0.6-1.5 0.9-2.2 0.6-1.3 1.1-2.6 1.7-3.9l0.9-2.1c0.7-1.6 1.5-3.3 2.3-4.9 0.2-0.4 0.3-0.7 0.5-1.1 1-2 2-4.1 3-6.1 0.3-0.5 0.6-1.1 0.8-1.6 0.8-1.5 1.6-3 2.4-4.6 0.6-1.1 1.2-2.1 1.7-3.2 0.6-1.1 1.2-2.1 1.8-3.2 0.6-1.1 1.2-2.1 1.8-3.2l2.1-3.6c0.9-1.6 1.9-3.2 2.9-4.8 0.1-0.2 0.2-0.3 0.3-0.5 1-1.6 2.1-3.2 3.2-4.9 0.1-0.2 0.2-0.4 0.4-0.5 1.3-1.8 2.6-3.6 3.9-5.3 0.1-0.1 0.2-0.2 0.3-0.4 0.8-1 1.6-2.1 2.5-3.1 0.2-0.2 0.4-0.5 0.6-0.7 0.7-0.8 1.3-1.6 2-2.4 0.4-0.5 0.8-0.9 1.2-1.4 0.3-0.4 0.7-0.7 1-1.1 0.5-0.5 0.9-1 1.4-1.6 0.3-0.4 0.7-0.7 1-1.1 0.5-0.6 1.1-1.1 1.6-1.7 0.3-0.3 0.6-0.7 1-1 0.6-0.7 1.3-1.3 2-2l0.7-0.7c0.5-0.5 1.1-1 1.6-1.6 0.4-0.4 0.8-0.8 1.3-1.2 0.6-0.5 1.1-1.1 1.7-1.6 0.4-0.4 0.9-0.8 1.3-1.2 0.6-0.6 1.2-1.1 1.9-1.7 0.4-0.4 0.9-0.8 1.3-1.2 1.1-1 2.2-1.9 3.3-2.9 23.9-20.6 54.2-40.1 78.1-53.9 1.1-0.6 2.2-1.3 3.3-1.9 0.3-0.2 0.7-0.4 1-0.6 0.7-0.4 1.5-0.8 2.2-1.2 0.4-0.2 0.8-0.4 1.1-0.6 0.7-0.4 1.3-0.7 2-1.1 0.4-0.2 0.7-0.4 1.1-0.6l2.1-1.2c0.3-0.2 0.6-0.3 0.8-0.5 1-0.5 1.9-1 2.9-1.5 0.1 0 0.1-0.1 0.2-0.1 0.9-0.5 1.7-0.9 2.5-1.3 0.3-0.2 0.6-0.3 0.9-0.4 0.6-0.3 1.2-0.6 1.7-0.9 0.3-0.2 0.6-0.3 0.9-0.5 0.5-0.3 1.1-0.5 1.6-0.8 0.3-0.1 0.6-0.3 0.8-0.4 0.6-0.3 1.1-0.5 1.6-0.8l0.6-0.3c0.7-0.4 1.4-0.7 2.1-1 0.1 0 0.2-0.1 0.2-0.1 0.6-0.3 1.1-0.5 1.7-0.8l0.6-0.3c0.4-0.2 0.8-0.4 1.2-0.5l0.6-0.3c0.4-0.2 0.7-0.3 1-0.4 0.2-0.1 0.3-0.1 0.5-0.2 0.4-0.2 0.9-0.4 1.2-0.5h0.1c0.4-0.1 0.7-0.3 1-0.4 0.1 0 0.2-0.1 0.3-0.1l0.9-0.3c1.2-1.4 2.5-2.7 3.7-4.1 0.3-0.4 0.7-0.7 1-1.1 1-1.1 2.1-2.2 3.1-3.2l0.7-0.7c1.4-1.4 2.9-2.8 4.3-4.1 0.3-0.3 0.6-0.6 0.9-0.8 1.4-1.3 2.9-2.6 4.3-3.8 0.2-0.2 0.4-0.3 0.5-0.5 1.4-1.2 2.7-2.3 4.1-3.4 0.2-0.2 0.5-0.4 0.7-0.6 1.4-1.1 2.9-2.2 4.3-3.3 0.3-0.2 0.6-0.4 0.9-0.7 1.5-1.1 2.9-2.1 4.3-3.1 0.1-0.1 0.2-0.1 0.3-0.2 1.4-1 2.8-1.9 4.1-2.8 0.3-0.2 0.5-0.3 0.8-0.5 1.4-0.9 2.8-1.8 4.1-2.6 0.3-0.2 0.5-0.3 0.8-0.5 1.4-0.8 2.8-1.7 4.1-2.5 8.6-5 16.5-8.6 22.7-11.2 0 0 0.1 0 0.1-0.1 0.3-0.1 0.6-0.2 1-0.3 0.2-0.1 0.4-0.1 0.6-0.2 0.1 0 0.2 0 0.3-0.1 0.5-0.1 1-0.2 1.4-0.2h0.2c0.5 0 0.9 0.1 1.3 0.2h0.1c0.4 0.1 0.9 0.3 1.2 0.5l-14.5-8.5z" fill="#2A2ABC" /><path d="M630.2 292.8c5.9-3.1 10.5-0.3 10.2 6.2l-1.8 43.4c-0.2 4.5-2.6 9.7-6.2 13.4l-23.3 25c-10.7 34-31.5 69.1-58.2 99.7l-1.6 38.5c-0.3 7.3-5.8 16-12.3 19.8l-32.6 17c-4.8 2.6-9.1 1.7-11.1-2.3l-7.2-16.1c-4 2.6-8 5.1-12.1 7.4-14.1 8.1-28.1 14.4-41.8 18.7l-0.7 16.8c-0.3 7.3-5.8 16.1-12.4 19.9l-32.4 16.9c-4.5 2.4-8.6 1.8-10.7-1.5-15.5-26.2-32.5-51.8-44.6-81.4-6-14.6-7.9-33-5.5-53.5 3.7-32.3 16.3-65.8 36.5-100.3 8.8-15 20.1-28.8 38.5-44.6 23.9-20.6 54.2-40.1 78.1-53.9 19.1-11 34.2-18.4 38.7-19.7 15.5-17.5 32.5-29.9 47.3-38.4 8.6-5 16.5-8.6 22.7-11.2 7.4-3.1 11.4 3.4 7.9 12.4l-15.7 40c15.4 7 26.7 19.5 32.6 37l17.7-9.2z m-65.3 33.3c0.4-9.8-6.4-13.9-15.3-9.3-0.3 0.2-0.6 0.3-0.9 0.5-8.5 4.9-15.5 16.1-15.8 25.5-0.4 9.7 6.4 13.9 15.3 9.3 0.3-0.2 0.6-0.3 0.9-0.5 8.4-4.8 15.4-16 15.8-25.5" fill="#4040FF" /><path d="M466.7 319.7c9-5.2 18.5-9.6 27.8-12.1 2.9-0.8 4.6 1.6 3.9 5.4-0.6 3.2-2.8 6.3-5.2 7.6-0.5 0.3-0.9 0.5-1.4 0.6-8.1 2.2-16.7 6.1-25 10.9-14 8.1-27.4 18.7-37.3 27.2-9.9 8.6-16.3 15.1-16.3 15.2l-0.7-1.6 0.7 1.6-0.7-1.6 0.7 1.6c-0.7 0.7-1.3 1.2-2 1.6-2.2 1.2-4.2 0.9-5-1-1.1-2.6 0.2-7 3-9.8 0.2-0.2 6.9-7.1 17.4-16.2 10.4-9.2 24.7-20.5 40.1-29.4z" fill="#FDFDFF" /><path d="M536.2 308.8c8.8-5.1 16-1 16 9.1s-7.1 22.4-15.9 27.5c-8.8 5.1-16 1-16-9.1s7.1-22.4 15.9-27.5z" fill="#2828CE" /><path d="M555.3 316.7c0.2-0.1 0.5-0.1 0.7-0.2 0.2-0.1 0.4-0.1 0.7-0.1 0.3-0.1 0.6-0.1 0.8-0.1h1.7c0.4 0 0.8 0.1 1.2 0.1 0.1 0 0.2 0 0.3 0.1l0.9 0.3c0.1 0 0.2 0.1 0.3 0.1 0.4 0.1 0.7 0.3 1 0.5l-10.8-6.3h-0.1c-0.3-0.1-0.5-0.3-0.8-0.4-0.1 0-0.1 0-0.2-0.1-0.1 0-0.2-0.1-0.3-0.1-0.1 0-0.3-0.1-0.4-0.1-0.1 0-0.3-0.1-0.5-0.1-0.1 0-0.2 0-0.3-0.1h-0.2c-0.3-0.1-0.6-0.1-1-0.1H546c-0.1 0-0.3 0.1-0.4 0.1-0.2 0-0.4 0.1-0.7 0.1-0.1 0-0.2 0-0.4 0.1-0.1 0-0.2 0.1-0.4 0.1-0.4 0.1-0.7 0.2-1.1 0.4-0.1 0.1-0.3 0.1-0.4 0.1-0.1 0-0.2 0.1-0.2 0.1-0.7 0.3-1.3 0.6-2 1-0.5 0.3-1 0.6-1.5 1-0.2 0.1-0.3 0.2-0.5 0.4-0.3 0.2-0.7 0.5-1 0.8-0.2 0.1-0.4 0.3-0.5 0.5-0.3 0.3-0.6 0.5-0.9 0.8-0.2 0.2-0.4 0.3-0.5 0.5l-0.3 0.3c-0.1 0.1-0.2 0.2-0.3 0.4l-1.1 1.1c-0.1 0.1-0.2 0.2-0.3 0.4l-0.3 0.3c-0.2 0.2-0.4 0.5-0.6 0.8-0.1 0.2-0.3 0.3-0.4 0.5-0.1 0.1-0.2 0.3-0.3 0.4-0.1 0.2-0.3 0.4-0.4 0.6-0.1 0.1-0.2 0.3-0.3 0.4-0.2 0.2-0.3 0.5-0.5 0.7-0.1 0.2-0.2 0.3-0.3 0.5 0 0.1-0.1 0.1-0.1 0.2-0.3 0.4-0.6 0.9-0.8 1.4 0 0 0 0.1-0.1 0.1-0.1 0.1-0.1 0.2-0.2 0.3-0.2 0.3-0.4 0.6-0.5 1-0.1 0.2-0.2 0.3-0.2 0.5-0.1 0.2-0.2 0.3-0.2 0.5-0.1 0.1-0.1 0.3-0.2 0.4-0.2 0.4-0.3 0.7-0.5 1.1 0 0.1-0.1 0.1-0.1 0.2v0.1c-0.2 0.5-0.4 1-0.6 1.4 0 0.1-0.1 0.2-0.1 0.3-0.1 0.2-0.1 0.4-0.2 0.5-0.1 0.2-0.2 0.5-0.3 0.7-0.1 0.2-0.1 0.4-0.2 0.6-0.1 0.2-0.1 0.4-0.2 0.7 0 0.1-0.1 0.3-0.1 0.4-0.1 0.2-0.1 0.5-0.2 0.7-0.1 0.3-0.1 0.5-0.2 0.8 0 0.1 0 0.2-0.1 0.3 0 0.2-0.1 0.4-0.1 0.6-0.1 0.4-0.2 0.8-0.2 1.3 0 0.1 0 0.2-0.1 0.4 0 0.3-0.1 0.5-0.1 0.8 0 0.2 0 0.4-0.1 0.6 0 0.6-0.1 1.2-0.1 1.8 0 5 1.8 8.6 4.7 10.2l10.8 6.3c-2.9-1.7-4.6-5.2-4.7-10.2 0-0.6 0-1.2 0.1-1.8 0-0.2 0-0.4 0.1-0.6 0-0.4 0.1-0.8 0.1-1.1 0.1-0.4 0.1-0.8 0.2-1.3 0.1-0.3 0.1-0.6 0.2-0.9 0.1-0.3 0.1-0.5 0.2-0.8 0.1-0.4 0.2-0.8 0.3-1.1 0.1-0.2 0.1-0.4 0.2-0.7 0.1-0.4 0.3-0.9 0.4-1.3 0.1-0.2 0.1-0.4 0.2-0.5 0.2-0.6 0.5-1.2 0.7-1.7 0-0.1 0.1-0.1 0.1-0.2 0.2-0.5 0.5-1 0.7-1.5 0.1-0.2 0.2-0.3 0.2-0.5 0.2-0.5 0.5-1 0.8-1.4 0.1-0.1 0.1-0.2 0.2-0.3 0.3-0.6 0.7-1.1 1-1.6 0.1-0.2 0.2-0.3 0.3-0.5 0.3-0.4 0.5-0.8 0.8-1.1 0.1-0.2 0.3-0.4 0.4-0.6 0.2-0.3 0.5-0.6 0.7-0.9 0.2-0.3 0.4-0.5 0.6-0.8 0.2-0.2 0.4-0.5 0.6-0.7 0.3-0.4 0.7-0.8 1.1-1.1 0.2-0.2 0.4-0.5 0.7-0.7 0.2-0.2 0.4-0.3 0.5-0.5 0.3-0.3 0.6-0.5 0.9-0.8 0.2-0.2 0.4-0.3 0.5-0.5 0.3-0.3 0.7-0.5 1-0.8 0.2-0.1 0.3-0.2 0.5-0.4 0.5-0.3 1-0.7 1.5-1 0.7-0.4 1.3-0.7 2-1l0.6-0.3c0.7-0.5 1.1-0.7 1.5-0.8z" fill="#ACC5EA" /><path d="M551.5 318.4c8.8-5.1 16-1 16 9.1s-7.1 22.4-15.9 27.5c-8.8 5.1-16 1-16-9.1s7.1-22.4 15.9-27.5z" fill="#FDFDFF" /><path d="M732.3 557.3c0 0.4 0 0.8-0.1 1.2 0 0.4-0.1 0.7-0.1 1.1-0.1 0.4-0.1 0.8-0.2 1.2-0.1 0.4-0.1 0.7-0.2 1.1l-0.3 1.2c-0.1 0.4-0.2 0.7-0.3 1.1-0.1 0.4-0.2 0.8-0.4 1.2-0.1 0.3-0.3 0.7-0.4 1-0.2 0.4-0.3 0.8-0.5 1.2-0.2 0.3-0.3 0.7-0.5 1l-0.6 1.2c-0.2 0.3-0.4 0.6-0.5 1-0.3 0.5-0.6 0.9-0.9 1.4l-0.6 0.9c-0.4 0.5-0.7 1-1.1 1.6-0.2 0.2-0.3 0.5-0.5 0.7-0.6 0.8-1.3 1.6-2.1 2.4l-0.6 0.6-1.8 1.8c-0.3 0.3-0.6 0.5-0.9 0.8-0.4 0.3-0.8 0.7-1.2 1-0.4 0.3-0.7 0.6-1.1 0.9-0.4 0.3-0.8 0.7-1.3 1l-1.2 0.9c-0.4 0.3-0.9 0.6-1.4 1-0.4 0.3-0.8 0.6-1.3 0.9l-1.5 0.9c-0.6 0.4-1.2 0.8-1.9 1.1-1.2 0.7-2.4 1.4-3.7 2-0.4 0.2-0.7 0.4-1.1 0.5-1 0.5-2 0.9-3 1.4-0.3 0.2-0.7 0.3-1 0.5-1.3 0.6-2.6 1.1-4 1.6-0.2 0.1-0.5 0.2-0.7 0.3-1.1 0.4-2.3 0.8-3.5 1.2-0.5 0.2-1 0.3-1.5 0.5-0.6 0.2-1.3 0.4-2 0.6-0.6 0.2-1.1 0.3-1.7 0.5-0.7 0.2-1.3 0.4-2 0.5-0.6 0.1-1.1 0.3-1.7 0.4-0.7 0.2-1.4 0.3-2 0.5-0.6 0.1-1.1 0.3-1.7 0.4-0.7 0.1-1.4 0.3-2.1 0.4-0.5 0.1-1.1 0.2-1.6 0.3-1.5 0.3-3 0.5-4.5 0.7-0.2 0-0.4 0.1-0.7 0.1-1.3 0.2-2.6 0.3-4 0.5-0.5 0.1-1 0.1-1.5 0.2-0.9 0.1-1.7 0.2-2.6 0.2-0.5 0-1.1 0.1-1.6 0.1-0.9 0.1-1.8 0.1-2.7 0.1-0.5 0-1 0-1.5 0.1h-7.9c-0.8 0-1.5-0.1-2.3-0.1-0.5 0-1.1 0-1.6-0.1-0.8 0-1.7-0.1-2.5-0.2-0.5 0-0.9-0.1-1.4-0.1l-3-0.3c-0.3 0-0.6-0.1-0.9-0.1-1.3-0.1-2.6-0.3-3.8-0.5-0.2 0-0.4-0.1-0.6-0.1-1.1-0.2-2.2-0.3-3.3-0.5-0.4-0.1-0.9-0.2-1.3-0.2-0.8-0.2-1.7-0.3-2.5-0.5-0.4-0.1-0.8-0.2-1.3-0.3l-2.7-0.6c-0.5-0.1-1-0.2-1.5-0.4l-2.4-0.6c-0.5-0.1-0.9-0.3-1.4-0.4-1.3-0.4-2.5-0.8-3.8-1.2-0.2-0.1-0.5-0.1-0.7-0.2l-4.2-1.5c-0.3-0.1-0.6-0.2-0.9-0.4-1.8-0.7-3.6-1.5-5.3-2.3-0.2-0.1-0.3-0.2-0.5-0.3-1.8-0.9-3.6-1.8-5.3-2.8-6.9-4-12.3-8.5-16.2-13.4-3.3-4.2-5.6-8.5-6.7-13-0.2-0.7-0.3-1.5-0.5-2.2-0.2-1.5-0.4-3-0.4-4.5v17.1c0 12 7.9 24 23.7 33.1 1.7 1 3.5 1.9 5.3 2.8 0.2 0.1 0.3 0.2 0.5 0.3 1.7 0.8 3.5 1.6 5.3 2.3 0.2 0.1 0.3 0.1 0.5 0.2 0.1 0.1 0.3 0.1 0.4 0.1 1.4 0.5 2.8 1.1 4.2 1.5 0.2 0.1 0.5 0.1 0.7 0.2 1.2 0.4 2.5 0.8 3.8 1.2 0.2 0.1 0.4 0.1 0.6 0.2 0.2 0.1 0.5 0.1 0.7 0.2l2.4 0.6c0.5 0.1 1 0.3 1.5 0.4l2.7 0.6c0.3 0.1 0.7 0.2 1 0.2 0.1 0 0.2 0 0.3 0.1 0.8 0.2 1.7 0.3 2.5 0.5 0.4 0.1 0.9 0.2 1.3 0.2 1.1 0.2 2.2 0.4 3.3 0.5 0.2 0 0.4 0.1 0.6 0.1 1.3 0.2 2.6 0.3 3.8 0.5 0.3 0 0.5 0 0.8 0.1 1 0.1 2 0.2 3.1 0.3h0.1c0.5 0 0.9 0.1 1.4 0.1 0.8 0.1 1.6 0.1 2.5 0.2 0.5 0 1.1 0 1.6 0.1 0.8 0 1.5 0.1 2.3 0.1h8.4c0.4 0 0.7 0 1.1-0.1 0.9 0 1.8-0.1 2.7-0.1 0.5 0 1.1-0.1 1.6-0.1 0.9-0.1 1.7-0.1 2.6-0.2 0.3 0 0.6 0 0.9-0.1 0.2 0 0.4-0.1 0.6-0.1 1.3-0.1 2.7-0.3 4-0.5 0.2 0 0.4-0.1 0.6-0.1 1.5-0.2 3-0.5 4.5-0.7 0.1 0 0.3 0 0.4-0.1 0.4-0.1 0.8-0.2 1.2-0.2 0.7-0.1 1.4-0.3 2.1-0.4 0.6-0.1 1.1-0.2 1.7-0.4 0.7-0.2 1.4-0.3 2.1-0.5 0.6-0.1 1.1-0.3 1.7-0.4 0.7-0.2 1.3-0.3 2-0.5 0.6-0.2 1.1-0.3 1.7-0.5 0.7-0.2 1.3-0.4 1.9-0.6l0.9-0.3c0.2-0.1 0.4-0.1 0.6-0.2 1.2-0.4 2.3-0.8 3.5-1.2 0.2-0.1 0.5-0.2 0.7-0.3 1.4-0.5 2.7-1.1 4-1.6 0.3-0.1 0.7-0.3 1-0.5 1-0.5 2-0.9 3-1.4 0.4-0.2 0.7-0.4 1.1-0.5 1.3-0.6 2.5-1.3 3.7-2 0.3-0.2 0.7-0.4 1-0.6l0.9-0.6 1.5-0.9c0.4-0.3 0.9-0.6 1.3-0.9 0.5-0.3 0.9-0.6 1.4-1l1.2-0.9c0.4-0.3 0.8-0.7 1.3-1 0.4-0.3 0.7-0.6 1.1-0.9 0.4-0.3 0.8-0.7 1.2-1 0.2-0.1 0.3-0.3 0.5-0.4l0.4-0.4 1.8-1.8 0.6-0.6 2.1-2.4 0.1-0.1c0.1-0.2 0.3-0.4 0.4-0.6 0.4-0.5 0.8-1 1.1-1.6l0.6-0.9c0.3-0.5 0.6-0.9 0.9-1.4 0.1-0.1 0.2-0.3 0.2-0.4l0.3-0.6 0.6-1.2c0.2-0.3 0.3-0.7 0.5-1 0.2-0.4 0.4-0.8 0.5-1.2 0.1-0.2 0.2-0.4 0.2-0.5 0.1-0.2 0.1-0.3 0.2-0.5 0.1-0.4 0.3-0.8 0.4-1.2 0.1-0.4 0.2-0.7 0.3-1.1l0.3-1.2c0-0.2 0.1-0.4 0.2-0.6 0-0.1 0-0.3 0.1-0.4 0.1-0.4 0.1-0.8 0.2-1.2 0-0.4 0.1-0.7 0.1-1.1 0-0.4 0.1-0.8 0.1-1.2 0-0.2 0-0.5 0.1-0.7v-17.8c0 0.6 0 1.1-0.1 1.5z" fill="#C68620" /><path d="M708.7 522.8c31.4 18.1 31.6 47.6 0.4 65.7-31.2 18.1-82 18.1-113.4 0-31.4-18.2-31.6-47.6-0.4-65.7 31.2-18.1 82-18.1 113.4 0z" fill="#FFCD2E" /><path d="M732.3 534.4c0 0.4 0 0.8-0.1 1.2 0 0.4-0.1 0.7-0.1 1.1-0.1 0.4-0.1 0.8-0.2 1.2-0.1 0.4-0.1 0.7-0.2 1.1l-0.3 1.2c-0.1 0.4-0.2 0.7-0.3 1.1-0.1 0.4-0.2 0.8-0.4 1.2-0.1 0.3-0.3 0.7-0.4 1-0.2 0.4-0.3 0.8-0.5 1.2-0.2 0.3-0.3 0.7-0.5 1l-0.6 1.2c-0.2 0.3-0.4 0.6-0.5 1-0.3 0.5-0.6 0.9-0.9 1.4l-0.6 0.9c-0.4 0.5-0.7 1-1.1 1.6-0.2 0.2-0.3 0.5-0.5 0.7-0.6 0.8-1.3 1.6-2.1 2.4l-0.6 0.6-1.8 1.8c-0.3 0.3-0.6 0.5-0.9 0.8-0.4 0.3-0.8 0.7-1.2 1-0.4 0.3-0.7 0.6-1.1 0.9-0.4 0.3-0.8 0.7-1.3 1l-1.2 0.9c-0.4 0.3-0.9 0.6-1.4 1-0.4 0.3-0.8 0.6-1.3 0.9l-1.5 0.9c-0.6 0.4-1.2 0.8-1.9 1.1-1.2 0.7-2.4 1.4-3.7 2-0.4 0.2-0.7 0.4-1.1 0.5-1 0.5-2 0.9-3 1.4-0.3 0.2-0.7 0.3-1 0.5-1.3 0.6-2.6 1.1-4 1.6-0.2 0.1-0.5 0.2-0.7 0.3-1.1 0.4-2.3 0.8-3.5 1.2-0.5 0.2-1 0.3-1.5 0.5-0.6 0.2-1.3 0.4-2 0.6-0.6 0.2-1.1 0.3-1.7 0.5-0.7 0.2-1.3 0.4-2 0.5-0.6 0.1-1.1 0.3-1.7 0.4-0.7 0.2-1.4 0.3-2 0.5-0.6 0.1-1.1 0.3-1.7 0.4-0.7 0.1-1.4 0.3-2.1 0.4-0.5 0.1-1.1 0.2-1.6 0.3-1.5 0.3-3 0.5-4.5 0.7-0.2 0-0.4 0.1-0.7 0.1-1.3 0.2-2.6 0.3-4 0.5-0.5 0.1-1 0.1-1.5 0.2-0.9 0.1-1.7 0.2-2.6 0.2-0.5 0-1.1 0.1-1.6 0.1-0.9 0.1-1.8 0.1-2.7 0.1-0.5 0-1 0-1.5 0.1h-7.9c-0.8 0-1.5-0.1-2.3-0.1-0.5 0-1.1 0-1.6-0.1-0.8 0-1.7-0.1-2.5-0.2-0.5 0-0.9-0.1-1.4-0.1l-3-0.3c-0.3 0-0.6-0.1-0.9-0.1-1.3-0.1-2.6-0.3-3.8-0.5-0.2 0-0.4-0.1-0.6-0.1-1.1-0.2-2.2-0.3-3.3-0.5-0.4-0.1-0.9-0.2-1.3-0.2-0.8-0.2-1.7-0.3-2.5-0.5-0.4-0.1-0.8-0.2-1.3-0.3l-2.7-0.6c-0.5-0.1-1-0.2-1.5-0.4l-2.4-0.6c-0.5-0.1-0.9-0.3-1.4-0.4-1.3-0.4-2.5-0.8-3.8-1.2-0.2-0.1-0.5-0.1-0.7-0.2l-4.2-1.5c-0.3-0.1-0.6-0.2-0.9-0.4-1.8-0.7-3.6-1.5-5.3-2.3-0.2-0.1-0.3-0.2-0.5-0.3-1.8-0.9-3.6-1.8-5.3-2.8-6.9-4-12.3-8.5-16.2-13.4-3.3-4.2-5.6-8.5-6.7-13-0.2-0.7-0.3-1.5-0.5-2.2-0.2-1.5-0.4-3-0.4-4.5v17.1c0 12 7.9 24 23.7 33.1 1.7 1 3.5 1.9 5.3 2.8 0.2 0.1 0.3 0.2 0.5 0.3 1.7 0.8 3.5 1.6 5.3 2.3 0.2 0.1 0.3 0.1 0.5 0.2 0.1 0.1 0.3 0.1 0.4 0.1 1.4 0.5 2.8 1.1 4.2 1.5 0.2 0.1 0.5 0.1 0.7 0.2 1.2 0.4 2.5 0.8 3.8 1.2 0.2 0.1 0.4 0.1 0.6 0.2 0.2 0.1 0.5 0.1 0.7 0.2l2.4 0.6c0.5 0.1 1 0.3 1.5 0.4l2.7 0.6c0.3 0.1 0.7 0.2 1 0.2 0.1 0 0.2 0 0.3 0.1 0.8 0.2 1.7 0.3 2.5 0.5 0.4 0.1 0.9 0.2 1.3 0.2 1.1 0.2 2.2 0.4 3.3 0.5 0.2 0 0.4 0.1 0.6 0.1 1.3 0.2 2.6 0.3 3.8 0.5 0.3 0 0.5 0 0.8 0.1 1 0.1 2 0.2 3.1 0.3h0.1c0.5 0 0.9 0.1 1.4 0.1 0.8 0.1 1.6 0.1 2.5 0.2 0.5 0 1.1 0 1.6 0.1 0.8 0 1.5 0.1 2.3 0.1h8.4c0.4 0 0.7 0 1.1-0.1 0.9 0 1.8-0.1 2.7-0.1 0.5 0 1.1-0.1 1.6-0.1 0.9-0.1 1.7-0.1 2.6-0.2 0.3 0 0.6 0 0.9-0.1 0.2 0 0.4-0.1 0.6-0.1 1.3-0.1 2.7-0.3 4-0.5 0.2 0 0.4-0.1 0.6-0.1 1.5-0.2 3-0.5 4.5-0.7 0.1 0 0.3 0 0.4-0.1 0.4-0.1 0.8-0.2 1.2-0.2 0.7-0.1 1.4-0.3 2.1-0.4 0.6-0.1 1.1-0.2 1.7-0.4 0.7-0.2 1.4-0.3 2.1-0.5 0.6-0.1 1.1-0.3 1.7-0.4 0.7-0.2 1.3-0.3 2-0.5 0.6-0.2 1.1-0.3 1.7-0.5 0.7-0.2 1.3-0.4 1.9-0.6l0.9-0.3c0.2-0.1 0.4-0.1 0.6-0.2 1.2-0.4 2.3-0.8 3.5-1.2 0.2-0.1 0.5-0.2 0.7-0.3 1.4-0.5 2.7-1.1 4-1.6 0.3-0.1 0.7-0.3 1-0.5 1-0.5 2-0.9 3-1.4 0.4-0.2 0.7-0.4 1.1-0.5 1.3-0.6 2.5-1.3 3.7-2 0.3-0.2 0.7-0.4 1-0.6l0.9-0.6 1.5-0.9c0.4-0.3 0.9-0.6 1.3-0.9 0.5-0.3 0.9-0.6 1.4-1l1.2-0.9c0.4-0.3 0.8-0.7 1.3-1 0.4-0.3 0.7-0.6 1.1-0.9 0.4-0.3 0.8-0.7 1.2-1 0.2-0.1 0.3-0.3 0.5-0.4l0.4-0.4 1.8-1.8 0.6-0.6 2.1-2.4 0.1-0.1c0.1-0.2 0.3-0.4 0.4-0.6 0.4-0.5 0.8-1 1.1-1.6l0.6-0.9c0.3-0.5 0.6-0.9 0.9-1.4 0.1-0.1 0.2-0.3 0.2-0.4l0.3-0.6 0.6-1.2c0.2-0.3 0.3-0.7 0.5-1 0.2-0.4 0.4-0.8 0.5-1.2 0.1-0.2 0.2-0.4 0.2-0.5 0.1-0.2 0.1-0.3 0.2-0.5 0.1-0.4 0.3-0.8 0.4-1.2 0.1-0.4 0.2-0.7 0.3-1.1l0.3-1.2c0-0.2 0.1-0.4 0.2-0.6 0-0.1 0-0.3 0.1-0.4 0.1-0.4 0.1-0.8 0.2-1.2 0-0.4 0.1-0.7 0.1-1.1 0-0.4 0.1-0.8 0.1-1.2 0-0.2 0-0.5 0.1-0.7v-17.8c0 0.6 0 1-0.1 1.5z" fill="#C68620" /><path d="M708.7 499.9c31.4 18.1 31.6 47.6 0.4 65.7-31.2 18.1-82 18.1-113.4 0-31.4-18.2-31.6-47.6-0.4-65.7 31.2-18.1 82-18.1 113.4 0z" fill="#FFCD2E" /><path d="M732.3 509.6c0 0.4 0 0.8-0.1 1.2 0 0.4-0.1 0.7-0.1 1.1-0.1 0.4-0.1 0.8-0.2 1.2-0.1 0.4-0.1 0.7-0.2 1.1l-0.3 1.2c-0.1 0.4-0.2 0.7-0.3 1.1-0.1 0.4-0.2 0.8-0.4 1.2-0.1 0.3-0.3 0.7-0.4 1-0.2 0.4-0.3 0.8-0.5 1.2-0.2 0.3-0.3 0.7-0.5 1l-0.6 1.2c-0.2 0.3-0.4 0.6-0.5 1-0.3 0.5-0.6 0.9-0.9 1.4l-0.6 0.9c-0.4 0.5-0.7 1-1.1 1.6-0.2 0.2-0.3 0.5-0.5 0.7-0.6 0.8-1.3 1.6-2.1 2.4l-0.6 0.6-1.8 1.8c-0.3 0.3-0.6 0.5-0.9 0.8-0.4 0.3-0.8 0.7-1.2 1-0.4 0.3-0.7 0.6-1.1 0.9-0.4 0.3-0.8 0.7-1.3 1l-1.2 0.9c-0.4 0.3-0.9 0.6-1.4 1-0.4 0.3-0.8 0.6-1.3 0.9l-1.5 0.9c-0.6 0.4-1.2 0.8-1.9 1.1-1.2 0.7-2.4 1.4-3.7 2-0.4 0.2-0.7 0.4-1.1 0.5-1 0.5-2 0.9-3 1.4-0.3 0.2-0.7 0.3-1 0.5-1.3 0.6-2.6 1.1-4 1.6-0.2 0.1-0.5 0.2-0.7 0.3-1.1 0.4-2.3 0.8-3.5 1.2-0.5 0.2-1 0.3-1.5 0.5-0.6 0.2-1.3 0.4-2 0.6-0.6 0.2-1.1 0.3-1.7 0.5-0.7 0.2-1.3 0.4-2 0.5-0.6 0.1-1.1 0.3-1.7 0.4-0.7 0.2-1.4 0.3-2 0.5-0.6 0.1-1.1 0.3-1.7 0.4-0.7 0.1-1.4 0.3-2.1 0.4-0.5 0.1-1.1 0.2-1.6 0.3-1.5 0.3-3 0.5-4.5 0.7-0.2 0-0.4 0.1-0.7 0.1-1.3 0.2-2.6 0.3-4 0.5-0.5 0.1-1 0.1-1.5 0.2-0.9 0.1-1.7 0.2-2.6 0.2-0.5 0-1.1 0.1-1.6 0.1-0.9 0.1-1.8 0.1-2.7 0.1-0.5 0-1 0-1.5 0.1h-7.9c-0.8 0-1.5-0.1-2.3-0.1-0.5 0-1.1 0-1.6-0.1-0.8 0-1.7-0.1-2.5-0.2-0.5 0-0.9-0.1-1.4-0.1l-3-0.3c-0.3 0-0.6-0.1-0.9-0.1-1.3-0.1-2.6-0.3-3.8-0.5-0.2 0-0.4-0.1-0.6-0.1-1.1-0.2-2.2-0.3-3.3-0.5-0.4-0.1-0.9-0.2-1.3-0.2-0.8-0.2-1.7-0.3-2.5-0.5-0.4-0.1-0.8-0.2-1.3-0.3l-2.7-0.6c-0.5-0.1-1-0.2-1.5-0.4l-2.4-0.6c-0.5-0.1-0.9-0.3-1.4-0.4-1.3-0.4-2.5-0.8-3.8-1.2-0.2-0.1-0.5-0.1-0.7-0.2l-4.2-1.5c-0.3-0.1-0.6-0.2-0.9-0.4-1.8-0.7-3.6-1.5-5.3-2.3-0.2-0.1-0.3-0.2-0.5-0.3-1.8-0.9-3.6-1.8-5.3-2.8-6.9-4-12.3-8.5-16.2-13.4-3.3-4.2-5.6-8.5-6.7-13-0.2-0.7-0.3-1.5-0.5-2.2-0.2-1.5-0.4-3-0.4-4.5v17.1c0 12 7.9 24 23.7 33.1 1.7 1 3.5 1.9 5.3 2.8 0.2 0.1 0.3 0.2 0.5 0.3 1.7 0.8 3.5 1.6 5.3 2.3 0.2 0.1 0.3 0.1 0.5 0.2 0.1 0.1 0.3 0.1 0.4 0.1 1.4 0.5 2.8 1.1 4.2 1.5 0.2 0.1 0.5 0.1 0.7 0.2 1.2 0.4 2.5 0.8 3.8 1.2 0.2 0.1 0.4 0.1 0.6 0.2 0.2 0.1 0.5 0.1 0.7 0.2l2.4 0.6c0.5 0.1 1 0.3 1.5 0.4l2.7 0.6c0.3 0.1 0.7 0.2 1 0.2 0.1 0 0.2 0 0.3 0.1 0.8 0.2 1.7 0.3 2.5 0.5 0.4 0.1 0.9 0.2 1.3 0.2 1.1 0.2 2.2 0.4 3.3 0.5 0.2 0 0.4 0.1 0.6 0.1 1.3 0.2 2.6 0.3 3.8 0.5 0.3 0 0.5 0 0.8 0.1 1 0.1 2 0.2 3.1 0.3h0.1c0.5 0 0.9 0.1 1.4 0.1 0.8 0.1 1.6 0.1 2.5 0.2 0.5 0 1.1 0 1.6 0.1 0.8 0 1.5 0.1 2.3 0.1h8.4c0.4 0 0.7 0 1.1-0.1 0.9 0 1.8-0.1 2.7-0.1 0.5 0 1.1-0.1 1.6-0.1 0.9-0.1 1.7-0.1 2.6-0.2 0.3 0 0.6 0 0.9-0.1 0.2 0 0.4-0.1 0.6-0.1 1.3-0.1 2.7-0.3 4-0.5 0.2 0 0.4-0.1 0.6-0.1 1.5-0.2 3-0.5 4.5-0.7 0.1 0 0.3 0 0.4-0.1 0.4-0.1 0.8-0.2 1.2-0.2 0.7-0.1 1.4-0.3 2.1-0.4 0.6-0.1 1.1-0.2 1.7-0.4 0.7-0.2 1.4-0.3 2.1-0.5 0.6-0.1 1.1-0.3 1.7-0.4 0.7-0.2 1.3-0.3 2-0.5 0.6-0.2 1.1-0.3 1.7-0.5 0.7-0.2 1.3-0.4 1.9-0.6l0.9-0.3c0.2-0.1 0.4-0.1 0.6-0.2 1.2-0.4 2.3-0.8 3.5-1.2 0.2-0.1 0.5-0.2 0.7-0.3 1.4-0.5 2.7-1.1 4-1.6 0.3-0.1 0.7-0.3 1-0.5 1-0.5 2-0.9 3-1.4 0.4-0.2 0.7-0.4 1.1-0.5 1.3-0.6 2.5-1.3 3.7-2 0.3-0.2 0.7-0.4 1-0.6l0.9-0.6 1.5-0.9c0.4-0.3 0.9-0.6 1.3-0.9 0.5-0.3 0.9-0.6 1.4-1l1.2-0.9c0.4-0.3 0.8-0.7 1.3-1 0.4-0.3 0.7-0.6 1.1-0.9 0.4-0.3 0.8-0.7 1.2-1 0.2-0.1 0.3-0.3 0.5-0.4l0.4-0.4 1.8-1.8 0.6-0.6 2.1-2.4 0.1-0.1c0.1-0.2 0.3-0.4 0.4-0.6 0.4-0.5 0.8-1 1.1-1.6l0.6-0.9c0.3-0.5 0.6-0.9 0.9-1.4 0.1-0.1 0.2-0.3 0.2-0.4l0.3-0.6 0.6-1.2c0.2-0.3 0.3-0.7 0.5-1 0.2-0.4 0.4-0.8 0.5-1.2 0.1-0.2 0.2-0.4 0.2-0.5 0.1-0.2 0.1-0.3 0.2-0.5 0.1-0.4 0.3-0.8 0.4-1.2 0.1-0.4 0.2-0.7 0.3-1.1l0.3-1.2c0-0.2 0.1-0.4 0.2-0.6 0-0.1 0-0.3 0.1-0.4 0.1-0.4 0.1-0.8 0.2-1.2 0-0.4 0.1-0.7 0.1-1.1 0-0.4 0.1-0.8 0.1-1.2 0-0.2 0-0.5 0.1-0.7v-17.8c0 0.5 0 1-0.1 1.5z" fill="#C68620" /><path d="M708.7 475.1c31.4 18.1 31.6 47.6 0.4 65.7-31.2 18.1-82 18.1-113.4 0-31.4-18.2-31.6-47.6-0.4-65.7 31.2-18.2 82-18.2 113.4 0z" fill="#FFCD2E" /><path d="M732.3 486.6c0 0.4 0 0.8-0.1 1.2 0 0.4-0.1 0.7-0.1 1.1-0.1 0.4-0.1 0.8-0.2 1.2-0.1 0.4-0.1 0.7-0.2 1.1l-0.3 1.2c-0.1 0.4-0.2 0.7-0.3 1.1-0.1 0.4-0.2 0.8-0.4 1.2-0.1 0.3-0.3 0.7-0.4 1-0.2 0.4-0.3 0.8-0.5 1.2-0.2 0.3-0.3 0.7-0.5 1l-0.6 1.2c-0.2 0.3-0.4 0.6-0.5 1-0.3 0.5-0.6 0.9-0.9 1.4l-0.6 0.9c-0.4 0.5-0.7 1-1.1 1.6-0.2 0.2-0.3 0.5-0.5 0.7-0.6 0.8-1.3 1.6-2.1 2.4l-0.6 0.6-1.8 1.8c-0.3 0.3-0.6 0.5-0.9 0.8-0.4 0.3-0.8 0.7-1.2 1-0.4 0.3-0.7 0.6-1.1 0.9-0.4 0.3-0.8 0.7-1.3 1l-1.2 0.9c-0.4 0.3-0.9 0.6-1.4 1-0.4 0.3-0.8 0.6-1.3 0.9l-1.5 0.9c-0.6 0.4-1.2 0.8-1.9 1.1-1.2 0.7-2.4 1.4-3.7 2-0.4 0.2-0.7 0.4-1.1 0.5-1 0.5-2 0.9-3 1.4-0.3 0.2-0.7 0.3-1 0.5-1.3 0.6-2.6 1.1-4 1.6-0.2 0.1-0.5 0.2-0.7 0.3-1.1 0.4-2.3 0.8-3.5 1.2-0.5 0.2-1 0.3-1.5 0.5-0.6 0.2-1.3 0.4-2 0.6-0.6 0.2-1.1 0.3-1.7 0.5-0.7 0.2-1.3 0.4-2 0.5-0.6 0.1-1.1 0.3-1.7 0.4-0.7 0.2-1.4 0.3-2 0.5-0.6 0.1-1.1 0.3-1.7 0.4-0.7 0.1-1.4 0.3-2.1 0.4-0.5 0.1-1.1 0.2-1.6 0.3-1.5 0.3-3 0.5-4.5 0.7-0.2 0-0.4 0.1-0.7 0.1-1.3 0.2-2.6 0.3-4 0.5-0.5 0.1-1 0.1-1.5 0.2-0.9 0.1-1.7 0.2-2.6 0.2-0.5 0-1.1 0.1-1.6 0.1-0.9 0.1-1.8 0.1-2.7 0.1-0.5 0-1 0-1.5 0.1h-7.9c-0.8 0-1.5-0.1-2.3-0.1-0.5 0-1.1 0-1.6-0.1-0.8 0-1.7-0.1-2.5-0.2-0.5 0-0.9-0.1-1.4-0.1l-3-0.3c-0.3 0-0.6-0.1-0.9-0.1-1.3-0.1-2.6-0.3-3.8-0.5-0.2 0-0.4-0.1-0.6-0.1-1.1-0.2-2.2-0.3-3.3-0.5-0.4-0.1-0.9-0.2-1.3-0.2-0.8-0.2-1.7-0.3-2.5-0.5-0.4-0.1-0.8-0.2-1.3-0.3l-2.7-0.6c-0.5-0.1-1-0.2-1.5-0.4l-2.4-0.6c-0.5-0.1-0.9-0.3-1.4-0.4-1.3-0.4-2.5-0.8-3.8-1.2-0.2-0.1-0.5-0.1-0.7-0.2l-4.2-1.5c-0.3-0.1-0.6-0.2-0.9-0.4-1.8-0.7-3.6-1.5-5.3-2.3-0.2-0.1-0.3-0.2-0.5-0.3-1.8-0.9-3.6-1.8-5.3-2.8-6.9-4-12.3-8.5-16.2-13.4-3.3-4.2-5.6-8.5-6.7-13-0.2-0.7-0.3-1.5-0.5-2.2-0.2-1.5-0.4-3-0.4-4.5v17.1c0 12 7.9 24 23.7 33.1 1.7 1 3.5 1.9 5.3 2.8 0.2 0.1 0.3 0.2 0.5 0.3 1.7 0.8 3.5 1.6 5.3 2.3 0.2 0.1 0.3 0.1 0.5 0.2 0.1 0.1 0.3 0.1 0.4 0.1 1.4 0.5 2.8 1.1 4.2 1.5 0.2 0.1 0.5 0.1 0.7 0.2 1.2 0.4 2.5 0.8 3.8 1.2 0.2 0.1 0.4 0.1 0.6 0.2 0.2 0.1 0.5 0.1 0.7 0.2l2.4 0.6c0.5 0.1 1 0.3 1.5 0.4l2.7 0.6c0.3 0.1 0.7 0.2 1 0.2 0.1 0 0.2 0 0.3 0.1 0.8 0.2 1.7 0.3 2.5 0.5 0.4 0.1 0.9 0.2 1.3 0.2 1.1 0.2 2.2 0.4 3.3 0.5 0.2 0 0.4 0.1 0.6 0.1 1.3 0.2 2.6 0.3 3.8 0.5 0.3 0 0.5 0 0.8 0.1 1 0.1 2 0.2 3.1 0.3h0.1c0.5 0 0.9 0.1 1.4 0.1 0.8 0.1 1.6 0.1 2.5 0.2 0.5 0 1.1 0 1.6 0.1 0.8 0 1.5 0.1 2.3 0.1h8.4c0.4 0 0.7 0 1.1-0.1 0.9 0 1.8-0.1 2.7-0.1 0.5 0 1.1-0.1 1.6-0.1 0.9-0.1 1.7-0.1 2.6-0.2 0.3 0 0.6 0 0.9-0.1 0.2 0 0.4-0.1 0.6-0.1 1.3-0.1 2.7-0.3 4-0.5 0.2 0 0.4-0.1 0.6-0.1 1.5-0.2 3-0.5 4.5-0.7 0.1 0 0.3 0 0.4-0.1 0.4-0.1 0.8-0.2 1.2-0.2 0.7-0.1 1.4-0.3 2.1-0.4 0.6-0.1 1.1-0.2 1.7-0.4 0.7-0.2 1.4-0.3 2.1-0.5 0.6-0.1 1.1-0.3 1.7-0.4 0.7-0.2 1.3-0.3 2-0.5 0.6-0.2 1.1-0.3 1.7-0.5 0.7-0.2 1.3-0.4 1.9-0.6l0.9-0.3c0.2-0.1 0.4-0.1 0.6-0.2 1.2-0.4 2.3-0.8 3.5-1.2 0.2-0.1 0.5-0.2 0.7-0.3 1.4-0.5 2.7-1.1 4-1.6 0.3-0.1 0.7-0.3 1-0.5 1-0.5 2-0.9 3-1.4 0.4-0.2 0.7-0.4 1.1-0.5 1.3-0.6 2.5-1.3 3.7-2 0.3-0.2 0.7-0.4 1-0.6l0.9-0.6 1.5-0.9c0.4-0.3 0.9-0.6 1.3-0.9 0.5-0.3 0.9-0.6 1.4-1l1.2-0.9c0.4-0.3 0.8-0.7 1.3-1 0.4-0.3 0.7-0.6 1.1-0.9 0.4-0.3 0.8-0.7 1.2-1 0.2-0.1 0.3-0.3 0.5-0.4l0.4-0.4 1.8-1.8 0.6-0.6 2.1-2.4 0.1-0.1c0.1-0.2 0.3-0.4 0.4-0.6 0.4-0.5 0.8-1 1.1-1.6l0.6-0.9c0.3-0.5 0.6-0.9 0.9-1.4 0.1-0.1 0.2-0.3 0.2-0.4l0.3-0.6 0.6-1.2c0.2-0.3 0.3-0.7 0.5-1 0.2-0.4 0.4-0.8 0.5-1.2 0.1-0.2 0.2-0.4 0.2-0.5 0.1-0.2 0.1-0.3 0.2-0.5 0.1-0.4 0.3-0.8 0.4-1.2 0.1-0.4 0.2-0.7 0.3-1.1l0.3-1.2c0-0.2 0.1-0.4 0.2-0.6 0-0.1 0-0.3 0.1-0.4 0.1-0.4 0.1-0.8 0.2-1.2 0-0.4 0.1-0.7 0.1-1.1 0-0.4 0.1-0.8 0.1-1.2 0-0.2 0-0.5 0.1-0.7v-17.8c0 0.6 0 1.1-0.1 1.5z" fill="#C68620" /><path d="M708.7 452.2c31.4 18.1 31.6 47.6 0.4 65.7-31.2 18.1-82 18.1-113.4 0-31.4-18.2-31.6-47.6-0.4-65.7 31.2-18.2 82-18.2 113.4 0z" fill="#FFCD2E" /><path d="M684.4 482.6c0.7 0.4 1.2 0.9 1.5 1.5 0.5 1.2 0 2.4-1.5 3.3l-11.7 6.8 12.1 7c0.1 0 0.2 0.1 0.3 0.1 1.4 0.8 2 2.1 1.6 3.2-0.5 1.2-2.2 2.2-4.3 2.5-2 0.3-4.1-0.1-5.6-0.9-0.1 0-0.2-0.1-0.2-0.2l-12.1-7-12.9 7.5c-2.3 1.2-5.8 1.1-8-0.1-2.2-1.3-2.3-3.3-0.2-4.7l12.9-7.5-5.5-3.2-12.9 7.5c-1.5 1-3.7 1.4-5.8 1.1-1.1-0.2-2-0.5-2.8-0.9-0.7-0.4-1.3-1-1.6-1.6-0.5-1.2 0.2-2.5 1.8-3.4l9.5-5.5h-21.1c-1.6 0-3.1-0.4-4.1-1-1.1-0.6-1.7-1.5-1.7-2.4 0-1.9 2.6-3.4 5.8-3.4h24.9l-0.1-14.4c0-1.2 1.1-2.3 2.9-2.9 1.8-0.6 4-0.6 5.8 0 0.4 0.1 0.8 0.3 1.2 0.5 1.1 0.6 1.7 1.5 1.7 2.4l0.1 12.2 7.8-4.5c1.5-0.9 3.6-1.2 5.6-0.9 1 0.2 1.9 0.5 2.6 0.9 0.7 0.4 1.3 0.9 1.5 1.5 0.5 1.2 0 2.4-1.5 3.3l-11.7 6.8 5.5 3.2 11.7-6.8c1.5-0.9 3.6-1.2 5.7-0.9 1.2 0.2 2.1 0.5 2.8 0.9z" fill="#C68620" /><path d="M684.4 478.4c0.7 0.4 1.2 0.9 1.5 1.5 0.5 1.2 0 2.4-1.5 3.3l-11.7 6.8 12.1 7c0.1 0 0.2 0.1 0.3 0.1 1.4 0.8 2 2.1 1.6 3.2-0.5 1.2-2.2 2.2-4.3 2.5-2 0.3-4.1-0.1-5.6-0.9-0.1 0-0.2-0.1-0.2-0.2l-12.1-7-12.9 7.5c-2.3 1.2-5.8 1.1-8-0.1-2.2-1.3-2.3-3.3-0.2-4.7l12.9-7.5-5.5-3.2-12.9 7.5c-1.5 1-3.7 1.4-5.8 1.1-1.1-0.2-2-0.5-2.8-0.9-0.7-0.4-1.3-1-1.6-1.6-0.5-1.2 0.2-2.5 1.8-3.4l9.5-5.5h-21.1c-1.6 0-3.1-0.4-4.1-1-1.1-0.6-1.7-1.5-1.7-2.4 0-1.9 2.6-3.4 5.8-3.4h24.9l-0.1-14.4c0-1.2 1.1-2.3 2.9-2.9 1.8-0.6 4-0.6 5.8 0 0.4 0.1 0.8 0.3 1.2 0.5 1.1 0.6 1.7 1.5 1.7 2.4l0.1 12.2 7.8-4.5c1.5-0.9 3.6-1.2 5.6-0.9 1 0.2 1.9 0.5 2.6 0.9 0.7 0.4 1.3 0.9 1.5 1.5 0.5 1.2 0 2.4-1.5 3.3l-11.7 6.8 5.5 3.2 11.7-6.8c1.5-0.9 3.6-1.2 5.7-0.9 1.2 0.2 2.1 0.5 2.8 0.9z" fill="#FFFFFF" /></svg>