<?xml version="1.0" encoding="utf-8"?>
<!-- Uploaded to: SVG Repo, www.svgrepo.com, Generator: SVG Repo Mixer Tools -->
<svg width="800px" height="800px" viewBox="0 0 1024 1024" class="icon"  version="1.1" xmlns="http://www.w3.org/2000/svg"><path d="M905.5 571.4c-1.1 11-11.2 16.5-19.8 21.5-8 4.6-16 9.3-23.9 13.9-12.8 7.4-25.5 14.8-38.3 22.2-16 9.3-31.9 18.6-47.9 27.8-17.6 10.2-35.2 20.5-52.9 30.7-17.7 10.3-35.4 20.6-53.2 30.9-16.3 9.5-32.5 18.9-48.8 28.4-13.3 7.7-26.5 15.4-39.8 23.1-8.7 5-17.4 10.1-26.1 15.1-6.6 3.8-12.8 7.6-20.3 9.8-19.5 5.6-41.1 3.7-58.7-6.5-6.3-3.7-12.7-7.3-19-11-11.6-6.7-23.1-13.3-34.7-20-15.2-8.8-30.4-17.6-45.6-26.3-17.3-10-34.7-20-52-30-17.9-10.3-35.8-20.7-53.7-31-16.9-9.8-33.8-19.5-50.8-29.3l-43.2-24.9c-10.3-6-20.7-11.9-31-17.9-4.7-2.7-9.4-5.4-14.1-8.2-7.4-4.3-14.7-11.1-14.7-20.3 0 8.4 0 16.8-0.1 25.3 0 3-0.2 6.1 0 9.2 0.6 8.1 7 14.4 13.7 18.4 4.1 2.5 8.3 4.8 12.5 7.2 10.8 6.2 21.6 12.5 32.4 18.7 15.6 9 31.1 18 46.7 27 18.5 10.7 37.1 21.4 55.6 32.1 19.3 11.2 38.6 22.3 58 33.5 18.4 10.6 36.7 21.2 55.1 31.8 15.3 8.8 30.5 17.6 45.8 26.4 10.3 6 20.7 11.9 31 17.9 6 3.4 11.9 7.3 18.4 9.7 20.3 7.4 44.1 5.8 62.8-5.1 7.1-4.1 14.2-8.3 21.3-12.4 13.1-7.6 26.2-15.2 39.2-22.8 17.1-9.9 34.1-19.8 51.2-29.8 19.1-11.1 38.2-22.2 57.2-33.3l57.3-33.3c17.1-10 34.2-19.9 51.4-29.9 13.3-7.7 26.6-15.4 39.9-23.2 7.3-4.3 14.7-8.5 22-12.8 2.2-1.3 4.5-2.6 6.6-4.1 5.6-4.2 10-10 10.1-17.3 0.1-3.7 0-7.3 0-11 0-7.3 0-14.7 0.1-22 0.4 0.8 0.3 1.3 0.3 1.8 0 0.3 0-0.2 0 0zM905.6 569.8z" fill="#7A9EFD" /><path d="M891.3 549.9c19 11 19.1 28.9 0.2 39.9L547.1 789.9c-18.9 11-49.8 11-68.8 0L131.6 589.8c-19-11-19.1-28.9-0.2-39.9l344.4-200.2c18.9-11 49.8-11 68.8 0l346.7 200.2z" fill="#E4ECF9" /><path d="M499.1 331.5c0.8-0.4 1.6-0.8 2.4-1.1 0.5-0.2 0.9-0.4 1.3-0.6 0.8-0.3 1.5-0.6 2.3-0.9 0.5-0.2 0.9-0.3 1.4-0.5 0.7-0.2 1.4-0.5 2.1-0.7 0.5-0.2 1-0.3 1.5-0.4 0.4-0.1 0.8-0.2 1.3-0.3 0.6-0.1 1.2-0.3 1.7-0.4 0.4-0.1 0.8-0.2 1.2-0.2l2.1-0.3c0.2 0 0.4-0.1 0.6-0.1 0.9-0.1 1.8-0.2 2.7-0.2H523.1c0.7 0 1.3 0.1 2 0.1 0.2 0 0.4 0 0.6 0.1 0.8 0.1 1.6 0.2 2.5 0.4 0.2 0 0.4 0.1 0.6 0.1 0.6 0.1 1.3 0.3 1.9 0.4 0.3 0.1 0.5 0.1 0.8 0.2 0.6 0.2 1.1 0.3 1.7 0.5 0.3 0.1 0.5 0.2 0.8 0.3 0.7 0.2 1.3 0.5 2 0.7 0.1 0 0.2 0.1 0.3 0.1 0.8 0.3 1.6 0.7 2.4 1.1l0.6 0.3c0.6 0.3 1.3 0.7 1.9 1l-14.8-8.6c-0.1-0.1-0.2-0.1-0.3-0.2-0.5-0.3-1-0.6-1.6-0.8l-0.6-0.3c-0.8-0.4-1.5-0.7-2.3-1.1h-0.1c-0.1 0-0.2-0.1-0.3-0.1-0.7-0.3-1.3-0.5-2-0.8-0.3-0.1-0.5-0.2-0.8-0.3l-0.9-0.3c-0.2-0.1-0.5-0.1-0.7-0.2-0.3-0.1-0.5-0.1-0.8-0.2-0.6-0.2-1.2-0.3-1.9-0.4-0.2 0-0.4-0.1-0.6-0.1h-0.2c-0.8-0.1-1.5-0.2-2.3-0.3-0.2 0-0.4 0-0.6-0.1-0.4 0-0.9-0.1-1.3-0.1h-4.3c-0.8 0-1.7 0.1-2.5 0.2-0.2 0-0.4 0.1-0.7 0.1-0.5 0.1-1 0.1-1.5 0.2-0.2 0-0.4 0.1-0.5 0.1-0.4 0.1-0.8 0.1-1.2 0.2-0.6 0.1-1.2 0.2-1.8 0.4l-1.2 0.3c-0.3 0.1-0.5 0.1-0.8 0.2-0.2 0.1-0.5 0.2-0.8 0.2-0.7 0.2-1.4 0.4-2.1 0.7-0.5 0.2-0.9 0.3-1.4 0.5-0.7 0.3-1.5 0.6-2.3 0.9-0.3 0.1-0.6 0.2-1 0.4-0.1 0.1-0.3 0.1-0.4 0.2-0.8 0.4-1.6 0.7-2.4 1.1l-1.2 0.6c-1.2 0.6-2.5 1.3-3.7 2L407 367.2c-1.6 0.9-3.1 1.9-4.6 2.9-0.4 0.3-0.8 0.6-1.3 0.9-1.2 0.8-2.4 1.7-3.6 2.6-0.3 0.2-0.7 0.5-1 0.7-1.4 1.1-2.9 2.3-4.3 3.5-0.3 0.3-0.6 0.6-0.9 0.8-1.1 1-2.2 2-3.3 3.1-0.2 0.2-0.4 0.4-0.7 0.6l-0.6 0.6c-0.7 0.7-1.4 1.4-2 2.1l-1.4 1.4c-0.7 0.8-1.4 1.5-2.1 2.3-0.3 0.4-0.6 0.7-1 1.1l-0.3 0.3-1.2 1.5c-0.6 0.7-1.1 1.3-1.7 2-0.4 0.5-0.8 1-1.3 1.6-0.4 0.5-0.8 0.9-1.1 1.4-0.1 0.1-0.2 0.3-0.3 0.4-1.4 1.8-2.8 3.7-4.1 5.5-0.1 0.2-0.2 0.3-0.3 0.4-0.2 0.2-0.3 0.5-0.5 0.7-1.4 2-2.7 4-4.1 6.1v0.1c-1.4 2.2-2.8 4.5-4.1 6.8-0.1 0.2-0.3 0.4-0.4 0.6-0.1 0.1-0.1 0.2-0.2 0.4-1.4 2.3-2.7 4.7-4 7.1-0.1 0.2-0.2 0.4-0.4 0.6-0.1 0.2-0.2 0.3-0.3 0.5-1.4 2.7-2.8 5.5-4.2 8.3l-0.3 0.6c-0.1 0.1-0.1 0.3-0.2 0.4-1.7 3.6-3.4 7.2-4.9 10.8 0 0.1-0.1 0.2-0.1 0.2-0.8 1.9-1.6 3.8-2.4 5.8-0.2 0.6-0.5 1.1-0.7 1.7-0.7 1.7-1.3 3.3-2 5-0.1 0.3-0.2 0.6-0.4 0.9 0 0.1-0.1 0.2-0.1 0.3-1 2.6-1.9 5.1-2.8 7.7-0.2 0.5-0.3 0.9-0.5 1.4-0.9 2.5-1.8 5.1-2.6 7.6-0.1 0.2-0.1 0.4-0.2 0.6-0.1 0.2-0.1 0.4-0.2 0.6-1.2 3.6-2.3 7.2-3.4 10.7-0.1 0.3-0.2 0.6-0.3 0.8-1.1 3.8-2.2 7.5-3.3 11.2v0.1c0 0.1-0.1 0.3-0.1 0.4-0.8 2.9-1.6 5.8-2.3 8.7v0.1c-0.8 2.9-1.5 5.8-2.2 8.6-0.1 0.2-0.1 0.4-0.2 0.7-0.7 2.7-1.3 5.4-1.9 8.1-0.1 0.3-0.2 0.7-0.2 1-0.6 2.6-1.1 5.1-1.7 7.6 0 0.2-0.1 0.4-0.1 0.6-0.1 0.3-0.1 0.6-0.2 0.9-0.1 0.7-0.3 1.3-0.4 2-0.2 0.8-0.3 1.6-0.5 2.3-0.1 0.7-0.3 1.3-0.4 1.9-0.2 0.8-0.3 1.6-0.5 2.3-0.1 0.6-0.2 1.3-0.4 1.9-0.2 0.8-0.3 1.5-0.4 2.3l-0.3 1.8c-0.1 0.8-0.3 1.5-0.4 2.2l-0.3 1.8c-0.1 0.7-0.3 1.5-0.4 2.2-0.1 0.6-0.2 1.1-0.3 1.7-0.1 0.7-0.3 1.5-0.4 2.2-0.1 0.5-0.2 1.1-0.3 1.6-0.1 0.7-0.3 1.5-0.4 2.2-0.1 0.5-0.2 1-0.2 1.5-0.1 0.8-0.3 1.5-0.4 2.3-0.1 0.4-0.1 0.8-0.2 1.3-0.1 0.9-0.3 1.8-0.4 2.6 0 0.3-0.1 0.5-0.1 0.8-0.2 1.1-0.3 2.2-0.5 3.3 0 0.3-0.1 0.5-0.1 0.8-0.1 0.8-0.2 1.6-0.4 2.4-0.1 0.4-0.1 0.8-0.2 1.2l-0.3 1.8c-0.1 0.4-0.1 0.8-0.2 1.3s-0.1 1-0.2 1.5c-0.1 0.4-0.1 0.8-0.2 1.2-0.1 0.5-0.1 1-0.2 1.5-0.1 0.4-0.1 0.7-0.1 1.1 0 0.3-0.1 0.6-0.1 0.9v0.4c-0.1 0.6-0.2 1.2-0.2 1.8 0 0.3-0.1 0.5-0.1 0.8-0.2 1.7-0.4 3.2-0.5 4.5 0 0.2 0 0.4-0.1 0.6-0.1 0.4-0.1 0.9-0.1 1.3 0 0.2 0 0.4-0.1 0.6 0 0.3-0.1 0.7-0.1 1 0 0.2 0 0.4-0.1 0.6 0 0.3-0.1 0.5-0.1 0.8v0.4c0 0.3-0.1 0.5-0.1 0.7v0.2c0 0.3 0 0.5-0.1 0.6 0 12.9 5 23 12.9 27.6l14.8 8.6c-7.9-4.6-12.9-14.7-12.9-27.6 0-0.2 0-0.4 0.1-0.6v-0.3c0-0.2 0-0.4 0.1-0.7v-0.5c0-0.2 0.1-0.5 0.1-0.8 0-0.2 0-0.4 0.1-0.6 0-0.3 0.1-0.6 0.1-1 0-0.2 0-0.4 0.1-0.6 0-0.4 0.1-0.8 0.1-1.3 0-0.2 0-0.4 0.1-0.6 0.2-1.3 0.3-2.8 0.5-4.5 0-0.3 0.1-0.5 0.1-0.8 0.1-0.6 0.1-1.2 0.2-1.8 0.1-0.4 0.1-0.9 0.2-1.3 0-0.4 0.1-0.7 0.1-1.1 0.1-0.5 0.1-1 0.2-1.5 0.1-0.4 0.1-0.8 0.2-1.2 0.1-0.5 0.1-1 0.2-1.5 0.1-0.4 0.1-0.8 0.2-1.3l0.3-1.8c0.1-0.4 0.1-0.8 0.2-1.2 0.1-0.8 0.2-1.6 0.4-2.4 0-0.3 0.1-0.5 0.1-0.8 0.2-1.1 0.3-2.2 0.5-3.3 0-0.3 0.1-0.5 0.1-0.8 0.1-0.9 0.3-1.7 0.4-2.6 0.1-0.4 0.1-0.8 0.2-1.3 0.1-0.8 0.2-1.5 0.4-2.3 0.1-0.5 0.2-1 0.2-1.5 0.1-0.7 0.2-1.5 0.4-2.2 0.1-0.5 0.2-1.1 0.3-1.6 0.1-0.7 0.3-1.4 0.4-2.2 0.1-0.6 0.2-1.1 0.3-1.7 0.1-0.7 0.3-1.5 0.4-2.2l0.3-1.8c0.1-0.7 0.3-1.5 0.4-2.3l0.3-1.8c0.1-0.8 0.3-1.5 0.4-2.3 0.1-0.6 0.2-1.3 0.4-1.9 0.2-0.8 0.3-1.5 0.5-2.3 0.1-0.6 0.3-1.3 0.4-1.9 0.2-0.8 0.3-1.6 0.5-2.4 0.1-0.7 0.3-1.3 0.4-2l0.3-1.5c0.5-2.5 1.1-5 1.7-7.6 0.1-0.3 0.2-0.7 0.2-1 0.6-2.7 1.2-5.3 1.9-8.1 0.1-0.2 0.1-0.4 0.2-0.7 0.7-2.8 1.4-5.7 2.2-8.6v-0.1c0.7-2.9 1.5-5.8 2.3-8.7 0.1-0.2 0.1-0.4 0.2-0.6 1-3.7 2.1-7.5 3.3-11.2 0.1-0.3 0.2-0.6 0.3-0.8 1.1-3.6 2.2-7.2 3.4-10.7 0.1-0.4 0.2-0.8 0.4-1.1 0.8-2.5 1.7-5.1 2.6-7.6 0.2-0.5 0.3-0.9 0.5-1.4 0.9-2.6 1.9-5.1 2.8-7.7 0.2-0.4 0.3-0.8 0.5-1.2 0.6-1.7 1.3-3.3 2-5 0.2-0.6 0.5-1.1 0.7-1.7 0.8-1.9 1.6-3.9 2.4-5.8 0-0.1 0.1-0.2 0.1-0.3 1.6-3.7 3.2-7.3 4.9-10.8 0.2-0.3 0.3-0.7 0.5-1 1.4-2.8 2.7-5.6 4.2-8.3 0.2-0.4 0.4-0.8 0.6-1.1 1.3-2.4 2.6-4.8 4-7.1 0.2-0.3 0.4-0.6 0.6-1 1.3-2.3 2.7-4.5 4.1-6.7v-0.1c1.3-2.1 2.7-4.1 4.1-6.1 0.3-0.4 0.5-0.8 0.8-1.1 1.3-1.9 2.7-3.7 4.1-5.5 0.5-0.6 1-1.2 1.4-1.8 0.4-0.5 0.8-1.1 1.3-1.6 0.6-0.7 1.1-1.4 1.7-2l1.2-1.5c0.4-0.5 0.8-0.9 1.2-1.4 0.7-0.8 1.4-1.5 2.1-2.3l1.4-1.4c0.7-0.7 1.4-1.4 2-2.1 0.4-0.4 0.8-0.8 1.3-1.2 1.1-1 2.2-2.1 3.3-3.1 0.3-0.3 0.6-0.6 0.9-0.8 1.4-1.2 2.8-2.4 4.3-3.5 0.3-0.3 0.7-0.5 1-0.7 1.2-0.9 2.4-1.7 3.5-2.6 0.4-0.3 0.8-0.6 1.3-0.9 1.5-1 3-2 4.6-2.9l72.3-41.7c1.3-0.7 2.5-1.4 3.7-2 0.6 0.2 1 0 1.4-0.2zM505.8 202.4c0.6-0.3 1.3-0.6 1.9-0.8 0.1 0 0.2-0.1 0.2-0.1 0.7-0.3 1.3-0.5 1.9-0.7 0.2-0.1 0.3-0.1 0.5-0.2 0.5-0.2 1-0.3 1.5-0.5 0.1 0 0.2-0.1 0.3-0.1 0.8-0.2 1.5-0.4 2.3-0.5h0.2c0.5-0.1 1.1-0.1 1.6-0.2h1.8c0.4 0 0.8 0.1 1.1 0.1 0.1 0 0.2 0 0.3 0.1 0.3 0 0.5 0.1 0.7 0.2 0.1 0 0.2 0.1 0.3 0.1 0.2 0.1 0.4 0.1 0.6 0.2 0.1 0 0.2 0.1 0.3 0.1l0.6 0.3c0.1 0 0.2 0.1 0.3 0.1l-14.8-8.6s-0.1 0-0.1-0.1c-0.1 0-0.1-0.1-0.2-0.1l-0.6-0.3s-0.1 0-0.1-0.1c-0.1 0-0.1 0-0.2-0.1-0.2-0.1-0.4-0.1-0.6-0.2-0.1 0-0.1 0-0.2-0.1h-0.1c-0.2-0.1-0.5-0.1-0.7-0.2h-0.2-0.1c-0.4-0.1-0.7-0.1-1.1-0.1h-1.6-0.1c-0.5 0-1 0.1-1.6 0.2h-0.1-0.1c-0.7 0.1-1.5 0.3-2.3 0.5h-0.1c-0.1 0-0.2 0.1-0.2 0.1-0.5 0.1-1 0.3-1.5 0.5-0.2 0.1-0.3 0.1-0.5 0.2-0.6 0.2-1.2 0.5-1.9 0.7-0.1 0-0.1 0.1-0.2 0.1-0.6 0.3-1.2 0.5-1.9 0.8l-0.6 0.3c-0.7 0.4-1.5 0.7-2.2 1.1-0.5 0.3-1 0.5-1.5 0.8-1.3 0.8-2.6 1.6-3.8 2.4l-1.2 0.9c-0.8 0.6-1.6 1.1-2.3 1.7-0.4 0.4-0.9 0.7-1.3 1.1-0.7 0.5-1.3 1.1-1.9 1.7-0.4 0.4-0.9 0.8-1.3 1.2-0.4 0.3-0.7 0.7-1.1 1l-0.7 0.7-0.9 0.9c-0.6 0.7-1.3 1.4-1.9 2.1-0.2 0.3-0.5 0.5-0.7 0.8l-0.3 0.3c-0.5 0.6-1.1 1.2-1.6 1.9-0.2 0.3-0.5 0.6-0.7 0.9l-2.4 3c-1.3 1.6-2.5 3.3-3.7 4.9-1.2 1.6-2.4 3.1-3.5 4.7l-2.1 2.7c0 0.1-0.1 0.1-0.1 0.2-0.6 0.8-1.3 1.6-2 2.3-1 1.1-1.9 2.2-3 3.2-0.7 0.7-1.5 1.4-2.2 2.1-0.2 0.1-0.3 0.3-0.5 0.4-0.6 0.6-1.3 1.1-2 1.6-0.2 0.2-0.5 0.4-0.7 0.5-0.9 0.6-1.7 1.2-2.7 1.7-0.7 0.4-1.4 0.8-2.1 1.1-0.2 0.1-0.4 0.2-0.5 0.3-0.6 0.3-1.1 0.5-1.7 0.8-0.1 0-0.2 0.1-0.3 0.1-0.6 0.2-1.2 0.5-1.8 0.7-0.2 0.1-0.3 0.1-0.5 0.2-0.4 0.1-0.9 0.3-1.3 0.4-0.2 0-0.4 0.1-0.5 0.1l-1.2 0.3c-0.1 0-0.3 0.1-0.4 0.1l-1.5 0.3h-0.2c-0.5 0.1-1.1 0.1-1.6 0.2h-0.4c-0.6 0-1.1 0.1-1.7 0.1-1.1 0-2.3 0.1-3.4 0h-0.2c-1.2 0-2.3-0.1-3.5-0.1-1.2 0-2.3-0.1-3.5-0.1H412c-0.7 0-1.5 0.1-2.3 0.2h-0.4c-0.8 0.1-1.5 0.2-2.3 0.3h-0.2c-0.1 0-0.2 0-0.3 0.1-0.6 0.1-1.3 0.2-2 0.4-0.1 0-0.2 0-0.3 0.1-0.7 0.2-1.5 0.3-2.3 0.5-0.1 0-0.2 0-0.2 0.1-0.1 0-0.2 0.1-0.3 0.1-0.9 0.2-1.8 0.5-2.8 0.9-0.1 0-0.2 0.1-0.3 0.1-0.9 0.3-1.9 0.7-2.9 1.1-0.1 0-0.2 0.1-0.2 0.1-0.1 0-0.2 0.1-0.3 0.1-1.8 0.7-3.4 1.6-5 2.5-0.9 0.5-1.8 1.1-2.7 1.7-0.2 0.2-0.5 0.3-0.7 0.5-0.7 0.5-1.4 1.1-2.1 1.6-0.1 0.1-0.2 0.2-0.4 0.3-0.6 0.5-1.2 1.1-1.8 1.7l-0.3 0.3c-0.3 0.3-0.5 0.6-0.8 0.8l-0.9 0.9c-0.2 0.2-0.3 0.4-0.5 0.6-0.1 0.2-0.3 0.4-0.4 0.5-0.1 0.2-0.3 0.3-0.4 0.5-0.4 0.5-0.7 1-1.1 1.5 0 0.1-0.1 0.1-0.1 0.2-0.1 0.1-0.1 0.2-0.2 0.3l-0.6 0.9c-0.3 0.4-0.6 0.9-0.8 1.3l-0.1 0.1c0 0.1-0.1 0.1-0.1 0.2-0.2 0.3-0.4 0.7-0.6 1-0.3 0.5-0.5 1-0.7 1.4v0.1s0 0.1-0.1 0.1c-0.2 0.4-0.4 0.9-0.6 1.3-0.2 0.4-0.3 0.7-0.4 1.1-0.1 0.1-0.1 0.3-0.2 0.4 0 0.1-0.1 0.1-0.1 0.2-0.2 0.6-0.5 1.3-0.7 1.9 0 0.1-0.1 0.2-0.1 0.3-0.1 0.3-0.2 0.6-0.3 0.8-0.1 0.4-0.2 0.8-0.3 1.1 0 0.2-0.1 0.3-0.1 0.5-0.1 0.5-0.3 1.1-0.4 1.6-0.1 0.3-0.1 0.6-0.2 0.8 0 0.1 0 0.2-0.1 0.3-0.3 1.3-0.5 2.5-0.6 3.7v0.2c0 0.4-0.1 0.8-0.1 1.1 0 0.4-0.1 0.7-0.1 1.1 0 0.5-0.1 1-0.1 1.5 0 0.3 0 0.7-0.1 1v4.7c0.3 9.1 7.3 25.2 18.2 31.5l14.8 8.6c-10.9-6.3-17.9-22.4-18.2-31.5v-2.3-0.8-1.6c0-0.3 0-0.7 0.1-1 0-0.5 0.1-1 0.1-1.5 0-0.4 0.1-0.7 0.1-1.1 0-0.5 0.1-0.9 0.2-1.4 0.2-1.2 0.4-2.5 0.6-3.7l0.3-1.2c0.1-0.5 0.3-1.1 0.4-1.6 0.1-0.5 0.3-1.1 0.5-1.6 0.1-0.3 0.2-0.6 0.3-0.8 0.3-0.8 0.5-1.6 0.9-2.4 0-0.1 0.1-0.3 0.2-0.4 0.3-0.8 0.7-1.6 1-2.4 0 0 0-0.1 0.1-0.1 0.4-0.8 0.8-1.7 1.3-2.5 0-0.1 0.1-0.1 0.1-0.2l1.5-2.4c0.1-0.1 0.1-0.2 0.2-0.3 0.5-0.7 1.1-1.5 1.6-2.2 0.1-0.2 0.3-0.4 0.4-0.5 0.4-0.5 0.9-1 1.4-1.5 0.3-0.3 0.5-0.6 0.8-0.8 0.7-0.7 1.4-1.3 2.1-2 0.1-0.1 0.2-0.2 0.4-0.3 0.7-0.6 1.4-1.1 2.1-1.6 0.2-0.2 0.5-0.3 0.7-0.5 0.9-0.6 1.8-1.2 2.7-1.7 1.5-0.9 3.2-1.7 5-2.5 0.2-0.1 0.3-0.1 0.5-0.2 1-0.4 2-0.8 2.9-1.1 0.1 0 0.2-0.1 0.3-0.1 1-0.3 1.9-0.6 2.8-0.9 0.2 0 0.3-0.1 0.5-0.1 0.8-0.2 1.5-0.4 2.3-0.5 0.1 0 0.2 0 0.3-0.1 0.7-0.1 1.3-0.3 2-0.4 0.2 0 0.3-0.1 0.5-0.1 0.8-0.1 1.6-0.2 2.3-0.3h0.4c0.8-0.1 1.5-0.1 2.3-0.2h0.1c1.3-0.1 2.5-0.1 3.7 0h0.2c1.2 0 2.4 0.1 3.5 0.1 1.2 0 2.3 0.1 3.5 0.1h3.6c0.6 0 1.1-0.1 1.7-0.1h0.4c0.5-0.1 1-0.1 1.6-0.2h0.2l1.5-0.3c0.1 0 0.3-0.1 0.4-0.1l1.2-0.3c0.1 0 0.2 0 0.2-0.1 0.1 0 0.2-0.1 0.3-0.1 0.4-0.1 0.9-0.3 1.3-0.4 0.2-0.1 0.3-0.1 0.5-0.2 0.6-0.2 1.2-0.4 1.8-0.7h0.1c0.1 0 0.1-0.1 0.2-0.1 0.6-0.2 1.1-0.5 1.7-0.8 0.2-0.1 0.4-0.2 0.5-0.3 0.7-0.3 1.4-0.7 2.1-1.1 0.9-0.5 1.8-1.1 2.7-1.7 0.2-0.2 0.5-0.3 0.7-0.5 0.7-0.5 1.3-1 2-1.6 0.2-0.1 0.3-0.3 0.5-0.4 0.7-0.6 1.4-1.2 2.1-1.9l0.2-0.2c1-1 2-2.1 3-3.2l0.2-0.2 1.8-2.1 0.2-0.2c0.7-0.8 1.3-1.6 1.9-2.4 0.1-0.1 0.1-0.2 0.2-0.2 1.2-1.5 2.3-3.1 3.5-4.7 1.2-1.6 2.4-3.3 3.7-4.9l2.4-3c0.2-0.3 0.5-0.6 0.7-0.8 0.6-0.7 1.2-1.5 1.8-2.2 0.2-0.3 0.5-0.5 0.7-0.8 0.6-0.7 1.2-1.4 1.9-2.1l0.9-0.9c0.6-0.6 1.2-1.2 1.8-1.7 0.4-0.4 0.8-0.8 1.3-1.2 0.6-0.6 1.3-1.1 1.9-1.7 0.4-0.4 0.9-0.7 1.3-1.1 0.7-0.6 1.5-1.2 2.3-1.7l1.2-0.9c1.2-0.8 2.5-1.6 3.8-2.4 0.5-0.3 1-0.6 1.5-0.8 0.8-0.4 1.5-0.8 2.2-1.1-0.3 0.1-0.1 0 0.1-0.1z" fill="#2A2ABC" /><path d="M404.5 260.3c1.5-0.9 3.2-1.7 5-2.5 21.4-9 30.1 1.6 47.4-8.4 16.6-9.6 22.3-31.8 44.6-44.7 0.5-0.3 1-0.6 1.5-0.8 23.6-12.8 25 4.7 25 14.2 0 9.6-16 62.2-37.2 74.4l-68.5 39.6c-21.2 12.2-37.1-17.5-37.5-31.3-0.5-12.5 2.7-30.7 19.7-40.5zM494.1 334.1c80-46.2 99.2 114.7 100.2 123.1 0.1 23.7-16.6 57.2-37.2 69.1L360.2 640.1c-20.6 11.9-37.4-2.3-37.5-26 1-9.6 19.1-192 99.2-238.2l72.2-41.8z" fill="#4040FF" /><path d="M481.5 404.2c0.5-0.3 1-0.5 1.5-0.6 2-0.6 3.6 0.4 4.2 2.4 0.5 2 0 4.8-1.5 7.4l-14.9 25.8 11.1-6.4c2.1-1.2 4-1 5.1 0.4 1.1 1.5 1.1 4 0 6.7-1 2.7-3 5.1-5.1 6.3l-16.6 9.6v8.9L482 455c2.1-1.2 4-1 5.1 0.4 1.1 1.5 1.1 4 0 6.7-1 2.7-3 5.1-5.1 6.3l-16.6 9.6 0.1 19.6c0.1 2.4-0.9 5.4-2.8 7.8-0.9 1.2-2 2.1-3 2.7s-2.1 0.9-3 0.8c-1.9-0.2-3-2-2.8-4.5l-0.1-19.6-18.3 10.6c-3.1 1.6-5.5 0-5.5-3.5 0-3.6 2.4-7.9 5.5-9.9l18.3-10.6v-8.9l-18.3 10.6c-0.1 0.1-0.2 0.2-0.4 0.2-2 1.2-4 1.1-5-0.4-1.1-1.5-1.1-4.2 0-7 1.1-2.6 3-5 5-6.1 0.1-0.1 0.2-0.1 0.4-0.2l13.5-7.8-15-8.6c-2.3-1.3-2.3-5.6 0-9.5 1.1-2 2.6-3.5 4.1-4.4 1.5-0.9 3-1.1 4.2-0.4L460 439l17.6-30.4c0.9-1.9 2.4-3.5 3.9-4.4z" fill="#2828CE" /><path d="M466.1 516.5l-0.1-19.6-10.8-6.3 0.1 19.6c-0.1 2 0.5 3.5 1.7 4.2l10.8 6.3c-1.2-0.7-1.8-2.2-1.7-4.2zM496.5 466.3s0.1 0 0 0h1l0.9 0.3-10.8-6.3c-0.1-0.1-0.2-0.1-0.3-0.1-0.1 0-0.2-0.1-0.3-0.1-0.1 0-0.2 0-0.2-0.1h-1H485.5c-0.2 0-0.3 0.1-0.5 0.1-0.1 0-0.2 0.1-0.2 0.1-0.1 0-0.1 0-0.2 0.1-0.1 0-0.2 0-0.2 0.1-0.3 0.1-0.5 0.2-0.8 0.4l-16.6 9.6 10.8 6.3 16.6-9.6c0.4-0.2 0.7-0.4 1.1-0.5 0.1 0 0.1 0 0.2-0.1 0.2-0.1 0.5-0.2 0.8-0.2zM496.4 444c0.1 0 0.1 0 0 0h1l0.9 0.3-10.8-6.3c-0.1-0.1-0.2-0.1-0.3-0.1-0.1 0-0.2-0.1-0.3-0.1-0.1 0-0.2 0-0.2-0.1h-1.1H485.3c-0.2 0-0.3 0.1-0.5 0.1-0.1 0-0.2 0.1-0.2 0.1-0.1 0-0.1 0-0.2 0.1-0.1 0-0.2 0-0.2 0.1-0.3 0.1-0.5 0.2-0.8 0.4l-11.1 6.4 10.8 6.3 11.1-6.4c0.4-0.2 0.7-0.4 1.1-0.5 0.1 0 0.1 0 0.2-0.1 0.3-0.1 0.6-0.2 0.9-0.2zM465.9 483.5l-10.7-6.3-0.1-8.9 10.8 6.3z" fill="#ACC5EA" /><path d="M496.7 415.5s0.1 0 0 0c0.3 0 0.5 0.1 0.7 0.1 0.2 0.1 0.4 0.1 0.5 0.2l-10.8-6.3c-0.1-0.1-0.2-0.1-0.3-0.1-0.1 0-0.1-0.1-0.2-0.1h-0.1c-0.1 0-0.2-0.1-0.3-0.1h-0.2-0.1-0.5-0.2H484.9c-0.2 0-0.3 0.1-0.5 0.1-0.2 0.1-0.5 0.1-0.7 0.2-0.3 0.1-0.5 0.2-0.8 0.4-0.4 0.2-0.7 0.5-1.1 0.7l-0.3 0.3c-0.2 0.2-0.4 0.3-0.5 0.5l-0.2 0.2-0.2 0.2-0.3 0.3c-0.2 0.2-0.3 0.4-0.5 0.6 0 0.1-0.1 0.1-0.1 0.2l-0.1 0.1c-0.1 0.1-0.1 0.2-0.2 0.2-0.1 0.2-0.2 0.3-0.3 0.5-0.1 0.2-0.2 0.3-0.3 0.5v0.1l-17.6 30.4L472 451l17.6-30.4c0.3-0.5 0.6-0.9 0.9-1.3l0.1-0.1c0.3-0.4 0.6-0.7 0.9-1l0.2-0.2 0.7-0.7 0.3-0.3c0.4-0.3 0.7-0.5 1.1-0.7 0.3-0.2 0.5-0.3 0.8-0.4 0.2-0.1 0.5-0.2 0.7-0.3 0.2-0.1 0.5-0.1 0.7-0.1h0.7zM442.3 502.4l0.3-1.2v-0.1c0.1-0.4 0.3-0.9 0.5-1.3v-0.1c0.2-0.4 0.4-0.9 0.6-1.3 0 0 0-0.1 0.1-0.1 0.2-0.4 0.5-0.8 0.8-1.2 0.3-0.4 0.6-0.8 0.9-1.1l0.1-0.1 0.8-0.8 0.3-0.3c0.3-0.3 0.7-0.5 1-0.8l18.3-10.6-10.8-6.3-18.3 10.6c-0.3 0.2-0.7 0.5-1 0.8l-0.3 0.3-0.3 0.3-0.5 0.5-0.1 0.1-0.1 0.1c-0.2 0.2-0.3 0.4-0.5 0.6-0.1 0.2-0.2 0.3-0.4 0.5-0.1 0.2-0.2 0.3-0.3 0.5-0.1 0.2-0.2 0.3-0.3 0.5 0 0.1-0.1 0.1-0.1 0.2 0 0 0 0.1-0.1 0.1 0 0.1-0.1 0.1-0.1 0.2-0.1 0.2-0.2 0.3-0.3 0.5-0.1 0.2-0.2 0.3-0.2 0.5v0.2c0 0.1-0.1 0.2-0.1 0.3-0.1 0.2-0.1 0.4-0.2 0.6 0 0.1-0.1 0.3-0.1 0.4v0.2c-0.1 0.2-0.1 0.5-0.2 0.7 0 0.2-0.1 0.3-0.1 0.5v0.4c0 0.4-0.1 0.8-0.1 1.1 0 1.4 0.4 2.5 1 3.2 0.2 0.2 0.4 0.4 0.7 0.6l10.8 6.3c-1.1-0.6-1.7-1.9-1.7-3.8 0-0.4 0-0.9 0.1-1.3-0.1-0.3-0.1-0.3-0.1-0.4z" fill="#ACC5EA" /><path d="M450.4 457.6l-13.5 7.8c-0.1 0.1-0.2 0.1-0.4 0.2-0.5 0.3-0.9 0.6-1.3 1l-0.3 0.3-0.3 0.3c-0.2 0.2-0.4 0.4-0.6 0.7-0.1 0.1-0.1 0.2-0.2 0.3l-0.1 0.1-0.2 0.2c-0.1 0.2-0.3 0.3-0.4 0.5-0.1 0.2-0.2 0.3-0.3 0.5-0.1 0.1-0.2 0.3-0.2 0.4v0.1c-0.1 0.2-0.2 0.3-0.3 0.5-0.1 0.2-0.2 0.3-0.2 0.5-0.1 0.2-0.2 0.3-0.2 0.5-0.1 0.1-0.1 0.2-0.1 0.4 0 0.1-0.1 0.1-0.1 0.2-0.1 0.2-0.1 0.4-0.2 0.6 0 0.1 0 0.1-0.1 0.2 0 0.1 0 0.1-0.1 0.2 0 0.1 0 0.1-0.1 0.2-0.1 0.2-0.1 0.4-0.2 0.7v0.1c0 0.2-0.1 0.4-0.1 0.7v0.1c0 0.4-0.1 0.7-0.1 1.1v0.2c0 0.3 0 0.6 0.1 0.8 0 0.1 0 0.2 0.1 0.3 0 0.2 0.1 0.4 0.2 0.6 0 0.1 0.1 0.2 0.1 0.3 0.1 0.3 0.3 0.5 0.4 0.7 0.2 0.3 0.5 0.6 0.9 0.8l10.8 6.3c-0.3-0.2-0.6-0.4-0.9-0.8-0.2-0.2-0.3-0.5-0.4-0.7 0-0.1-0.1-0.2-0.1-0.3-0.1-0.2-0.1-0.4-0.2-0.6 0-0.1 0-0.2-0.1-0.3 0-0.3-0.1-0.5-0.1-0.8v-0.2c0-0.4 0-0.7 0.1-1.1 0-0.2 0.1-0.5 0.1-0.7v-0.1c0.1-0.3 0.1-0.6 0.2-0.9 0-0.1 0-0.1 0.1-0.2 0.1-0.3 0.2-0.6 0.3-1 0.3-0.7 0.6-1.3 0.9-1.9 0.3-0.6 0.7-1.1 1.1-1.6l0.1-0.1c0.4-0.5 0.8-0.9 1.2-1.2l0.3-0.3c0.4-0.4 0.9-0.7 1.3-1 0.1-0.1 0.2-0.1 0.4-0.2l13.5-7.8-10.8-6.6zM454.4 441l-10.8-6.2 17.7 10 10.8 6.3z" fill="#ACC5EA" /><path d="M493.8 416.3c0.5-0.3 1-0.5 1.5-0.6 2-0.6 3.6 0.4 4.2 2.4 0.5 2 0 4.8-1.5 7.4l-14.9 25.8 11.1-6.4c2.1-1.2 4-1 5.1 0.4 1.1 1.5 1.1 4 0 6.7-1 2.7-3 5.1-5.1 6.3l-16.6 9.6v8.9l16.6-9.6c2.1-1.2 4-1 5.1 0.4 1.1 1.5 1.1 4 0 6.7-1 2.7-3 5.1-5.1 6.3l-16.6 9.6 0.1 19.6c0.1 2.4-0.9 5.4-2.8 7.8-0.9 1.2-2 2.1-3 2.7-1 0.6-2.1 0.9-3 0.8-1.9-0.2-3-2-2.8-4.5L466 497l-18.3 10.6c-3.1 1.6-5.5 0-5.5-3.5 0-3.6 2.4-7.9 5.5-9.9l18.3-10.6v-8.9l-18.3 10.6c-0.1 0.1-0.2 0.2-0.4 0.2-2 1.2-4 1.1-5-0.4-1.1-1.5-1.1-4.2 0-7 1.1-2.6 3-5 5-6.1 0.1-0.1 0.2-0.1 0.4-0.2l13.5-7.8-15-8.6c-2.3-1.3-2.3-5.6 0-9.5 1.1-2 2.6-3.5 4.1-4.4 1.5-0.9 3-1.1 4.2-0.4l17.7 10.1 17.6-30.4c1-2.1 2.5-3.6 4-4.5z" fill="#FDFDFF" /><path d="M446.1 455.3l-10.8-6.3c-1.4-0.8-1.9-2.7-1.6-4.9l10.8 6.3c-0.3 2.3 0.2 4.1 1.6 4.9M444.5 450.4l-10.8-6.3c0-0.3 0.1-0.5 0.1-0.8l10.8 6.3c-0.1 0.3-0.1 0.6-0.1 0.8" fill="#ACC5EA" /><path d="M444.6 449.6l-10.8-6.3c0-0.2 0.1-0.4 0.2-0.7l10.8 6.3c-0.1 0.3-0.2 0.5-0.2 0.7M444.8 448.9l-10.8-6.3c0.1-0.2 0.1-0.4 0.2-0.6l10.8 6.3c-0.1 0.2-0.2 0.4-0.2 0.6" fill="#ACC5EA" /><path d="M444.9 448.3l-10.8-6.3c0.1-0.2 0.1-0.4 0.2-0.5l10.8 6.3c0 0.2-0.1 0.3-0.2 0.5M445.1 447.8l-10.8-6.3c0.1-0.2 0.1-0.3 0.2-0.5l10.8 6.3c0 0.1-0.1 0.3-0.2 0.5M445.4 447.3l-10.8-6.3c0.1-0.2 0.1-0.3 0.2-0.5l10.8 6.3c-0.1 0.1-0.2 0.3-0.2 0.5M445.6 446.8l-10.8-6.3c0.1-0.2 0.2-0.3 0.3-0.5l10.8 6.3c-0.2 0.1-0.2 0.3-0.3 0.5" fill="#ACC5EA" /><path d="M445.8 446.3L435 440c0.1-0.1 0.2-0.3 0.2-0.4v-0.1l10.8 6.3v0.1c0 0.1-0.1 0.2-0.2 0.4M446.1 445.8l-10.8-6.3c0.1-0.2 0.2-0.3 0.3-0.5l10.8 6.3c-0.1 0.1-0.2 0.3-0.3 0.5" fill="#ACC5EA" /><path d="M446.4 445.3l-10.8-6.3c0.1-0.2 0.2-0.3 0.3-0.5l10.8 6.3c-0.1 0.1-0.2 0.3-0.3 0.5M446.8 444.8l-10.8-6.3c0.1-0.2 0.3-0.4 0.4-0.5l10.8 6.3c-0.2 0.1-0.3 0.3-0.4 0.5M447.1 444.2l-10.8-6.3c0.2-0.2 0.3-0.4 0.5-0.6l10.8 6.3c-0.1 0.2-0.3 0.4-0.5 0.6" fill="#ACC5EA" /><path d="M447.6 443.7l-10.8-6.3c0.2-0.2 0.4-0.5 0.6-0.7l10.8 6.3c-0.2 0.2-0.4 0.4-0.6 0.7M448.3 443l-10.8-6.3c0.6-0.6 1.3-1.1 2-1.5 0.3-0.2 0.6-0.3 0.8-0.4L451 441c-0.3 0.1-0.6 0.3-0.8 0.4-0.6 0.4-1.3 1-1.9 1.6M451 441l-10.8-6.3c0.2-0.1 0.5-0.2 0.7-0.2l10.8 6.3c-0.2 0.1-0.4 0.1-0.7 0.2" fill="#ACC5EA" /><path d="M451.7 440.8l-10.8-6.3c0.2 0 0.3-0.1 0.5-0.1l10.8 6.3c-0.1 0-0.3 0.1-0.5 0.1M452.3 440.7l-10.8-6.3h0.4l10.8 6.3h-0.4" fill="#ACC5EA" /><path d="M452.7 440.7l-10.8-6.3h0.4l10.8 6.3c-0.2-0.1-0.3-0.1-0.4 0M453.1 440.7l-10.8-6.3h0.4l10.8 6.3h-0.4" fill="#ACC5EA" /><path d="M453.4 440.7l-10.8-6.3c0.1 0 0.2 0 0.3 0.1l10.8 6.3c-0.1-0.1-0.2-0.1-0.3-0.1M453.8 440.8l-10.8-6.3c0.1 0 0.2 0.1 0.3 0.1l10.8 6.3c-0.1-0.1-0.2-0.1-0.3-0.1" fill="#ACC5EA" /><path d="M454.1 440.9l-10.8-6.3c0.1 0 0.2 0.1 0.3 0.1l10.8 6.3c-0.1 0-0.2-0.1-0.3-0.1M454.4 441l-10.8-6.2 10.8 6.2" fill="#ACC5EA" /><path d="M678.5 466.6c0.2-0.1 0.4-0.1 0.6-0.2 0.2 0 0.3-0.1 0.5-0.1s0.4-0.1 0.7-0.1H681.7c0.3 0 0.6 0.1 0.9 0.1 0.1 0 0.1 0 0.2 0.1 0.2 0.1 0.5 0.1 0.7 0.2 0.1 0 0.1 0 0.2 0.1 0.3 0.1 0.6 0.2 0.8 0.4l-14.8-8.6h-0.1l-0.6-0.3h-0.1c-0.1 0-0.1 0-0.2-0.1-0.1 0-0.2-0.1-0.3-0.1-0.1 0-0.2-0.1-0.4-0.1-0.1 0-0.1 0-0.2-0.1h-0.1c-0.2 0-0.5-0.1-0.8-0.1h-1.8c-0.1 0-0.2 0-0.3 0.1-0.2 0-0.3 0.1-0.5 0.1-0.1 0-0.2 0-0.3 0.1-0.1 0-0.2 0.1-0.3 0.1l-0.9 0.3c-0.1 0-0.2 0.1-0.3 0.1-0.1 0-0.1 0.1-0.2 0.1-0.5 0.2-1 0.5-1.6 0.8l-6.3 3.6 14.8 8.6 6.3-3.6c0.5-0.3 1.1-0.6 1.6-0.8 0.2-0.1 0.3-0.1 0.5-0.2 0.3-0.2 0.6-0.3 0.9-0.4z" fill="#C68620" /><path d="M657.3 463.9c0-4.6-1.2-8.2-3.3-10.5-0.7-0.8-1.5-1.4-2.4-1.9l-14.8-8.6c3.5 2 5.7 6.4 5.7 12.5v14.4l14.8 8.6v-14.5zM618.4 500.9l-14.8-8.6 38.9-22.5 14.8 8.6zM587.8 530.3c0-0.3 0.1-0.7 0.2-1 0-0.2 0.1-0.5 0.1-0.7 0-0.2 0.1-0.4 0.2-0.6 0.1-0.3 0.2-0.6 0.2-0.9 0.1-0.2 0.1-0.3 0.2-0.5 0.1-0.3 0.2-0.7 0.3-1 0-0.1 0.1-0.3 0.1-0.4 0.2-0.5 0.4-0.9 0.6-1.4 0 0 0-0.1 0.1-0.1l0.6-1.2c0.1-0.1 0.1-0.3 0.2-0.4 0.2-0.4 0.4-0.8 0.6-1.1 0-0.1 0.1-0.1 0.1-0.2 0.3-0.4 0.5-0.9 0.8-1.3 0.1-0.1 0.2-0.2 0.2-0.4l0.6-0.9c0.1-0.2 0.2-0.3 0.3-0.5 0.2-0.2 0.4-0.5 0.6-0.7 0.2-0.2 0.3-0.4 0.5-0.6 0.2-0.2 0.3-0.4 0.5-0.5 0.3-0.3 0.6-0.6 0.8-0.9l0.4-0.4c0.6-0.6 1.2-1.1 1.8-1.6 0.1-0.1 0.2-0.2 0.3-0.2 0.6-0.5 1.3-0.9 2-1.3l6.3-3.6-14.8-8.6-6.3 3.6c-0.7 0.4-1.3 0.8-2 1.3-0.1 0.1-0.2 0.2-0.3 0.2-0.6 0.5-1.2 1-1.8 1.6l-0.1 0.1-0.3 0.3c-0.3 0.3-0.6 0.6-0.8 0.9l-0.3 0.3c-0.1 0.1-0.1 0.2-0.2 0.3-0.2 0.2-0.3 0.4-0.5 0.6-0.1 0.1-0.2 0.3-0.3 0.4-0.1 0.1-0.2 0.2-0.2 0.3-0.1 0.2-0.2 0.3-0.3 0.5-0.1 0.1-0.2 0.2-0.2 0.3-0.1 0.2-0.3 0.4-0.4 0.6-0.1 0.1-0.2 0.2-0.2 0.4 0 0.1-0.1 0.1-0.1 0.2-0.2 0.3-0.4 0.7-0.6 1.1v0.1c0 0.1-0.1 0.1-0.1 0.2-0.1 0.3-0.3 0.5-0.4 0.8-0.1 0.1-0.1 0.2-0.2 0.4-0.1 0.1-0.1 0.3-0.2 0.4-0.1 0.1-0.1 0.2-0.2 0.3-0.1 0.3-0.3 0.6-0.4 0.9 0 0 0 0.1-0.1 0.1-0.2 0.4-0.3 0.7-0.5 1.1 0 0.1 0 0.1-0.1 0.2s-0.1 0.3-0.1 0.4c-0.1 0.2-0.1 0.4-0.2 0.6 0 0.1-0.1 0.3-0.1 0.4-0.1 0.2-0.1 0.3-0.2 0.5 0 0.1-0.1 0.2-0.1 0.3-0.1 0.2-0.1 0.4-0.1 0.6-0.1 0.2-0.1 0.4-0.2 0.6 0 0.1 0 0.1-0.1 0.2 0 0.2 0 0.3-0.1 0.5-0.1 0.3-0.1 0.7-0.2 1v0.6c-0.1 0.7-0.1 1.5-0.1 2.2l0.2 72.2c0 4 1.4 6.8 3.7 8.1l14.8 8.6c-2.3-1.3-3.7-4.1-3.7-8.1l-0.2-72.2c0-0.7 0.1-1.5 0.1-2.2-0.1-0.4-0.1-0.6-0.1-0.8z" fill="#C68620" /><path d="M675.5 467.9c7-4 12.6-0.8 12.6 7.2l0.2 72.2c0 8-5.6 17.7-12.5 21.7l-75.4 43.5c-6.9 4-12.6 0.8-12.6-7.2l-0.2-72.2c0-8 5.6-17.7 12.5-21.7l6.3-3.6v-14.4c-0.1-19.9 14-44.2 31.3-54.2s31.5-2 31.5 18v14.4l6.3-3.7z m-18.2 10.5V464c0-12.3-8.8-17.3-19.5-11.1-10.7 6.2-19.4 21.3-19.4 33.6v14.4l38.9-22.5" fill="#FFCD2E" /><path d="M606.6 488.7c0.1-0.7 0.2-1.5 0.3-2.3 0.1-0.8 0.3-1.7 0.4-2.5 0.1-0.6 0.2-1.1 0.3-1.7 0.1-0.5 0.3-1.1 0.4-1.6 0.2-0.7 0.4-1.5 0.6-2.2 0.1-0.4 0.3-0.9 0.4-1.3 0.3-0.8 0.5-1.7 0.8-2.5 0.1-0.3 0.2-0.7 0.4-1 0.4-1.2 0.9-2.3 1.4-3.5 0.1-0.1 0.1-0.3 0.2-0.4 0.5-1 0.9-2 1.4-3 0.2-0.3 0.3-0.6 0.5-0.9 0.5-1 1-1.9 1.5-2.8l0.3-0.6c0.6-1.1 1.3-2.2 2-3.2l0.6-0.9c0.5-0.8 1-1.5 1.6-2.2l0.9-1.2c0.5-0.6 0.9-1.2 1.4-1.8l1.2-1.5c0.4-0.5 0.8-0.9 1.2-1.4 0.7-0.8 1.4-1.5 2.1-2.2l1.3-1.3c0.3-0.3 0.7-0.7 1.1-1 0.6-0.5 1.2-1.1 1.8-1.6 0.4-0.3 0.7-0.6 1.1-0.9 0.6-0.5 1.3-1 2-1.5 0.3-0.2 0.6-0.5 1-0.7 1-0.7 2-1.3 3-1.9 1-0.6 1.9-1 2.9-1.5 0.2-0.1 0.5-0.2 0.7-0.3 0.9-0.4 1.8-0.8 2.7-1.1 0.1 0 0.1 0 0.2-0.1 0.8-0.3 1.5-0.5 2.3-0.6 0.4-0.1 0.9-0.2 1.3-0.3 0.6-0.1 1.1-0.2 1.7-0.3 0.3 0 0.6-0.1 0.9-0.1 0.7 0 1.4-0.1 2 0h0.5c0.8 0 1.6 0.1 2.3 0.3 0.2 0 0.4 0.1 0.6 0.1 0.6 0.1 1.2 0.3 1.7 0.5 0.2 0.1 0.4 0.1 0.5 0.2 0.7 0.3 1.4 0.6 2.1 1l-14.8-8.6c-0.1 0-0.1-0.1-0.2-0.1-0.5-0.3-1-0.5-1.6-0.8-0.1 0-0.2-0.1-0.3-0.1-0.2-0.1-0.4-0.1-0.5-0.2-0.3-0.1-0.5-0.2-0.8-0.3-0.3-0.1-0.6-0.1-0.9-0.2-0.2 0-0.4-0.1-0.6-0.1-0.1 0-0.2-0.1-0.3-0.1-0.6-0.1-1.3-0.2-1.9-0.2h-2.1c-0.2 0-0.3 0-0.5 0.1-0.3 0-0.6 0.1-0.9 0.1-0.3 0-0.6 0-0.9 0.1-0.3 0-0.5 0.1-0.8 0.2-0.4 0.1-0.9 0.2-1.3 0.3-0.2 0.1-0.5 0.1-0.7 0.1-0.5 0.1-1.1 0.3-1.6 0.5-0.1 0-0.1 0-0.2 0.1-0.6 0.2-1.3 0.5-1.9 0.7-0.3 0.1-0.5 0.2-0.8 0.4-0.2 0.1-0.5 0.2-0.7 0.3-0.9 0.4-1.9 0.9-2.9 1.5s-2 1.2-3 1.9c-0.3 0.2-0.6 0.5-1 0.7-0.7 0.5-1.3 1-2 1.5-0.4 0.3-0.7 0.6-1.1 0.9-0.6 0.5-1.2 1-1.8 1.6-0.4 0.3-0.7 0.7-1.1 1-0.2 0.2-0.4 0.4-0.7 0.6-0.2 0.2-0.4 0.5-0.7 0.7-0.7 0.7-1.4 1.5-2.1 2.2l-0.7 0.7c-0.2 0.2-0.4 0.4-0.5 0.6l-1.2 1.5c-0.3 0.3-0.5 0.6-0.8 1-0.2 0.3-0.4 0.6-0.6 0.8l-0.9 1.2c-0.2 0.3-0.4 0.5-0.6 0.8-0.3 0.5-0.6 1-1 1.4l-0.6 0.9c-0.1 0.1-0.2 0.2-0.3 0.4-0.6 0.9-1.1 1.8-1.6 2.7 0 0.1-0.1 0.1-0.1 0.2-0.1 0.2-0.2 0.4-0.3 0.5-0.4 0.6-0.7 1.3-1.1 1.9-0.2 0.3-0.3 0.6-0.5 0.9-0.2 0.3-0.3 0.6-0.5 0.9-0.1 0.3-0.3 0.5-0.4 0.8-0.4 0.7-0.7 1.5-1 2.2-0.1 0.1-0.1 0.3-0.2 0.4 0 0 0 0.1-0.1 0.1-0.4 0.9-0.8 1.9-1.2 2.8-0.1 0.2-0.1 0.3-0.2 0.5-0.1 0.3-0.2 0.7-0.4 1-0.2 0.5-0.4 0.9-0.5 1.4-0.1 0.4-0.2 0.7-0.3 1.1-0.1 0.4-0.3 0.9-0.4 1.3-0.1 0.3-0.2 0.5-0.2 0.8-0.1 0.5-0.2 1-0.4 1.4-0.1 0.5-0.3 1.1-0.4 1.6 0 0.2-0.1 0.4-0.1 0.6-0.1 0.4-0.1 0.8-0.2 1.2-0.2 0.8-0.3 1.7-0.4 2.5 0 0.2-0.1 0.5-0.1 0.7-0.1 0.5-0.1 1-0.2 1.6 0 0.4-0.1 0.7-0.1 1.1-0.1 1.2-0.1 2.3-0.1 3.5v14.4l14.8 8.6v-14.4c0-1.1 0.1-2.3 0.1-3.5 0.4-0.3 0.4-0.7 0.4-1.1zM635.2 518.2c5.5-3.2 9.9-0.6 9.9 5.7 0 4.8-2.5 10.3-6.2 14.1v9.8c0 2.4-1.7 5.2-3.7 6.4-2 1.2-3.7 0.2-3.7-2.1v-9.8c-3.6 0.4-6.2-2.2-6.2-7 0.1-6.3 4.5-14 9.9-17.1z" fill="#C68620" /><path d="M644.1 561.2v-9.8l-10.8-6.3v9.8c0 1.2 0.4 2 1.1 2.4l10.8 6.3c-0.7-0.4-1.1-1.2-1.1-2.4z" fill="#E8CFAC" /><path d="M650.1 526.3c0.1 0 0.3-0.1 0.4-0.1 0.1 0 0.3-0.1 0.4-0.1 0.2 0 0.4-0.1 0.5-0.1H652.4c0.3 0 0.5 0 0.7 0.1h0.2c0.2 0 0.4 0.1 0.5 0.2 0.1 0 0.1 0 0.2 0.1l0.6 0.3-10.8-6.3h-0.1c-0.2-0.1-0.3-0.2-0.5-0.2h-0.1c-0.1 0-0.1 0-0.2-0.1-0.1 0-0.2-0.1-0.3-0.1-0.1 0-0.2 0-0.3-0.1h-0.2-0.1c-0.2 0-0.4-0.1-0.6-0.1h-1.5c-0.1 0-0.2 0-0.2 0.1-0.1 0-0.3 0.1-0.4 0.1h-0.2c-0.1 0-0.1 0.1-0.2 0.1-0.2 0.1-0.5 0.1-0.7 0.2-0.1 0-0.2 0.1-0.2 0.1l-0.1 0.1-1.2 0.6c-0.6 0.4-1.3 0.8-1.9 1.3-0.2 0.2-0.4 0.3-0.6 0.5-0.3 0.3-0.6 0.5-0.9 0.8l-0.4 0.4c-0.1 0.1-0.2 0.2-0.3 0.4l-0.4 0.4c-0.3 0.3-0.5 0.6-0.8 1-0.1 0.1-0.2 0.2-0.3 0.4 0 0.1-0.1 0.1-0.1 0.2l-0.3 0.3-0.6 0.9c-0.2 0.3-0.3 0.6-0.5 0.8v0.2c-0.1 0.2-0.3 0.5-0.4 0.7-0.1 0.3-0.3 0.6-0.4 0.8-0.1 0.3-0.2 0.5-0.4 0.8-0.1 0.3-0.2 0.6-0.4 0.9l-0.3 0.9c-0.1 0.2-0.1 0.3-0.1 0.5 0 0.1 0 0.1-0.1 0.2 0 0.1-0.1 0.2-0.1 0.3-0.1 0.4-0.2 0.8-0.3 1.1 0 0.2-0.1 0.5-0.1 0.7 0 0.1 0 0.2-0.1 0.4 0 0.1 0 0.2-0.1 0.3-0.1 0.7-0.1 1.3-0.1 1.9 0 3.1 1.1 5.3 2.9 6.4l10.8 6.3c-1.8-1-2.9-3.2-2.9-6.4 0-0.7 0.1-1.5 0.2-2.3 0-0.1 0-0.2 0.1-0.4 0.1-0.7 0.3-1.4 0.5-2.2 0-0.1 0-0.1 0.1-0.2 0.2-0.8 0.5-1.6 0.9-2.3 0.3-0.8 0.7-1.6 1.2-2.3v-0.1c0.4-0.7 0.9-1.4 1.4-2.1 0-0.1 0.1-0.1 0.1-0.2 0.5-0.6 0.9-1.2 1.4-1.7 0.1-0.1 0.2-0.2 0.3-0.4l1.2-1.2c0.2-0.2 0.4-0.3 0.6-0.5 0.6-0.5 1.2-0.9 1.9-1.3l1.2-0.6c0.1-0.1 0.3-0.1 0.4-0.2 0.6 0 0.8-0.1 1.1-0.2z" fill="#E8CFAC" /><path d="M647.7 527.3c5.5-3.2 9.9-0.6 9.9 5.7 0 4.8-2.5 10.3-6.2 14.1v9.8c0 2.4-1.7 5.2-3.7 6.4-2 1.2-3.7 0.2-3.7-2.1v-9.8c-3.6 0.4-6.2-2.2-6.2-7 0-6.3 4.5-13.9 9.9-17.1z" fill="#FFFFFF" /></svg>