<?xml version="1.0" encoding="utf-8"?>
<!-- Uploaded to: SVG Repo, www.svgrepo.com, Generator: SVG Repo Mixer Tools -->
<svg width="800px" height="800px" viewBox="0 0 1024 1024" class="icon"  version="1.1" xmlns="http://www.w3.org/2000/svg"><path d="M905.5 570.7c-1.1 11-11.2 16.5-19.8 21.5-8 4.6-16 9.3-23.9 13.9-12.8 7.4-25.5 14.8-38.3 22.2-16 9.3-31.9 18.6-47.9 27.8-17.6 10.2-35.2 20.5-52.9 30.7-17.7 10.3-35.4 20.6-53.2 30.9-16.3 9.5-32.5 18.9-48.8 28.4-13.3 7.7-26.5 15.4-39.8 23.1-8.7 5-17.4 10.1-26.1 15.1-6.6 3.8-12.8 7.6-20.3 9.8-19.5 5.6-41.1 3.7-58.7-6.5-6.3-3.7-12.7-7.3-19-11-11.6-6.7-23.1-13.3-34.7-20-15.2-8.8-30.4-17.6-45.6-26.3-17.3-10-34.7-20-52-30-17.9-10.3-35.8-20.7-53.7-31-16.9-9.8-33.8-19.5-50.8-29.3l-43.2-24.9c-10.3-6-20.7-11.9-31-17.9-4.7-2.7-9.4-5.4-14.1-8.2-7.4-4.3-14.7-11.1-14.7-20.3 0 8.4 0 16.8-0.1 25.3 0 3-0.2 6.1 0 9.2 0.6 8.1 7 14.4 13.7 18.4 4.1 2.5 8.3 4.8 12.5 7.2 10.8 6.2 21.6 12.5 32.4 18.7 15.6 9 31.1 18 46.7 27 18.5 10.7 37.1 21.4 55.6 32.1 19.3 11.2 38.6 22.3 58 33.5 18.4 10.6 36.7 21.2 55.1 31.8 15.3 8.8 30.5 17.6 45.8 26.4 10.3 6 20.7 11.9 31 17.9 6 3.4 11.9 7.3 18.4 9.7 20.3 7.4 44.1 5.8 62.8-5.1 7.1-4.1 14.2-8.3 21.3-12.4 13.1-7.6 26.2-15.2 39.2-22.8 17.1-9.9 34.1-19.8 51.2-29.8 19.1-11.1 38.2-22.2 57.2-33.3l57.3-33.3c17.1-10 34.2-19.9 51.4-29.9 13.3-7.7 26.6-15.4 39.9-23.2 7.3-4.3 14.7-8.5 22-12.8 2.2-1.3 4.5-2.6 6.6-4.1 5.6-4.2 10-10 10.1-17.3 0.1-3.7 0-7.3 0-11 0-7.3 0-14.7 0.1-22 0.4 0.8 0.3 1.3 0.3 1.8 0 0.3 0-0.2 0 0zM905.6 569.2z" fill="#7A9EFD" /><path d="M891.3 549.2c19 11 19.1 28.9 0.2 39.9L547.1 789.2c-18.9 11-49.8 11-68.8 0L131.6 589.1c-19-11-19.1-28.9-0.2-39.9L475.8 349c18.9-11 49.8-11 68.8 0l346.7 200.2z" fill="#E4ECF9" /><path d="M451.9 662.4l-24.6-29.6-13.5-7.8 24.6 29.6c0.4 0.4 0.8 0.9 1.2 1.2 0.4 0.4 0.9 0.7 1.3 0.9l13.5 7.8c-0.9-0.5-1.8-1.2-2.5-2.1zM305 514.1l0.3-6.9c0-0.4 0.1-0.8 0.1-1.2 0.1-2.1 0.3-4.3 0.5-6.5 0-0.3 0.1-0.7 0.1-1 0.2-2.3 0.5-4.7 0.8-7 0.1-0.6 0.2-1.3 0.3-1.9 0.1-1 0.3-2.1 0.4-3.1 0.1-0.7 0.2-1.5 0.3-2.2 0.2-1.1 0.3-2.1 0.5-3.2 0.1-0.7 0.2-1.4 0.4-2.2 0.2-1.1 0.4-2.3 0.6-3.4 0.1-0.7 0.2-1.3 0.4-2 0.3-1.3 0.5-2.6 0.8-4 0.1-0.5 0.2-0.9 0.3-1.4 0.6-2.8 1.3-5.7 1.9-8.5 0.1-0.4 0.2-0.7 0.3-1.1 0.7-2.7 1.4-5.5 2.1-8.2 0.1-0.5 0.3-0.9 0.4-1.4l2.1-7.2c0.1-0.4 0.3-0.8 0.4-1.3 0.7-2.3 1.4-4.5 2.2-6.8l0.3-0.9c0.7-2.2 1.5-4.5 2.3-6.7 0.2-0.5 0.4-1.1 0.6-1.6 0.7-2 1.5-4.1 2.3-6.1 0.1-0.3 0.2-0.5 0.3-0.8 0.8-2.2 1.7-4.3 2.6-6.4 0.2-0.5 0.4-1.1 0.7-1.6 0.7-1.8 1.5-3.6 2.3-5.4 0.2-0.4 0.4-0.9 0.6-1.3 0.9-2.1 1.8-4.2 2.8-6.2 0.2-0.5 0.4-1 0.7-1.4 0.8-1.7 1.6-3.4 2.4-5 0.3-0.5 0.5-1.1 0.8-1.6 1-2.1 2-4.1 3-6.1 0.1-0.2 0.2-0.4 0.3-0.7 0.9-1.8 1.9-3.7 2.9-5.5 0.3-0.6 0.6-1.1 0.9-1.7 1-1.8 1.9-3.5 2.9-5.3 0.2-0.3 0.3-0.6 0.5-0.9 1.1-2 2.3-4 3.4-6l0.9-1.5 3-5.1c0.3-0.4 0.5-0.8 0.8-1.2 1.2-2 2.5-4 3.7-6 0.3-0.4 0.6-0.9 0.8-1.3 1.2-1.8 2.4-3.6 3.6-5.5 0.2-0.4 0.5-0.7 0.7-1.1 1.4-2 2.8-4.1 4.2-6.1 0.3-0.4 0.6-0.9 0.9-1.3l4.8-6.6 0.1-0.1c1.6-2.2 3.2-4.3 4.9-6.4 0.3-0.4 0.6-0.7 0.9-1.1 1.9-2.4 3.8-4.8 5.7-7.1 0.3-0.3 0.6-0.7 0.9-1 1.9-2.3 3.9-4.6 5.8-6.9 0.4-0.4 0.8-0.9 1.2-1.3 0.9-1 1.8-2 2.7-3.1 0.4-0.5 0.9-1 1.3-1.5 1.2-1.4 2.5-2.7 3.7-4 0.1-0.1 0.2-0.3 0.4-0.4 1.4-1.4 2.7-2.9 4.1-4.3 0.4-0.4 0.8-0.9 1.3-1.3 1-1 2-2 2.9-3l1.2-1.2c1.9-1.8 3.8-3.7 5.7-5.4 0.2-0.2 0.4-0.3 0.6-0.5 1.8-1.7 3.7-3.4 5.6-5 0.3-0.2 0.5-0.5 0.8-0.7 1.9-1.7 3.9-3.3 5.8-4.9 0.4-0.3 0.8-0.6 1.2-1 1.9-1.6 3.9-3.2 5.9-4.7 0.3-0.2 0.6-0.5 0.9-0.7 1.9-1.5 3.9-3 5.8-4.4 0.2-0.1 0.4-0.3 0.5-0.4 2-1.5 4.1-2.9 6.1-4.3 0.4-0.3 0.8-0.5 1.2-0.8 2-1.4 4-2.7 6.1-4 0.4-0.2 0.7-0.5 1.1-0.7 2.1-1.3 4.3-2.6 6.4-3.9 1.7-1 3.4-1.9 5.2-2.9 0.5-0.3 1-0.5 1.5-0.8 1.3-0.7 2.6-1.4 3.9-2 0.4-0.2 0.9-0.5 1.3-0.7 1.7-0.8 3.4-1.6 5-2.4 0.3-0.1 0.6-0.2 0.8-0.4 1.4-0.6 2.8-1.3 4.2-1.8 0.5-0.2 1.1-0.4 1.6-0.7 1-0.4 2-0.8 2.9-1.2 0.5-0.2 1.1-0.4 1.6-0.6 1.1-0.4 2.2-0.8 3.2-1.2 0.4-0.1 0.8-0.3 1.2-0.4 1.5-0.5 2.9-1 4.4-1.4 0.3-0.1 0.5-0.2 0.8-0.2 1.2-0.4 2.4-0.7 3.6-1l2.1-0.6c0.5-0.1 1.1-0.3 1.6-0.4 0.8-0.2 1.5-0.4 2.3-0.5 0.5-0.1 1-0.2 1.4-0.3 0.9-0.2 1.7-0.3 2.5-0.5 0.4-0.1 0.8-0.2 1.1-0.2l3.6-0.6c1.8-0.3 3.7-0.5 5.5-0.7 0.4 0 0.7-0.1 1.1-0.1 1.7-0.2 3.5-0.3 5.2-0.4h1c1.4-0.1 2.8-0.1 4.1-0.1h0.9c1.6 0 3.1 0.1 4.6 0.2 0.4 0 0.7 0 1.1 0.1l3.6 0.3c0.3 0 0.6 0.1 1 0.1 1.4 0.2 2.9 0.4 4.3 0.6 0.3 0.1 0.6 0.1 0.9 0.2 1.1 0.2 2.2 0.4 3.3 0.7 0.4 0.1 0.7 0.2 1.1 0.2 1.3 0.3 2.7 0.7 4 1 0.1 0 0.2 0.1 0.3 0.1 1.2 0.4 2.4 0.7 3.6 1.1 0.4 0.1 0.7 0.3 1.1 0.4 1 0.4 2.1 0.8 3.1 1.2 0.2 0.1 0.5 0.2 0.7 0.3 1.2 0.5 2.5 1.1 3.7 1.7 0.3 0.1 0.6 0.3 0.9 0.4 1 0.5 1.9 1 2.8 1.5 0.5 0.3 1 0.5 1.5 0.8l-13.5-7.8c-0.3-0.2-0.6-0.3-0.9-0.5l-0.6-0.3c-0.9-0.5-1.9-1-2.8-1.5-0.3-0.1-0.6-0.3-0.9-0.4-1.2-0.6-2.4-1.1-3.7-1.7-0.1 0-0.1-0.1-0.2-0.1-0.2-0.1-0.4-0.1-0.5-0.2-1-0.4-2.1-0.8-3.1-1.2-0.4-0.1-0.7-0.3-1.1-0.4-1.2-0.4-2.4-0.8-3.6-1.1-0.1 0-0.2-0.1-0.3-0.1h-0.1c-1.3-0.4-2.6-0.7-4-1-0.4-0.1-0.7-0.2-1.1-0.2-1.1-0.2-2.2-0.5-3.3-0.7-0.2 0-0.4-0.1-0.7-0.1h-0.3c-1.4-0.2-2.8-0.4-4.3-0.6-0.3 0-0.6-0.1-1-0.1l-3.6-0.3c-0.2 0-0.5 0-0.7-0.1h-0.4c-1.5-0.1-3.1-0.1-4.6-0.2h-0.9c-1.4 0-2.7 0-4.1 0.1h-1c-1.7 0.1-3.4 0.2-5.2 0.4-0.4 0-0.7 0.1-1.1 0.1-1.8 0.2-3.6 0.4-5.5 0.7l-3.6 0.6c-0.4 0.1-0.7 0.1-1.1 0.2-0.9 0.2-1.7 0.3-2.6 0.5-0.5 0.1-1 0.2-1.4 0.3-0.8 0.2-1.5 0.3-2.3 0.5-0.5 0.1-1.1 0.3-1.6 0.4-0.6 0.1-1.1 0.3-1.7 0.4-0.1 0-0.3 0.1-0.4 0.1-1.2 0.3-2.4 0.7-3.5 1-0.3 0.1-0.5 0.2-0.8 0.2-1.5 0.5-2.9 0.9-4.4 1.4-0.4 0.1-0.8 0.3-1.2 0.4-1.1 0.4-2.1 0.8-3.2 1.2-0.5 0.2-1.1 0.4-1.6 0.6-1 0.4-1.9 0.8-2.9 1.2-0.3 0.1-0.6 0.2-0.9 0.4-0.2 0.1-0.5 0.2-0.7 0.3l-4.2 1.8c-0.3 0.1-0.6 0.2-0.8 0.4-1.7 0.8-3.3 1.6-5 2.4-0.4 0.2-0.9 0.5-1.3 0.7-1.3 0.7-2.6 1.3-3.9 2-0.5 0.3-1 0.5-1.5 0.8-1.7 0.9-3.4 1.9-5.2 2.9-2.2 1.2-4.3 2.5-6.4 3.9-0.4 0.2-0.7 0.4-1.1 0.7-2 1.3-4.1 2.6-6.1 4-0.4 0.3-0.8 0.5-1.2 0.8-2.1 1.4-4.1 2.8-6.1 4.3-0.2 0.1-0.4 0.3-0.5 0.4-2 1.4-3.9 2.9-5.9 4.4-0.3 0.2-0.6 0.4-0.9 0.7-2 1.5-3.9 3.1-5.9 4.7-0.4 0.3-0.8 0.6-1.2 1-1.9 1.6-3.9 3.3-5.8 4.9-0.3 0.2-0.5 0.5-0.8 0.7-1.9 1.6-3.7 3.3-5.6 5-0.2 0.2-0.4 0.4-0.6 0.5l-5.7 5.4-0.6 0.6-0.7 0.7c-1 1-2 1.9-2.9 2.9l-1.3 1.3c-1.4 1.4-2.7 2.8-4.1 4.3l-0.4 0.4c-1.2 1.3-2.5 2.6-3.7 4-0.4 0.5-0.9 1-1.3 1.5-0.9 1-1.8 2-2.7 3.1-0.2 0.3-0.5 0.5-0.7 0.8-0.2 0.2-0.3 0.4-0.5 0.6-2 2.3-3.9 4.6-5.8 6.9-0.3 0.3-0.6 0.7-0.9 1-1.9 2.4-3.8 4.7-5.7 7.1-0.1 0.1-0.2 0.3-0.3 0.4-0.2 0.2-0.4 0.5-0.5 0.7-1.6 2.1-3.3 4.3-4.9 6.4l-0.1 0.1-4.8 6.6c-0.2 0.2-0.4 0.5-0.5 0.7-0.1 0.2-0.2 0.4-0.4 0.5-1.4 2-2.8 4-4.2 6.1-0.2 0.4-0.5 0.7-0.7 1.1-1.2 1.8-2.4 3.6-3.6 5.5-0.2 0.3-0.4 0.6-0.5 0.8-0.1 0.2-0.2 0.3-0.3 0.5-1.3 2-2.5 4-3.7 6-0.3 0.4-0.5 0.8-0.7 1.2-1 1.7-2 3.4-3.1 5.1l-0.6 0.9-0.3 0.6c-1.2 2-2.3 4-3.4 6-0.2 0.3-0.3 0.6-0.5 0.9-1 1.8-1.9 3.5-2.9 5.3-0.2 0.3-0.3 0.6-0.5 0.9-0.1 0.3-0.3 0.6-0.4 0.8-1 1.8-1.9 3.7-2.9 5.5l-0.3 0.6c-1 2-2 4.1-3 6.2-0.1 0.2-0.2 0.4-0.3 0.7-0.2 0.3-0.3 0.7-0.5 1-0.8 1.7-1.6 3.3-2.4 5-0.2 0.5-0.4 1-0.7 1.4-0.9 2.1-1.9 4.2-2.8 6.2-0.1 0.1-0.1 0.3-0.2 0.4-0.1 0.3-0.3 0.6-0.4 0.9-0.8 1.8-1.5 3.6-2.3 5.4-0.2 0.5-0.5 1.1-0.7 1.6-0.9 2.1-1.7 4.3-2.6 6.4 0 0.1-0.1 0.1-0.1 0.2-0.1 0.2-0.2 0.4-0.2 0.6-0.8 2-1.5 4.1-2.3 6.1-0.2 0.5-0.4 1.1-0.6 1.6-0.8 2.2-1.6 4.5-2.3 6.7 0 0.1-0.1 0.2-0.1 0.3-0.1 0.2-0.1 0.4-0.2 0.6-0.7 2.3-1.5 4.5-2.2 6.8-0.1 0.4-0.3 0.8-0.4 1.3l-2.1 7.2c-0.1 0.2-0.1 0.4-0.2 0.7-0.1 0.2-0.1 0.5-0.2 0.7-0.8 2.7-1.5 5.5-2.1 8.2-0.1 0.4-0.2 0.7-0.3 1.1-0.7 2.8-1.3 5.7-1.9 8.5v0.1l-0.3 1.2c-0.3 1.3-0.5 2.6-0.8 4-0.1 0.7-0.2 1.3-0.4 2-0.2 1.1-0.4 2.3-0.6 3.4-0.1 0.7-0.2 1.4-0.4 2.2-0.2 1.1-0.4 2.1-0.5 3.2-0.1 0.7-0.2 1.5-0.3 2.2-0.2 1-0.3 2.1-0.4 3.1-0.1 0.4-0.1 0.8-0.2 1.2 0 0.2-0.1 0.5-0.1 0.7-0.3 2.3-0.6 4.7-0.8 7 0 0.3-0.1 0.7-0.1 1-0.2 2.2-0.4 4.3-0.5 6.5 0 0.4-0.1 0.8-0.1 1.2-0.1 2.3-0.3 4.6-0.3 6.9v1.5c-0.1 2.3-0.1 4.7-0.1 7 0.1 24 4.1 44.6 11.3 61.5 1 2.3 2 4.4 3.1 6.6 2.7 5.3 5.7 10.2 9.1 14.6 2 2.7 4.2 5.2 6.4 7.5 0.7 0.8 1.5 1.5 2.3 2.3 4.6 4.5 9.7 8.3 15.2 11.5l13.5 7.8c-29.1-16.9-47.2-52.9-47.3-104 0-2.3 0-4.7 0.1-7 0.2-0.5 0.2-1 0.2-1.5z" fill="#2A2ABC" /><path d="M466.5 242.6c89.6-51.7 162.4-10.2 162.7 92.7 0.2 86.9-51.3 189.8-121.3 250.9l-24.4 58c-3.7 8.7-9.7 15.5-15.8 19-6 3.5-12.1 3.7-15.8-0.8l-24.6-29.6c-70.1 19.8-122.1-23.3-122.4-110.2-0.3-102.9 72.1-228.3 161.6-280z" fill="#4040FF" /><path d="M455.7 483.9c4.4-2.5 8.1-2.9 11.1-1.2s4.5 5.1 4.5 10.1c0 5.6-1.5 10.9-4.7 15.9-3.1 5-6.7 8.7-10.8 11.1-4.3 2.5-8 3-11.1 1.7-3.2-1.3-4.8-4.8-4.8-10.5 0-5 1.5-10.2 4.5-15.3 3.1-5.4 6.9-9.3 11.3-11.8zM502.5 334.9c4.2 4.9 6.4 11.7 6.4 20.3 0 6.8-1.2 13.4-3.5 19.9-2.4 6.5-5.2 12.6-8.5 18.2s-9.2 15.3-17.7 29c-2.4 3.8-4.3 7.1-5.7 9.8-1.4 2.7-2.5 5-3.2 7-0.7 2-1.2 3.8-1.6 5.6-0.4 1.8-0.9 4.9-1.7 9.2-1.3 9.1-5.4 15.6-12.4 19.6-3.6 2.1-6.7 2.5-9.1 1.2-2.5-1.3-3.7-4.6-3.7-10 0-6.7 0.9-13.1 2.7-19 1.8-6 4.2-11.7 7.2-17.1 3-5.4 7-12.2 12.1-20.2 4.4-7.1 7.6-12.3 9.6-15.7 2-3.4 3.6-6.9 5-10.5 1.3-3.6 2-7 2-10.3 0-6.4-2.1-10.6-6.3-12.6-4.2-2-9.5-1.1-16 2.7-7.7 4.4-13.3 9.9-16.9 16.4-3.6 6.5-6.7 14.8-9.1 24.9-2.3 10.4-6.8 17.5-13.4 21.3-3.9 2.3-7.2 2.6-9.9 1s-4-4.3-4.1-7.9c0-7.6 2.1-16.5 6.3-26.8 4.2-10.2 10.4-20.3 18.5-30.1s17.6-17.9 28.5-24.1c10.1-5.8 19-8.8 26.7-9 7.6-0.1 13.6 2.3 17.8 7.2z" fill="#2828CE" /><path d="M470 502.1c0.1-0.2 0.3-0.3 0.4-0.5 0.6-0.6 1.3-1.2 2-1.8 0.3-0.3 0.6-0.6 0.9-0.8 1-0.8 2-1.5 3.1-2.1 0.8-0.4 1.5-0.8 2.2-1.1 0.2-0.1 0.4-0.2 0.5-0.2 0.4-0.2 0.8-0.3 1.2-0.4 0.2-0.1 0.4-0.1 0.6-0.2 0.2 0 0.4-0.1 0.6-0.1 0.3-0.1 0.6-0.1 0.8-0.1h1.6c0.4 0 0.8 0.1 1.1 0.1h0.2l0.9 0.3c0.1 0 0.2 0.1 0.3 0.1 0.4 0.1 0.7 0.3 1.1 0.5l-12.6-7.3c-0.3-0.2-0.6-0.3-0.9-0.4-0.1 0-0.1 0-0.2-0.1-0.1 0-0.2-0.1-0.3-0.1-0.1 0-0.3-0.1-0.4-0.1-0.2 0-0.3-0.1-0.5-0.1h-0.2-0.1c-0.3-0.1-0.6-0.1-0.9-0.1h-2c-0.2 0-0.4 0.1-0.6 0.1-0.2 0-0.4 0.1-0.6 0.1h-0.2c-0.1 0-0.3 0.1-0.4 0.1-0.4 0.1-0.8 0.2-1.2 0.4-0.1 0-0.2 0.1-0.3 0.1-0.1 0-0.2 0.1-0.3 0.1-0.7 0.3-1.4 0.7-2.2 1.1-1.1 0.6-2.1 1.3-3.1 2.1-0.3 0.3-0.6 0.6-0.9 0.8-0.5 0.5-1.1 0.9-1.6 1.4-0.1 0.1-0.2 0.2-0.3 0.4-0.1 0.1-0.3 0.3-0.4 0.5l-0.9 0.9-1.2 1.5c-0.1 0.1-0.2 0.3-0.3 0.4-0.1 0.1-0.1 0.2-0.2 0.3-0.2 0.2-0.4 0.5-0.6 0.7-0.3 0.5-0.6 0.9-0.9 1.4-0.3 0.4-0.6 0.9-0.8 1.4 0 0 0 0.1-0.1 0.1-0.3 0.5-0.5 0.9-0.8 1.4-0.1 0.1-0.1 0.2-0.1 0.3-0.1 0.1-0.1 0.3-0.2 0.4l-0.3 0.6c-0.1 0.3-0.3 0.6-0.4 0.8 0 0.1-0.1 0.2-0.1 0.3 0 0 0 0.1-0.1 0.1-0.2 0.4-0.4 0.9-0.5 1.3 0 0.1-0.1 0.2-0.1 0.3-0.1 0.1-0.1 0.3-0.2 0.4-0.1 0.2-0.2 0.4-0.2 0.7-0.1 0.2-0.1 0.4-0.2 0.6-0.1 0.2-0.1 0.3-0.2 0.5 0 0.1-0.1 0.2-0.1 0.3-0.1 0.3-0.2 0.6-0.2 1 0 0.2-0.1 0.4-0.1 0.6v0.1c0 0.2-0.1 0.4-0.1 0.5-0.1 0.5-0.2 0.9-0.2 1.4v0.5c-0.1 1-0.2 2-0.2 3 0 5.2 1.4 8.6 4 10.2l12.6 7.3c-2.7-1.6-4-4.9-4-10.2 0-1 0.1-2 0.2-3 0-0.2 0-0.3 0.1-0.5 0.1-0.5 0.1-0.9 0.2-1.4 0-0.2 0.1-0.4 0.1-0.7 0-0.2 0.1-0.4 0.1-0.6 0.1-0.4 0.2-0.8 0.3-1.3 0.1-0.2 0.1-0.3 0.2-0.5 0.1-0.4 0.3-0.9 0.4-1.3 0.1-0.1 0.1-0.3 0.2-0.4 0.2-0.6 0.4-1.1 0.7-1.7 0-0.1 0.1-0.2 0.1-0.3 0.2-0.5 0.4-1 0.7-1.5 0.1-0.1 0.1-0.3 0.2-0.4 0.3-0.6 0.6-1.2 1-1.8 0.7-1.2 1.5-2.4 2.3-3.5 0.1-0.1 0.1-0.2 0.2-0.3 0.8-0.8 1.6-1.8 2.4-2.6z" fill="#ACC5EA" /><path d="M465.9 487.8l-12.6-7.3c-2.4-1.4-3.5-4.6-3.6-9.9 0-3.1 0.2-6.2 0.6-9.1l12.6 7.3c-0.4 3-0.6 6-0.6 9.1 0.1 5.2 1.3 8.5 3.6 9.9" fill="#ACC5EA" /><path d="M462.9 468.8l-12.6-7.3c0.2-1.7 0.5-3.4 0.9-5.1l12.6 7.3c-0.4 1.7-0.7 3.4-0.9 5.1M463.8 463.7l-12.6-7.3 0.9-3.6 12.6 7.3c-0.4 1.2-0.6 2.4-0.9 3.6" fill="#ACC5EA" /><path d="M464.7 460.1l-12.6-7.3 0.3-1.2c0.3-0.8 0.5-1.7 0.8-2.5l12.6 7.3c-0.3 0.8-0.5 1.7-0.8 2.5l-0.3 1.2M465.8 456.4l-12.6-7.3c0.4-1.3 0.9-2.6 1.4-3.8l12.6 7.3c-0.5 1.3-1 2.5-1.4 3.8" fill="#ACC5EA" /><path d="M467.2 452.6l-12.6-7.3c0.4-1.2 0.9-2.3 1.4-3.4l12.6 7.3c-0.5 1.1-1 2.2-1.4 3.4M468.6 449.2l-12.6-7.3c0.5-1.1 1-2.2 1.5-3.2l12.6 7.3c-0.5 1-1 2.1-1.5 3.2M470.1 445.9l-12.6-7.3c0.5-1.1 1-2.1 1.6-3.1l12.6 7.3c-0.6 1-1.1 2.1-1.6 3.1" fill="#ACC5EA" /><path d="M471.7 442.8l-12.6-7.3c0.2-0.3 0.4-0.7 0.5-1 1-1.9 2.2-3.9 3.5-6.1l12.6 7.3c-1.3 2.2-2.4 4.3-3.5 6.1-0.2 0.3-0.4 0.7-0.5 1" fill="#ACC5EA" /><path d="M475.7 435.7l-12.6-7.3c2.4-4.1 5.3-8.8 8.6-14.1 4.2-6.6 7.3-11.6 9.3-15.1l12.6 7.3c-2 3.4-5.1 8.4-9.3 15.1-3.4 5.2-6.2 9.9-8.6 14.1" fill="#ACC5EA" /><path d="M493.5 406.5l-12.6-7.3c0.1-0.2 0.3-0.4 0.4-0.6 0.4-0.8 0.9-1.5 1.3-2.3l12.6 7.3c-0.4 0.8-0.8 1.5-1.3 2.3-0.2 0.2-0.3 0.4-0.4 0.6" fill="#ACC5EA" /><path d="M495.1 403.6l-12.6-7.3c0.4-0.8 0.9-1.7 1.3-2.5l12.6 7.3c-0.4 0.8-0.8 1.6-1.3 2.5M496.4 401l-12.6-7.3c0.4-0.8 0.8-1.7 1.2-2.5l12.6 7.3c-0.4 0.9-0.8 1.7-1.2 2.5M497.6 398.5l-12.6-7.3c0.4-0.9 0.7-1.8 1.1-2.6l12.6 7.3c-0.4 0.9-0.7 1.7-1.1 2.6" fill="#ACC5EA" /><path d="M498.7 395.9l-12.6-7.3c0.1-0.2 0.1-0.3 0.2-0.5 0.2-0.4 0.3-0.9 0.5-1.3l12.6 7.3c-0.1 0.4-0.3 0.9-0.5 1.3-0.1 0.1-0.2 0.3-0.2 0.5M499.3 394l-12.6-7.3c0.2-0.5 0.3-1.1 0.5-1.6l12.6 7.3c-0.1 0.6-0.3 1.1-0.5 1.6" fill="#ACC5EA" /><path d="M499.8 392.4l-12.6-7.3c0.2-0.6 0.3-1.2 0.4-1.8l12.6 7.3c-0.1 0.6-0.2 1.2-0.4 1.8M500.3 390.6l-12.6-7.3c0.2-0.8 0.3-1.5 0.4-2.3l12.6 7.3c-0.1 0.8-0.3 1.5-0.4 2.3" fill="#ACC5EA" /><path d="M500.7 388.4l-12.6-7.3c0.1-1.1 0.2-2.2 0.2-3.3 0-6-1.9-10.1-5.5-12.2l12.6 7.3c3.7 2.1 5.5 6.2 5.5 12.2 0 1.1-0.1 2.1-0.2 3.3" fill="#ACC5EA" /><path d="M429.4 438.8l-12.6-7.3s-0.1 0-0.1-0.1c-2.7-1.6-4-4.3-4.1-7.9 0-2 0.1-4 0.4-6.1l12.6 7.3c-0.3 2.1-0.4 4.2-0.4 6.1 0 3.7 1.4 6.3 4.2 8-0.1 0-0.1 0 0 0M425.6 424.7l-12.6-7.3c0.2-1.6 0.5-3.2 0.8-4.8l12.6 7.3c-0.3 1.6-0.6 3.2-0.8 4.8M426.5 419.8l-12.6-7.3c0.3-1.4 0.7-2.9 1.1-4.3l12.6 7.3c-0.5 1.5-0.8 2.9-1.1 4.3" fill="#ACC5EA" /><path d="M427.5 415.5l-12.6-7.3c0.4-1.4 0.8-2.8 1.3-4.3l12.6 7.3c-0.4 1.4-0.9 2.9-1.3 4.3M428.9 411.2l-12.6-7.3c0.5-1.5 1-3 1.6-4.5l12.6 7.3c-0.6 1.5-1.1 3-1.6 4.5" fill="#ACC5EA" /><path d="M430.5 406.7l-12.6-7.3c0.3-0.9 0.7-1.7 1-2.6 0.2-0.6 0.5-1.1 0.7-1.7l12.6 7.3c-0.2 0.6-0.5 1.1-0.7 1.7-0.3 0.8-0.7 1.7-1 2.6" fill="#ACC5EA" /><path d="M432.2 402.4l-12.6-7.3c0.5-1.2 1.1-2.5 1.7-3.7l12.6 7.3c-0.6 1.2-1.1 2.4-1.7 3.7" fill="#ACC5EA" /><path d="M433.9 398.7l-12.6-7.3c0.6-1.2 1.2-2.5 1.9-3.7l12.6 7.3c-0.7 1.2-1.3 2.5-1.9 3.7M435.8 395l-12.6-7.3c0.7-1.3 1.4-2.5 2.1-3.8l12.6 7.3c-0.7 1.3-1.4 2.5-2.1 3.8" fill="#ACC5EA" /><path d="M437.9 391.2l-12.6-7.3c0.8-1.4 1.6-2.7 2.5-4l12.6 7.3c-0.9 1.3-1.7 2.7-2.5 4" fill="#ACC5EA" /><path d="M440.4 387.2l-12.6-7.3c1-1.5 1.9-3 3-4.5l12.6 7.3c-1.1 1.5-2.1 3-3 4.5" fill="#ACC5EA" /><path d="M443.4 382.7l-12.6-7.3c1.2-1.7 2.5-3.4 3.8-5.2l12.6 7.3c-1.4 1.8-2.6 3.5-3.8 5.2" fill="#ACC5EA" /><path d="M447.2 377.6l-12.6-7.3c0.9-1.2 1.9-2.4 2.9-3.6 0.6-0.7 1.2-1.4 1.7-2l12.6 7.3c-0.6 0.7-1.2 1.4-1.7 2-1 1.2-2 2.4-2.9 3.6M451.8 371.9l-12.6-7.3c1.8-2.1 3.7-4 5.6-5.9l12.6 7.3c-2 1.9-3.8 3.9-5.6 5.9" fill="#ACC5EA" /><path d="M457.4 366l-12.6-7.3c6.4-6.3 13.4-11.7 21.1-16.1 3.6-2.1 7-3.8 10.3-5.1l12.6 7.3c-3.3 1.4-6.7 3.1-10.3 5.1-7.7 4.4-14.8 9.8-21.1 16.1M488.8 344.7l-12.6-7.3c2.4-1 4.8-1.8 7.1-2.4l12.6 7.3c-2.3 0.6-4.7 1.4-7.1 2.4" fill="#ACC5EA" /><path d="M495.9 342.3l-12.6-7.3c1.7-0.4 3.3-0.8 4.8-1l12.6 7.3c-1.6 0.2-3.2 0.5-4.8 1M500.7 341.2l-12.6-7.3c1.3-0.2 2.6-0.3 3.8-0.4l12.6 7.3c-1.2 0.1-2.5 0.2-3.8 0.4" fill="#ACC5EA" /><path d="M504.6 340.9l-12.6-7.3h0.7c1 0 1.9 0 2.8 0.1l12.6 7.3c-0.9-0.1-1.9-0.1-2.8-0.1-0.3-0.1-0.5-0.1-0.7 0M508.1 340.9l-12.6-7.3 3 0.3 12.6 7.3-3-0.3" fill="#ACC5EA" /><path d="M511 341.2l-12.6-7.3c0.9 0.2 1.7 0.3 2.6 0.6l12.6 7.3c-0.8-0.2-1.7-0.4-2.6-0.6" fill="#ACC5EA" /><path d="M513.6 341.8l-12.6-7.3c0.8 0.2 1.5 0.5 2.3 0.8l12.6 7.3c-0.8-0.3-1.5-0.5-2.3-0.8" fill="#ACC5EA" /><path d="M515.9 342.6l-12.6-7.3c0.7 0.3 1.4 0.6 2.1 1l12.6 7.3c-0.7-0.3-1.4-0.7-2.1-1" fill="#ACC5EA" /><path d="M517.9 343.6l-12.6-7.3c0.1 0 0.1 0.1 0.2 0.1l12.6 7.3s-0.1 0-0.2-0.1" fill="#ACC5EA" /><path d="M476.4 496.9c4.4-2.5 8.1-2.9 11.1-1.2s4.5 5.1 4.5 10.1c0 5.6-1.5 10.9-4.7 15.9-3.1 5-6.7 8.7-10.8 11.1-4.3 2.5-8 3-11.1 1.7-3.2-1.3-4.8-4.8-4.8-10.5 0-5 1.5-10.2 4.5-15.3 3.1-5.3 6.9-9.2 11.3-11.8zM523.2 347.9c4.2 4.9 6.4 11.7 6.4 20.3 0 6.8-1.2 13.4-3.5 19.9-2.4 6.5-5.2 12.6-8.5 18.2s-9.2 15.3-17.7 29c-2.4 3.8-4.3 7.1-5.7 9.8-1.4 2.7-2.5 5-3.2 7-0.7 2-1.2 3.8-1.6 5.6-0.4 1.8-0.9 4.9-1.7 9.2-1.3 9.1-5.4 15.6-12.4 19.6-3.6 2.1-6.7 2.5-9.1 1.2-2.5-1.3-3.7-4.6-3.7-10 0-6.7 0.9-13.1 2.7-19 1.8-6 4.2-11.7 7.2-17.1 3-5.4 7-12.2 12.1-20.2 4.4-7.1 7.6-12.3 9.6-15.7 2-3.4 3.6-6.9 5-10.5 1.3-3.6 2-7 2-10.3 0-6.4-2.1-10.6-6.3-12.6-4.2-2-9.5-1.1-16 2.7-7.7 4.4-13.3 9.9-16.9 16.4-3.6 6.5-6.7 14.8-9.1 24.9-2.3 10.4-6.8 17.5-13.4 21.3-3.9 2.3-7.2 2.6-9.9 1s-4-4.3-4.1-7.9c0-7.6 2.1-16.5 6.3-26.8 4.2-10.2 10.4-20.3 18.5-30.1s17.6-17.9 28.5-24.1c10.1-5.8 19-8.8 26.7-9 7.6 0 13.5 2.3 17.8 7.2z" fill="#FFFFFF" /><path d="M612.2 673.1l-0.1-22.4-14.8-8.6 0.1 22.4c0 1.4 0.5 2.4 1.3 2.8l14.8 8.6c-0.8-0.5-1.3-1.4-1.3-2.8zM562.6 663.7l-14.8-8.6c0 4.3 1.5 7.3 4 8.7l14.8 8.6c-2.4-1.5-3.9-4.5-4-8.7z" fill="#C68620" /><path d="M728.1 444.6l-14.8-8.6h-0.1c-0.2-0.1-0.4-0.2-0.7-0.3h-0.1c-0.1 0-0.2-0.1-0.2-0.1-0.1 0-0.2-0.1-0.4-0.1-0.1 0-0.3-0.1-0.4-0.1-0.1 0-0.2 0-0.2-0.1h-0.1c-0.3 0-0.5-0.1-0.8-0.1h-1.9c-0.1 0-0.2 0.1-0.3 0.1-0.2 0-0.4 0.1-0.6 0.1-0.1 0-0.2 0-0.3 0.1-0.1 0-0.2 0.1-0.3 0.1-0.3 0.1-0.6 0.2-1 0.3-0.1 0-0.2 0.1-0.3 0.1-0.1 0-0.1 0.1-0.2 0.1-0.6 0.2-1.1 0.5-1.7 0.8L561 519.3c-0.7 0.4-1.4 0.9-2.1 1.4-0.1 0.1-0.2 0.2-0.4 0.3-0.7 0.5-1.3 1.1-1.9 1.7-0.1 0.1-0.1 0.1-0.2 0.1l-0.3 0.3c-0.3 0.3-0.6 0.6-0.9 1l-0.3 0.3c-0.1 0.1-0.2 0.2-0.2 0.3-0.2 0.2-0.4 0.4-0.5 0.6-0.1 0.1-0.2 0.3-0.3 0.4-0.1 0.1-0.2 0.2-0.3 0.4-0.1 0.2-0.3 0.3-0.4 0.5-0.1 0.1-0.2 0.2-0.3 0.4-0.1 0.2-0.3 0.4-0.4 0.6-0.1 0.1-0.2 0.3-0.3 0.4 0 0.1-0.1 0.1-0.1 0.2-0.2 0.4-0.5 0.8-0.7 1.1v0.1c0 0.1-0.1 0.2-0.1 0.2-0.2 0.3-0.3 0.6-0.5 0.8-0.1 0.1-0.1 0.3-0.2 0.4-0.1 0.1-0.1 0.3-0.2 0.4-0.1 0.1-0.1 0.2-0.2 0.4-0.2 0.3-0.3 0.6-0.4 0.9 0 0.1-0.1 0.1-0.1 0.2-0.2 0.4-0.3 0.8-0.5 1.2 0 0.1-0.1 0.1-0.1 0.2-0.1 0.1-0.1 0.3-0.2 0.4-0.1 0.2-0.2 0.4-0.2 0.6-0.1 0.2-0.1 0.3-0.1 0.5-0.1 0.2-0.1 0.4-0.2 0.6 0 0.1-0.1 0.2-0.1 0.3-0.1 0.2-0.1 0.4-0.2 0.6-0.1 0.2-0.1 0.5-0.2 0.7 0 0.1 0 0.2-0.1 0.2 0 0.2-0.1 0.3-0.1 0.5-0.1 0.4-0.1 0.7-0.2 1.1 0 0.1 0 0.2-0.1 0.3v0.3c-0.1 0.8-0.2 1.6-0.2 2.4l0.3 112.4 14.8 8.6-0.3-112.4c0-0.8 0.1-1.6 0.2-2.4 0-0.2 0-0.4 0.1-0.6 0.1-0.4 0.1-0.7 0.2-1.1 0-0.2 0.1-0.5 0.1-0.7 0.1-0.2 0.1-0.5 0.2-0.7 0.1-0.3 0.2-0.6 0.3-1 0.1-0.2 0.1-0.4 0.2-0.6 0.1-0.4 0.2-0.7 0.4-1.1 0.1-0.1 0.1-0.3 0.2-0.4l0.6-1.5c0-0.1 0.1-0.1 0.1-0.2 0.2-0.4 0.4-0.9 0.6-1.3 0.1-0.1 0.1-0.3 0.2-0.4 0.2-0.4 0.4-0.8 0.7-1.2 0-0.1 0.1-0.1 0.1-0.2 0.3-0.5 0.6-0.9 0.9-1.4 0.1-0.1 0.2-0.3 0.3-0.4 0.2-0.3 0.4-0.7 0.7-1 0.1-0.2 0.2-0.3 0.4-0.5 0.2-0.3 0.4-0.5 0.6-0.8 0.2-0.2 0.3-0.4 0.5-0.6 0.2-0.2 0.3-0.4 0.5-0.6 0.3-0.3 0.6-0.6 0.9-1 0.1-0.2 0.3-0.3 0.5-0.4 0.6-0.6 1.3-1.2 1.9-1.7l0.3-0.3c0.7-0.5 1.4-1 2.1-1.4l142.6-82.3c0.6-0.3 1.1-0.6 1.7-0.8 0.2-0.1 0.4-0.1 0.5-0.2 0.3-0.1 0.6-0.2 1-0.3 0.2-0.1 0.4-0.1 0.6-0.2 0.2 0 0.4-0.1 0.6-0.1 0.2 0 0.5-0.1 0.7-0.1h1.5c0.3 0 0.7 0.1 1 0.1 0.1 0 0.2 0 0.2 0.1 0.3 0.1 0.5 0.1 0.7 0.2 0.1 0 0.2 0.1 0.2 0.1 0.4 0.1 0.7 0.2 1 0.4z" fill="#C68620" /><path d="M718.4 445.5c7.5-4.3 13.6-0.9 13.6 7.7l0.3 110.1c0 8.6-6 19.1-13.5 23.4l-62.4 36-37.3 50.5c-0.8 1.1-1.6 1.8-2.5 2.3-2.3 1.3-4.4 0.5-4.4-2.5l-0.1-22.4-35.9 20.7c-7.5 4.3-13.6 0.8-13.6-7.8l-0.3-112.4c0-8.6 6-19.1 13.5-23.4l142.6-82.2z" fill="#FFCD2E" /><path d="M607.2 557.8c6.9-4 12.5-0.8 12.5 7.1 0 7.9-5.5 17.5-12.4 21.5s-12.5 0.8-12.5-7.1c0-7.9 5.5-17.5 12.4-21.5zM644.6 536.2c6.9-4 12.5-0.8 12.5 7.1 0 7.9-5.5 17.5-12.4 21.5s-12.5 0.8-12.5-7.1c0-7.9 5.5-17.5 12.4-21.5zM682 514.6c6.9-4 12.5-0.8 12.5 7.1 0 7.9-5.5 17.5-12.4 21.5s-12.5 0.8-12.5-7.1c-0.1-7.9 5.5-17.5 12.4-21.5z" fill="#C68620" /><path d="M608.3 585.6c0-0.3 0.1-0.7 0.2-1 0-0.2 0.1-0.4 0.1-0.7 0-0.2 0.1-0.4 0.2-0.6 0.1-0.3 0.2-0.6 0.2-0.9 0-0.2 0.1-0.3 0.2-0.5 0.1-0.3 0.2-0.7 0.3-1 0-0.1 0.1-0.3 0.1-0.4 0.2-0.5 0.4-0.9 0.5-1.4 0 0 0-0.1 0.1-0.1l0.6-1.2c0.1-0.1 0.1-0.2 0.2-0.4 0.2-0.4 0.4-0.7 0.6-1.1 0-0.1 0.1-0.2 0.1-0.2 0.3-0.4 0.5-0.9 0.8-1.3 0.1-0.1 0.2-0.2 0.2-0.4l0.6-0.9c0.1-0.2 0.2-0.3 0.3-0.5 0.2-0.2 0.4-0.5 0.6-0.7 0.2-0.2 0.3-0.4 0.5-0.6 0.2-0.2 0.3-0.4 0.5-0.5 0.3-0.3 0.5-0.6 0.8-0.9l0.4-0.4c0.6-0.6 1.2-1.1 1.8-1.5 0.1-0.1 0.2-0.2 0.3-0.2 0.6-0.5 1.3-0.9 1.9-1.3 0.5-0.3 1.1-0.6 1.6-0.8 0.2-0.1 0.3-0.1 0.5-0.2l0.9-0.3c0.2-0.1 0.4-0.1 0.6-0.2 0.2 0 0.3-0.1 0.5-0.1s0.4-0.1 0.7-0.1H626.6c0.3 0 0.6 0.1 0.9 0.1h0.2c0.2 0.1 0.5 0.1 0.7 0.2 0.1 0 0.1 0 0.2 0.1 0.3 0.1 0.6 0.2 0.8 0.4l-10.8-6.3h-0.1l-0.6-0.3h-0.1c-0.1 0-0.1 0-0.2-0.1-0.1 0-0.2-0.1-0.3-0.1-0.1 0-0.2-0.1-0.4-0.1h-0.2-0.1c-0.2 0-0.5-0.1-0.8-0.1h-1.7c-0.1 0-0.2 0-0.3 0.1-0.2 0-0.3 0.1-0.5 0.1-0.1 0-0.2 0-0.3 0.1-0.1 0-0.2 0.1-0.3 0.1l-0.9 0.3c-0.1 0-0.2 0.1-0.3 0.1-0.1 0-0.1 0.1-0.2 0.1-0.5 0.2-1 0.5-1.6 0.8-0.7 0.4-1.3 0.8-1.9 1.3-0.1 0.1-0.2 0.2-0.3 0.2l-1.8 1.5-0.1 0.1-0.3 0.3c-0.3 0.3-0.6 0.6-0.8 0.9l-0.3 0.3c-0.1 0.1-0.1 0.2-0.2 0.3-0.2 0.2-0.3 0.4-0.5 0.6-0.1 0.1-0.2 0.3-0.3 0.4-0.1 0.1-0.2 0.2-0.2 0.3-0.1 0.2-0.2 0.3-0.3 0.5-0.1 0.1-0.2 0.2-0.2 0.3-0.1 0.2-0.3 0.4-0.4 0.6-0.1 0.1-0.2 0.2-0.2 0.4 0 0.1-0.1 0.1-0.1 0.2-0.2 0.3-0.4 0.7-0.6 1v0.1c0 0.1-0.1 0.2-0.1 0.2-0.1 0.2-0.3 0.5-0.4 0.7-0.1 0.1-0.1 0.2-0.2 0.4-0.1 0.1-0.1 0.2-0.2 0.4-0.1 0.1-0.1 0.2-0.2 0.3-0.1 0.3-0.3 0.6-0.4 0.9 0 0 0 0.1-0.1 0.1-0.2 0.4-0.3 0.7-0.5 1.1 0 0.1-0.1 0.1-0.1 0.2-0.1 0.1-0.1 0.3-0.1 0.4-0.1 0.2-0.1 0.4-0.2 0.5 0 0.2-0.1 0.3-0.1 0.5-0.1 0.2-0.1 0.3-0.2 0.5 0 0.1-0.1 0.2-0.1 0.3-0.1 0.2-0.1 0.4-0.1 0.6-0.1 0.2-0.1 0.4-0.2 0.6 0 0.1 0 0.1-0.1 0.2 0 0.2 0 0.3-0.1 0.5-0.1 0.3-0.1 0.7-0.2 1v0.6c-0.1 0.7-0.1 1.5-0.1 2.2 0 3.9 1.4 6.7 3.6 8l10.8 6.3c-2.2-1.3-3.6-4.1-3.6-8 0-0.7 0.1-1.5 0.1-2.2-0.1-0.4-0.1-0.5-0.1-0.7z" fill="#E8CFAC" /><path d="M620.5 566.8c6.9-4 12.5-0.8 12.5 7.1 0 7.9-5.5 17.5-12.4 21.5s-12.5 0.8-12.5-7.1c0-7.9 5.5-17.5 12.4-21.5z" fill="#FFFFFF" /><path d="M645.7 564c0-0.3 0.1-0.7 0.2-1 0-0.2 0.1-0.4 0.1-0.7 0-0.2 0.1-0.4 0.2-0.6 0.1-0.3 0.2-0.6 0.2-0.9 0-0.2 0.1-0.3 0.2-0.5 0.1-0.3 0.2-0.7 0.3-1 0-0.1 0.1-0.3 0.1-0.4 0.2-0.5 0.4-0.9 0.6-1.4 0-0.1 0-0.1 0.1-0.2l0.6-1.2c0.1-0.1 0.1-0.2 0.2-0.4 0.2-0.4 0.4-0.8 0.6-1.1 0-0.1 0.1-0.1 0.1-0.2 0.3-0.4 0.5-0.9 0.8-1.3 0.1-0.1 0.2-0.2 0.2-0.4l0.6-0.9c0.1-0.2 0.2-0.3 0.3-0.5 0.2-0.2 0.4-0.5 0.6-0.7 0.2-0.2 0.3-0.4 0.5-0.6 0.2-0.2 0.3-0.4 0.5-0.5 0.3-0.3 0.5-0.6 0.8-0.9l0.4-0.4c0.6-0.6 1.2-1.1 1.8-1.5 0.1-0.1 0.2-0.2 0.3-0.2 0.6-0.5 1.3-0.9 1.9-1.3 0.5-0.3 1.1-0.6 1.6-0.8 0.2-0.1 0.3-0.1 0.5-0.2l0.9-0.3c0.2-0.1 0.4-0.1 0.5-0.2 0.2 0 0.3-0.1 0.5-0.1s0.4-0.1 0.7-0.1H664c0.3 0 0.6 0.1 0.9 0.1 0.1 0 0.1 0 0.2 0.1 0.2 0.1 0.5 0.1 0.7 0.2 0.1 0 0.1 0 0.2 0.1 0.3 0.1 0.6 0.2 0.8 0.4l-10.8-6.3h-0.1l-0.6-0.3h-0.1c-0.1 0-0.1 0-0.2-0.1-0.1 0-0.2-0.1-0.3-0.1-0.1 0-0.2-0.1-0.4-0.1-0.1 0-0.1 0-0.2-0.1h-0.1c-0.2 0-0.5-0.1-0.8-0.1h-1.8c-0.1 0-0.2 0-0.3 0.1-0.2 0-0.3 0.1-0.5 0.1-0.1 0-0.2 0-0.3 0.1-0.1 0-0.2 0.1-0.3 0.1l-0.9 0.3c-0.1 0-0.2 0.1-0.3 0.1-0.1 0-0.1 0.1-0.2 0.1-0.5 0.2-1 0.5-1.6 0.8-0.7 0.4-1.3 0.8-1.9 1.3-0.1 0.1-0.2 0.2-0.3 0.2L643 542s-0.1 0.1-0.2 0.1l-0.3 0.3c-0.3 0.3-0.6 0.6-0.8 0.9l-0.3 0.3c-0.1 0.1-0.1 0.2-0.2 0.2-0.2 0.2-0.3 0.4-0.5 0.6-0.1 0.1-0.2 0.3-0.3 0.4-0.1 0.1-0.2 0.2-0.2 0.3-0.1 0.2-0.2 0.3-0.3 0.5-0.1 0.1-0.2 0.2-0.2 0.3-0.1 0.2-0.2 0.4-0.4 0.6-0.1 0.1-0.2 0.2-0.2 0.4 0 0.1-0.1 0.1-0.1 0.2-0.2 0.3-0.4 0.7-0.6 1.1v0.1c0 0.1-0.1 0.1-0.1 0.2-0.1 0.3-0.3 0.5-0.4 0.8-0.1 0.1-0.1 0.2-0.2 0.4-0.1 0.1-0.1 0.2-0.2 0.4-0.1 0.1-0.1 0.2-0.2 0.3-0.1 0.3-0.3 0.6-0.4 0.9 0 0 0 0.1-0.1 0.1-0.2 0.4-0.3 0.8-0.5 1.1 0 0.1 0 0.1-0.1 0.2s-0.1 0.3-0.1 0.4c-0.1 0.2-0.1 0.4-0.2 0.6 0 0.1-0.1 0.3-0.1 0.4-0.1 0.2-0.1 0.3-0.2 0.5 0 0.1-0.1 0.2-0.1 0.3-0.1 0.2-0.1 0.4-0.1 0.6-0.1 0.2-0.1 0.4-0.2 0.6 0 0.1 0 0.1-0.1 0.2 0 0.2 0 0.3-0.1 0.5-0.1 0.3-0.1 0.7-0.2 1v0.6c-0.1 0.7-0.1 1.5-0.1 2.2 0 3.9 1.4 6.7 3.6 8l10.8 6.3c-2.2-1.3-3.6-4.1-3.6-8 0-0.7 0.1-1.5 0.1-2.2 0.1-0.3 0.1-0.5 0.1-0.7z" fill="#E8CFAC" /><path d="M657.9 545.2c6.9-4 12.5-0.8 12.5 7.1 0 7.9-5.5 17.5-12.4 21.5s-12.5 0.8-12.5-7.1c0-7.9 5.5-17.5 12.4-21.5z" fill="#FFFFFF" /><path d="M683.1 542.4c0-0.3 0.1-0.7 0.2-1 0-0.2 0.1-0.4 0.1-0.7 0-0.2 0.1-0.4 0.2-0.6 0.1-0.3 0.2-0.6 0.2-0.9 0-0.2 0.1-0.3 0.2-0.5 0.1-0.3 0.2-0.7 0.3-1 0-0.1 0.1-0.3 0.1-0.4 0.2-0.5 0.4-0.9 0.6-1.4 0 0 0-0.1 0.1-0.1l0.6-1.2c0.1-0.1 0.1-0.2 0.2-0.4 0.2-0.4 0.4-0.8 0.6-1.1 0-0.1 0.1-0.1 0.1-0.2 0.2-0.4 0.5-0.9 0.8-1.3 0.1-0.1 0.2-0.2 0.2-0.4l0.6-0.9c0.1-0.2 0.2-0.3 0.3-0.5 0.2-0.2 0.4-0.5 0.6-0.7 0.2-0.2 0.3-0.4 0.5-0.6 0.2-0.2 0.3-0.4 0.5-0.5 0.3-0.3 0.5-0.6 0.8-0.9l0.4-0.4c0.6-0.6 1.2-1.1 1.8-1.5 0.1-0.1 0.2-0.2 0.3-0.2 0.6-0.5 1.3-0.9 1.9-1.3 0.5-0.3 1.1-0.6 1.6-0.8 0.2-0.1 0.3-0.1 0.5-0.2l0.9-0.3c0.2-0.1 0.4-0.1 0.6-0.2 0.2 0 0.3-0.1 0.5-0.1s0.4-0.1 0.7-0.1H701.5c0.3 0 0.6 0.1 0.9 0.1 0.1 0 0.1 0 0.2 0.1 0.2 0.1 0.5 0.1 0.7 0.2 0.1 0 0.1 0 0.2 0.1 0.3 0.1 0.6 0.2 0.8 0.4l-10.8-6.3h-0.1l-0.6-0.3h-0.1c-0.1 0-0.1 0-0.2-0.1-0.1 0-0.2-0.1-0.3-0.1-0.1 0-0.2-0.1-0.4-0.1-0.1 0-0.1 0-0.2-0.1h-0.1c-0.2 0-0.5-0.1-0.8-0.1h-1.8c-0.1 0-0.2 0-0.3 0.1-0.2 0-0.3 0.1-0.5 0.1-0.1 0-0.2 0-0.3 0.1-0.1 0-0.2 0.1-0.3 0.1l-0.9 0.3c-0.1 0-0.2 0.1-0.3 0.1-0.1 0-0.1 0.1-0.2 0.1-0.5 0.2-1 0.5-1.6 0.8-0.7 0.4-1.3 0.8-1.9 1.3-0.1 0.1-0.2 0.2-0.3 0.2l-1.8 1.5-0.1 0.1-0.3 0.3c-0.3 0.3-0.6 0.6-0.8 0.9l-0.3 0.3c-0.1 0.1-0.1 0.2-0.2 0.2-0.2 0.2-0.3 0.4-0.5 0.6-0.1 0.1-0.2 0.3-0.3 0.4-0.1 0.1-0.2 0.2-0.2 0.3-0.1 0.2-0.2 0.3-0.3 0.5-0.1 0.1-0.2 0.2-0.2 0.3-0.1 0.2-0.2 0.4-0.4 0.6-0.1 0.1-0.2 0.2-0.2 0.4 0 0.1-0.1 0.1-0.1 0.2-0.2 0.3-0.4 0.7-0.6 1.1v0.1c0 0.1-0.1 0.1-0.1 0.2-0.1 0.3-0.3 0.5-0.4 0.8-0.1 0.1-0.1 0.2-0.2 0.4-0.1 0.1-0.1 0.2-0.2 0.4-0.1 0.1-0.1 0.2-0.2 0.3-0.1 0.3-0.3 0.6-0.4 0.9 0 0 0 0.1-0.1 0.1-0.2 0.4-0.3 0.7-0.5 1.1 0 0.1 0 0.1-0.1 0.2s-0.1 0.3-0.1 0.4c-0.1 0.2-0.1 0.4-0.2 0.6 0 0.1-0.1 0.3-0.1 0.4-0.1 0.2-0.1 0.3-0.2 0.5 0 0.1-0.1 0.2-0.1 0.3-0.1 0.2-0.1 0.4-0.1 0.6-0.1 0.2-0.1 0.4-0.2 0.6 0 0.1 0 0.1-0.1 0.2 0 0.2 0 0.3-0.1 0.5-0.1 0.3-0.1 0.7-0.2 1v0.6c-0.1 0.7-0.1 1.5-0.1 2.2 0 3.9 1.4 6.7 3.6 8l10.8 6.3c-2.2-1.3-3.6-4.1-3.6-8 0-0.7 0.1-1.5 0.1-2.2-0.2-0.4-0.1-0.6-0.1-0.8z" fill="#E8CFAC" /><path d="M695.3 523.6c6.9-4 12.5-0.8 12.5 7.1 0 7.9-5.5 17.5-12.4 21.5s-12.5 0.8-12.5-7.1c-0.1-7.9 5.5-17.5 12.4-21.5z" fill="#FFFFFF" /></svg>