<?xml version="1.0" encoding="utf-8"?>
<!-- Uploaded to: SVG Repo, www.svgrepo.com, Generator: SVG Repo Mixer Tools -->
<svg width="800px" height="800px" viewBox="0 0 1024 1024" class="icon"  version="1.1" xmlns="http://www.w3.org/2000/svg"><path d="M906.3 550c-1.1 11-11.2 16.5-19.8 21.5-8 4.6-16 9.3-23.9 13.9-12.8 7.4-25.5 14.8-38.3 22.2-16 9.3-31.9 18.6-47.9 27.8-17.6 10.2-35.2 20.5-52.9 30.7-17.7 10.3-35.4 20.6-53.2 30.9-16.3 9.5-32.5 18.9-48.8 28.4-13.3 7.7-26.5 15.4-39.8 23.1-8.7 5-17.4 10.1-26.1 15.1-6.6 3.8-12.8 7.6-20.3 9.8-19.5 5.6-41.1 3.7-58.7-6.5-6.3-3.7-12.7-7.3-19-11-11.6-6.7-23.1-13.3-34.7-20-15.2-8.8-30.4-17.6-45.6-26.3-17.3-10-34.7-20-52-30-17.9-10.3-35.8-20.7-53.7-31-16.9-9.8-33.8-19.5-50.8-29.3l-43.2-24.9c-10.3-6-20.7-11.9-31-17.9-4.7-2.7-9.4-5.4-14.1-8.2-7.4-4.3-14.7-11.1-14.7-20.3 0 8.4 0 16.8-0.1 25.3 0 3-0.2 6.1 0 9.2 0.6 8.1 7 14.4 13.7 18.4 4.1 2.5 8.3 4.8 12.5 7.2 10.8 6.2 21.6 12.5 32.4 18.7 15.6 9 31.1 18 46.7 27 18.5 10.7 37.1 21.4 55.6 32.1 19.3 11.2 38.6 22.3 58 33.5 18.4 10.6 36.7 21.2 55.1 31.8 15.3 8.8 30.5 17.6 45.8 26.4 10.3 6 20.7 11.9 31 17.9 6 3.4 11.9 7.3 18.4 9.7 20.3 7.4 44.1 5.8 62.8-5.1 7.1-4.1 14.2-8.3 21.3-12.4 13.1-7.6 26.2-15.2 39.2-22.8 17.1-9.9 34.1-19.8 51.2-29.8 19.1-11.1 38.2-22.2 57.2-33.3l57.3-33.3c17.1-10 34.2-19.9 51.4-29.9 13.3-7.7 26.6-15.4 39.9-23.2 7.3-4.3 14.7-8.5 22-12.8 2.2-1.3 4.5-2.6 6.6-4.1 5.6-4.2 10-10 10.1-17.3 0.1-3.7 0-7.3 0-11 0-7.3 0-14.7 0.1-22 0.4 0.7 0.3 1.3 0.3 1.8-0.1 0.2 0-0.2 0 0zM906.4 548.4z" fill="#7A9EFD" /><path d="M892 528.5c19 11 19.1 28.9 0.2 39.9L547.9 768.5c-18.9 11-49.8 11-68.8 0L132.3 568.3c-19-11-19.1-28.9-0.2-39.9l344.4-200.2c18.9-11 49.8-11 68.8 0L892 528.5z" fill="#E4ECF9" /><path d="M580.1 420.3c0.2-0.1 0.5-0.2 0.7-0.2 0.2 0 0.3-0.1 0.5-0.1 0.1 0 0.3-0.1 0.4-0.1 0.2 0 0.4-0.1 0.5-0.1h1.1c0.3 0 0.5 0 0.8 0.1h0.2c0.2 0 0.4 0.1 0.6 0.2 0.1 0 0.1 0 0.2 0.1 0.2 0.1 0.5 0.2 0.7 0.3l-15.4-9h-0.1c-0.2-0.1-0.3-0.2-0.5-0.3h-0.1c-0.1 0-0.1 0-0.2-0.1-0.1 0-0.2-0.1-0.3-0.1-0.1 0-0.2 0-0.3-0.1h-0.2-0.1c-0.2 0-0.4-0.1-0.6-0.1h-1.5c-0.1 0-0.2 0-0.3 0.1-0.1 0-0.3 0.1-0.4 0.1h-0.2c-0.1 0-0.2 0.1-0.2 0.1-0.2 0.1-0.5 0.2-0.7 0.2-0.1 0-0.2 0.1-0.3 0.1l-0.1 0.1c-0.4 0.2-0.8 0.4-1.3 0.6l-21.5 12.4 15.4 9 21.5-12.4c0.4-0.3 0.9-0.5 1.3-0.6 0.1-0.1 0.3-0.2 0.4-0.2zM493 470.4l-15.4-9 34.7-20 15.4 8.9zM429.1 507.3l-15.4-9 34.7-20 15.4 8.9z" fill="#2A2ABC" /><path d="M527.7 450.3l-15.4-8.9-0.4-145.8 15.4 9zM365.2 544.2l-15.4-9 34.7-20 15.4 8.9zM463.8 487.2l-15.4-8.9-0.4-145.8 15.4 9zM304.4 626l-15.4-9c0 2.4 0.6 4.3 1.7 5.5 0.4 0.4 0.8 0.8 1.2 1l15.4 9c-1.7-1-2.9-3.3-2.9-6.5z" fill="#2A2ABC" /><path d="M320.6 552.1l-21.5 12.4c-0.7 0.4-1.3 0.8-1.9 1.3-0.2 0.2-0.4 0.3-0.6 0.5-0.3 0.3-0.6 0.5-0.9 0.8l-0.4 0.4c-0.1 0.1-0.2 0.2-0.3 0.4l-0.4 0.4c-0.3 0.3-0.6 0.7-0.8 1-0.1 0.1-0.2 0.2-0.3 0.4 0 0.1-0.1 0.1-0.1 0.2-0.1 0.1-0.2 0.2-0.3 0.4l-0.6 0.9c-0.2 0.3-0.4 0.6-0.5 0.9v0.2c-0.1 0.2-0.3 0.5-0.4 0.7-0.2 0.3-0.3 0.6-0.4 0.9-0.1 0.3-0.2 0.5-0.4 0.8-0.1 0.3-0.3 0.6-0.4 0.9-0.1 0.3-0.2 0.6-0.3 1-0.1 0.2-0.1 0.3-0.1 0.5 0 0.1 0 0.1-0.1 0.2 0 0.1-0.1 0.2-0.1 0.4l-0.3 1.2c-0.1 0.2-0.1 0.5-0.1 0.7 0 0.1 0 0.2-0.1 0.4 0 0.1 0 0.2-0.1 0.3-0.1 0.7-0.1 1.3-0.1 2l0.1 35 15.4 9-0.1-35c0-0.8 0.1-1.5 0.2-2.3 0-0.1 0-0.2 0.1-0.4 0.1-0.7 0.3-1.5 0.5-2.2 0-0.1 0-0.1 0.1-0.2 0.2-0.8 0.5-1.6 0.9-2.4l1.2-2.4v-0.1c0.4-0.8 0.9-1.5 1.4-2.2 0-0.1 0.1-0.1 0.1-0.2l1.5-1.8c0.1-0.1 0.2-0.2 0.3-0.4 0.4-0.4 0.8-0.8 1.3-1.2 0.2-0.2 0.4-0.4 0.6-0.5 0.6-0.5 1.3-1 1.9-1.3L336 561l-15.4-8.9zM399.9 524.1l-15.4-8.9-0.4-145.8 15.4 9zM569.9 212.1c-0.2-0.1-0.3-0.2-0.5-0.2-0.1-0.1-0.3-0.1-0.4-0.2-0.1 0-0.2 0-0.2-0.1H568.5c-0.2 0-0.3 0-0.5-0.1h-0.6-0.1l-17.8 1.2-119.3 7.7 15.4 9 119.3-7.7 17.8-1.2c0.5 0 0.9 0 1.3 0.1h0.1c0.4 0.1 0.8 0.2 1.1 0.4l-15.3-8.9z" fill="#2A2ABC" /><path d="M336 561l-15.4-8.9-0.5-145.8 15.5 9z" fill="#2A2ABC" /><path d="M578.4 421.1c5.6-3.3 10.2-0.6 10.2 5.8l0.1 35c0 6.5-4.5 14.4-10.2 17.6L314.7 631.9c-5.6 3.2-10.2 0.6-10.2-5.8l-0.1-35c0-6.5 4.5-14.4 10.2-17.6L336 561l-0.4-145.7-23.1 13.3c-4.6 2.6-8.3 0.5-8.3-4.7l-0.1-33.7c0-3.8 1.9-8.3 4.9-11.5l17.8-19.5 118.9-129.8 119.3-7.7 17.8-1.2c3-0.2 4.9 2.1 5 5.9l0.1 33.7c0 5.3-3.7 11.7-8.3 14.4l-23 13.3 0.4 145.7 21.4-12.4z m-50.7 29.2l-0.4-145.7-34.7 20 0.4 145.7 34.7-20m-63.9 36.9l-0.4-145.7-17.4 10-17.4 10 0.4 145.7 34.8-20m-63.9 36.9l-0.4-145.7-34.7 20 0.4 145.7 34.7-20" fill="#4040FF" /><path d="M291.2 420.2l15.4 9c-1.5-0.9-2.4-2.7-2.4-5.3l-15.4-9c0 2.6 0.9 4.5 2.4 5.3z" fill="#2A2ABC" /><path d="M430.3 220.4L311.4 350.2l-17.8 19.5-0.3 0.3c-0.2 0.3-0.5 0.5-0.7 0.8 0 0 0 0.1-0.1 0.1l-0.1 0.1c-0.1 0.2-0.3 0.3-0.4 0.5-0.2 0.2-0.3 0.5-0.5 0.7v0.1c-0.1 0.2-0.3 0.4-0.4 0.6-0.1 0.2-0.3 0.5-0.4 0.7v0.2l-0.3 0.6c-0.1 0.2-0.2 0.5-0.3 0.7v0.1s0 0.1-0.1 0.1c-0.1 0.2-0.1 0.3-0.2 0.5-0.1 0.3-0.2 0.5-0.3 0.8V376.9c-0.1 0.2-0.1 0.4-0.2 0.6-0.1 0.2-0.1 0.4-0.2 0.7V378.5c-0.1 0.4-0.2 0.8-0.2 1.2v0.1c-0.1 0.5-0.1 1-0.1 1.5l0.1 33.7 15.4 9-0.1-33.7c0-0.5 0-1 0.1-1.5 0.1-0.4 0.1-0.9 0.2-1.3v-0.2c0.1-0.4 0.2-0.8 0.3-1.3v-0.2c0.2-0.5 0.3-0.9 0.5-1.4 0 0 0-0.1 0.1-0.1 0.2-0.5 0.4-0.9 0.7-1.4v-0.1c0.2-0.5 0.5-0.9 0.8-1.4v-0.1c0.3-0.4 0.6-0.8 0.9-1.3l0.1-0.1c0.3-0.4 0.7-0.8 1-1.2l17.8-19.5 118.9-129.8-15.3-9z" fill="#2A2ABC" /><path d="M504.7 246.5l-9.6 18.9 10.7 14.5-5.3 3.1-8.4-12-4.9 9.7v9.9l-4.5 2.6-0.1-34 4.5-2.6v17.1l12.1-24zM473.2 264.7l0.1 33.9-4.1 2.4-13.7-16 0.1 23.9-4.5 2.6-0.1-34 4.1-2.4 13.7 16-0.1-23.9zM434.3 287.1l10.9 27.7-4.8 2.8-2.1-5.7-11.7 6.7-2 8-4.8 2.8 10.7-40.2 3.8-2.1z m-6.3 26.4l9.1-5.3-4.5-12.5-4.6 17.8M410.7 317.3c2.3-0.3 4.5 1 4.5 5.3 0 6.3-3.7 11.7-8.9 14.7l-12 6.9-0.1-34 11.5-6.6c5.5-3.2 8.9-1.6 9 4.2-0.1 3.7-2.1 7.5-4 9.5z m-4.9 15.7c3.1-1.8 4.9-5 4.8-8 0-3-1.8-4.1-4.9-2.3l-7.1 4.1v10.4l7.2-4.2m-7.1-20.6v9.7l6.6-3.8c2.9-1.7 4.8-4.5 4.8-7.6 0-3.2-2-3.7-4.8-2.1l-6.6 3.8" fill="#2828CE" /><path d="M516.2 291.8l-12.8-7.4-8.3-12 12.7 7.4z" fill="#ACC5EA" /><path d="M502.8 282.6l-12.7-7.4 12-24.1 12.8 7.4zM514.9 258.5l-12.8-7.4 5.5-3.1 12.7 7.4z" fill="#ACC5EA" /><path d="M498.3 268.1l-12.7-7.4 4.4-2.6 12.8 7.4zM498.4 302.1l-12.7-7.4-0.1-34 12.7 7.4zM484.5 300l-12.7-7.4-0.1-23.9 12.7 7.4z" fill="#ACC5EA" /><path d="M484.4 276.1l-12.7-7.4 4.5-2.6 12.7 7.4zM484.9 309.9l-12.8-7.4-13.7-16.1 12.8 7.4zM466.6 286.3l-12.7-7.3 4.1-2.4 12.8 7.4z" fill="#ACC5EA" /><path d="M466.7 320.3l-12.7-7.4-0.1-33.9 12.7 7.3zM456.1 326.5l-12.7-7.4-2.1-5.7 12.8 7.4z" fill="#ACC5EA" /><path d="M443.7 322.4L431 315l9.1-5.3 12.7 7.4z" fill="#ACC5EA" /><path d="M452.8 317.1l-12.7-7.4-4.6-12.4 12.8 7.4zM446.3 298.1l-12.7-7.4 3.6-2.1L450 296z" fill="#ACC5EA" /><path d="M435.6 338.3l-12.7-7.4 10.7-40.2 12.7 7.4z" fill="#ACC5EA" /><path d="M426.3 326.2l-12.7-7.4h0.4l12.7 7.4c-0.1-0.1-0.2 0-0.4 0M426.7 326.1l-12.7-7.4h0.5l12.7 7.4h-0.5" fill="#ACC5EA" /><path d="M427.2 326.1l-12.7-7.4c0.1 0 0.3 0 0.4 0.1l12.7 7.4c-0.1 0-0.3 0-0.4-0.1" fill="#ACC5EA" /><path d="M427.6 326.2l-12.7-7.4c0.1 0 0.3 0.1 0.4 0.1l12.7 7.4c-0.1-0.1-0.3-0.1-0.4-0.1" fill="#ACC5EA" /><path d="M428 326.3l-12.7-7.4c0.1 0 0.2 0.1 0.4 0.1l12.7 7.4c-0.2 0-0.3-0.1-0.4-0.1" fill="#ACC5EA" /><path d="M428.4 326.4l-12.7-7.4c0.1 0 0.2 0.1 0.3 0.2l12.7 7.4c-0.1-0.1-0.2-0.1-0.3-0.2M428.7 326.6l-12.7-7.4 12.7 7.4" fill="#ACC5EA" /><path d="M426.2 334.9c0-0.3 0.1-0.7 0.1-1 0-0.7-0.1-1.4-0.3-1.8-0.2-0.5-0.5-0.9-0.9-1.1l-12.7-7.4c0.8 0.5 1.2 1.5 1.2 2.9 0 0.4 0 0.7-0.1 1.1v0.1c-0.1 0.3-0.1 0.7-0.2 1-0.1 0.4-0.2 0.7-0.4 1.1-0.2 0.4-0.3 0.7-0.5 1.1-0.2 0.3-0.4 0.7-0.7 1-0.2 0.3-0.5 0.6-0.8 0.9l-0.1 0.1-0.6 0.6-0.3 0.3c-0.3 0.3-0.7 0.5-1.1 0.7l-7.1 4.1 12.7 7.4 7.1-4.1c0.4-0.2 0.7-0.5 1.1-0.7l0.3-0.3c0.2-0.2 0.4-0.3 0.6-0.5l0.1-0.1 0.4-0.4c0.1-0.1 0.2-0.3 0.4-0.4l0.3-0.3c0.1-0.1 0.2-0.2 0.2-0.3 0.1-0.1 0.1-0.2 0.2-0.3 0.1-0.1 0.1-0.2 0.2-0.3 0.1-0.1 0.1-0.2 0.2-0.3 0.1-0.1 0.1-0.2 0.2-0.3 0-0.1 0.1-0.2 0.1-0.3 0-0.1 0.1-0.3 0.1-0.4 0-0.1 0.1-0.3 0.1-0.4 0-0.2 0.1-0.3 0.1-0.5s0.1-0.3 0.1-0.5v-0.7z" fill="#ACC5EA" /><path d="M425.7 320.4c0-0.3 0.1-0.7 0.1-1 0-1.4-0.4-2.3-1.1-2.7l-12.7-7.4c0.7 0.4 1.1 1.3 1.1 2.7 0 0.4 0 0.7-0.1 1.1v0.1c-0.1 0.3-0.1 0.7-0.2 1v0.1c-0.1 0.3-0.2 0.7-0.4 1-0.2 0.3-0.3 0.7-0.6 1-0.2 0.3-0.4 0.6-0.7 0.9 0 0 0 0.1-0.1 0.1-0.2 0.3-0.4 0.5-0.7 0.7-0.2 0.2-0.4 0.4-0.7 0.6l-0.3 0.3c-0.3 0.3-0.7 0.5-1.1 0.7l-6.6 3.8 12.7 7.4 6.6-3.8c0.4-0.2 0.7-0.5 1.1-0.7l0.3-0.3c0.2-0.2 0.4-0.4 0.7-0.6l0.1-0.1c0.2-0.2 0.4-0.4 0.5-0.6l0.1-0.1s0-0.1 0.1-0.1c0.1-0.1 0.1-0.2 0.2-0.2 0.1-0.1 0.2-0.2 0.3-0.4 0.1-0.1 0.1-0.2 0.2-0.3 0.1-0.1 0.1-0.2 0.2-0.3 0.1-0.1 0.1-0.2 0.2-0.3 0.1-0.1 0.1-0.2 0.2-0.3v-0.1c0-0.1 0.1-0.1 0.1-0.2s0.1-0.2 0.1-0.3c0-0.1 0.1-0.2 0.1-0.3v-0.1-0.1c0-0.1 0-0.1 0.1-0.2 0-0.2 0.1-0.3 0.1-0.5 0-0.1 0-0.2 0.1-0.4v-0.1c0 0.1 0 0.1 0 0z" fill="#ACC5EA" /><path d="M409.9 353.1l-12.7-7.4-0.1-33.9 12.7 7.4z" fill="#ACC5EA" /><path d="M520.3 255.4l-9.5 18.8 10.6 14.6-5.2 3-8.4-12-5 9.8 0.1 9.9-4.5 2.6-0.1-34 4.5-2.6v17.1l12.1-24.1zM488.9 273.5l0.1 34-4.1 2.4-13.7-16.1v23.9l-4.5 2.6-0.1-34 4.2-2.3 13.7 16-0.1-23.9zM450 296l10.9 27.7-4.8 2.8-2.1-5.7-11.7 6.7-2 8-4.8 2.8 10.7-40.2 3.8-2.1z m-6.3 26.4l9.1-5.3-4.5-12.5-4.6 17.8M426.3 326.2c2.3-0.3 4.5 1 4.5 5.3 0 6.3-3.7 11.7-8.9 14.7l-12 6.9-0.1-34 11.5-6.6c5.5-3.2 8.9-1.6 9 4.2 0 3.6-2 7.4-4 9.5z m-4.8 15.6c3.1-1.8 4.9-5 4.8-8 0-3-1.8-4.1-4.9-2.3l-7.1 4.1V346l7.2-4.2m-7.2-20.6v9.7l6.6-3.8c2.9-1.7 4.8-4.5 4.8-7.6 0-3.2-2-3.7-4.8-2.1l-6.6 3.8" fill="#FFFFFF" /><path d="M423.6 311.4c0.6-0.2 1.1-0.4 1.6-0.4 0.6-0.1 1.1-0.1 1.5 0h0.1c0.5 0.1 0.9 0.2 1.3 0.4l-12.7-7.4c-0.1-0.1-0.2-0.1-0.4-0.2-0.1-0.1-0.2-0.1-0.4-0.1-0.1 0-0.3-0.1-0.4-0.1h-0.1-0.9c-0.2 0-0.4 0-0.7 0.1-0.3 0-0.5 0.1-0.8 0.2-0.3 0.1-0.5 0.2-0.8 0.3-0.1 0-0.2 0.1-0.3 0.1-0.1 0-0.1 0-0.2 0.1-0.6 0.2-1.2 0.5-1.8 0.9l-11.5 6.6 12.7 7.4 11.5-6.6c0.7-0.4 1.3-0.7 2-1 0.1-0.2 0.2-0.2 0.3-0.3z" fill="#ACC5EA" /><path d="M683 420.2c-0.2-0.1-0.3-0.2-0.5-0.3l-2.4-1.2-0.6-0.3c-0.5-0.2-0.9-0.4-1.4-0.6-0.3-0.1-0.6-0.2-0.9-0.4-0.3-0.1-0.5-0.2-0.8-0.3-0.9-0.3-1.9-0.7-2.9-1h-0.2c-0.9-0.3-1.9-0.5-2.9-0.7-0.3-0.1-0.6-0.1-0.9-0.2-0.3-0.1-0.6-0.1-0.9-0.2-0.5-0.1-1.1-0.2-1.7-0.2-0.2 0-0.4-0.1-0.7-0.1-0.9-0.1-1.9-0.2-2.9-0.3H657.6c-0.5 0-1.1 0.1-1.6 0.1-0.4 0-0.8 0-1.1 0.1-1.2 0.1-2.3 0.2-3.5 0.4h-0.1c-1.3 0.2-2.6 0.4-3.9 0.7l-1.2 0.3-2.4 0.6c-0.1 0-0.2 0.1-0.2 0.1-1.5 0.4-3.1 0.9-4.6 1.4l-0.9 0.3c-1.3 0.4-2.5 0.9-3.8 1.4-0.2 0.1-0.3 0.1-0.5 0.2-1 0.4-2.1 0.9-3.1 1.4-0.1 0.1-0.3 0.1-0.4 0.2-1.2 0.5-2.3 1.1-3.5 1.7-0.3 0.2-0.7 0.4-1 0.5-1.3 0.7-2.6 1.4-4 2.2-1.4 0.8-2.8 1.6-4.1 2.5-0.4 0.3-0.9 0.6-1.3 0.9-0.9 0.6-1.8 1.2-2.8 1.8-0.5 0.4-1 0.7-1.5 1.1-0.8 0.6-1.7 1.2-2.5 1.8l-1.5 1.2c-0.8 0.6-1.7 1.3-2.5 2-0.5 0.4-1 0.8-1.4 1.2-0.9 0.8-1.9 1.6-2.8 2.4-0.3 0.3-0.7 0.6-1.1 0.9-1.3 1.1-2.5 2.3-3.8 3.4-0.3 0.2-0.5 0.5-0.8 0.8-0.8 0.8-1.7 1.6-2.5 2.4l-0.4 0.4c-1.5 1.5-2.9 3-4.4 4.5-0.1 0.1-0.1 0.2-0.2 0.2-1.4 1.5-2.7 3-4 4.5l-0.4 0.4-1.5 1.8c-0.5 0.6-1.1 1.3-1.6 1.9-0.7 0.8-1.3 1.6-2 2.5-0.5 0.6-1 1.3-1.5 1.9-0.1 0.1-0.2 0.2-0.3 0.4-0.2 0.2-0.3 0.4-0.5 0.6-1.6 2.1-3.2 4.3-4.8 6.5-0.2 0.2-0.3 0.4-0.5 0.7-0.1 0.1-0.1 0.2-0.2 0.3-1.5 2.1-2.9 4.3-4.4 6.5-0.1 0.2-0.3 0.4-0.4 0.6-0.2 0.3-0.4 0.6-0.6 1-1.1 1.8-2.2 3.6-3.3 5.5-0.2 0.3-0.4 0.6-0.5 0.9-0.1 0.1-0.1 0.2-0.2 0.3-1.2 2.1-2.4 4.2-3.6 6.4-0.1 0.2-0.2 0.3-0.3 0.5-0.2 0.4-0.4 0.7-0.5 1.1-0.9 1.7-1.8 3.4-2.6 5.2-0.2 0.4-0.4 0.7-0.5 1.1-0.1 0.2-0.2 0.4-0.3 0.7-1 2.2-2.1 4.4-3 6.6 0 0.1-0.1 0.1-0.1 0.2-0.1 0.2-0.2 0.5-0.3 0.7-0.9 2-1.7 4-2.5 6-0.1 0.3-0.3 0.6-0.4 1-0.1 0.3-0.2 0.5-0.3 0.8-0.9 2.4-1.8 4.8-2.6 7.2v0.1c-0.5 1.6-1 3.2-1.5 4.7-0.1 0.4-0.3 0.9-0.4 1.3-0.3 0.9-0.5 1.8-0.8 2.7-0.1 0.3-0.1 0.6-0.2 0.9-0.2 0.7-0.4 1.5-0.6 2.2-0.3 1-0.5 2-0.7 3-0.2 0.8-0.3 1.5-0.5 2.3-0.1 0.5-0.2 1-0.4 1.6-0.1 0.4-0.1 0.7-0.2 1.1-0.2 1.1-0.4 2.3-0.6 3.4-0.1 0.8-0.3 1.6-0.4 2.3-0.2 1.2-0.4 2.3-0.5 3.5-0.1 0.5-0.2 1.1-0.2 1.6 0 0.2-0.1 0.5-0.1 0.7-0.1 0.5-0.1 1.1-0.2 1.6l-0.3 3.3c-0.1 0.6-0.1 1.1-0.1 1.7-0.1 1.1-0.1 2.2-0.2 3.3 0 0.5-0.1 1-0.1 1.5-0.1 1.6-0.1 3.2-0.1 4.7 0.1 27.1 9.7 46.2 25.1 55.2l14.8 8.6c-15.5-9-25-28.1-25.1-55.2 0-1.6 0-3.1 0.1-4.7 0-0.5 0-1 0.1-1.5 0.1-1.1 0.1-2.2 0.2-3.3 0-0.6 0.1-1.1 0.1-1.7l0.3-3.3c0.1-0.5 0.1-1.1 0.2-1.6 0.1-0.8 0.2-1.6 0.3-2.3 0.2-1.2 0.3-2.3 0.5-3.5 0.1-0.8 0.3-1.6 0.4-2.3 0.2-1.1 0.4-2.2 0.6-3.4l0.6-2.7c0.2-0.8 0.3-1.5 0.5-2.3 0.2-1 0.5-2 0.7-3 0.2-0.7 0.4-1.5 0.6-2.2 0.3-1.2 0.7-2.4 1-3.6 0.1-0.4 0.3-0.9 0.4-1.3 0.5-1.6 1-3.3 1.6-4.9 0.8-2.4 1.7-4.8 2.6-7.2 0.2-0.6 0.5-1.2 0.7-1.8 0.8-2 1.6-4 2.5-6 0.1-0.3 0.2-0.6 0.4-0.9l3-6.6c0.3-0.6 0.6-1.1 0.8-1.7 0.8-1.7 1.7-3.5 2.6-5.2 0.3-0.5 0.5-1.1 0.8-1.6 1.2-2.2 2.3-4.3 3.6-6.4 0.2-0.4 0.5-0.8 0.7-1.2 1.1-1.8 2.2-3.7 3.3-5.5 0.3-0.5 0.7-1.1 1-1.6 1.4-2.2 2.9-4.4 4.4-6.5 0.2-0.3 0.5-0.6 0.7-1 1.6-2.2 3.2-4.4 4.8-6.5 0.2-0.3 0.5-0.7 0.7-1 0.5-0.7 1-1.3 1.6-2 0.7-0.8 1.3-1.6 2-2.4 0.5-0.7 1.1-1.3 1.6-1.9 0.6-0.8 1.3-1.5 1.9-2.2 1.3-1.5 2.7-3 4.1-4.5 0.1-0.1 0.1-0.2 0.2-0.2 1.4-1.5 2.9-3 4.4-4.5 0.9-0.9 1.9-1.8 2.8-2.8 0.3-0.2 0.5-0.5 0.8-0.8 1.3-1.2 2.5-2.3 3.8-3.4 0.3-0.3 0.7-0.6 1-0.9 0.9-0.8 1.9-1.6 2.8-2.4 0.5-0.4 1-0.8 1.4-1.2 0.8-0.7 1.7-1.3 2.5-2l1.5-1.2c0.8-0.6 1.7-1.2 2.5-1.8 0.5-0.4 1-0.7 1.5-1.1 0.9-0.6 1.8-1.2 2.8-1.8 0.4-0.3 0.9-0.6 1.3-0.9 1.4-0.9 2.7-1.7 4.1-2.5 1.3-0.8 2.7-1.5 4-2.2 0.3-0.2 0.7-0.4 1-0.5 1.2-0.6 2.3-1.2 3.5-1.7 0.1-0.1 0.3-0.1 0.4-0.2 1.2-0.6 2.4-1.1 3.6-1.6 1.3-0.5 2.5-1 3.8-1.5l0.9-0.3c1.6-0.5 3.1-1 4.6-1.4 0.9-0.2 1.8-0.5 2.7-0.7 0.4-0.1 0.8-0.2 1.3-0.3 1.3-0.3 2.6-0.5 3.9-0.7h0.1c1.2-0.2 2.3-0.3 3.5-0.4 0.4 0 0.8-0.1 1.1-0.1 0.8-0.1 1.7-0.1 2.5-0.1h4.5c1.1 0.1 2.2 0.2 3.2 0.3 0.2 0 0.4 0.1 0.7 0.1 0.9 0.1 1.7 0.3 2.6 0.4 0.3 0.1 0.6 0.1 0.9 0.2 1 0.2 1.9 0.4 2.9 0.7h0.2c1 0.3 2 0.6 2.9 1 0.3 0.1 0.5 0.2 0.8 0.3 0.8 0.3 1.5 0.6 2.3 1l0.6 0.3c1 0.5 1.9 1 2.8 1.5l-14.9-8.5z" fill="#C68620" /><path d="M636.6 434.8c47.5-27.4 86.2-5.4 86.4 49.2 0.2 54.6-38.3 121.2-85.8 148.6s-86.2 5.4-86.3-49.2c-0.2-54.6 38.2-121.1 85.7-148.6z" fill="#FFCD2E" /><path d="M645.4 485.7c1.4-0.8 2.8-1 3.9-0.4 2.1 1.2 2.2 5.2 0 8.9l-12.7 22.1 11.8-6.8c3-1.8 5.5-0.4 5.5 3.1s-2.4 7.7-5.5 9.5l-14.1 8.2v8.4l14.1-8.1c3-1.8 5.5-0.3 5.5 3.1 0 3.5-2.4 7.7-5.5 9.5l-14.1 8.2v11.2c0 3.5-2.4 7.7-5.5 9.5-3 1.7-5.5 0.3-5.5-3.1v-11.2l-14.1 8.1c-3 1.8-5.5 0.3-5.5-3.1 0-3.5 2.4-7.7 5.5-9.5l14.1-8.1v-8.4l-14.1 8.1c-3 1.8-5.5 0.4-5.5-3.1s2.4-7.7 5.5-9.5l11.8-6.8-12.8-7.3c-2.2-1.2-2.2-5.2 0-8.9 1.1-1.9 2.5-3.3 3.9-4.1 1.4-0.8 2.8-1 3.9-0.4l12.8 7.3 12.7-22.1c1.1-2 2.5-3.5 3.9-4.3z" fill="#C68620" /><path d="M636.2 578.6v-11.2l-10.8-6.3v11.2c0 1.7 0.6 3 1.6 3.5l10.8 6.3c-1-0.6-1.6-1.8-1.6-3.5zM662.4 539.8c0.3-0.1 0.6-0.2 0.9-0.2h1c0.3 0.1 0.5 0.2 0.8 0.3l-10.8-6.3c-0.1 0-0.2-0.1-0.3-0.1-0.1 0-0.2-0.1-0.3-0.1h-0.2-0.8-0.1H652.3c-0.2 0-0.3 0.1-0.5 0.1-0.1 0-0.1 0.1-0.2 0.1s-0.1 0-0.2 0.1c-0.1 0-0.2 0-0.2 0.1-0.3 0.1-0.5 0.2-0.8 0.4l-14.1 8.1 10.8 6.3 14.1-8.1c0.3-0.2 0.7-0.3 1-0.5 0.1-0.2 0.2-0.2 0.2-0.2zM662.4 518.7c0.3-0.1 0.6-0.2 0.9-0.2h1c0.3 0.1 0.6 0.2 0.8 0.3l-10.8-6.3c-0.1-0.1-0.2-0.1-0.3-0.1-0.1 0-0.2-0.1-0.3-0.1h-0.2-0.8-0.1H652.3c-0.2 0-0.3 0.1-0.5 0.1-0.1 0-0.1 0.1-0.2 0.1s-0.1 0-0.2 0.1c-0.1 0-0.2 0-0.2 0.1-0.3 0.1-0.5 0.2-0.8 0.4l-11.8 6.8 10.8 6.3 11.8-6.8c0.3-0.2 0.7-0.3 1-0.5 0-0.1 0.1-0.1 0.2-0.2zM636.2 554.8l-10.8-6.3v-8.4l10.7 6.3z" fill="#E8CFAC" /><path d="M616.7 570.9l0.3-1.2v-0.1c0.1-0.4 0.3-0.9 0.5-1.3s0.4-0.9 0.6-1.3c0.2-0.4 0.5-0.8 0.8-1.2l0.1-0.1c0.3-0.3 0.5-0.7 0.8-1l0.2-0.2c0.2-0.2 0.5-0.4 0.7-0.6l0.3-0.3c0.3-0.3 0.7-0.5 1-0.7l14.1-8.1-10.8-6.3-14.1 8.1c-0.4 0.2-0.7 0.4-1 0.7l-0.3 0.3c-0.2 0.1-0.3 0.3-0.5 0.4-0.1 0.1-0.1 0.2-0.2 0.2l-0.2 0.2-0.2 0.2c-0.2 0.2-0.3 0.4-0.4 0.5-0.1 0.1-0.1 0.1-0.1 0.2l-0.1 0.1c0 0.1-0.1 0.1-0.1 0.2-0.1 0.2-0.2 0.3-0.3 0.5-0.1 0.2-0.2 0.3-0.3 0.5-0.1 0.1-0.1 0.3-0.2 0.4-0.1 0.2-0.2 0.3-0.2 0.5-0.1 0.1-0.1 0.3-0.2 0.4-0.1 0.2-0.1 0.3-0.2 0.5s-0.1 0.3-0.2 0.5c0 0.1-0.1 0.2-0.1 0.3v0.1c0 0.1 0 0.1-0.1 0.2-0.1 0.2-0.1 0.4-0.2 0.6 0 0.1 0 0.3-0.1 0.4v0.4c0 0.4-0.1 0.7-0.1 1.1 0 1.7 0.6 2.9 1.6 3.5l10.8 6.3c-1-0.6-1.6-1.8-1.6-3.5 0-0.4 0-0.8 0.1-1.3-0.1 0.1-0.1 0-0.1-0.1zM656 497.3l0.2-0.2c0.2-0.2 0.4-0.4 0.7-0.6l0.3-0.3c0.3-0.3 0.7-0.5 1-0.7 0.3-0.2 0.6-0.3 1-0.4 0.1 0 0.1 0 0.2-0.1 0.3-0.1 0.6-0.2 0.9-0.2h1l0.9 0.3-10.8-6.3c-0.1 0-0.2-0.1-0.3-0.1-0.1 0-0.2-0.1-0.3-0.1-0.1 0-0.2 0-0.3-0.1H649.6h-0.1-0.1c-0.2 0-0.3 0.1-0.5 0.1-0.1 0-0.2 0.1-0.3 0.1-0.1 0-0.1 0-0.2 0.1-0.1 0-0.1 0-0.2 0.1-0.3 0.1-0.5 0.2-0.8 0.4-0.3 0.2-0.7 0.4-1 0.7l-0.3 0.3c-0.2 0.2-0.4 0.3-0.5 0.5 0 0-0.1 0.1-0.1 0.2l-0.2 0.2-0.3 0.3c-0.1 0.2-0.3 0.3-0.4 0.5l-0.1 0.1s0 0.1-0.1 0.1c-0.1 0.1-0.1 0.2-0.2 0.3-0.1 0.2-0.2 0.3-0.3 0.5-0.1 0.2-0.2 0.3-0.3 0.5v0.1l-12.7 22.1 10.8 6.3 12.7-22.1c0.3-0.4 0.5-0.9 0.8-1.3 0 0 0-0.1 0.1-0.1 0.1-0.6 0.4-0.9 0.7-1.2z" fill="#E8CFAC" /><path d="M616.6 549.9l0.3-1.2v-0.1c0.1-0.4 0.3-0.9 0.5-1.3s0.4-0.9 0.6-1.3c0.2-0.4 0.5-0.8 0.8-1.2 0 0 0-0.1 0.1-0.1 0.3-0.3 0.5-0.7 0.8-1l0.2-0.2c0.2-0.2 0.5-0.4 0.7-0.6l0.3-0.3c0.3-0.3 0.7-0.5 1-0.7l11.8-6.8-10.8-6.3-11.8 6.8c-0.4 0.2-0.7 0.4-1 0.7l-0.3 0.3c-0.2 0.1-0.3 0.3-0.5 0.4l-0.2 0.2-0.2 0.2-0.2 0.2c-0.2 0.2-0.3 0.4-0.4 0.5 0 0.1-0.1 0.1-0.1 0.2l-0.1 0.1c0 0.1-0.1 0.1-0.1 0.2-0.1 0.2-0.2 0.3-0.3 0.5-0.1 0.2-0.2 0.3-0.3 0.5-0.1 0.1-0.1 0.3-0.2 0.4-0.1 0.2-0.2 0.3-0.2 0.5-0.1 0.1-0.1 0.3-0.2 0.4-0.1 0.2-0.1 0.3-0.2 0.5s-0.1 0.3-0.2 0.5c0 0.1-0.1 0.2-0.1 0.3v0.1c0 0.1 0 0.1-0.1 0.2-0.1 0.2-0.1 0.4-0.2 0.6 0 0.1 0 0.3-0.1 0.4v0.4c0 0.4-0.1 0.7-0.1 1.1 0 1.7 0.6 2.9 1.6 3.5l10.8 6.3c-1-0.6-1.6-1.8-1.6-3.5 0-0.4 0-0.8 0.1-1.3-0.1 0.1-0.1 0-0.1-0.1z" fill="#E8CFAC" /><path d="M628.7 514.4l-10.8-6.3 12.9 7.3 10.8 6.3z" fill="#8D929A" /><path d="M658.2 495.5c1.4-0.8 2.8-1 3.9-0.4 2.1 1.2 2.2 5.2 0 8.9l-12.7 22.1 11.8-6.8c3-1.8 5.5-0.4 5.5 3.1s-2.4 7.7-5.5 9.5l-14.1 8.2v8.4l14.1-8.1c3-1.8 5.5-0.3 5.5 3.1 0 3.5-2.4 7.7-5.5 9.5l-14.1 8.2v11.2c0 3.5-2.4 7.7-5.5 9.5-3 1.7-5.5 0.3-5.5-3.1v-11.2l-14.1 8.1c-3 1.8-5.5 0.3-5.5-3.1 0-3.5 2.4-7.7 5.5-9.5l14.1-8.1v-8.4l-14.1 8.1c-3 1.8-5.5 0.4-5.5-3.1s2.4-7.7 5.5-9.5l11.8-6.8L621 528c-2.2-1.2-2.2-5.2 0-8.9 1.1-1.9 2.5-3.3 3.9-4.1 1.4-0.8 2.8-1 3.9-0.4l12.8 7.3 12.7-22.1c1.1-2 2.5-3.5 3.9-4.3z" fill="#FFFFFF" /><path d="M621 527.8l-10.8-6.3c-1.3-0.7-1.8-2.5-1.6-4.6l10.8 6.3c-0.2 2.1 0.3 3.8 1.6 4.6" fill="#E8CFAC" /><path d="M619.4 523.2l-10.8-6.3c0-0.3 0.1-0.5 0.1-0.8l10.8 6.3c0 0.3 0 0.5-0.1 0.8M619.6 522.4l-10.8-6.3c0-0.2 0.1-0.4 0.2-0.6l10.8 6.3c-0.1 0.2-0.2 0.4-0.2 0.6" fill="#E8CFAC" /><path d="M619.7 521.8l-10.8-6.3c0.1-0.2 0.1-0.4 0.2-0.6l10.8 6.3c-0.1 0.2-0.1 0.4-0.2 0.6" fill="#E8CFAC" /><path d="M619.9 521.2l-10.8-6.3c0.1-0.2 0.1-0.3 0.2-0.5l10.8 6.3c-0.1 0.2-0.2 0.3-0.2 0.5" fill="#E8CFAC" /><path d="M620.1 520.7l-10.8-6.3c0.1-0.2 0.1-0.3 0.2-0.5l10.8 6.3c-0.1 0.2-0.2 0.3-0.2 0.5" fill="#E8CFAC" /><path d="M620.3 520.2l-10.8-6.3c0.1-0.2 0.1-0.3 0.2-0.5l10.8 6.3c-0.1 0.2-0.2 0.4-0.2 0.5" fill="#E8CFAC" /><path d="M620.5 519.7l-10.8-6.3c0.1-0.2 0.2-0.3 0.2-0.5l10.8 6.3c-0.1 0.2-0.1 0.4-0.2 0.5" fill="#E8CFAC" /><path d="M620.7 519.3L610 513c0.1-0.1 0.2-0.3 0.2-0.4v-0.1l10.8 6.3v0.1c-0.1 0.1-0.2 0.2-0.3 0.4" fill="#E8CFAC" /><path d="M621 518.8l-10.8-6.3c0.1-0.2 0.2-0.3 0.3-0.5l10.8 6.3c-0.1 0.2-0.2 0.3-0.3 0.5M621.3 518.3l-10.8-6.3c0.1-0.2 0.2-0.3 0.3-0.5l10.8 6.3c-0.1 0.2-0.2 0.4-0.3 0.5" fill="#E8CFAC" /><path d="M621.6 517.9l-10.8-6.3c0.1-0.2 0.2-0.3 0.4-0.5l10.8 6.3c-0.2 0.1-0.3 0.3-0.4 0.5" fill="#E8CFAC" /><path d="M622 517.4l-10.8-6.3c0.1-0.2 0.3-0.4 0.4-0.5l10.8 6.3c-0.2 0.1-0.3 0.3-0.4 0.5M622.4 516.8l-10.8-6.3 0.6-0.6 10.8 6.3-0.6 0.6" fill="#E8CFAC" /><path d="M623 516.2l-10.8-6.3c0.6-0.6 1.2-1.1 1.8-1.4 0.3-0.1 0.5-0.3 0.8-0.4l10.8 6.3c-0.3 0.1-0.5 0.2-0.8 0.4-0.6 0.3-1.2 0.8-1.8 1.4M625.6 514.4l-10.8-6.3c0.2-0.1 0.4-0.2 0.6-0.2l10.8 6.3c-0.2 0-0.4 0.1-0.6 0.2M626.3 514.2l-10.8-6.3c0.2 0 0.3-0.1 0.5-0.1l10.8 6.3c-0.2 0-0.4 0-0.5 0.1" fill="#E8CFAC" /><path d="M626.7 514.1l-10.8-6.3h0.4l10.8 6.3c-0.1-0.1-0.2-0.1-0.4 0M627.1 514l-10.8-6.3h0.4l10.8 6.3h-0.4" fill="#E8CFAC" /><path d="M627.5 514l-10.8-6.3h0.3l10.8 6.3h-0.3" fill="#E8CFAC" /><path d="M627.8 514.1l-10.8-6.3c0.1 0 0.2 0 0.3 0.1l10.8 6.3c-0.1-0.1-0.2-0.1-0.3-0.1M628.1 514.1l-10.8-6.3c0.1 0 0.2 0.1 0.3 0.1l10.8 6.3c-0.1 0-0.2 0-0.3-0.1" fill="#E8CFAC" /><path d="M628.4 514.2l-10.8-6.3c0.1 0 0.2 0.1 0.3 0.1l10.8 6.3c-0.1 0-0.2 0-0.3-0.1M628.7 514.4l-10.8-6.3 10.8 6.3" fill="#E8CFAC" /></svg>