<?xml version="1.0" encoding="utf-8"?>
<!-- Uploaded to: SVG Repo, www.svgrepo.com, Generator: SVG Repo Mixer Tools -->
<svg width="800px" height="800px" viewBox="0 0 1024 1024" class="icon"  version="1.1" xmlns="http://www.w3.org/2000/svg"><path d="M906 568.2c-1.1 11-11.2 16.5-19.8 21.5-8 4.6-16 9.3-23.9 13.9-12.8 7.4-25.5 14.8-38.3 22.2-16 9.3-31.9 18.6-47.9 27.8-17.6 10.2-35.2 20.5-52.9 30.7-17.7 10.3-35.4 20.6-53.2 30.9-16.3 9.5-32.5 18.9-48.8 28.4-13.3 7.7-26.5 15.4-39.8 23.1-8.7 5-17.4 10.1-26.1 15.1-6.6 3.8-12.8 7.6-20.3 9.8-19.5 5.6-41.1 3.7-58.7-6.5-6.3-3.7-12.7-7.3-19-11-11.6-6.7-23.1-13.3-34.7-20-15.2-8.8-30.4-17.6-45.6-26.3-17.3-10-34.7-20-52-30-17.9-10.3-35.8-20.7-53.7-31-16.9-9.8-33.8-19.5-50.8-29.3l-43.2-24.9c-10.3-6-20.7-11.9-31-17.9-4.7-2.7-9.4-5.4-14.1-8.2-7.4-4.3-14.7-11.1-14.7-20.3 0 8.4 0 16.8-0.1 25.3 0 3-0.2 6.1 0 9.2 0.6 8.1 7 14.4 13.7 18.4 4.1 2.5 8.3 4.8 12.5 7.2 10.8 6.2 21.6 12.5 32.4 18.7 15.6 9 31.1 18 46.7 27 18.5 10.7 37.1 21.4 55.6 32.1 19.3 11.2 38.6 22.3 58 33.5 18.4 10.6 36.7 21.2 55.1 31.8 15.3 8.8 30.5 17.6 45.8 26.4 10.3 6 20.7 11.9 31 17.9 6 3.4 11.9 7.3 18.4 9.7 20.3 7.4 44.1 5.8 62.8-5.1 7.1-4.1 14.2-8.3 21.3-12.4 13.1-7.6 26.2-15.2 39.2-22.8 17.1-9.9 34.1-19.8 51.2-29.8 19.1-11.1 38.2-22.2 57.2-33.3l57.3-33.3c17.1-10 34.2-19.9 51.4-29.9 13.3-7.7 26.6-15.4 39.9-23.2 7.3-4.3 14.7-8.5 22-12.8 2.2-1.3 4.5-2.6 6.6-4.1 5.6-4.2 10-10 10.1-17.3 0.1-3.7 0-7.3 0-11 0-7.3 0-14.7 0.1-22 0.4 0.7 0.4 1.3 0.3 1.8 0 0.2 0.1-0.3 0 0zM906.1 566.6z" fill="#7A9EFD" /><path d="M891.8 546.6c19 11 19.1 28.9 0.2 39.9L547.6 786.7c-18.9 11-49.8 11-68.8 0L132.1 586.5c-19-11-19.1-28.9-0.2-39.9l344.4-200.2c18.9-11 49.8-11 68.8 0l346.7 200.2z" fill="#E4ECF9" /><path d="M538 517.2h0.1c0.5 0 1 0 1.5 0.1h0.1c0.5 0.1 0.9 0.3 1.3 0.5l-17.5-10.2h-0.1c-0.2-0.1-0.3-0.2-0.5-0.2-0.2-0.1-0.3-0.1-0.5-0.2-0.1 0-0.2-0.1-0.3-0.1h-0.1-0.1c-0.2 0-0.4-0.1-0.6-0.1h-0.8-0.5c-0.3 0-0.5 0.1-0.8 0.2-0.1 0-0.2 0.1-0.3 0.1-0.1 0-0.2 0.1-0.3 0.1-0.1 0.1-0.3 0.1-0.4 0.1-0.4 0.2-0.9 0.4-1.3 0.6l-52.3 30.2 17.5 10.2 52.3-30.2c0.6-0.3 1.2-0.6 1.7-0.8 0.1 0 0.2-0.1 0.3-0.1 0.6-0.1 1.1-0.2 1.6-0.2zM440.5 572.6L423 562.5l-0.1-40.4 17.5 10.2z" fill="#2A2ABC" /><path d="M379.1 616.5c0.1-0.7 0.3-1.4 0.5-2 0-0.1 0-0.1 0.1-0.2 0.2-0.7 0.5-1.5 0.8-2.2 0.3-0.7 0.7-1.5 1.1-2.2v-0.1c0.4-0.7 0.8-1.4 1.3-2 0-0.1 0.1-0.1 0.1-0.2 0.4-0.6 0.9-1.1 1.4-1.6l0.3-0.3c0.4-0.4 0.8-0.8 1.2-1.1 0.2-0.2 0.4-0.3 0.5-0.5 0.6-0.5 1.2-0.9 1.8-1.2l52.3-30.2-17.5-10.2-52.3 30.2c-0.6 0.3-1.2 0.8-1.8 1.2-0.2 0.1-0.4 0.3-0.5 0.5-0.3 0.2-0.6 0.5-0.8 0.7-0.1 0.1-0.2 0.3-0.4 0.4l-0.3 0.3c-0.1 0.1-0.2 0.2-0.3 0.4-0.3 0.3-0.5 0.6-0.8 0.9-0.1 0.1-0.2 0.2-0.3 0.4 0 0.1-0.1 0.1-0.1 0.2-0.1 0.1-0.2 0.2-0.2 0.3-0.2 0.3-0.4 0.5-0.5 0.8-0.2 0.3-0.3 0.5-0.5 0.8v0.2c-0.1 0.2-0.2 0.4-0.4 0.7-0.1 0.3-0.3 0.5-0.4 0.8-0.1 0.2-0.2 0.5-0.3 0.7-0.1 0.3-0.2 0.6-0.3 0.8l-0.3 0.9c0 0.1-0.1 0.3-0.1 0.4 0 0.1 0 0.1-0.1 0.2 0 0.1-0.1 0.2-0.1 0.3-0.1 0.4-0.2 0.7-0.3 1.1 0 0.2-0.1 0.4-0.1 0.6 0 0.1 0 0.2-0.1 0.3 0 0.1 0 0.2-0.1 0.3-0.1 0.6-0.1 1.2-0.1 1.8 0 2.2 0.6 3.9 1.6 5 0.3 0.4 0.7 0.7 1.1 0.9l17.5 10.2c-1.7-1-2.7-3-2.7-6 0-0.7 0.1-1.4 0.2-2.1-0.1 0-0.1-0.1-0.1-0.2z" fill="#2A2ABC" /><path d="M594.2 206.8c7.6-4.4 13.9-0.8 13.9 7.9l0.6 204.3c0 8.8-6.2 19.6-13.8 24L482 508.2l0.1 40.4 52.3-30.2c5.1-3 9.4-0.6 9.4 5.3s-4.2 13.2-9.3 16.1l-146.3 84.4c-5.1 3-9.4 0.6-9.4-5.3s4.2-13.2 9.3-16.1l52.3-30.2-0.1-40.4-112.9 65.2c-7.6 4.4-13.9 0.8-13.9-7.9l-0.5-204.3c0-8.8 6.2-19.6 13.8-24l267.4-154.4z" fill="#4040FF" /><path d="M313.6 589.5l-17.5-10.2c0 2.7 0.6 5 1.7 6.6 0.6 1 1.4 1.8 2.4 2.3l17.5 10.2c-2.5-1.5-4.1-4.5-4.1-8.9z" fill="#2A2ABC" /><path d="M586.6 195.7c-0.3-0.2-0.5-0.3-0.8-0.4h-0.1c-0.1 0-0.2-0.1-0.2-0.1-0.1 0-0.2-0.1-0.4-0.1-0.1 0-0.3-0.1-0.4-0.1-0.1 0-0.2 0-0.3-0.1h-0.1c-0.3 0-0.6-0.1-0.8-0.1h-1.9c-0.1 0-0.2 0.1-0.3 0.1-0.2 0-0.4 0.1-0.6 0.1-0.1 0-0.2 0-0.3 0.1-0.1 0-0.2 0.1-0.3 0.1-0.3 0.1-0.6 0.2-1 0.3-0.1 0-0.2 0.1-0.3 0.1-0.1 0-0.1 0.1-0.2 0.1-0.6 0.2-1.1 0.5-1.7 0.9L309.3 351c-0.7 0.4-1.4 0.9-2.1 1.5-0.1 0.1-0.2 0.2-0.4 0.3-0.7 0.5-1.3 1.1-1.9 1.7-0.1 0.1-0.1 0.1-0.2 0.1l-0.3 0.3c-0.3 0.3-0.6 0.6-0.9 1l-0.3 0.3c-0.1 0.1-0.2 0.2-0.2 0.3-0.2 0.2-0.4 0.4-0.5 0.7-0.1 0.1-0.2 0.3-0.3 0.4-0.1 0.1-0.2 0.3-0.3 0.4-0.1 0.2-0.3 0.3-0.4 0.5-0.1 0.1-0.2 0.2-0.3 0.4-0.1 0.2-0.3 0.4-0.4 0.6-0.1 0.1-0.2 0.3-0.3 0.4 0 0.1-0.1 0.1-0.1 0.2-0.2 0.4-0.5 0.8-0.7 1.2v0.1c0 0.1-0.1 0.2-0.1 0.2-0.2 0.3-0.3 0.6-0.5 0.8-0.1 0.1-0.1 0.3-0.2 0.4-0.1 0.1-0.1 0.3-0.2 0.4-0.1 0.1-0.1 0.2-0.2 0.4-0.2 0.3-0.3 0.6-0.4 1 0 0.1-0.1 0.1-0.1 0.2v0.1c-0.2 0.4-0.4 0.8-0.5 1.3 0 0.1-0.1 0.1-0.1 0.2-0.1 0.2-0.1 0.3-0.2 0.5s-0.2 0.4-0.2 0.6c-0.1 0.2-0.1 0.3-0.1 0.5-0.1 0.2-0.1 0.4-0.2 0.6 0 0.1-0.1 0.2-0.1 0.4-0.1 0.2-0.1 0.4-0.2 0.6-0.1 0.2-0.1 0.5-0.2 0.7 0 0.1 0 0.2-0.1 0.3 0 0.2-0.1 0.3-0.1 0.5-0.1 0.4-0.1 0.7-0.2 1.1 0 0.1 0 0.2-0.1 0.3v0.3c-0.1 0.8-0.2 1.6-0.2 2.4l0.6 204.3 17.5 10.2-0.6-204.5c0-0.8 0.1-1.6 0.2-2.4 0-0.2 0-0.4 0.1-0.6 0.1-0.4 0.1-0.7 0.2-1.1 0-0.3 0.1-0.5 0.2-0.8 0.1-0.2 0.1-0.5 0.2-0.7 0.1-0.3 0.2-0.7 0.3-1 0.1-0.2 0.1-0.4 0.2-0.6 0.1-0.4 0.2-0.7 0.4-1.1 0.1-0.1 0.1-0.3 0.2-0.4l0.6-1.5c0-0.1 0.1-0.1 0.1-0.2 0.2-0.4 0.4-0.9 0.6-1.3 0.1-0.1 0.1-0.3 0.2-0.4 0.2-0.4 0.4-0.8 0.7-1.2 0-0.1 0.1-0.2 0.1-0.2 0.3-0.5 0.6-1 0.9-1.4 0.1-0.1 0.2-0.3 0.3-0.4 0.2-0.3 0.5-0.7 0.7-1 0.1-0.2 0.3-0.4 0.4-0.5 0.2-0.3 0.4-0.5 0.6-0.8 0.2-0.2 0.4-0.4 0.5-0.7 0.2-0.2 0.4-0.4 0.5-0.6 0.3-0.3 0.6-0.7 0.9-1l0.5-0.5c0.6-0.6 1.3-1.2 1.9-1.7 0.1-0.1 0.2-0.2 0.4-0.3l2.1-1.5 267.4-154.4c0.6-0.3 1.2-0.6 1.7-0.9 0.2-0.1 0.4-0.1 0.5-0.2 0.3-0.1 0.7-0.2 1-0.3 0.2-0.1 0.4-0.1 0.6-0.2 0.2 0 0.4-0.1 0.6-0.1 0.3 0 0.5-0.1 0.7-0.1h1.5c0.4 0 0.7 0.1 1 0.1 0.1 0 0.2 0 0.2 0.1 0.3 0.1 0.5 0.1 0.8 0.2 0.1 0 0.2 0.1 0.2 0.1 0.3 0.1 0.6 0.3 0.9 0.4l-17.5-10.3z" fill="#2A2ABC" /><path d="M582.4 231.6c3.6-2.1 6.5-0.4 6.5 3.7l0.5 163.4c0 4.1-2.9 9.1-6.5 11.2L346.3 546.5c-3.6 2.1-6.5 0.4-6.5-3.7l-0.5-163.4c0-4.1 2.9-9.1 6.5-11.2l236.6-136.6z" fill="#2A2ABC" /><path d="M457.8 492.2c5.8-3.4 10.6-0.7 10.6 6.1 0 6.7-4.7 14.9-10.5 18.3-5.9 3.4-10.6 0.7-10.6-6.1-0.1-6.8 4.7-15 10.5-18.3z" fill="#FFFFFF" /><path d="M513.4 376.3l-12.3-7.2-0.3-0.3 12.3 7.2 0.3 0.3" fill="#674611" /><path d="M509.4 370.8l-12.3-7.1 3.7 5.1 12.3 7.2z" fill="#ACC5EA" /><path d="M512.5 326.7c1.6-0.9 2.7 0.5 1.9 2.6L503.3 358c-0.4 1.1-1.1 1.9-1.9 2.3-0.7 0.4-1.4 0.4-1.9-0.2l-3.7-5.1-33.4 41.7c-0.6 0.8-1.3 1.3-1.9 1.7-1.3 0.8-2.6 0.7-3.4-0.3l-9.5-13.3-33.2 41.4c-0.6 0.8-1.3 1.3-1.9 1.7-1.3 0.8-2.6 0.7-3.4-0.3-1.1-1.5-0.5-4.6 1.4-6.9l36.5-45.5c0.6-0.8 1.3-1.3 1.9-1.7 1.3-0.8 2.6-0.7 3.4 0.3l9.5 13.3 30.1-37.5-3.7-5.1c-0.8-1.2 0.2-3.8 1.8-4.7l22.5-13.1z" fill="#161691" /><path d="M463.2 395.7l12.3 7.2 30-37.5-3.7-5.2-12.3-7.1 3.7 5.1z" fill="#ACC5EA" /><path d="M527.5 342.4l-6.3-3.6-6-3.5s-0.1 0-0.1-0.1h-0.1-0.1-0.1-0.1H514.4h-0.1-0.1-0.1c-0.1 0-0.2 0.1-0.3 0.2l-22.4 13c-0.2 0.1-0.5 0.3-0.7 0.5h-0.1l-0.2 0.2c0 0.1-0.1 0.1-0.1 0.2s-0.1 0.1-0.1 0.2-0.1 0.1-0.1 0.2-0.1 0.1-0.1 0.2v0.1s0 0.1-0.1 0.1c0 0.1-0.1 0.1-0.1 0.2s-0.1 0.1-0.1 0.2-0.1 0.1-0.1 0.2-0.1 0.1-0.1 0.2 0 0.1-0.1 0.2c0 0.1 0 0.2-0.1 0.3v1.1c0 0.2 0.1 0.4 0.2 0.6l12.3 7.2c-0.1-0.2-0.2-0.4-0.2-0.6v-0.2-0.5-0.4c0.1-0.5 0.3-0.9 0.5-1.4 0.1-0.2 0.3-0.4 0.4-0.6 0.1-0.2 0.3-0.3 0.4-0.5 0.2-0.2 0.4-0.4 0.7-0.5l22.4-13c0.1-0.1 0.3-0.1 0.4-0.2h0.1c0.1 0 0.2-0.1 0.4-0.1h0.4s0.1 0 0.2 0.1zM470.7 413.9l-9.5-13.3-12.3-7.2 9.5 13.3 0.6 0.6 12.3 7.2c-0.2-0.2-0.4-0.3-0.6-0.6z" fill="#ACC5EA" /><path d="M453 381.9c-0.1 0-0.1-0.1-0.2-0.1s-0.1-0.1-0.2-0.1h-0.7-0.1-0.1-0.1c-0.1 0-0.2 0-0.3 0.1-0.1 0-0.1 0-0.2 0.1h-0.1-0.1c-0.2 0.1-0.4 0.2-0.5 0.3l-0.9 0.6-0.2 0.2-0.2 0.2c-0.1 0.1-0.3 0.3-0.4 0.5-0.1 0.1-0.1 0.2-0.2 0.3L412 429.5l12.3 7.2 36.5-45.5 0.9-0.9 0.2-0.2c0.3-0.2 0.6-0.5 0.9-0.6 0.2-0.1 0.5-0.2 0.7-0.3h0.1c0.2-0.1 0.4-0.1 0.6-0.1h0.7c0.2 0 0.4 0.1 0.6 0.2l-12.5-7.4z" fill="#ACC5EA" /><path d="M411.5 429.9c-0.1 0.1-0.2 0.2-0.2 0.3v0.1c0 0.1-0.1 0.1-0.1 0.2-0.1 0.1-0.1 0.2-0.2 0.3-0.1 0.1-0.1 0.2-0.2 0.3 0 0.1-0.1 0.2-0.1 0.3 0 0.1-0.1 0.2-0.1 0.3 0 0.1-0.1 0.2-0.1 0.3 0 0.1-0.1 0.3-0.1 0.4 0 0.1-0.1 0.3-0.1 0.4v0.2c0 0.1-0.1 0.3-0.1 0.4v0.1c0 0.5-0.1 0.9 0 1.3v0.2c0.1 0.4 0.2 0.8 0.4 1.1 0.2 0.2 0.4 0.4 0.6 0.5l12.3 7.2c-0.2-0.1-0.4-0.3-0.6-0.5-0.2-0.3-0.3-0.7-0.4-1.1v-0.2c-0.1-0.4-0.1-0.8 0-1.3 0-0.2 0-0.3 0.1-0.5v-0.1c0.1-0.3 0.1-0.6 0.2-0.9 0.1-0.3 0.2-0.6 0.4-0.9 0.1-0.3 0.3-0.6 0.5-0.9l0.6-0.9-12.3-7.2-0.1 0.1c-0.3 0.3-0.3 0.4-0.4 0.5z" fill="#ACC5EA" /><path d="M526 342.5c1.6-0.9 2.7 0.5 1.9 2.6l-11.1 28.7c-0.4 1.1-1.1 1.9-1.9 2.3-0.7 0.4-1.4 0.4-1.9-0.2l-3.7-5.1-33.3 41.7c-0.6 0.8-1.3 1.3-1.9 1.7-1.3 0.8-2.6 0.7-3.4-0.3l-9.5-13.3L428 442c-0.6 0.8-1.3 1.3-1.9 1.7-1.3 0.8-2.6 0.7-3.4-0.3-1.1-1.5-0.5-4.6 1.4-6.9l36.5-45.5c0.6-0.8 1.3-1.3 1.9-1.7 1.3-0.8 2.6-0.7 3.4 0.3l9.5 13.3 30.1-37.5-3.7-5.1c-0.8-1.2 0.2-3.8 1.8-4.7l22.4-13.1z" fill="#FFFFFF" /><path d="M674.3 507.4l-14.8-8.6c0 0.9 0.2 1.7 0.5 2.3s0.7 1.1 1.2 1.4l14.8 8.6c-1-0.6-1.7-1.9-1.7-3.7zM715.1 408.8s-0.1 0 0 0c-0.1-0.1-0.2-0.1-0.3-0.2-0.1 0-0.2-0.1-0.3-0.1h-0.2-0.8-0.1H713.1c-0.2 0-0.3 0.1-0.5 0.1-0.1 0-0.1 0.1-0.2 0.1s-0.1 0-0.2 0.1c-0.1 0-0.2 0.1-0.3 0.1-0.3 0.1-0.5 0.2-0.8 0.4l-45.9 26.5c-0.4 0.2-0.7 0.5-1.1 0.7l-0.3 0.3c-0.2 0.1-0.3 0.3-0.5 0.4l-0.2 0.2-0.2 0.2-0.2 0.2c-0.2 0.2-0.3 0.4-0.5 0.6-0.1 0.1-0.1 0.2-0.2 0.2l-0.1 0.1c0 0.1-0.1 0.1-0.1 0.2-0.1 0.2-0.2 0.3-0.3 0.5-0.1 0.2-0.2 0.3-0.3 0.5v0.1c-0.1 0.1-0.1 0.3-0.2 0.4-0.1 0.2-0.2 0.3-0.3 0.5-0.1 0.2-0.1 0.3-0.2 0.5s-0.1 0.3-0.2 0.5-0.1 0.4-0.2 0.5c0 0.1-0.1 0.2-0.1 0.3v0.1c0 0.1 0 0.1-0.1 0.2-0.1 0.2-0.1 0.4-0.2 0.7 0 0.1 0 0.3-0.1 0.4v0.4c0 0.4-0.1 0.8-0.1 1.1l0.2 53.1 14.8 8.6-0.2-53.1c0-0.4 0-0.9 0.1-1.3v-0.2c0.1-0.4 0.2-0.8 0.3-1.3v-0.1c0.1-0.5 0.3-0.9 0.5-1.4 0.2-0.5 0.4-0.9 0.7-1.3 0.2-0.4 0.5-0.8 0.8-1.2l0.1-0.1c0.3-0.4 0.5-0.7 0.8-1l0.2-0.2 0.7-0.7 0.3-0.3c0.3-0.3 0.7-0.5 1.1-0.7l45.9-26.5c0.4-0.2 0.7-0.4 1.1-0.5 0.1 0 0.1 0 0.2-0.1 0.3-0.1 0.6-0.2 0.9-0.2h1c0.3 0.1 0.6 0.2 0.8 0.3l-14.7-8.6z" fill="#C68620" /><path d="M725.8 417.8c3.2-1.8 5.7-0.3 5.8 3.3l0.2 53.1c0 3.6-2.6 8.1-5.7 10l-45.9 26.5c-3.2 1.8-5.8 0.3-5.8-3.3l-0.2-53.1c0-3.6 2.6-8.1 5.7-9.9l45.9-26.6z" fill="#FFCD2E" /><path d="M712.5 450.5c2.3-1.3 4.2-0.5 4.2 1.8s-1.9 5.3-4.2 6.6l-21.8 12.6c-2.3 1.3-4.2 0.5-4.2-1.8s1.9-5.3 4.2-6.6l21.8-12.6z" fill="#C68620" /><path d="M724.5 457.9c0.3-0.1 0.5-0.1 0.7-0.2H726c0.2 0 0.4 0.1 0.6 0.2l-10.1-5.9c-0.1 0-0.1-0.1-0.2-0.1s-0.1-0.1-0.2-0.1h-0.8-0.1-0.1-0.1c-0.1 0-0.3 0-0.4 0.1-0.1 0-0.1 0-0.2 0.1-0.1 0-0.1 0-0.2 0.1-0.1 0-0.1 0-0.2 0.1-0.2 0.1-0.4 0.2-0.7 0.3L691.6 465c-0.3 0.2-0.6 0.4-0.8 0.6-0.1 0.1-0.2 0.2-0.3 0.2-0.2 0.1-0.3 0.3-0.5 0.4l-0.1 0.1-0.4 0.4c-0.1 0.1-0.2 0.2-0.2 0.3 0 0 0 0.1-0.1 0.1v0.1c-0.1 0.1-0.2 0.3-0.3 0.4-0.1 0.1-0.2 0.2-0.2 0.4-0.1 0.1-0.1 0.2-0.2 0.3-0.1 0.1-0.1 0.2-0.2 0.3-0.1 0.1-0.1 0.2-0.2 0.3-0.1 0.1-0.1 0.2-0.1 0.3 0 0.1-0.1 0.2-0.1 0.3 0 0.1-0.1 0.2-0.1 0.3 0 0.1-0.1 0.2-0.1 0.3 0 0.1-0.1 0.3-0.1 0.4v1c0 1 0.4 1.8 1 2.1l10.1 5.9c-0.6-0.4-1-1.1-1-2.1 0-0.3 0-0.5 0.1-0.8v-0.1c0.1-0.3 0.1-0.6 0.2-0.9 0.1-0.3 0.2-0.6 0.4-0.9 0.1-0.3 0.3-0.6 0.5-0.9 0.2-0.3 0.4-0.6 0.6-0.8 0 0 0-0.1 0.1-0.1 0.2-0.2 0.4-0.5 0.6-0.7l0.1-0.1 0.5-0.5c0.1-0.1 0.2-0.2 0.3-0.2 0.3-0.2 0.5-0.4 0.8-0.6l21.8-12.6c0.3-0.2 0.6-0.3 0.8-0.4-0.1 0.1-0.1 0.1 0 0.1z" fill="#E8CFAC" /><path d="M723.5 458.3c2.3-1.3 4.2-0.5 4.2 1.8s-1.9 5.3-4.2 6.6l-21.8 12.6c-2.3 1.3-4.2 0.5-4.2-1.8s1.9-5.3 4.2-6.6l21.8-12.6z" fill="#FFFFFF" /><path d="M589.2 550.1l-14.8-8.6c0 1.8 0.7 3.1 1.7 3.7l14.8 8.6c-1-0.6-1.7-1.9-1.7-3.7zM629.9 451.5c-0.1-0.1-0.2-0.1-0.3-0.2-0.1 0-0.2-0.1-0.3-0.1h-0.2-0.8-0.1H627.9c-0.2 0-0.3 0.1-0.5 0.1-0.1 0-0.1 0.1-0.2 0.1s-0.1 0-0.2 0.1c-0.1 0-0.2 0.1-0.3 0.1-0.3 0.1-0.5 0.2-0.8 0.4L580 478.4c-0.4 0.2-0.7 0.5-1.1 0.7l-0.3 0.3c-0.2 0.1-0.3 0.3-0.5 0.4l-0.2 0.2-0.2 0.2-0.2 0.2c-0.2 0.2-0.3 0.4-0.5 0.6-0.1 0.1-0.1 0.2-0.2 0.2l-0.1 0.1c0 0.1-0.1 0.1-0.1 0.2-0.1 0.2-0.2 0.3-0.3 0.5-0.1 0.2-0.2 0.3-0.3 0.5v0.1c-0.1 0.1-0.1 0.3-0.2 0.4-0.1 0.2-0.2 0.3-0.3 0.5-0.1 0.2-0.1 0.3-0.2 0.5s-0.1 0.3-0.2 0.5-0.1 0.4-0.2 0.5c0 0.1-0.1 0.2-0.1 0.3v0.1c0 0.1 0 0.1-0.1 0.2-0.1 0.2-0.1 0.4-0.2 0.7 0 0.1 0 0.3-0.1 0.4v0.4c0 0.4-0.1 0.8-0.1 1.1l0.2 53.1 14.8 8.6-0.2-53.1c0-0.4 0-0.9 0.1-1.3v-0.2c0.1-0.4 0.2-0.8 0.3-1.3v-0.1c0.1-0.5 0.3-0.9 0.5-1.4 0.2-0.5 0.4-0.9 0.7-1.3 0.2-0.4 0.5-0.8 0.8-1.2l0.1-0.1c0.3-0.4 0.5-0.7 0.8-1l0.2-0.2 0.7-0.7 0.3-0.3c0.3-0.3 0.7-0.5 1.1-0.7l45.9-26.5c0.4-0.2 0.7-0.4 1.1-0.5 0.1 0 0.1 0 0.2-0.1 0.3-0.1 0.6-0.2 0.9-0.2h1c0.3 0.1 0.6 0.2 0.8 0.3l-14.7-8.5z" fill="#C68620" /><path d="M640.7 460.5c3.2-1.8 5.8-0.3 5.8 3.3l0.2 53.1c0 3.7-2.6 8.1-5.7 10l-46 26.5c-3.1 1.8-5.7 0.3-5.8-3.3L589 497c0-3.6 2.6-8.1 5.7-9.9l46-26.6z" fill="#FFCD2E" /><path d="M613.3 488c1.9-1.1 3.5 0.1 3.5 2.6v8.1l7-4c2.2-1.3 4-0.5 4 1.7s-1.8 5.1-4 6.3l-7 4v8.1c0 2.5-1.6 5.5-3.5 6.6-1.9 1.1-3.5-0.1-3.5-2.6v-8.1l-7 4c-2.2 1.3-4 0.5-4-1.7s1.8-5.1 4-6.3l7-4v-8.1c0-2.5 1.6-5.5 3.5-6.6z" fill="#C68620" /><path d="M621.1 526.1V518l-9.7-5.7v8.1c0 1.4 0.5 2.4 1.2 2.8l9.7 5.7c-0.8-0.4-1.2-1.4-1.2-2.8zM635.9 501.6c0.2-0.1 0.5-0.1 0.7-0.2H637.4c0.2 0 0.4 0.1 0.6 0.2l-9.7-5.7c-0.1 0-0.1-0.1-0.2-0.1s-0.1-0.1-0.2-0.1h-0.7-0.1-0.1-0.1c-0.1 0-0.3 0-0.4 0.1-0.1 0-0.1 0-0.2 0.1-0.1 0-0.1 0-0.2 0.1-0.1 0-0.1 0-0.2 0.1l-0.6 0.3-7 4 9.7 5.7 7-4c0.3-0.2 0.5-0.3 0.8-0.4 0-0.1 0.1-0.1 0.1-0.1z" fill="#E8CFAC" /><path d="M610.2 519.5c0.1-0.3 0.1-0.6 0.2-0.8 0.1-0.3 0.2-0.6 0.4-0.9 0.1-0.3 0.3-0.6 0.5-0.9 0.2-0.3 0.4-0.5 0.6-0.8l0.1-0.1 0.6-0.6 0.1-0.1c0.2-0.2 0.3-0.3 0.5-0.4 0.1-0.1 0.2-0.1 0.2-0.2 0.3-0.2 0.5-0.4 0.8-0.5l7-4-9.7-5.7-7 4c-0.3 0.2-0.5 0.3-0.8 0.5-0.1 0.1-0.2 0.1-0.2 0.2-0.2 0.1-0.3 0.3-0.5 0.4l-0.1 0.1c-0.1 0.1-0.2 0.2-0.3 0.4-0.1 0.1-0.2 0.2-0.2 0.3l-0.1 0.1v0.1c-0.1 0.1-0.2 0.2-0.3 0.4-0.1 0.1-0.2 0.2-0.2 0.3-0.1 0.1-0.1 0.2-0.2 0.2-0.1 0.1-0.1 0.2-0.2 0.3-0.1 0.1-0.1 0.2-0.2 0.3 0 0.1-0.1 0.2-0.1 0.3 0 0.1-0.1 0.2-0.1 0.3 0 0.1-0.1 0.2-0.1 0.3 0 0.1-0.1 0.2-0.1 0.3 0 0.1-0.1 0.2-0.1 0.4v1c0 1 0.4 1.7 1 2.1l9.7 5.7c-0.6-0.4-1-1.1-1-2.1 0-0.3 0-0.5 0.1-0.8-0.4 0-0.3-0.1-0.3-0.1z" fill="#E8CFAC" /><path d="M624.5 495.3c1.9-1.1 3.5 0.1 3.5 2.6v8.1l7-4c2.2-1.3 4-0.5 4 1.7s-1.8 5.1-4 6.3l-7 4v8.1c0 2.5-1.6 5.5-3.5 6.6-1.9 1.1-3.5-0.1-3.5-2.6V518l-7 4c-2.2 1.3-4 0.5-4-1.7s1.8-5.1 4-6.3l7-4v-8.1c0-2.5 1.6-5.5 3.5-6.6z" fill="#FFFFFF" /><path d="M621.1 500.9c0-0.3 0.1-0.6 0.2-0.8v-0.1l0.3-0.9c0.1-0.3 0.3-0.6 0.4-0.9 0.2-0.3 0.3-0.6 0.5-0.8v-0.1c0.2-0.3 0.4-0.5 0.6-0.7 0.1-0.2 0.3-0.3 0.4-0.4 0.3-0.3 0.6-0.5 0.9-0.7l0.6-0.3h0.1c0.2-0.1 0.4-0.1 0.5-0.1h0.5c0.2 0 0.3 0.1 0.5 0.2l-9.7-5.7c-0.1 0-0.1-0.1-0.2-0.1s-0.1 0-0.2-0.1h-0.1-0.7c-0.1 0-0.2 0-0.3 0.1h-0.1-0.1c-0.1 0-0.1 0-0.2 0.1s-0.3 0.1-0.4 0.2c-0.3 0.2-0.6 0.4-0.9 0.7 0 0-0.1 0-0.1 0.1-0.1 0.1-0.2 0.2-0.3 0.4l-0.3 0.3c-0.1 0.1-0.2 0.2-0.2 0.3 0 0 0 0.1-0.1 0.1v0.1l-0.1 0.1c-0.1 0.1-0.1 0.2-0.2 0.3-0.1 0.1-0.1 0.2-0.2 0.3 0 0.1-0.1 0.2-0.1 0.2-0.1 0.1-0.1 0.2-0.2 0.3 0 0.1-0.1 0.2-0.1 0.3-0.1 0.1-0.1 0.3-0.1 0.4 0 0.1-0.1 0.3-0.1 0.4v0.2c0 0.1-0.1 0.3-0.1 0.4 0 0.2-0.1 0.3-0.1 0.5v0.2c0 0.3-0.1 0.6-0.1 0.9v8.1l9.7 5.7V502c0-0.3 0-0.6 0.1-0.9v-0.2z" fill="#E8CFAC" /><path d="M644.8 563.5l-14.8-8.6c-0.1-0.1-0.2-0.1-0.3-0.1-0.1 0-0.2-0.1-0.3-0.1h-0.2-0.8-0.1H628c-0.2 0-0.3 0.1-0.5 0.1-0.1 0-0.1 0-0.2 0.1-0.1 0-0.1 0-0.2 0.1-0.1 0-0.2 0.1-0.3 0.1-0.3 0.1-0.5 0.2-0.8 0.4l-46 26.3c-0.4 0.2-0.7 0.5-1.1 0.7l-0.3 0.3c-0.2 0.1-0.3 0.3-0.5 0.4-0.1 0.1-0.2 0.2-0.2 0.3l-0.2 0.2-0.2 0.2c-0.2 0.2-0.3 0.4-0.5 0.6-0.1 0.1-0.1 0.2-0.2 0.2l-0.1 0.1c0 0.1-0.1 0.1-0.1 0.2-0.1 0.2-0.2 0.3-0.3 0.5-0.1 0.2-0.2 0.3-0.3 0.5v0.2c-0.1 0.1-0.1 0.2-0.2 0.4s-0.2 0.3-0.3 0.5c-0.1 0.2-0.2 0.3-0.2 0.5-0.1 0.2-0.1 0.3-0.2 0.5s-0.1 0.4-0.2 0.6c0 0.1-0.1 0.2-0.1 0.3v0.1c0 0.1 0 0.1-0.1 0.2-0.1 0.2-0.1 0.4-0.2 0.7 0 0.1 0 0.3-0.1 0.4v0.4c0 0.4-0.1 0.8-0.1 1.1l0.2 53.1 5.4 3.2-5.4-3.2c0 1.8 0.7 3.1 1.7 3.7l14.8 8.6c-1-0.6-1.7-1.9-1.7-3.7l-0.2-53.1c0-0.4 0-0.9 0.1-1.3v-0.2c0.1-0.4 0.2-0.8 0.3-1.3v-0.1c0.1-0.5 0.3-0.9 0.5-1.4 0.2-0.5 0.4-0.9 0.7-1.3v-0.1c0.2-0.4 0.5-0.8 0.8-1.2l0.1-0.1c0.3-0.4 0.5-0.7 0.8-1l0.2-0.2 0.7-0.7 0.3-0.3c0.3-0.3 0.7-0.5 1.1-0.7l45.9-26.5c0.4-0.2 0.7-0.4 1.1-0.5 0.1 0 0.1 0 0.2-0.1 0.3-0.1 0.6-0.2 0.9-0.2h0.1c0.3 0 0.6 0 0.9 0.1 0.4-0.1 0.7 0 1 0.1-0.1 0-0.1 0 0 0z" fill="#C68620" /><path d="M640.7 563.9c3.2-1.8 5.8-0.3 5.8 3.3l0.2 53.1c0 3.7-2.6 8.1-5.7 10l-46 26.5c-3.1 1.8-5.7 0.3-5.8-3.3l-0.2-53.1c0-3.6 2.6-8.1 5.7-10l46-26.5z" fill="#FFCD2E" /><path d="M615.2 616.1c2.3-1.4 4.2-0.3 4.2 2.5 0 2.7-1.9 6-4.2 7.3-2.3 1.3-4.2 0.2-4.2-2.5s1.9-6 4.2-7.3zM626.2 597.6c2.3-1.3 4.2-0.5 4.2 1.8s-1.9 5.3-4.2 6.7l-22 12.7c-2.3 1.3-4.2 0.5-4.2-1.8s1.9-5.3 4.2-6.7l22-12.7zM615.1 590.4c2.3-1.4 4.2-0.2 4.2 2.4 0 2.7-1.9 6-4.2 7.3-2.3 1.3-4.2 0.2-4.2-2.5 0-2.6 1.9-5.9 4.2-7.2z" fill="#C68620" /><path d="M622.1 630c0.1-0.3 0.1-0.6 0.2-0.9v-0.1c0.1-0.3 0.2-0.7 0.4-1 0.1-0.3 0.3-0.7 0.5-1l0.6-0.9s0-0.1 0.1-0.1c0.2-0.3 0.4-0.5 0.6-0.7 0-0.1 0.1-0.1 0.1-0.1 0.2-0.2 0.4-0.3 0.5-0.5 0.1-0.1 0.2-0.1 0.2-0.2 0.3-0.2 0.5-0.4 0.8-0.5 0.3-0.2 0.5-0.3 0.8-0.4 0 0 0.1 0 0.1-0.1 0.2-0.1 0.5-0.1 0.7-0.2H628.5c0.2 0 0.4 0.1 0.6 0.2l-10.2-5.9c-0.1 0-0.1-0.1-0.2-0.1s-0.1-0.1-0.2-0.1h-0.2-0.7-0.1H617.2c-0.1 0-0.2 0-0.4 0.1-0.1 0-0.1 0-0.2 0.1 0 0-0.1 0-0.1 0.1-0.1 0-0.1 0-0.2 0.1l-0.6 0.3c-0.3 0.2-0.5 0.3-0.8 0.5-0.1 0.1-0.2 0.1-0.2 0.2-0.1 0.1-0.2 0.2-0.4 0.3l-0.2 0.2-0.1 0.1-0.2 0.2c-0.1 0.1-0.2 0.3-0.3 0.4 0 0.1-0.1 0.1-0.1 0.2 0 0 0 0.1-0.1 0.1l-0.1 0.1c-0.1 0.1-0.2 0.2-0.2 0.4-0.1 0.1-0.1 0.2-0.2 0.4-0.1 0.1-0.1 0.2-0.2 0.3-0.1 0.1-0.1 0.2-0.2 0.4-0.1 0.1-0.1 0.2-0.2 0.4-0.1 0.1-0.1 0.3-0.2 0.4-0.1 0.1-0.1 0.3-0.1 0.4 0 0.1 0 0.1-0.1 0.2v0.2c0 0.2-0.1 0.3-0.1 0.5 0 0.1 0 0.2-0.1 0.3V624.6c0 0.3-0.1 0.6-0.1 0.8 0 1.3 0.5 2.3 1.2 2.7l10.2 5.9c-0.8-0.4-1.2-1.4-1.2-2.7 0-0.3 0-0.6 0.1-1 0.2-0.2 0.2-0.3 0.3-0.3z" fill="#E8CFAC" /><path d="M626.2 623.8c2.3-1.4 4.2-0.3 4.2 2.5 0 2.7-1.9 6-4.2 7.3-2.3 1.3-4.2 0.2-4.2-2.5-0.1-2.7 1.8-6 4.2-7.3z" fill="#FFFFFF" /><path d="M638.1 604.8c0.3-0.1 0.5-0.1 0.7-0.2H639.6c0.2 0 0.4 0.1 0.6 0.2l-10.2-5.9c-0.1 0-0.1-0.1-0.2-0.1s-0.1-0.1-0.2-0.1h-0.8-0.1-0.1-0.1c-0.1 0-0.3 0-0.4 0.1-0.1 0-0.1 0-0.2 0.1-0.1 0-0.1 0-0.2 0.1-0.1 0-0.1 0-0.2 0.1-0.2 0.1-0.4 0.2-0.7 0.3l-22 12.7c-0.3 0.2-0.6 0.4-0.8 0.6-0.1 0.1-0.2 0.2-0.3 0.2-0.2 0.1-0.3 0.3-0.5 0.4l-0.1 0.1-0.4 0.4c-0.1 0.1-0.2 0.2-0.2 0.3 0 0 0 0.1-0.1 0.1v0.1c-0.1 0.1-0.2 0.3-0.3 0.4-0.1 0.1-0.2 0.2-0.2 0.4-0.1 0.1-0.1 0.2-0.2 0.3-0.1 0.1-0.1 0.2-0.2 0.3-0.1 0.1-0.1 0.2-0.2 0.3-0.1 0.1-0.1 0.2-0.1 0.3 0 0.1-0.1 0.2-0.1 0.3 0 0.1-0.1 0.2-0.1 0.3 0 0.1-0.1 0.2-0.1 0.3 0 0.1-0.1 0.3-0.1 0.4v1c0 1.1 0.4 1.8 1 2.2l10.2 5.9c-0.6-0.4-1-1.1-1-2.2 0-0.3 0-0.5 0.1-0.8v-0.1c0.1-0.3 0.1-0.6 0.2-0.9 0.1-0.3 0.2-0.6 0.4-0.9 0.1-0.3 0.3-0.6 0.5-0.9 0.2-0.3 0.4-0.6 0.6-0.8 0 0 0-0.1 0.1-0.1 0.2-0.2 0.4-0.5 0.6-0.7l0.1-0.1 0.5-0.5c0.1-0.1 0.2-0.2 0.3-0.2 0.3-0.2 0.5-0.4 0.8-0.6l22-12.7c0.3-0.2 0.6-0.3 0.8-0.4h0.1z" fill="#E8CFAC" /><path d="M637.1 605.2c2.3-1.3 4.2-0.5 4.2 1.8s-1.9 5.3-4.2 6.7l-22 12.7c-2.3 1.3-4.2 0.5-4.2-1.8s1.9-5.3 4.2-6.7l22-12.7z" fill="#FFFFFF" /><path d="M627.7 597.5h0.7c0.2 0 0.4 0.1 0.6 0.2l-10.2-5.9c-0.1 0-0.1-0.1-0.2-0.1s-0.1-0.1-0.2-0.1h-0.1-0.7-0.1H617.2c-0.1 0-0.2 0-0.4 0.1-0.1 0-0.1 0-0.2 0.1 0 0-0.1 0-0.1 0.1-0.1 0-0.1 0-0.2 0.1l-0.6 0.3c-0.3 0.2-0.5 0.3-0.8 0.5-0.1 0.1-0.2 0.1-0.2 0.2-0.1 0.1-0.2 0.2-0.4 0.3l-0.2 0.2-0.1 0.1-0.2 0.2c-0.1 0.1-0.2 0.3-0.3 0.4 0 0.1-0.1 0.1-0.1 0.2 0 0 0 0.1-0.1 0.1l-0.1 0.1c-0.1 0.1-0.2 0.2-0.2 0.4-0.1 0.1-0.1 0.2-0.2 0.4-0.1 0.1-0.1 0.2-0.2 0.3-0.1 0.1-0.1 0.2-0.2 0.4-0.1 0.1-0.1 0.2-0.2 0.4-0.1 0.1-0.1 0.3-0.2 0.4-0.1 0.1-0.1 0.3-0.1 0.4 0 0.1 0 0.1-0.1 0.2v0.2c0 0.2-0.1 0.3-0.1 0.5 0 0.1 0 0.2-0.1 0.3V598.8c0 0.3-0.1 0.6-0.1 0.8 0 1.3 0.5 2.3 1.3 2.7l10.2 5.9c-0.8-0.4-1.2-1.4-1.3-2.7 0-0.3 0-0.6 0.1-1v-0.2c0.1-0.3 0.1-0.6 0.2-0.9v-0.1c0.1-0.3 0.2-0.7 0.4-1 0.1-0.3 0.3-0.7 0.5-1l0.6-0.9s0-0.1 0.1-0.1c0.2-0.3 0.4-0.5 0.6-0.7l0.1-0.1c0.2-0.2 0.4-0.3 0.5-0.5 0.1-0.1 0.2-0.1 0.2-0.2 0.3-0.2 0.5-0.4 0.8-0.5 0.3-0.2 0.5-0.3 0.8-0.4 0 0 0.1 0 0.1-0.1 0.5-0.2 0.8-0.3 1-0.3z" fill="#E8CFAC" /><path d="M626.1 598.1c2.3-1.4 4.2-0.2 4.2 2.4 0 2.7-1.9 6-4.2 7.3-2.3 1.3-4.2 0.2-4.2-2.5 0-2.6 1.8-5.9 4.2-7.2z" fill="#FFFFFF" /><path d="M715.1 512.2c-0.1 0-0.1 0 0 0-0.1-0.1-0.2-0.1-0.3-0.2-0.1 0-0.2-0.1-0.3-0.1h-0.2-0.8-0.1H713.1c-0.2 0-0.3 0.1-0.5 0.1-0.1 0-0.1 0.1-0.2 0.1s-0.1 0-0.2 0.1c-0.1 0-0.2 0.1-0.3 0.1-0.3 0.1-0.5 0.2-0.8 0.4l-45.9 26.5c-0.4 0.2-0.7 0.5-1.1 0.7l-0.3 0.3c-0.2 0.1-0.3 0.3-0.5 0.4-0.1 0.1-0.2 0.2-0.2 0.3l-0.2 0.2-0.2 0.2c-0.2 0.2-0.3 0.4-0.5 0.6-0.1 0.1-0.1 0.2-0.2 0.2l-0.1 0.1c0 0.1-0.1 0.1-0.1 0.2-0.1 0.2-0.2 0.3-0.3 0.5-0.1 0.2-0.2 0.3-0.3 0.5v0.2c-0.1 0.1-0.1 0.2-0.2 0.4s-0.2 0.3-0.3 0.5c-0.1 0.2-0.1 0.3-0.2 0.5s-0.1 0.3-0.2 0.5-0.1 0.4-0.2 0.5c0 0.1-0.1 0.2-0.1 0.3v0.1c0 0.1 0 0.1-0.1 0.2-0.1 0.2-0.1 0.4-0.2 0.7 0 0.1 0 0.3-0.1 0.4v0.4c0 0.4-0.1 0.8-0.1 1.1l0.2 53.1 5.4 3.2-5.4-3.2c0 1.8 0.7 3.1 1.7 3.7l14.8 8.6c-1-0.6-1.7-1.9-1.7-3.7l-0.2-53.1c0-0.4 0-0.9 0.1-1.3v-0.2c0.1-0.4 0.2-0.8 0.3-1.3v-0.1c0.1-0.5 0.3-0.9 0.5-1.4 0.2-0.5 0.4-0.9 0.7-1.3v-0.1c0.2-0.4 0.5-0.8 0.8-1.2l0.1-0.1c0.3-0.4 0.5-0.7 0.8-1l0.2-0.2 0.7-0.7 0.3-0.3c0.3-0.3 0.7-0.5 1.1-0.7l45.9-26.5c0.4-0.2 0.7-0.4 1-0.5 0.1 0 0.1 0 0.2-0.1 0.3-0.1 0.6-0.2 0.9-0.2h0.1c0.3 0 0.6 0 0.9 0.1 0.3 0.1 0.6 0.2 0.8 0.3l-14.6-8.8z" fill="#C68620" /><path d="M725.8 521.2c3.2-1.8 5.7-0.3 5.8 3.3l0.2 53.1c0 3.7-2.6 8.1-5.7 10l-45.9 26.5c-3.2 1.8-5.8 0.3-5.8-3.3l-0.2-53.1c0-3.6 2.6-8.1 5.7-10l45.9-26.5z" fill="#FFCD2E" /><path d="M712.1 561c2.3-1.3 4.2-0.5 4.2 1.8s-1.9 5.3-4.2 6.6l-21.9 12.7c-2.3 1.3-4.2 0.5-4.2-1.8s1.9-5.3 4.2-6.7l21.9-12.6zM712.1 544.7c2.3-1.3 4.2-0.5 4.2 1.8s-1.9 5.3-4.2 6.7l-21.9 12.7c-2.3 1.3-4.2 0.5-4.2-1.8s1.9-5.3 4.2-6.7l21.9-12.7z" fill="#C68620" /><path d="M724.1 568.4h0.8c0.2 0 0.4 0.1 0.6 0.2l-10.2-5.9c-0.1 0-0.1-0.1-0.2-0.1s-0.1-0.1-0.2-0.1h-0.8-0.1-0.1-0.1c-0.1 0-0.3 0-0.4 0.1-0.1 0-0.1 0-0.2 0.1-0.1 0-0.1 0-0.2 0.1-0.1 0-0.1 0-0.2 0.1-0.2 0.1-0.4 0.2-0.7 0.3l-21.9 12.7c-0.3 0.2-0.6 0.4-0.8 0.6-0.1 0.1-0.2 0.2-0.3 0.2-0.2 0.1-0.3 0.3-0.5 0.4l-0.1 0.1c-0.1 0.1-0.2 0.2-0.3 0.4l-0.3 0.3-0.1 0.1c-0.1 0.1-0.2 0.3-0.3 0.4-0.1 0.1-0.2 0.2-0.2 0.4v0.1c0 0.1-0.1 0.2-0.1 0.2-0.1 0.1-0.1 0.2-0.2 0.3-0.1 0.1-0.1 0.2-0.2 0.3 0 0.1-0.1 0.2-0.1 0.3 0 0.1-0.1 0.2-0.1 0.3 0 0.1-0.1 0.2-0.1 0.3 0 0.1-0.1 0.2-0.1 0.3 0 0.1-0.1 0.3-0.1 0.4v1c0 1 0.4 1.8 1 2.2l10.2 5.9c-0.6-0.4-1-1.1-1-2.2 0-0.3 0-0.6 0.1-0.8v-0.1c0.1-0.3 0.1-0.6 0.2-0.9 0.1-0.3 0.2-0.6 0.4-0.9 0.1-0.3 0.3-0.6 0.5-0.9 0.2-0.3 0.4-0.6 0.6-0.8l0.1-0.1c0.2-0.2 0.4-0.5 0.6-0.7l0.1-0.1 0.5-0.5c0.1-0.1 0.2-0.2 0.3-0.2 0.3-0.2 0.5-0.4 0.8-0.6l21.9-12.7c0.3-0.2 0.6-0.3 0.8-0.4 0.1 0 0.1 0 0.2-0.1 0 0.1 0.2 0 0.5 0z" fill="#E8CFAC" /><path d="M722.3 569c2.3-1.3 4.2-0.5 4.2 1.8s-1.9 5.3-4.2 6.6l-21.9 12.7c-2.3 1.3-4.2 0.5-4.2-1.8s1.9-5.3 4.2-6.7l21.9-12.6z" fill="#FFFFFF" /><path d="M724 552.1c0.1 0 0.1 0 0 0h0.8c0.2 0 0.4 0.1 0.6 0.2l-10.2-5.9c-0.1 0-0.1-0.1-0.2-0.1s-0.1-0.1-0.2-0.1h-0.8-0.2-0.1-0.1c-0.1 0-0.3 0-0.4 0.1-0.1 0-0.1 0-0.2 0.1-0.1 0-0.1 0-0.2 0.1-0.1 0-0.1 0-0.2 0.1-0.2 0.1-0.4 0.2-0.7 0.3L690 559.6c-0.3 0.2-0.6 0.4-0.8 0.6-0.1 0.1-0.2 0.2-0.3 0.2-0.2 0.1-0.3 0.3-0.5 0.4l-0.1 0.1-0.4 0.4c-0.1 0.1-0.2 0.2-0.2 0.3l-0.1 0.1v0.1c-0.1 0.1-0.2 0.3-0.3 0.4-0.1 0.1-0.2 0.2-0.2 0.4-0.1 0.1-0.1 0.2-0.2 0.3-0.1 0.1-0.1 0.2-0.2 0.3-0.1 0.1-0.1 0.2-0.2 0.3-0.1 0.1-0.1 0.2-0.1 0.3 0 0.1-0.1 0.2-0.1 0.3 0 0.1-0.1 0.2-0.1 0.3 0 0.1-0.1 0.2-0.1 0.3 0 0.1-0.1 0.3-0.1 0.4v1c0 0.5 0.1 1 0.3 1.3 0.2 0.4 0.4 0.6 0.8 0.8l10.2 5.9c-0.6-0.4-1-1.1-1-2.2 0-0.3 0-0.6 0.1-0.8v-0.1c0.1-0.3 0.1-0.6 0.2-0.9 0.1-0.3 0.2-0.6 0.4-0.9 0.1-0.3 0.3-0.6 0.5-0.9 0.2-0.3 0.4-0.6 0.6-0.8l0.1-0.1c0.2-0.2 0.4-0.5 0.6-0.7l0.1-0.1 0.5-0.5c0.1-0.1 0.2-0.2 0.3-0.2 0.3-0.2 0.5-0.4 0.8-0.6l21.9-12.7c0.3-0.2 0.6-0.3 0.8-0.4 0.1 0 0.1 0 0.2-0.1 0.2 0.1 0.4 0 0.6 0z" fill="#E8CFAC" /><path d="M722.3 552.7c2.3-1.3 4.2-0.5 4.2 1.8s-1.9 5.3-4.2 6.7l-21.9 12.7c-2.3 1.3-4.2 0.5-4.2-1.8s1.9-5.3 4.2-6.7l21.9-12.7z" fill="#FFFFFF" /></svg>