<?xml version="1.0" encoding="utf-8"?>
<!-- Uploaded to: SVG Repo, www.svgrepo.com, Generator: SVG Repo Mixer Tools -->
<svg width="800px" height="800px" viewBox="0 0 1024 1024" class="icon"  version="1.1" xmlns="http://www.w3.org/2000/svg"><path d="M905.8 538c-1.1 11-11.2 16.5-19.8 21.5-8 4.6-16 9.3-23.9 13.9-12.8 7.4-25.5 14.8-38.3 22.2-16 9.3-31.9 18.6-47.9 27.8-17.6 10.2-35.2 20.5-52.9 30.7-17.7 10.3-35.4 20.6-53.2 30.9-16.3 9.5-32.5 18.9-48.8 28.4-13.3 7.7-26.5 15.4-39.8 23.1-8.7 5-17.4 10.1-26.1 15.1-6.6 3.8-12.8 7.6-20.3 9.8-19.5 5.6-41.1 3.7-58.7-6.5-6.3-3.7-12.7-7.3-19-11-11.6-6.7-23.1-13.3-34.7-20-15.2-8.8-30.4-17.6-45.6-26.3-17.3-10-34.7-20-52-30-17.9-10.3-35.8-20.7-53.7-31-16.9-9.8-33.8-19.5-50.8-29.3l-43.2-24.9c-10.3-6-20.7-11.9-31-17.9-4.7-2.7-9.4-5.4-14.1-8.2-7.4-4.3-14.7-11.1-14.7-20.3 0 8.4 0 16.8-0.1 25.3 0 3-0.2 6.1 0 9.2 0.6 8.1 7 14.4 13.7 18.4 4.1 2.5 8.3 4.8 12.5 7.2 10.8 6.2 21.6 12.5 32.4 18.7 15.6 9 31.1 18 46.7 27 18.5 10.7 37.1 21.4 55.6 32.1 19.3 11.2 38.6 22.3 58 33.5 18.4 10.6 36.7 21.2 55.1 31.8 15.3 8.8 30.5 17.6 45.8 26.4 10.3 6 20.7 11.9 31 17.9 6 3.4 11.9 7.3 18.4 9.7 20.3 7.4 44.1 5.8 62.8-5.1 7.1-4.1 14.2-8.3 21.3-12.4 13.1-7.6 26.2-15.2 39.2-22.8 17.1-9.9 34.1-19.8 51.2-29.8 19.1-11.1 38.2-22.2 57.2-33.3l57.3-33.3c17.1-10 34.2-19.9 51.4-29.9 13.3-7.7 26.6-15.4 39.9-23.2 7.3-4.3 14.7-8.5 22-12.8 2.2-1.3 4.5-2.6 6.6-4.1 5.6-4.2 10-10 10.1-17.3 0.1-3.7 0-7.3 0-11 0-7.3 0-14.7 0.1-22 0.4 0.7 0.4 1.3 0.3 1.8 0 0.2 0-0.2 0 0zM905.9 536.4z" fill="#7A9EFD" /><path d="M891.6 516.5c19 11 19.1 28.9 0.2 39.9L547.4 756.5c-18.9 11-49.8 11-68.8 0L131.9 556.3c-19-11-19.1-28.9-0.2-39.9l344.4-200.2c18.9-11 49.8-11 68.8 0l346.7 200.3z" fill="#E4ECF9" /><path d="M467.4 581.4l-14.8-8.6c-0.3-0.2-0.6-0.4-0.9-0.7l14.8 8.6c0.3 0.3 0.6 0.5 0.9 0.7" fill="#212185" /><path d="M466.5 580.7l-14.8-8.6-30.2-31.5 14.8 8.6zM595.4 232.7c0.3-0.1 0.6-0.2 1-0.3 0.2-0.1 0.4-0.1 0.6-0.2 0.2 0 0.4-0.1 0.6-0.1 0.2 0 0.5-0.1 0.7-0.1h1.5c0.3 0 0.7 0.1 1 0.1 0.1 0 0.2 0 0.2 0.1 0.3 0.1 0.5 0.1 0.7 0.2 0.1 0 0.2 0.1 0.2 0.1 0.3 0.1 0.6 0.3 0.9 0.4l-14.8-8.6h-0.1c-0.2-0.1-0.4-0.2-0.7-0.3h-0.1c-0.1 0-0.2-0.1-0.2-0.1-0.1 0-0.2-0.1-0.4-0.1-0.1 0-0.3-0.1-0.4-0.1-0.1 0-0.2 0-0.2-0.1h-0.1c-0.3 0-0.5-0.1-0.8-0.1h-1.9c-0.1 0-0.2 0-0.3 0.1-0.2 0-0.4 0.1-0.6 0.1-0.1 0-0.2 0-0.3 0.1-0.1 0-0.2 0.1-0.3 0.1l-0.9 0.3c-0.1 0-0.2 0.1-0.3 0.1-0.1 0-0.1 0.1-0.2 0.1-0.6 0.2-1.1 0.5-1.7 0.8L339.7 362.9c-0.7 0.4-1.4 0.9-2.1 1.4-0.1 0.1-0.2 0.2-0.4 0.3-0.6 0.5-1.3 1.1-1.9 1.7-0.1 0-0.1 0.1-0.2 0.1l-0.3 0.3c-0.3 0.3-0.6 0.6-0.9 1l-0.3 0.3c-0.1 0.1-0.2 0.2-0.2 0.3-0.2 0.2-0.4 0.4-0.5 0.6-0.1 0.1-0.2 0.3-0.3 0.4-0.1 0.1-0.2 0.2-0.3 0.4-0.1 0.2-0.3 0.3-0.4 0.5l-0.3 0.3c-0.1 0.2-0.3 0.4-0.4 0.6-0.1 0.1-0.2 0.3-0.3 0.4 0 0.1-0.1 0.1-0.1 0.2-0.2 0.4-0.5 0.8-0.7 1.2v0.1c0 0.1-0.1 0.2-0.1 0.2-0.2 0.3-0.3 0.6-0.5 0.8-0.1 0.1-0.1 0.3-0.2 0.4-0.1 0.1-0.1 0.3-0.2 0.4-0.1 0.1-0.1 0.2-0.2 0.4-0.1 0.3-0.3 0.6-0.4 0.9 0 0.1-0.1 0.1-0.1 0.2v0.1c-0.2 0.4-0.3 0.8-0.5 1.2 0 0.1 0 0.1-0.1 0.2s-0.1 0.3-0.2 0.4c-0.1 0.2-0.2 0.4-0.2 0.6-0.1 0.2-0.1 0.3-0.1 0.5-0.1 0.2-0.1 0.4-0.2 0.6 0 0.1-0.1 0.2-0.1 0.4-0.1 0.2-0.1 0.4-0.1 0.6-0.1 0.2-0.1 0.5-0.2 0.7 0 0.1 0 0.2-0.1 0.3 0 0.2-0.1 0.3-0.1 0.5-0.1 0.4-0.1 0.7-0.2 1.1 0 0.1 0 0.2-0.1 0.3v0.3c-0.1 0.8-0.2 1.6-0.2 2.4l0.5 193.4c0 4.3 1.5 7.3 4 8.7l14.8 8.6c-2.4-1.4-4-4.4-4-8.7l-0.3-193.6c0-0.8 0.1-1.6 0.2-2.4 0-0.2 0-0.4 0.1-0.6 0.1-0.4 0.1-0.7 0.2-1.1 0-0.2 0.1-0.5 0.1-0.8 0.1-0.2 0.1-0.5 0.2-0.7 0.1-0.3 0.2-0.6 0.3-1 0.1-0.2 0.1-0.4 0.2-0.6 0.1-0.4 0.2-0.7 0.4-1.1 0.1-0.1 0.1-0.3 0.2-0.4l0.6-1.5c0-0.1 0.1-0.1 0.1-0.2 0.2-0.4 0.4-0.9 0.6-1.3 0.1-0.1 0.1-0.3 0.2-0.4 0.2-0.4 0.4-0.8 0.7-1.2 0-0.1 0.1-0.2 0.1-0.2 0.3-0.5 0.6-0.9 0.9-1.4 0.1-0.1 0.2-0.3 0.3-0.4 0.2-0.3 0.4-0.7 0.7-1 0.1-0.2 0.3-0.3 0.4-0.5 0.2-0.3 0.4-0.5 0.6-0.8 0.2-0.2 0.4-0.4 0.5-0.7 0.2-0.2 0.3-0.4 0.5-0.6 0.3-0.3 0.6-0.7 0.9-1 0.1-0.2 0.3-0.3 0.4-0.4 0.6-0.6 1.2-1.2 1.9-1.7 0.1-0.1 0.2-0.2 0.4-0.3 0.7-0.5 1.4-1 2.1-1.4l238.7-137.8c0.6-0.3 1.1-0.6 1.7-0.8-0.1 0.2 0.1 0.1 0.2 0.1z" fill="#2A2ABC" /><path d="M593.2 233.7c7.5-4.3 13.6-0.8 13.6 7.7l0.5 193.4c0 8.6-6.1 19.1-13.5 23.4l-81.2 46.9-29.9 66.3c-1.8 4-4.9 7.3-8.1 9.1-3.2 1.8-6.3 2.2-8.1 0.3l-30.2-31.6-81.1 46.8c-7.5 4.3-13.6 0.8-13.6-7.8l-0.6-193.3c0-8.6 6.1-19.1 13.5-23.4l238.7-137.8z" fill="#4040FF" /><path d="M545.6 316c5.1-2.9 9.3-0.6 9.3 5.3 0 5.8-4.1 13-9.2 16l-158.1 91.3c-5.1 2.9-9.3 0.6-9.3-5.3 0-5.9 4.1-13 9.2-16L545.6 316z" fill="#2828CE" /><path d="M471 424.8c5.1-2.9 9.3-0.6 9.3 5.3 0 5.9-4.1 13-9.2 16l-83.6 48.3c-5.1 2.9-9.3 0.6-9.3-5.3 0-5.8 4.1-13 9.2-16l83.6-48.3z" fill="#2828CE" /><path d="M560.1 328.5c0.2-0.1 0.4-0.2 0.6-0.2 0.1 0 0.3-0.1 0.4-0.1 0.1 0 0.3-0.1 0.4-0.1 0.2 0 0.3-0.1 0.5-0.1H563c0.2 0 0.5 0 0.7 0.1h0.2c0.2 0 0.3 0.1 0.5 0.1 0.1 0 0.1 0 0.2 0.1l0.6 0.3-10.8-6.3h-0.1c-0.2-0.1-0.3-0.2-0.5-0.2h-0.1c-0.1 0-0.1 0-0.2-0.1-0.1 0-0.2-0.1-0.2-0.1-0.1 0-0.2 0-0.3-0.1h-0.2-0.1c-0.2 0-0.4-0.1-0.6-0.1h-0.6H550.6c-0.1 0-0.2 0-0.4 0.1h-0.2c-0.1 0-0.1 0.1-0.2 0.1-0.2 0.1-0.4 0.1-0.6 0.2-0.1 0-0.2 0-0.2 0.1 0 0-0.1 0-0.1 0.1-0.4 0.2-0.8 0.3-1.2 0.6l-158.1 91.3c-0.6 0.3-1.2 0.8-1.7 1.2-0.2 0.1-0.4 0.3-0.5 0.5-0.3 0.2-0.5 0.5-0.8 0.7-0.1 0.1-0.2 0.3-0.4 0.4l-0.3 0.3c-0.1 0.1-0.2 0.2-0.3 0.4-0.3 0.3-0.5 0.6-0.8 0.9l-0.3 0.3c0 0.1-0.1 0.1-0.1 0.2-0.1 0.1-0.2 0.2-0.2 0.3-0.2 0.3-0.4 0.5-0.5 0.8-0.2 0.3-0.3 0.5-0.5 0.8v0.2c-0.1 0.2-0.3 0.4-0.4 0.7-0.1 0.3-0.3 0.5-0.4 0.8-0.1 0.2-0.2 0.5-0.3 0.7v0.2c-0.1 0.3-0.2 0.6-0.3 0.8l-0.3 0.9c0 0.1-0.1 0.3-0.1 0.4 0 0.1 0 0.1-0.1 0.2 0 0.1-0.1 0.2-0.1 0.3-0.1 0.4-0.2 0.7-0.3 1.1 0 0.2-0.1 0.4-0.1 0.6 0 0.1 0 0.2-0.1 0.3 0 0.1 0 0.2-0.1 0.3-0.1 0.6-0.1 1.2-0.1 1.8 0 2.9 1 5 2.7 5.9l10.8 6.3c-1.7-1-2.7-3-2.7-5.9 0-0.7 0.1-1.4 0.2-2.1 0-0.1 0-0.2 0.1-0.3 0.1-0.7 0.3-1.3 0.5-2 0-0.1 0-0.1 0.1-0.2 0.2-0.7 0.5-1.5 0.8-2.2v-0.1c0.3-0.7 0.7-1.5 1.1-2.2v-0.1c0.4-0.7 0.8-1.3 1.3-2 0-0.1 0.1-0.1 0.1-0.2 0.4-0.6 0.9-1.1 1.4-1.6l0.3-0.3c0.4-0.4 0.8-0.7 1.2-1.1 0.2-0.2 0.4-0.3 0.5-0.5 0.6-0.4 1.1-0.9 1.7-1.2l158.1-91.3 1.2-0.6s0.1-0.1 0.2-0.1z" fill="#ACC5EA" /><path d="M558.6 329.2c5.1-2.9 9.3-0.6 9.3 5.3 0 5.8-4.1 13-9.2 16l-158.1 91.3c-5.1 2.9-9.3 0.6-9.3-5.3 0-5.9 4.1-13 9.2-16l158.1-91.3z" fill="#FFFFFF" /><path d="M485.6 436.6c0.2-0.1 0.4-0.2 0.6-0.2 0.1 0 0.3-0.1 0.4-0.1 0.1 0 0.3-0.1 0.4-0.1 0.2 0 0.3-0.1 0.5-0.1H488.5c0.2 0 0.5 0 0.7 0.1h0.2c0.2 0 0.3 0.1 0.5 0.1 0.1 0 0.1 0 0.2 0.1l0.6 0.3-10.8-6.3h-0.1c-0.2-0.1-0.3-0.2-0.5-0.2h-0.1c-0.1 0-0.1 0-0.2-0.1-0.1 0-0.2-0.1-0.2-0.1-0.1 0-0.2 0-0.3-0.1h-0.2-0.1c-0.2 0-0.4-0.1-0.6-0.1h-0.6H476.1c-0.1 0-0.3 0.1-0.4 0.1h-0.2c-0.1 0-0.1 0-0.2 0.1-0.2 0.1-0.4 0.1-0.6 0.2-0.1 0-0.2 0-0.2 0.1 0 0-0.1 0-0.1 0.1-0.4 0.2-0.8 0.3-1.1 0.6l-83.6 48.3c-0.6 0.3-1.2 0.8-1.7 1.2-0.2 0.1-0.4 0.3-0.5 0.5-0.3 0.2-0.5 0.5-0.8 0.7-0.1 0.1-0.2 0.3-0.4 0.4l-0.3 0.3c-0.1 0.1-0.2 0.2-0.3 0.4-0.3 0.3-0.5 0.6-0.8 0.9l-0.3 0.3c0 0.1-0.1 0.1-0.1 0.2-0.1 0.1-0.2 0.2-0.2 0.3-0.2 0.3-0.4 0.5-0.5 0.8-0.2 0.3-0.3 0.5-0.5 0.8v0.2c-0.1 0.2-0.2 0.4-0.4 0.7-0.1 0.3-0.3 0.5-0.4 0.8-0.1 0.2-0.2 0.5-0.3 0.7v0.1c-0.1 0.3-0.2 0.6-0.3 0.8l-0.3 0.9c0 0.1-0.1 0.3-0.1 0.4 0 0.1 0 0.1-0.1 0.2 0 0.1-0.1 0.2-0.1 0.3-0.1 0.4-0.2 0.7-0.3 1.1 0 0.2-0.1 0.4-0.1 0.6 0 0.1 0 0.2-0.1 0.3 0 0.1 0 0.2-0.1 0.3-0.1 0.6-0.1 1.2-0.1 1.8 0 2.9 1 5 2.7 5.9l10.8 6.3c-1.7-1-2.7-3-2.7-5.9 0-0.7 0.1-1.4 0.2-2.1 0-0.1 0-0.2 0.1-0.3 0.1-0.7 0.3-1.3 0.5-2 0-0.1 0-0.1 0.1-0.2 0.2-0.7 0.5-1.5 0.8-2.2 0.3-0.7 0.7-1.5 1.1-2.2v-0.1c0.4-0.7 0.8-1.3 1.3-2 0-0.1 0.1-0.1 0.1-0.2 0.4-0.6 0.9-1.1 1.4-1.6l0.3-0.3c0.4-0.4 0.8-0.7 1.2-1.1l0.5-0.5c0.6-0.4 1.1-0.9 1.7-1.2l83.6-48.3c0.4-0.2 0.8-0.4 1.1-0.6-0.1 0 0.1-0.1 0.2-0.1z" fill="#ACC5EA" /><path d="M484.1 437.3c5.1-2.9 9.3-0.6 9.3 5.3 0 5.9-4.1 13-9.2 16l-83.6 48.3c-5.1 2.9-9.3 0.6-9.3-5.3 0-5.8 4.1-13 9.2-16l83.6-48.3z" fill="#FFFFFF" /><path d="M688 389.6c-0.3-0.2-0.5-0.3-0.8-0.4h-0.1c-0.1 0-0.2-0.1-0.2-0.1-0.1 0-0.2-0.1-0.4-0.1-0.1 0-0.3-0.1-0.4-0.1-0.1 0-0.2 0-0.2-0.1h-0.1c-0.3 0-0.5-0.1-0.8-0.1h-1.9c-0.1 0-0.2 0-0.3 0.1-0.2 0-0.4 0.1-0.6 0.1-0.1 0-0.2 0-0.3 0.1-0.1 0-0.2 0.1-0.3 0.1l-0.9 0.3c-0.1 0-0.2 0.1-0.3 0.1-0.1 0-0.1 0.1-0.2 0.1-0.6 0.2-1.1 0.5-1.7 0.8L562 457.7c-0.7 0.4-1.4 0.9-2.1 1.4-0.1 0.1-0.2 0.2-0.4 0.3-0.6 0.5-1.3 1.1-1.9 1.7-0.1 0-0.1 0.1-0.2 0.1l-0.3 0.3c-0.3 0.3-0.6 0.6-0.9 1l-0.3 0.3c-0.1 0.1-0.2 0.2-0.2 0.3-0.2 0.2-0.4 0.4-0.5 0.6-0.1 0.1-0.2 0.3-0.3 0.4-0.1 0.1-0.2 0.2-0.3 0.4-0.1 0.2-0.3 0.3-0.4 0.5l-0.3 0.3c-0.1 0.2-0.3 0.4-0.4 0.6-0.1 0.1-0.2 0.3-0.3 0.4 0 0.1-0.1 0.1-0.1 0.2-0.2 0.4-0.5 0.8-0.7 1.2v0.1c0 0.1-0.1 0.2-0.1 0.2-0.2 0.3-0.3 0.6-0.5 0.8-0.1 0.1-0.1 0.3-0.2 0.4-0.1 0.1-0.1 0.3-0.2 0.4-0.1 0.1-0.1 0.2-0.2 0.4-0.1 0.3-0.3 0.6-0.4 0.9 0 0.1-0.1 0.1-0.1 0.2v0.1c-0.2 0.4-0.3 0.8-0.5 1.2 0 0.1 0 0.1-0.1 0.2s-0.1 0.3-0.2 0.4c-0.1 0.2-0.2 0.4-0.2 0.6-0.1 0.2-0.1 0.3-0.1 0.5-0.1 0.2-0.1 0.4-0.2 0.6 0 0.1-0.1 0.2-0.1 0.4-0.1 0.2-0.1 0.4-0.1 0.6-0.1 0.2-0.1 0.5-0.2 0.7 0 0.1 0 0.2-0.1 0.3 0 0.2-0.1 0.3-0.1 0.5-0.1 0.4-0.1 0.7-0.2 1.1 0 0.1 0 0.2-0.1 0.3v0.3c-0.1 0.8-0.2 1.6-0.2 2.4l0.4 133.7c0 2.7 0.6 4.8 1.6 6.4 0.6 1 1.4 1.7 2.3 2.2l14.8 8.6c-2.4-1.4-4-4.4-4-8.7l-9.4-5.4 9.4 5.4-0.4-133.7c0-0.8 0.1-1.6 0.2-2.4 0-0.2 0-0.4 0.1-0.6 0.1-0.4 0.1-0.7 0.2-1.1 0-0.2 0.1-0.5 0.1-0.7 0.1-0.2 0.1-0.5 0.2-0.7 0.1-0.3 0.2-0.6 0.3-1 0.1-0.2 0.1-0.4 0.2-0.6 0.1-0.4 0.2-0.7 0.4-1.1 0.1-0.1 0.1-0.3 0.2-0.4l0.6-1.5c0-0.1 0.1-0.1 0.1-0.2 0.2-0.4 0.4-0.9 0.6-1.3 0.1-0.1 0.1-0.3 0.2-0.4 0.2-0.4 0.4-0.8 0.7-1.2 0-0.1 0.1-0.2 0.1-0.2 0.3-0.5 0.6-0.9 0.9-1.4 0.1-0.1 0.2-0.3 0.3-0.4 0.2-0.3 0.4-0.6 0.7-1 0.1-0.2 0.3-0.3 0.4-0.5 0.2-0.3 0.4-0.5 0.6-0.8 0.2-0.2 0.4-0.4 0.5-0.6 0.2-0.2 0.3-0.4 0.5-0.6 0.3-0.3 0.6-0.6 0.9-1 0.1-0.2 0.3-0.3 0.5-0.5 0.6-0.6 1.2-1.2 1.9-1.7 0.1-0.1 0.2-0.2 0.4-0.3 0.7-0.5 1.4-1 2.1-1.4L693.2 399c0.6-0.3 1.1-0.6 1.7-0.8 0.2-0.1 0.4-0.1 0.5-0.2 0.3-0.1 0.6-0.2 1-0.3 0.2-0.1 0.4-0.1 0.6-0.2 0.2 0 0.4-0.1 0.6-0.1 0.2 0 0.5-0.1 0.7-0.1h1.5c0.3 0 0.7 0.1 1 0.1 0.1 0 0.2 0 0.2 0.1 0.3 0.1 0.5 0.1 0.7 0.2 0.1 0 0.2 0.1 0.2 0.1 0.3 0.1 0.6 0.3 0.9 0.4l-14.8-8.6z" fill="#C68620" /><path d="M693.2 399.1c7.5-4.3 13.6-0.8 13.6 7.7l0.4 133.7c0 8.6-6.1 19.1-13.5 23.4l-116.3 67.2c-7.5 4.3-13.6 0.8-13.6-7.7l-0.4-133.7c0-8.6 6.1-19.1 13.5-23.4l116.3-67.2z" fill="#FFCD2E" /><path d="M600.2 508.5l0.2 42.9-5.2 3-17.3-20.2 0.1 30.1-5.7 3.3-0.1-42.9 5.2-3 17.3 20.2-0.1-30.1zM685.8 459.1l-9.6 48.5-4.9 2.8-7.7-25.6-7.4 34.3-4.9 2.9-9.9-37.2 6-3.5 6.5 26.9 7.4-34.9 4.6-2.7 7.6 26.3 6.4-34.3zM635.9 488v5.8l-18.2 10.5 0.1 12.5 15.5-9v5.8l-15.5 9v12.8L636 525v5.8l-23.8 13.7-0.1-42.8z" fill="#C68620" /><path d="M608.1 552.5l-10.8-6.2-0.1-30.1 10.8 6.3z" fill="#E8CFAC" /><path d="M608 522.5l-10.8-6.3 5.7-3.2 10.7 6.2zM608.6 565l-10.8-6.2-17.3-20.2 10.8 6.2zM585.6 535.4l-10.8-6.2 5.2-3 10.8 6.2z" fill="#E8CFAC" /><path d="M585.7 578.2l-10.8-6.2-0.1-42.8 10.8 6.2z" fill="#E8CFAC" /><path d="M613.6 519.2l0.2 42.8-5.2 3-17.3-20.2 0.1 30.2-5.7 3.2-0.1-42.8 5.2-3 17.3 20.1-0.1-30z" fill="#FFFFFF" /><path d="M686.9 507.6l-10.8-6.2 6.4-34.4 10.8 6.3zM693.3 473.3l-10.8-6.3 6-3.5 10.7 6.3z" fill="#E8CFAC" /><path d="M684.7 521.1l-10.8-6.3-7.6-25.6 10.7 6.3z" fill="#E8CFAC" /><path d="M667.3 518.9l-10.7-6.3 7.4-34.9 10.7 6.3zM674.7 484l-10.7-6.3 4.5-2.6 10.8 6.2zM654.8 495.5l-10.8-6.3 6-3.4 10.8 6.2z" fill="#E8CFAC" /><path d="M664.7 532.7l-10.8-6.3-9.9-37.2 10.8 6.3z" fill="#E8CFAC" /><path d="M699.2 469.8l-9.6 48.4-4.9 2.9-7.7-25.6-7.4 34.3-4.9 2.9-9.9-37.2 6-3.5 6.5 26.9 7.4-34.9 4.6-2.7 7.6 26.3 6.4-34.3z" fill="#FFFFFF" /><path d="M631.2 546.1l-10.8-6.2 18.2-10.5 10.8 6.2zM631.2 527.5l-10.8-6.3 15.5-8.9 10.7 6.2z" fill="#E8CFAC" /><path d="M625.6 555.2l-10.8-6.2-0.1-42.9 10.7 6.3z" fill="#E8CFAC" /><path d="M625.4 512.4l-10.7-6.3 23.8-13.7 10.8 6.3z" fill="#E8CFAC" /><path d="M649.3 498.7v5.8L631.1 515l0.1 12.5 15.4-9 0.1 5.8-15.5 8.9v12.9l18.2-10.5v5.9l-23.8 13.7-0.2-42.8z" fill="#FFFFFF" /></svg>