<?xml version="1.0" encoding="utf-8"?>
<!-- Uploaded to: SVG Repo, www.svgrepo.com, Generator: SVG Repo Mixer Tools -->
<svg width="800px" height="800px" viewBox="0 0 1024 1024" class="icon"  version="1.1" xmlns="http://www.w3.org/2000/svg"><path d="M905.8 599.2c-1.1 11-11.2 16.5-19.8 21.5-8 4.6-16 9.3-23.9 13.9-12.8 7.4-25.5 14.8-38.3 22.2-16 9.3-31.9 18.6-47.9 27.8-17.6 10.2-35.2 20.5-52.9 30.7-17.7 10.3-35.4 20.6-53.2 30.9-16.3 9.5-32.5 18.9-48.8 28.4-13.3 7.7-26.5 15.4-39.8 23.1-8.7 5-17.4 10.1-26.1 15.1-6.6 3.8-12.8 7.6-20.3 9.8-19.5 5.6-41.1 3.7-58.7-6.5-6.3-3.7-12.7-7.3-19-11-11.6-6.7-23.1-13.3-34.7-20-15.2-8.8-30.4-17.6-45.6-26.3-17.3-10-34.7-20-52-30-17.9-10.3-35.8-20.7-53.7-31-16.9-9.8-33.8-19.5-50.8-29.3l-43.2-24.9c-10.3-6-20.7-11.9-31-17.9-4.7-2.7-9.4-5.4-14.1-8.2-7.4-4.3-14.7-11.1-14.7-20.3 0 8.4 0 16.8-0.1 25.3 0 3-0.2 6.1 0 9.2 0.6 8.1 7 14.4 13.7 18.4 4.1 2.5 8.3 4.8 12.5 7.2 10.8 6.2 21.6 12.5 32.4 18.7 15.6 9 31.1 18 46.7 27 18.5 10.7 37.1 21.4 55.6 32.1 19.3 11.2 38.6 22.3 58 33.5 18.4 10.6 36.7 21.2 55.1 31.8 15.3 8.8 30.5 17.6 45.8 26.4 10.3 6 20.7 11.9 31 17.9 6 3.4 11.9 7.3 18.4 9.7 20.3 7.4 44.1 5.8 62.8-5.1 7.1-4.1 14.2-8.3 21.3-12.4 13.1-7.6 26.2-15.2 39.2-22.8 17.1-9.9 34.1-19.8 51.2-29.8 19.1-11.1 38.2-22.2 57.2-33.3l57.3-33.3c17.1-10 34.2-19.9 51.4-29.9 13.3-7.7 26.6-15.4 39.9-23.2 7.3-4.3 14.7-8.5 22-12.8 2.2-1.3 4.5-2.6 6.6-4.1 5.6-4.2 10-10 10.1-17.3 0.1-3.7 0-7.3 0-11 0-7.3 0-14.7 0.1-22 0.4 0.7 0.4 1.3 0.3 1.8 0 0.2 0-0.3 0 0z" fill="#7A9EFD" /><path d="M891.6 577.6c19 11 19.1 28.9 0.2 39.9L547.4 817.7c-18.9 11-49.8 11-68.8 0L131.9 617.5c-19-11-19.1-28.9-0.2-39.9l344.4-200.2c18.9-11 49.8-11 68.8 0l346.7 200.2z" fill="#E4ECF9" /><path d="M522.1 174.5c9.5-5.5 17.3-1 17.4 9.9l1 345.8c0 10.9-7.7 24.4-17.2 29.9L346.8 661.9c-9.5 5.5-17.3 1-17.4-9.9l-1-345.8c0-10.9 7.7-24.4 17.3-29.9l176.4-101.8z" fill="#4040FF" /><path d="M506.3 220.7c3.3-1.9 6-0.4 6 3.4l0.7 246.6c0 3.8-2.7 8.5-6 10.4l-144.4 83.4c-3.3 1.9-6 0.4-6-3.4l-0.7-246.6c0-3.8 2.7-8.5 6-10.4l144.4-83.4z" fill="#2A2ABC" /><path d="M526.1 172.7c0.3-0.1 0.5-0.2 0.8-0.2 0.2-0.1 0.5-0.1 0.7-0.2 0.3-0.1 0.6-0.1 0.9-0.1 0.2 0 0.3 0 0.5-0.1h1.3c0.4 0 0.9 0.1 1.3 0.2 0.1 0 0.2 0 0.3 0.1 0.3 0.1 0.6 0.2 1 0.3 0.1 0 0.2 0.1 0.3 0.1 0.4 0.2 0.8 0.3 1.1 0.5l-14.8-8.6s-0.1 0-0.1-0.1c-0.3-0.2-0.6-0.3-0.9-0.4-0.1 0-0.1 0-0.2-0.1-0.1 0-0.2-0.1-0.3-0.1-0.2-0.1-0.3-0.1-0.5-0.2-0.2 0-0.3-0.1-0.5-0.1-0.1 0-0.2-0.1-0.3-0.1h-0.2c-0.3-0.1-0.7-0.1-1.1-0.1h-1.5c-0.2 0-0.3 0-0.5 0.1-0.2 0-0.3 0-0.5 0.1-0.1 0-0.3 0.1-0.4 0.1-0.2 0-0.5 0.1-0.7 0.2-0.1 0-0.3 0-0.4 0.1-0.1 0-0.3 0.1-0.4 0.1-0.4 0.1-0.8 0.3-1.2 0.4-0.1 0.1-0.3 0.1-0.4 0.2-0.1 0-0.2 0.1-0.2 0.1-0.7 0.3-1.4 0.6-2.1 1.1L330.9 267.7c-0.6 0.3-1.1 0.7-1.6 1-0.2 0.1-0.3 0.3-0.5 0.4-0.4 0.3-0.7 0.5-1.1 0.8-0.2 0.2-0.4 0.3-0.6 0.5-0.3 0.3-0.7 0.6-1 0.9-0.2 0.2-0.4 0.4-0.6 0.5-0.1 0.1-0.2 0.2-0.4 0.3-0.1 0.1-0.2 0.3-0.4 0.4l-1.2 1.2c-0.1 0.1-0.2 0.3-0.4 0.4-0.1 0.1-0.2 0.2-0.3 0.4-0.2 0.3-0.5 0.5-0.7 0.8-0.1 0.2-0.3 0.3-0.4 0.5-0.1 0.2-0.2 0.3-0.3 0.5-0.2 0.2-0.3 0.4-0.5 0.7-0.1 0.1-0.2 0.3-0.3 0.4-0.2 0.3-0.4 0.5-0.5 0.8-0.1 0.2-0.2 0.3-0.3 0.5 0 0.1-0.1 0.1-0.1 0.2l-0.9 1.5s0 0.1-0.1 0.1c-0.1 0.1-0.1 0.2-0.2 0.3-0.2 0.4-0.4 0.7-0.6 1.1-0.1 0.2-0.2 0.3-0.2 0.5-0.1 0.2-0.2 0.4-0.3 0.5-0.1 0.2-0.2 0.3-0.2 0.5-0.2 0.4-0.4 0.8-0.5 1.2 0 0.1-0.1 0.2-0.1 0.3v0.1c-0.2 0.5-0.4 1-0.6 1.6 0 0.1-0.1 0.2-0.1 0.3-0.1 0.2-0.1 0.4-0.2 0.6-0.1 0.3-0.2 0.5-0.3 0.8-0.1 0.2-0.1 0.4-0.2 0.6-0.1 0.2-0.1 0.5-0.2 0.7 0 0.2-0.1 0.3-0.1 0.5-0.1 0.3-0.1 0.5-0.2 0.8-0.1 0.3-0.2 0.6-0.2 0.9 0 0.1-0.1 0.2-0.1 0.3 0 0.2-0.1 0.4-0.1 0.6-0.1 0.5-0.2 0.9-0.2 1.4 0 0.1-0.1 0.3-0.1 0.4 0 0.3-0.1 0.6-0.1 0.8 0 0.2 0 0.4-0.1 0.6 0 0.6-0.1 1.3-0.1 1.9l1 345.8c0 4.8 1.5 8.3 4 10.3 0.4 0.3 0.7 0.5 1.1 0.8l14.8 8.6c-3.1-1.8-5.1-5.6-5.1-11.1l-1-345.8c0-0.6 0-1.3 0.1-1.9 0-0.2 0-0.4 0.1-0.6 0-0.4 0.1-0.8 0.2-1.2 0.1-0.4 0.1-0.9 0.2-1.4 0.1-0.3 0.1-0.6 0.2-1 0.1-0.3 0.1-0.6 0.2-0.9l0.3-1.2c0.1-0.2 0.1-0.5 0.2-0.7 0.1-0.5 0.3-0.9 0.5-1.4 0.1-0.2 0.1-0.4 0.2-0.6 0.2-0.6 0.5-1.3 0.8-1.9 0-0.1 0.1-0.2 0.1-0.3 0.2-0.6 0.5-1.1 0.8-1.6 0.1-0.2 0.2-0.3 0.3-0.5 0.3-0.5 0.6-1.1 0.8-1.6 0.1-0.1 0.1-0.2 0.2-0.3 0.3-0.6 0.7-1.2 1.1-1.8 0.1-0.2 0.2-0.3 0.3-0.5l0.9-1.2c0.2-0.2 0.3-0.4 0.5-0.7 0.3-0.3 0.5-0.7 0.8-1 0.2-0.3 0.4-0.6 0.7-0.8 0.2-0.3 0.4-0.5 0.7-0.8 0.4-0.4 0.8-0.8 1.1-1.2l0.7-0.7c0.2-0.2 0.4-0.4 0.6-0.5 0.3-0.3 0.7-0.6 1-0.9 0.2-0.2 0.4-0.3 0.6-0.5 0.4-0.3 0.7-0.6 1.1-0.8 0.2-0.1 0.3-0.3 0.5-0.4 0.5-0.4 1.1-0.7 1.6-1l176.4-101.8c0.7-0.4 1.4-0.8 2.2-1.1 0.2-0.1 0.5-0.2 0.7-0.3 0.1-0.3 0.6-0.5 0.9-0.6z" fill="#2A2ABC" /><path d="M444.9 540.1c10.9-6.3 19.7-1.2 19.8 11.3s-8.8 27.7-19.6 34c-10.9 6.3-19.7 1.2-19.7-11.3s8.6-27.7 19.5-34z" fill="#FFFFFF" /><path d="M420.2 400.5c-1.4-0.8-1.4-3.5 0-6l18.1-31.3c0.7-1.2 1.6-2.2 2.6-2.8 0.3-0.2 0.6-0.3 0.9-0.4 1.3-0.3 2.3 0.2 2.6 1.5 0.3 1.3 0 3-1 4.6l-18.1 31.3c-0.7 1.2-1.7 2.2-2.6 2.7-0.8 0.6-1.7 0.8-2.5 0.4z" fill="#161691" /><path d="M434.2 391.3c1.3-0.3 2.3 0.2 2.6 1.5 0.3 1.3 0 3-1 4.6l-7.8 13.4c-2.9 4.9-6.6 8.8-10.4 10.9-3.8 2.2-7.5 2.7-10.4 1-5.7-3.3-5.8-13.9-0.1-23.8l7.8-13.4c0.7-1.2 1.6-2.2 2.6-2.8 0.3-0.2 0.6-0.3 0.9-0.4 1.3-0.3 2.3 0.2 2.6 1.5 0.3 1.3 0 3-1 4.6l-7.8 13.4c-1.9 3.2-2.6 6.7-1.9 9.3 0.7 2.5 2.7 3.7 5.2 3 0.6-0.2 1.3-0.4 1.9-0.8 1.9-1.1 3.8-3.1 5.2-5.5l7.8-13.4c0.7-1.2 1.6-2.2 2.6-2.8 0.5-0.1 0.9-0.2 1.2-0.3z m22.1-53.3c5.7 3.2 5.8 13.7 0.2 23.6l-7.8 13.4c-0.7 1.2-1.6 2.1-2.5 2.6-0.9 0.5-1.9 0.7-2.6 0.3-1.4-0.8-1.4-3.4-0.1-5.9l7.8-13.4c1.9-3.2 2.6-6.7 1.9-9.3-0.7-2.5-2.7-3.7-5.2-3-0.6 0.2-1.3 0.4-1.9 0.8-1.9 1.1-3.8 3.1-5.2 5.5l-7.8 13.4c-0.7 1.2-1.6 2.2-2.6 2.7-0.3 0.2-0.6 0.3-0.9 0.4-1.3 0.3-2.3-0.2-2.6-1.5-0.3-1.3 0-3 1-4.6l7.8-13.4c2.8-4.8 6.5-8.6 10.2-10.7 3.7-2 7.4-2.5 10.3-0.9z" fill="#161691" /><path d="M447.7 403.3c0.3 0 0.5 0.1 0.7 0.2l-10.8-6.3c-0.1 0-0.1-0.1-0.2-0.1s-0.1 0-0.2-0.1h-0.9c-0.1 0-0.2 0-0.3 0.1-0.1 0-0.3 0.1-0.4 0.1-0.2 0.1-0.3 0.2-0.5 0.3-0.2 0.1-0.5 0.3-0.7 0.5l-0.2 0.2c-0.1 0.1-0.2 0.2-0.4 0.3l-0.1 0.1-0.1 0.1-0.2 0.2c-0.1 0.1-0.2 0.2-0.3 0.4l-0.1 0.1v0.1c0 0.1-0.1 0.1-0.1 0.2-0.1 0.1-0.1 0.2-0.2 0.3-0.1 0.1-0.1 0.2-0.2 0.3l-7.8 13.4c-0.3 0.6-0.7 1.1-1.1 1.7l-0.1 0.1c-0.3 0.5-0.7 0.9-1.1 1.3-0.1 0.1-0.2 0.2-0.2 0.3l-0.9 0.9-0.4 0.4c-0.4 0.4-0.9 0.7-1.4 0.9-0.3 0.2-0.7 0.4-1 0.5l-0.9 0.3c-0.3 0.1-0.6 0.1-0.8 0.2h-1.1c-0.2 0-0.5-0.1-0.7-0.1h-0.1c-0.2-0.1-0.5-0.2-0.7-0.3l10.8 6.3c0.1 0.1 0.2 0.1 0.4 0.2 0.1 0 0.2 0.1 0.3 0.1h0.1c0.1 0 0.3 0.1 0.4 0.1h1.6c0.2 0 0.4-0.1 0.6-0.1 0.3-0.1 0.6-0.2 0.8-0.3 0.3-0.1 0.7-0.3 1-0.5 0.5-0.3 0.9-0.6 1.4-0.9 0.1-0.1 0.3-0.2 0.4-0.4 0.2-0.2 0.5-0.4 0.7-0.6 0.1-0.1 0.1-0.2 0.2-0.2 0.1-0.1 0.2-0.2 0.2-0.3 0.1-0.1 0.2-0.2 0.3-0.4 0.2-0.2 0.4-0.5 0.6-0.7 0.1-0.1 0.1-0.2 0.2-0.2l0.1-0.1c0.1-0.1 0.2-0.2 0.2-0.3 0.1-0.2 0.3-0.4 0.4-0.6 0.1-0.2 0.3-0.4 0.4-0.6 0 0 0-0.1 0.1-0.1l7.8-13.4c0.2-0.3 0.4-0.6 0.5-0.8v-0.1c0.2-0.2 0.4-0.4 0.5-0.7l0.1-0.1c0.1-0.2 0.3-0.3 0.5-0.4l0.2-0.2c0.2-0.2 0.5-0.3 0.7-0.5 0.3-0.2 0.6-0.3 0.9-0.4 0.5-0.4 0.8-0.4 1.1-0.4z m18.3-38.4c0.1-0.6 0.1-1.2 0.1-1.7v-0.3c0-0.5-0.1-1-0.2-1.5-0.3-1.3-1-2.2-1.9-2.7l-10.8-6.3c0.9 0.5 1.5 1.4 1.9 2.7 0.1 0.5 0.2 1 0.2 1.5v0.3c0 0.5 0 1-0.1 1.6 0 0.2-0.1 0.5-0.1 0.7 0 0.1 0 0.2-0.1 0.3-0.1 0.4-0.2 0.7-0.3 1.1 0 0.1 0 0.1-0.1 0.2-0.1 0.4-0.2 0.7-0.4 1.1v0.1c-0.2 0.4-0.3 0.8-0.5 1.2l-0.6 1.2-7.8 13.4-0.1 0.1c-0.1 0.1-0.1 0.2-0.2 0.3-0.1 0.1-0.1 0.2-0.1 0.3v0.2c0 0.1 0 0.1-0.1 0.2 0 0.1-0.1 0.2-0.1 0.3 0 0.1-0.1 0.3-0.1 0.4 0 0.1-0.1 0.3-0.1 0.4 0 0.1 0 0.3-0.1 0.4v1.3c0 0.2 0.1 0.4 0.1 0.5 0 0.1 0.1 0.2 0.1 0.3 0.1 0.2 0.1 0.3 0.2 0.4 0 0.1 0.1 0.1 0.1 0.2 0.1 0.2 0.3 0.3 0.5 0.5l10.8 6.3c-0.2-0.1-0.4-0.3-0.5-0.5 0-0.1-0.1-0.1-0.1-0.2-0.1-0.1-0.2-0.3-0.2-0.4 0-0.1-0.1-0.2-0.1-0.3 0-0.2-0.1-0.3-0.1-0.5v-1.3c0-0.3 0.1-0.5 0.2-0.8l0.3-0.9v-0.1c0.1-0.3 0.3-0.6 0.4-0.9l7.8-13.4 0.3-0.6 0.3-0.6 0.3-0.6c0.1-0.2 0.2-0.4 0.2-0.6v-0.1c0.1-0.2 0.2-0.5 0.2-0.7 0-0.1 0.1-0.2 0.1-0.4 0-0.1 0-0.1 0.1-0.2 0-0.1 0-0.1 0.1-0.2 0.1-0.3 0.1-0.6 0.2-0.8v-0.1c0-0.1 0-0.2 0.1-0.3 0.1-0.1 0.2-0.3 0.2-0.5z" fill="#ACC5EA" /><path d="M445.4 366c-0.1 0-0.1-0.1-0.2-0.1s-0.1 0-0.2-0.1h-0.9c-0.1 0-0.2 0-0.3 0.1-0.1 0-0.3 0.1-0.4 0.1-0.2 0.1-0.3 0.2-0.5 0.3-0.2 0.1-0.5 0.3-0.7 0.5l-0.2 0.2-0.3 0.3-0.1 0.1-0.1 0.1-0.2 0.2c-0.1 0.1-0.2 0.2-0.3 0.4l-0.1 0.1v0.1l-0.1 0.1c-0.1 0.1-0.1 0.2-0.2 0.3-0.1 0.1-0.1 0.2-0.2 0.3v0.1l-18.1 31.3c-0.1 0.1-0.1 0.2-0.2 0.3-0.1 0.1-0.1 0.2-0.2 0.3-0.1 0.1-0.1 0.2-0.1 0.3 0 0.1-0.1 0.2-0.1 0.3 0 0.1-0.1 0.2-0.1 0.3 0 0.1-0.1 0.2-0.1 0.3v0.2c0 0.1-0.1 0.3-0.1 0.4 0 0.1 0 0.2-0.1 0.3v1.4c0 0.2 0.1 0.4 0.1 0.5 0 0.1 0.1 0.2 0.1 0.3 0.1 0.2 0.1 0.3 0.2 0.4 0 0.1 0.1 0.1 0.1 0.2 0.1 0.2 0.3 0.3 0.5 0.5l10.8 6.3c-0.2-0.1-0.4-0.3-0.5-0.5 0-0.1-0.1-0.1-0.1-0.2-0.1-0.1-0.2-0.3-0.2-0.4 0-0.1-0.1-0.2-0.1-0.3 0-0.2-0.1-0.3-0.1-0.5V409.4c0-0.3 0.1-0.5 0.2-0.8v-0.1l0.3-0.9c0.1-0.3 0.3-0.6 0.5-0.9l18.1-31.3c0.2-0.3 0.3-0.6 0.5-0.8v-0.1c0.2-0.2 0.4-0.5 0.5-0.7l0.1-0.1c0.1-0.2 0.3-0.3 0.5-0.4l0.2-0.2c0.2-0.2 0.4-0.3 0.7-0.5 0.3-0.2 0.6-0.3 0.9-0.4 0.3-0.1 0.6-0.1 0.9-0.1 0.3 0 0.5 0.1 0.8 0.2l-10.9-6.3z" fill="#ACC5EA" /><path d="M432.9 412.5c-1.4-0.8-1.4-3.5 0-6l18.1-31.3c0.7-1.2 1.6-2.2 2.6-2.8 0.3-0.2 0.6-0.3 0.9-0.4 1.3-0.3 2.3 0.2 2.6 1.5 0.3 1.3 0 3-1 4.6L438 409.4c-0.7 1.2-1.7 2.2-2.6 2.7-0.9 0.7-1.8 0.8-2.5 0.4z" fill="#FFFFFF" /><path d="M446.8 403.4c1.3-0.3 2.3 0.2 2.6 1.5 0.3 1.3 0 3-1 4.6l-7.8 13.4c-2.9 4.9-6.6 8.8-10.4 10.9-3.8 2.2-7.5 2.7-10.4 1-5.7-3.3-5.8-13.9-0.1-23.8l7.8-13.4c0.7-1.2 1.6-2.2 2.6-2.8 0.3-0.2 0.6-0.3 0.9-0.4 1.3-0.3 2.3 0.2 2.6 1.5 0.3 1.3 0 3-1 4.6l-7.8 13.4c-1.9 3.2-2.6 6.7-1.9 9.3 0.7 2.5 2.7 3.7 5.2 3 0.6-0.2 1.3-0.4 1.9-0.8 1.9-1.1 3.8-3.1 5.2-5.5l7.8-13.4c0.7-1.2 1.6-2.2 2.6-2.8 0.6-0.1 0.9-0.2 1.2-0.3z" fill="#FFFFFF" /><path d="M432.9 394.6l-10.8-6.3c-0.1 0-0.1-0.1-0.2-0.1s-0.1 0-0.2-0.1h-0.9c-0.1 0-0.2 0-0.3 0.1-0.1 0-0.3 0.1-0.4 0.1-0.2 0.1-0.3 0.2-0.5 0.3-0.2 0.1-0.5 0.3-0.7 0.5l-0.2 0.2-0.3 0.3-0.1 0.1-0.1 0.1-0.2 0.2c-0.1 0.1-0.2 0.2-0.3 0.4l-0.1 0.1v0.1l-0.1 0.1c-0.1 0.1-0.1 0.2-0.2 0.3-0.1 0.1-0.1 0.2-0.2 0.3v0.1l-7.8 13.4c-0.2 0.4-0.4 0.7-0.6 1.1-0.1 0.2-0.2 0.4-0.3 0.5-0.1 0.1-0.1 0.3-0.2 0.4 0 0.1-0.1 0.2-0.2 0.3-0.2 0.4-0.4 0.8-0.6 1.3v0.1c0 0.1-0.1 0.2-0.1 0.2-0.1 0.3-0.3 0.7-0.4 1-0.1 0.1-0.1 0.3-0.2 0.4-0.1 0.2-0.1 0.3-0.2 0.5-0.1 0.1-0.1 0.3-0.2 0.4-0.1 0.3-0.2 0.5-0.2 0.8-0.1 0.2-0.1 0.4-0.2 0.5 0 0.1 0 0.1-0.1 0.2-0.1 0.3-0.1 0.6-0.2 0.9-0.1 0.2-0.1 0.5-0.2 0.7v0.1c0 0.2 0 0.3-0.1 0.5-0.1 0.5-0.2 0.9-0.2 1.4v0.6c0 0.4-0.1 0.8-0.1 1.3v2.5c0 0.5 0.1 0.9 0.2 1.4v0.3c0.1 0.5 0.2 1.1 0.4 1.5 0 0.1 0.1 0.3 0.1 0.4 0.1 0.3 0.3 0.7 0.4 1 0.1 0.2 0.2 0.3 0.2 0.5 0.2 0.3 0.3 0.5 0.5 0.8 0.1 0.1 0.2 0.3 0.3 0.4 0.2 0.3 0.4 0.5 0.6 0.7l0.3 0.3c0.3 0.3 0.7 0.6 1.1 0.8l10.8 6.3c-0.4-0.2-0.8-0.5-1.1-0.8l-0.3-0.3c-0.2-0.2-0.4-0.4-0.6-0.7-0.1-0.1-0.2-0.3-0.3-0.4-0.2-0.3-0.3-0.5-0.5-0.8-0.1-0.2-0.2-0.3-0.2-0.5-0.2-0.3-0.3-0.7-0.4-1 0-0.1-0.1-0.3-0.1-0.4-0.2-0.5-0.3-1-0.4-1.5v-0.3c-0.1-0.4-0.1-0.9-0.2-1.4v-2.5c0-0.4 0.1-0.8 0.1-1.3 0-0.2 0-0.4 0.1-0.7 0.1-0.5 0.1-0.9 0.2-1.4 0-0.2 0.1-0.4 0.1-0.6 0-0.2 0.1-0.5 0.2-0.7 0.1-0.4 0.2-0.7 0.3-1.1 0-0.2 0.1-0.4 0.2-0.5 0.1-0.4 0.3-0.8 0.4-1.2 0.1-0.2 0.1-0.3 0.2-0.5 0.2-0.5 0.4-0.9 0.6-1.4 0-0.1 0.1-0.2 0.1-0.2 0.2-0.5 0.5-1.1 0.8-1.6 0.1-0.1 0.1-0.3 0.2-0.4 0.3-0.5 0.6-1.1 0.9-1.6l7.8-13.4c0.2-0.3 0.3-0.6 0.5-0.8v-0.1c0.2-0.2 0.4-0.5 0.5-0.7l0.1-0.1c0.1-0.2 0.3-0.3 0.5-0.4l0.2-0.2c0.2-0.2 0.4-0.3 0.7-0.5 0.3-0.2 0.6-0.3 0.9-0.4 0.3-0.1 0.6-0.1 0.9-0.1 0.1 0 0.3 0.1 0.6 0.2-0.1 0 0 0 0 0z" fill="#ACC5EA" /><path d="M468.9 350.1c5.7 3.2 5.8 13.7 0.2 23.6l-7.8 13.4c-0.7 1.2-1.6 2.1-2.5 2.6-0.9 0.5-1.9 0.7-2.6 0.3-1.4-0.8-1.4-3.4-0.1-5.9l7.8-13.4c1.9-3.2 2.6-6.7 1.9-9.3-0.7-2.5-2.7-3.7-5.2-3-0.6 0.2-1.3 0.4-1.9 0.8-1.9 1.1-3.8 3.1-5.2 5.5l-7.8 13.4c-0.7 1.2-1.6 2.2-2.6 2.7-0.3 0.2-0.6 0.3-0.9 0.4-1.3 0.3-2.3-0.2-2.6-1.5-0.3-1.3 0-3 1-4.6l7.8-13.4c2.8-4.8 6.5-8.6 10.2-10.7 3.7-2 7.5-2.5 10.3-0.9z" fill="#FFFFFF" /><path d="M450.4 358.8c0.1-0.2 0.2-0.3 0.4-0.5 0.2-0.3 0.5-0.6 0.7-0.9 0.2-0.2 0.3-0.4 0.5-0.6 0.1-0.2 0.3-0.3 0.4-0.4 0.4-0.4 0.7-0.8 1.1-1.1 0.2-0.2 0.5-0.4 0.7-0.7 0.2-0.2 0.4-0.3 0.5-0.5 0.3-0.2 0.5-0.5 0.8-0.7 0.2-0.1 0.3-0.3 0.5-0.4 0.3-0.2 0.6-0.4 0.9-0.7 0.1-0.1 0.3-0.2 0.4-0.3 0.4-0.3 0.9-0.6 1.3-0.8 0.6-0.4 1.2-0.6 1.8-0.9 0.2-0.1 0.3-0.1 0.5-0.2 0.4-0.1 0.7-0.3 1.1-0.4 0.2-0.1 0.4-0.1 0.5-0.2 0.2-0.1 0.4-0.1 0.6-0.1 0.2 0 0.5-0.1 0.7-0.1h1.5c0.4 0 0.7 0 1.1 0.1h0.1c0.3 0.1 0.6 0.2 1 0.3 0.1 0 0.2 0.1 0.3 0.1 0.3 0.1 0.7 0.3 1 0.5L458 344c-0.2-0.1-0.5-0.3-0.7-0.4-0.1 0-0.1-0.1-0.2-0.1s-0.2-0.1-0.3-0.1c-0.1 0-0.2-0.1-0.3-0.1-0.2-0.1-0.4-0.1-0.7-0.2h-0.1c-0.3 0-0.6-0.1-0.9-0.1h-1.9c-0.2 0-0.3 0.1-0.5 0.1s-0.4 0.1-0.6 0.1h-0.2c-0.1 0-0.2 0.1-0.3 0.1-0.4 0.1-0.7 0.2-1.1 0.4-0.1 0-0.2 0.1-0.3 0.1-0.1 0-0.2 0.1-0.2 0.1l-1.8 0.9c-0.4 0.3-0.9 0.5-1.3 0.8-0.1 0.1-0.3 0.2-0.4 0.3-0.3 0.2-0.6 0.4-0.9 0.7-0.2 0.1-0.3 0.3-0.5 0.4-0.3 0.2-0.5 0.4-0.8 0.7-0.2 0.2-0.4 0.3-0.5 0.5-0.2 0.1-0.3 0.3-0.5 0.4l-0.2 0.2c-0.4 0.4-0.7 0.8-1.1 1.1l-0.3 0.3-0.1 0.1c-0.2 0.2-0.3 0.4-0.5 0.6-0.2 0.2-0.4 0.5-0.6 0.7 0 0.1-0.1 0.1-0.1 0.2-0.1 0.2-0.2 0.3-0.4 0.5s-0.3 0.4-0.5 0.6c-0.1 0.1-0.2 0.3-0.3 0.4-0.1 0.2-0.2 0.3-0.3 0.5-0.1 0.1-0.2 0.3-0.3 0.4-0.2 0.4-0.5 0.8-0.7 1.1l-7.8 13.4c-0.1 0.1-0.1 0.2-0.2 0.3-0.1 0.1-0.1 0.2-0.2 0.3 0 0.1-0.1 0.2-0.1 0.3 0 0.1-0.1 0.2-0.1 0.3 0 0.1-0.1 0.2-0.1 0.3 0 0.1-0.1 0.2-0.1 0.4 0 0.1-0.1 0.3-0.1 0.4 0 0.1-0.1 0.3-0.1 0.4v0.8c0 0.3 0 0.7 0.1 1 0.2 0.6 0.5 1.1 0.9 1.3l10.8 6.3c-0.4-0.3-0.8-0.7-0.9-1.3-0.1-0.3-0.1-0.6-0.1-1v-0.3c0-0.3 0-0.6 0.1-0.9 0.1-0.4 0.2-0.8 0.4-1.2l0.6-1.2 7.8-13.4c0.3-0.5 0.6-1 1-1.5 0.1-0.2 0.2-0.3 0.3-0.5 0 0 0.3-0.4 0.6-0.7z" fill="#ACC5EA" /><path d="M522.1 174.5c9.5-5.5 17.3-1 17.4 9.9l1 345.8c0 10.9-7.7 24.4-17.2 29.9L346.8 661.9c-9.5 5.5-17.3 1-17.4-9.9l-1-345.8c0-10.9 7.7-24.4 17.3-29.9l176.4-101.8z" fill="#4040FF" /><path d="M506.3 220.7c3.3-1.9 6-0.4 6 3.4l0.7 246.6c0 3.8-2.7 8.5-6 10.4l-144.4 83.4c-3.3 1.9-6 0.4-6-3.4l-0.7-246.6c0-3.8 2.7-8.5 6-10.4l144.4-83.4z" fill="#2A2ABC" /><path d="M526.1 172.7c0.3-0.1 0.5-0.2 0.8-0.2 0.2-0.1 0.5-0.1 0.7-0.2 0.3-0.1 0.6-0.1 0.9-0.1 0.2 0 0.3 0 0.5-0.1h1.3c0.4 0 0.9 0.1 1.3 0.2 0.1 0 0.2 0 0.3 0.1 0.3 0.1 0.6 0.2 1 0.3 0.1 0 0.2 0.1 0.3 0.1 0.4 0.2 0.8 0.3 1.1 0.5l-14.8-8.6s-0.1 0-0.1-0.1c-0.3-0.2-0.6-0.3-0.9-0.4-0.1 0-0.1 0-0.2-0.1-0.1 0-0.2-0.1-0.3-0.1-0.2-0.1-0.3-0.1-0.5-0.2-0.2 0-0.3-0.1-0.5-0.1-0.1 0-0.2-0.1-0.3-0.1h-0.2c-0.3-0.1-0.7-0.1-1.1-0.1h-1.5c-0.2 0-0.3 0-0.5 0.1-0.2 0-0.3 0-0.5 0.1-0.1 0-0.3 0.1-0.4 0.1-0.2 0-0.5 0.1-0.7 0.2-0.1 0-0.3 0-0.4 0.1-0.1 0-0.3 0.1-0.4 0.1-0.4 0.1-0.8 0.3-1.2 0.4-0.1 0.1-0.3 0.1-0.4 0.2-0.1 0-0.2 0.1-0.2 0.1-0.7 0.3-1.4 0.6-2.1 1.1L330.9 267.7c-0.6 0.3-1.1 0.7-1.6 1-0.2 0.1-0.3 0.3-0.5 0.4-0.4 0.3-0.7 0.5-1.1 0.8-0.2 0.2-0.4 0.3-0.6 0.5-0.3 0.3-0.7 0.6-1 0.9-0.2 0.2-0.4 0.4-0.6 0.5-0.1 0.1-0.2 0.2-0.4 0.3-0.1 0.1-0.2 0.3-0.4 0.4l-1.2 1.2c-0.1 0.1-0.2 0.3-0.4 0.4-0.1 0.1-0.2 0.2-0.3 0.4-0.2 0.3-0.5 0.5-0.7 0.8-0.1 0.2-0.3 0.3-0.4 0.5-0.1 0.2-0.2 0.3-0.3 0.5-0.2 0.2-0.3 0.4-0.5 0.7-0.1 0.1-0.2 0.3-0.3 0.4-0.2 0.3-0.4 0.5-0.5 0.8-0.1 0.2-0.2 0.3-0.3 0.5 0 0.1-0.1 0.1-0.1 0.2l-0.9 1.5s0 0.1-0.1 0.1c-0.1 0.1-0.1 0.2-0.2 0.3-0.2 0.4-0.4 0.7-0.6 1.1-0.1 0.2-0.2 0.3-0.2 0.5-0.1 0.2-0.2 0.4-0.3 0.5-0.1 0.2-0.2 0.3-0.2 0.5-0.2 0.4-0.4 0.8-0.5 1.2 0 0.1-0.1 0.2-0.1 0.3v0.1c-0.2 0.5-0.4 1-0.6 1.6 0 0.1-0.1 0.2-0.1 0.3-0.1 0.2-0.1 0.4-0.2 0.6-0.1 0.3-0.2 0.5-0.3 0.8-0.1 0.2-0.1 0.4-0.2 0.6-0.1 0.2-0.1 0.5-0.2 0.7 0 0.2-0.1 0.3-0.1 0.5-0.1 0.3-0.1 0.5-0.2 0.8-0.1 0.3-0.2 0.6-0.2 0.9 0 0.1-0.1 0.2-0.1 0.3 0 0.2-0.1 0.4-0.1 0.6-0.1 0.5-0.2 0.9-0.2 1.4 0 0.1-0.1 0.3-0.1 0.4 0 0.3-0.1 0.6-0.1 0.8 0 0.2 0 0.4-0.1 0.6 0 0.6-0.1 1.3-0.1 1.9l1 345.8c0 4.8 1.5 8.3 4 10.3 0.4 0.3 0.7 0.5 1.1 0.8l14.8 8.6c-3.1-1.8-5.1-5.6-5.1-11.1l-1-345.8c0-0.6 0-1.3 0.1-1.9 0-0.2 0-0.4 0.1-0.6 0-0.4 0.1-0.8 0.2-1.2 0.1-0.4 0.1-0.9 0.2-1.4 0.1-0.3 0.1-0.6 0.2-1 0.1-0.3 0.1-0.6 0.2-0.9l0.3-1.2c0.1-0.2 0.1-0.5 0.2-0.7 0.1-0.5 0.3-0.9 0.5-1.4 0.1-0.2 0.1-0.4 0.2-0.6 0.2-0.6 0.5-1.3 0.8-1.9 0-0.1 0.1-0.2 0.1-0.3 0.2-0.6 0.5-1.1 0.8-1.6 0.1-0.2 0.2-0.3 0.3-0.5 0.3-0.5 0.6-1.1 0.8-1.6 0.1-0.1 0.1-0.2 0.2-0.3 0.3-0.6 0.7-1.2 1.1-1.8 0.1-0.2 0.2-0.3 0.3-0.5l0.9-1.2c0.2-0.2 0.3-0.4 0.5-0.7 0.3-0.3 0.5-0.7 0.8-1 0.2-0.3 0.4-0.6 0.7-0.8 0.2-0.3 0.4-0.5 0.7-0.8 0.4-0.4 0.8-0.8 1.1-1.2l0.7-0.7c0.2-0.2 0.4-0.4 0.6-0.5 0.3-0.3 0.7-0.6 1-0.9 0.2-0.2 0.4-0.3 0.6-0.5 0.4-0.3 0.7-0.6 1.1-0.8 0.2-0.1 0.3-0.3 0.5-0.4 0.5-0.4 1.1-0.7 1.6-1l176.4-101.8c0.7-0.4 1.4-0.8 2.2-1.1 0.2-0.1 0.5-0.2 0.7-0.3 0.1-0.3 0.6-0.5 0.9-0.6z" fill="#2A2ABC" /><path d="M444.9 540.1c10.9-6.3 19.7-1.2 19.8 11.3s-8.8 27.7-19.6 34c-10.9 6.3-19.7 1.2-19.7-11.3s8.6-27.7 19.5-34z" fill="#FFFFFF" /><path d="M420.2 400.5c-1.4-0.8-1.4-3.5 0-6l18.1-31.3c0.7-1.2 1.6-2.2 2.6-2.8 0.3-0.2 0.6-0.3 0.9-0.4 1.3-0.3 2.3 0.2 2.6 1.5 0.3 1.3 0 3-1 4.6l-18.1 31.3c-0.7 1.2-1.7 2.2-2.6 2.7-0.8 0.6-1.7 0.8-2.5 0.4z" fill="#161691" /><path d="M434.2 391.3c1.3-0.3 2.3 0.2 2.6 1.5 0.3 1.3 0 3-1 4.6l-7.8 13.4c-2.9 4.9-6.6 8.8-10.4 10.9-3.8 2.2-7.5 2.7-10.4 1-5.7-3.3-5.8-13.9-0.1-23.8l7.8-13.4c0.7-1.2 1.6-2.2 2.6-2.8 0.3-0.2 0.6-0.3 0.9-0.4 1.3-0.3 2.3 0.2 2.6 1.5 0.3 1.3 0 3-1 4.6l-7.8 13.4c-1.9 3.2-2.6 6.7-1.9 9.3 0.7 2.5 2.7 3.7 5.2 3 0.6-0.2 1.3-0.4 1.9-0.8 1.9-1.1 3.8-3.1 5.2-5.5l7.8-13.4c0.7-1.2 1.6-2.2 2.6-2.8 0.5-0.1 0.9-0.2 1.2-0.3z m22.1-53.3c5.7 3.2 5.8 13.7 0.2 23.6l-7.8 13.4c-0.7 1.2-1.6 2.1-2.5 2.6-0.9 0.5-1.9 0.7-2.6 0.3-1.4-0.8-1.4-3.4-0.1-5.9l7.8-13.4c1.9-3.2 2.6-6.7 1.9-9.3-0.7-2.5-2.7-3.7-5.2-3-0.6 0.2-1.3 0.4-1.9 0.8-1.9 1.1-3.8 3.1-5.2 5.5l-7.8 13.4c-0.7 1.2-1.6 2.2-2.6 2.7-0.3 0.2-0.6 0.3-0.9 0.4-1.3 0.3-2.3-0.2-2.6-1.5-0.3-1.3 0-3 1-4.6l7.8-13.4c2.8-4.8 6.5-8.6 10.2-10.7 3.7-2 7.4-2.5 10.3-0.9z" fill="#161691" /><path d="M447.7 403.3c0.3 0 0.5 0.1 0.7 0.2l-10.8-6.3c-0.1 0-0.1-0.1-0.2-0.1s-0.1 0-0.2-0.1h-0.9c-0.1 0-0.2 0-0.3 0.1-0.1 0-0.3 0.1-0.4 0.1-0.2 0.1-0.3 0.2-0.5 0.3-0.2 0.1-0.5 0.3-0.7 0.5l-0.2 0.2c-0.1 0.1-0.2 0.2-0.4 0.3l-0.1 0.1-0.1 0.1-0.2 0.2c-0.1 0.1-0.2 0.2-0.3 0.4l-0.1 0.1v0.1c0 0.1-0.1 0.1-0.1 0.2-0.1 0.1-0.1 0.2-0.2 0.3-0.1 0.1-0.1 0.2-0.2 0.3l-7.8 13.4c-0.3 0.6-0.7 1.1-1.1 1.7l-0.1 0.1c-0.3 0.5-0.7 0.9-1.1 1.3-0.1 0.1-0.2 0.2-0.2 0.3l-0.9 0.9-0.4 0.4c-0.4 0.4-0.9 0.7-1.4 0.9-0.3 0.2-0.7 0.4-1 0.5l-0.9 0.3c-0.3 0.1-0.6 0.1-0.8 0.2h-1.1c-0.2 0-0.5-0.1-0.7-0.1h-0.1c-0.2-0.1-0.5-0.2-0.7-0.3l10.8 6.3c0.1 0.1 0.2 0.1 0.4 0.2 0.1 0 0.2 0.1 0.3 0.1h0.1c0.1 0 0.3 0.1 0.4 0.1h1.6c0.2 0 0.4-0.1 0.6-0.1 0.3-0.1 0.6-0.2 0.8-0.3 0.3-0.1 0.7-0.3 1-0.5 0.5-0.3 0.9-0.6 1.4-0.9 0.1-0.1 0.3-0.2 0.4-0.4 0.2-0.2 0.5-0.4 0.7-0.6 0.1-0.1 0.1-0.2 0.2-0.2 0.1-0.1 0.2-0.2 0.2-0.3 0.1-0.1 0.2-0.2 0.3-0.4 0.2-0.2 0.4-0.5 0.6-0.7 0.1-0.1 0.1-0.2 0.2-0.2l0.1-0.1c0.1-0.1 0.2-0.2 0.2-0.3 0.1-0.2 0.3-0.4 0.4-0.6 0.1-0.2 0.3-0.4 0.4-0.6 0 0 0-0.1 0.1-0.1l7.8-13.4c0.2-0.3 0.4-0.6 0.5-0.8v-0.1c0.2-0.2 0.4-0.4 0.5-0.7l0.1-0.1c0.1-0.2 0.3-0.3 0.5-0.4l0.2-0.2c0.2-0.2 0.5-0.3 0.7-0.5 0.3-0.2 0.6-0.3 0.9-0.4 0.5-0.4 0.8-0.4 1.1-0.4z m18.3-38.4c0.1-0.6 0.1-1.2 0.1-1.7v-0.3c0-0.5-0.1-1-0.2-1.5-0.3-1.3-1-2.2-1.9-2.7l-10.8-6.3c0.9 0.5 1.5 1.4 1.9 2.7 0.1 0.5 0.2 1 0.2 1.5v0.3c0 0.5 0 1-0.1 1.6 0 0.2-0.1 0.5-0.1 0.7 0 0.1 0 0.2-0.1 0.3-0.1 0.4-0.2 0.7-0.3 1.1 0 0.1 0 0.1-0.1 0.2-0.1 0.4-0.2 0.7-0.4 1.1v0.1c-0.2 0.4-0.3 0.8-0.5 1.2l-0.6 1.2-7.8 13.4-0.1 0.1c-0.1 0.1-0.1 0.2-0.2 0.3-0.1 0.1-0.1 0.2-0.1 0.3v0.2c0 0.1 0 0.1-0.1 0.2 0 0.1-0.1 0.2-0.1 0.3 0 0.1-0.1 0.3-0.1 0.4 0 0.1-0.1 0.3-0.1 0.4 0 0.1 0 0.3-0.1 0.4v1.3c0 0.2 0.1 0.4 0.1 0.5 0 0.1 0.1 0.2 0.1 0.3 0.1 0.2 0.1 0.3 0.2 0.4 0 0.1 0.1 0.1 0.1 0.2 0.1 0.2 0.3 0.3 0.5 0.5l10.8 6.3c-0.2-0.1-0.4-0.3-0.5-0.5 0-0.1-0.1-0.1-0.1-0.2-0.1-0.1-0.2-0.3-0.2-0.4 0-0.1-0.1-0.2-0.1-0.3 0-0.2-0.1-0.3-0.1-0.5v-1.3c0-0.3 0.1-0.5 0.2-0.8l0.3-0.9v-0.1c0.1-0.3 0.3-0.6 0.4-0.9l7.8-13.4 0.3-0.6 0.3-0.6 0.3-0.6c0.1-0.2 0.2-0.4 0.2-0.6v-0.1c0.1-0.2 0.2-0.5 0.2-0.7 0-0.1 0.1-0.2 0.1-0.4 0-0.1 0-0.1 0.1-0.2 0-0.1 0-0.1 0.1-0.2 0.1-0.3 0.1-0.6 0.2-0.8v-0.1c0-0.1 0-0.2 0.1-0.3 0.1-0.1 0.2-0.3 0.2-0.5z" fill="#ACC5EA" /><path d="M445.4 366c-0.1 0-0.1-0.1-0.2-0.1s-0.1 0-0.2-0.1h-0.9c-0.1 0-0.2 0-0.3 0.1-0.1 0-0.3 0.1-0.4 0.1-0.2 0.1-0.3 0.2-0.5 0.3-0.2 0.1-0.5 0.3-0.7 0.5l-0.2 0.2-0.3 0.3-0.1 0.1-0.1 0.1-0.2 0.2c-0.1 0.1-0.2 0.2-0.3 0.4l-0.1 0.1v0.1l-0.1 0.1c-0.1 0.1-0.1 0.2-0.2 0.3-0.1 0.1-0.1 0.2-0.2 0.3v0.1l-18.1 31.3c-0.1 0.1-0.1 0.2-0.2 0.3-0.1 0.1-0.1 0.2-0.2 0.3-0.1 0.1-0.1 0.2-0.1 0.3 0 0.1-0.1 0.2-0.1 0.3 0 0.1-0.1 0.2-0.1 0.3 0 0.1-0.1 0.2-0.1 0.3v0.2c0 0.1-0.1 0.3-0.1 0.4 0 0.1 0 0.2-0.1 0.3v1.4c0 0.2 0.1 0.4 0.1 0.5 0 0.1 0.1 0.2 0.1 0.3 0.1 0.2 0.1 0.3 0.2 0.4 0 0.1 0.1 0.1 0.1 0.2 0.1 0.2 0.3 0.3 0.5 0.5l10.8 6.3c-0.2-0.1-0.4-0.3-0.5-0.5 0-0.1-0.1-0.1-0.1-0.2-0.1-0.1-0.2-0.3-0.2-0.4 0-0.1-0.1-0.2-0.1-0.3 0-0.2-0.1-0.3-0.1-0.5V409.4c0-0.3 0.1-0.5 0.2-0.8v-0.1l0.3-0.9c0.1-0.3 0.3-0.6 0.5-0.9l18.1-31.3c0.2-0.3 0.3-0.6 0.5-0.8v-0.1c0.2-0.2 0.4-0.5 0.5-0.7l0.1-0.1c0.1-0.2 0.3-0.3 0.5-0.4l0.2-0.2c0.2-0.2 0.4-0.3 0.7-0.5 0.3-0.2 0.6-0.3 0.9-0.4 0.3-0.1 0.6-0.1 0.9-0.1 0.3 0 0.5 0.1 0.8 0.2l-10.9-6.3z" fill="#ACC5EA" /><path d="M432.9 412.5c-1.4-0.8-1.4-3.5 0-6l18.1-31.3c0.7-1.2 1.6-2.2 2.6-2.8 0.3-0.2 0.6-0.3 0.9-0.4 1.3-0.3 2.3 0.2 2.6 1.5 0.3 1.3 0 3-1 4.6L438 409.4c-0.7 1.2-1.7 2.2-2.6 2.7-0.9 0.7-1.8 0.8-2.5 0.4z" fill="#FFFFFF" /><path d="M446.8 403.4c1.3-0.3 2.3 0.2 2.6 1.5 0.3 1.3 0 3-1 4.6l-7.8 13.4c-2.9 4.9-6.6 8.8-10.4 10.9-3.8 2.2-7.5 2.7-10.4 1-5.7-3.3-5.8-13.9-0.1-23.8l7.8-13.4c0.7-1.2 1.6-2.2 2.6-2.8 0.3-0.2 0.6-0.3 0.9-0.4 1.3-0.3 2.3 0.2 2.6 1.5 0.3 1.3 0 3-1 4.6l-7.8 13.4c-1.9 3.2-2.6 6.7-1.9 9.3 0.7 2.5 2.7 3.7 5.2 3 0.6-0.2 1.3-0.4 1.9-0.8 1.9-1.1 3.8-3.1 5.2-5.5l7.8-13.4c0.7-1.2 1.6-2.2 2.6-2.8 0.6-0.1 0.9-0.2 1.2-0.3z" fill="#FFFFFF" /><path d="M432.9 394.6l-10.8-6.3c-0.1 0-0.1-0.1-0.2-0.1s-0.1 0-0.2-0.1h-0.9c-0.1 0-0.2 0-0.3 0.1-0.1 0-0.3 0.1-0.4 0.1-0.2 0.1-0.3 0.2-0.5 0.3-0.2 0.1-0.5 0.3-0.7 0.5l-0.2 0.2-0.3 0.3-0.1 0.1-0.1 0.1-0.2 0.2c-0.1 0.1-0.2 0.2-0.3 0.4l-0.1 0.1v0.1l-0.1 0.1c-0.1 0.1-0.1 0.2-0.2 0.3-0.1 0.1-0.1 0.2-0.2 0.3v0.1l-7.8 13.4c-0.2 0.4-0.4 0.7-0.6 1.1-0.1 0.2-0.2 0.4-0.3 0.5-0.1 0.1-0.1 0.3-0.2 0.4 0 0.1-0.1 0.2-0.2 0.3-0.2 0.4-0.4 0.8-0.6 1.3v0.1c0 0.1-0.1 0.2-0.1 0.2-0.1 0.3-0.3 0.7-0.4 1-0.1 0.1-0.1 0.3-0.2 0.4-0.1 0.2-0.1 0.3-0.2 0.5-0.1 0.1-0.1 0.3-0.2 0.4-0.1 0.3-0.2 0.5-0.2 0.8-0.1 0.2-0.1 0.4-0.2 0.5 0 0.1 0 0.1-0.1 0.2-0.1 0.3-0.1 0.6-0.2 0.9-0.1 0.2-0.1 0.5-0.2 0.7v0.1c0 0.2 0 0.3-0.1 0.5-0.1 0.5-0.2 0.9-0.2 1.4v0.6c0 0.4-0.1 0.8-0.1 1.3v2.5c0 0.5 0.1 0.9 0.2 1.4v0.3c0.1 0.5 0.2 1.1 0.4 1.5 0 0.1 0.1 0.3 0.1 0.4 0.1 0.3 0.3 0.7 0.4 1 0.1 0.2 0.2 0.3 0.2 0.5 0.2 0.3 0.3 0.5 0.5 0.8 0.1 0.1 0.2 0.3 0.3 0.4 0.2 0.3 0.4 0.5 0.6 0.7l0.3 0.3c0.3 0.3 0.7 0.6 1.1 0.8l10.8 6.3c-0.4-0.2-0.8-0.5-1.1-0.8l-0.3-0.3c-0.2-0.2-0.4-0.4-0.6-0.7-0.1-0.1-0.2-0.3-0.3-0.4-0.2-0.3-0.3-0.5-0.5-0.8-0.1-0.2-0.2-0.3-0.2-0.5-0.2-0.3-0.3-0.7-0.4-1 0-0.1-0.1-0.3-0.1-0.4-0.2-0.5-0.3-1-0.4-1.5v-0.3c-0.1-0.4-0.1-0.9-0.2-1.4v-2.5c0-0.4 0.1-0.8 0.1-1.3 0-0.2 0-0.4 0.1-0.7 0.1-0.5 0.1-0.9 0.2-1.4 0-0.2 0.1-0.4 0.1-0.6 0-0.2 0.1-0.5 0.2-0.7 0.1-0.4 0.2-0.7 0.3-1.1 0-0.2 0.1-0.4 0.2-0.5 0.1-0.4 0.3-0.8 0.4-1.2 0.1-0.2 0.1-0.3 0.2-0.5 0.2-0.5 0.4-0.9 0.6-1.4 0-0.1 0.1-0.2 0.1-0.2 0.2-0.5 0.5-1.1 0.8-1.6 0.1-0.1 0.1-0.3 0.2-0.4 0.3-0.5 0.6-1.1 0.9-1.6l7.8-13.4c0.2-0.3 0.3-0.6 0.5-0.8v-0.1c0.2-0.2 0.4-0.5 0.5-0.7l0.1-0.1c0.1-0.2 0.3-0.3 0.5-0.4l0.2-0.2c0.2-0.2 0.4-0.3 0.7-0.5 0.3-0.2 0.6-0.3 0.9-0.4 0.3-0.1 0.6-0.1 0.9-0.1 0.1 0 0.3 0.1 0.6 0.2-0.1 0 0 0 0 0z" fill="#ACC5EA" /><path d="M468.9 350.1c5.7 3.2 5.8 13.7 0.2 23.6l-7.8 13.4c-0.7 1.2-1.6 2.1-2.5 2.6-0.9 0.5-1.9 0.7-2.6 0.3-1.4-0.8-1.4-3.4-0.1-5.9l7.8-13.4c1.9-3.2 2.6-6.7 1.9-9.3-0.7-2.5-2.7-3.7-5.2-3-0.6 0.2-1.3 0.4-1.9 0.8-1.9 1.1-3.8 3.1-5.2 5.5l-7.8 13.4c-0.7 1.2-1.6 2.2-2.6 2.7-0.3 0.2-0.6 0.3-0.9 0.4-1.3 0.3-2.3-0.2-2.6-1.5-0.3-1.3 0-3 1-4.6l7.8-13.4c2.8-4.8 6.5-8.6 10.2-10.7 3.7-2 7.5-2.5 10.3-0.9z" fill="#FFFFFF" /><path d="M450.4 358.8c0.1-0.2 0.2-0.3 0.4-0.5 0.2-0.3 0.5-0.6 0.7-0.9 0.2-0.2 0.3-0.4 0.5-0.6 0.1-0.2 0.3-0.3 0.4-0.4 0.4-0.4 0.7-0.8 1.1-1.1 0.2-0.2 0.5-0.4 0.7-0.7 0.2-0.2 0.4-0.3 0.5-0.5 0.3-0.2 0.5-0.5 0.8-0.7 0.2-0.1 0.3-0.3 0.5-0.4 0.3-0.2 0.6-0.4 0.9-0.7 0.1-0.1 0.3-0.2 0.4-0.3 0.4-0.3 0.9-0.6 1.3-0.8 0.6-0.4 1.2-0.6 1.8-0.9 0.2-0.1 0.3-0.1 0.5-0.2 0.4-0.1 0.7-0.3 1.1-0.4 0.2-0.1 0.4-0.1 0.5-0.2 0.2-0.1 0.4-0.1 0.6-0.1 0.2 0 0.5-0.1 0.7-0.1h1.5c0.4 0 0.7 0 1.1 0.1h0.1c0.3 0.1 0.6 0.2 1 0.3 0.1 0 0.2 0.1 0.3 0.1 0.3 0.1 0.7 0.3 1 0.5L458 344c-0.2-0.1-0.5-0.3-0.7-0.4-0.1 0-0.1-0.1-0.2-0.1s-0.2-0.1-0.3-0.1c-0.1 0-0.2-0.1-0.3-0.1-0.2-0.1-0.4-0.1-0.7-0.2h-0.1c-0.3 0-0.6-0.1-0.9-0.1h-1.9c-0.2 0-0.3 0.1-0.5 0.1s-0.4 0.1-0.6 0.1h-0.2c-0.1 0-0.2 0.1-0.3 0.1-0.4 0.1-0.7 0.2-1.1 0.4-0.1 0-0.2 0.1-0.3 0.1-0.1 0-0.2 0.1-0.2 0.1l-1.8 0.9c-0.4 0.3-0.9 0.5-1.3 0.8-0.1 0.1-0.3 0.2-0.4 0.3-0.3 0.2-0.6 0.4-0.9 0.7-0.2 0.1-0.3 0.3-0.5 0.4-0.3 0.2-0.5 0.4-0.8 0.7-0.2 0.2-0.4 0.3-0.5 0.5-0.2 0.1-0.3 0.3-0.5 0.4l-0.2 0.2c-0.4 0.4-0.7 0.8-1.1 1.1l-0.3 0.3-0.1 0.1c-0.2 0.2-0.3 0.4-0.5 0.6-0.2 0.2-0.4 0.5-0.6 0.7 0 0.1-0.1 0.1-0.1 0.2-0.1 0.2-0.2 0.3-0.4 0.5s-0.3 0.4-0.5 0.6c-0.1 0.1-0.2 0.3-0.3 0.4-0.1 0.2-0.2 0.3-0.3 0.5-0.1 0.1-0.2 0.3-0.3 0.4-0.2 0.4-0.5 0.8-0.7 1.1l-7.8 13.4c-0.1 0.1-0.1 0.2-0.2 0.3-0.1 0.1-0.1 0.2-0.2 0.3 0 0.1-0.1 0.2-0.1 0.3 0 0.1-0.1 0.2-0.1 0.3 0 0.1-0.1 0.2-0.1 0.3 0 0.1-0.1 0.2-0.1 0.4 0 0.1-0.1 0.3-0.1 0.4 0 0.1-0.1 0.3-0.1 0.4v0.8c0 0.3 0 0.7 0.1 1 0.2 0.6 0.5 1.1 0.9 1.3l10.8 6.3c-0.4-0.3-0.8-0.7-0.9-1.3-0.1-0.3-0.1-0.6-0.1-1v-0.3c0-0.3 0-0.6 0.1-0.9 0.1-0.4 0.2-0.8 0.4-1.2l0.6-1.2 7.8-13.4c0.3-0.5 0.6-1 1-1.5 0.1-0.2 0.2-0.3 0.3-0.5 0 0 0.3-0.4 0.6-0.7z" fill="#ACC5EA" /><path d="M523.9 684.6c0.6 1 1.4 1.7 2.3 2.2l14.8 8.6c-2.4-1.4-4-4.4-4-8.7l-14.8-8.6c0.1 2.7 0.7 4.9 1.7 6.5z" fill="#C68620" /><path d="M705.9 454.3c-0.3-0.2-0.5-0.3-0.8-0.4h-0.1c-0.1 0-0.2-0.1-0.2-0.1-0.1 0-0.2-0.1-0.4-0.1-0.1 0-0.3-0.1-0.4-0.1-0.1 0-0.2 0-0.2-0.1h-0.1c-0.3 0-0.5-0.1-0.8-0.1H701c-0.1 0-0.2 0-0.3 0.1-0.2 0-0.4 0.1-0.6 0.1-0.1 0-0.2 0-0.3 0.1-0.1 0-0.2 0.1-0.3 0.1-0.3 0.1-0.6 0.2-1 0.3-0.1 0-0.2 0.1-0.3 0.1-0.1 0-0.1 0.1-0.2 0.1-0.6 0.2-1.1 0.5-1.7 0.8l-160.8 92.8c-0.7 0.4-1.4 0.9-2.1 1.4-0.1 0.1-0.2 0.2-0.4 0.3-0.6 0.5-1.3 1.1-1.9 1.7-0.1 0-0.1 0.1-0.2 0.1l-0.3 0.3c-0.3 0.3-0.6 0.6-0.9 1l-0.3 0.3c-0.1 0.1-0.2 0.2-0.2 0.3-0.2 0.2-0.4 0.4-0.5 0.6-0.1 0.1-0.2 0.3-0.3 0.4-0.1 0.1-0.2 0.2-0.3 0.4-0.1 0.2-0.3 0.3-0.4 0.5l-0.3 0.3c-0.1 0.2-0.3 0.4-0.4 0.6-0.1 0.1-0.2 0.3-0.3 0.4 0 0.1-0.1 0.1-0.1 0.2-0.2 0.4-0.5 0.8-0.7 1.2v0.1c0 0.1-0.1 0.2-0.1 0.2-0.2 0.3-0.3 0.6-0.5 0.8-0.1 0.1-0.1 0.3-0.2 0.4-0.1 0.1-0.1 0.3-0.2 0.4-0.1 0.1-0.1 0.2-0.2 0.4-0.1 0.3-0.3 0.6-0.4 0.9 0 0.1-0.1 0.1-0.1 0.2v0.1c-0.2 0.4-0.3 0.8-0.5 1.2 0 0.1 0 0.1-0.1 0.2s-0.1 0.3-0.2 0.4c-0.1 0.2-0.2 0.4-0.2 0.6-0.1 0.2-0.1 0.3-0.1 0.5-0.1 0.2-0.1 0.4-0.2 0.6 0 0.1-0.1 0.2-0.1 0.4-0.1 0.2-0.1 0.4-0.1 0.6-0.1 0.2-0.1 0.5-0.2 0.7 0 0.1 0 0.2-0.1 0.3 0 0.2-0.1 0.3-0.1 0.5-0.1 0.4-0.1 0.7-0.2 1.1 0 0.1 0 0.2-0.1 0.3v0.3c-0.1 0.8-0.2 1.6-0.2 2.4l0.3 106.7 14.8 8.6-0.3-106.7c0-0.8 0.1-1.6 0.2-2.4 0-0.2 0-0.4 0.1-0.6 0.1-0.4 0.1-0.7 0.2-1.1 0-0.2 0.1-0.5 0.1-0.8 0.1-0.2 0.1-0.5 0.2-0.7 0.1-0.3 0.2-0.6 0.3-1 0.1-0.2 0.1-0.4 0.2-0.6 0.1-0.4 0.2-0.7 0.4-1.1 0.1-0.1 0.1-0.3 0.2-0.4l0.6-1.5c0-0.1 0.1-0.1 0.1-0.2 0.2-0.4 0.4-0.9 0.6-1.3 0.1-0.1 0.1-0.3 0.2-0.4 0.2-0.4 0.4-0.8 0.7-1.2 0-0.1 0.1-0.2 0.1-0.2 0.3-0.5 0.6-0.9 0.9-1.4 0.1-0.1 0.2-0.3 0.3-0.4 0.2-0.3 0.4-0.6 0.7-1 0.1-0.2 0.3-0.3 0.4-0.5 0.2-0.3 0.4-0.5 0.6-0.8 0.2-0.2 0.4-0.4 0.5-0.7 0.2-0.2 0.3-0.4 0.5-0.6 0.3-0.3 0.6-0.6 0.9-1 0.1-0.2 0.3-0.3 0.5-0.5 0.6-0.6 1.2-1.2 1.9-1.7 0.1-0.1 0.2-0.2 0.4-0.3 0.7-0.5 1.4-1 2.1-1.4l160.8-92.8c0.6-0.3 1.1-0.6 1.7-0.8 0.2-0.1 0.4-0.1 0.5-0.2l0.9-0.3c0.2-0.1 0.4-0.1 0.6-0.2 0.2 0 0.4-0.1 0.6-0.1 0.2 0 0.5-0.1 0.7-0.1h1.5c0.3 0 0.7 0.1 1 0.1 0.1 0 0.2 0 0.2 0.1 0.3 0.1 0.5 0.1 0.7 0.2 0.1 0 0.2 0.1 0.2 0.1 0.3 0.1 0.6 0.3 0.9 0.4l-14.9-8.4z" fill="#C68620" /><path d="M711.1 463.8c7.5-4.3 13.6-0.8 13.6 7.7l0.3 106.7c0 8.6-6.1 19.1-13.5 23.4l-160.8 92.8c-7.5 4.3-13.6 0.8-13.6-7.7l-0.3-106.7c0-8.6 6.1-19.1 13.5-23.4l160.8-92.8z" fill="#FFCD2E" /><path d="M724.7 485.9l0.1 21.4-187.9 108.3-0.1-21.4z" fill="#FFFFFF" /><path d="M705.6 552.5c1.5-0.8 2.5-0.1 2.2 1.6l-6 28.9c-0.2 1.2-1.1 2.4-2.2 3l-38.9 22.4c-1.5 0.8-2.5 0.1-2.2-1.6l6-28.9c0.2-1.2 1.1-2.4 2.2-3l38.9-22.4z" fill="#C68620" /><path d="M667.6 613c0-0.1-0.1-0.2-0.1-0.3v-0.7c0-0.1 0-0.3 0.1-0.5l-5.9-3.4v1.2c0 0.1 0.1 0.2 0.1 0.3 0 0 0 0.1 0.1 0.1l0.3 0.3 5.9 3.4-0.3-0.3c-0.1 0-0.1-0.1-0.2-0.1z m42.7-59.4s-0.1 0-0.1-0.1H709c-0.1 0-0.2 0.1-0.4 0.2l-38.9 22.4c-0.1 0.1-0.3 0.2-0.4 0.3l-0.1 0.1c-0.1 0.1-0.2 0.1-0.3 0.2l-0.2 0.2-0.1 0.1-0.2 0.2s0 0.1-0.1 0.1v0.1c0 0.1-0.1 0.1-0.1 0.2l-0.1 0.1c0 0.1-0.1 0.1-0.1 0.2s-0.1 0.1-0.1 0.2v0.1c0 0.1 0 0.1-0.1 0.2 0 0 0 0.1-0.1 0.1 0 0.1 0 0.1-0.1 0.2 0 0.1 0 0.1-0.1 0.2l-6 28.9 5.9 3.4 6-28.9c0-0.1 0.1-0.3 0.1-0.4 0-0.1 0.1-0.3 0.2-0.4 0.1-0.1 0.1-0.3 0.2-0.4 0.1-0.1 0.2-0.2 0.2-0.4l0.3-0.3 0.1-0.1c0.1-0.1 0.1-0.2 0.2-0.2 0.1-0.1 0.2-0.2 0.3-0.2l0.1-0.1c0.1-0.1 0.3-0.2 0.4-0.3l38.9-22.4c0.2-0.1 0.3-0.2 0.5-0.2h0.1c0.1 0 0.3-0.1 0.4-0.1h0.4c0.1 0 0.2 0.1 0.3 0.1l-5.8-3.3z" fill="#E8CFAC" /><path d="M555 615.5c1-0.6 1.8-0.1 1.8 1v9.5c0 1.2-0.8 2.6-1.8 3.1l-8.3 4.8c-1 0.6-1.8 0.1-1.8-1v-9.5c0-1.1 0.8-2.6 1.8-3.1l8.3-4.8z" fill="#C68620" /><path d="M714.5 557.2c1.5-0.8 2.5-0.1 2.2 1.6l-6 28.9c-0.2 1.2-1.1 2.4-2.2 3l-38.9 22.4c-1.5 0.8-2.5 0.1-2.2-1.6l6-28.9c0.2-1.2 1.1-2.4 2.2-3l38.9-22.4z" fill="#FFFFFF" /><path d="M552.8 637.8l-6.3-3.6c0 0.6 0.2 1 0.5 1.2l6.3 3.6c-0.3-0.2-0.5-0.6-0.5-1.2z" fill="#E8CFAC" /><path d="M557.9 616.7s-0.1 0-0.1-0.1H556.8c-0.1 0-0.2 0.1-0.3 0.1l-8.3 4.8c-0.2 0.1-0.4 0.3-0.5 0.4h-0.1l-0.1 0.1-0.1 0.1-0.1 0.1c-0.1 0.1-0.1 0.1-0.1 0.2v0.2c0 0.1-0.1 0.1-0.1 0.2s-0.1 0.1-0.1 0.2c0 0 0 0.1-0.1 0.1 0 0.1-0.1 0.1-0.1 0.2 0 0 0 0.1-0.1 0.1 0 0.1 0 0.1-0.1 0.2 0 0.1 0 0.1-0.1 0.2v0.2c0 0.1 0 0.1-0.1 0.2v10.2l6.3 3.6v-10c0-0.1 0.1-0.3 0.1-0.4 0-0.1 0.1-0.3 0.2-0.4 0.1-0.1 0.1-0.3 0.2-0.4 0.1-0.1 0.2-0.3 0.3-0.4l0.3-0.3 0.1-0.1 0.1-0.1c0.2-0.2 0.4-0.3 0.5-0.4l8.3-4.8c0.1-0.1 0.2-0.1 0.3-0.2h0.1c0.1 0 0.2-0.1 0.3-0.1h0.3c0.1 0 0.2 0.1 0.3 0.1l-6.2-3.8z" fill="#E8CFAC" /><path d="M578.8 602.8c1-0.6 1.8-0.1 1.8 1v9.5c0 1.2-0.8 2.6-1.8 3.1l-8.3 4.8c-1 0.6-1.8 0.1-1.8-1v-9.5c0-1.1 0.8-2.6 1.8-3.1l8.3-4.8z" fill="#C68620" /><path d="M562.9 620.5c1-0.6 1.8-0.1 1.8 1v9.5c0 1.2-0.8 2.6-1.8 3.1l-8.3 4.8c-1 0.6-1.8 0.1-1.8-1v-9.5c0-1.1 0.8-2.6 1.8-3.1l8.3-4.8z" fill="#FFFFFF" /><path d="M576.9 625.1l-6.3-3.6c0 0.6 0.2 1 0.5 1.2l6.3 3.6c-0.3-0.2-0.5-0.7-0.5-1.2z" fill="#E8CFAC" /><path d="M582 603.9s-0.1 0-0.1-0.1H580.9c-0.1 0-0.2 0.1-0.3 0.1l-8.3 4.8c-0.2 0.1-0.4 0.3-0.5 0.4h-0.1l-0.1 0.1-0.1 0.1-0.1 0.1c-0.1 0.1-0.1 0.1-0.1 0.2v0.2c0 0.1-0.1 0.1-0.1 0.2s-0.1 0.1-0.1 0.2c0 0 0 0.1-0.1 0.1 0 0.1-0.1 0.1-0.1 0.2 0 0 0 0.1-0.1 0.1 0 0.1 0 0.1-0.1 0.2 0 0.1 0 0.1-0.1 0.2v0.2c0 0.1 0 0.1-0.1 0.2v10.2l6.3 3.6v-10c0-0.1 0.1-0.3 0.1-0.4 0-0.1 0.1-0.3 0.2-0.4 0.1-0.1 0.1-0.3 0.2-0.4 0.1-0.1 0.2-0.3 0.3-0.4l0.3-0.3 0.1-0.1 0.1-0.1c0.2-0.2 0.4-0.3 0.5-0.4l8.3-4.8c0.1-0.1 0.2-0.1 0.3-0.2h0.1c0.1 0 0.2-0.1 0.3-0.1h0.3c0.1 0 0.2 0.1 0.3 0.1l-6.2-3.8z" fill="#E8CFAC" /><path d="M601.2 590.5c1-0.6 1.8-0.1 1.8 1v9.5c0 1.2-0.8 2.6-1.8 3.1L593 609c-1 0.6-1.8 0.1-1.8-1v-9.5c0-1.1 0.8-2.6 1.8-3.1l8.2-4.9z" fill="#C68620" /><path d="M586.9 607.7c1-0.6 1.8-0.1 1.8 1v9.5c0 1.2-0.8 2.6-1.8 3.1l-8.3 4.8c-1 0.6-1.8 0.1-1.8-1v-9.5c0-1.1 0.8-2.6 1.8-3.1l8.3-4.8z" fill="#FFFFFF" /><path d="M599.6 612.8l-6.3-3.6c0 0.6 0.2 1 0.5 1.2l6.3 3.6c-0.3-0.2-0.5-0.6-0.5-1.2z" fill="#E8CFAC" /><path d="M604.7 591.7s-0.1 0-0.1-0.1H603.6c-0.1 0-0.2 0.1-0.3 0.1l-8.3 4.8c-0.2 0.1-0.4 0.3-0.5 0.4h-0.1l-0.1 0.1-0.1 0.1-0.1 0.1c-0.1 0.1-0.1 0.1-0.1 0.2v0.2c0 0.1-0.1 0.1-0.1 0.2s-0.1 0.1-0.1 0.2c0 0 0 0.1-0.1 0.1 0 0.1-0.1 0.1-0.1 0.2 0 0 0 0.1-0.1 0.1 0 0.1 0 0.1-0.1 0.2 0 0.1 0 0.1-0.1 0.2v0.2c0 0.1 0 0.1-0.1 0.2v10.2l6.3 3.6v-10c0-0.1 0.1-0.3 0.1-0.4 0-0.1 0.1-0.3 0.2-0.4 0.1-0.1 0.1-0.3 0.2-0.4 0.1-0.1 0.2-0.3 0.3-0.4l0.3-0.3 0.1-0.1 0.1-0.1c0.2-0.2 0.4-0.3 0.5-0.4l8.3-4.8c0.1-0.1 0.2-0.1 0.3-0.2h0.1c0.1 0 0.2-0.1 0.3-0.1h0.3c0.1 0 0.2 0.1 0.3 0.1l-6.2-3.8z" fill="#E8CFAC" /><path d="M609.7 595.5c1-0.6 1.8-0.1 1.8 1v9.5c0 1.2-0.8 2.6-1.8 3.1l-8.3 4.8c-1 0.6-1.8 0.1-1.8-1v-9.5c0-1.1 0.8-2.6 1.8-3.1l8.3-4.8z" fill="#FFFFFF" /></svg>