<?xml version="1.0" encoding="utf-8"?>
<!-- Uploaded to: SVG Repo, www.svgrepo.com, Generator: SVG Repo Mixer Tools -->
<svg width="800px" height="800px" viewBox="0 0 1024 1024" class="icon"  version="1.1" xmlns="http://www.w3.org/2000/svg"><path d="M905.8 598.4c-1.1 11-11.2 16.5-19.8 21.5-8 4.6-16 9.3-23.9 13.9-12.8 7.4-25.5 14.8-38.3 22.2-16 9.3-31.9 18.6-47.9 27.8-17.6 10.2-35.2 20.5-52.9 30.7-17.7 10.3-35.4 20.6-53.2 30.9-16.3 9.5-32.5 18.9-48.8 28.4-13.3 7.7-26.5 15.4-39.8 23.1-8.7 5-17.4 10.1-26.1 15.1-6.6 3.8-12.8 7.6-20.3 9.8-19.5 5.6-41.1 3.7-58.7-6.5-6.3-3.7-12.7-7.3-19-11-11.6-6.7-23.1-13.3-34.7-20-15.2-8.8-30.4-17.6-45.6-26.3-17.3-10-34.7-20-52-30-17.9-10.3-35.8-20.7-53.7-31-16.9-9.8-33.8-19.5-50.8-29.3l-43.2-24.9c-10.3-6-20.7-11.9-31-17.9-4.7-2.7-9.4-5.4-14.1-8.2-7.4-4.3-14.7-11.1-14.7-20.3 0 8.4 0 16.8-0.1 25.3 0 3-0.2 6.1 0 9.2 0.6 8.1 7 14.4 13.7 18.4 4.1 2.5 8.3 4.8 12.5 7.2 10.8 6.2 21.6 12.5 32.4 18.7 15.6 9 31.1 18 46.7 27 18.5 10.7 37.1 21.4 55.6 32.1 19.3 11.2 38.6 22.3 58 33.5 18.4 10.6 36.7 21.2 55.1 31.8 15.3 8.8 30.5 17.6 45.8 26.4 10.3 6 20.7 11.9 31 17.9 6 3.4 11.9 7.3 18.4 9.7 20.3 7.4 44.1 5.8 62.8-5.1 7.1-4.1 14.2-8.3 21.3-12.4 13.1-7.6 26.2-15.2 39.2-22.8 17.1-9.9 34.1-19.8 51.2-29.8 19.1-11.1 38.2-22.2 57.2-33.3l57.3-33.3c17.1-10 34.2-19.9 51.4-29.9 13.3-7.7 26.6-15.4 39.9-23.2 7.3-4.3 14.7-8.5 22-12.8 2.2-1.3 4.5-2.6 6.6-4.1 5.6-4.2 10-10 10.1-17.3 0.1-3.7 0-7.3 0-11 0-7.3 0-14.7 0.1-22 0.4 0.8 0.4 1.3 0.3 1.8 0 0.3 0-0.2 0 0zM905.9 596.8z" fill="#7A9EFD" /><path d="M891.6 576.9c19 11 19.1 28.9 0.2 39.9L547.4 816.9c-18.9 11-49.8 11-68.8 0L131.9 616.8c-19-11-19.1-28.9-0.2-39.9l344.4-200.2c18.9-11 49.8-11 68.8 0l346.7 200.2z" fill="#E4ECF9" /><path d="M521.3 174c9.5-5.5 17.3-1 17.4 9.9l1 345.8c0 10.9-7.7 24.4-17.2 29.9L346 661.4c-9.5 5.5-17.3 1-17.4-9.9l-1-345.8c0-10.9 7.7-24.4 17.3-29.9L521.3 174z" fill="#4040FF" /><path d="M505.5 220.3c3.3-1.9 6-0.4 6 3.4l0.7 246.6c0 3.8-2.7 8.5-6 10.4l-144.4 83.4c-3.3 1.9-6 0.4-6-3.4l-0.8-246.6c0-3.8 2.7-8.5 6-10.4l144.5-83.4z" fill="#2A2ABC" /><path d="M525.3 172.3c0.3-0.1 0.5-0.2 0.8-0.2 0.2-0.1 0.5-0.1 0.7-0.2 0.3-0.1 0.6-0.1 0.9-0.1 0.2 0 0.3 0 0.5-0.1h1.3c0.4 0 0.9 0.1 1.3 0.2 0.1 0 0.2 0 0.3 0.1 0.3 0.1 0.6 0.2 1 0.3 0.1 0 0.2 0.1 0.3 0.1 0.4 0.2 0.8 0.3 1.1 0.5l-14.8-8.6s-0.1 0-0.1-0.1c-0.3-0.2-0.6-0.3-0.9-0.4-0.1 0-0.1 0-0.2-0.1-0.1 0-0.2-0.1-0.3-0.1-0.2-0.1-0.3-0.1-0.5-0.2-0.2 0-0.3-0.1-0.5-0.1-0.1 0-0.2-0.1-0.3-0.1h-0.2c-0.3-0.1-0.7-0.1-1.1-0.1H513.1c-0.2 0-0.3 0-0.5 0.1-0.2 0-0.3 0-0.5 0.1-0.1 0-0.3 0.1-0.4 0.1-0.2 0-0.5 0.1-0.7 0.2-0.1 0-0.3 0-0.4 0.1-0.1 0-0.3 0.1-0.4 0.1-0.4 0.1-0.8 0.3-1.2 0.4-0.1 0.1-0.3 0.1-0.4 0.2-0.1 0-0.2 0.1-0.2 0.1-0.7 0.3-1.4 0.6-2.1 1.1L330.1 267.3c-0.6 0.3-1.1 0.7-1.6 1-0.2 0.1-0.3 0.3-0.5 0.4-0.4 0.3-0.7 0.5-1.1 0.8-0.2 0.2-0.4 0.3-0.6 0.5-0.3 0.3-0.7 0.6-1 0.9-0.2 0.2-0.4 0.4-0.6 0.5-0.1 0.1-0.2 0.2-0.4 0.3-0.1 0.1-0.2 0.3-0.4 0.4l-1.2 1.2c-0.1 0.1-0.2 0.3-0.4 0.4-0.1 0.1-0.2 0.2-0.3 0.4-0.2 0.3-0.5 0.5-0.7 0.8-0.1 0.2-0.3 0.3-0.4 0.5-0.1 0.2-0.2 0.3-0.3 0.5-0.2 0.2-0.3 0.4-0.5 0.7-0.1 0.1-0.2 0.3-0.3 0.4-0.2 0.3-0.4 0.5-0.5 0.8-0.1 0.2-0.2 0.3-0.3 0.5 0 0.1-0.1 0.1-0.1 0.2l-0.9 1.5s0 0.1-0.1 0.1c-0.1 0.1-0.1 0.2-0.2 0.3-0.2 0.4-0.4 0.7-0.6 1.1-0.1 0.2-0.2 0.3-0.2 0.5-0.1 0.2-0.2 0.4-0.3 0.5-0.1 0.2-0.2 0.3-0.2 0.5-0.2 0.4-0.4 0.8-0.5 1.2 0 0.1-0.1 0.2-0.1 0.3v0.1c-0.2 0.5-0.4 1-0.6 1.6 0 0.1-0.1 0.2-0.1 0.3-0.1 0.2-0.1 0.4-0.2 0.6-0.1 0.3-0.2 0.5-0.3 0.8-0.1 0.2-0.1 0.4-0.2 0.6-0.1 0.2-0.1 0.5-0.2 0.7 0 0.2-0.1 0.3-0.1 0.5-0.1 0.3-0.1 0.5-0.2 0.8-0.1 0.3-0.2 0.6-0.2 0.9 0 0.1-0.1 0.2-0.1 0.3 0 0.2-0.1 0.4-0.1 0.6-0.1 0.5-0.2 0.9-0.2 1.4 0 0.1-0.1 0.3-0.1 0.4 0 0.3-0.1 0.6-0.1 0.8 0 0.2 0 0.4-0.1 0.6 0 0.6-0.1 1.3-0.1 1.9l1 345.8c0 4.8 1.5 8.3 4 10.3 0.4 0.3 0.7 0.5 1.1 0.8l14.8 8.6c-3.1-1.8-5.1-5.6-5.1-11.1l-1-345.8c0-0.6 0-1.3 0.1-1.9 0-0.2 0-0.4 0.1-0.6 0-0.4 0.1-0.8 0.2-1.2 0.1-0.4 0.1-0.9 0.2-1.4 0.1-0.3 0.1-0.6 0.2-1 0.1-0.3 0.1-0.6 0.2-0.9l0.3-1.2c0.1-0.2 0.1-0.5 0.2-0.7 0.1-0.5 0.3-0.9 0.5-1.4 0.1-0.2 0.1-0.4 0.2-0.6 0.2-0.6 0.5-1.3 0.8-1.9 0-0.1 0.1-0.2 0.1-0.3 0.2-0.6 0.5-1.1 0.8-1.6 0.1-0.2 0.2-0.3 0.3-0.5 0.3-0.5 0.6-1.1 0.8-1.6 0.1-0.1 0.1-0.2 0.2-0.3 0.3-0.6 0.7-1.2 1.1-1.8 0.1-0.2 0.2-0.3 0.3-0.5l0.9-1.2c0.2-0.2 0.3-0.4 0.5-0.7 0.3-0.3 0.5-0.7 0.8-1 0.2-0.3 0.4-0.6 0.7-0.8 0.2-0.3 0.4-0.5 0.7-0.8 0.4-0.4 0.8-0.8 1.1-1.2l0.7-0.7c0.2-0.2 0.4-0.4 0.6-0.5 0.3-0.3 0.7-0.6 1-0.9 0.2-0.2 0.4-0.3 0.6-0.5 0.4-0.3 0.7-0.6 1.1-0.8 0.2-0.1 0.3-0.3 0.5-0.4 0.5-0.4 1.1-0.7 1.6-1L521.3 174c0.7-0.4 1.4-0.8 2.2-1.1 0.2-0.1 0.5-0.2 0.7-0.3 0.3-0.1 0.7-0.2 1.1-0.3z" fill="#2A2ABC" /><path d="M444.1 539.6c10.9-6.3 19.7-1.2 19.8 11.3s-8.8 27.7-19.6 34c-10.9 6.3-19.7 1.2-19.7-11.3-0.2-12.5 8.6-27.7 19.5-34z" fill="#FFFFFF" /><path d="M456.5 382.9l-22.4 12.9v12l22.4-12.9c2.9-1.7 5.2-5.7 5.2-9s-2.3-4.6-5.2-3z" fill="#161691" /><path d="M434.1 370.2v7.7l22.4-12.9c2.9-1.7 5.2-5.7 5.2-9s-2.3-4.6-5.2-3l-19 11 17.4-30.2c2-3.5 2-7.3 0-8.5-1-0.6-2.4-0.4-3.7 0.4-1.3 0.8-2.7 2.1-3.7 3.9l-18.6 32.2-18.7-10.7c-1-0.6-2.4-0.4-3.7 0.4-1.3 0.8-2.7 2.1-3.7 3.9-2 3.5-2 7.3 0 8.5l17.5 10-19 11c-2.9 1.7-5.2 5.7-5.2 9s2.4 4.6 5.2 3l22.3-12.9 0.1 18v12l0.1 19.7c0 3.3 2.4 4.6 5.2 3 2.9-1.7 5.2-5.7 5.2-9l-0.1-19.7v-12l-0.1-18 0.1-7.8z m-10.4 6c0-1.7 0.6-3.5 1.5-5.1-1 1.6-1.5 3.4-1.5 5.1z m8.9-9.4c0.7 0.4 1.2 1.2 1.4 2.2-0.2-1-0.7-1.8-1.4-2.2z" fill="#161691" /><path d="M401.4 414.7c-2.9 1.7-5.2 5.7-5.2 9s2.4 4.6 5.2 3l22.3-12.9v-12l-22.3 12.9z" fill="#161691" /><path d="M450 420.4l-13.8-8v-12l13.8 8zM439.6 426.4l-13.8-8v-12l13.7 8.1zM449.9 390.5l-13.8-8v-7.8l13.8 8.1z" fill="#222288" /><path d="M449.9 382.8l-13.8-8c0-1.7-0.6-2.8-1.5-3.4l13.8 8c0.9 0.5 1.5 1.7 1.5 3.4" fill="#212185" /><path d="M449 379l-13.8-8 4.2-2.4 13.8 8z" fill="#3737DB" /><path d="M449.9 382.8l-13.8-8c0-1.7-0.6-2.8-1.5-3.4l13.8 8c0.9 0.5 1.5 1.7 1.5 3.4" fill="#212185" /><path d="M448.4 379.4l-13.8-8 0.6-0.4 13.8 8z" fill="#3737DB" /><path d="M449 379l-13.8-8c-0.1-1.4-0.6-2.5-1.5-3l13.8 8c0.9 0.6 1.4 1.7 1.5 3" fill="#212185" /><path d="M439.5 396.5l-13.8-8v-7.7l13.8 8z" fill="#222288" /><path d="M444.7 379.8l-13.8-8c0.2-0.1 0.5-0.3 0.7-0.4l13.8 8c-0.2 0.1-0.5 0.2-0.7 0.4" fill="#3333CC" /><path d="M445.4 379.4l-13.8-8c0.2-0.1 0.4-0.2 0.6-0.2l13.8 8c-0.2 0.1-0.4 0.1-0.6 0.2" fill="#3232C7" /><path d="M446 379.2l-13.8-8c0.2 0 0.3-0.1 0.5-0.1l13.8 8c-0.2 0-0.3 0.1-0.5 0.1" fill="#3131C2" /><path d="M446.5 379.1l-13.8-8h0.4l13.8 8h-0.4" fill="#2F2FBD" /><path d="M446.9 379.1l-13.8-8h0.3l13.8 8h-0.3" fill="#2E2EB8" /><path d="M447.2 379.1l-13.8-8h0.3l13.8 8h-0.3" fill="#2D2DB3" /><path d="M447.5 379.1l-13.8-8c0.1 0 0.2 0 0.3 0.1l13.8 8c-0.1-0.1-0.2-0.1-0.3-0.1" fill="#2C2CAD" /><path d="M447.8 379.2l-13.8-8c0.1 0 0.2 0.1 0.3 0.1l13.8 8c-0.1-0.1-0.2-0.1-0.3-0.1" fill="#2A2AA8" /><path d="M448.1 379.3l-13.8-8c0.1 0 0.2 0.1 0.3 0.1l13.8 8c-0.1-0.1-0.2-0.1-0.3-0.1" fill="#2929A3" /><path d="M448.3 379.4l-13.8-8 13.8 8c0.1 0 0.1 0 0 0" fill="#28289E" /><path d="M439.5 388.8l-13.8-8c0-0.3 0-0.7 0.1-1l13.8 8c-0.1 0.3-0.1 0.6-0.1 1" fill="#212185" /><path d="M439.5 387.8l-13.8-8c0-0.2 0.1-0.5 0.1-0.7l13.8 8c0 0.2 0 0.4-0.1 0.7" fill="#23238A" /><path d="M439.7 387l-13.8-8c0-0.2 0.1-0.4 0.1-0.6l13.8 8c0 0.2-0.1 0.4-0.1 0.6" fill="#24248F" /><path d="M439.8 386.4l-13.8-8c0-0.2 0.1-0.4 0.2-0.5l13.8 8c-0.1 0.2-0.1 0.4-0.2 0.5" fill="#252594" /><path d="M440 385.9l-13.8-8c0.1-0.2 0.1-0.3 0.2-0.5l13.8 8c-0.1 0.2-0.2 0.3-0.2 0.5" fill="#262699" /><path d="M440.2 385.4l-13.8-8c0.1-0.2 0.1-0.3 0.2-0.5l13.8 8c-0.1 0.2-0.2 0.4-0.2 0.5" fill="#28289E" /><path d="M440.3 384.9l-13.8-8c0.1-0.2 0.1-0.3 0.2-0.5l13.8 8c0 0.2-0.1 0.4-0.2 0.5" fill="#2929A3" /><path d="M440.6 384.5l-13.8-8c0.1-0.1 0.1-0.3 0.2-0.4l13.8 8c-0.1 0.1-0.2 0.2-0.2 0.4" fill="#2A2AA8" /><path d="M440.8 384.1l-13.8-8c0.1-0.1 0.1-0.3 0.2-0.4l13.8 8c-0.1 0.1-0.2 0.2-0.2 0.4" fill="#2C2CAD" /><path d="M441 383.6l-13.8-8c0.1-0.1 0.2-0.3 0.3-0.4l13.8 8c-0.1 0.1-0.2 0.3-0.3 0.4" fill="#2D2DB3" /><path d="M441.3 383.2l-13.8-8c0.1-0.2 0.2-0.3 0.3-0.5l13.8 8c-0.1 0.2-0.2 0.3-0.3 0.5" fill="#2E2EB8" /><path d="M441.6 382.7l-13.8-8c0.1-0.2 0.2-0.3 0.3-0.5l13.8 8c-0.1 0.2-0.2 0.4-0.3 0.5" fill="#2F2FBD" /><path d="M441.9 382.2l-13.8-8c0.1-0.2 0.3-0.3 0.4-0.5l13.8 8c-0.1 0.2-0.2 0.4-0.4 0.5" fill="#3131C2" /><path d="M442.4 381.7l-13.8-8 0.6-0.6 13.8 8c-0.3 0.2-0.4 0.4-0.6 0.6" fill="#3232C7" /><path d="M442.9 381.1l-13.8-8c0.5-0.5 1.1-1 1.7-1.4l13.8 8c-0.5 0.4-1.1 0.9-1.7 1.4" fill="#3333CC" /><path d="M444.7 374.4l-13.8-8 2.8 1.6 13.8 8z" fill="#28289E" /><path d="M436.1 386.5l-13.8-8 4.9-2.9 13.8 8.1z" fill="#3737DB" /><path d="M462.2 387.2c0-0.1 0-0.1 0 0-0.1-0.1-0.2-0.1-0.3-0.1-0.1 0-0.2-0.1-0.3-0.1h-0.2-0.7-0.1H460.3c-0.1 0-0.3 0.1-0.5 0.1-0.1 0-0.1 0-0.2 0.1-0.1 0-0.1 0-0.2 0.1-0.1 0-0.2 0-0.2 0.1-0.2 0.1-0.5 0.2-0.7 0.4l-19 11v-2l-10.3-6 7-4-13.8-8-19 11c-0.3 0.2-0.7 0.4-1 0.7l-0.3 0.3c-0.2 0.1-0.3 0.3-0.5 0.4l-0.2 0.2-0.2 0.2-0.2 0.2c-0.1 0.2-0.3 0.3-0.4 0.5 0 0.1-0.1 0.1-0.1 0.2 0 0 0 0.1-0.1 0.1 0 0.1-0.1 0.1-0.1 0.2-0.1 0.1-0.2 0.3-0.3 0.5-0.1 0.1-0.2 0.3-0.3 0.4-0.1 0.1-0.1 0.3-0.2 0.4-0.1 0.1-0.2 0.3-0.2 0.4-0.1 0.1-0.1 0.3-0.2 0.4-0.1 0.2-0.1 0.3-0.2 0.5s-0.1 0.3-0.2 0.5c0 0.1 0 0.2-0.1 0.2v0.1c0 0.1 0 0.1-0.1 0.2-0.1 0.2-0.1 0.4-0.1 0.6 0 0.1 0 0.2-0.1 0.4v0.4c0 0.3-0.1 0.7-0.1 1 0 1.6 0.6 2.8 1.5 3.3l13.8 8c-0.9-0.5-1.5-1.7-1.5-3.3 0-0.4 0-0.8 0.1-1.2v-0.2c0.1-0.4 0.2-0.8 0.3-1.1v-0.1c0.1-0.4 0.3-0.8 0.5-1.2l0.6-1.2c0.2-0.4 0.5-0.8 0.7-1.1 0 0 0-0.1 0.1-0.1 0.2-0.3 0.5-0.6 0.8-0.9l0.2-0.2c0.2-0.2 0.4-0.4 0.7-0.6l0.3-0.3c0.3-0.3 0.6-0.5 1-0.7l8.6-5v14l5.1 2.9-5.1-2.9-22.3 12.9c-0.3 0.2-0.7 0.4-1 0.7l-0.3 0.3c-0.2 0.1-0.3 0.3-0.5 0.4l-0.2 0.2-0.2 0.2-0.2 0.2c-0.1 0.2-0.3 0.3-0.4 0.5 0 0.1-0.1 0.1-0.1 0.2 0 0 0 0.1-0.1 0.1 0 0.1-0.1 0.1-0.1 0.2-0.1 0.1-0.2 0.3-0.3 0.5-0.1 0.1-0.2 0.3-0.3 0.4-0.1 0.1-0.1 0.2-0.2 0.4-0.1 0.1-0.2 0.3-0.2 0.4-0.1 0.1-0.1 0.3-0.2 0.4-0.1 0.2-0.1 0.3-0.2 0.5s-0.1 0.3-0.2 0.5c0 0.1 0 0.2-0.1 0.2v0.1c0 0.1 0 0.1-0.1 0.2-0.1 0.2-0.1 0.4-0.1 0.6 0 0.1 0 0.2-0.1 0.4v0.4c0 0.3-0.1 0.7-0.1 1 0 1.6 0.6 2.8 1.5 3.3l13.8 8c-0.9-0.5-1.5-1.7-1.5-3.3 0-0.4 0-0.8 0.1-1.2v-0.2c0.1-0.4 0.2-0.8 0.3-1.1v-0.1c0.1-0.4 0.3-0.8 0.5-1.2l0.6-1.2c0.2-0.4 0.5-0.8 0.7-1.1 0 0 0-0.1 0.1-0.1 0.2-0.3 0.5-0.6 0.8-0.9l0.2-0.2c0.2-0.2 0.4-0.4 0.7-0.6l0.3-0.3c0.3-0.3 0.6-0.5 1-0.7l8.6-5v15.7c0 1.6 0.6 2.8 1.5 3.3l13.8 8c-0.9-0.5-1.5-1.7-1.5-3.3l-0.1-19.7-10.4-6 10.3-6v-12.1l10.5 6.1 22.4-12.9c0.3-0.2 0.6-0.3 1-0.4 0.1 0 0.1 0 0.2-0.1 0.3-0.1 0.6-0.2 0.9-0.2h0.9c0.3 0.1 0.5 0.2 0.7 0.3l-14.1-8.4zM403.5 366.5c0 0.1 0.1 0.3 0.1 0.4l0.3 0.6c0.1 0.1 0.1 0.2 0.2 0.3 0.2 0.3 0.4 0.5 0.7 0.6l13.8 8c-0.3-0.2-0.5-0.4-0.7-0.6-0.1-0.1-0.1-0.2-0.2-0.3l-0.3-0.6c0-0.1-0.1-0.3-0.1-0.4-0.1-0.2-0.1-0.5-0.1-0.8v-0.4-0.9-0.4-0.2c0.1-0.4 0.1-0.7 0.3-1.1v-0.1c0.1-0.4 0.3-0.8 0.5-1.3 0.2-0.4 0.4-0.9 0.7-1.3 0.2-0.4 0.5-0.8 0.8-1.2 0 0 0-0.1 0.1-0.1 0.3-0.3 0.5-0.6 0.8-0.9l0.2-0.2 0.6-0.6 0.3-0.3c0.3-0.2 0.6-0.5 0.9-0.6 0.3-0.2 0.6-0.3 0.9-0.4 0.1 0 0.1 0 0.2-0.1 0.3-0.1 0.6-0.2 0.8-0.2h1c0.3 0.1 0.6 0.1 0.8 0.3l18.7 10.7 1.2-2.1 7.3 4.3 19-11c0.3-0.2 0.6-0.3 1-0.4 0.1 0 0.1 0 0.2-0.1 0.3-0.1 0.6-0.2 0.9-0.2h0.9c0.3 0.1 0.5 0.2 0.8 0.3l-13.8-8c-0.1 0-0.2-0.1-0.3-0.1-0.1 0-0.2-0.1-0.3-0.1h-0.2-0.7-0.1H460.4c-0.1 0-0.3 0.1-0.5 0.1-0.1 0-0.1 0-0.2 0.1-0.1 0-0.1 0-0.2 0.1-0.1 0-0.2 0-0.2 0.1-0.2 0.1-0.5 0.2-0.7 0.4l-6.1 3.5 10.9-18.9c0.2-0.4 0.5-0.8 0.8-1.2 0 0 0-0.1 0.1-0.1 0.3-0.3 0.5-0.6 0.8-0.9l0.2-0.2 0.6-0.6 0.3-0.3c0.3-0.2 0.6-0.5 0.9-0.6 0.3-0.2 0.6-0.3 0.9-0.4 0.1 0 0.1 0 0.2-0.1 0.3-0.1 0.6-0.2 0.8-0.2h1c0.3 0.1 0.6 0.1 0.8 0.3l-13.8-8c-0.1 0-0.2-0.1-0.3-0.1-0.1 0-0.2-0.1-0.3-0.1-0.1 0-0.2 0-0.3-0.1h-0.8-0.1-0.1c-0.2 0-0.3 0.1-0.5 0.1-0.1 0-0.2 0.1-0.3 0.1-0.1 0-0.1 0-0.2 0.1-0.1 0-0.1 0-0.2 0.1-0.2 0.1-0.5 0.2-0.7 0.4l-0.9 0.6-0.3 0.3c-0.2 0.1-0.3 0.3-0.5 0.5l-0.1 0.1-0.2 0.2-0.3 0.3c-0.1 0.2-0.3 0.3-0.4 0.5l-0.1 0.1s0 0.1-0.1 0.1c-0.1 0.1-0.1 0.2-0.2 0.2-0.1 0.1-0.2 0.3-0.3 0.4-0.1 0.1-0.2 0.3-0.3 0.4v0.1l-18.6 32.2-18.7-10.7c-0.1 0-0.2-0.1-0.3-0.1-0.1 0-0.2-0.1-0.3-0.1-0.1 0-0.2 0-0.3-0.1h-0.8-0.1-0.1c-0.2 0-0.3 0.1-0.5 0.1-0.1 0-0.2 0.1-0.3 0.1-0.1 0-0.1 0-0.2 0.1-0.1 0-0.1 0-0.2 0.1-0.2 0.1-0.5 0.2-0.7 0.4l-0.9 0.6-0.3 0.3c-0.2 0.1-0.3 0.3-0.5 0.4l-0.1 0.1-0.2 0.2-0.3 0.3c-0.1 0.2-0.3 0.3-0.4 0.5l-0.1 0.1s0 0.1-0.1 0.1c-0.1 0.1-0.1 0.2-0.2 0.2-0.1 0.1-0.2 0.3-0.3 0.4-0.1 0.1-0.2 0.3-0.3 0.4-0.1 0.1-0.2 0.3-0.2 0.4-0.1 0.1-0.2 0.3-0.2 0.4-0.1 0.1-0.1 0.3-0.2 0.4-0.1 0.1-0.1 0.3-0.2 0.4-0.1 0.2-0.1 0.3-0.2 0.5 0 0.1-0.1 0.2-0.1 0.3v0.2c-0.1 0.2-0.1 0.4-0.1 0.6 0 0.1 0 0.3-0.1 0.4v1.9c-0.1 0.5 0 0.8 0.1 1z" fill="#ACC5EA" /><path d="M472.3 395.5L450 408.4v12l22.4-12.9c2.9-1.7 5.2-5.7 5.2-9-0.1-3.3-2.4-4.6-5.3-3z" fill="#FFFFFF" /><path d="M449.9 382.8v7.7l22.4-12.9c2.9-1.7 5.2-5.7 5.2-9s-2.3-4.6-5.2-3l-19 11 17.4-30.2c2-3.5 2-7.3 0-8.5-1-0.6-2.4-0.4-3.7 0.4-1.3 0.8-2.7 2.1-3.7 3.9l-18.6 32.2-18.7-10.7c-1-0.6-2.4-0.4-3.7 0.4-1.3 0.8-2.7 2.1-3.7 3.9-2 3.5-2 7.3 0 8.5l17.5 10-19 11c-2.9 1.7-5.2 5.7-5.2 9s2.4 4.6 5.2 3l22.3-12.9 0.1 18v12l0.1 19.7c0 3.3 2.4 4.6 5.2 3 2.9-1.7 5.2-5.7 5.2-9l-0.1-19.7v-12l-0.1-18 0.1-7.8z m-10.4 6c0-1.7 0.6-3.5 1.5-5.1-0.9 1.6-1.5 3.4-1.5 5.1z m8.9-9.4c0.7 0.4 1.2 1.2 1.4 2.2-0.2-1-0.7-1.8-1.4-2.2z" fill="#FFFFFF" /><path d="M417.2 427.4c-2.9 1.7-5.2 5.7-5.2 9s2.4 4.6 5.2 3l22.3-12.9v-12l-22.3 12.9z" fill="#FFFFFF" /><path d="M660.6 452.8c-0.2-0.1-0.3-0.2-0.5-0.3l-2.4-1.2-0.6-0.3c-0.5-0.2-0.9-0.4-1.4-0.6-0.3-0.1-0.6-0.2-0.9-0.4-0.3-0.1-0.5-0.2-0.8-0.3-0.9-0.3-1.9-0.7-2.9-1h-0.2c-0.9-0.3-1.9-0.5-2.9-0.7-0.3-0.1-0.6-0.1-0.9-0.2-0.3-0.1-0.6-0.1-0.9-0.2-0.5-0.1-1.1-0.2-1.7-0.2-0.2 0-0.4-0.1-0.7-0.1-0.9-0.1-1.9-0.2-2.9-0.3H635.2c-0.5 0-1.1 0.1-1.6 0.1-0.4 0-0.8 0-1.1 0.1-1.2 0.1-2.3 0.2-3.5 0.4h-0.1c-1.3 0.2-2.6 0.4-3.9 0.7l-1.2 0.3-2.4 0.6c-0.1 0-0.2 0.1-0.2 0.1-1.5 0.4-3.1 0.9-4.6 1.4l-0.9 0.3c-1.3 0.4-2.5 0.9-3.8 1.4-0.2 0.1-0.3 0.1-0.5 0.2-1 0.4-2.1 0.9-3.1 1.4-0.1 0.1-0.3 0.1-0.4 0.2-1.2 0.5-2.3 1.1-3.5 1.7-0.3 0.2-0.7 0.4-1 0.5-1.3 0.7-2.6 1.4-4 2.2-1.4 0.8-2.8 1.6-4.1 2.5-0.4 0.3-0.9 0.6-1.3 0.9-0.9 0.6-1.8 1.2-2.8 1.8-0.5 0.4-1 0.7-1.5 1.1-0.8 0.6-1.7 1.2-2.5 1.8l-1.5 1.2c-0.8 0.6-1.7 1.3-2.5 2-0.5 0.4-1 0.8-1.4 1.2-1 0.8-1.9 1.6-2.8 2.4-0.3 0.3-0.7 0.6-1.1 0.9-1.3 1.1-2.5 2.3-3.8 3.4-0.3 0.2-0.5 0.5-0.8 0.8-0.8 0.8-1.7 1.6-2.5 2.4l-0.4 0.4c-1.5 1.5-2.9 3-4.4 4.5-0.1 0.1-0.1 0.2-0.2 0.2-1.4 1.5-2.7 3-4 4.5l-0.4 0.4-1.5 1.8c-0.5 0.6-1.1 1.3-1.6 1.9-0.7 0.8-1.3 1.6-2 2.5-0.5 0.6-1 1.3-1.5 1.9-0.1 0.1-0.2 0.2-0.3 0.4-0.2 0.2-0.3 0.4-0.5 0.6-1.6 2.1-3.2 4.3-4.8 6.5-0.2 0.2-0.3 0.4-0.5 0.7-0.1 0.1-0.1 0.2-0.2 0.3-1.5 2.1-2.9 4.3-4.4 6.5-0.1 0.2-0.3 0.4-0.4 0.6-0.2 0.3-0.4 0.6-0.6 1-1.1 1.8-2.2 3.6-3.3 5.5-0.2 0.3-0.4 0.6-0.5 0.9-0.1 0.1-0.1 0.2-0.2 0.3-1.2 2.1-2.4 4.2-3.6 6.4-0.1 0.2-0.2 0.3-0.3 0.5-0.2 0.4-0.4 0.7-0.5 1.1-0.9 1.7-1.8 3.4-2.6 5.2-0.2 0.4-0.4 0.7-0.5 1.1-0.1 0.2-0.2 0.4-0.3 0.7-1 2.2-2.1 4.4-3 6.6 0 0.1-0.1 0.1-0.1 0.2-0.1 0.2-0.2 0.5-0.3 0.7-0.9 2-1.7 4-2.5 6-0.1 0.3-0.3 0.6-0.4 1-0.1 0.3-0.2 0.5-0.3 0.8-0.9 2.4-1.8 4.8-2.6 7.2v0.1c-0.5 1.6-1 3.2-1.5 4.7-0.1 0.4-0.3 0.9-0.4 1.3-0.3 0.9-0.5 1.8-0.8 2.7-0.1 0.3-0.1 0.6-0.2 0.9-0.2 0.7-0.4 1.5-0.6 2.2-0.3 1-0.5 2-0.7 3-0.2 0.8-0.3 1.5-0.5 2.3-0.1 0.5-0.2 1-0.4 1.6-0.1 0.4-0.1 0.7-0.2 1.1-0.2 1.1-0.4 2.3-0.6 3.4-0.1 0.8-0.3 1.6-0.4 2.3-0.2 1.2-0.4 2.3-0.5 3.5-0.1 0.5-0.2 1.1-0.2 1.6 0 0.2-0.1 0.5-0.1 0.7-0.1 0.5-0.1 1.1-0.2 1.6l-0.3 3.3c-0.1 0.6-0.1 1.1-0.1 1.7-0.1 1.1-0.1 2.2-0.2 3.3 0 0.5-0.1 1-0.1 1.5-0.1 1.6-0.1 3.2-0.1 4.7 0.1 27.1 9.7 46.2 25.1 55.2l14.8 8.6c-15.5-9-25-28.1-25.1-55.2 0-1.6 0-3.1 0.1-4.7 0-0.5 0-1 0.1-1.5 0.1-1.1 0.1-2.2 0.2-3.3 0-0.6 0.1-1.1 0.1-1.7l0.3-3.3c0.1-0.5 0.1-1.1 0.2-1.6 0.1-0.8 0.2-1.6 0.3-2.3 0.2-1.2 0.3-2.3 0.5-3.5 0.1-0.8 0.3-1.6 0.4-2.3 0.2-1.1 0.4-2.2 0.6-3.4l0.6-2.7c0.2-0.8 0.3-1.5 0.5-2.3 0.2-1 0.5-2 0.7-3 0.2-0.7 0.4-1.5 0.6-2.2 0.3-1.2 0.7-2.4 1-3.6 0.1-0.4 0.3-0.9 0.4-1.3 0.5-1.6 1-3.3 1.6-4.9 0.8-2.4 1.7-4.8 2.6-7.2 0.2-0.6 0.5-1.2 0.7-1.8 0.8-2 1.6-4 2.5-6 0.1-0.3 0.2-0.6 0.4-0.9l3-6.6c0.3-0.6 0.6-1.1 0.8-1.7 0.8-1.7 1.7-3.5 2.6-5.2 0.3-0.5 0.5-1.1 0.8-1.6 1.2-2.2 2.3-4.3 3.6-6.4 0.2-0.4 0.5-0.8 0.7-1.2 1.1-1.8 2.2-3.7 3.3-5.5 0.3-0.5 0.7-1.1 1-1.6 1.4-2.2 2.9-4.4 4.4-6.5 0.2-0.3 0.5-0.6 0.7-1 1.6-2.2 3.2-4.4 4.8-6.5 0.2-0.3 0.5-0.7 0.7-1 0.5-0.7 1-1.3 1.6-2 0.7-0.8 1.3-1.6 2-2.4 0.5-0.7 1.1-1.3 1.6-1.9 0.6-0.8 1.3-1.5 1.9-2.2 1.3-1.5 2.7-3 4.1-4.5 0.1-0.1 0.1-0.2 0.2-0.2 1.4-1.5 2.9-3 4.4-4.5 0.9-0.9 1.9-1.8 2.8-2.8 0.3-0.2 0.5-0.5 0.8-0.8 1.3-1.2 2.5-2.3 3.8-3.4 0.3-0.3 0.7-0.6 1-0.9 0.9-0.8 1.9-1.6 2.8-2.4 0.5-0.4 1-0.8 1.4-1.2 0.8-0.7 1.7-1.3 2.5-2l1.5-1.2c0.8-0.6 1.7-1.2 2.5-1.8 0.5-0.4 1-0.7 1.5-1.1 0.9-0.6 1.8-1.2 2.8-1.8 0.4-0.3 0.9-0.6 1.3-0.9 1.4-0.9 2.7-1.7 4.1-2.5 1.3-0.8 2.7-1.5 4-2.2 0.3-0.2 0.7-0.4 1-0.5 1.2-0.6 2.3-1.2 3.5-1.7 0.1-0.1 0.3-0.1 0.4-0.2 1.2-0.6 2.4-1.1 3.6-1.6 1.3-0.5 2.5-1 3.8-1.5l0.9-0.3c1.6-0.5 3.1-1 4.6-1.4 0.9-0.2 1.8-0.5 2.7-0.7 0.4-0.1 0.8-0.2 1.3-0.3 1.3-0.3 2.6-0.5 3.9-0.7h0.1c1.2-0.2 2.3-0.3 3.5-0.4 0.4 0 0.8-0.1 1.1-0.1 0.8-0.1 1.7-0.1 2.5-0.1h4.5c1.1 0.1 2.2 0.2 3.2 0.3 0.2 0 0.4 0.1 0.7 0.1 0.9 0.1 1.7 0.3 2.6 0.4 0.3 0.1 0.6 0.1 0.9 0.2 1 0.2 1.9 0.4 2.9 0.7h0.2c1 0.3 2 0.6 2.9 1 0.3 0.1 0.5 0.2 0.8 0.3 0.8 0.3 1.5 0.6 2.3 1l0.6 0.3c1 0.5 1.9 1 2.8 1.5l-14.9-8.5z" fill="#C68620" /><path d="M614.2 467.4c47.5-27.4 86.2-5.4 86.4 49.2 0.2 54.6-38.3 121.2-85.8 148.6-47.5 27.4-86.2 5.4-86.3-49.2s38.1-121.1 85.7-148.6z" fill="#FFCD2E" /><path d="M593.3 581.3c17.9-10.4 43.5-25 44.8-25.8 3.4-2 6.2-0.1 6.2 4.1 0 4.2-2.7 9.3-6.1 11.3l-40.8 23.5v7.7c0 4.2-2.7 9.3-6.1 11.2-1.7 1-3.2 1-4.3 0.2l-12.3-8.3c-1.1-0.8-1.9-2.2-1.8-4.4 0.1-4 2.3-8.7 4.7-10.4 0 0 6.7-3.9 15.7-9.1zM625.7 515.8c1.7-1 3.2-1 4.3-0.3l12.3 8.3c1.1 0.8 1.9 2.2 1.8 4.4-0.1 4-2.4 8.7-4.7 10.4 0 0.1-6.8 4-15.7 9.2-17.9 10.4-43.5 25-44.8 25.8-3.4 2-6.1 0.1-6.2-4.1 0-4.3 2.7-9.3 6.1-11.2l40.8-23.5v-7.7c0-4.3 2.8-9.3 6.1-11.3z" fill="#C68620" /><path d="M603 615.1l-10.8-6.3c-0.1 0-0.1-0.1-0.2-0.1l10.8 6.3c0.1 0 0.1 0.1 0.2 0.1" fill="#858585" /><path d="M645.7 558.9c-0.1-0.1-0.2-0.1-0.4-0.2-0.1 0-0.2-0.1-0.3-0.1h-0.2-0.1-0.9-0.1-0.4c-0.2 0-0.3 0.1-0.5 0.1-0.1 0-0.1 0-0.2 0.1-0.1 0-0.1 0-0.2 0.1-0.1 0-0.2 0.1-0.3 0.1-0.3 0.1-0.5 0.2-0.8 0.4-1.3 0.8-26.9 15.4-44.8 25.8-2.1 1.2-4.1 2.3-5.9 3.4-0.1 0-0.1 0.1-0.2 0.1-0.2 0.1-0.3 0.2-0.5 0.3-0.8 0.5-1.6 0.9-2.3 1.3-0.2 0.1-0.3 0.2-0.5 0.3l-0.6 0.3c-0.2 0.1-0.4 0.3-0.6 0.4-0.2 0.1-0.3 0.2-0.4 0.3-0.2 0.1-0.4 0.2-0.5 0.3l-0.6 0.3c-0.1 0.1-0.2 0.1-0.3 0.1-0.2 0.1-0.5 0.3-0.7 0.4-0.1 0-0.1 0.1-0.2 0.1-0.2 0.1-0.4 0.2-0.5 0.3-0.1 0.1-0.2 0.1-0.3 0.2-0.2 0.1-0.3 0.2-0.4 0.3-0.1 0-0.1 0.1-0.2 0.1-0.1 0.1-0.2 0.1-0.3 0.2-0.1 0-0.1 0.1-0.2 0.1-0.1 0.1-0.2 0.1-0.2 0.1l-0.1 0.1c-0.1 0-0.1 0.1-0.1 0.1h-0.1c-0.2 0.2-0.5 0.4-0.7 0.6l-0.1 0.1-0.1 0.1-0.2 0.2c-0.1 0.1-0.2 0.3-0.4 0.4-0.1 0.1-0.1 0.2-0.2 0.2 0 0 0 0.1-0.1 0.1l-0.1 0.1c-0.1 0.2-0.2 0.3-0.3 0.5-0.1 0.2-0.2 0.3-0.3 0.5v0.2c-0.1 0.1-0.2 0.3-0.2 0.4l-0.3 0.6c0 0.1-0.1 0.2-0.1 0.3 0 0 0 0.1-0.1 0.1 0 0.1-0.1 0.2-0.1 0.2-0.1 0.2-0.2 0.5-0.3 0.7 0 0.1-0.1 0.2-0.1 0.4 0 0.1 0 0.1-0.1 0.2 0 0.1-0.1 0.1-0.1 0.2l-0.3 0.9c0 0.1 0 0.2-0.1 0.2 0 0.1 0 0.2-0.1 0.3 0 0.2-0.1 0.3-0.1 0.5s-0.1 0.4-0.1 0.6c0 0.1-0.1 0.3-0.1 0.4v0.2c-0.1 0.4-0.1 0.8-0.1 1.2-0.1 2.2 0.7 3.7 1.8 4.4l12.3 8.3 11.5 6.7-12.3-8.3c-1.1-0.8-1.9-2.2-1.8-4.4 0-0.5 0.1-0.9 0.1-1.4 0-0.1 0-0.3 0.1-0.4 0.1-0.4 0.1-0.7 0.2-1.1 0-0.1 0-0.2 0.1-0.3 0.1-0.4 0.3-0.9 0.4-1.3 0-0.1 0-0.1 0.1-0.2 0.2-0.4 0.3-0.9 0.5-1.3 0 0 0-0.1 0.1-0.1 0.2-0.4 0.4-0.9 0.6-1.3v-0.1c0.2-0.4 0.5-0.8 0.7-1.2 0 0 0-0.1 0.1-0.1 0.2-0.3 0.5-0.6 0.8-0.9l0.1-0.1c0.3-0.3 0.6-0.5 0.8-0.7l0.1-0.1h0.1l0.1-0.1s0.1 0 0.1-0.1c0.1 0 0.1-0.1 0.2-0.1s0.1-0.1 0.2-0.1 0.2-0.1 0.3-0.2c0.1-0.1 0.2-0.1 0.3-0.2 0.1-0.1 0.2-0.1 0.4-0.2 0.1-0.1 0.2-0.1 0.3-0.2 0.1-0.1 0.3-0.1 0.4-0.2 0.1-0.1 0.3-0.2 0.4-0.2 0.1-0.1 0.3-0.2 0.4-0.2 0.2-0.1 0.4-0.2 0.5-0.3 0.1-0.1 0.3-0.2 0.4-0.3 0.1-0.1 0.3-0.2 0.4-0.2l0.6-0.3c0.5-0.3 1.1-0.7 1.7-1 0.3-0.2 0.6-0.3 0.8-0.5 0.1-0.1 0.3-0.2 0.4-0.2 0.3-0.2 0.6-0.3 0.9-0.5 0.2-0.1 0.4-0.2 0.6-0.4 0.2-0.1 0.4-0.3 0.7-0.4 0.2-0.1 0.4-0.2 0.6-0.4 0.7-0.4 1.5-0.8 2.2-1.3 0.8-0.5 1.7-1 2.5-1.5 17.9-10.4 43.5-25 44.8-25.8 0.4-0.2 0.7-0.4 1.1-0.5 0.1 0 0.1 0 0.2-0.1 0.3-0.1 0.7-0.2 1-0.2h0.1c0.3 0 0.7 0 1 0.1h0.1l0.9 0.3-11.3-6.6zM633.3 519.2c-0.1-0.1-0.2-0.1-0.4-0.2-0.1 0-0.2-0.1-0.3-0.1h-0.2-0.1-0.9-0.1-0.4c-0.2 0-0.3 0.1-0.5 0.1-0.1 0-0.1 0-0.2 0.1-0.1 0-0.1 0-0.2 0.1-0.1 0-0.2 0.1-0.3 0.1-0.3 0.1-0.5 0.2-0.8 0.4-0.4 0.2-0.8 0.5-1.1 0.8l-0.3 0.3-0.4 0.4-0.4 0.4c0 0.1-0.1 0.1-0.1 0.1l-0.1 0.1c-0.2 0.2-0.3 0.4-0.5 0.6-0.1 0.2-0.3 0.4-0.4 0.5-0.1 0.2-0.2 0.3-0.3 0.5-0.1 0.2-0.2 0.4-0.3 0.5-0.1 0.1-0.1 0.2-0.2 0.4v0.1s0 0.1-0.1 0.1l-0.3 0.6-0.3 0.6c0 0.1-0.1 0.2-0.1 0.2v0.1c0 0.1-0.1 0.2-0.1 0.2-0.1 0.2-0.2 0.4-0.2 0.6-0.1 0.2-0.1 0.4-0.2 0.7-0.1 0.3-0.1 0.5-0.2 0.8 0 0.2-0.1 0.4-0.1 0.6V529.2c-0.1 0.5-0.1 1-0.1 1.4v7.7l-40.8 23.5 11.5 6.7 40.8-23.5v-7.7c0-0.5 0-1 0.1-1.6v-0.2l0.3-1.5c0.1-0.5 0.3-1 0.5-1.6v-0.1c0.2-0.5 0.4-1 0.7-1.5v-0.1c0.3-0.5 0.6-1 0.9-1.4 0.3-0.4 0.6-0.9 1-1.2 0-0.1 0.1-0.1 0.1-0.1 0.3-0.3 0.5-0.6 0.8-0.8l0.3-0.3c0.4-0.3 0.7-0.6 1.1-0.8 0.4-0.2 0.7-0.4 1.1-0.5 0.1 0 0.1 0 0.2-0.1 0.3-0.1 0.7-0.2 1-0.2h0.1c0.3 0 0.6 0 0.9 0.1h0.1l0.9 0.3-11.4-6.5zM581.1 562.9l-0.3 0.3-0.4 0.4-0.4 0.4c0 0.1-0.1 0.1-0.1 0.2l-0.1 0.1c-0.2 0.2-0.3 0.4-0.5 0.6-0.1 0.2-0.3 0.4-0.4 0.5-0.1 0.2-0.2 0.3-0.3 0.5-0.1 0.2-0.2 0.4-0.3 0.5-0.1 0.1-0.1 0.2-0.2 0.4v0.1s0 0.1-0.1 0.1l-0.3 0.6-0.3 0.6c0 0.1-0.1 0.2-0.1 0.2v0.1c0 0.1-0.1 0.2-0.1 0.2-0.1 0.2-0.2 0.4-0.2 0.6-0.1 0.2-0.1 0.4-0.2 0.7-0.1 0.3-0.1 0.5-0.2 0.8 0 0.2-0.1 0.4-0.1 0.6V571.7c-0.1 0.5-0.1 1-0.1 1.4 0 2.2 0.8 3.8 2 4.5l11.5 6.7c-1.2-0.7-2-2.3-2-4.5 0-0.5 0-1 0.1-1.6v-0.2l0.3-1.5c0.1-0.5 0.3-1 0.5-1.6v-0.1c0.2-0.5 0.4-1 0.7-1.5v-0.1c0.3-0.5 0.6-1 0.9-1.4 0.3-0.4 0.6-0.9 1-1.2 0-0.1 0.1-0.1 0.1-0.2 0.3-0.3 0.5-0.6 0.8-0.8l0.3-0.3c0.4-0.3 0.7-0.6 1.1-0.8l-11.5-6.7c-0.3 0.5-0.7 0.8-1.1 1.1z" fill="#E8CFAC" /><path d="M608.2 591.8c17.9-10.4 43.5-25 44.8-25.8 3.4-2 6.2-0.1 6.2 4.1 0 4.2-2.7 9.3-6.1 11.3l-40.8 23.5v7.7c0 4.2-2.7 9.3-6.1 11.2-1.7 1-3.2 1-4.3 0.2l-12.3-8.3c-1.1-0.8-1.9-2.2-1.8-4.4 0.1-4 2.3-8.7 4.7-10.4 0 0 6.7-3.9 15.7-9.1z" fill="#FFFFFF" /><path d="M640.6 526.3c1.7-1 3.2-1 4.3-0.3l12.3 8.3c1.1 0.8 1.9 2.2 1.8 4.4-0.1 4-2.4 8.7-4.7 10.4 0 0.1-6.8 4-15.7 9.2-17.9 10.4-43.5 25-44.8 25.8-3.4 2-6.1 0.1-6.2-4.1 0-4.3 2.7-9.3 6.1-11.2l40.8-23.5v-7.7c0-4.3 2.8-9.3 6.1-11.3z" fill="#FFFFFF" /></svg>