<?xml version="1.0" encoding="utf-8"?>
<!-- Uploaded to: SVG Repo, www.svgrepo.com, Generator: SVG Repo Mixer Tools -->
<svg width="800px" height="800px" viewBox="0 0 1024 1024" class="icon"  version="1.1" xmlns="http://www.w3.org/2000/svg"><path d="M905.5 569.2c-1.1 11-11.2 16.5-19.8 21.5-8 4.6-16 9.3-23.9 13.9-12.8 7.4-25.5 14.8-38.3 22.2-16 9.3-31.9 18.6-47.9 27.8-17.6 10.2-35.2 20.5-52.9 30.7-17.7 10.3-35.4 20.6-53.2 30.9-16.3 9.5-32.5 18.9-48.8 28.4-13.3 7.7-26.5 15.4-39.8 23.1-8.7 5-17.4 10.1-26.1 15.1-6.6 3.8-12.8 7.6-20.3 9.8-19.5 5.6-41.1 3.7-58.7-6.5-6.3-3.7-12.7-7.3-19-11-11.6-6.7-23.1-13.3-34.7-20-15.2-8.8-30.4-17.6-45.6-26.3-17.3-10-34.7-20-52-30-17.9-10.3-35.8-20.7-53.7-31-16.9-9.8-33.8-19.5-50.8-29.3l-43.2-24.9c-10.3-6-20.7-11.9-31-17.9-4.7-2.7-9.4-5.4-14.1-8.2-7.4-4.3-14.7-11.1-14.7-20.3 0 8.4 0 16.8-0.1 25.3 0 3-0.2 6.1 0 9.2 0.6 8.1 7 14.4 13.7 18.4 4.1 2.5 8.3 4.8 12.5 7.2 10.8 6.2 21.6 12.5 32.4 18.7 15.6 9 31.1 18 46.7 27 18.5 10.7 37.1 21.4 55.6 32.1 19.3 11.2 38.6 22.3 58 33.5 18.4 10.6 36.7 21.2 55.1 31.8 15.3 8.8 30.5 17.6 45.8 26.4 10.3 6 20.7 11.9 31 17.9 6 3.4 11.9 7.3 18.4 9.7 20.3 7.4 44.1 5.8 62.8-5.1 7.1-4.1 14.2-8.3 21.3-12.4 13.1-7.6 26.2-15.2 39.2-22.8 17.1-9.9 34.1-19.8 51.2-29.8 19.1-11.1 38.2-22.2 57.2-33.3l57.3-33.3c17.1-10 34.2-19.9 51.4-29.9 13.3-7.7 26.6-15.4 39.9-23.2 7.3-4.3 14.7-8.5 22-12.8 2.2-1.3 4.5-2.6 6.6-4.1 5.6-4.2 10-10 10.1-17.3 0.1-3.7 0-7.3 0-11 0-7.3 0-14.7 0.1-22 0.4 0.7 0.3 1.3 0.3 1.8 0 0.2 0-0.3 0 0zM905.6 567.6z" fill="#7A9EFD" /><path d="M891.3 547.6c19 11 19.1 28.9 0.2 39.9L547.1 787.7c-18.9 11-49.8 11-68.8 0L131.6 587.5c-19-11-19.1-28.9-0.2-39.9l344.4-200.2c18.9-11 49.8-11 68.8 0l346.7 200.2z" fill="#E4ECF9" /><path d="M573.9 386c1.1-0.1 2.2-0.3 3.2-0.4 1-0.1 2.1-0.2 3-0.3h0.2c1-0.1 1.9-0.2 2.8-0.2h3.5c0.6 0 1.2 0.1 1.8 0.2 0.1 0 0.3 0 0.4 0.1 0.4 0.1 0.7 0.2 1.1 0.3 0.2 0 0.3 0.1 0.5 0.1 0.3 0.1 0.6 0.2 0.8 0.3 0.1 0.1 0.3 0.1 0.4 0.2 0.3 0.1 0.5 0.2 0.8 0.4 0.2 0.1 0.3 0.2 0.5 0.2l-16.6-9.7-0.1-0.1c-0.1-0.1-0.2-0.1-0.3-0.2-0.2-0.1-0.5-0.3-0.8-0.4 0 0-0.1 0-0.1-0.1-0.1 0-0.2-0.1-0.3-0.1-0.3-0.1-0.6-0.2-0.8-0.3-0.1 0-0.1-0.1-0.2-0.1s-0.2 0-0.3-0.1c-0.4-0.1-0.7-0.2-1.1-0.3-0.1 0-0.2 0-0.3-0.1h-0.1c-0.6-0.1-1.2-0.2-1.8-0.2h-0.4c-1-0.1-2-0.1-3 0h-0.1-0.1c-0.9 0-1.9 0.1-2.8 0.2h-0.2l-3 0.3c-1.1 0.1-2.2 0.3-3.3 0.4h-0.2c-1.1 0.1-2.3 0.3-3.5 0.4-14.9 1.3-31.4 2.4-46.3 3.8-4.2 1.1-8.5 2.2-12.7 3.3l16.6 9.7c4.2-1.1 8.5-2.2 12.7-3.3 14.8-1.5 31.4-2.5 46.3-3.8 1.2-0.1 2.4-0.2 3.5-0.4 0.1 0.2 0.2 0.2 0.3 0.2z" fill="#2A2ABC" /><path d="M509.6 392.9l-16.6-9.7h0.1l16.5 9.7" fill="#28289E" /><path d="M509.7 392.9l-16.6-9.7 0.6 0.3 16.6 9.7c-0.2 0-0.4-0.2-0.6-0.3" fill="#2929A3" /><path d="M510.3 393.2l-16.6-9.7c0.2 0.1 0.4 0.1 0.5 0.2l16.6 9.7c-0.1 0-0.3-0.1-0.5-0.2" fill="#2A2AA8" /><path d="M510.8 393.4l-16.6-9.7c0.1 0 0.2 0.1 0.3 0.1l16.6 9.7s-0.1 0-0.3-0.1" fill="#2C2CAD" /><path d="M490.3 380l-16.6-9.7c0.1 0 0.1-0.1 0.2-0.1l16.6 9.7c-0.1 0-0.2 0.1-0.2 0.1" fill="#2A2ABC" /><path d="M490.5 379.9l-16.6-9.7c2-0.8 4-1.6 6-2.5l16.6 9.7c-2 0.9-4 1.7-6 2.5" fill="#2A2ABC" /><path d="M496.5 377.4l-16.6-9.7c0.6-0.3 1.3-0.5 1.9-0.8l16.6 9.7c-0.7 0.3-1.3 0.6-1.9 0.8" fill="#2A2ABC" /><path d="M415.1 407.2c-0.8-9-1.6-17.9-2.4-26.9l-16.6-9.7c0.8 9 1.6 17.9 2.4 26.9 2 5.1 6.7 3.1 8.1 11.1l16.6 9.7c-1.4-8-6.1-6-8.1-11.1z" fill="#2A2ABC" /><path d="M406.6 408.7l-6 5.2c-0.2 0.6-0.4 1.3-0.6 2-0.2 0.5-0.4 1.1-0.5 1.7-0.1 0.3-0.2 0.7-0.3 1-0.2 0.5-0.3 1-0.5 1.5-0.1 0.3-0.2 0.5-0.3 0.8-0.2 0.8-0.5 1.5-0.8 2.3 0 0.1 0 0.1-0.1 0.2l-1.5 4.5v0.1c-0.5 1.5-1.1 3-1.6 4.5 0 0.1 0 0.1-0.1 0.2-0.6 1.5-1.2 2.9-1.8 4.3-0.1 0.2-0.2 0.3-0.2 0.5-0.3 0.7-0.6 1.3-0.9 2-0.1 0.3-0.2 0.5-0.4 0.8-0.2 0.4-0.3 0.7-0.5 1-0.2 0.3-0.3 0.6-0.5 0.9l-0.3 0.6c-0.2 0.4-0.4 0.7-0.6 1.1-0.1 0.1-0.1 0.2-0.2 0.3-0.3 0.5-0.6 0.9-0.9 1.3-4.2 3.8-8.5 7.6-12.7 11.4-14.8 15.7-31.3 33.7-46.2 49.5-1.5 1.6-2.9 3.1-4.4 4.5l-0.5 0.5c-1.5 1.5-2.9 3-4.3 4.4-1.3 1.3-2.5 2.6-3.8 3.9-0.2 0.2-0.4 0.5-0.7 0.7l-3.6 3.9-0.2 0.2c-0.1 0.1-0.2 0.3-0.3 0.4-0.9 1-1.8 2.1-2.6 3.2-0.1 0.1-0.2 0.3-0.3 0.4 0 0.1-0.1 0.1-0.1 0.2-0.4 0.5-0.8 1.1-1.2 1.6-0.2 0.3-0.5 0.6-0.7 1l-0.1 0.1c-0.2 0.2-0.3 0.5-0.5 0.7-0.3 0.5-0.7 1-1 1.5-0.1 0.1-0.2 0.3-0.2 0.4-0.1 0.2-0.3 0.5-0.4 0.7-0.2 0.3-0.4 0.6-0.6 1-0.2 0.3-0.4 0.7-0.6 1l-0.3 0.6c-0.1 0.1-0.1 0.2-0.2 0.3-0.3 0.6-0.7 1.3-1 1.9-0.1 0.1-0.1 0.2-0.1 0.3-0.1 0.2-0.2 0.4-0.2 0.5-0.2 0.4-0.3 0.7-0.5 1.1-0.2 0.4-0.4 0.9-0.5 1.3-0.1 0.2-0.1 0.4-0.2 0.5 0 0.1-0.1 0.2-0.1 0.3-0.3 0.8-0.6 1.5-0.8 2.3 0 0.1-0.1 0.2-0.1 0.3l-0.3 0.9c-0.2 0.5-0.3 1-0.5 1.5-0.1 0.4-0.2 0.9-0.4 1.3l4.4 2.6-4.4-2.6c0 11.2-0.8 49.3-0.5 63.8l16.6 9.7c-0.3-14.6 0.5-52.6 0.5-63.8 0.2-1 0.5-1.9 0.8-2.9l0.3-0.9c0.3-1 0.7-2 1-2.9 0.1-0.2 0.1-0.4 0.2-0.5 0.3-0.8 0.7-1.6 1-2.4 0.1-0.2 0.2-0.4 0.2-0.5 0.4-0.9 0.9-1.7 1.3-2.6l0.3-0.6c0.4-0.7 0.8-1.3 1.2-2 0.1-0.2 0.3-0.5 0.4-0.7 0.4-0.6 0.8-1.3 1.2-1.9 0.2-0.2 0.3-0.5 0.5-0.7 0.3-0.4 0.5-0.7 0.8-1.1 0.4-0.5 0.8-1.1 1.2-1.6 0.1-0.2 0.3-0.4 0.5-0.6 0.8-1.1 1.7-2.1 2.6-3.2l0.6-0.6c1.2-1.3 2.3-2.6 3.6-3.9 0.2-0.2 0.4-0.5 0.7-0.7 1.2-1.3 2.5-2.6 3.8-3.9 1.4-1.4 2.9-2.9 4.3-4.4l0.5-0.5c1.4-1.5 2.9-3 4.4-4.6 14.9-15.9 31.3-33.9 46.2-49.5 4.2-3.8 8.5-7.6 12.7-11.4 0.1-0.1 0.1-0.2 0.2-0.3l0.6-0.9c0-0.1 0.1-0.1 0.1-0.2 0.1-0.1 0.1-0.2 0.2-0.3 0.1-0.2 0.2-0.4 0.4-0.6 0.1-0.2 0.2-0.3 0.3-0.5l0.3-0.6c0.1-0.1 0.1-0.2 0.2-0.3l0.3-0.6c0.2-0.3 0.3-0.7 0.5-1 0.1-0.1 0.1-0.2 0.2-0.4 0.1-0.1 0.1-0.3 0.2-0.4 0.3-0.6 0.6-1.3 0.9-2 0.1-0.1 0.1-0.2 0.2-0.4 0 0 0-0.1 0.1-0.1 0.6-1.4 1.2-2.8 1.8-4.3v-0.1-0.1c0.6-1.5 1.1-3 1.6-4.5v-0.1c0.5-1.5 1.1-3 1.5-4.5 0-0.1 0-0.1 0.1-0.2 0.3-0.8 0.5-1.6 0.8-2.3 0.1-0.3 0.2-0.5 0.3-0.8 0.2-0.5 0.3-1 0.5-1.5 0.1-0.3 0.2-0.7 0.3-1 0.2-0.6 0.4-1.2 0.5-1.7 0.2-0.7 0.4-1.4 0.6-2l6-5.2-16.8-9.3zM503.6 202.8l-16.6-9.7h-0.1l-0.6-0.3c-0.1 0-0.2-0.1-0.2-0.1h-0.1s-0.1 0-0.1-0.1c-0.2 0-0.3-0.1-0.5-0.1h-0.3l-9.5 3.6-5.9-3c-0.7-0.1-1.4-0.2-2.2-0.2H464.2c-0.2 0-0.4 0-0.6 0.1-0.7 0-1.3 0.1-2 0.2-0.3 0-0.7 0-1 0.1-0.2 0-0.5 0.1-0.7 0.1-0.2 0-0.5 0.1-0.7 0.1-1 0.2-1.9 0.4-2.9 0.7h-0.1c-0.2 0.1-0.4 0.1-0.6 0.2-0.9 0.2-1.7 0.5-2.6 0.8-0.4 0.1-0.7 0.3-1.1 0.4l-1.5 0.6c-0.2 0.1-0.3 0.1-0.5 0.2-0.8 0.3-1.6 0.7-2.4 1.1-0.4 0.2-0.8 0.4-1.2 0.5-1.2 0.6-2.4 1.2-3.5 1.9-1.1 0.6-2.2 1.3-3.3 2l-0.9 0.6c-0.8 0.5-1.6 1.1-2.5 1.7-0.3 0.2-0.5 0.4-0.8 0.6-1 0.7-2.1 1.5-3.1 2.3-0.2 0.1-0.4 0.3-0.5 0.4-0.9 0.7-1.7 1.3-2.5 2-0.3 0.2-0.6 0.5-0.9 0.7-0.8 0.7-1.6 1.3-2.4 2-0.2 0.2-0.4 0.3-0.6 0.5-1 0.8-1.9 1.7-2.8 2.5-0.2 0.2-0.5 0.4-0.7 0.6-0.7 0.7-1.4 1.3-2.1 2-0.3 0.2-0.5 0.5-0.8 0.7-0.8 0.8-1.6 1.6-2.4 2.3l-0.1 0.1-2.3 2.3c-0.2 0.2-0.4 0.4-0.6 0.7l-1.6 1.6c-0.2 0.3-0.5 0.5-0.7 0.7l-1.5 1.5-0.5 0.5c-0.6 0.7-1.3 1.3-1.9 1.9l16.6 9.7c0.6-0.6 1.2-1.3 1.9-1.9 0.2-0.2 0.3-0.4 0.5-0.5l1.5-1.5 0.7-0.7c0.5-0.5 1-1.1 1.6-1.6 0.2-0.2 0.4-0.5 0.7-0.7l2.3-2.3 0.2-0.2c0.8-0.8 1.6-1.5 2.4-2.3 0.3-0.2 0.5-0.5 0.8-0.7 0.7-0.7 1.4-1.3 2.1-2 0.2-0.2 0.5-0.4 0.7-0.6 0.9-0.8 1.9-1.7 2.8-2.5 0.2-0.2 0.4-0.3 0.6-0.5 0.8-0.7 1.6-1.4 2.4-2 0.3-0.2 0.6-0.5 0.9-0.7 0.8-0.7 1.7-1.3 2.5-2 0.2-0.1 0.4-0.3 0.6-0.4 1-0.8 2-1.5 3.1-2.3 0.3-0.2 0.5-0.4 0.8-0.6 0.8-0.6 1.6-1.1 2.5-1.7l0.9-0.6c1.1-0.7 2.2-1.4 3.3-2 1.2-0.7 2.4-1.3 3.5-1.9 0.4-0.2 0.8-0.4 1.2-0.5 0.8-0.4 1.6-0.8 2.4-1.1 0.6-0.3 1.3-0.5 1.9-0.8 0.4-0.1 0.7-0.3 1.1-0.4 0.9-0.3 1.7-0.6 2.6-0.8 0.2-0.1 0.4-0.1 0.6-0.2 1-0.3 2-0.5 3-0.7 0.2 0 0.5-0.1 0.7-0.1 0.6-0.1 1.2-0.2 1.7-0.2 0.7-0.1 1.3-0.2 2-0.2 0.6 0 1.1 0 1.7-0.1h1.6c0.9 0 1.9 0.1 2.8 0.2l5.9 3 9.5-3.6c0.3 0 0.6 0.1 1 0.2h0.1c0 0.2 0.3 0.4 0.6 0.5zM399.3 320.3c0-0.3-0.1-0.7-0.1-1-0.2-1.6-0.4-3.1-0.5-4.6 0-0.4-0.1-0.7-0.1-1.1-0.1-1.2-0.2-2.4-0.2-3.6 0-0.4 0-0.8-0.1-1.2-0.1-1.5-0.1-2.9-0.1-4.4v-0.3c0-1.3 0-2.7 0.1-4v-1.2c0.1-1.2 0.1-2.3 0.2-3.4 0-0.2 0-0.5 0.1-0.8 0.1-1.3 0.3-2.7 0.4-4 0-0.4 0.1-0.8 0.2-1.1 0.1-0.8 0.2-1.6 0.4-2.3 0.1-0.4 0.1-0.8 0.2-1.2 0.1-0.8 0.3-1.5 0.4-2.3 0.1-0.3 0.1-0.7 0.2-1 0.3-1.6 0.7-3.1 1.1-4.6 0.1-0.3 0.2-0.6 0.2-0.9 0.4-1.3 0.7-2.5 1.1-3.7 0-0.1 0-0.1 0.1-0.2 0.3-1 0.7-2 1.1-3 0.1-0.3 0.3-0.7 0.4-1 0.3-0.7 0.5-1.4 0.8-2 0.1-0.3 0.3-0.7 0.4-1 0.3-0.6 0.6-1.3 0.9-1.9 0.1-0.3 0.3-0.6 0.4-0.9 0.4-0.8 0.8-1.6 1.2-2.3 0.1-0.1 0.1-0.2 0.2-0.3 0.5-0.9 1-1.7 1.5-2.6 0.1-0.2 0.3-0.5 0.4-0.7 0.4-0.6 0.8-1.3 1.1-1.9 0.2-0.3 0.4-0.6 0.5-0.9 0.4-0.6 0.8-1.3 1.3-1.9 0.2-0.2 0.3-0.5 0.5-0.7 0.7-0.9 1.3-1.8 2-2.7 0.1-0.1 0.2-0.3 0.3-0.4l2.7-3.3s0-0.1 0.1-0.1c1.4-1.6 2.8-3.1 4.2-4.5l1.1-1.1-16.6-9.7-0.9 0.9-0.2 0.2c-1.5 1.4-2.9 2.9-4.2 4.5l-0.1 0.1c-0.9 1.1-1.8 2.1-2.7 3.3-0.1 0.1-0.1 0.2-0.2 0.3l-0.1 0.1c-0.7 0.9-1.4 1.8-2 2.7-0.1 0.1-0.1 0.2-0.2 0.2-0.1 0.2-0.2 0.3-0.3 0.5-0.4 0.6-0.8 1.2-1.3 1.9-0.1 0.2-0.2 0.3-0.3 0.5-0.1 0.1-0.1 0.2-0.2 0.4-0.4 0.6-0.8 1.2-1.1 1.9l-0.3 0.6c0 0.1-0.1 0.1-0.1 0.2-0.5 0.9-1 1.7-1.5 2.6-0.1 0.1-0.1 0.2-0.2 0.3-0.4 0.8-0.8 1.5-1.2 2.3 0 0.1-0.1 0.1-0.1 0.2-0.1 0.2-0.2 0.4-0.3 0.7-0.3 0.6-0.6 1.3-0.9 1.9-0.1 0.1-0.1 0.3-0.2 0.4-0.1 0.2-0.2 0.4-0.2 0.6-0.3 0.7-0.6 1.3-0.8 2l-0.3 0.6c0 0.1-0.1 0.3-0.1 0.4-0.4 1-0.7 2-1.1 3 0 0.1 0 0.1-0.1 0.2-0.4 1.2-0.8 2.5-1.1 3.7 0 0.2-0.1 0.3-0.1 0.5 0 0.1-0.1 0.3-0.1 0.4-0.4 1.5-0.8 3-1.1 4.6 0 0.1 0 0.2-0.1 0.3-0.1 0.3-0.1 0.5-0.1 0.8-0.2 0.7-0.3 1.5-0.4 2.3-0.1 0.4-0.1 0.8-0.2 1.3-0.1 0.8-0.2 1.6-0.3 2.3 0 0.3-0.1 0.5-0.1 0.8v0.3c-0.2 1.3-0.3 2.6-0.4 4 0 0.2 0 0.5-0.1 0.8-0.1 1.1-0.2 2.3-0.2 3.4v1.2c0 1.3-0.1 2.6-0.1 3.9v0.4c0 1.4 0.1 2.9 0.1 4.4 0 0.4 0 0.8 0.1 1.2 0.1 1.2 0.1 2.4 0.2 3.6 0 0.4 0.1 0.7 0.1 1.1 0.1 1.5 0.3 3.1 0.5 4.6 0 0.3 0.1 0.7 0.1 1l0.6 3.9c0.1 0.4 0.1 0.9 0.2 1.4 0.3 1.6 0.6 3.3 0.9 4.9 0.1 0.4 0.1 0.9 0.2 1.3v3c0 0.2 0 0.4-0.1 0.6 0 0.3-0.1 0.7-0.2 1 0 0.1-0.1 0.3-0.1 0.4l-0.3 1.2c0 0.1 0 0.1-0.1 0.2-0.1 0.5-0.3 1-0.5 1.6 0 0.1-0.1 0.2-0.1 0.4-0.3 0.7-0.5 1.5-0.8 2.2-0.3 0.7-0.5 1.4-0.7 2 0 0.1-0.1 0.1-0.1 0.2s0 0.1-0.1 0.2c-0.1 0.2-0.2 0.5-0.2 0.7 0 0.1-0.1 0.2-0.1 0.3v0.1c0 0.1-0.1 0.2-0.1 0.4 0 0.1-0.1 0.2-0.1 0.4v0.2c0 0.1 0 0.2-0.1 0.3v0.4c0 0.4-0.1 0.8 0 1.1 0.8 8.6 1 29.3 7.4 33l16.6 9.7c-6.4-3.7-6.6-24.4-7.4-33v-1.1-0.4c0-0.1 0-0.2 0.1-0.3 0-0.2 0.1-0.4 0.1-0.5 0-0.1 0.1-0.2 0.1-0.4 0-0.1 0.1-0.3 0.1-0.4 0.1-0.2 0.1-0.5 0.2-0.7 0-0.1 0.1-0.2 0.1-0.4 0.2-0.7 0.5-1.3 0.7-2 0.3-0.7 0.5-1.4 0.8-2.1 0-0.1 0.1-0.1 0.1-0.2v-0.1c0.2-0.5 0.3-1 0.5-1.6v-0.2l0.3-1.2v-0.1c0-0.1 0-0.2 0.1-0.3 0.1-0.3 0.1-0.7 0.2-1v-0.3-0.4-0.5-0.8-0.5-0.8-0.4c0-0.4-0.1-0.9-0.2-1.3-0.3-1.7-0.6-3.3-0.9-4.9-0.1-0.5-0.2-0.9-0.2-1.4-0.1-1.8-0.3-3.1-0.5-4.4z" fill="#2A2ABC" /><path d="M459.5 209.6c8.7-5 17.9-8 26.8-6.8l5.9 3 9.5-3.6c4.7 0.5 7.6 8.8 7.8 9.3 2.5 10.2 2.8 11.1 2.6 23.2-0.1 4.7-2.3 27.4-1.7 33.5 0.5 5.1 1.7 4.9 3.5 8.3 3.2 5.9 2.2 17.2 1 25.7-0.7 4.7-2.1 11.6-4.2 16.3-2.4 5.2-7.1 8-9.2 13.7-3 8.2-1.3 16.3-3.1 24.3-2.1 9.2-7.7 12.9-8 23.5l8.1-3.3c2.7 5.2 7.7 15.8 12.8 16.9 4.2-1.1 8.5-2.2 12.7-3.3 14.8-1.5 31.4-2.5 46.3-3.8 13.6-1.2 24.2-4.9 29.2 8.8 0 11.2 1.1 48.2 0.8 63.1L313.8 623.5c-0.3-14.6 0.5-52.6 0.5-63.8 4.9-19.4 17.9-29.2 31.4-43.7 14.9-15.9 31.3-33.9 46.2-49.5 4.2-3.8 8.5-7.6 12.7-11.4 5-7 10-23.3 12.6-31.5l6-5.2c-1.4-8-6.1-6-8.1-11.1-0.8-9-1.6-17.9-2.4-26.9-1.2 0.8-5.6 2-6.3 1.9-7.9-1.2-8.1-24.3-8.9-33.6-0.4-4.2 4.9-10.9 3.4-18.2-8.7-42.4 3.5-71.8 23-90.4 8.5-8.8 21.4-22.3 35.6-30.5z" fill="#4040FF" /><path d="M471.3 404.9c4.5-2.6 2.4 2.1 2.3 2.3l-9.7 21.9c0.6 2.4 12.7 47.9 12.7 50.6 0 2.7-16 23.6-18 24.7-1.9 1.1-18-0.8-18-3.9 0-3 11.7-62 12.4-65.1L442.7 425c-0.1-0.1-1.5-2.8 3-5.4l25.6-14.7z" fill="#2828CE" /><path d="M459.7 513.3l-12.1-7c-0.7-0.4-1.2-0.9-1.2-1.4 0-0.1 0-0.4 0.1-0.8l12.1 7c-0.1 0.4-0.1 0.7-0.1 0.8 0 0.5 0.5 1 1.2 1.4" fill="#ACC5EA" /><path d="M458.6 511.1l-12.1-7c1-7.8 11.7-61.3 12.3-64.3l12.1 7c-0.6 3-11.3 56.5-12.3 64.3" fill="#ACC5EA" /><path d="M491.7 415.5l-9.7-5.6-2.4-1.4h-0.1-0.1-0.1-0.1-0.5-0.1-0.1c-0.2 0-0.3 0.1-0.5 0.2h-0.1c-0.3 0.1-0.6 0.3-1 0.5L451.5 424c-0.4 0.2-0.7 0.4-1 0.6-0.1 0.1-0.2 0.1-0.2 0.2-0.2 0.2-0.5 0.4-0.7 0.6l-0.1 0.1s0 0.1-0.1 0.1l-0.2 0.2-0.1 0.1v0.2c0 0.1-0.1 0.1-0.1 0.2s-0.1 0.1-0.1 0.2l-0.1 0.1-0.1 0.1s0 0.1-0.1 0.1c0 0 0 0.1-0.1 0.1 0 0 0 0.1-0.1 0.1 0 0 0 0.1-0.1 0.1v1.3c0 0.2 0 0.3 0.1 0.4v0.1c0 0.1 0.1 0.2 0.1 0.3 0 0.1 0.1 0.1 0.1 0.1l10.3 10.4 12.1 7-10.3-10.4s0-0.1-0.1-0.1c0-0.1-0.1-0.2-0.1-0.3v-0.1c0-0.1-0.1-0.3-0.1-0.4v-0.1-0.5-0.2-0.1c0-0.1 0.1-0.2 0.1-0.4 0-0.1 0.1-0.3 0.2-0.4 0.1-0.1 0.1-0.3 0.2-0.4 0.1-0.1 0.2-0.3 0.3-0.4v-0.1c0.1-0.1 0.2-0.2 0.3-0.4 0 0 0-0.1 0.1-0.1l0.1-0.1c0.2-0.2 0.4-0.4 0.7-0.6l0.2-0.2c0.3-0.2 0.6-0.4 1-0.6l25.6-14.8c0.4-0.2 0.7-0.4 1-0.5 0.2-0.1 0.5-0.2 0.6-0.2h0.1c0.2 0 0.4-0.1 0.5-0.1 0.1 0.2 0.2 0.3 0.3 0.3z" fill="#ACC5EA" /><path d="M489.2 416.2c4.5-2.6 2.4 2.1 2.3 2.3l-9.7 21.9c0.6 2.4 12.7 47.9 12.7 50.6s-16 23.6-18 24.7c-1.9 1.1-18-0.8-18-3.9 0-3 11.7-62 12.4-65.1l-10.3-10.4c-0.1-0.1-1.5-2.8 3-5.4l25.6-14.7z" fill="#FFFFFF" /><path d="M535.7 638.2c0.6 1 1.4 1.7 2.3 2.2l14.8 8.6c-2.4-1.4-4-4.4-4-8.7l-14.8-8.6c0.1 2.7 0.7 4.9 1.7 6.5z" fill="#C68620" /><path d="M717.7 407.9c-0.3-0.2-0.5-0.3-0.8-0.4h-0.1c-0.1 0-0.2-0.1-0.2-0.1-0.1 0-0.2-0.1-0.4-0.1-0.1 0-0.3-0.1-0.4-0.1-0.1 0-0.2 0-0.2-0.1h-0.1c-0.3 0-0.5-0.1-0.8-0.1h-1.9c-0.1 0-0.2 0-0.3 0.1-0.2 0-0.4 0.1-0.6 0.1-0.1 0-0.2 0-0.3 0.1-0.1 0-0.2 0.1-0.3 0.1-0.3 0.1-0.6 0.2-1 0.3-0.1 0-0.2 0.1-0.3 0.1-0.1 0-0.1 0.1-0.2 0.1-0.6 0.2-1.1 0.5-1.7 0.8l-160.8 92.8c-0.7 0.4-1.4 0.9-2.1 1.4-0.1 0.1-0.2 0.2-0.4 0.3-0.6 0.5-1.3 1.1-1.9 1.7-0.1 0-0.1 0.1-0.2 0.1l-0.3 0.3c-0.3 0.3-0.6 0.6-0.9 1l-0.3 0.3c-0.1 0.1-0.2 0.2-0.2 0.3-0.2 0.2-0.4 0.4-0.5 0.6-0.1 0.1-0.2 0.3-0.3 0.4-0.1 0.1-0.2 0.2-0.3 0.4-0.1 0.2-0.3 0.3-0.4 0.5l-0.3 0.3c-0.1 0.2-0.3 0.4-0.4 0.6-0.1 0.1-0.2 0.3-0.3 0.4 0 0.1-0.1 0.1-0.1 0.2-0.2 0.4-0.5 0.8-0.7 1.2v0.1c0 0.1-0.1 0.2-0.1 0.2-0.2 0.3-0.3 0.6-0.5 0.8-0.1 0.1-0.1 0.3-0.2 0.4-0.1 0.1-0.1 0.3-0.2 0.4-0.1 0.1-0.1 0.2-0.2 0.4-0.1 0.3-0.3 0.6-0.4 0.9 0 0.1-0.1 0.1-0.1 0.2v0.1c-0.2 0.4-0.3 0.8-0.5 1.2 0 0.1 0 0.1-0.1 0.2s-0.1 0.3-0.2 0.4c-0.1 0.2-0.2 0.4-0.2 0.6-0.1 0.2-0.1 0.3-0.1 0.5-0.1 0.2-0.1 0.4-0.2 0.6 0 0.1-0.1 0.2-0.1 0.4-0.1 0.2-0.1 0.4-0.1 0.6-0.1 0.2-0.1 0.5-0.2 0.7 0 0.1 0 0.2-0.1 0.3 0 0.2-0.1 0.3-0.1 0.5-0.1 0.4-0.1 0.7-0.2 1.1 0 0.1 0 0.2-0.1 0.3v0.3c-0.1 0.8-0.2 1.6-0.2 2.4l0.3 106.7 14.8 8.6-0.3-106.7c0-0.8 0.1-1.6 0.2-2.4 0-0.2 0-0.4 0.1-0.6 0.1-0.4 0.1-0.7 0.2-1.1 0-0.3 0.1-0.5 0.1-0.8 0.1-0.2 0.1-0.5 0.2-0.7 0.1-0.3 0.2-0.6 0.3-1 0.1-0.2 0.1-0.4 0.2-0.6 0.1-0.4 0.2-0.7 0.4-1.1 0.1-0.1 0.1-0.3 0.2-0.4l0.6-1.5c0-0.1 0.1-0.1 0.1-0.2 0.2-0.4 0.4-0.9 0.6-1.3 0.1-0.1 0.1-0.3 0.2-0.4 0.2-0.4 0.4-0.8 0.7-1.2 0-0.1 0.1-0.2 0.1-0.2 0.3-0.5 0.6-0.9 0.9-1.4 0.1-0.1 0.2-0.3 0.3-0.4 0.2-0.3 0.4-0.6 0.7-1 0.1-0.2 0.3-0.3 0.4-0.5 0.2-0.3 0.4-0.5 0.6-0.8 0.2-0.2 0.4-0.4 0.5-0.7 0.2-0.2 0.3-0.4 0.5-0.6 0.3-0.3 0.6-0.6 0.9-1 0.1-0.2 0.3-0.3 0.5-0.5 0.6-0.6 1.2-1.2 1.9-1.7 0.1-0.1 0.2-0.2 0.4-0.3 0.7-0.5 1.4-1 2.1-1.4l160.8-92.8c0.6-0.3 1.1-0.6 1.7-0.8 0.2-0.1 0.4-0.1 0.5-0.2l0.9-0.3c0.2-0.1 0.4-0.1 0.6-0.2 0.2 0 0.4-0.1 0.6-0.1 0.2 0 0.5-0.1 0.7-0.1h1.5c0.3 0 0.7 0.1 1 0.1 0.1 0 0.2 0 0.2 0.1 0.3 0.1 0.5 0.1 0.7 0.2 0.1 0 0.2 0.1 0.2 0.1 0.3 0.1 0.6 0.3 0.9 0.4l-14.9-8.4z" fill="#C68620" /><path d="M722.9 417.5c7.5-4.3 13.6-0.8 13.6 7.7l0.3 106.7c0 8.6-6.1 19.1-13.5 23.4l-160.8 92.8c-7.5 4.3-13.6 0.8-13.6-7.7l-0.3-106.7c0-8.6 6.1-19.1 13.5-23.4l160.8-92.8z" fill="#FFCD2E" /><path d="M736.5 439.5l0.1 21.4-187.9 108.3-0.1-21.4z" fill="#FFFFFF" /><path d="M717.4 506.1c1.5-0.8 2.5-0.1 2.2 1.6l-6 28.9c-0.2 1.2-1.1 2.4-2.2 3L672.6 562c-1.5 0.8-2.5 0.1-2.2-1.6l6-28.9c0.2-1.2 1.1-2.4 2.2-3l38.8-22.4z" fill="#C68620" /><path d="M679.4 566.6c0-0.1-0.1-0.2-0.1-0.3v-0.2-0.3-0.2c0-0.1 0-0.3 0.1-0.5l-5.9-3.4v1.2c0 0.1 0.1 0.2 0.1 0.3 0 0 0 0.1 0.1 0.1l0.3 0.3 5.9 3.4-0.3-0.3c-0.1 0-0.1-0.1-0.2-0.1zM722.1 507.2s-0.1 0-0.1-0.1h-0.1-0.1H721.5h-0.1H721.1h-0.1-0.1-0.1c-0.1 0-0.2 0.1-0.4 0.2l-38.9 22.4c-0.1 0.1-0.3 0.2-0.4 0.3l-0.1 0.1c-0.1 0.1-0.2 0.1-0.3 0.2l-0.2 0.2-0.1 0.1-0.2 0.2s0 0.1-0.1 0.1v0.1c0 0.1-0.1 0.1-0.1 0.2l-0.1 0.1c0 0.1-0.1 0.1-0.1 0.2s-0.1 0.1-0.1 0.2v0.1c0 0.1 0 0.1-0.1 0.2 0 0 0 0.1-0.1 0.1 0 0.1 0 0.1-0.1 0.2 0 0.1 0 0.1-0.1 0.2l-6 28.9 5.9 3.4 6-28.9c0-0.1 0.1-0.3 0.1-0.4 0-0.1 0.1-0.3 0.2-0.4 0.1-0.1 0.1-0.3 0.2-0.4 0.1-0.1 0.2-0.2 0.2-0.4l0.3-0.3 0.1-0.1c0.1-0.1 0.1-0.2 0.2-0.2 0.1-0.1 0.2-0.2 0.3-0.2l0.1-0.1c0.1-0.1 0.3-0.2 0.4-0.3l38.9-22.4c0.2-0.1 0.3-0.2 0.5-0.2h0.1c0.1 0 0.3-0.1 0.4-0.1h0.4c0.1 0 0.2 0.1 0.3 0.1l-5.8-3.3z" fill="#E8CFAC" /><path d="M566.8 569.1c1-0.6 1.8-0.1 1.8 1v9.5c0 1.2-0.8 2.6-1.8 3.1l-8.3 4.8c-1 0.6-1.8 0.1-1.8-1V577c0-1.1 0.8-2.6 1.8-3.1l8.3-4.8z" fill="#C68620" /><path d="M726.3 510.8c1.5-0.8 2.5-0.1 2.2 1.6l-6 28.9c-0.2 1.2-1.1 2.4-2.2 3l-38.9 22.4c-1.5 0.8-2.5 0.1-2.2-1.6l6-28.9c0.2-1.2 1.1-2.4 2.2-3l38.9-22.4z" fill="#FFFFFF" /><path d="M564.6 591.5l-6.3-3.6c0 0.6 0.2 1 0.5 1.2l6.3 3.6c-0.3-0.3-0.5-0.7-0.5-1.2z" fill="#E8CFAC" /><path d="M569.7 570.3s-0.1 0-0.1-0.1h-0.1-0.1-0.1-0.1H568.9h-0.1-0.1-0.1c-0.1 0-0.2 0.1-0.3 0.1l-8.3 4.8c-0.2 0.1-0.4 0.3-0.5 0.4h-0.1l-0.1 0.1-0.1 0.1-0.1 0.1c-0.1 0.1-0.1 0.1-0.1 0.2v0.2c0 0.1-0.1 0.1-0.1 0.2s-0.1 0.1-0.1 0.2c0 0 0 0.1-0.1 0.1 0 0.1-0.1 0.1-0.1 0.2 0 0 0 0.1-0.1 0.1 0 0.1 0 0.1-0.1 0.2 0 0.1 0 0.1-0.1 0.2v0.2c0 0.1 0 0.1-0.1 0.2V588l6.3 3.6v-9.5-0.4-0.1c0-0.1 0.1-0.3 0.1-0.4 0-0.1 0.1-0.3 0.2-0.4 0.1-0.1 0.1-0.3 0.2-0.4 0.1-0.1 0.2-0.3 0.3-0.4l0.3-0.3 0.1-0.1 0.1-0.1c0.2-0.2 0.4-0.3 0.5-0.4l8.3-4.8c0.1-0.1 0.2-0.1 0.3-0.2h0.1c0.1 0 0.2-0.1 0.3-0.1h0.3c0.1 0 0.2 0.1 0.3 0.1l-6.2-3.8z" fill="#E8CFAC" /><path d="M590.6 556.4c1-0.6 1.8-0.1 1.8 1v9.5c0 1.2-0.8 2.6-1.8 3.1l-8.3 4.8c-1 0.6-1.8 0.1-1.8-1v-9.5c0-1.1 0.8-2.6 1.8-3.1l8.3-4.8z" fill="#C68620" /><path d="M574.7 574.1c1-0.6 1.8-0.1 1.8 1v9.5c0 1.2-0.8 2.6-1.8 3.1l-8.3 4.8c-1 0.6-1.8 0.1-1.8-1V582c0-1.1 0.8-2.6 1.8-3.1l8.3-4.8z" fill="#FFFFFF" /><path d="M588.7 578.7l-6.3-3.6c0 0.6 0.2 1 0.5 1.2l6.3 3.6c-0.3-0.2-0.5-0.6-0.5-1.2z" fill="#E8CFAC" /><path d="M593.8 557.5s-0.1 0-0.1-0.1h-0.1-0.1-0.1-0.1H593h-0.1-0.1-0.1c-0.1 0-0.2 0.1-0.3 0.1l-8.3 4.8c-0.2 0.1-0.4 0.3-0.5 0.4h-0.1l-0.1 0.1-0.1 0.1-0.1 0.1c-0.1 0.1-0.1 0.1-0.1 0.2v0.2c0 0.1-0.1 0.1-0.1 0.2s-0.1 0.1-0.1 0.2c0 0 0 0.1-0.1 0.1 0 0.1-0.1 0.1-0.1 0.2 0 0 0 0.1-0.1 0.1 0 0.1 0 0.1-0.1 0.2 0 0.1 0 0.1-0.1 0.2v0.2c0 0.1 0 0.1-0.1 0.2v10.2l6.3 3.6v-9.5-0.4-0.1c0-0.1 0.1-0.3 0.1-0.4 0-0.1 0.1-0.3 0.2-0.4 0.1-0.1 0.1-0.3 0.2-0.4 0.1-0.1 0.2-0.3 0.3-0.4l0.3-0.3 0.1-0.1 0.1-0.1c0.2-0.2 0.4-0.3 0.5-0.4l8.3-4.8c0.1-0.1 0.2-0.1 0.3-0.2h0.1c0.1 0 0.2-0.1 0.3-0.1h0.3c0.1 0 0.2 0.1 0.3 0.1l-6.2-3.8z" fill="#E8CFAC" /><path d="M613 544.1c1-0.6 1.8-0.1 1.8 1v9.5c0 1.2-0.8 2.6-1.8 3.1l-8.3 4.8c-1 0.6-1.8 0.1-1.8-1V552c0-1.1 0.8-2.6 1.8-3.1l8.3-4.8z" fill="#C68620" /><path d="M598.7 561.3c1-0.6 1.8-0.1 1.8 1v9.5c0 1.2-0.8 2.6-1.8 3.1l-8.3 4.8c-1 0.6-1.8 0.1-1.8-1v-9.5c0-1.1 0.8-2.6 1.8-3.1l8.3-4.8z" fill="#FFFFFF" /><path d="M611.4 566.5l-6.3-3.6c0 0.6 0.2 1 0.5 1.2l6.3 3.6c-0.3-0.3-0.5-0.7-0.5-1.2z" fill="#E8CFAC" /><path d="M616.5 545.3s-0.1 0-0.1-0.1h-0.1-0.1-0.1-0.1H615.7h-0.1-0.1-0.1c-0.1 0-0.2 0.1-0.3 0.1l-8.3 4.8c-0.2 0.1-0.4 0.3-0.5 0.4h-0.1l-0.1 0.1-0.1 0.1-0.1 0.1c-0.1 0.1-0.1 0.1-0.1 0.2v0.2c0 0.1-0.1 0.1-0.1 0.2s-0.1 0.1-0.1 0.2c0 0 0 0.1-0.1 0.1 0 0.1-0.1 0.1-0.1 0.2 0 0 0 0.1-0.1 0.1 0 0.1 0 0.1-0.1 0.2 0 0.1 0 0.1-0.1 0.2v0.2c0 0.1 0 0.1-0.1 0.2V563l6.3 3.6v-9.5-0.4-0.1c0-0.1 0.1-0.3 0.1-0.4 0-0.1 0.1-0.3 0.2-0.4 0.1-0.1 0.1-0.3 0.2-0.4 0.1-0.1 0.2-0.3 0.3-0.4l0.3-0.3 0.1-0.1 0.1-0.1c0.2-0.2 0.4-0.3 0.5-0.4l8.3-4.8c0.1-0.1 0.2-0.1 0.3-0.2h0.1c0.1 0 0.2-0.1 0.3-0.1h0.3c0.1 0 0.2 0.1 0.3 0.1l-6.2-3.8z" fill="#E8CFAC" /><path d="M621.5 549.1c1-0.6 1.8-0.1 1.8 1v9.5c0 1.2-0.8 2.6-1.8 3.1l-8.3 4.8c-1 0.6-1.8 0.1-1.8-1V557c0-1.1 0.8-2.6 1.8-3.1l8.3-4.8z" fill="#FFFFFF" /></svg>