<?xml version="1.0" encoding="utf-8"?>
<!-- Uploaded to: SVG Repo, www.svgrepo.com, Generator: SVG Repo Mixer Tools -->
<svg width="800px" height="800px" viewBox="0 0 1024 1024" class="icon"  version="1.1" xmlns="http://www.w3.org/2000/svg"><path d="M906.3 562.7c-1.1 11-11.2 16.5-19.8 21.5-8 4.6-16 9.3-23.9 13.9-12.8 7.4-25.5 14.8-38.3 22.2-16 9.3-31.9 18.6-47.9 27.8-17.6 10.2-35.2 20.5-52.9 30.7-17.7 10.3-35.4 20.6-53.2 30.9-16.3 9.5-32.5 18.9-48.8 28.4-13.3 7.7-26.5 15.4-39.8 23.1-8.7 5-17.4 10.1-26.1 15.1-6.6 3.8-12.8 7.6-20.3 9.8-19.5 5.6-41.1 3.7-58.7-6.5-6.3-3.7-12.7-7.3-19-11-11.6-6.7-23.1-13.3-34.7-20-15.2-8.8-30.4-17.6-45.6-26.3-17.3-10-34.7-20-52-30-17.9-10.3-35.8-20.7-53.7-31-16.9-9.8-33.8-19.5-50.8-29.3l-43.2-24.9c-10.3-6-20.7-11.9-31-17.9-4.7-2.7-9.4-5.4-14.1-8.2-7.4-4.3-14.7-11.1-14.7-20.3 0 8.4 0 16.8-0.1 25.3 0 3-0.2 6.1 0 9.2 0.6 8.1 7 14.4 13.7 18.4 4.1 2.5 8.3 4.8 12.5 7.2 10.8 6.2 21.6 12.5 32.4 18.7 15.6 9 31.1 18 46.7 27 18.5 10.7 37.1 21.4 55.6 32.1 19.3 11.2 38.6 22.3 58 33.5 18.4 10.6 36.7 21.2 55.1 31.8 15.3 8.8 30.5 17.6 45.8 26.4 10.3 6 20.7 11.9 31 17.9 6 3.4 11.9 7.3 18.4 9.7 20.3 7.4 44.1 5.8 62.8-5.1 7.1-4.1 14.2-8.3 21.3-12.4 13.1-7.6 26.2-15.2 39.2-22.8 17.1-9.9 34.1-19.8 51.2-29.8 19.1-11.1 38.2-22.2 57.2-33.3l57.3-33.3c17.1-10 34.2-19.9 51.4-29.9 13.3-7.7 26.6-15.4 39.9-23.2 7.3-4.3 14.7-8.5 22-12.8 2.2-1.3 4.5-2.6 6.6-4.1 5.6-4.2 10-10 10.1-17.3 0.1-3.7 0-7.3 0-11 0-7.3 0-14.7 0.1-22 0.4 0.8 0.3 1.3 0.3 1.8-0.1 0.3 0-0.2 0 0zM906.4 561.2z" fill="#7A9EFD" /><path d="M892 541.2c19 11 19.1 28.9 0.2 39.9L547.9 781.2c-18.9 11-49.8 11-68.8 0L132.3 581.1c-19-11-19.1-28.9-0.2-39.9L476.5 341c18.9-11 49.8-11 68.8 0L892 541.2z" fill="#E4ECF9" /><path d="M651.9 302.8l-14.8-8.6c0.1 0 0.3 0.1 0.4 0.2l14.8 8.6c-0.1-0.1-0.3-0.1-0.4-0.2" fill="#444444" /><path d="M652.3 303l-14.8-8.6c0.3 0.1 0.6 0.3 0.9 0.4l14.8 8.6c-0.3-0.1-0.6-0.3-0.9-0.4" fill="#424242" /><path d="M653.2 303.4l-14.8-8.6s0.1 0 0.1 0.1l14.7 8.5c0 0.1 0 0 0 0" fill="#404040" /><path d="M574.2 274.9l-14.8-8.6 77.7 27.9 14.8 8.6zM346.4 629l-0.4-150.9-14.8-8.6 0.4 150.9c0 7.1 3.1 12.5 7.8 15.2l14.8 8.6c-4.6-2.7-7.7-8-7.8-15.2z" fill="#2A2ABC" /><path d="M470.7 243.5c3.8-2.2 7.7-3 10.8-1.8l60 21.5-0.1-27.1c0-7.5 5.3-16.8 11.9-20.6l9.7-5.6c6.6-3.8 11.9-0.7 12 6.8l0.1 52.2c0 1.9-0.3 3.9-1 6l77.7 27.9c7.3 2.6 8.5 14.4 2.5 26.3-3.4 6.7-8.3 12-13.3 14.9-3.8 2.2-7.6 3-10.8 1.8l-34-12.2 0.4 150.9c0 14.4-12.4 36-24.9 43.2L371.6 643.3c-12.5 7.2-25.1 0.1-25.1-14.3l-0.5-150.9-33.8 51.4c-3.2 4.8-7 8.5-10.8 10.7-5 2.9-9.9 3.2-13.3 0.4-6-5-4.9-18 2.4-29.1l169.4-257.3c3.1-4.8 7-8.5 10.8-10.7z" fill="#4040FF" /><path d="M556.7 200.5s-0.1 0 0 0c-0.3-0.1-0.5-0.2-0.7-0.3h-0.1c-0.1 0-0.1 0-0.2-0.1-0.1 0-0.2-0.1-0.3-0.1-0.1 0-0.2-0.1-0.3-0.1-0.1 0-0.1 0-0.2-0.1h-0.1c-0.2 0-0.5-0.1-0.7-0.1h-1.7c-0.1 0-0.2 0-0.3 0.1-0.2 0-0.3 0.1-0.5 0.1-0.1 0-0.2 0-0.3 0.1-0.1 0-0.2 0.1-0.3 0.1-0.3 0.1-0.6 0.2-0.8 0.3-0.1 0-0.2 0.1-0.3 0.1-0.1 0-0.1 0.1-0.2 0.1-0.5 0.2-1 0.4-1.5 0.7l-9.7 5.6-1.8 1.2c-0.1 0.1-0.2 0.2-0.3 0.2-0.6 0.5-1.1 0.9-1.7 1.5l-0.1 0.1-0.3 0.3c-0.3 0.3-0.5 0.6-0.8 0.8l-0.3 0.3c-0.1 0.1-0.1 0.2-0.2 0.3-0.2 0.2-0.3 0.4-0.5 0.6-0.1 0.1-0.2 0.2-0.3 0.4-0.1 0.1-0.2 0.2-0.2 0.3-0.1 0.1-0.2 0.3-0.3 0.5-0.1 0.1-0.2 0.2-0.2 0.3-0.1 0.2-0.2 0.4-0.4 0.6-0.1 0.1-0.2 0.2-0.2 0.3l-0.1 0.1c-0.2 0.3-0.4 0.7-0.6 1v0.1c0 0.1-0.1 0.1-0.1 0.2-0.1 0.2-0.3 0.5-0.4 0.7-0.1 0.1-0.1 0.2-0.2 0.3-0.1 0.1-0.1 0.2-0.2 0.4-0.1 0.1-0.1 0.2-0.2 0.3-0.1 0.3-0.2 0.5-0.4 0.8 0 0.1-0.1 0.1-0.1 0.2v0.1c-0.2 0.4-0.3 0.7-0.4 1.1 0 0.1 0 0.1-0.1 0.2 0 0.1-0.1 0.3-0.1 0.4-0.1 0.2-0.1 0.4-0.2 0.6 0 0.1-0.1 0.3-0.1 0.4-0.1 0.2-0.1 0.3-0.2 0.5 0 0.1-0.1 0.2-0.1 0.3 0 0.2-0.1 0.4-0.1 0.5-0.1 0.2-0.1 0.4-0.1 0.6 0 0.1 0 0.2-0.1 0.2 0 0.1 0 0.3-0.1 0.4-0.1 0.3-0.1 0.6-0.2 0.9v0.5c-0.1 0.7-0.1 1.4-0.1 2.1l0.1 27.1-60-21.5c-0.2-0.1-0.3-0.1-0.5-0.2-0.2 0-0.3-0.1-0.5-0.1-0.1 0-0.2-0.1-0.3-0.1h-0.1c-0.3-0.1-0.6-0.1-1-0.1H463.2h-0.1c-0.2 0-0.4 0-0.5 0.1-0.2 0-0.4 0-0.6 0.1h-0.1c-0.3 0.1-0.6 0.1-1 0.2-0.1 0-0.3 0.1-0.4 0.1h-0.1l-1.8 0.6c-0.1 0-0.1 0-0.2 0.1-0.1 0-0.2 0.1-0.2 0.1-0.7 0.3-1.5 0.7-2.2 1.1-0.5 0.3-1 0.6-1.4 0.9-0.1 0.1-0.3 0.2-0.4 0.3-0.3 0.2-0.7 0.5-1 0.7-0.2 0.1-0.4 0.3-0.6 0.5-0.3 0.2-0.6 0.5-0.9 0.7l-0.6 0.6c-0.3 0.2-0.5 0.5-0.8 0.7 0 0-0.1 0.1-0.1 0.2-0.5 0.5-1 1-1.5 1.6-0.1 0.1-0.1 0.2-0.2 0.2-0.1 0.1-0.2 0.3-0.3 0.4-0.2 0.3-0.5 0.6-0.7 0.9-0.1 0.1-0.2 0.2-0.3 0.4-0.1 0.1-0.2 0.3-0.3 0.5-0.2 0.2-0.3 0.5-0.5 0.7-0.1 0.1-0.2 0.2-0.3 0.4-0.2 0.3-0.5 0.7-0.7 1L275.6 502.9c-0.1 0.2-0.2 0.3-0.3 0.5l-0.9 1.5s0 0.1-0.1 0.1c-0.1 0.1-0.1 0.2-0.2 0.3-0.2 0.4-0.4 0.7-0.6 1.1l-0.3 0.6c-0.1 0.2-0.2 0.3-0.2 0.5-0.1 0.1-0.1 0.2-0.2 0.4-0.2 0.5-0.5 1-0.7 1.5v0.1c0 0.1-0.1 0.1-0.1 0.2-0.2 0.4-0.4 0.8-0.5 1.3-0.1 0.1-0.1 0.3-0.2 0.4-0.1 0.2-0.1 0.4-0.2 0.6-0.1 0.2-0.1 0.4-0.2 0.6-0.1 0.3-0.2 0.5-0.2 0.8-0.1 0.2-0.1 0.4-0.2 0.7 0 0.1-0.1 0.2-0.1 0.3-0.1 0.3-0.1 0.6-0.2 0.9-0.1 0.3-0.1 0.6-0.2 0.9v0.2c0 0.2-0.1 0.4-0.1 0.6-0.1 0.5-0.2 1-0.3 1.6 0 0.1 0 0.2-0.1 0.3 0 0.2 0 0.4-0.1 0.6 0 0.4-0.1 0.8-0.1 1.2v2.9c0 0.4 0.1 0.7 0.1 1 0 0.3 0.1 0.5 0.1 0.8 0.1 0.3 0.1 0.7 0.2 1 0.1 0.3 0.1 0.5 0.2 0.7l0.3 0.9c0.1 0.2 0.2 0.5 0.2 0.7 0.1 0.3 0.3 0.6 0.4 0.9l0.3 0.6c0.2 0.3 0.4 0.6 0.6 0.8 0.1 0.1 0.2 0.3 0.3 0.4 0.3 0.4 0.7 0.8 1.1 1.1 0.4 0.3 0.7 0.6 1.1 0.8l14.8 8.6c-0.4-0.2-0.8-0.5-1.1-0.8-0.4-0.3-0.7-0.7-1.1-1.1-0.1-0.1-0.2-0.3-0.3-0.4-0.2-0.3-0.4-0.5-0.6-0.8l-0.3-0.6c-0.1-0.3-0.3-0.6-0.4-0.9-0.1-0.2-0.2-0.4-0.2-0.7l-0.3-0.9c-0.1-0.2-0.1-0.5-0.2-0.7-0.1-0.3-0.1-0.6-0.2-1 0-0.3-0.1-0.5-0.1-0.8 0-0.3-0.1-0.7-0.1-1v-0.9-1.1-0.9c0-0.4 0.1-0.8 0.1-1.2 0-0.3 0.1-0.6 0.1-0.9 0.1-0.5 0.2-1 0.3-1.6 0-0.2 0.1-0.5 0.1-0.7 0.1-0.3 0.1-0.6 0.2-0.9l0.3-1.2c0.1-0.2 0.1-0.4 0.2-0.7 0.1-0.5 0.3-0.9 0.4-1.4 0.1-0.2 0.1-0.4 0.2-0.6 0.2-0.6 0.4-1.1 0.7-1.7 0-0.1 0.1-0.1 0.1-0.2 0.3-0.6 0.6-1.3 0.9-1.9 0.1-0.2 0.2-0.3 0.2-0.5 0.3-0.6 0.6-1.1 0.9-1.7 0.1-0.1 0.1-0.2 0.1-0.3 0.4-0.7 0.8-1.4 1.3-2l169.4-257.3c0.3-0.5 0.6-0.9 1-1.4 0.2-0.2 0.3-0.5 0.5-0.7 0.2-0.3 0.4-0.6 0.6-0.8 0.2-0.3 0.5-0.6 0.7-0.9 0.2-0.2 0.4-0.4 0.6-0.7 0.5-0.6 1-1.1 1.5-1.6l0.2-0.2c0.3-0.3 0.5-0.5 0.8-0.7l0.6-0.6c0.3-0.2 0.6-0.5 0.8-0.7 0.2-0.2 0.4-0.3 0.6-0.5 0.3-0.2 0.6-0.5 1-0.7 0.2-0.1 0.3-0.2 0.5-0.3 0.5-0.3 1-0.6 1.4-0.9 0.7-0.4 1.5-0.8 2.2-1.1 0.1-0.1 0.3-0.1 0.4-0.2l1.8-0.6c0.2 0 0.3-0.1 0.5-0.1 0.3-0.1 0.6-0.2 1-0.2 0.3 0 0.5-0.1 0.8-0.1 0.2 0 0.4 0 0.5-0.1h1.3c0.4 0 0.7 0.1 1.1 0.1 0.1 0 0.2 0.1 0.3 0.1 0.3 0.1 0.7 0.2 1 0.3l60 21.5-0.1-27.1c0-0.7 0.1-1.4 0.1-2.1 0-0.2 0-0.3 0.1-0.5 0-0.3 0.1-0.6 0.2-0.9 0-0.2 0.1-0.4 0.1-0.7 0-0.2 0.1-0.4 0.1-0.6 0.1-0.3 0.1-0.6 0.2-0.9 0-0.2 0.1-0.3 0.2-0.5 0.1-0.3 0.2-0.6 0.3-1 0-0.1 0.1-0.3 0.1-0.4 0.2-0.4 0.3-0.9 0.5-1.3 0-0.1 0.1-0.1 0.1-0.2 0.2-0.4 0.3-0.8 0.5-1.1 0.1-0.1 0.1-0.2 0.2-0.4 0.2-0.4 0.4-0.7 0.6-1.1 0-0.1 0.1-0.1 0.1-0.2 0.2-0.4 0.5-0.8 0.8-1.2 0.1-0.1 0.2-0.2 0.2-0.3l0.6-0.9c0.1-0.2 0.2-0.3 0.3-0.5 0.2-0.2 0.4-0.5 0.5-0.7 0.2-0.2 0.3-0.4 0.5-0.6 0.1-0.2 0.3-0.3 0.5-0.5 0.3-0.3 0.5-0.6 0.8-0.8l0.4-0.4c0.5-0.5 1.1-1 1.7-1.5 0.1-0.1 0.2-0.2 0.3-0.2 0.6-0.5 1.2-0.9 1.8-1.2l9.7-5.6c0.5-0.3 1-0.5 1.5-0.7 0.2-0.1 0.3-0.1 0.5-0.2 0.3-0.1 0.6-0.2 0.8-0.3 0.2-0.1 0.4-0.1 0.5-0.1 0.2 0 0.3-0.1 0.5-0.1s0.4-0.1 0.6-0.1H568.5c0.3 0 0.6 0.1 0.9 0.1 0.1 0 0.1 0 0.2 0.1 0.2 0.1 0.4 0.1 0.7 0.2 0.1 0 0.1 0 0.2 0.1 0.3 0.1 0.5 0.2 0.8 0.4l-14.6-8.9z" fill="#2A2ABC" /><path d="M476.5 432.2c13.8-8 25.1-1.6 25.1 14.3l0.3 96.5-75.1 43.4-0.3-96.5c0-15.9 11.1-35.2 24.9-43.2l25.1-14.5z" fill="#2828CE" /><path d="M498.3 445.4c0.7-0.3 1.5-0.6 2.2-0.9h0.1c0.6-0.2 1.2-0.4 1.8-0.5 0.3-0.1 0.7-0.2 1-0.2 0.4-0.1 0.9-0.2 1.3-0.2 0.3 0 0.5-0.1 0.7-0.1h2c0.6 0 1.3 0.1 1.9 0.2 0.1 0 0.3 0.1 0.4 0.1 0.5 0.1 0.9 0.2 1.4 0.4 0.1 0 0.3 0.1 0.4 0.1 0.6 0.2 1.1 0.5 1.6 0.8l-10.8-6.3-0.1-0.1c-0.4-0.2-0.8-0.4-1.3-0.6-0.1 0-0.2-0.1-0.2-0.1-0.1-0.1-0.3-0.1-0.4-0.1-0.2-0.1-0.4-0.2-0.7-0.2-0.2-0.1-0.5-0.1-0.7-0.2-0.1 0-0.3-0.1-0.4-0.1-0.1 0-0.2 0-0.2-0.1-0.5-0.1-1-0.1-1.5-0.2h-2.1c-0.2 0-0.5 0-0.8 0.1-0.2 0-0.5 0-0.7 0.1-0.2 0-0.4 0.1-0.6 0.1-0.3 0.1-0.7 0.1-1 0.2-0.2 0-0.4 0.1-0.6 0.1-0.4 0.1-0.8 0.2-1.3 0.4h-0.1l-1.5 0.6-0.6 0.3-0.6 0.3c-0.8 0.4-1.5 0.7-2.3 1.2l-25 14.5-2.4 1.5c-0.3 0.2-0.5 0.4-0.8 0.5-0.5 0.4-1.1 0.8-1.6 1.2-0.3 0.2-0.6 0.5-0.9 0.7-0.5 0.4-1 0.8-1.4 1.2-0.3 0.3-0.6 0.5-0.8 0.8-0.2 0.2-0.4 0.3-0.5 0.5-0.2 0.2-0.4 0.4-0.5 0.6-0.6 0.6-1.1 1.2-1.7 1.8-0.2 0.2-0.4 0.4-0.5 0.6-0.1 0.2-0.3 0.3-0.4 0.5-0.3 0.4-0.6 0.8-1 1.2-0.2 0.3-0.4 0.5-0.6 0.8-0.2 0.2-0.3 0.4-0.5 0.7-0.2 0.3-0.5 0.6-0.7 0.9-0.2 0.2-0.3 0.4-0.5 0.7-0.3 0.4-0.5 0.8-0.8 1.1-0.2 0.2-0.3 0.5-0.5 0.7-0.1 0.1-0.1 0.2-0.2 0.3-0.4 0.7-0.9 1.4-1.3 2.1l-0.1 0.1c-0.1 0.1-0.2 0.3-0.2 0.4l-0.9 1.5c-0.1 0.2-0.2 0.5-0.4 0.7-0.1 0.2-0.3 0.5-0.4 0.8-0.1 0.2-0.2 0.4-0.3 0.7-0.3 0.6-0.5 1.2-0.8 1.8 0 0.1-0.1 0.2-0.1 0.3v0.1c-0.3 0.7-0.6 1.5-0.9 2.2-0.1 0.1-0.1 0.3-0.1 0.4-0.1 0.3-0.2 0.5-0.3 0.8-0.1 0.4-0.3 0.7-0.4 1.1l-0.3 0.9c-0.1 0.3-0.2 0.7-0.3 1-0.1 0.2-0.1 0.4-0.2 0.6-0.1 0.4-0.2 0.8-0.3 1.1-0.1 0.4-0.2 0.9-0.3 1.3 0 0.1-0.1 0.3-0.1 0.4-0.1 0.3-0.1 0.6-0.2 0.9-0.1 0.7-0.2 1.3-0.3 2 0 0.2-0.1 0.4-0.1 0.6-0.1 0.4-0.1 0.8-0.1 1.2 0 0.3-0.1 0.6-0.1 0.9-0.1 0.9-0.1 1.9-0.1 2.8l0.3 96.5 10.8 6.3-0.3-96.5c0-0.9 0-1.8 0.1-2.8 0-0.3 0.1-0.6 0.1-0.9 0.1-0.6 0.1-1.2 0.2-1.8 0.1-0.7 0.2-1.3 0.3-2 0.1-0.5 0.2-0.9 0.3-1.4 0.1-0.4 0.2-0.9 0.3-1.3 0.2-0.6 0.3-1.2 0.5-1.8 0.1-0.3 0.2-0.7 0.3-1 0.2-0.7 0.4-1.3 0.7-2 0.1-0.3 0.2-0.6 0.3-0.8 0.3-0.9 0.7-1.8 1.1-2.7 0-0.1 0.1-0.2 0.1-0.3 0.4-0.8 0.7-1.6 1.1-2.4 0.1-0.3 0.3-0.5 0.4-0.8 0.4-0.8 0.8-1.5 1.2-2.3 0.1-0.1 0.2-0.3 0.2-0.4 0.5-0.9 1-1.7 1.6-2.6 0.2-0.2 0.3-0.5 0.5-0.7l1.2-1.8c0.2-0.3 0.5-0.6 0.7-0.9 0.4-0.5 0.7-1 1.1-1.4 0.3-0.4 0.6-0.8 1-1.2 0.3-0.4 0.6-0.7 1-1.1 0.5-0.6 1.1-1.2 1.7-1.8l1.1-1.1c0.3-0.3 0.6-0.5 0.8-0.8 0.5-0.4 0.9-0.8 1.4-1.2 0.3-0.2 0.6-0.5 0.9-0.7 0.5-0.4 1-0.8 1.6-1.2 0.3-0.2 0.5-0.4 0.8-0.5 0.8-0.5 1.6-1.1 2.4-1.5l25-14.5c0.8-0.4 1.5-0.8 2.3-1.2 0.1 0.2 0.3 0.1 0.5 0z" fill="#ACC5EA" /><path d="M495.4 446.8c13.8-8 25.1-1.6 25.1 14.3l0.3 96.5-75.1 43.4-0.3-96.5c0-15.9 11.1-35.2 24.9-43.2l25.1-14.5z" fill="#FFFFFF" /><path d="M690.8 541.7l-15.9-9.3 37.2 21.2 15.9 9.2z" fill="#9E7F1D" /><path d="M582 609.5c-0.3-0.3-0.6-0.5-0.9-0.8l-1.5-1.5-0.8-0.8-1.5-1.8c-0.2-0.2-0.4-0.5-0.6-0.7-0.6-0.9-1.3-1.7-1.8-2.7-0.1-0.2-0.2-0.3-0.3-0.5-0.5-0.8-0.9-1.6-1.3-2.4-0.2-0.3-0.3-0.7-0.5-1l-0.9-2.1c-0.2-0.4-0.3-0.8-0.5-1.2-0.3-0.7-0.5-1.4-0.8-2.2-0.1-0.4-0.3-0.8-0.4-1.2-0.3-0.9-0.5-1.8-0.8-2.7-0.1-0.3-0.1-0.5-0.2-0.8-0.3-1.2-0.6-2.4-0.8-3.6-0.1-0.3-0.1-0.6-0.2-1-0.2-0.9-0.3-1.9-0.4-2.8-0.1-0.5-0.1-0.9-0.2-1.4-0.1-0.9-0.2-1.7-0.2-2.6 0-0.5-0.1-1-0.1-1.5-0.1-0.9-0.1-1.8-0.1-2.8V570v-3.7-0.5c0.1-1.4 0.1-2.9 0.3-4.3 0-0.4 0.1-0.9 0.1-1.3 0.1-1 0.2-2.1 0.3-3.1 0.1-0.6 0.1-1.1 0.2-1.7 0.1-0.9 0.3-1.8 0.4-2.7 0.1-0.6 0.2-1.1 0.3-1.7 0.2-0.9 0.4-1.9 0.5-2.9 0.1-0.6 0.2-1.1 0.4-1.7 0.1-0.6 0.3-1.2 0.4-1.7 0.2-0.8 0.4-1.5 0.5-2.3 0.2-0.6 0.3-1.2 0.5-1.8 0.2-0.6 0.3-1.3 0.5-1.9l1.8-6c0.1-0.4 0.3-0.8 0.4-1.2 0.5-1.6 1.1-3.1 1.7-4.7 0.2-0.4 0.3-0.9 0.5-1.3 0.7-1.8 1.4-3.5 2.2-5.3 0.1-0.3 0.3-0.6 0.4-0.9 0.6-1.4 1.3-2.9 2-4.3 0.3-0.5 0.5-1.1 0.8-1.6 0.6-1.3 1.3-2.7 2-4 0.2-0.4 0.4-0.9 0.7-1.3 0.8-1.6 1.7-3.2 2.6-4.7 0.3-0.5 0.6-1 0.9-1.4 0.8-1.4 1.7-2.8 2.5-4.2 0.3-0.5 0.6-1 0.9-1.4 1.1-1.8 2.3-3.5 3.5-5.2 1.3-1.8 2.6-3.6 4-5.4 0.4-0.5 0.7-0.9 1.1-1.4l1.2-1.5c0.5-0.6 1-1.3 1.6-1.9 0.4-0.5 0.8-1 1.3-1.5s0.9-1.1 1.4-1.6c0.7-0.8 1.5-1.6 2.2-2.4 0.4-0.4 0.8-0.9 1.2-1.3 0.8-0.9 1.7-1.7 2.5-2.6l0.9-0.9 1-1c0.6-0.6 1.3-1.2 1.9-1.8 0.4-0.4 0.8-0.7 1.2-1.1 0.6-0.5 1.2-1.1 1.8-1.6 0.4-0.4 0.8-0.7 1.2-1.1l1.8-1.5c0.4-0.3 0.8-0.7 1.3-1 0.6-0.5 1.2-0.9 1.8-1.4 0.4-0.3 0.8-0.6 1.3-0.9 0.6-0.5 1.2-0.9 1.9-1.3 0.4-0.3 0.8-0.6 1.2-0.8 0.7-0.5 1.4-0.9 2.1-1.4 0.3-0.2 0.7-0.4 1-0.7 1-0.6 2-1.3 3.1-1.9 1.4-0.8 2.8-1.6 4.2-2.3 0.4-0.2 0.7-0.4 1.1-0.5 1.3-0.6 2.6-1.3 4-1.8 0.1 0 0.2-0.1 0.3-0.1 1.2-0.5 2.4-1 3.6-1.4 0.4-0.1 0.7-0.2 1.1-0.3 0.9-0.3 1.7-0.6 2.6-0.8 0.5-0.1 1-0.3 1.5-0.4 0.5-0.1 1-0.2 1.4-0.3 0.5-0.1 1.1-0.2 1.6-0.3 0.5-0.1 0.9-0.2 1.4-0.3 0.6-0.1 1.3-0.2 1.9-0.3 0.3 0 0.6-0.1 0.9-0.1 0.9-0.1 1.8-0.2 2.7-0.2H666.4c0.5 0 1 0.1 1.5 0.1 1.1 0.1 2.1 0.2 3.1 0.4 0.2 0 0.3 0 0.5 0.1 1.1 0.2 2.2 0.5 3.3 0.8l0.9 0.3c0.8 0.3 1.6 0.5 2.4 0.8 0.3 0.1 0.6 0.3 1 0.4 0.9 0.4 1.8 0.8 2.7 1.3 0.1 0.1 0.3 0.1 0.4 0.2l-15.9-9.2-0.1-0.1c-0.1-0.1-0.2-0.1-0.3-0.1-0.9-0.5-1.8-0.9-2.7-1.3-0.1-0.1-0.3-0.1-0.4-0.2-0.2-0.1-0.4-0.1-0.6-0.2-0.8-0.3-1.6-0.6-2.4-0.8-0.2-0.1-0.4-0.1-0.6-0.2-0.1 0-0.2 0-0.3-0.1-1.1-0.3-2.2-0.6-3.3-0.8h-0.5c-1-0.2-2.1-0.3-3.1-0.4-0.2 0-0.3 0-0.5-0.1H647h-0.1c-0.9 0-1.8 0.1-2.7 0.2-0.3 0-0.6 0.1-0.9 0.1-0.4 0.1-0.9 0.1-1.3 0.2-0.2 0-0.4 0.1-0.6 0.1-0.5 0.1-0.9 0.2-1.4 0.3-0.5 0.1-1.1 0.2-1.6 0.3-0.5 0.1-0.9 0.2-1.4 0.3-0.3 0.1-0.6 0.1-0.9 0.2-0.2 0.1-0.4 0.1-0.6 0.2-0.9 0.2-1.7 0.5-2.6 0.8-0.4 0.1-0.7 0.2-1.1 0.3-1.2 0.4-2.4 0.9-3.6 1.4h-0.1c-0.1 0-0.2 0.1-0.2 0.1-1.3 0.5-2.6 1.2-3.9 1.8-0.4 0.2-0.7 0.4-1.1 0.5-1.4 0.7-2.8 1.5-4.2 2.3-1 0.6-2 1.2-3.1 1.9-0.3 0.2-0.7 0.4-1 0.7-0.7 0.4-1.4 0.9-2.1 1.4-0.4 0.3-0.8 0.6-1.2 0.8-0.6 0.4-1.3 0.9-1.9 1.3l-1.2 0.9c-0.6 0.5-1.2 0.9-1.8 1.4-0.4 0.3-0.8 0.7-1.3 1l-1.8 1.5c-0.4 0.3-0.8 0.7-1.2 1.1-0.6 0.5-1.2 1.1-1.8 1.6-0.4 0.4-0.8 0.7-1.2 1.1-0.6 0.6-1.3 1.2-1.9 1.8-0.3 0.3-0.7 0.6-1 1l-0.2 0.2c-0.2 0.2-0.5 0.5-0.7 0.8-0.8 0.8-1.7 1.7-2.5 2.6-0.4 0.4-0.8 0.9-1.2 1.3-0.7 0.8-1.5 1.6-2.2 2.4-0.2 0.3-0.5 0.5-0.7 0.7-0.2 0.3-0.5 0.6-0.7 0.8l-1.2 1.5c-0.5 0.6-1 1.3-1.6 1.9l-1.2 1.5c-0.2 0.3-0.4 0.5-0.6 0.8-0.2 0.2-0.3 0.4-0.5 0.6-1.3 1.8-2.7 3.5-4 5.4-1.2 1.7-2.3 3.4-3.4 5.1-0.1 0.2-0.3 0.4-0.4 0.6-0.2 0.3-0.3 0.5-0.5 0.8-0.9 1.4-1.7 2.8-2.5 4.2-0.2 0.3-0.3 0.5-0.5 0.8-0.1 0.2-0.3 0.4-0.4 0.6-0.9 1.6-1.8 3.1-2.6 4.7-0.1 0.1-0.1 0.2-0.2 0.4-0.2 0.3-0.3 0.6-0.5 0.9-0.7 1.3-1.4 2.7-2 4-0.1 0.3-0.3 0.6-0.4 0.8-0.1 0.3-0.2 0.5-0.4 0.8-0.7 1.4-1.3 2.9-2 4.3-0.1 0.2-0.2 0.5-0.3 0.7 0 0.1-0.1 0.1-0.1 0.2-0.8 1.8-1.5 3.6-2.2 5.3-0.1 0.2-0.1 0.3-0.2 0.5-0.1 0.3-0.2 0.6-0.3 0.8-0.6 1.6-1.2 3.1-1.7 4.7-0.1 0.3-0.2 0.5-0.3 0.8 0 0.1-0.1 0.2-0.1 0.3-0.7 2-1.3 4-1.8 6-0.1 0.2-0.1 0.4-0.2 0.5-0.1 0.5-0.2 0.9-0.4 1.4-0.2 0.6-0.3 1.2-0.5 1.8-0.2 0.8-0.4 1.5-0.5 2.3-0.1 0.6-0.3 1.2-0.4 1.8 0 0.2-0.1 0.4-0.1 0.6-0.1 0.4-0.1 0.8-0.2 1.1-0.2 1-0.4 1.9-0.5 2.9-0.1 0.6-0.2 1.1-0.3 1.7-0.1 0.9-0.3 1.8-0.4 2.7 0 0.3-0.1 0.7-0.1 1 0 0.2 0 0.4-0.1 0.7-0.1 1-0.2 2.1-0.3 3.1 0 0.4-0.1 0.9-0.1 1.3-0.1 1.4-0.2 2.9-0.3 4.3v0.4c0 1.3-0.1 2.5 0 3.8v1.3c0 0.9 0.1 1.9 0.1 2.8 0 0.5 0.1 1 0.1 1.5 0.1 0.9 0.1 1.7 0.2 2.6 0.1 0.5 0.1 0.9 0.2 1.4 0.1 1 0.3 1.9 0.4 2.8 0.1 0.3 0.1 0.7 0.2 1 0.2 1.2 0.5 2.4 0.8 3.6 0.1 0.3 0.1 0.5 0.2 0.8 0.2 0.9 0.5 1.8 0.8 2.7 0.1 0.4 0.3 0.8 0.4 1.2 0.3 0.7 0.5 1.5 0.8 2.2 0.2 0.4 0.3 0.8 0.5 1.2l0.9 2.1c0.2 0.3 0.3 0.7 0.5 1 0.4 0.8 0.9 1.6 1.3 2.4 0.1 0.2 0.2 0.3 0.3 0.5l1.8 2.7c0.2 0.2 0.4 0.5 0.6 0.7l1.5 1.8c0.3 0.3 0.5 0.6 0.8 0.8l1.5 1.5c0.3 0.3 0.6 0.5 0.9 0.8 0.5 0.5 1.1 0.9 1.7 1.4 0.3 0.2 0.5 0.4 0.8 0.6 0.9 0.6 1.7 1.2 2.7 1.7l15.9 9.2c-0.9-0.5-1.8-1.1-2.7-1.7-0.3-0.2-0.5-0.4-0.8-0.6-0.9-0.4-1.5-0.8-2.1-1.3z" fill="#C68620" /><path d="M634.5 453.5c17.2-10 34.5-12.4 47.7-4.8 23.2 13.2 26.1 52.7 8.6 93l37.2 21.2c5.1 2.9 5.1 12.5 0.1 21.3-2.5 4.4-5.9 7.8-9.2 9.7s-6.7 2.4-9.3 1l-37.2-21.2c-11.3 15.2-24.4 27.2-37.5 34.7-17.2 10-34.5 12.3-47.7 4.8-26.4-15-26.5-64.1-0.3-109.5 13.1-22.7 30.3-40.3 47.6-50.2z" fill="#FFCD2E" /><path d="M634.7 474.8c12.8-7.4 25.7-9.2 35.5-3.6 19.7 11.2 19.8 47.7 0.2 81.5-9.8 16.9-22.6 30-35.4 37.4-12.8 7.4-25.7 9.2-35.5 3.6-19.7-11.2-19.8-47.7-0.2-81.5 9.7-17 22.6-30 35.4-37.4z" fill="#FFFFFF" /><path d="M641.1 477.9c1.6-0.9 3.2-1.2 4.4-0.5 2.5 1.4 2.5 6 0 10.2-1.2 2.1-2.8 3.8-4.4 4.7-1.6 0.9-3.2 1.2-4.4 0.5-2.5-1.4-2.5-6 0-10.2 1.2-2.2 2.8-3.8 4.4-4.7zM645.8 502.3c0.9-0.5 1.9-0.7 2.6-0.3 1.4 0.8 1.4 3.5 0 5.9l-8.5 14.7 7.9-4.5c2-1.2 3.7-0.2 3.7 2.1 0 2.3-1.6 5.1-3.6 6.3l-9.4 5.4v5.6l9.4-5.4c2-1.2 3.7-0.2 3.7 2.1 0 2.3-1.6 5.1-3.6 6.3l-9.4 5.4v7.4c0 2.3-1.6 5.1-3.6 6.3-2 1.2-3.6 0.2-3.6-2.1v-7.4l-9.4 5.4c-2 1.2-3.6 0.2-3.7-2.1 0-2.3 1.6-5.1 3.6-6.3l9.4-5.4v-5.6l-9.4 5.4c-2 1.2-3.6 0.2-3.7-2.1 0-2.3 1.6-5.1 3.6-6.3l7.9-4.5-8.5-4.9c-1.4-0.8-1.4-3.5 0-5.9 0.7-1.2 1.6-2.2 2.6-2.7 0.9-0.5 1.9-0.7 2.6-0.3l8.5 4.8 8.5-14.6c0.6-1.2 1.5-2.2 2.4-2.7z" fill="#FFCD2E" /></svg>