<?xml version="1.0" encoding="utf-8"?>
<!-- Uploaded to: SVG Repo, www.svgrepo.com, Generator: SVG Repo Mixer Tools -->
<svg width="800px" height="800px" viewBox="0 0 1024 1024" class="icon"  version="1.1" xmlns="http://www.w3.org/2000/svg"><path d="M906.3 557.6c-1.1 11-11.2 16.5-19.8 21.5-8 4.6-16 9.3-23.9 13.9-12.8 7.4-25.5 14.8-38.3 22.2-16 9.3-31.9 18.6-47.9 27.8-17.6 10.2-35.2 20.5-52.9 30.7-17.7 10.3-35.4 20.6-53.2 30.9-16.3 9.5-32.5 18.9-48.8 28.4-13.3 7.7-26.5 15.4-39.8 23.1-8.7 5-17.4 10.1-26.1 15.1-6.6 3.8-12.8 7.6-20.3 9.8-19.5 5.6-41.1 3.7-58.7-6.5-6.3-3.7-12.7-7.3-19-11-11.6-6.7-23.1-13.3-34.7-20-15.2-8.8-30.4-17.6-45.6-26.3-17.3-10-34.7-20-52-30-17.9-10.3-35.8-20.7-53.7-31-16.9-9.8-33.8-19.5-50.8-29.3L177.6 602c-10.3-6-20.7-11.9-31-17.9-4.7-2.7-9.4-5.4-14.1-8.2-7.4-4.3-14.7-11.1-14.7-20.3 0 8.4 0 16.8-0.1 25.3 0 3-0.2 6.1 0 9.2 0.6 8.1 7 14.4 13.7 18.4 4.1 2.5 8.3 4.8 12.5 7.2 10.8 6.2 21.6 12.5 32.4 18.7 15.6 9 31.1 18 46.7 27 18.5 10.7 37.1 21.4 55.6 32.1 19.3 11.2 38.6 22.3 58 33.5 18.4 10.6 36.7 21.2 55.1 31.8 15.3 8.8 30.5 17.6 45.8 26.4 10.3 6 20.7 11.9 31 17.9 6 3.4 11.9 7.3 18.4 9.7 20.3 7.4 44.1 5.8 62.8-5.1 7.1-4.1 14.2-8.3 21.3-12.4 13.1-7.6 26.2-15.2 39.2-22.8 17.1-9.9 34.1-19.8 51.2-29.8 19.1-11.1 38.2-22.2 57.2-33.3l57.3-33.3c17.1-10 34.2-19.9 51.4-29.9 13.3-7.7 26.6-15.4 39.9-23.2 7.3-4.3 14.7-8.5 22-12.8 2.2-1.3 4.5-2.6 6.6-4.1 5.6-4.2 10-10 10.1-17.3 0.1-3.7 0-7.3 0-11 0-7.3 0-14.7 0.1-22 0.4 0.8 0.3 1.3 0.3 1.8-0.1 0.3 0-0.2 0 0zM906.4 556.1z" fill="#7A9EFD" /><path d="M892 536.1c19 11 19.1 28.9 0.2 39.9L547.9 776.1c-18.9 11-49.8 11-68.8 0L132.3 576c-19-11-19.1-28.9-0.2-39.9L476.5 336c18.9-11 49.8-11 68.8 0L892 536.1z" fill="#E4ECF9" /><path d="M442.7 237.7c1.6-0.9 3.2-1.3 4.5-0.9l3.5 1c1 0.2 20.7 4.5 51.6 1 30.1-3.9 58.7-19.5 60.2-20.3l5.4-3.1c4.2-2.4 7.5-0.5 7.5 4.3l0.4 142.5c0.2 76.1-85.5 206.5-131.9 233.3-46.4 26.8-132.5-4.5-132.8-80.5l-0.4-143.5c0-4.8 3.3-10.6 7.5-13l5.4-3.1c1.5-0.9 30.1-17.4 60.1-49.2 30.9-32.3 50.4-59.2 51.5-60.6l3.3-4.4c1.4-1.4 2.8-2.7 4.2-3.5z" fill="#4040FF" /><path d="M557.2 205.6s-0.1 0 0 0c-0.2-0.1-0.3-0.2-0.4-0.2-0.1-0.1-0.3-0.1-0.4-0.1-0.1 0-0.2 0-0.3-0.1h-0.1-0.1c-0.1 0-0.3 0-0.5-0.1h-0.7-0.4c-0.2 0-0.4 0.1-0.7 0.1-0.1 0-0.2 0.1-0.3 0.1-0.1 0-0.2 0.1-0.3 0.1-0.1 0-0.2 0.1-0.3 0.1-0.3 0.1-0.7 0.3-1.1 0.5l-5.4 3.1c-0.1 0.1-0.3 0.2-0.6 0.3 0 0-0.1 0-0.1 0.1-0.1 0.1-0.2 0.1-0.4 0.2-0.1 0-0.2 0.1-0.2 0.1-0.1 0.1-0.3 0.1-0.4 0.2-0.1 0-0.2 0.1-0.3 0.2-0.2 0.1-0.3 0.2-0.5 0.2-0.1 0.1-0.2 0.1-0.4 0.2s-0.3 0.2-0.5 0.3c-0.1 0.1-0.3 0.2-0.5 0.2l-0.6 0.3c-0.2 0.1-0.3 0.2-0.5 0.3l-0.6 0.3-0.6 0.3c-0.2 0.1-0.5 0.2-0.7 0.3l-0.6 0.3c-0.2 0.1-0.5 0.2-0.7 0.4-0.2 0.1-0.5 0.2-0.7 0.3-0.3 0.1-0.5 0.2-0.8 0.4-0.2 0.1-0.5 0.2-0.7 0.3-0.3 0.1-0.6 0.3-0.9 0.4-0.3 0.1-0.5 0.2-0.8 0.3-0.3 0.1-0.6 0.3-0.9 0.4-0.3 0.1-0.5 0.2-0.8 0.4-0.3 0.1-0.7 0.3-1 0.4-0.3 0.1-0.5 0.2-0.8 0.4-0.3 0.1-0.7 0.3-1.1 0.4-0.3 0.1-0.6 0.2-0.9 0.4-0.2 0.1-0.4 0.2-0.7 0.3-0.6 0.2-1.1 0.5-1.7 0.7-0.3 0.1-0.5 0.2-0.8 0.3-0.6 0.2-1.1 0.4-1.7 0.7-0.3 0.1-0.6 0.2-0.8 0.3-0.7 0.3-1.5 0.6-2.2 0.8-0.1 0-0.2 0.1-0.4 0.1-0.9 0.3-1.8 0.6-2.7 1-0.3 0.1-0.5 0.2-0.8 0.3-0.7 0.2-1.3 0.5-2 0.7-0.3 0.1-0.6 0.2-1 0.3-0.7 0.2-1.3 0.4-2 0.6l-0.9 0.3c-0.9 0.3-1.8 0.5-2.6 0.8-0.1 0-0.2 0.1-0.3 0.1-1 0.3-2 0.6-3 0.8-0.2 0.1-0.5 0.1-0.7 0.2-0.9 0.3-1.9 0.5-2.8 0.7-0.3 0.1-0.6 0.1-0.9 0.2-1.2 0.3-2.3 0.6-3.5 0.8-0.2 0-0.3 0.1-0.5 0.1-1 0.2-2.1 0.4-3.1 0.6-0.3 0.1-0.6 0.1-1 0.2l-3.6 0.6c-0.9 0.1-1.9 0.3-2.8 0.4-1.7 0.2-3.4 0.3-5.1 0.5-0.4 0-0.8 0.1-1.2 0.1-1.6 0.1-3.1 0.2-4.7 0.3h-0.1c-1.6 0.1-3.1 0.2-4.6 0.2h-0.9c-1.4 0-2.8 0.1-4.2 0.1H460.4c-1.3 0-2.5 0-3.7-0.1h-0.7c-1.2 0-2.3-0.1-3.3-0.1h-0.5c-0.9-0.1-1.8-0.1-2.7-0.2-0.3 0-0.5 0-0.8-0.1-1-0.1-1.9-0.2-2.8-0.2h-0.5c-0.7-0.1-1.4-0.1-2.1-0.2-0.2 0-0.5-0.1-0.7-0.1-0.7-0.1-1.3-0.2-1.9-0.2h-0.3c-0.7-0.1-1.3-0.2-1.8-0.3-0.2 0-0.3 0-0.5-0.1-0.4-0.1-0.8-0.1-1.2-0.2-0.1 0-0.2 0-0.3-0.1-0.4-0.1-0.8-0.1-1.1-0.2h-0.2c-0.2 0-0.5-0.1-0.6-0.1h-0.1c-0.2 0-0.3-0.1-0.3-0.1l-3.5-1c-0.1 0-0.3-0.1-0.4-0.1-0.1 0-0.3 0-0.5-0.1h-0.1-0.4c-0.2 0-0.4 0-0.6 0.1h-0.4c-0.1 0-0.2 0-0.3 0.1-0.2 0.1-0.4 0.1-0.6 0.2-0.1 0-0.2 0-0.2 0.1h-0.1c-0.4 0.1-0.7 0.3-1.1 0.5-0.4 0.2-0.8 0.5-1.2 0.8-0.1 0.1-0.2 0.2-0.4 0.3-0.3 0.2-0.5 0.4-0.8 0.7l-0.2 0.2-0.4 0.4-0.3 0.3-0.1 0.1c-0.2 0.2-0.4 0.5-0.6 0.7 0 0.1-0.1 0.1-0.1 0.2l-3.3 4.4c0 0.1-0.1 0.1-0.2 0.3v0.1c-0.1 0.1-0.2 0.2-0.3 0.4 0 0.1-0.1 0.1-0.1 0.2-0.1 0.1-0.2 0.3-0.3 0.4-0.1 0.1-0.1 0.2-0.2 0.3-0.2 0.3-0.4 0.5-0.6 0.8l-0.1 0.1c-0.2 0.3-0.4 0.6-0.7 0.9-0.1 0.1-0.2 0.3-0.3 0.4-0.2 0.3-0.4 0.5-0.6 0.8-0.1 0.2-0.2 0.3-0.4 0.5-0.2 0.3-0.5 0.6-0.7 1-0.1 0.2-0.2 0.3-0.4 0.5-0.4 0.5-0.8 1-1.2 1.6l-0.1 0.1c-0.5 0.7-1.1 1.4-1.7 2.2-0.1 0.1-0.2 0.3-0.4 0.4-0.6 0.8-1.3 1.6-1.9 2.5-0.1 0.2-0.3 0.4-0.4 0.6-0.7 0.9-1.4 1.8-2.2 2.8l-0.2 0.2c-0.7 0.9-1.5 1.9-2.3 2.9-0.2 0.2-0.3 0.4-0.5 0.6-0.8 1-1.7 2.1-2.6 3.1-0.2 0.2-0.4 0.4-0.5 0.7-0.9 1.1-1.9 2.3-2.9 3.5 0 0.1-0.1 0.1-0.1 0.2-1 1.1-2 2.3-3 3.5-0.2 0.2-0.4 0.4-0.6 0.7-1 1.2-2.1 2.4-3.2 3.7-0.2 0.2-0.4 0.4-0.5 0.6-1.5 1.7-3 3.4-4.5 5.2l-0.6 0.6c-1.6 1.8-3.2 3.6-4.9 5.4-0.2 0.2-0.3 0.4-0.5 0.6-1.7 1.9-3.5 3.8-5.3 5.8-0.1 0.1-0.2 0.3-0.4 0.4-1.9 2.1-3.9 4.2-6 6.3-1.1 1.2-2.3 2.4-3.4 3.5l-1 1c-0.8 0.8-1.6 1.7-2.5 2.5l-1.1 1.1c-0.4 0.4-0.8 0.7-1.1 1.1l-1.5 1.5c-0.4 0.4-0.8 0.7-1.1 1.1-0.5 0.5-1 1-1.5 1.4-0.4 0.4-0.7 0.7-1.1 1-0.5 0.5-1 0.9-1.5 1.4-0.4 0.3-0.7 0.7-1.1 1-0.5 0.5-1 0.9-1.5 1.3-0.4 0.3-0.7 0.6-1.1 1-0.5 0.5-1 0.9-1.5 1.4-0.3 0.3-0.7 0.6-1 0.9-0.6 0.5-1.1 1-1.7 1.4-0.3 0.2-0.5 0.5-0.8 0.7-1.6 1.4-3.2 2.7-4.8 4-0.3 0.2-0.5 0.4-0.8 0.7l-1.5 1.2c-0.3 0.2-0.6 0.5-0.9 0.7-0.5 0.4-0.9 0.7-1.3 1.1-0.3 0.2-0.6 0.5-0.9 0.7-0.4 0.3-0.8 0.7-1.3 1-0.3 0.2-0.6 0.5-0.9 0.7l-1.2 0.9c-0.3 0.2-0.6 0.5-0.9 0.7-0.4 0.3-0.8 0.6-1.1 0.8-0.3 0.2-0.6 0.4-0.9 0.7-0.4 0.3-0.7 0.6-1.1 0.8-0.3 0.2-0.5 0.4-0.8 0.6-0.4 0.3-0.7 0.5-1.1 0.8-0.3 0.2-0.5 0.4-0.8 0.5-0.4 0.3-0.8 0.5-1.1 0.8-0.2 0.1-0.4 0.3-0.6 0.4l-1.2 0.9c-0.1 0.1-0.3 0.2-0.5 0.3-0.5 0.4-1 0.7-1.5 1-0.1 0-0.1 0.1-0.2 0.1-0.5 0.3-0.9 0.6-1.4 0.9-0.2 0.1-0.3 0.2-0.5 0.3l-0.9 0.6c-0.2 0.1-0.4 0.2-0.6 0.4-0.2 0.2-0.5 0.3-0.7 0.5-0.2 0.1-0.3 0.2-0.5 0.3-0.2 0.1-0.5 0.3-0.7 0.4-0.2 0.1-0.3 0.2-0.5 0.3-0.2 0.1-0.4 0.3-0.6 0.4-0.1 0.1-0.3 0.2-0.4 0.3-0.2 0.1-0.3 0.2-0.5 0.3-0.1 0.1-0.3 0.2-0.4 0.3-0.1 0.1-0.3 0.2-0.4 0.3-0.1 0.1-0.2 0.1-0.3 0.2-0.1 0.1-0.3 0.2-0.4 0.2-0.1 0.1-0.2 0.1-0.3 0.2-0.1 0.1-0.2 0.1-0.3 0.2-0.1 0-0.2 0.1-0.2 0.1-0.1 0-0.1 0.1-0.1 0.1-0.2 0.1-0.3 0.2-0.4 0.2l-5.4 3.1c-0.5 0.3-1 0.6-1.4 1l-0.4 0.4c-0.2 0.2-0.4 0.4-0.7 0.6l-0.3 0.3c-0.1 0.1-0.2 0.2-0.2 0.3l-0.3 0.3c-0.2 0.2-0.4 0.5-0.6 0.7-0.1 0.1-0.1 0.2-0.2 0.3l-0.1 0.1c-0.1 0.1-0.1 0.2-0.2 0.3-0.1 0.2-0.3 0.4-0.4 0.7-0.1 0.2-0.3 0.4-0.4 0.6v0.2c-0.1 0.2-0.2 0.4-0.3 0.5l-0.3 0.6-0.3 0.6c-0.1 0.2-0.2 0.4-0.3 0.7-0.1 0.2-0.2 0.5-0.3 0.7 0 0.1-0.1 0.2-0.1 0.4v0.2c0 0.1-0.1 0.2-0.1 0.3-0.1 0.3-0.2 0.6-0.2 0.9 0 0.2-0.1 0.3-0.1 0.5v0.6c-0.1 0.5-0.1 1-0.1 1.5l0.4 143.5c0.1 35.8 19.2 61.7 44.3 76.2l16.2 9.4c-25.1-14.6-44.2-40.4-44.3-76.2l-0.4-143.5c0-0.6 0.1-1.1 0.1-1.7v-0.3c0.1-0.5 0.2-1.1 0.4-1.6v-0.2c0.2-0.6 0.4-1.2 0.7-1.8 0.3-0.6 0.6-1.2 0.9-1.7v-0.1c0.3-0.6 0.7-1.1 1-1.6l0.1-0.1c0.3-0.5 0.7-0.9 1.1-1.3 0.1-0.1 0.2-0.2 0.2-0.3l0.9-0.9 0.4-0.4c0.5-0.4 0.9-0.7 1.4-1l5.4-3.1c0.1 0 0.2-0.1 0.4-0.2 0.1 0 0.1-0.1 0.2-0.1s0.1-0.1 0.2-0.1c0.1-0.1 0.2-0.1 0.3-0.2 0.1 0 0.2-0.1 0.2-0.1 0.1-0.1 0.3-0.2 0.4-0.2 0.1-0.1 0.2-0.1 0.3-0.2 0.1-0.1 0.3-0.2 0.4-0.3 0.1-0.1 0.3-0.2 0.4-0.2 0.2-0.1 0.3-0.2 0.5-0.3 0.1-0.1 0.3-0.2 0.4-0.2 0.2-0.1 0.4-0.3 0.6-0.4 0.1-0.1 0.3-0.2 0.4-0.3 0.2-0.1 0.5-0.3 0.7-0.5 0.2-0.1 0.3-0.2 0.5-0.3 0.3-0.2 0.5-0.3 0.8-0.5 0.2-0.1 0.3-0.2 0.5-0.3 0.3-0.2 0.6-0.4 1-0.6 0.1-0.1 0.3-0.2 0.4-0.3 0.4-0.3 0.9-0.6 1.4-0.9 0.1 0 0.1-0.1 0.2-0.1 0.5-0.3 1-0.7 1.5-1 0.1-0.1 0.3-0.2 0.5-0.3l1.2-0.9c0.2-0.1 0.4-0.3 0.6-0.4 0.4-0.3 0.7-0.5 1.1-0.8 0.3-0.2 0.5-0.4 0.8-0.5 0.4-0.3 0.7-0.5 1.1-0.8 0.3-0.2 0.5-0.4 0.8-0.6 0.4-0.3 0.7-0.5 1.1-0.8 0.3-0.2 0.6-0.4 0.9-0.7 0.4-0.3 0.8-0.6 1.1-0.9 0.3-0.2 0.6-0.5 0.9-0.7l1.2-0.9c0.3-0.2 0.6-0.5 1-0.7 0.4-0.3 0.8-0.6 1.2-1 0.3-0.2 0.6-0.5 0.9-0.7 0.4-0.4 0.9-0.7 1.4-1.1 0.3-0.2 0.6-0.5 0.9-0.7l1.5-1.2c0.3-0.2 0.5-0.4 0.8-0.6 0.8-0.6 1.5-1.3 2.3-1.9h0.1c0.8-0.7 1.6-1.3 2.4-2 0.3-0.2 0.5-0.5 0.8-0.7 0.5-0.5 1.1-0.9 1.7-1.4 0.3-0.3 0.7-0.6 1-0.9 0.5-0.4 1-0.9 1.5-1.3 0.4-0.3 0.7-0.6 1.1-1 0.5-0.4 1-0.9 1.5-1.3 0.4-0.3 0.7-0.7 1.1-1 0.5-0.4 1-0.9 1.5-1.4 0.4-0.4 0.8-0.7 1.1-1.1 0.5-0.5 1-0.9 1.5-1.4 0.4-0.4 0.8-0.7 1.2-1.1l1.5-1.5c0.4-0.4 0.8-0.8 1.2-1.1l0.5-0.5 0.6-0.6c0.8-0.8 1.7-1.6 2.5-2.5l1-1c1.1-1.2 2.2-2.3 3.4-3.5l6-6.3c0.1-0.1 0.2-0.3 0.4-0.4 1.8-1.9 3.6-3.9 5.3-5.8 0.2-0.2 0.3-0.4 0.5-0.6 1.7-1.8 3.3-3.6 4.9-5.4l0.6-0.6c1.6-1.8 3.1-3.5 4.5-5.2l0.3-0.3 0.3-0.3c1.1-1.3 2.2-2.5 3.2-3.7 0.2-0.2 0.4-0.4 0.6-0.7l3-3.6 0.1-0.1c1-1.2 2-2.4 2.9-3.5 0.2-0.2 0.3-0.4 0.5-0.6 0.9-1.1 1.8-2.1 2.6-3.2 0.1-0.2 0.3-0.4 0.4-0.5 0.8-1 1.6-2 2.4-2.9 0-0.1 0.1-0.1 0.1-0.2 0.8-1 1.5-1.9 2.2-2.8 0.1-0.2 0.3-0.4 0.4-0.5 0.7-0.9 1.3-1.7 2-2.5 0.1-0.1 0.2-0.3 0.3-0.4 0.6-0.8 1.2-1.5 1.7-2.2 0 0 0-0.1 0.1-0.1 0.4-0.5 0.8-1.1 1.2-1.6 0.1-0.2 0.3-0.3 0.4-0.5 0.3-0.3 0.5-0.7 0.7-1 0.1-0.2 0.2-0.3 0.3-0.4 0.2-0.3 0.5-0.6 0.7-0.9 0.1-0.1 0.1-0.2 0.2-0.3 0.6-0.8 1.1-1.4 1.4-1.9 0.1-0.1 0.1-0.2 0.2-0.3 0.1-0.2 0.2-0.3 0.3-0.5 0-0.1 0.1-0.1 0.1-0.2 0.1-0.2 0.2-0.3 0.3-0.4v-0.1c0.1-0.1 0.2-0.2 0.2-0.3l3.3-4.4c0.3-0.4 0.6-0.7 0.9-1.1l0.3-0.3 0.6-0.6c0.3-0.2 0.5-0.5 0.8-0.7 0.1-0.1 0.2-0.2 0.4-0.3 0.4-0.3 0.8-0.6 1.2-0.8 0.4-0.2 0.8-0.4 1.1-0.6 0.1 0 0.2-0.1 0.2-0.1l0.9-0.3h0.2c0.3-0.1 0.7-0.1 1-0.1h0.1c0.3 0 0.7 0.1 1 0.2l3.5 1c0.1 0 0.2 0 0.3 0.1h0.1c0.2 0 0.4 0.1 0.6 0.1h0.2c0.3 0.1 0.6 0.1 0.9 0.2h0.2c0.1 0 0.2 0 0.3 0.1 0.4 0.1 0.7 0.1 1.2 0.2 0.1 0 0.3 0 0.4 0.1l1.8 0.3h0.3c0.6 0.1 1.2 0.2 1.9 0.2 0.2 0 0.4 0.1 0.7 0.1 0.7 0.1 1.4 0.2 2.1 0.2h0.4c0.9 0.1 1.8 0.2 2.8 0.2 0.2 0 0.5 0 0.8 0.1 0.4 0 0.8 0.1 1.3 0.1s0.9 0.1 1.4 0.1h0.5c1.1 0.1 2.2 0.1 3.3 0.1h0.7c1.2 0 2.4 0.1 3.7 0.1h4.8c1.4 0 2.7-0.1 4.2-0.1h2c1.1 0 2.3-0.1 3.5-0.2h0.2c1.5-0.1 3.1-0.2 4.6-0.3 0.4 0 0.8-0.1 1.2-0.1 1.7-0.1 3.3-0.3 5.1-0.5 2.2-0.3 4.3-0.6 6.4-1 0.3-0.1 0.6-0.1 1-0.2 1-0.2 2.1-0.4 3.1-0.6 0.2 0 0.3-0.1 0.5-0.1 1.2-0.3 2.3-0.5 3.5-0.8 0.3-0.1 0.6-0.1 0.9-0.2 0.9-0.2 1.9-0.5 2.8-0.7 0.2 0 0.3-0.1 0.5-0.1 0.1 0 0.2 0 0.3-0.1 1-0.3 2-0.6 3-0.8 0.1 0 0.2-0.1 0.3-0.1 0.9-0.3 1.8-0.5 2.6-0.8l0.9-0.3c0.7-0.2 1.3-0.4 2-0.6 0.3-0.1 0.6-0.2 1-0.3 0.7-0.2 1.3-0.5 2-0.7 0.3-0.1 0.5-0.2 0.8-0.3 0.9-0.3 1.8-0.6 2.7-1 0.1 0 0.3-0.1 0.4-0.1 0.7-0.3 1.5-0.6 2.2-0.8 0.3-0.1 0.6-0.2 0.8-0.3 0.6-0.2 1.1-0.4 1.7-0.7 0.3-0.1 0.6-0.2 0.8-0.3 0.6-0.2 1.2-0.5 1.7-0.7 0.2-0.1 0.3-0.1 0.5-0.2 0.1 0 0.1-0.1 0.2-0.1 0.3-0.1 0.6-0.2 0.9-0.4 0.4-0.1 0.7-0.3 1.1-0.4 0.3-0.1 0.5-0.2 0.8-0.4 0.3-0.1 0.7-0.3 1-0.4 0.3-0.1 0.5-0.2 0.8-0.4 0.3-0.1 0.6-0.3 0.9-0.4 0.3-0.1 0.5-0.2 0.8-0.3 0.3-0.1 0.6-0.3 0.9-0.4 0.2-0.1 0.5-0.2 0.7-0.3 0.3-0.1 0.5-0.2 0.8-0.4 0.2-0.1 0.5-0.2 0.7-0.3 0.3-0.1 0.5-0.2 0.7-0.3l0.6-0.3c0.2-0.1 0.5-0.2 0.7-0.3l0.6-0.3 0.6-0.3c0.2-0.1 0.3-0.2 0.5-0.3l0.6-0.3c0.2-0.1 0.3-0.2 0.5-0.2 0.2-0.1 0.3-0.2 0.5-0.3 0.1-0.1 0.3-0.1 0.4-0.2 0.2-0.1 0.3-0.2 0.5-0.2 0.1-0.1 0.2-0.1 0.3-0.2 0.1-0.1 0.2-0.1 0.3-0.2 0.1-0.1 0.2-0.1 0.3-0.2 0.1-0.1 0.2-0.1 0.3-0.2 0.1 0 0.1-0.1 0.2-0.1 0.3-0.2 0.5-0.3 0.6-0.3l5.4-3.1c0.5-0.3 0.9-0.5 1.4-0.6 0.1 0 0.2-0.1 0.3-0.1l1.2-0.3h0.1c0.4 0 0.8 0 1.2 0.1h0.1c0.4 0.1 0.8 0.2 1.1 0.4l-15.7-9.9z" fill="#2A2ABC" /><path d="M446.4 318.8c3-1.7 5.1 0.6 4 4.4L435 377.7l26.9-15.5c3.4-2 5.5 1.2 3.6 5.6l-61.6 140.1c-0.3 0.8-0.8 1.3-1.3 1.6-0.9 0.5-1.8 0.1-1.6-1.3l19.5-88-21.2 12.3c-3 1.8-5.1-0.6-4-4.5l26.4-91.7c0.6-2.3 2.2-4.4 4-5.4l20.7-12.1z" fill="#2828CE" /><path d="M417.2 521.1c-0.1-0.2-0.1-0.5-0.1-0.8v-0.2l-11.8-6.8v0.2c0 0.3 0 0.6 0.1 0.8 0.1 0.2 0.2 0.4 0.3 0.4l11.8 6.8c-0.1 0-0.2-0.2-0.3-0.4zM436.6 432.2l-11.7-6.9-19.5 88 11.8 6.8zM479.1 373.8c0.2-0.1 0.5-0.1 0.7-0.2H480.6c0.2 0 0.4 0.1 0.6 0.2l-11.8-6.8c-0.1 0-0.1-0.1-0.2-0.1s-0.1-0.1-0.2-0.1h-0.1-0.7-0.1H467.8c-0.1 0-0.2 0-0.4 0.1-0.1 0-0.1 0-0.2 0.1 0 0-0.1 0-0.1 0.1-0.1 0-0.1 0-0.2 0.1l-0.6 0.3-26.9 15.5 11.8 6.8 26.9-15.5c0.3-0.2 0.5-0.3 0.8-0.4 0.1-0.1 0.1-0.1 0.2-0.1z" fill="#ACC5EA" /><path d="M462.6 330.8c3-1.7 5.1 0.6 4 4.4l-15.4 54.5 26.9-15.5c3.4-2 5.5 1.2 3.6 5.6L420 519.9c-0.3 0.8-0.8 1.3-1.3 1.6-0.9 0.5-1.8 0.1-1.6-1.3l19.5-88-21.2 12.3c-3 1.8-5.1-0.6-4-4.5l26.4-91.7c0.6-2.3 2.2-4.4 4-5.4l20.8-12.1z" fill="#FFFFFF" /><path d="M411.5 443.8c-0.1-0.2-0.2-0.4-0.3-0.7 0-0.1-0.1-0.3-0.1-0.4 0-0.3-0.1-0.5-0.1-0.8v-0.5c0-0.5 0.1-0.9 0.3-1.4l-11.8-6.8v0.1c0 0.2-0.1 0.3-0.1 0.5s-0.1 0.4-0.1 0.6v0.7c0 0.3 0 0.6 0.1 0.8 0 0.1 0 0.3 0.1 0.4 0.1 0.3 0.2 0.5 0.3 0.7 0.1 0.1 0.1 0.2 0.1 0.3 0.2 0.3 0.4 0.5 0.7 0.6l11.8 6.8c-0.3-0.2-0.5-0.4-0.7-0.6-0.1-0.1-0.1-0.2-0.2-0.3zM453.9 323.6s-0.1 0 0 0c-0.1-0.1-0.2-0.1-0.2-0.1-0.1 0-0.1-0.1-0.2-0.1h-0.1-0.7-0.1H452.3c-0.1 0-0.2 0-0.4 0.1-0.1 0-0.1 0-0.2 0.1 0 0-0.1 0-0.2 0.1-0.1 0-0.1 0-0.2 0.1l-0.6 0.3L430 336c-0.4 0.2-0.8 0.5-1.2 0.9-0.1 0-0.1 0.1-0.2 0.1l-0.1 0.1-0.5 0.5c-0.1 0.1-0.2 0.3-0.3 0.4 0 0.1-0.1 0.1-0.1 0.2v0.1c0 0.1-0.1 0.1-0.1 0.2-0.1 0.1-0.2 0.2-0.2 0.4-0.1 0.1-0.1 0.2-0.2 0.4-0.1 0.1-0.1 0.2-0.2 0.4 0 0.1-0.1 0.1-0.1 0.2 0 0 0 0.1-0.1 0.1-0.1 0.1-0.1 0.2-0.2 0.4-0.1 0.1-0.1 0.3-0.2 0.4-0.1 0.1-0.1 0.3-0.1 0.4 0 0.1-0.1 0.2-0.1 0.4l-26.4 91.7 11.8 6.8 26.4-91.7c0.2-0.6 0.4-1.1 0.6-1.6l0.9-1.5v-0.1c0.3-0.4 0.7-0.8 1.1-1.2 0.1 0 0.1-0.1 0.2-0.1l1.2-0.9 20.8-12c0.3-0.2 0.5-0.3 0.8-0.4 0.1 0 0.1 0 0.1-0.1 0.2-0.1 0.5-0.1 0.7-0.2H465.1c0.2 0 0.4 0.1 0.6 0.2l-11.8-6.9z" fill="#ACC5EA" /><path d="M642.9 551.4l-15.9-9.3 37.2 21.2 15.8 9.3z" fill="#9E7F1D" /><path d="M534.1 619.2c-0.3-0.3-0.6-0.5-0.9-0.8l-1.5-1.5-0.8-0.8-1.5-1.8c-0.2-0.2-0.4-0.5-0.6-0.7-0.6-0.9-1.3-1.7-1.8-2.7-0.1-0.2-0.2-0.3-0.3-0.5-0.5-0.8-0.9-1.6-1.3-2.4-0.2-0.3-0.3-0.7-0.5-1l-0.9-2.1c-0.2-0.4-0.3-0.8-0.5-1.2-0.3-0.7-0.5-1.4-0.8-2.2-0.1-0.4-0.3-0.8-0.4-1.2-0.3-0.9-0.5-1.8-0.8-2.7-0.1-0.3-0.1-0.5-0.2-0.8-0.3-1.2-0.6-2.4-0.8-3.6-0.1-0.3-0.1-0.6-0.2-1-0.2-0.9-0.3-1.9-0.4-2.8-0.1-0.5-0.1-0.9-0.2-1.4-0.1-0.9-0.2-1.7-0.2-2.6 0-0.5-0.1-1-0.1-1.5-0.1-0.9-0.1-1.8-0.1-2.8v-1.4-3.7-0.5c0.1-1.4 0.1-2.9 0.3-4.3 0-0.4 0.1-0.9 0.1-1.3 0.1-1 0.2-2.1 0.3-3.1 0.1-0.6 0.1-1.1 0.2-1.7 0.1-0.9 0.3-1.8 0.4-2.7 0.1-0.6 0.2-1.1 0.3-1.7 0.2-0.9 0.4-1.9 0.5-2.9 0.1-0.6 0.2-1.1 0.4-1.7 0.1-0.6 0.3-1.2 0.4-1.7 0.2-0.8 0.4-1.5 0.5-2.3 0.2-0.6 0.3-1.2 0.5-1.8 0.2-0.6 0.3-1.3 0.5-1.9l1.8-6c0.1-0.4 0.3-0.8 0.4-1.2 0.5-1.6 1.1-3.1 1.7-4.7 0.2-0.4 0.3-0.9 0.5-1.3 0.7-1.8 1.4-3.5 2.2-5.3 0.1-0.3 0.3-0.6 0.4-0.9 0.6-1.4 1.3-2.9 2-4.3 0.3-0.5 0.5-1.1 0.8-1.6 0.6-1.3 1.3-2.7 2-4 0.2-0.4 0.4-0.9 0.7-1.3 0.8-1.6 1.7-3.2 2.6-4.7 0.3-0.5 0.6-1 0.9-1.4 0.8-1.4 1.7-2.8 2.5-4.2 0.3-0.5 0.6-1 0.9-1.4 1.1-1.8 2.3-3.5 3.5-5.2 1.3-1.8 2.6-3.6 4-5.4 0.4-0.5 0.7-0.9 1.1-1.4l1.2-1.5c0.5-0.6 1-1.3 1.6-1.9 0.4-0.5 0.8-1 1.3-1.5s0.9-1.1 1.4-1.6c0.7-0.8 1.5-1.6 2.2-2.4 0.4-0.4 0.8-0.9 1.2-1.3 0.8-0.9 1.7-1.7 2.5-2.6l0.9-0.9 1-1c0.6-0.6 1.3-1.2 1.9-1.8 0.4-0.4 0.8-0.7 1.2-1.1 0.6-0.5 1.2-1.1 1.8-1.6 0.4-0.4 0.8-0.7 1.2-1.1l1.8-1.5c0.4-0.3 0.8-0.7 1.3-1 0.6-0.5 1.2-0.9 1.8-1.4 0.4-0.3 0.8-0.6 1.3-0.9 0.6-0.5 1.2-0.9 1.9-1.3 0.4-0.3 0.8-0.6 1.2-0.8 0.7-0.5 1.4-0.9 2.1-1.4 0.3-0.2 0.7-0.4 1-0.7 1-0.6 2-1.3 3.1-1.9 1.4-0.8 2.8-1.6 4.2-2.3 0.4-0.2 0.7-0.4 1.1-0.5 1.3-0.6 2.6-1.3 4-1.8 0.1 0 0.2-0.1 0.3-0.1 1.2-0.5 2.4-1 3.6-1.4 0.4-0.1 0.7-0.2 1.1-0.3 0.9-0.3 1.7-0.6 2.6-0.8 0.5-0.1 1-0.3 1.5-0.4 0.5-0.1 1-0.2 1.4-0.3 0.5-0.1 1.1-0.2 1.6-0.3 0.5-0.1 0.9-0.2 1.4-0.3 0.6-0.1 1.3-0.2 1.9-0.3 0.3 0 0.6-0.1 0.9-0.1 0.9-0.1 1.8-0.2 2.7-0.2H618.5c0.5 0 1 0.1 1.5 0.1 1.1 0.1 2.1 0.2 3.1 0.4 0.2 0 0.3 0 0.5 0.1 1.1 0.2 2.2 0.5 3.3 0.8l0.9 0.3c0.8 0.3 1.6 0.5 2.4 0.8 0.3 0.1 0.6 0.3 1 0.4 0.9 0.4 1.8 0.8 2.7 1.3 0.1 0.1 0.3 0.1 0.4 0.2l-15.9-9.2-0.1-0.1c-0.1-0.1-0.2-0.1-0.3-0.1-0.9-0.5-1.8-0.9-2.7-1.3-0.1-0.1-0.3-0.1-0.4-0.2-0.2-0.1-0.4-0.1-0.6-0.2-0.8-0.3-1.6-0.6-2.4-0.8-0.2-0.1-0.4-0.1-0.6-0.2-0.1 0-0.2 0-0.3-0.1-1.1-0.3-2.2-0.6-3.3-0.8h-0.5c-1-0.2-2.1-0.3-3.1-0.4-0.2 0-0.3 0-0.5-0.1h-4.5-0.1c-0.9 0-1.8 0.1-2.7 0.2-0.3 0-0.6 0.1-0.9 0.1-0.4 0.1-0.9 0.1-1.3 0.2-0.2 0-0.4 0.1-0.6 0.1-0.5 0.1-0.9 0.2-1.4 0.3-0.5 0.1-1.1 0.2-1.6 0.3-0.5 0.1-0.9 0.2-1.4 0.3-0.3 0.1-0.6 0.1-0.9 0.2-0.2 0.1-0.4 0.1-0.6 0.2-0.9 0.2-1.7 0.5-2.6 0.8-0.4 0.1-0.7 0.2-1.1 0.3-1.2 0.4-2.4 0.9-3.6 1.4h-0.1c-0.1 0-0.2 0.1-0.2 0.1-1.3 0.5-2.6 1.2-3.9 1.8-0.4 0.2-0.7 0.4-1.1 0.5-1.4 0.7-2.8 1.5-4.2 2.3-1 0.6-2 1.2-3.1 1.9-0.3 0.2-0.7 0.4-1 0.7-0.7 0.4-1.4 0.9-2.1 1.4-0.4 0.3-0.8 0.6-1.2 0.8-0.6 0.4-1.3 0.9-1.9 1.3l-1.2 0.9c-0.6 0.5-1.2 0.9-1.8 1.4-0.4 0.3-0.8 0.7-1.3 1l-1.8 1.5c-0.4 0.3-0.8 0.7-1.2 1.1-0.6 0.5-1.2 1.1-1.8 1.6-0.4 0.4-0.8 0.7-1.2 1.1-0.6 0.6-1.3 1.2-1.9 1.8-0.3 0.3-0.7 0.6-1 1l-0.2 0.2c-0.2 0.2-0.5 0.5-0.7 0.8-0.8 0.8-1.7 1.7-2.5 2.6-0.4 0.4-0.8 0.9-1.2 1.3-0.7 0.8-1.5 1.6-2.2 2.4-0.2 0.3-0.5 0.5-0.7 0.7-0.2 0.3-0.5 0.6-0.7 0.8l-1.2 1.5c-0.5 0.6-1 1.3-1.6 1.9l-1.2 1.5c-0.2 0.3-0.4 0.5-0.6 0.8-0.2 0.2-0.3 0.4-0.5 0.6-1.3 1.8-2.7 3.5-4 5.4-1.2 1.7-2.3 3.4-3.4 5.1-0.1 0.2-0.3 0.4-0.4 0.6-0.2 0.3-0.3 0.5-0.5 0.8-0.9 1.4-1.7 2.8-2.5 4.2-0.2 0.3-0.3 0.5-0.5 0.8-0.1 0.2-0.3 0.4-0.4 0.6-0.9 1.6-1.8 3.1-2.6 4.7-0.1 0.1-0.1 0.2-0.2 0.4-0.2 0.3-0.3 0.6-0.5 0.9-0.7 1.3-1.4 2.7-2 4-0.1 0.3-0.3 0.6-0.4 0.8-0.1 0.3-0.2 0.5-0.4 0.8-0.7 1.4-1.3 2.9-2 4.3-0.1 0.2-0.2 0.5-0.3 0.7 0 0.1-0.1 0.1-0.1 0.2-0.8 1.8-1.5 3.6-2.2 5.3-0.1 0.2-0.1 0.3-0.2 0.5-0.1 0.3-0.2 0.6-0.3 0.8-0.6 1.6-1.2 3.1-1.7 4.7-0.1 0.3-0.2 0.5-0.3 0.8 0 0.1-0.1 0.2-0.1 0.3-0.7 2-1.3 4-1.8 6-0.1 0.2-0.1 0.4-0.2 0.5-0.1 0.5-0.2 0.9-0.4 1.4-0.2 0.6-0.3 1.2-0.5 1.8-0.2 0.8-0.4 1.5-0.5 2.3-0.1 0.6-0.3 1.2-0.4 1.8 0 0.2-0.1 0.4-0.1 0.6-0.1 0.4-0.1 0.8-0.2 1.1-0.2 1-0.4 1.9-0.5 2.9-0.1 0.6-0.2 1.1-0.3 1.7-0.1 0.9-0.3 1.8-0.4 2.7 0 0.3-0.1 0.7-0.1 1 0 0.2 0 0.4-0.1 0.7-0.1 1-0.2 2.1-0.3 3.1 0 0.4-0.1 0.9-0.1 1.3-0.1 1.4-0.2 2.9-0.3 4.3v0.4c0 1.3-0.1 2.5 0 3.8v1.3c0 0.9 0.1 1.9 0.1 2.8 0 0.5 0.1 1 0.1 1.5 0.1 0.9 0.1 1.7 0.2 2.6 0.1 0.5 0.1 0.9 0.2 1.4 0.1 1 0.3 1.9 0.4 2.8 0.1 0.3 0.1 0.7 0.2 1 0.2 1.2 0.5 2.4 0.8 3.6 0.1 0.3 0.1 0.5 0.2 0.8 0.2 0.9 0.5 1.8 0.8 2.7 0.1 0.4 0.3 0.8 0.4 1.2 0.3 0.7 0.5 1.5 0.8 2.2 0.2 0.4 0.3 0.8 0.5 1.2l0.9 2.1c0.2 0.3 0.3 0.7 0.5 1 0.4 0.8 0.9 1.6 1.3 2.4 0.1 0.2 0.2 0.3 0.3 0.5l1.8 2.7c0.2 0.2 0.4 0.5 0.6 0.7l1.5 1.8c0.3 0.3 0.5 0.6 0.8 0.8l1.5 1.5c0.3 0.3 0.6 0.5 0.9 0.8 0.5 0.5 1.1 0.9 1.7 1.4 0.3 0.2 0.5 0.4 0.8 0.6 0.9 0.6 1.7 1.2 2.7 1.7l15.9 9.2c-0.9-0.5-1.8-1.1-2.7-1.7-0.3-0.2-0.5-0.4-0.8-0.6-1-0.4-1.5-0.8-2.1-1.3z" fill="#C68620" /><path d="M586.5 463.2c17.2-10 34.5-12.4 47.7-4.8 23.2 13.2 26.1 52.7 8.6 93l37.2 21.2c5.1 2.9 5.1 12.5 0.1 21.3-2.5 4.4-5.9 7.8-9.2 9.7-3.4 1.9-6.7 2.4-9.3 1l-37.2-21.2c-11.3 15.2-24.4 27.2-37.5 34.7-17.2 10-34.5 12.3-47.7 4.8-26.4-15-26.5-64.1-0.3-109.5 13.2-22.7 30.4-40.2 47.6-50.2z" fill="#FFCD2E" /><path d="M586.8 484.5c12.8-7.4 25.7-9.2 35.5-3.6 19.7 11.2 19.8 47.7 0.2 81.5-9.8 16.9-22.6 30-35.4 37.4-12.8 7.4-25.7 9.2-35.5 3.6-19.7-11.2-19.8-47.7-0.2-81.5 9.7-17 22.5-30 35.4-37.4z" fill="#FFFFFF" /><path d="M593.2 487.6c1.6-0.9 3.2-1.2 4.4-0.5 2.5 1.4 2.5 6 0 10.2-1.2 2.1-2.8 3.8-4.4 4.7-1.6 0.9-3.2 1.2-4.4 0.5-2.5-1.4-2.5-6 0-10.2 1.2-2.2 2.8-3.8 4.4-4.7z" fill="#FFCD2E" /><path d="M642.9 551.4l-15.9-9.3 37.2 21.2 15.8 9.3z" fill="#9E7F1D" /><path d="M534.1 619.2c-0.3-0.3-0.6-0.5-0.9-0.8l-1.5-1.5-0.8-0.8-1.5-1.8c-0.2-0.2-0.4-0.5-0.6-0.7-0.6-0.9-1.3-1.7-1.8-2.7-0.1-0.2-0.2-0.3-0.3-0.5-0.5-0.8-0.9-1.6-1.3-2.4-0.2-0.3-0.3-0.7-0.5-1l-0.9-2.1c-0.2-0.4-0.3-0.8-0.5-1.2-0.3-0.7-0.5-1.4-0.8-2.2-0.1-0.4-0.3-0.8-0.4-1.2-0.3-0.9-0.5-1.8-0.8-2.7-0.1-0.3-0.1-0.5-0.2-0.8-0.3-1.2-0.6-2.4-0.8-3.6-0.1-0.3-0.1-0.6-0.2-1-0.2-0.9-0.3-1.9-0.4-2.8-0.1-0.5-0.1-0.9-0.2-1.4-0.1-0.9-0.2-1.7-0.2-2.6 0-0.5-0.1-1-0.1-1.5-0.1-0.9-0.1-1.8-0.1-2.8v-1.4-3.7-0.5c0.1-1.4 0.1-2.9 0.3-4.3 0-0.4 0.1-0.9 0.1-1.3 0.1-1 0.2-2.1 0.3-3.1 0.1-0.6 0.1-1.1 0.2-1.7 0.1-0.9 0.3-1.8 0.4-2.7 0.1-0.6 0.2-1.1 0.3-1.7 0.2-0.9 0.4-1.9 0.5-2.9 0.1-0.6 0.2-1.1 0.4-1.7 0.1-0.6 0.3-1.2 0.4-1.7 0.2-0.8 0.4-1.5 0.5-2.3 0.2-0.6 0.3-1.2 0.5-1.8 0.2-0.6 0.3-1.3 0.5-1.9l1.8-6c0.1-0.4 0.3-0.8 0.4-1.2 0.5-1.6 1.1-3.1 1.7-4.7 0.2-0.4 0.3-0.9 0.5-1.3 0.7-1.8 1.4-3.5 2.2-5.3 0.1-0.3 0.3-0.6 0.4-0.9 0.6-1.4 1.3-2.9 2-4.3 0.3-0.5 0.5-1.1 0.8-1.6 0.6-1.3 1.3-2.7 2-4 0.2-0.4 0.4-0.9 0.7-1.3 0.8-1.6 1.7-3.2 2.6-4.7 0.3-0.5 0.6-1 0.9-1.4 0.8-1.4 1.7-2.8 2.5-4.2 0.3-0.5 0.6-1 0.9-1.4 1.1-1.8 2.3-3.5 3.5-5.2 1.3-1.8 2.6-3.6 4-5.4 0.4-0.5 0.7-0.9 1.1-1.4l1.2-1.5c0.5-0.6 1-1.3 1.6-1.9 0.4-0.5 0.8-1 1.3-1.5s0.9-1.1 1.4-1.6c0.7-0.8 1.5-1.6 2.2-2.4 0.4-0.4 0.8-0.9 1.2-1.3 0.8-0.9 1.7-1.7 2.5-2.6l0.9-0.9 1-1c0.6-0.6 1.3-1.2 1.9-1.8 0.4-0.4 0.8-0.7 1.2-1.1 0.6-0.5 1.2-1.1 1.8-1.6 0.4-0.4 0.8-0.7 1.2-1.1l1.8-1.5c0.4-0.3 0.8-0.7 1.3-1 0.6-0.5 1.2-0.9 1.8-1.4 0.4-0.3 0.8-0.6 1.3-0.9 0.6-0.5 1.2-0.9 1.9-1.3 0.4-0.3 0.8-0.6 1.2-0.8 0.7-0.5 1.4-0.9 2.1-1.4 0.3-0.2 0.7-0.4 1-0.7 1-0.6 2-1.3 3.1-1.9 1.4-0.8 2.8-1.6 4.2-2.3 0.4-0.2 0.7-0.4 1.1-0.5 1.3-0.6 2.6-1.3 4-1.8 0.1 0 0.2-0.1 0.3-0.1 1.2-0.5 2.4-1 3.6-1.4 0.4-0.1 0.7-0.2 1.1-0.3 0.9-0.3 1.7-0.6 2.6-0.8 0.5-0.1 1-0.3 1.5-0.4 0.5-0.1 1-0.2 1.4-0.3 0.5-0.1 1.1-0.2 1.6-0.3 0.5-0.1 0.9-0.2 1.4-0.3 0.6-0.1 1.3-0.2 1.9-0.3 0.3 0 0.6-0.1 0.9-0.1 0.9-0.1 1.8-0.2 2.7-0.2H618.5c0.5 0 1 0.1 1.5 0.1 1.1 0.1 2.1 0.2 3.1 0.4 0.2 0 0.3 0 0.5 0.1 1.1 0.2 2.2 0.5 3.3 0.8l0.9 0.3c0.8 0.3 1.6 0.5 2.4 0.8 0.3 0.1 0.6 0.3 1 0.4 0.9 0.4 1.8 0.8 2.7 1.3 0.1 0.1 0.3 0.1 0.4 0.2l-15.9-9.2-0.1-0.1c-0.1-0.1-0.2-0.1-0.3-0.1-0.9-0.5-1.8-0.9-2.7-1.3-0.1-0.1-0.3-0.1-0.4-0.2-0.2-0.1-0.4-0.1-0.6-0.2-0.8-0.3-1.6-0.6-2.4-0.8-0.2-0.1-0.4-0.1-0.6-0.2-0.1 0-0.2 0-0.3-0.1-1.1-0.3-2.2-0.6-3.3-0.8h-0.5c-1-0.2-2.1-0.3-3.1-0.4-0.2 0-0.3 0-0.5-0.1h-4.5-0.1c-0.9 0-1.8 0.1-2.7 0.2-0.3 0-0.6 0.1-0.9 0.1-0.4 0.1-0.9 0.1-1.3 0.2-0.2 0-0.4 0.1-0.6 0.1-0.5 0.1-0.9 0.2-1.4 0.3-0.5 0.1-1.1 0.2-1.6 0.3-0.5 0.1-0.9 0.2-1.4 0.3-0.3 0.1-0.6 0.1-0.9 0.2-0.2 0.1-0.4 0.1-0.6 0.2-0.9 0.2-1.7 0.5-2.6 0.8-0.4 0.1-0.7 0.2-1.1 0.3-1.2 0.4-2.4 0.9-3.6 1.4h-0.1c-0.1 0-0.2 0.1-0.2 0.1-1.3 0.5-2.6 1.2-3.9 1.8-0.4 0.2-0.7 0.4-1.1 0.5-1.4 0.7-2.8 1.5-4.2 2.3-1 0.6-2 1.2-3.1 1.9-0.3 0.2-0.7 0.4-1 0.7-0.7 0.4-1.4 0.9-2.1 1.4-0.4 0.3-0.8 0.6-1.2 0.8-0.6 0.4-1.3 0.9-1.9 1.3l-1.2 0.9c-0.6 0.5-1.2 0.9-1.8 1.4-0.4 0.3-0.8 0.7-1.3 1l-1.8 1.5c-0.4 0.3-0.8 0.7-1.2 1.1-0.6 0.5-1.2 1.1-1.8 1.6-0.4 0.4-0.8 0.7-1.2 1.1-0.6 0.6-1.3 1.2-1.9 1.8-0.3 0.3-0.7 0.6-1 1l-0.2 0.2c-0.2 0.2-0.5 0.5-0.7 0.8-0.8 0.8-1.7 1.7-2.5 2.6-0.4 0.4-0.8 0.9-1.2 1.3-0.7 0.8-1.5 1.6-2.2 2.4-0.2 0.3-0.5 0.5-0.7 0.7-0.2 0.3-0.5 0.6-0.7 0.8l-1.2 1.5c-0.5 0.6-1 1.3-1.6 1.9l-1.2 1.5c-0.2 0.3-0.4 0.5-0.6 0.8-0.2 0.2-0.3 0.4-0.5 0.6-1.3 1.8-2.7 3.5-4 5.4-1.2 1.7-2.3 3.4-3.4 5.1-0.1 0.2-0.3 0.4-0.4 0.6-0.2 0.3-0.3 0.5-0.5 0.8-0.9 1.4-1.7 2.8-2.5 4.2-0.2 0.3-0.3 0.5-0.5 0.8-0.1 0.2-0.3 0.4-0.4 0.6-0.9 1.6-1.8 3.1-2.6 4.7-0.1 0.1-0.1 0.2-0.2 0.4-0.2 0.3-0.3 0.6-0.5 0.9-0.7 1.3-1.4 2.7-2 4-0.1 0.3-0.3 0.6-0.4 0.8-0.1 0.3-0.2 0.5-0.4 0.8-0.7 1.4-1.3 2.9-2 4.3-0.1 0.2-0.2 0.5-0.3 0.7 0 0.1-0.1 0.1-0.1 0.2-0.8 1.8-1.5 3.6-2.2 5.3-0.1 0.2-0.1 0.3-0.2 0.5-0.1 0.3-0.2 0.6-0.3 0.8-0.6 1.6-1.2 3.1-1.7 4.7-0.1 0.3-0.2 0.5-0.3 0.8 0 0.1-0.1 0.2-0.1 0.3-0.7 2-1.3 4-1.8 6-0.1 0.2-0.1 0.4-0.2 0.5-0.1 0.5-0.2 0.9-0.4 1.4-0.2 0.6-0.3 1.2-0.5 1.8-0.2 0.8-0.4 1.5-0.5 2.3-0.1 0.6-0.3 1.2-0.4 1.8 0 0.2-0.1 0.4-0.1 0.6-0.1 0.4-0.1 0.8-0.2 1.1-0.2 1-0.4 1.9-0.5 2.9-0.1 0.6-0.2 1.1-0.3 1.7-0.1 0.9-0.3 1.8-0.4 2.7 0 0.3-0.1 0.7-0.1 1 0 0.2 0 0.4-0.1 0.7-0.1 1-0.2 2.1-0.3 3.1 0 0.4-0.1 0.9-0.1 1.3-0.1 1.4-0.2 2.9-0.3 4.3v0.4c0 1.3-0.1 2.5 0 3.8v1.3c0 0.9 0.1 1.9 0.1 2.8 0 0.5 0.1 1 0.1 1.5 0.1 0.9 0.1 1.7 0.2 2.6 0.1 0.5 0.1 0.9 0.2 1.4 0.1 1 0.3 1.9 0.4 2.8 0.1 0.3 0.1 0.7 0.2 1 0.2 1.2 0.5 2.4 0.8 3.6 0.1 0.3 0.1 0.5 0.2 0.8 0.2 0.9 0.5 1.8 0.8 2.7 0.1 0.4 0.3 0.8 0.4 1.2 0.3 0.7 0.5 1.5 0.8 2.2 0.2 0.4 0.3 0.8 0.5 1.2l0.9 2.1c0.2 0.3 0.3 0.7 0.5 1 0.4 0.8 0.9 1.6 1.3 2.4 0.1 0.2 0.2 0.3 0.3 0.5l1.8 2.7c0.2 0.2 0.4 0.5 0.6 0.7l1.5 1.8c0.3 0.3 0.5 0.6 0.8 0.8l1.5 1.5c0.3 0.3 0.6 0.5 0.9 0.8 0.5 0.5 1.1 0.9 1.7 1.4 0.3 0.2 0.5 0.4 0.8 0.6 0.9 0.6 1.7 1.2 2.7 1.7l15.9 9.2c-0.9-0.5-1.8-1.1-2.7-1.7-0.3-0.2-0.5-0.4-0.8-0.6-1-0.4-1.5-0.8-2.1-1.3z" fill="#C68620" /><path d="M586.5 463.2c17.2-10 34.5-12.4 47.7-4.8 23.2 13.2 26.1 52.7 8.6 93l37.2 21.2c5.1 2.9 5.1 12.5 0.1 21.3-2.5 4.4-5.9 7.8-9.2 9.7-3.4 1.9-6.7 2.4-9.3 1l-37.2-21.2c-11.3 15.2-24.4 27.2-37.5 34.7-17.2 10-34.5 12.3-47.7 4.8-26.4-15-26.5-64.1-0.3-109.5 13.2-22.7 30.4-40.2 47.6-50.2z" fill="#FFCD2E" /><path d="M586.8 484.5c12.8-7.4 25.7-9.2 35.5-3.6 19.7 11.2 19.8 47.7 0.2 81.5-9.8 16.9-22.6 30-35.4 37.4-12.8 7.4-25.7 9.2-35.5 3.6-19.7-11.2-19.8-47.7-0.2-81.5 9.7-17 22.5-30 35.4-37.4z" fill="#FFFFFF" /><path d="M593.2 487.6c1.6-0.9 3.2-1.2 4.4-0.5 2.5 1.4 2.5 6 0 10.2-1.2 2.1-2.8 3.8-4.4 4.7-1.6 0.9-3.2 1.2-4.4 0.5-2.5-1.4-2.5-6 0-10.2 1.2-2.2 2.8-3.8 4.4-4.7z" fill="#FFCD2E" /></svg>