<?xml version="1.0" encoding="utf-8"?>
<!-- Uploaded to: SVG Repo, www.svgrepo.com, Generator: SVG Repo Mixer Tools -->
<svg width="800px" height="800px" viewBox="0 0 1024 1024" class="icon"  version="1.1" xmlns="http://www.w3.org/2000/svg"><path d="M906.3 583.4c-1.1 11-11.2 16.5-19.8 21.5-8 4.6-16 9.3-23.9 13.9-12.8 7.4-25.5 14.8-38.3 22.2-16 9.3-31.9 18.6-47.9 27.8-17.6 10.2-35.2 20.5-52.9 30.7-17.7 10.3-35.4 20.6-53.2 30.9-16.3 9.5-32.5 18.9-48.8 28.4-13.3 7.7-26.5 15.4-39.8 23.1-8.7 5-17.4 10.1-26.1 15.1-6.6 3.8-12.8 7.6-20.3 9.8-19.5 5.6-41.1 3.7-58.7-6.5-6.3-3.7-12.7-7.3-19-11-11.6-6.7-23.1-13.3-34.7-20-15.2-8.8-30.4-17.6-45.6-26.3-17.3-10-34.7-20-52-30-17.9-10.3-35.8-20.7-53.7-31-16.9-9.8-33.8-19.5-50.8-29.3l-43.2-24.9c-10.3-6-20.7-11.9-31-17.9-4.7-2.7-9.4-5.4-14.1-8.2-7.4-4.3-14.7-11.1-14.7-20.3 0 8.4 0 16.8-0.1 25.3 0 3-0.2 6.1 0 9.2 0.6 8.1 7 14.4 13.7 18.4 4.1 2.5 8.3 4.8 12.5 7.2 10.8 6.2 21.6 12.5 32.4 18.7 15.6 9 31.1 18 46.7 27 18.5 10.7 37.1 21.4 55.6 32.1 19.3 11.2 38.6 22.3 58 33.5 18.4 10.6 36.7 21.2 55.1 31.8 15.3 8.8 30.5 17.6 45.8 26.4 10.3 6 20.7 11.9 31 17.9 6 3.4 11.9 7.3 18.4 9.7 20.3 7.4 44.1 5.8 62.8-5.1 7.1-4.1 14.2-8.3 21.3-12.4 13.1-7.6 26.2-15.2 39.2-22.8 17.1-9.9 34.1-19.8 51.2-29.8 19.1-11.1 38.2-22.2 57.2-33.3l57.3-33.3c17.1-10 34.2-19.9 51.4-29.9 13.3-7.7 26.6-15.4 39.9-23.2 7.3-4.3 14.7-8.5 22-12.8 2.2-1.3 4.5-2.6 6.6-4.1 5.6-4.2 10-10 10.1-17.3 0.1-3.7 0-7.3 0-11 0-7.3 0-14.7 0.1-22 0.4 0.8 0.3 1.3 0.3 1.8-0.1 0.3 0-0.2 0 0z" fill="#7A9EFD" /><path d="M892 561.9c19 11 19.1 28.9 0.2 39.9L547.9 801.9c-18.9 11-49.8 11-68.8 0L132.3 601.8c-19-11-19.1-28.9-0.2-39.9l344.4-200.2c18.9-11 49.8-11 68.8 0L892 561.9z" fill="#E4ECF9" /><path d="M297.6 491.2c0-0.3 0.1-0.6 0.1-0.9 0-0.2 0.1-0.4 0.1-0.6 0-0.2 0.1-0.4 0.1-0.5 0.1-0.3 0.1-0.5 0.2-0.8 0-0.1 0.1-0.3 0.1-0.4l0.3-0.9c0-0.1 0.1-0.2 0.1-0.4 0.1-0.4 0.3-0.8 0.5-1.2 0 0 0-0.1 0.1-0.1 0.2-0.4 0.3-0.7 0.5-1 0.1-0.1 0.1-0.2 0.2-0.3 0.2-0.3 0.3-0.6 0.5-1 0-0.1 0.1-0.1 0.1-0.2 0.2-0.4 0.4-0.7 0.7-1.1 0.1-0.1 0.1-0.2 0.2-0.3 0.2-0.3 0.3-0.5 0.5-0.8 0.1-0.1 0.2-0.3 0.3-0.4 0.2-0.2 0.3-0.4 0.5-0.6 0.1-0.2 0.3-0.3 0.4-0.5 0.1-0.2 0.3-0.3 0.4-0.5 0.2-0.3 0.5-0.5 0.7-0.8l0.4-0.4c0.5-0.5 1-0.9 1.5-1.3 0.1-0.1 0.2-0.1 0.3-0.2 0.5-0.4 1.1-0.8 1.7-1.1 0.4-0.3 0.9-0.5 1.3-0.6 0.1-0.1 0.3-0.1 0.4-0.2 0.3-0.1 0.5-0.2 0.8-0.3 0.2 0 0.3-0.1 0.5-0.1 0.1 0 0.3-0.1 0.4-0.1 0.2 0 0.4-0.1 0.6-0.1h1.2c0.3 0 0.5 0.1 0.8 0.1h0.2c0.2 0 0.4 0.1 0.6 0.2 0.1 0 0.1 0 0.2 0.1 0.2 0.1 0.5 0.2 0.7 0.3l-14.8-8.6h-0.1c-0.2-0.1-0.4-0.2-0.5-0.3h-0.1c-0.1 0-0.1 0-0.2-0.1-0.1 0-0.2-0.1-0.3-0.1-0.1 0-0.2 0-0.3-0.1H299.2c-0.2 0-0.4-0.1-0.6-0.1h-1.5c-0.1 0-0.2 0-0.3 0.1-0.1 0-0.3 0.1-0.4 0.1-0.1 0-0.2 0-0.2 0.1-0.1 0-0.2 0.1-0.2 0.1-0.2 0.1-0.5 0.2-0.8 0.3-0.1 0-0.2 0.1-0.3 0.1 0 0-0.1 0.1-0.2 0.1-0.4 0.2-0.9 0.4-1.3 0.7-0.6 0.3-1.1 0.7-1.6 1.1-0.1 0.1-0.2 0.1-0.3 0.2-0.5 0.4-1 0.9-1.5 1.3l-0.1 0.1-0.2 0.2c-0.2 0.2-0.5 0.5-0.7 0.8l-0.2 0.2-0.2 0.2c-0.1 0.2-0.3 0.3-0.4 0.5l-0.3 0.3c-0.1 0.1-0.1 0.2-0.2 0.3-0.1 0.1-0.2 0.3-0.3 0.4-0.1 0.1-0.1 0.2-0.2 0.3-0.1 0.2-0.2 0.3-0.3 0.5-0.1 0.1-0.1 0.2-0.2 0.3l-0.1 0.1-0.6 0.9v0.1c0 0.1-0.1 0.1-0.1 0.2-0.1 0.2-0.2 0.4-0.4 0.7-0.1 0.1-0.1 0.2-0.2 0.3-0.1 0.1-0.1 0.2-0.2 0.3 0 0.1-0.1 0.2-0.1 0.3-0.1 0.3-0.2 0.5-0.3 0.8 0 0 0 0.1-0.1 0.1-0.1 0.3-0.3 0.6-0.4 1 0 0.1 0 0.1-0.1 0.2 0 0.1-0.1 0.2-0.1 0.4-0.1 0.2-0.1 0.3-0.2 0.5 0 0.1-0.1 0.3-0.1 0.4 0 0.1-0.1 0.3-0.1 0.4 0 0.1-0.1 0.2-0.1 0.3 0 0.2-0.1 0.3-0.1 0.5s-0.1 0.4-0.1 0.5v0.2c0 0.1 0 0.3-0.1 0.4-0.1 0.3-0.1 0.6-0.1 0.9v0.4c-0.1 0.6-0.1 1.3-0.1 1.9 0 3.4 1.2 5.8 3.1 6.9l14.8 8.6c-1.9-1.1-3.1-3.5-3.1-6.9 0-0.6 0-1.2 0.1-1.9-0.4-0.2-0.4-0.4-0.3-0.5z" fill="#ACC5EA" /><path d="M330.1 473.6c0.1 0 0.3-0.1 0.4-0.1 0.1 0 0.2-0.1 0.3-0.1 0.2 0 0.3-0.1 0.4-0.1h1c0.2 0 0.4 0 0.6 0.1h0.2c0.2 0 0.3 0.1 0.5 0.1 0 0 0.1 0 0.1 0.1l0.6 0.3-14.8-8.6c-0.1-0.1-0.3-0.1-0.4-0.2h-0.1s-0.1 0-0.1-0.1c-0.1 0-0.1-0.1-0.2-0.1s-0.2 0-0.2-0.1H318.1c-0.2 0-0.3 0-0.5-0.1h-1.3c-0.1 0-0.2 0-0.3 0.1h-0.2c-0.1 0-0.1 0-0.2 0.1-0.2 0.1-0.4 0.1-0.6 0.2-0.1 0-0.1 0-0.2 0.1 0 0-0.1 0-0.1 0.1-0.3 0.1-0.7 0.3-1 0.5l-9.4 5.4 14.8 8.6 9.4-5.4c0.4-0.2 0.7-0.4 1-0.5 0.1 0 0.2-0.1 0.3-0.1-0.1-0.1 0.1-0.1 0.3-0.2z" fill="#2A2ABC" /><path d="M300.5 500.5l-14.8-8.6h0.1l14.7 8.6" fill="#28289E" /><path d="M300.6 500.6l-14.8-8.6c0.2 0.1 0.4 0.2 0.5 0.3l14.8 8.6c-0.2-0.2-0.4-0.2-0.5-0.3" fill="#2929A3" /><path d="M301.1 500.8l-14.8-8.6c0.2 0.1 0.4 0.1 0.6 0.2l14.8 8.6c-0.2 0-0.4-0.1-0.6-0.2" fill="#2A2AA8" /><path d="M301.7 501l-14.8-8.6c0.2 0.1 0.4 0.1 0.6 0.1l14.8 8.6c-0.2 0-0.4 0-0.6-0.1" fill="#2C2CAD" /><path d="M302.3 501.2l-14.8-8.6c0.2 0 0.4 0.1 0.6 0.1l14.8 8.6c-0.2-0.1-0.4-0.1-0.6-0.1" fill="#2D2DB3" /><path d="M302.9 501.2l-14.8-8.6h0.7l14.8 8.6h-0.7" fill="#2E2EB8" /><path d="M303.6 501.2l-14.8-8.6c0.3 0 0.5 0 0.8-0.1l14.8 8.6c-0.3 0.1-0.5 0.1-0.8 0.1" fill="#2F2FBD" /><path d="M304.4 501.2l-14.8-8.6c0.3 0 0.6-0.1 0.9-0.2l14.8 8.6c-0.3 0-0.6 0.1-0.9 0.2" fill="#3131C2" /><path d="M305.3 501l-14.8-8.6c0.4-0.1 0.8-0.3 1.3-0.4l14.8 8.6c-0.4 0.1-0.8 0.2-1.3 0.4" fill="#3232C7" /><path d="M306.6 500.5l-14.8-8.6c0.5-0.2 1-0.5 1.5-0.7 1.3-0.7 2.5-1.7 3.6-2.8l14.8 8.6c-1.1 1.1-2.3 2-3.6 2.8-0.5 0.3-1 0.5-1.5 0.7" fill="#3333CC" /><path d="M311.7 497l-14.8-8.6 1.2-1.2 14.8 8.6-1.2 1.2" fill="#3232C7" /><path d="M312.9 495.8l-14.8-8.6c0.3-0.3 0.6-0.7 0.9-1.1l14.8 8.6c-0.4 0.4-0.7 0.7-0.9 1.1" fill="#3131C2" /><path d="M313.7 494.7l-14.8-8.6c0.2-0.3 0.5-0.6 0.7-1l14.8 8.6c-0.2 0.4-0.4 0.7-0.7 1" fill="#2F2FBD" /><path d="M314.4 493.7l-14.8-8.6 0.6-0.9 14.8 8.6c-0.1 0.3-0.4 0.6-0.6 0.9" fill="#2E2EB8" /><path d="M315.1 492.8l-14.8-8.6 0.6-0.9 14.8 8.6c-0.3 0.3-0.5 0.6-0.6 0.9" fill="#2D2DB3" /><path d="M315.6 491.9l-14.8-8.6c0.2-0.3 0.3-0.6 0.5-0.9l14.8 8.6c-0.2 0.3-0.3 0.6-0.5 0.9" fill="#2C2CAD" /><path d="M316.1 491l-14.8-8.6c0.2-0.3 0.3-0.6 0.5-0.9l14.8 8.6c-0.2 0.3-0.3 0.6-0.5 0.9" fill="#2A2AA8" /><path d="M316.6 490.1l-14.8-8.6c0.1-0.3 0.3-0.6 0.4-0.9l14.8 8.6c-0.1 0.3-0.3 0.6-0.4 0.9" fill="#2929A3" /><path d="M317 489.2l-14.8-8.6c0.1-0.3 0.3-0.6 0.4-1l14.8 8.6c-0.1 0.3-0.3 0.6-0.4 1" fill="#28289E" /><path d="M317.4 488.2l-14.8-8.6c0.1-0.3 0.3-0.7 0.4-1l14.8 8.6c-0.2 0.3-0.3 0.7-0.4 1" fill="#262699" /><path d="M317.7 487.2l-14.8-8.6c0.1-0.4 0.2-0.7 0.3-1.1l14.8 8.6c0 0.4-0.1 0.7-0.3 1.1" fill="#252594" /><path d="M318.1 486.1l-14.8-8.6 0.3-1.2 14.8 8.6-0.3 1.2" fill="#24248F" /><path d="M318.4 484.9l-14.8-8.6 0.3-1.5 14.8 8.6-0.3 1.5" fill="#23238A" /><path d="M318.6 483.4l-14.8-8.6c0.1-0.7 0.1-1.4 0.1-2.1 0-0.5 0-0.9-0.1-1.4l14.8 8.6c0 0.5 0.1 0.9 0.1 1.4 0.1 0.7 0 1.4-0.1 2.1" fill="#212185" /><path d="M282.6 483.6l-9.4 5.4c-0.5 0.3-1.1 0.7-1.6 1.1-0.2 0.1-0.3 0.3-0.5 0.4-0.2 0.2-0.5 0.4-0.7 0.6l-0.3 0.3-0.3 0.3-0.3 0.3c-0.2 0.3-0.5 0.5-0.7 0.8-0.1 0.1-0.2 0.2-0.2 0.3 0 0.1-0.1 0.1-0.1 0.2-0.1 0.1-0.1 0.2-0.2 0.3-0.2 0.2-0.3 0.5-0.5 0.7-0.2 0.2-0.3 0.5-0.4 0.7v0.2l-0.3 0.6c-0.1 0.2-0.2 0.5-0.4 0.7l-0.3 0.6c-0.1 0.3-0.2 0.5-0.3 0.8-0.1 0.3-0.2 0.5-0.3 0.8 0 0.1-0.1 0.3-0.1 0.4 0 0.1 0 0.1-0.1 0.2 0 0.1-0.1 0.2-0.1 0.3-0.1 0.3-0.2 0.6-0.2 1 0 0.2-0.1 0.4-0.1 0.6 0 0.1 0 0.2-0.1 0.3v0.3c-0.1 0.6-0.1 1.1-0.1 1.6l0.4 124.5c0 2.6 1 4.5 2.5 5.4l14.8 8.6c-1.5-0.9-2.5-2.7-2.5-5.4l-0.4-124.5c0-0.6 0.1-1.3 0.2-1.9 0-0.1 0-0.2 0.1-0.3 0.1-0.6 0.2-1.2 0.4-1.8 0-0.1 0-0.1 0.1-0.2 0.2-0.7 0.4-1.3 0.7-2 0.3-0.7 0.6-1.3 1-2v-0.1l1.2-1.8c0-0.1 0.1-0.1 0.1-0.2l1.2-1.5 0.3-0.3c0.3-0.4 0.7-0.7 1.1-1 0.2-0.1 0.3-0.3 0.5-0.4 0.5-0.4 1-0.8 1.6-1.1l9.4-5.4-15.1-8.4z" fill="#2A2ABC" /><path d="M328.1 474.5c4.6-2.7 8.4-0.5 8.5 4.8l0.4 124.5c0 5.3-3.8 11.9-8.4 14.5l-40.1 23.1c-4.6 2.7-8.4 0.5-8.5-4.8l-0.4-124.5c0-5.3 3.8-11.9 8.4-14.5l9.4-5.4c0 0.5-0.1 1-0.1 1.5 0 6.8 4.8 9.5 10.7 6.1 5.9-3.4 10.7-11.7 10.7-18.5 0-0.5 0-0.9-0.1-1.4l9.5-5.4z" fill="#4040FF" /><path d="M306.6 469.1l9.3 5.3-18.3 17.9-4-2.3 9.1-20.9z" fill="#ACC5EA" /><path d="M308.1 475c5.9-3.4 10.7-0.7 10.7 6.1s-4.8 15.1-10.7 18.5c-5.9 3.4-10.7 0.7-10.7-6.1s4.7-15 10.7-18.5z" fill="#FFFFFF" /><path d="M424.6 361.7c0.2-0.1 0.4-0.1 0.6-0.2 0.1 0 0.3-0.1 0.4-0.1 0.1 0 0.2-0.1 0.3-0.1 0.2 0 0.3-0.1 0.4-0.1h1c0.2 0 0.4 0 0.6 0.1h0.2c0.2 0 0.3 0.1 0.5 0.1 0 0 0.1 0 0.1 0.1l0.6 0.3-14.8-8.6c-0.1-0.1-0.3-0.1-0.4-0.2h-0.1s-0.1 0-0.1-0.1c-0.1 0-0.1-0.1-0.2-0.1s-0.2 0-0.2-0.1H413.2c-0.2 0-0.3 0-0.5-0.1h-1.3c-0.1 0-0.2 0-0.3 0.1h-0.2c-0.1 0-0.1 0-0.2 0.1-0.2 0.1-0.4 0.1-0.6 0.2-0.1 0-0.1 0-0.2 0.1 0 0-0.1 0-0.1 0.1-0.3 0.1-0.7 0.3-1 0.5l-9.3 5.4 14.8 8.6 9.3-5.4c0.4-0.2 0.7-0.4 1-0.5-0.2 0-0.1-0.1 0-0.1z" fill="#2A2ABC" /><path d="M395.6 387l-14.8-8.6h0.1l14.7 8.6c0.1 0 0.1 0 0 0" fill="#28289E" /><path d="M395.7 387l-14.8-8.6c0.2 0.1 0.4 0.2 0.5 0.3l14.8 8.6c-0.1-0.1-0.3-0.2-0.5-0.3" fill="#2929A3" /><path d="M396.2 387.3l-14.8-8.6c0.2 0.1 0.4 0.1 0.6 0.2l14.8 8.6c-0.2-0.1-0.4-0.2-0.6-0.2" fill="#2A2AA8" /><path d="M396.8 387.5l-14.8-8.6c0.2 0.1 0.4 0.1 0.6 0.1l14.8 8.6c-0.2 0-0.4-0.1-0.6-0.1" fill="#2C2CAD" /><path d="M397.4 387.6l-14.8-8.6c0.2 0 0.4 0.1 0.6 0.1l14.8 8.6c-0.2 0-0.4-0.1-0.6-0.1" fill="#2D2DB3" /><path d="M398.1 387.7l-14.8-8.6h0.7l14.8 8.6h-0.7" fill="#2E2EB8" /><path d="M398.8 387.7l-14.8-8.6c0.3 0 0.5 0 0.8-0.1l14.8 8.6c-0.3 0-0.6 0.1-0.8 0.1" fill="#2F2FBD" /><path d="M399.6 387.6l-14.8-8.6c0.3 0 0.6-0.1 0.9-0.2l14.8 8.6c-0.3 0.1-0.6 0.1-0.9 0.2" fill="#3131C2" /><path d="M400.5 387.4l-14.8-8.6c0.4-0.1 0.8-0.3 1.3-0.4l14.8 8.6c-0.5 0.1-0.9 0.3-1.3 0.4" fill="#3232C7" /><path d="M401.8 387l-14.8-8.6c0.5-0.2 1-0.5 1.5-0.7 1.3-0.7 2.5-1.7 3.6-2.8l14.8 8.6c-1.1 1.1-2.3 2-3.6 2.8-0.5 0.2-1 0.5-1.5 0.7" fill="#3333CC" /><path d="M406.8 383.4l-14.8-8.6 1.2-1.2 14.8 8.6c-0.4 0.4-0.8 0.9-1.2 1.2" fill="#3232C7" /><path d="M408 382.2l-14.8-8.6c0.3-0.3 0.6-0.7 0.9-1.1l14.8 8.6c-0.3 0.4-0.6 0.8-0.9 1.1" fill="#3131C2" /><path d="M408.9 381.1l-14.8-8.6c0.2-0.3 0.5-0.6 0.7-1l14.8 8.6c-0.2 0.4-0.5 0.7-0.7 1" fill="#2F2FBD" /><path d="M409.6 380.2l-14.8-8.6 0.6-0.9 14.8 8.6-0.6 0.9" fill="#2E2EB8" /><path d="M410.2 379.3l-14.8-8.6 0.6-0.9 14.8 8.6-0.6 0.9" fill="#2D2DB3" /><path d="M410.8 378.4l-14.8-8.6c0.2-0.3 0.3-0.6 0.5-0.9l14.8 8.6c-0.2 0.3-0.4 0.6-0.5 0.9" fill="#2C2CAD" /><path d="M411.3 377.5l-14.8-8.6c0.2-0.3 0.3-0.6 0.5-0.9l14.8 8.6c-0.2 0.2-0.4 0.6-0.5 0.9" fill="#2A2AA8" /><path d="M411.7 376.5l-14.8-8.6c0.1-0.3 0.3-0.6 0.4-0.9l14.8 8.6c-0.1 0.3-0.2 0.6-0.4 0.9" fill="#2929A3" /><path d="M412.1 375.6l-14.8-8.6c0.1-0.3 0.3-0.6 0.4-1l14.8 8.6c-0.1 0.4-0.2 0.7-0.4 1" fill="#28289E" /><path d="M412.5 374.6l-14.8-8.6c0.1-0.3 0.3-0.7 0.4-1l14.8 8.6c-0.1 0.4-0.2 0.7-0.4 1" fill="#262699" /><path d="M412.9 373.6l-14.8-8.6c0.1-0.4 0.2-0.7 0.3-1.1l14.8 8.6c-0.1 0.4-0.2 0.8-0.3 1.1" fill="#252594" /><path d="M413.2 372.5l-14.8-8.6 0.3-1.2 14.8 8.6-0.3 1.2" fill="#24248F" /><path d="M413.5 371.3l-14.8-8.6 0.3-1.5 14.8 8.6-0.3 1.5" fill="#23238A" /><path d="M413.8 369.8l-14.8-8.6c0.1-0.7 0.1-1.4 0.1-2.1l14.8 8.6c0 0.7 0 1.4-0.1 2.1" fill="#212185" /><path d="M377.7 371.5l-9.3 5.4c-0.5 0.3-1.1 0.7-1.6 1.1-0.2 0.1-0.3 0.3-0.5 0.4-0.2 0.2-0.5 0.4-0.7 0.6-0.1 0.1-0.2 0.2-0.3 0.4l-0.3 0.3-0.3 0.3c-0.2 0.3-0.5 0.5-0.7 0.8-0.1 0.1-0.2 0.2-0.2 0.3 0 0.1-0.1 0.1-0.1 0.2-0.1 0.1-0.1 0.2-0.2 0.3-0.2 0.2-0.3 0.5-0.5 0.7-0.2 0.2-0.3 0.5-0.4 0.7v0.2l-0.3 0.6c-0.1 0.2-0.2 0.5-0.4 0.7l-0.3 0.6c-0.1 0.3-0.2 0.5-0.3 0.8-0.1 0.3-0.2 0.5-0.3 0.8 0 0.1-0.1 0.3-0.1 0.4 0 0.1 0 0.1-0.1 0.2 0 0.1-0.1 0.2-0.1 0.3-0.1 0.3-0.2 0.6-0.2 1 0 0.2-0.1 0.4-0.1 0.6 0 0.1 0 0.2-0.1 0.3v0.3c-0.1 0.6-0.1 1.1-0.1 1.6l0.6 198.2c0 2.6 0.9 4.5 2.5 5.4l14.8 8.6c-1.5-0.9-2.5-2.7-2.5-5.4l-9.9-5.7 9.9 5.7-0.8-198.2c0-0.6 0.1-1.3 0.2-1.9 0-0.1 0-0.2 0.1-0.3 0.1-0.6 0.2-1.2 0.4-1.8 0-0.1 0-0.1 0.1-0.2 0.2-0.7 0.4-1.3 0.7-2 0.3-0.7 0.6-1.3 1-2v-0.1l1.2-1.8c0-0.1 0.1-0.1 0.1-0.2l1.2-1.5 0.3-0.3c0.3-0.4 0.7-0.7 1.1-1 0.2-0.1 0.3-0.3 0.5-0.4 0.5-0.4 1-0.8 1.6-1.1l9.3-5.4-14.9-8.5z" fill="#2A2ABC" /><path d="M423.3 362.3c4.6-2.7 8.4-0.5 8.5 4.8l0.6 198.2c0 5.3-3.8 11.9-8.4 14.5L383.8 603c-4.6 2.7-8.4 0.5-8.5-4.8l-0.5-198.2c0-5.3 3.8-11.9 8.4-14.5l9.3-5.4c0 6.8 4.8 9.5 10.7 6.1 5.9-3.4 10.7-11.7 10.7-18.5l9.4-5.4z" fill="#4040FF" /><path d="M398.6 358.7l9.6 5.4-13.9 17.1-7.9-4.7z" fill="#ACC5EA" /><path d="M403.1 361.3c5.9-3.4 10.7-0.7 10.7 6.1s-4.8 15.1-10.7 18.5c-5.9 3.4-10.7 0.7-10.7-6.1 0.1-6.8 4.8-15.1 10.7-18.5z" fill="#FFFFFF" /><path d="M395.9 352l-0.6-0.3h-0.1c-0.1 0-0.1 0-0.2-0.1-0.1 0-0.2-0.1-0.3-0.1-0.1 0-0.2 0-0.3-0.1H394.1c-0.2 0-0.4-0.1-0.6-0.1H392c-0.1 0-0.2 0-0.3 0.1-0.1 0-0.3 0.1-0.4 0.1-0.1 0-0.2 0-0.2 0.1-0.1 0-0.2 0.1-0.2 0.1-0.2 0.1-0.5 0.2-0.8 0.3-0.1 0-0.2 0.1-0.3 0.1 0 0-0.1 0.1-0.2 0.1-0.4 0.2-0.9 0.4-1.3 0.7-0.6 0.3-1.1 0.7-1.7 1.1-0.1 0.1-0.2 0.1-0.3 0.2-0.5 0.4-1 0.9-1.5 1.3l-0.1 0.1-0.2 0.2c-0.2 0.2-0.5 0.5-0.7 0.8l-0.2 0.2-0.2 0.2c-0.1 0.2-0.3 0.3-0.4 0.5l-0.3 0.3c-0.1 0.1-0.1 0.2-0.2 0.3-0.1 0.1-0.2 0.3-0.3 0.4-0.1 0.1-0.1 0.2-0.2 0.3-0.1 0.2-0.2 0.3-0.3 0.5-0.1 0.1-0.1 0.2-0.2 0.3l-0.1 0.1-0.6 0.9v0.1c0 0.1-0.1 0.1-0.1 0.2-0.1 0.2-0.2 0.4-0.4 0.6-0.1 0.1-0.1 0.2-0.2 0.3-0.1 0.1-0.1 0.2-0.2 0.3 0 0.1-0.1 0.2-0.1 0.3-0.1 0.3-0.2 0.5-0.3 0.8 0 0 0 0.1-0.1 0.1-0.1 0.3-0.3 0.6-0.4 1 0 0.1 0 0.1-0.1 0.2 0 0.1-0.1 0.2-0.1 0.4-0.1 0.2-0.1 0.3-0.2 0.5 0 0.1-0.1 0.3-0.1 0.4 0 0.1-0.1 0.3-0.1 0.4 0 0.1-0.1 0.2-0.1 0.3 0 0.2-0.1 0.3-0.1 0.5s-0.1 0.4-0.1 0.5v0.2c0 0.1 0 0.3-0.1 0.4-0.1 0.3-0.1 0.6-0.1 0.9v0.4c-0.1 0.6-0.1 1.3-0.1 1.9v0.3l14.8 8.6v-0.3c0-0.6 0-1.2 0.1-1.9 0-0.2 0-0.3 0.1-0.5 0-0.3 0.1-0.6 0.1-0.9 0-0.2 0.1-0.4 0.1-0.6 0-0.2 0.1-0.4 0.1-0.5 0.1-0.3 0.1-0.5 0.2-0.8 0-0.1 0.1-0.3 0.1-0.4l0.3-0.9c0-0.1 0.1-0.2 0.1-0.4 0.1-0.4 0.3-0.8 0.5-1.2 0 0 0-0.1 0.1-0.1 0.2-0.3 0.3-0.7 0.5-1 0.1-0.1 0.1-0.2 0.2-0.3 0.2-0.3 0.3-0.6 0.5-1 0-0.1 0.1-0.1 0.1-0.2 0.2-0.4 0.4-0.7 0.7-1.1 0.1-0.1 0.1-0.2 0.2-0.3 0.2-0.3 0.4-0.5 0.5-0.8 0.1-0.1 0.2-0.3 0.3-0.4 0.2-0.2 0.3-0.4 0.5-0.6 0.1-0.2 0.3-0.3 0.4-0.5 0.1-0.2 0.3-0.3 0.4-0.5 0.2-0.3 0.5-0.5 0.7-0.8l0.4-0.4c0.5-0.5 1-0.9 1.5-1.3 0.1-0.1 0.2-0.1 0.3-0.2 0.5-0.4 1.1-0.8 1.7-1.1 0.5-0.3 0.9-0.5 1.3-0.7 0.1-0.1 0.3-0.1 0.4-0.2 0.3-0.1 0.5-0.2 0.8-0.3 0.2 0 0.3-0.1 0.5-0.1 0.1 0 0.3-0.1 0.4-0.1 0.2 0 0.4-0.1 0.6-0.1h1.2c0.3 0 0.5 0.1 0.8 0.1h0.2c0.2 0 0.4 0.1 0.6 0.2 0.1 0 0.1 0 0.2 0.1 0.2 0.1 0.5 0.2 0.7 0.3l-15.1-8.4z" fill="#ACC5EA" /><path d="M520 368.5c0.2-0.1 0.4-0.1 0.6-0.2 0.1 0 0.3-0.1 0.4-0.1 0.1 0 0.2-0.1 0.3-0.1 0.2 0 0.3-0.1 0.4-0.1h0.9c0.2 0 0.4 0 0.6 0.1h0.2c0.2 0 0.3 0.1 0.5 0.1 0 0 0.1 0 0.1 0.1l0.6 0.3-14.8-8.6c-0.1-0.1-0.3-0.1-0.4-0.2h-0.1s-0.1 0-0.1-0.1c-0.1 0-0.1-0.1-0.2-0.1s-0.2 0-0.2-0.1H508.5c-0.2 0-0.3 0-0.5-0.1h-1.3c-0.1 0-0.2 0-0.3 0.1h-0.2c-0.1 0-0.1 0-0.2 0.1-0.2 0.1-0.4 0.1-0.6 0.2-0.1 0-0.1 0-0.2 0.1 0 0-0.1 0-0.1 0.1-0.3 0.1-0.7 0.3-1 0.5l-9.3 5.4 14.8 8.6 9.3-5.4c0.4-0.2 0.7-0.4 1-0.5-0.1 0 0 0 0.1-0.1z" fill="#2A2ABC" /><path d="M491 393.8l-14.8-8.6h0.1l14.7 8.6" fill="#28289E" /><path d="M491 393.8l-14.8-8.6c0.2 0.1 0.4 0.2 0.5 0.3l14.8 8.6c-0.1-0.1-0.3-0.2-0.5-0.3" fill="#2929A3" /><path d="M491.6 394.1l-14.8-8.6c0.2 0.1 0.4 0.1 0.6 0.2l14.8 8.6c-0.3-0.1-0.4-0.2-0.6-0.2" fill="#2A2AA8" /><path d="M492.1 394.3l-14.8-8.6c0.2 0.1 0.4 0.1 0.6 0.1l14.8 8.6c-0.2 0-0.4-0.1-0.6-0.1" fill="#2C2CAD" /><path d="M492.7 394.4l-14.8-8.6c0.2 0 0.4 0.1 0.6 0.1l14.8 8.6c-0.1 0-0.4-0.1-0.6-0.1" fill="#2D2DB3" /><path d="M493.4 394.5l-14.8-8.6h0.7l14.8 8.6h-0.7" fill="#2E2EB8" /><path d="M494.1 394.5l-14.8-8.6c0.3 0 0.5 0 0.8-0.1l14.8 8.6c-0.3 0-0.5 0.1-0.8 0.1" fill="#2F2FBD" /><path d="M494.9 394.4l-14.8-8.6c0.3 0 0.6-0.1 0.9-0.2l14.8 8.6c-0.3 0.1-0.6 0.2-0.9 0.2" fill="#3131C2" /><path d="M495.8 394.2l-14.8-8.6c0.4-0.1 0.8-0.3 1.3-0.4l14.8 8.6c-0.4 0.1-0.9 0.3-1.3 0.4" fill="#3232C7" /><path d="M497.1 393.8l-14.8-8.6c0.5-0.2 1-0.5 1.5-0.7 1.3-0.7 2.5-1.7 3.6-2.8l14.8 8.6c-1.1 1.1-2.3 2-3.6 2.8-0.5 0.2-1 0.5-1.5 0.7" fill="#3333CC" /><path d="M502.2 390.2l-14.8-8.6 1.2-1.2 14.8 8.6c-0.4 0.4-0.8 0.9-1.2 1.2" fill="#3232C7" /><path d="M503.3 389l-14.8-8.6c0.3-0.3 0.6-0.7 0.9-1.1l14.8 8.6c-0.3 0.4-0.6 0.8-0.9 1.1" fill="#3131C2" /><path d="M504.2 387.9l-14.8-8.6c0.2-0.3 0.5-0.6 0.7-1l14.8 8.6c-0.2 0.4-0.4 0.7-0.7 1" fill="#2F2FBD" /><path d="M504.9 387l-14.8-8.6 0.6-0.9 14.8 8.6-0.6 0.9" fill="#2E2EB8" /><path d="M505.5 386.1l-14.8-8.6 0.6-0.9 14.8 8.6-0.6 0.9" fill="#2D2DB3" /><path d="M506.1 385.1l-14.8-8.6c0.2-0.3 0.3-0.6 0.5-0.9l14.8 8.6c-0.2 0.3-0.3 0.6-0.5 0.9" fill="#2C2CAD" /><path d="M506.6 384.2l-14.8-8.6c0.2-0.3 0.3-0.6 0.5-0.9l14.8 8.6c-0.2 0.3-0.3 0.6-0.5 0.9" fill="#2A2AA8" /><path d="M507.1 383.3l-14.8-8.6c0.1-0.3 0.3-0.6 0.4-0.9l14.8 8.6c-0.1 0.3-0.3 0.6-0.4 0.9" fill="#2929A3" /><path d="M507.5 382.4l-14.8-8.6c0.1-0.3 0.3-0.6 0.4-1l14.8 8.6c-0.1 0.4-0.3 0.7-0.4 1" fill="#28289E" /><path d="M507.9 381.4l-14.8-8.6c0.1-0.3 0.2-0.7 0.4-1l14.8 8.6c-0.2 0.4-0.3 0.7-0.4 1" fill="#262699" /><path d="M508.2 380.4l-14.8-8.6c0.1-0.4 0.2-0.7 0.3-1.1l14.8 8.6c0 0.4-0.1 0.8-0.3 1.1" fill="#252594" /><path d="M508.6 379.3l-14.8-8.6 0.3-1.2 14.8 8.6-0.3 1.2" fill="#24248F" /><path d="M508.9 378.1l-14.8-8.6 0.3-1.5 14.8 8.6-0.3 1.5" fill="#23238A" /><path d="M509.1 376.6l-14.8-8.6c0.1-0.7 0.1-1.4 0.1-2.1l14.8 8.6c0.1 0.7 0 1.4-0.1 2.1" fill="#212185" /><path d="M458.2 550.4L473 559c-1.5-0.9-2.5-2.7-2.5-5.4l-14.8-8.6c0.1 2.7 1 4.6 2.5 5.4zM473 378.3l-9.3 5.4c-0.5 0.3-1.1 0.7-1.6 1.1-0.2 0.1-0.3 0.3-0.5 0.4-0.2 0.2-0.5 0.4-0.7 0.6-0.1 0.1-0.2 0.2-0.3 0.4l-0.3 0.3-0.3 0.3c-0.2 0.3-0.5 0.5-0.7 0.8-0.1 0.1-0.2 0.2-0.2 0.3 0 0.1-0.1 0.1-0.1 0.2-0.1 0.1-0.1 0.2-0.2 0.3-0.2 0.2-0.3 0.5-0.5 0.7-0.2 0.2-0.3 0.5-0.4 0.7v0.2l-0.3 0.6c-0.1 0.2-0.2 0.5-0.4 0.7-0.1 0.2-0.2 0.4-0.3 0.7-0.1 0.3-0.2 0.5-0.3 0.8-0.1 0.3-0.2 0.5-0.3 0.8 0 0.1-0.1 0.3-0.1 0.4 0 0.1 0 0.1-0.1 0.2 0 0.1-0.1 0.2-0.1 0.3-0.1 0.3-0.2 0.6-0.2 1 0 0.2-0.1 0.4-0.1 0.6 0 0.1 0 0.2-0.1 0.3v0.3c-0.1 0.6-0.1 1.1-0.1 1.6l0.4 146.8 14.8 8.6-0.4-146.8c0-0.6 0.1-1.3 0.2-1.9 0-0.1 0-0.2 0.1-0.3 0.1-0.6 0.2-1.2 0.4-1.8 0-0.1 0-0.1 0.1-0.2 0.2-0.7 0.4-1.3 0.7-2 0.3-0.7 0.6-1.3 1-2v-0.1l1.2-1.8c0-0.1 0.1-0.1 0.1-0.2l1.2-1.5 0.3-0.3c0.3-0.4 0.7-0.7 1.1-1 0.2-0.1 0.3-0.3 0.5-0.4 0.5-0.4 1-0.8 1.6-1.1l9.3-5.4-15.1-8.6z" fill="#2A2ABC" /><path d="M518.6 369.2c4.6-2.7 8.4-0.5 8.4 4.8l0.4 146.8c0 5.3-3.8 11.9-8.4 14.5l-40 23.2c-4.6 2.7-8.4 0.5-8.4-4.8l-0.4-146.8c0-5.3 3.8-11.9 8.4-14.5l9.3-5.4c0 6.8 4.8 9.5 10.7 6.1s10.7-11.7 10.7-18.5l9.3-5.4z" fill="#4040FF" /><path d="M498.6 368.4c5.9-3.4 10.7-0.7 10.7 6.1s-4.8 15.1-10.7 18.5-10.7 0.7-10.7-6.1 4.8-15.1 10.7-18.5z" fill="#FFFFFF" /><path d="M491.4 359.1l-0.6-0.3h-0.1c-0.1 0-0.1 0-0.2-0.1-0.1 0-0.2-0.1-0.3-0.1-0.1 0-0.2 0-0.3-0.1H489.6c-0.2 0-0.4-0.1-0.6-0.1h-1.5c-0.1 0-0.2 0-0.3 0.1-0.1 0-0.3 0.1-0.4 0.1-0.1 0-0.2 0-0.2 0.1-0.1 0-0.2 0.1-0.2 0.1-0.2 0.1-0.5 0.2-0.8 0.3-0.1 0-0.2 0.1-0.3 0.1 0 0-0.1 0.1-0.2 0.1-0.4 0.2-0.9 0.4-1.3 0.7-0.6 0.3-1.1 0.7-1.7 1.1-0.1 0.1-0.2 0.1-0.3 0.2-0.5 0.4-1 0.9-1.5 1.3l-0.1 0.1-0.2 0.2c-0.2 0.2-0.5 0.5-0.7 0.8-0.1 0.1-0.1 0.2-0.2 0.2l-0.2 0.2c-0.1 0.2-0.3 0.3-0.4 0.5l-0.3 0.3c-0.1 0.1-0.1 0.2-0.2 0.3-0.1 0.1-0.2 0.3-0.3 0.4-0.1 0.1-0.1 0.2-0.2 0.3-0.1 0.2-0.2 0.3-0.3 0.5-0.1 0.1-0.1 0.2-0.2 0.3l-0.1 0.1-0.6 0.9v0.1c0 0.1-0.1 0.1-0.1 0.2-0.1 0.2-0.2 0.4-0.4 0.7-0.1 0.1-0.1 0.2-0.2 0.3-0.1 0.1-0.1 0.2-0.2 0.3 0 0.1-0.1 0.2-0.1 0.3-0.1 0.3-0.2 0.5-0.4 0.8 0 0 0 0.1-0.1 0.1-0.1 0.3-0.3 0.6-0.4 1 0 0.1 0 0.1-0.1 0.2 0 0.1-0.1 0.2-0.1 0.4-0.1 0.2-0.1 0.3-0.2 0.5 0 0.1-0.1 0.2-0.1 0.4 0 0.1-0.1 0.3-0.1 0.4 0 0.1 0 0.2-0.1 0.3 0 0.2-0.1 0.3-0.1 0.5s-0.1 0.4-0.1 0.5v0.2c0 0.1-0.1 0.3-0.1 0.4-0.1 0.3-0.1 0.6-0.1 0.9v0.4c-0.1 0.6-0.1 1.3-0.1 1.9v0.2l14.8 8.4c0-0.6 0-1.2 0.1-1.8v-0.4c0-0.3 0.1-0.6 0.1-0.9 0-0.1 0-0.3 0.1-0.4v-0.2c0-0.2 0.1-0.4 0.1-0.5 0-0.2 0.1-0.3 0.1-0.5 0-0.1 0.1-0.2 0.1-0.3 0-0.1 0.1-0.3 0.1-0.4 0-0.1 0.1-0.3 0.1-0.4 0.1-0.2 0.1-0.3 0.2-0.5 0-0.1 0.1-0.2 0.1-0.4 0-0.1 0-0.1 0.1-0.2 0.1-0.3 0.3-0.6 0.4-1 0 0 0-0.1 0.1-0.1 0.1-0.3 0.2-0.5 0.3-0.8 0-0.1 0.1-0.2 0.1-0.3 0.1-0.1 0.1-0.2 0.2-0.3 0.1-0.1 0.1-0.2 0.2-0.3 0.1-0.2 0.2-0.4 0.4-0.7 0-0.1 0.1-0.1 0.1-0.2v-0.1l0.6-0.9 0.1-0.1c0.1-0.1 0.1-0.2 0.2-0.3 0.1-0.2 0.2-0.3 0.3-0.5 0.1-0.1 0.1-0.2 0.2-0.3 0.1-0.1 0.2-0.3 0.3-0.4 0.1-0.1 0.1-0.2 0.2-0.3l0.3-0.3c0.1-0.2 0.3-0.3 0.4-0.5l0.2-0.2 0.2-0.2c0.2-0.3 0.5-0.5 0.7-0.8 0.1-0.1 0.1-0.2 0.2-0.2l0.1-0.1c0.5-0.5 1-0.9 1.5-1.3 0.1-0.1 0.2-0.1 0.3-0.2 0.5-0.4 1.1-0.8 1.7-1.1 0.5-0.3 0.9-0.5 1.3-0.7 0.1-0.1 0.3-0.1 0.4-0.2 0.3-0.1 0.5-0.2 0.8-0.3 0.2 0 0.3-0.1 0.5-0.1 0.1 0 0.3-0.1 0.4-0.1 0.2 0 0.4-0.1 0.6-0.1h1.2c0.3 0 0.5 0.1 0.8 0.1h0.2c0.2 0 0.4 0.1 0.6 0.2 0.1 0 0.1 0 0.2 0.1 0.2 0.1 0.5 0.2 0.7 0.3l-14.8-8.8z m14.8 8.6z" fill="#ACC5EA" /><path d="M615 189.2c0.2-0.1 0.4-0.1 0.6-0.2 0.1 0 0.3-0.1 0.4-0.1 0.1 0 0.2-0.1 0.3-0.1 0.2 0 0.3-0.1 0.4-0.1h1c0.2 0 0.4 0 0.6 0.1h0.2c0.2 0 0.3 0.1 0.5 0.1 0 0 0.1 0 0.1 0.1l0.6 0.3-14.8-8.6c-0.1-0.1-0.3-0.1-0.4-0.2h-0.1s-0.1 0-0.1-0.1c-0.1 0-0.1-0.1-0.2-0.1s-0.2 0-0.2-0.1H603.6c-0.2 0-0.3 0-0.5-0.1h-1.3c-0.1 0-0.2 0-0.3 0.1h-0.2c-0.1 0-0.1 0-0.2 0.1-0.2 0.1-0.4 0.1-0.6 0.2-0.1 0-0.1 0-0.2 0.1 0 0-0.1 0-0.1 0.1-0.3 0.1-0.7 0.3-1 0.5l-9.3 5.4 14.8 8.6 9.3-5.4c0.4-0.2 0.7-0.4 1-0.5-0.2 0-0.1-0.1 0-0.1z" fill="#2A2ABC" /><path d="M586 214.5l-14.8-8.6h0.1l14.7 8.6c0.1 0 0.1 0 0 0" fill="#28289E" /><path d="M586.1 214.5l-14.8-8.6c0.2 0.1 0.4 0.2 0.5 0.3l14.8 8.6c-0.2-0.1-0.3-0.2-0.5-0.3" fill="#2929A3" /><path d="M586.6 214.8l-14.8-8.6c0.2 0.1 0.4 0.1 0.6 0.2l14.8 8.6c-0.2-0.1-0.4-0.2-0.6-0.2" fill="#2A2AA8" /><path d="M587.2 215l-14.8-8.6c0.2 0.1 0.4 0.1 0.6 0.1l14.8 8.6c-0.2 0-0.4-0.1-0.6-0.1" fill="#2C2CAD" /><path d="M587.8 215.1l-14.8-8.6c0.2 0 0.4 0.1 0.6 0.1l14.8 8.6c-0.2 0-0.4-0.1-0.6-0.1" fill="#2D2DB3" /><path d="M588.4 215.2l-14.8-8.6h0.7l14.8 8.6h-0.7" fill="#2E2EB8" /><path d="M589.2 215.2l-14.8-8.6c0.3 0 0.5 0 0.8-0.1l14.8 8.6c-0.3 0-0.6 0.1-0.8 0.1" fill="#2F2FBD" /><path d="M590 215.1l-14.8-8.6c0.3 0 0.6-0.1 0.9-0.2l14.8 8.6c-0.3 0.1-0.6 0.2-0.9 0.2" fill="#3131C2" /><path d="M590.9 214.9l-14.8-8.6c0.4-0.1 0.8-0.3 1.3-0.4l14.8 8.6c-0.5 0.2-0.9 0.3-1.3 0.4" fill="#3232C7" /><path d="M592.2 214.5l-14.8-8.6c0.5-0.2 1-0.5 1.5-0.7 1.3-0.7 2.5-1.7 3.6-2.8l14.8 8.6c-1.1 1.1-2.3 2-3.6 2.8-0.6 0.2-1.1 0.5-1.5 0.7" fill="#3333CC" /><path d="M597.2 211l-14.8-8.6 1.2-1.2 14.8 8.6-1.2 1.2" fill="#3232C7" /><path d="M598.4 209.7l-14.8-8.6c0.3-0.3 0.6-0.7 0.9-1.1l14.8 8.6c-0.3 0.4-0.6 0.8-0.9 1.1" fill="#3131C2" /><path d="M599.3 208.7l-14.8-8.6c0.2-0.3 0.5-0.6 0.7-1l14.8 8.6c-0.3 0.3-0.5 0.6-0.7 1" fill="#2F2FBD" /><path d="M600 207.7l-14.8-8.6 0.6-0.9 14.8 8.6-0.6 0.9" fill="#2E2EB8" /><path d="M600.6 206.8l-14.8-8.6 0.6-0.9 14.8 8.6-0.6 0.9" fill="#2D2DB3" /><path d="M601.1 205.9l-14.8-8.6c0.2-0.3 0.3-0.6 0.5-0.9l14.8 8.6c-0.1 0.3-0.3 0.6-0.5 0.9" fill="#2C2CAD" /><path d="M601.6 205l-14.8-8.6c0.2-0.3 0.3-0.6 0.5-0.9l14.8 8.6c-0.1 0.3-0.3 0.6-0.5 0.9" fill="#2A2AA8" /><path d="M602.1 204.1l-14.8-8.6c0.1-0.3 0.3-0.6 0.4-0.9l14.8 8.6c-0.1 0.2-0.2 0.5-0.4 0.9" fill="#2929A3" /><path d="M602.5 203.1l-14.8-8.6c0.1-0.3 0.3-0.6 0.4-1l14.8 8.6c-0.1 0.4-0.2 0.7-0.4 1" fill="#28289E" /><path d="M602.9 202.2l-14.8-8.6c0.1-0.3 0.3-0.7 0.4-1l14.8 8.6c-0.1 0.3-0.2 0.6-0.4 1" fill="#262699" /><path d="M603.3 201.1l-14.8-8.6c0.1-0.4 0.2-0.7 0.3-1.1l14.8 8.6c-0.1 0.4-0.2 0.8-0.3 1.1" fill="#252594" /><path d="M603.6 200.1l-14.8-8.6 0.3-1.2 14.8 8.6c-0.1 0.3-0.2 0.7-0.3 1.2" fill="#24248F" /><path d="M603.9 198.8l-14.8-8.6 0.3-1.5 14.8 8.6-0.3 1.5" fill="#23238A" /><path d="M604.2 197.3l-14.8-8.6c0.1-0.7 0.1-1.4 0.1-2.1l14.8 8.6c0 0.7 0 1.4-0.1 2.1" fill="#212185" /><path d="M553.7 497.7l14.8 8.6c-1.5-0.9-2.5-2.7-2.5-5.4l-14.8-8.6c0 2.7 1 4.6 2.5 5.4z" fill="#2A2ABC" /><path d="M568.2 199l-9.3 5.4c-0.5 0.3-1.1 0.7-1.6 1.1-0.2 0.1-0.3 0.3-0.5 0.4-0.2 0.2-0.5 0.4-0.7 0.6l-0.3 0.3-0.3 0.3-0.3 0.3c-0.2 0.3-0.5 0.5-0.7 0.8-0.1 0.1-0.2 0.2-0.2 0.3 0 0.1-0.1 0.1-0.1 0.2-0.1 0.1-0.1 0.2-0.2 0.3-0.2 0.2-0.3 0.5-0.5 0.7-0.2 0.2-0.3 0.5-0.4 0.7v0.2l-0.3 0.6c-0.1 0.2-0.2 0.5-0.4 0.7l-0.3 0.6c-0.1 0.3-0.2 0.5-0.3 0.8-0.1 0.3-0.2 0.5-0.3 0.8 0 0.1-0.1 0.3-0.1 0.4 0 0.1 0 0.1-0.1 0.2 0 0.1-0.1 0.2-0.1 0.3-0.1 0.3-0.2 0.6-0.2 1 0 0.2-0.1 0.4-0.1 0.6 0 0.1 0 0.2-0.1 0.3v0.3c-0.1 0.6-0.1 1.1-0.1 1.6l0.8 273.4L566 501l-0.8-273.4c0-0.6 0.1-1.3 0.2-1.9 0-0.1 0-0.2 0.1-0.3 0.1-0.6 0.2-1.2 0.4-1.8 0-0.1 0-0.1 0.1-0.2 0.2-0.7 0.4-1.3 0.7-2 0.3-0.7 0.6-1.3 1-2v-0.1l1.2-1.8c0-0.1 0.1-0.1 0.1-0.2l1.2-1.5 0.3-0.3c0.3-0.4 0.7-0.7 1.1-1 0.2-0.1 0.3-0.3 0.5-0.4 0.5-0.4 1-0.8 1.6-1.1l9.3-5.4-14.8-8.6z" fill="#2A2ABC" /><path d="M613.6 189.9c4.6-2.7 8.4-0.5 8.5 4.8l0.8 273.4c0 5.3-3.8 11.9-8.4 14.5l-40.1 23.1c-4.6 2.7-8.4 0.5-8.5-4.8l-0.8-273.4c0-5.3 3.8-11.9 8.4-14.5l9.3-5.4c0 6.8 4.8 9.5 10.7 6.1 5.9-3.4 10.7-11.7 10.7-18.5l9.4-5.3z" fill="#4040FF" /><path d="M593.7 189.1c5.9-3.4 10.7-0.7 10.7 6.1s-4.8 15.1-10.7 18.5-10.7 0.7-10.7-6.1 4.8-15.1 10.7-18.5z" fill="#FFFFFF" /><path d="M586.5 179.8l-0.6-0.3h-0.1c-0.1 0-0.1 0-0.2-0.1-0.1 0-0.2-0.1-0.3-0.1-0.1 0-0.2 0-0.3-0.1H584.7c-0.2 0-0.4-0.1-0.6-0.1h-1.5c-0.1 0-0.2 0-0.3 0.1-0.1 0-0.3 0.1-0.4 0.1-0.1 0-0.2 0-0.2 0.1-0.1 0-0.2 0.1-0.2 0.1-0.2 0.1-0.5 0.2-0.8 0.3-0.1 0-0.2 0.1-0.3 0.1-0.1 0-0.1 0.1-0.2 0.1-0.4 0.2-0.9 0.4-1.3 0.7-0.6 0.3-1.1 0.7-1.7 1.1-0.1 0.1-0.2 0.1-0.3 0.2-0.5 0.4-1 0.9-1.5 1.3l-0.1 0.1-0.2 0.2c-0.2 0.2-0.5 0.5-0.7 0.8-0.1 0.1-0.1 0.2-0.2 0.2l-0.2 0.2c-0.1 0.2-0.3 0.3-0.4 0.5l-0.3 0.3c-0.1 0.1-0.1 0.2-0.2 0.3-0.1 0.1-0.2 0.3-0.3 0.4-0.1 0.1-0.1 0.2-0.2 0.3-0.1 0.2-0.2 0.3-0.3 0.5-0.1 0.1-0.1 0.2-0.2 0.3l-0.1 0.1-0.6 0.9v0.1c0 0.1-0.1 0.1-0.1 0.2-0.1 0.2-0.2 0.4-0.4 0.7-0.1 0.1-0.1 0.2-0.2 0.3-0.1 0.1-0.1 0.2-0.2 0.3 0 0.1-0.1 0.2-0.1 0.3-0.1 0.3-0.2 0.5-0.4 0.8 0 0 0 0.1-0.1 0.1-0.1 0.3-0.3 0.6-0.4 1 0 0.1 0 0.1-0.1 0.2 0 0.1-0.1 0.2-0.1 0.3-0.1 0.2-0.1 0.3-0.2 0.5 0 0.1-0.1 0.2-0.1 0.4 0 0.1-0.1 0.3-0.1 0.4 0 0.1 0 0.2-0.1 0.3 0 0.2-0.1 0.3-0.1 0.5s-0.1 0.4-0.1 0.5v0.2c0 0.1-0.1 0.3-0.1 0.4-0.1 0.3-0.1 0.6-0.1 0.9v0.4c-0.1 0.6-0.1 1.2-0.1 1.8l14.8 8.8v-0.1c0-0.6 0-1.2 0.1-1.9v-0.4c0-0.3 0.1-0.6 0.1-0.9 0-0.1 0-0.3 0.1-0.4v-0.2c0-0.2 0.1-0.4 0.1-0.5 0-0.2 0.1-0.3 0.1-0.5 0-0.1 0.1-0.2 0.1-0.3 0-0.1 0.1-0.3 0.1-0.4 0-0.1 0.1-0.3 0.1-0.4 0.1-0.2 0.1-0.3 0.2-0.5 0-0.1 0.1-0.2 0.1-0.3 0-0.1 0-0.1 0.1-0.2 0.1-0.3 0.3-0.6 0.4-1 0 0 0-0.1 0.1-0.1 0.1-0.3 0.2-0.5 0.3-0.8 0-0.1 0.1-0.2 0.1-0.3 0.1-0.1 0.1-0.2 0.2-0.3 0.1-0.1 0.1-0.2 0.2-0.3 0.1-0.2 0.2-0.4 0.4-0.7 0-0.1 0.1-0.1 0.1-0.2v-0.1l0.6-0.9 0.1-0.1c0.1-0.1 0.1-0.2 0.2-0.3 0.1-0.2 0.2-0.3 0.3-0.5 0.1-0.1 0.1-0.2 0.2-0.3 0.1-0.1 0.2-0.3 0.3-0.4 0.1-0.1 0.1-0.2 0.2-0.3l0.3-0.3c0.1-0.2 0.3-0.3 0.4-0.5l0.2-0.2 0.2-0.2c0.2-0.3 0.5-0.5 0.7-0.8l0.2-0.2 0.1-0.1c0.5-0.5 1-0.9 1.5-1.3 0.1-0.1 0.2-0.1 0.3-0.2 0.5-0.4 1.1-0.8 1.7-1.1 0.5-0.3 0.9-0.5 1.3-0.7 0.1-0.1 0.3-0.1 0.4-0.2 0.3-0.1 0.5-0.2 0.8-0.3 0.2 0 0.3-0.1 0.5-0.1 0.1 0 0.3-0.1 0.4-0.1 0.2 0 0.4-0.1 0.6-0.1h1.2c0.3 0 0.5 0.1 0.8 0.1h0.2c0.2 0 0.4 0.1 0.6 0.2 0.1 0 0.1 0 0.2 0.1 0.2 0.1 0.5 0.2 0.7 0.3l-14.8-8.7z" fill="#ACC5EA" /><path d="M568.2 198.9c0 0.1 0 0.1 0 0 0 0.1 0 0.1 0 0z" fill="#FFFFFF" /><path d="M719.2 434.3c-0.1 0-0.1 0 0 0-0.3-0.2-0.5-0.3-0.8-0.4h-0.1c-0.1 0-0.2-0.1-0.2-0.1-0.1 0-0.2-0.1-0.4-0.1-0.1 0-0.3-0.1-0.4-0.1-0.1 0-0.2 0-0.2-0.1h-0.1c-0.3 0-0.5-0.1-0.8-0.1h-1.9c-0.1 0-0.2 0.1-0.3 0.1-0.2 0-0.4 0.1-0.6 0.1-0.1 0-0.2 0-0.3 0.1-0.1 0-0.2 0.1-0.3 0.1-0.3 0.1-0.6 0.2-1 0.3-0.1 0-0.2 0.1-0.3 0.1-0.1 0-0.1 0.1-0.2 0.1-0.6 0.2-1.1 0.5-1.7 0.8L569.7 516c-0.7 0.4-1.4 0.9-2.1 1.4-0.1 0.1-0.2 0.2-0.4 0.3-0.7 0.5-1.3 1.1-1.9 1.7-0.1 0.1-0.1 0.1-0.2 0.1l-0.3 0.3c-0.3 0.3-0.6 0.6-0.9 1l-0.3 0.3c-0.1 0.1-0.1 0.2-0.2 0.3-0.2 0.2-0.4 0.4-0.5 0.6-0.1 0.1-0.2 0.3-0.3 0.4-0.1 0.1-0.2 0.2-0.3 0.4-0.1 0.2-0.3 0.3-0.4 0.5-0.1 0.1-0.2 0.2-0.3 0.4-0.1 0.2-0.3 0.4-0.4 0.6-0.1 0.1-0.2 0.3-0.3 0.4 0 0.1-0.1 0.1-0.1 0.2-0.2 0.4-0.5 0.8-0.7 1.1v0.1c0 0.1-0.1 0.2-0.1 0.2-0.2 0.3-0.3 0.6-0.5 0.8-0.1 0.1-0.1 0.3-0.2 0.4-0.1 0.1-0.1 0.3-0.2 0.4-0.1 0.1-0.1 0.2-0.2 0.4-0.2 0.3-0.3 0.6-0.4 0.9 0 0.1-0.1 0.1-0.1 0.2-0.2 0.4-0.3 0.8-0.5 1.2 0 0.1-0.1 0.1-0.1 0.2-0.1 0.1-0.1 0.3-0.2 0.4-0.1 0.2-0.2 0.4-0.2 0.6-0.1 0.2-0.1 0.3-0.1 0.5-0.1 0.2-0.1 0.4-0.2 0.6 0 0.1-0.1 0.2-0.1 0.4-0.1 0.2-0.1 0.4-0.2 0.6-0.1 0.2-0.1 0.5-0.2 0.7 0 0.1 0 0.2-0.1 0.2 0 0.2-0.1 0.3-0.1 0.5-0.1 0.4-0.1 0.7-0.2 1.1 0 0.1 0 0.2-0.1 0.3v0.3c-0.1 0.8-0.2 1.6-0.2 2.4l0.3 93.3c0 3.2 0.9 5.7 2.3 7.3 0.5 0.5 1 1 1.6 1.4l14.8 8.6c-2.4-1.4-3.9-4.4-4-8.7l0.1-93.3c0-0.8 0.1-1.6 0.2-2.4 0-0.2 0-0.4 0.1-0.6 0.1-0.4 0.1-0.7 0.2-1.1 0-0.2 0.1-0.5 0.1-0.7 0.1-0.2 0.1-0.5 0.2-0.7 0.1-0.3 0.2-0.6 0.3-1 0.1-0.2 0.1-0.4 0.2-0.6 0.1-0.4 0.2-0.7 0.4-1.1 0.1-0.1 0.1-0.3 0.2-0.4l0.6-1.5c0-0.1 0.1-0.1 0.1-0.2 0.2-0.4 0.4-0.9 0.6-1.3 0.1-0.1 0.1-0.3 0.2-0.4 0.2-0.4 0.4-0.8 0.7-1.2 0-0.1 0.1-0.2 0.1-0.2 0.3-0.5 0.6-0.9 0.9-1.4 0.1-0.1 0.2-0.3 0.3-0.4 0.2-0.3 0.4-0.6 0.7-1 0.1-0.2 0.2-0.3 0.4-0.5 0.2-0.3 0.4-0.5 0.6-0.8 0.2-0.2 0.3-0.4 0.5-0.6 0.2-0.2 0.3-0.4 0.5-0.6 0.3-0.3 0.6-0.7 0.9-1 0.1-0.2 0.3-0.3 0.4-0.4 0.6-0.6 1.3-1.2 1.9-1.7 0.1-0.1 0.2-0.2 0.4-0.3 0.7-0.5 1.4-1 2.1-1.4l139.9-80.7c0.6-0.3 1.1-0.6 1.7-0.8 0.2-0.1 0.4-0.1 0.5-0.2 0.3-0.1 0.6-0.2 1-0.3 0.2-0.1 0.4-0.1 0.6-0.2 0.2 0 0.4-0.1 0.6-0.1 0.2 0 0.5-0.1 0.7-0.1h1.5c0.3 0 0.7 0.1 1 0.1 0.1 0 0.2 0 0.2 0.1 0.3 0.1 0.5 0.1 0.7 0.2 0.1 0 0.2 0.1 0.2 0.1 0.3 0.1 0.6 0.3 0.9 0.4l-15.1-8.7z" fill="#C68620" /><path d="M724.3 443.8c7.5-4.3 13.6-0.9 13.6 7.7l0.3 93.3c0 8.6-6 19.1-13.5 23.4l-139.9 80.7c-7.5 4.3-13.6 0.8-13.6-7.7L571 548c0-8.6 6-19.1 13.5-23.4l139.8-80.8z" fill="#FFCD2E" /><path d="M692.1 531.1l-10.4-6c-0.1-0.1-0.2-0.1-0.3-0.3l10.4 6c0.1 0.2 0.2 0.3 0.3 0.3" fill="#674611" /><path d="M688.7 526.5l-10.4-6 3.2 4.3 10.4 6.1z" fill="#E8CFAC" /><path d="M691.3 491.1c1.4-0.8 2.3 0.4 1.6 2.2l-9.4 24.3c-0.3 0.9-1 1.6-1.6 2-0.6 0.4-1.2 0.4-1.6-0.1l-3.1-4.4-28.2 35.2c-0.5 0.6-1.1 1.1-1.6 1.5-1.1 0.6-2.2 0.6-2.8-0.2l-8-11.2-28.1 35c-0.5 0.6-1.1 1.1-1.6 1.5-1.1 0.7-2.2 0.6-2.8-0.2-0.9-1.3-0.4-3.9 1.2-5.8l30.9-38.5c0.5-0.6 1.1-1.1 1.6-1.5 1.1-0.7 2.2-0.6 2.8 0.2l8 11.2 25.4-31.7-3.1-4.4c-0.7-1 0.2-3.2 1.5-4l18.9-11.1z" fill="#C68620" /><path d="M649.6 547.6l10.4 6 25.4-31.7-3.1-4.4-10.4-6 3.1 4.3z" fill="#E8CFAC" /><path d="M704 502.4l-5.3-3.1-5.1-3h-1.1c-0.1 0-0.2 0.1-0.3 0.1l-18.9 11c-0.2 0.1-0.4 0.3-0.6 0.4l-0.2 0.2-0.1 0.1c0 0.1-0.1 0.1-0.1 0.2s-0.1 0.1-0.1 0.2-0.1 0.1-0.1 0.2v0.1c0 0.1-0.1 0.1-0.1 0.2s0 0.1-0.1 0.2c0 0.1 0 0.1-0.1 0.2 0 0.1 0 0.1-0.1 0.2 0 0.1 0 0.1-0.1 0.2 0 0.1 0 0.1-0.1 0.2v0.9c0 0.2 0.1 0.4 0.2 0.5l10.4 6c-0.1-0.1-0.2-0.3-0.2-0.5v-1c0.1-0.4 0.2-0.8 0.4-1.1 0.1-0.2 0.2-0.4 0.3-0.5 0.1-0.1 0.2-0.3 0.4-0.4 0.2-0.2 0.4-0.3 0.6-0.4l18.9-11c0.1-0.1 0.2-0.1 0.3-0.2h0.1c0.1 0 0.2-0.1 0.3-0.1h0.3c0.4 0.2 0.5 0.2 0.5 0.2 0.1 0 0.1 0 0 0z m-48 60.5l-8-11.2-10.4-6 8 11.2c0.1 0.2 0.3 0.4 0.5 0.5l10.4 6c-0.2-0.1-0.3-0.3-0.5-0.5z" fill="#E8CFAC" /><path d="M641 535.9c-0.1 0-0.1-0.1-0.2-0.1s-0.1 0-0.2-0.1h-0.7c-0.1 0-0.2 0-0.3 0.1 0 0-0.1 0-0.1 0.1h-0.2c-0.2 0.1-0.3 0.1-0.5 0.2s-0.5 0.3-0.7 0.5l-0.2 0.2-0.2 0.2-0.4 0.4-0.2 0.2-30.9 38.5 10.4 6 30.9-38.5c0.2-0.3 0.5-0.5 0.7-0.8l0.2-0.2c0.2-0.2 0.5-0.4 0.7-0.5l0.6-0.3h0.1c0.2-0.1 0.4-0.1 0.5-0.1h0.5c0.2 0 0.3 0.1 0.5 0.2l-10.3-6z" fill="#E8CFAC" /><path d="M605.9 576.5c-0.1 0.1-0.1 0.2-0.2 0.3v0.1c0 0.1-0.1 0.1-0.1 0.2-0.1 0.1-0.1 0.2-0.2 0.3 0 0.1-0.1 0.2-0.1 0.3 0 0.1-0.1 0.1-0.1 0.2s-0.1 0.2-0.1 0.3c0 0.1-0.1 0.2-0.1 0.3 0 0.1-0.1 0.2-0.1 0.3 0 0.1-0.1 0.3-0.1 0.4v0.1c0 0.1 0 0.2-0.1 0.3v1.3c0.1 0.3 0.2 0.7 0.4 0.9 0.1 0.2 0.3 0.4 0.5 0.5l10.4 6c-0.2-0.1-0.4-0.3-0.5-0.5-0.2-0.3-0.3-0.6-0.4-0.9v-0.1c-0.1-0.3-0.1-0.7 0-1.1 0-0.1 0-0.3 0.1-0.4v-0.1c0.1-0.3 0.1-0.5 0.2-0.8 0.1-0.3 0.2-0.5 0.3-0.8 0.1-0.3 0.3-0.5 0.4-0.8 0.2-0.3 0.3-0.5 0.5-0.7l-10.4-6-0.1 0.1c-0.1 0.1-0.1 0.2-0.2 0.3z" fill="#E8CFAC" /><path d="M702.8 502.6c1.4-0.8 2.3 0.4 1.6 2.2L695 529c-0.3 0.9-1 1.6-1.6 2-0.6 0.4-1.2 0.4-1.6-0.1l-3.1-4.4-28.3 35.2c-0.5 0.6-1.1 1.1-1.6 1.5-1.1 0.7-2.2 0.6-2.8-0.2l-8-11.2-28.1 35c-0.5 0.6-1.1 1.1-1.6 1.5-1.1 0.7-2.2 0.6-2.8-0.2-0.9-1.3-0.4-3.9 1.2-5.8l30.9-38.5c0.5-0.6 1.1-1.1 1.6-1.5 1.1-0.7 2.2-0.6 2.8 0.2l8 11.2 25.4-31.7-3.1-4.4c-0.7-1 0.2-3.2 1.5-4l19-11z" fill="#FFFFFF" /></svg>