<?xml version="1.0" encoding="utf-8"?>
<!-- Uploaded to: SVG Repo, www.svgrepo.com, Generator: SVG Repo Mixer Tools -->
<svg width="800px" height="800px" viewBox="0 0 1024 1024" class="icon"  version="1.1" xmlns="http://www.w3.org/2000/svg"><path d="M905.5 568.6c-1.1 11-11.2 16.5-19.8 21.5-8 4.6-16 9.3-23.9 13.9-12.8 7.4-25.5 14.8-38.3 22.2-16 9.3-31.9 18.6-47.9 27.8-17.6 10.2-35.2 20.5-52.9 30.7-17.7 10.3-35.4 20.6-53.2 30.9-16.3 9.5-32.5 18.9-48.8 28.4-13.3 7.7-26.5 15.4-39.8 23.1-8.7 5-17.4 10.1-26.1 15.1-6.6 3.8-12.8 7.6-20.3 9.8-19.5 5.6-41.1 3.7-58.7-6.5-6.3-3.7-12.7-7.3-19-11-11.6-6.7-23.1-13.3-34.7-20-15.2-8.8-30.4-17.6-45.6-26.3-17.3-10-34.7-20-52-30-17.9-10.3-35.8-20.7-53.7-31-16.9-9.8-33.8-19.5-50.8-29.3L176.8 613c-10.3-6-20.7-11.9-31-17.9-4.7-2.7-9.4-5.4-14.1-8.2-7.4-4.3-14.7-11.1-14.7-20.3 0 8.4 0 16.8-0.1 25.3 0 3-0.2 6.1 0 9.2 0.6 8.1 7 14.4 13.7 18.4 4.1 2.5 8.3 4.8 12.5 7.2 10.8 6.2 21.6 12.5 32.4 18.7 15.6 9 31.1 18 46.7 27 18.5 10.7 37.1 21.4 55.6 32.1 19.3 11.2 38.6 22.3 58 33.5 18.4 10.6 36.7 21.2 55.1 31.8 15.3 8.8 30.5 17.6 45.8 26.4 10.3 6 20.7 11.9 31 17.9 6 3.4 11.9 7.3 18.4 9.7 20.3 7.4 44.1 5.8 62.8-5.1 7.1-4.1 14.2-8.3 21.3-12.4 13.1-7.6 26.2-15.2 39.2-22.8 17.1-9.9 34.1-19.8 51.2-29.8 19.1-11.1 38.2-22.2 57.2-33.3l57.3-33.3c17.1-10 34.2-19.9 51.4-29.9 13.3-7.7 26.6-15.4 39.9-23.2 7.3-4.3 14.7-8.5 22-12.8 2.2-1.3 4.5-2.6 6.6-4.1 5.6-4.2 10-10 10.1-17.3 0.1-3.7 0-7.3 0-11 0-7.3 0-14.7 0.1-22 0.4 0.8 0.3 1.3 0.3 1.8 0 0.3 0-0.2 0 0zM905.6 567.1z" fill="#7A9EFD" /><path d="M891.3 547.1c19 11 19.1 28.9 0.2 39.9L547.1 787.1c-18.9 11-49.8 11-68.8 0L131.6 587c-19-11-19.1-28.9-0.2-39.9L475.8 347c18.9-11 49.8-11 68.8 0l346.7 200.1z" fill="#E4ECF9" /><path d="M608.5 194.9c-0.1 0-0.1 0 0 0-0.3-0.2-0.5-0.3-0.8-0.4h-0.1c-0.1 0-0.2-0.1-0.2-0.1-0.1 0-0.2-0.1-0.4-0.1-0.1 0-0.3-0.1-0.4-0.1-0.1 0-0.2 0-0.2-0.1h-0.1c-0.3 0-0.5-0.1-0.8-0.1h-1.9c-0.1 0-0.2 0-0.3 0.1-0.2 0-0.4 0.1-0.6 0.1-0.1 0-0.2 0-0.3 0.1-0.1 0-0.2 0.1-0.3 0.1-0.3 0.1-0.6 0.2-1 0.3-0.1 0-0.2 0.1-0.3 0.1-0.1 0-0.1 0.1-0.2 0.1-0.6 0.2-1.1 0.5-1.7 0.8L292.7 372.6c-0.7 0.4-1.4 0.9-2.1 1.4-0.1 0.1-0.2 0.2-0.4 0.3-0.6 0.5-1.3 1.1-1.9 1.7-0.1 0-0.1 0.1-0.2 0.1l-0.3 0.3c-0.3 0.3-0.6 0.6-0.9 1l-0.3 0.3c-0.1 0.1-0.2 0.2-0.2 0.3-0.2 0.2-0.4 0.4-0.5 0.6-0.1 0.1-0.2 0.3-0.3 0.4-0.1 0.1-0.2 0.3-0.3 0.4-0.1 0.2-0.3 0.3-0.4 0.5l-0.3 0.3c-0.1 0.2-0.3 0.4-0.4 0.6-0.1 0.1-0.2 0.3-0.3 0.4 0 0.1-0.1 0.1-0.1 0.2-0.2 0.4-0.5 0.8-0.7 1.2v0.1c0 0.1-0.1 0.2-0.1 0.2-0.2 0.3-0.3 0.6-0.5 0.8-0.1 0.1-0.1 0.3-0.2 0.4-0.1 0.1-0.1 0.3-0.2 0.4-0.1 0.1-0.1 0.2-0.2 0.4-0.1 0.3-0.3 0.6-0.4 0.9 0 0.1-0.1 0.1-0.1 0.2v0.1c-0.2 0.4-0.3 0.8-0.5 1.2 0 0.1 0 0.1-0.1 0.2s-0.1 0.3-0.2 0.4c-0.1 0.2-0.2 0.4-0.2 0.6-0.1 0.2-0.1 0.3-0.1 0.5-0.1 0.2-0.1 0.4-0.2 0.6 0 0.1-0.1 0.2-0.1 0.4-0.1 0.2-0.1 0.4-0.1 0.6-0.1 0.2-0.1 0.5-0.2 0.7 0 0.1 0 0.2-0.1 0.3 0 0.2-0.1 0.3-0.1 0.5-0.1 0.4-0.1 0.7-0.2 1.1 0 0.1 0 0.2-0.1 0.3v0.3c-0.1 0.8-0.2 1.6-0.2 2.4l0.6 210.8c0 2.1 0.4 3.9 1.1 5.4 0.7 1.5 1.7 2.6 2.9 3.3l14.8 8.6c-2.4-1.4-4-4.4-4-8.7l-0.4-211c0-0.8 0.1-1.6 0.2-2.4 0-0.2 0-0.4 0.1-0.6 0.1-0.4 0.1-0.7 0.2-1.1 0-0.2 0.1-0.5 0.1-0.7 0.1-0.2 0.1-0.5 0.2-0.7 0.1-0.3 0.2-0.6 0.3-1 0.1-0.2 0.1-0.4 0.2-0.6 0.1-0.4 0.2-0.7 0.4-1.1 0.1-0.1 0.1-0.3 0.2-0.4l0.6-1.5c0-0.1 0.1-0.1 0.1-0.2 0.2-0.4 0.4-0.9 0.6-1.3 0.1-0.1 0.1-0.3 0.2-0.4 0.2-0.4 0.4-0.8 0.7-1.2 0-0.1 0.1-0.2 0.1-0.2 0.3-0.5 0.6-0.9 0.9-1.4 0.1-0.1 0.2-0.3 0.3-0.4 0.2-0.3 0.4-0.6 0.7-1 0.1-0.2 0.3-0.3 0.4-0.5 0.2-0.3 0.4-0.5 0.6-0.8 0.2-0.2 0.4-0.4 0.5-0.6 0.2-0.2 0.3-0.4 0.5-0.6 0.3-0.3 0.6-0.6 0.9-1 0.1-0.2 0.3-0.3 0.5-0.5 0.6-0.6 1.2-1.2 1.9-1.7 0.1-0.1 0.2-0.2 0.4-0.3 0.7-0.5 1.4-1 2.1-1.4L614 204.3c0.6-0.3 1.1-0.6 1.7-0.8 0.2-0.1 0.4-0.1 0.5-0.2l0.9-0.3c0.2-0.1 0.4-0.1 0.6-0.2 0.2 0 0.4-0.1 0.6-0.1 0.2 0 0.5-0.1 0.7-0.1h1.5c0.3 0 0.7 0.1 1 0.1 0.1 0 0.2 0 0.2 0.1 0.3 0.1 0.5 0.1 0.7 0.2 0.1 0 0.2 0.1 0.2 0.1 0.3 0.1 0.6 0.3 0.9 0.4l-15-8.6z" fill="#2A2ABC" /><path d="M613.6 204.5c7.5-4.3 13.6-0.8 13.6 7.7l0.6 210.8c0 8.6-6.1 19.1-13.5 23.4L308.2 623.1c-7.5 4.3-13.6 0.8-13.6-7.7l-0.6-210.8c0-8.6 6.1-19.1 13.5-23.4l306.1-176.7z" fill="#4040FF" /><path d="M371.4 454.3c17-9.8 30.8-2.2 30.8 17v2.2c0 7.6-13.7 15.8-30.7 25.6l-19.8 11.4c-17 9.8-30.7 17.7-30.8 9.9v-2.2c-0.1-19.2 13.7-42.7 30.6-52.5l19.9-11.4z" fill="#2828CE" /><path d="M324.7 526.8c0 1 0.3 1.8 0.7 2.3 0.2 0.2 0.3 0.3 0.5 0.4l10.8 6.3c-0.8-0.5-1.3-1.4-1.3-2.8v-2.2l-10.8-6.3 0.1 2.3z" fill="#ACC5EA" /><path d="M397.2 458.5c-0.1 0-0.1-0.1-0.2-0.1-0.5-0.3-1-0.5-1.5-0.7-0.1 0-0.2-0.1-0.3-0.1-0.2-0.1-0.3-0.1-0.5-0.2-0.3-0.1-0.5-0.2-0.8-0.3-0.3-0.1-0.6-0.1-0.9-0.2-0.2 0-0.3-0.1-0.5-0.1-0.1 0-0.2 0-0.3-0.1-0.6-0.1-1.2-0.2-1.9-0.2h-2c-0.2 0-0.4 0-0.5 0.1-0.3 0-0.6 0.1-0.9 0.1-0.3 0-0.5 0-0.8 0.1-0.3 0-0.5 0.1-0.8 0.2-0.4 0.1-0.8 0.2-1.3 0.3-0.2 0.1-0.4 0.1-0.7 0.1-0.5 0.1-1.1 0.3-1.7 0.5h-0.1c-0.6 0.2-1.3 0.5-1.9 0.7-0.3 0.1-0.5 0.2-0.8 0.4-0.2 0.1-0.5 0.2-0.7 0.3-0.9 0.4-1.9 0.9-2.9 1.5l-19.8 11.4c-1 0.6-2 1.2-2.9 1.9-0.3 0.2-0.6 0.5-0.9 0.7-0.7 0.5-1.3 0.9-1.9 1.5-0.4 0.3-0.7 0.6-1.1 0.9-0.6 0.5-1.2 1-1.7 1.5-0.4 0.3-0.7 0.7-1.1 1-0.2 0.2-0.5 0.4-0.7 0.7l-0.6 0.6c-0.7 0.7-1.4 1.5-2.1 2.3l-0.7 0.7c-0.1 0.2-0.3 0.3-0.4 0.5l-1.2 1.5c-0.3 0.4-0.6 0.7-0.9 1.1-0.2 0.2-0.3 0.4-0.5 0.7-0.3 0.4-0.6 0.8-0.8 1.2-0.2 0.3-0.5 0.6-0.7 1-0.3 0.4-0.5 0.7-0.8 1.1-0.2 0.3-0.4 0.7-0.7 1-0.1 0.2-0.2 0.4-0.4 0.5-0.5 0.8-1 1.7-1.5 2.5v0.1c-0.5 0.8-1 1.7-1.4 2.6-0.1 0.2-0.2 0.4-0.3 0.7-0.2 0.3-0.3 0.6-0.4 0.9-0.2 0.3-0.4 0.7-0.5 1-0.3 0.5-0.5 1.1-0.8 1.7-0.1 0.2-0.2 0.5-0.3 0.7 0 0.1-0.1 0.2-0.1 0.3-0.4 0.9-0.8 1.8-1.1 2.7 0 0.1-0.1 0.2-0.1 0.3l-0.3 0.9c-0.2 0.5-0.4 1.1-0.6 1.6l-0.3 0.9c-0.1 0.4-0.3 0.8-0.4 1.2l-0.3 0.9c-0.1 0.4-0.2 0.8-0.3 1.3-0.1 0.5-0.3 1-0.4 1.5 0 0.2-0.1 0.4-0.2 0.6-0.1 0.4-0.1 0.7-0.2 1.1-0.1 0.8-0.3 1.5-0.4 2.3 0 0.2-0.1 0.5-0.1 0.7-0.1 0.5-0.1 1-0.1 1.4 0 0.4-0.1 0.7-0.1 1.1-0.1 1.1-0.1 2.2-0.1 3.3l10.8 6.3c0-1.1 0.1-2.2 0.1-3.3 0-0.4 0.1-0.7 0.1-1.1 0.1-0.7 0.2-1.4 0.3-2.2 0.1-0.8 0.2-1.5 0.4-2.3 0.1-0.6 0.2-1.2 0.3-1.7 0.1-0.5 0.2-1 0.4-1.5 0.2-0.7 0.4-1.5 0.6-2.2 0.1-0.4 0.2-0.8 0.4-1.2 0.3-0.8 0.6-1.7 0.9-2.5l0.3-0.9c0.4-1.1 0.9-2.2 1.4-3.3 0.1-0.2 0.2-0.5 0.3-0.7 0.4-0.9 0.8-1.8 1.3-2.7 0.1-0.3 0.3-0.6 0.4-0.9 0.6-1.1 1.1-2.2 1.8-3.2v-0.1c0.6-1 1.2-2.1 1.9-3.1 0.2-0.3 0.4-0.7 0.7-1l1.5-2.1 0.9-1.2c0.4-0.6 0.9-1.2 1.4-1.7l1.2-1.5c0.4-0.4 0.7-0.8 1.1-1.2 0.7-0.8 1.4-1.5 2.1-2.3l1.3-1.3c0.4-0.3 0.7-0.7 1.1-1 0.6-0.5 1.1-1 1.7-1.5 0.4-0.3 0.7-0.6 1.1-0.9 0.6-0.5 1.3-1 1.9-1.5 0.3-0.2 0.6-0.5 0.9-0.7 1-0.7 2-1.3 2.9-1.9l19.8-11.4c1-0.6 1.9-1 2.9-1.5 0.2-0.1 0.5-0.2 0.7-0.3 0.9-0.4 1.8-0.8 2.7-1.1h0.1c0.8-0.3 1.6-0.5 2.3-0.7 0.4-0.1 0.9-0.2 1.3-0.3 0.5-0.1 1.1-0.2 1.6-0.3 0.3 0 0.6-0.1 0.9-0.1 0.7 0 1.3-0.1 1.9 0h0.5c0.8 0 1.5 0.1 2.3 0.3 0.2 0 0.4 0.1 0.5 0.1 0.6 0.1 1.2 0.3 1.7 0.5 0.2 0.1 0.4 0.1 0.5 0.2 0.7 0.3 1.4 0.6 2 1l-11-6.4z" fill="#ACC5EA" /><path d="M357.7 402.8c13.1-7.6 23.8-1.7 23.9 13.2s-10.6 33-23.7 40.6c-13.1 7.6-23.8 1.7-23.9-13.2s10.5-33 23.7-40.6z" fill="#2828CE" /><path d="M385.9 466.9c17-9.8 30.8-2.2 30.8 17v2.2c0 7.6-13.7 15.8-30.7 25.6l-19.8 11.4c-17 9.8-30.7 17.7-30.8 9.9v-2.2c-0.1-19.2 13.7-42.7 30.6-52.5l19.9-11.4z" fill="#FFFFFF" /><path d="M379.7 408.2s0.1 0 0 0c0.7-0.2 1.3-0.4 1.9-0.5 0.3-0.1 0.7-0.1 1-0.2 0.4-0.1 0.8-0.1 1.3-0.2 0.2 0 0.5-0.1 0.7-0.1h1.9c0.6 0 1.2 0.1 1.8 0.2 0.1 0 0.3 0.1 0.4 0.1 0.5 0.1 0.9 0.2 1.3 0.4 0.1 0 0.3 0.1 0.4 0.1 0.5 0.2 1.1 0.5 1.6 0.7l-10.8-6.3s-0.1 0-0.1-0.1l-1.2-0.6c-0.1 0-0.2-0.1-0.2-0.1-0.1-0.1-0.3-0.1-0.4-0.1-0.2-0.1-0.4-0.2-0.6-0.2-0.2-0.1-0.5-0.1-0.7-0.2-0.1 0-0.3-0.1-0.4-0.1h-0.2c-0.5-0.1-1-0.1-1.4-0.2h-2c-0.2 0-0.5 0-0.7 0.1-0.2 0-0.4 0-0.6 0.1-0.2 0-0.4 0.1-0.6 0.1-0.3 0.1-0.7 0.1-1 0.2-0.2 0-0.3 0.1-0.5 0.1-0.4 0.1-0.8 0.2-1.3 0.4h-0.1c-0.5 0.2-1 0.3-1.5 0.6l-0.6 0.3-0.6 0.3c-0.7 0.3-1.5 0.7-2.2 1.1-0.8 0.4-1.5 0.9-2.3 1.4-0.2 0.2-0.5 0.4-0.7 0.5-0.5 0.4-1 0.7-1.5 1.1-0.3 0.2-0.6 0.5-0.8 0.7-0.4 0.4-0.9 0.8-1.3 1.2-0.3 0.3-0.6 0.5-0.8 0.8-0.2 0.2-0.4 0.3-0.6 0.5l-0.5 0.5c-0.6 0.6-1.1 1.2-1.6 1.8-0.2 0.2-0.4 0.4-0.5 0.6-0.1 0.1-0.2 0.3-0.3 0.4-0.3 0.4-0.6 0.7-0.9 1.1-0.2 0.3-0.5 0.5-0.7 0.8-0.1 0.2-0.2 0.3-0.4 0.5-0.2 0.3-0.4 0.6-0.7 0.9-0.2 0.3-0.4 0.5-0.6 0.7l-0.6 0.9c-0.2 0.3-0.3 0.5-0.5 0.8-0.1 0.1-0.2 0.3-0.3 0.4-0.4 0.6-0.8 1.3-1.2 2-0.4 0.7-0.7 1.3-1.1 2-0.1 0.2-0.2 0.3-0.3 0.5-0.1 0.2-0.2 0.5-0.3 0.7-0.1 0.3-0.3 0.5-0.4 0.8-0.2 0.4-0.4 0.9-0.6 1.3-0.1 0.2-0.2 0.4-0.2 0.5 0 0.1-0.1 0.1-0.1 0.2l-0.9 2.1c0 0.1-0.1 0.2-0.1 0.3-0.1 0.2-0.2 0.4-0.2 0.7-0.2 0.4-0.3 0.8-0.5 1.3-0.1 0.2-0.1 0.5-0.2 0.7-0.1 0.3-0.2 0.6-0.3 1-0.1 0.2-0.2 0.5-0.2 0.7-0.1 0.3-0.2 0.7-0.2 1l-0.3 1.2c0 0.2-0.1 0.3-0.1 0.5-0.1 0.3-0.1 0.6-0.1 0.9l-0.3 1.8c0 0.2-0.1 0.4-0.1 0.6 0 0.4-0.1 0.7-0.1 1.1 0 0.3-0.1 0.5-0.1 0.8-0.1 0.9-0.1 1.7-0.1 2.6 0 7.3 2.6 12.4 6.8 14.9l10.8 6.3c-4.2-2.4-6.8-7.6-6.8-14.9 0-0.8 0-1.7 0.1-2.6 0-0.3 0.1-0.5 0.1-0.8 0.1-0.6 0.1-1.1 0.2-1.7l0.3-1.8c0.1-0.4 0.2-0.9 0.3-1.3l0.3-1.2c0.1-0.6 0.3-1.1 0.5-1.7 0.1-0.3 0.2-0.6 0.3-1 0.2-0.7 0.4-1.3 0.7-2 0.1-0.2 0.2-0.4 0.2-0.7 0.3-0.9 0.7-1.7 1-2.6 0.1-0.2 0.2-0.4 0.2-0.5 0.3-0.7 0.6-1.4 1-2.1 0.1-0.2 0.2-0.5 0.3-0.7 0.4-0.8 0.9-1.7 1.4-2.5l1.5-2.4c0.2-0.3 0.3-0.5 0.5-0.8 0.4-0.5 0.7-1.1 1.1-1.6 0.2-0.3 0.4-0.6 0.7-0.9 0.3-0.5 0.7-0.9 1.1-1.3 0.3-0.4 0.6-0.8 0.9-1.1 0.3-0.3 0.6-0.6 0.8-0.9 0.5-0.6 1.1-1.2 1.6-1.8l1-1 0.8-0.8c0.4-0.4 0.9-0.8 1.3-1.2 0.3-0.2 0.6-0.5 0.8-0.7 0.5-0.4 1-0.8 1.5-1.1 0.2-0.2 0.5-0.4 0.7-0.5 0.8-0.5 1.5-1 2.3-1.4 0.7-0.4 1.5-0.8 2.2-1.1l0.6-0.3c0.5-0.4 1.2-0.7 1.9-1z" fill="#ACC5EA" /><path d="M374.8 410.5c13.1-7.6 23.8-1.7 23.9 13.2 0 14.9-10.6 33-23.7 40.6-13.1 7.6-23.8 1.7-23.9-13.2s10.6-33 23.7-40.6z" fill="#FFFFFF" /><path d="M582.7 264.8c4.7-2.7 8.6-0.5 8.6 4.9s-3.8 12.1-8.5 14.8L447 362.9c-4.7 2.7-8.6 0.5-8.6-4.9s3.8-12.1 8.5-14.8l135.8-78.4zM580.8 327.8c4.7-2.7 8.6-0.5 8.6 4.9s-3.8 12.1-8.5 14.8L445 425.9c-4.7 2.7-8.6 0.5-8.6-4.9s3.8-12.1 8.5-14.8l135.9-78.4z" fill="#2828CE" /><path d="M591.4 271.3c-0.1 0-0.1 0 0 0-0.2-0.1-0.3-0.2-0.5-0.2h-0.1s-0.1 0-0.1-0.1c-0.1 0-0.1-0.1-0.2-0.1s-0.2 0-0.2-0.1h-0.2-0.1c-0.2 0-0.3 0-0.5-0.1h-0.5-0.8c-0.1 0-0.2 0-0.3 0.1h-0.2c-0.1 0-0.1 0-0.2 0.1-0.2 0.1-0.4 0.1-0.6 0.2-0.1 0-0.1 0-0.2 0.1 0 0-0.1 0-0.1 0.1-0.4 0.2-0.7 0.3-1.1 0.5l-135.8 78.4c-0.5 0.3-1.1 0.7-1.6 1.1-0.2 0.1-0.3 0.3-0.5 0.4-0.2 0.2-0.5 0.4-0.7 0.7-0.1 0.1-0.2 0.2-0.3 0.4l-0.3 0.3-0.3 0.3c-0.2 0.3-0.5 0.6-0.7 0.9-0.1 0.1-0.2 0.2-0.2 0.3 0 0.1-0.1 0.1-0.1 0.2-0.1 0.1-0.1 0.2-0.2 0.3-0.2 0.2-0.3 0.5-0.5 0.7-0.2 0.2-0.3 0.5-0.4 0.7v0.2l-0.3 0.6c-0.1 0.2-0.3 0.5-0.4 0.7-0.1 0.2-0.2 0.4-0.3 0.7-0.1 0.3-0.2 0.5-0.3 0.8-0.1 0.3-0.2 0.5-0.3 0.8 0 0.1-0.1 0.3-0.1 0.4 0 0.1 0 0.1-0.1 0.2 0 0.1-0.1 0.2-0.1 0.3-0.1 0.3-0.2 0.7-0.2 1 0 0.2-0.1 0.4-0.1 0.6 0 0.1 0 0.2-0.1 0.3 0 0.1 0 0.2-0.1 0.3-0.1 0.6-0.1 1.1-0.1 1.7 0 1.3 0.2 2.5 0.7 3.4 0.4 0.9 1.1 1.6 1.8 2.1l10.8 6.3c-1.5-0.9-2.5-2.8-2.5-5.5 0-0.6 0.1-1.3 0.2-2 0-0.1 0-0.2 0.1-0.3 0.1-0.6 0.2-1.2 0.4-1.9 0-0.1 0-0.1 0.1-0.2 0.2-0.7 0.5-1.4 0.7-2 0.3-0.7 0.6-1.4 1-2v-0.1l1.2-1.8c0-0.1 0.1-0.1 0.1-0.2 0.4-0.5 0.8-1 1.3-1.5l0.3-0.3c0.3-0.4 0.7-0.7 1.1-1 0.2-0.1 0.3-0.3 0.5-0.4 0.5-0.4 1.1-0.8 1.6-1.1L596 278.2c0.4-0.2 0.7-0.4 1.1-0.5 0.1 0 0.2-0.1 0.3-0.1 0.2-0.1 0.4-0.1 0.6-0.2 0.1 0 0.3-0.1 0.4-0.1 0.1 0 0.2-0.1 0.3-0.1 0.2 0 0.3-0.1 0.5-0.1H600.2c0.2 0 0.4 0 0.6 0.1h0.2c0.2 0 0.3 0.1 0.5 0.1 0 0 0.1 0 0.1 0.1l0.6 0.3-10.8-6.4z" fill="#ACC5EA" /><path d="M596 278.2c4.7-2.7 8.6-0.5 8.6 4.9s-3.8 12.1-8.5 14.8l-135.8 78.4c-4.7 2.7-8.6 0.5-8.6-4.9s3.8-12.1 8.5-14.8L596 278.2z" fill="#FFFFFF" /><path d="M591.4 332.8c-0.1 0-0.1-0.1 0 0-0.2-0.1-0.3-0.2-0.5-0.2h-0.1s-0.1 0-0.1-0.1c-0.1 0-0.1-0.1-0.2-0.1s-0.2 0-0.2-0.1h-0.2-0.1c-0.2 0-0.3 0-0.5-0.1h-0.5-0.8c-0.1 0-0.2 0-0.3 0.1h-0.2c-0.1 0-0.1 0-0.2 0.1-0.2 0.1-0.4 0.1-0.6 0.2-0.1 0-0.1 0-0.2 0.1 0 0-0.1 0-0.1 0.1-0.4 0.2-0.7 0.3-1.1 0.5l-135.8 78.4c-0.5 0.3-1.1 0.7-1.6 1.1-0.2 0.1-0.3 0.3-0.5 0.4-0.2 0.2-0.5 0.4-0.7 0.7-0.1 0.1-0.2 0.2-0.3 0.4l-0.3 0.3-0.3 0.3c-0.2 0.3-0.5 0.6-0.7 0.9-0.1 0.1-0.2 0.2-0.2 0.3 0 0.1-0.1 0.1-0.1 0.2-0.1 0.1-0.1 0.2-0.2 0.3-0.2 0.2-0.3 0.5-0.5 0.7-0.2 0.2-0.3 0.5-0.4 0.7v0.2l-0.3 0.6c-0.1 0.2-0.3 0.5-0.4 0.7-0.1 0.2-0.2 0.4-0.3 0.7v0.1c-0.1 0.3-0.2 0.5-0.3 0.8-0.1 0.3-0.2 0.5-0.3 0.8 0 0.1-0.1 0.3-0.1 0.4 0 0.1 0 0.1-0.1 0.2 0 0.1-0.1 0.2-0.1 0.3-0.1 0.3-0.2 0.7-0.2 1 0 0.2-0.1 0.4-0.1 0.6 0 0.1 0 0.2-0.1 0.3 0 0.1 0 0.2-0.1 0.3-0.1 0.6-0.1 1.1-0.1 1.7 0 2.7 1 4.6 2.5 5.5l10.8 6.3c-1.5-0.9-2.5-2.8-2.5-5.5 0-0.6 0.1-1.3 0.2-2 0-0.1 0-0.2 0.1-0.3 0.1-0.6 0.2-1.2 0.4-1.9 0-0.1 0-0.1 0.1-0.2 0.2-0.7 0.5-1.4 0.7-2 0.3-0.7 0.6-1.3 1-2v-0.1l1.2-1.8c0-0.1 0.1-0.1 0.1-0.2 0.4-0.5 0.8-1 1.3-1.5l0.3-0.3c0.3-0.4 0.7-0.7 1.1-1 0.2-0.1 0.3-0.3 0.5-0.4 0.5-0.4 1.1-0.8 1.6-1.1L596 339.6c0.4-0.2 0.7-0.4 1.1-0.5 0.1 0 0.2-0.1 0.3-0.1 0.2-0.1 0.4-0.1 0.6-0.2 0.1 0 0.3-0.1 0.4-0.1 0.1 0 0.2-0.1 0.4-0.1s0.3-0.1 0.5-0.1H600.3c0.2 0 0.4 0 0.6 0.1h0.2c0.2 0 0.3 0.1 0.5 0.1 0 0 0.1 0 0.1 0.1l0.6 0.3-10.9-6.3z" fill="#ACC5EA" /><path d="M596 339.6c4.7-2.7 8.6-0.5 8.6 4.9s-3.8 12.1-8.5 14.8l-135.8 78.4c-4.7 2.7-8.6 0.5-8.6-4.9s3.8-12.1 8.5-14.8L596 339.6z" fill="#FFFFFF" /><path d="M521.1 425.8c4.7-2.7 8.6-0.5 8.6 4.9s-3.8 12.1-8.5 14.8l-76.2 44c-4.7 2.7-8.6 0.5-8.6-4.9s3.8-12.1 8.5-14.8l76.2-44z" fill="#2828CE" /><path d="M543 435.8l-10.8-6.3c-0.1-0.1-0.3-0.1-0.4-0.2h-0.1s-0.1 0-0.1-0.1c-0.1 0-0.1-0.1-0.2-0.1s-0.2 0-0.2-0.1h-0.2-0.1c-0.2 0-0.3 0-0.5-0.1h-0.5-0.8c-0.1 0-0.2 0-0.4 0.1h-0.2c-0.1 0-0.1 0-0.2 0.1-0.2 0.1-0.4 0.1-0.6 0.2-0.1 0-0.1 0-0.2 0.1 0 0-0.1 0-0.1 0.1-0.4 0.2-0.7 0.3-1.1 0.5l-76.2 44 10.8 6.3 76.2-44c0.4-0.2 0.7-0.4 1.1-0.5 0.1 0 0.2-0.1 0.3-0.1 0.2-0.1 0.4-0.1 0.6-0.2 0.1 0 0.3-0.1 0.4-0.1 0.1 0 0.2-0.1 0.4-0.1s0.3-0.1 0.5-0.1H541.4c0.2 0 0.4 0 0.6 0.1h0.2c0.2 0 0.3 0.1 0.5 0.1 0 0 0.1 0 0.1 0.1-0.1 0.1 0.1 0.2 0.2 0.3zM448.4 475.3c-0.2 0.1-0.3 0.3-0.5 0.4-0.3 0.2-0.5 0.4-0.7 0.7-0.1 0.1-0.2 0.2-0.3 0.4l-0.3 0.3-0.3 0.3c-0.2 0.3-0.5 0.6-0.7 0.8-0.1 0.1-0.2 0.2-0.2 0.3 0 0.1-0.1 0.1-0.1 0.2-0.1 0.1-0.1 0.2-0.2 0.3-0.2 0.2-0.3 0.5-0.5 0.7-0.2 0.2-0.3 0.5-0.4 0.7v0.2l-0.3 0.6c-0.1 0.2-0.3 0.5-0.4 0.7-0.1 0.2-0.2 0.4-0.3 0.7-0.1 0.3-0.2 0.5-0.3 0.8-0.1 0.3-0.2 0.5-0.3 0.8 0 0.1-0.1 0.3-0.1 0.4 0 0.1 0 0.1-0.1 0.2 0 0.1-0.1 0.2-0.1 0.3-0.1 0.3-0.2 0.7-0.2 1 0 0.2-0.1 0.4-0.1 0.6 0 0.1 0 0.2-0.1 0.3v0.3c-0.1 0.6-0.1 1.1-0.1 1.7 0 2.7 1 4.6 2.5 5.5l10.8 6.3c-1.5-0.9-2.5-2.8-2.5-5.5 0-0.6 0.1-1.3 0.2-2 0-0.1 0-0.2 0.1-0.3 0.1-0.6 0.2-1.2 0.4-1.9 0-0.1 0-0.1 0.1-0.2 0.2-0.7 0.5-1.4 0.7-2 0.3-0.7 0.6-1.4 1-2v-0.1l1.2-1.8c0-0.1 0.1-0.1 0.1-0.2 0.4-0.5 0.8-1 1.3-1.5l0.3-0.3c0.3-0.4 0.7-0.7 1.1-1 0.2-0.1 0.3-0.3 0.5-0.4 0.5-0.4 1.1-0.8 1.6-1.1l-10.8-6.3c-1 0.3-1.5 0.6-2 1.1z" fill="#ACC5EA" /><path d="M536.9 436.4c4.7-2.7 8.6-0.5 8.6 4.9s-3.8 12.1-8.5 14.8l-76.2 44c-4.7 2.7-8.6 0.5-8.6-4.9s3.8-12.1 8.5-14.8l76.2-44z" fill="#FFFFFF" /><path d="M750.9 454.4l-14.8-8.6c0.1 0 0.2 0.1 0.4 0.1l14.8 8.6c-0.2 0-0.3-0.1-0.4-0.1" fill="#A8871E" /><path d="M751.2 454.5l-14.8-8.6 0.6 0.3 14.8 8.6-0.6-0.3" fill="#A3831D" /><path d="M751.8 454.8l-14.8-8.6h0.1l14.7 8.6" fill="#9E7F1D" /><path d="M639.4 613.4l-14.8-8.6c-0.4-0.5-0.8-0.8-1.3-1.1l14.8 8.6c0.5 0.3 0.9 0.7 1.3 1.1" fill="#856B18" /><path d="M732 443.6l-14.8-8.6 18.9 10.8 14.8 8.6z" fill="#9E7F1D" /><path d="M713.1 395.9c-0.2-0.1-0.4-0.2-0.5-0.2-0.1-0.1-0.2-0.1-0.4-0.2-0.1 0-0.1-0.1-0.2-0.1s-0.1 0-0.2-0.1c-0.2-0.1-0.4-0.1-0.7-0.2h-0.1c-0.3 0-0.5-0.1-0.8-0.1H708.2c-0.2 0-0.4 0.1-0.5 0.1-0.2 0-0.4 0.1-0.6 0.1h-0.1c-0.1 0-0.3 0.1-0.4 0.1-0.4 0.1-0.7 0.2-1.1 0.4-0.1 0-0.2 0.1-0.3 0.1-0.2 0.1-0.4 0.1-0.5 0.2-0.1 0.1-0.3 0.1-0.4 0.2-0.5 0.2-0.9 0.5-1.4 0.7l-20 11.5c-0.6 0.4-1.3 0.7-1.9 1-0.1 0-0.1 0.1-0.2 0.1-0.4 0.2-0.9 0.3-1.3 0.4-0.2 0.1-0.4 0.1-0.6 0.1-0.1 0-0.3 0.1-0.4 0.1-0.3 0.1-0.6 0.1-0.9 0.1h-1.1c-0.3 0-0.5-0.1-0.8-0.2h-0.1c-0.3-0.1-0.5-0.2-0.8-0.4l14.8 8.6h0.1c0.2 0.1 0.3 0.2 0.5 0.2 0.1 0 0.2 0.1 0.2 0.1h0.2c0.2 0.1 0.4 0.1 0.5 0.1H692.4c0.3 0 0.5 0 0.8-0.1h0.1c0.1 0 0.3-0.1 0.4-0.1 0.2 0 0.3-0.1 0.5-0.1h0.1c0.4-0.1 0.8-0.3 1.3-0.4h0.1s0.1 0 0.1-0.1c0.6-0.3 1.3-0.6 1.9-1l20-11.5c0.5-0.3 0.9-0.5 1.4-0.7 0.1-0.1 0.3-0.1 0.4-0.2 0.3-0.1 0.5-0.2 0.8-0.3 0.4-0.1 0.8-0.3 1.1-0.4 0.2-0.1 0.4-0.1 0.5-0.2 0.2-0.1 0.4-0.1 0.6-0.1 0.2-0.1 0.5-0.1 0.7-0.1H724.7c0.4 0 0.7 0 1 0.1h0.1c0.3 0.1 0.6 0.1 0.9 0.2 0.1 0 0.1 0 0.2 0.1 0.3 0.1 0.6 0.3 0.9 0.4l-14.7-8.2zM595.9 616.9l-0.1-23c0-4-2.3-6.7-4.6-8l-14.8-8.6c2.3 1.4 4.6 4 4.6 8l9.9 5.7-9.9-5.7 0.1 23c0 2.9 0.6 5.3 1.6 7 0.6 1 1.4 1.8 2.3 2.3l14.8 8.6c-2.5-1.4-3.9-4.6-3.9-9.3z" fill="#C68620" /><path d="M664.2 410c3.5-2 7.1-2.4 10-0.7l14.2 8.1c2.4 2.7 5.9 2 9.4 0l20-11.5c8.2-4.8 14.1-1.4 14.2 8.1l0.1 29.7 18.9 10.8c5.9 2 5.9 12.8-1.1 23.6l-14.1 24.4c-3.5 4.7-4.7 9.5-4.7 13.5l0.1 23c0 9.5-5.8 19.6-14.1 24.4l-20 11.5c-3.5 2-7.1 6.8-9.4 10.8L673.6 610c-2.9 5.1-6.4 8.8-10 10.8-3.5 2-7.1 2.4-10 0.7l-14.1-8.1c-2.4-2.7-5.9-2-9.4 0L610 625c-8.2 4.8-14.1 1.4-14.2-8.1l-0.1-23c0-4.1-2.4-6.8-4.7-8.1l-14.2-8.1c-5.9-3.4-5.9-12.8-0.1-23l14.1-25.7c3.5-4.7 4.7-9.5 4.7-13.5l-0.1-23c0-9.5 5.8-19.6 14.1-24.4l20-11.5c3.5-2 7.1-6.8 10.6-11.5l14.1-24.4c2.9-4.9 6.5-8.6 10-10.7z" fill="#FFCD2E" /><path d="M691.9 456.3l1.9 4c-20.1 33.6-36.6 74.1-41.7 92.9l-30.4-19 7.7-11.8 17.6 6.1c7.1-14.3 23-43.6 44.9-72.2zM673.5 408.8l-14.2-8.1c-0.3-0.2-0.6-0.3-0.9-0.4 0 0-0.1 0-0.1-0.1-0.1 0-0.2-0.1-0.3-0.1-0.1-0.1-0.3-0.1-0.4-0.2-0.1 0-0.3-0.1-0.4-0.1-0.1 0-0.2 0-0.3-0.1h-0.2c-0.3-0.1-0.6-0.1-0.9-0.1h-2c-0.1 0-0.2 0-0.3 0.1-0.2 0-0.4 0.1-0.5 0.1-0.1 0-0.2 0-0.3 0.1-0.1 0-0.2 0.1-0.3 0.1l-0.9 0.3c-0.1 0-0.2 0.1-0.3 0.1-0.1 0-0.1 0.1-0.2 0.1-0.5 0.2-1.1 0.5-1.6 0.8-0.4 0.2-0.8 0.5-1.2 0.8-0.1 0.1-0.3 0.2-0.4 0.3-0.3 0.2-0.6 0.4-0.8 0.6-0.1 0.1-0.3 0.2-0.4 0.4-0.3 0.2-0.5 0.5-0.8 0.7l-0.4 0.4c-0.1 0.1-0.2 0.1-0.2 0.2-0.1 0.1-0.2 0.2-0.3 0.4-0.3 0.3-0.6 0.6-0.9 1l-0.3 0.3c-0.1 0.1-0.2 0.3-0.3 0.4-0.2 0.2-0.4 0.4-0.6 0.7-0.1 0.1-0.2 0.2-0.3 0.4-0.1 0.2-0.3 0.3-0.4 0.5-0.1 0.2-0.3 0.4-0.4 0.6-0.1 0.1-0.1 0.2-0.2 0.3-0.2 0.3-0.4 0.6-0.6 0.8-0.1 0.1-0.2 0.3-0.3 0.4l-0.1 0.1c-0.3 0.5-0.6 1-0.9 1.4 0 0.1-0.1 0.1-0.1 0.2l-14.1 24.4-2.7 3.6c-0.3 0.3-0.5 0.6-0.8 1-0.2 0.2-0.3 0.4-0.5 0.6-0.3 0.4-0.7 0.8-1 1.2l-0.3 0.3-0.1 0.1c-0.5 0.6-1.1 1.2-1.6 1.7l-0.5 0.5c-0.4 0.3-0.7 0.7-1.1 1-0.2 0.1-0.3 0.3-0.5 0.4-0.5 0.4-1 0.8-1.5 1.1l-20 11.5c-0.9 0.5-1.7 1.1-2.5 1.7-0.1 0.1-0.2 0.1-0.3 0.2-0.8 0.6-1.5 1.2-2.2 1.9l-0.2 0.2c-0.1 0.1-0.1 0.2-0.2 0.2-0.3 0.3-0.7 0.7-1 1.1l-0.3 0.3-0.1 0.1c-0.1 0.2-0.3 0.4-0.4 0.5-0.2 0.2-0.4 0.4-0.5 0.6-0.1 0.1-0.1 0.2-0.2 0.2-0.1 0.1-0.2 0.3-0.3 0.4-0.1 0.2-0.2 0.3-0.4 0.5-0.1 0.2-0.2 0.3-0.3 0.5-0.1 0.1-0.2 0.3-0.3 0.4-0.1 0.1-0.1 0.2-0.2 0.2-0.2 0.4-0.4 0.7-0.7 1.1v0.1c0 0.1-0.1 0.1-0.1 0.2-0.2 0.3-0.3 0.5-0.4 0.8-0.1 0.2-0.2 0.3-0.2 0.5-0.1 0.1-0.1 0.2-0.2 0.4 0 0.1-0.1 0.2-0.1 0.3-0.2 0.4-0.4 0.7-0.5 1.1v0.1c0 0.1-0.1 0.2-0.1 0.3-0.1 0.3-0.2 0.6-0.3 0.8-0.1 0.1-0.1 0.3-0.2 0.5s-0.1 0.3-0.2 0.5c0 0.1-0.1 0.2-0.1 0.4l-0.3 0.9c0 0.1-0.1 0.3-0.1 0.4v0.1c-0.1 0.4-0.2 0.7-0.3 1.1 0 0.2-0.1 0.3-0.1 0.5v0.1c0 0.1 0 0.2-0.1 0.3-0.1 0.5-0.2 1.1-0.3 1.6v0.5c-0.1 1-0.2 1.9-0.2 2.9l0.1 23c0 0.8-0.1 1.6-0.2 2.5v0.4c0 0.3-0.1 0.6-0.2 0.9 0 0.3-0.1 0.5-0.2 0.8 0 0.1-0.1 0.3-0.1 0.4l-0.3 1.2c0 0.1-0.1 0.2-0.1 0.3-0.2 0.5-0.3 1-0.6 1.5 0 0.1-0.1 0.1-0.1 0.2-0.2 0.5-0.5 1-0.7 1.5 0 0.1-0.1 0.1-0.1 0.2-0.3 0.5-0.6 1.1-0.9 1.6 0 0.1-0.1 0.1-0.1 0.2-0.4 0.6-0.7 1.1-1.2 1.7L562 546.2c-0.2 0.4-0.5 0.9-0.7 1.3-0.1 0.1-0.1 0.3-0.2 0.4-0.1 0.2-0.2 0.3-0.3 0.5-0.1 0.2-0.2 0.3-0.3 0.5-0.1 0.3-0.2 0.5-0.4 0.8-0.1 0.1-0.1 0.3-0.2 0.4 0 0.1-0.1 0.1-0.1 0.2-0.2 0.5-0.4 0.9-0.6 1.3v0.1c0 0.1-0.1 0.3-0.1 0.4l-0.3 0.9c0 0.1-0.1 0.3-0.1 0.4-0.1 0.2-0.1 0.4-0.2 0.6 0 0.2-0.1 0.3-0.1 0.5-0.1 0.2-0.1 0.4-0.1 0.5-0.1 0.2-0.1 0.5-0.2 0.7 0 0.1-0.1 0.2-0.1 0.3 0 0.2-0.1 0.3-0.1 0.5-0.1 0.3-0.1 0.7-0.2 1 0 0.1 0 0.2-0.1 0.3v0.4c0 0.4-0.1 0.8-0.1 1.1v2.3c0 0.5 0.1 1.1 0.2 1.5v0.1c0.1 0.5 0.2 0.9 0.4 1.3 0.1 0.1 0.1 0.3 0.2 0.4 0.1 0.3 0.3 0.6 0.4 0.9 0.1 0.2 0.2 0.3 0.3 0.4 0.2 0.3 0.3 0.5 0.5 0.7 0.1 0.1 0.2 0.3 0.3 0.4 0.2 0.2 0.4 0.5 0.7 0.7l0.3 0.3c0.4 0.3 0.7 0.6 1.1 0.8l14.8 8.6c-0.4-0.2-0.8-0.5-1.1-0.8l-0.3-0.3-0.7-0.7c-0.1-0.1-0.2-0.3-0.3-0.4-0.2-0.2-0.3-0.5-0.5-0.7-0.1-0.1-0.2-0.3-0.3-0.4-0.1-0.3-0.3-0.6-0.4-0.9-0.1-0.1-0.1-0.3-0.2-0.4-0.1-0.4-0.3-0.8-0.4-1.3v-0.1c-0.1-0.5-0.2-1-0.2-1.5v-0.5-1.2-0.6c0-0.4 0-0.8 0.1-1.1 0-0.2 0.1-0.5 0.1-0.7 0-0.3 0.1-0.7 0.2-1 0.1-0.3 0.1-0.5 0.2-0.8 0.1-0.2 0.1-0.5 0.2-0.7 0.1-0.3 0.2-0.7 0.3-1 0.1-0.2 0.1-0.4 0.2-0.6 0.1-0.4 0.3-0.8 0.4-1.2 0-0.1 0.1-0.2 0.1-0.4 0.2-0.5 0.4-1.1 0.7-1.6 0.1-0.1 0.1-0.3 0.2-0.4 0.2-0.4 0.4-0.9 0.6-1.3 0.1-0.2 0.2-0.3 0.3-0.5 0.3-0.6 0.6-1.1 0.9-1.7l-9.9-5.7 9.9 5.7 14.1-25.7c0.2-0.2 0.3-0.4 0.4-0.6l0.6-0.9c0-0.1 0.1-0.1 0.1-0.2s0.1-0.1 0.1-0.2c0.1-0.2 0.2-0.4 0.3-0.5 0.2-0.3 0.3-0.6 0.5-0.8 0-0.1 0.1-0.1 0.1-0.2s0.1-0.1 0.1-0.2c0.1-0.1 0.2-0.3 0.2-0.4 0.1-0.3 0.3-0.6 0.4-0.8 0-0.1 0.1-0.2 0.1-0.3 0-0.1 0.1-0.1 0.1-0.2 0.1-0.1 0.1-0.3 0.2-0.4l0.3-0.9c0-0.1 0-0.1 0.1-0.2 0-0.1 0.1-0.2 0.1-0.3 0.1-0.2 0.1-0.4 0.2-0.6 0.1-0.2 0.1-0.4 0.2-0.6 0-0.1 0.1-0.3 0.1-0.4v-0.2c0-0.2 0.1-0.4 0.1-0.6 0.1-0.3 0.1-0.6 0.2-0.9v-0.2-0.3c0.1-0.9 0.2-1.7 0.2-2.5l-0.1-23c0-1 0.1-1.9 0.2-2.9v-0.5c0.1-0.5 0.2-1.1 0.3-1.6 0-0.1 0-0.3 0.1-0.4 0-0.2 0.1-0.3 0.1-0.5l0.3-1.2c0-0.1 0.1-0.3 0.1-0.4 0.1-0.4 0.2-0.8 0.4-1.2 0.1-0.2 0.1-0.3 0.2-0.5 0.2-0.4 0.3-0.9 0.5-1.3 0-0.1 0.1-0.2 0.1-0.2 0.2-0.5 0.4-1 0.7-1.5 0.1-0.1 0.1-0.2 0.2-0.3 0.2-0.4 0.5-0.9 0.7-1.3 0-0.1 0.1-0.1 0.1-0.2 0.3-0.5 0.6-0.9 0.9-1.4 0.1-0.1 0.2-0.3 0.3-0.4 0.2-0.3 0.5-0.7 0.7-1 0.1-0.1 0.2-0.3 0.3-0.4 0.2-0.3 0.5-0.6 0.7-0.9 0.1-0.2 0.3-0.4 0.4-0.5 0.1-0.2 0.3-0.3 0.4-0.5 0.3-0.4 0.7-0.7 1-1.1l0.4-0.4c0.7-0.7 1.4-1.3 2.2-1.9 0.1-0.1 0.2-0.1 0.3-0.2 0.8-0.6 1.6-1.2 2.5-1.7l20-11.5c0.5-0.3 1-0.7 1.5-1.1 0.2-0.1 0.3-0.3 0.5-0.4 0.4-0.3 0.7-0.6 1.1-1 0.1-0.1 0.2-0.1 0.3-0.2l0.2-0.2c0.5-0.5 1.1-1.1 1.6-1.7l0.1-0.1c0.1-0.1 0.2-0.3 0.3-0.4 0.3-0.4 0.6-0.7 1-1.1 0.2-0.2 0.3-0.4 0.5-0.6 0.2-0.3 0.5-0.6 0.7-0.9 0 0 0-0.1 0.1-0.1l2.7-3.6 14.1-24.4c0.3-0.6 0.7-1.2 1.1-1.7 0.1-0.1 0.2-0.3 0.3-0.4 0.3-0.4 0.5-0.8 0.8-1.1 0.1-0.2 0.3-0.4 0.4-0.6 0.2-0.3 0.5-0.6 0.7-0.9 0.2-0.2 0.4-0.5 0.6-0.7 0.2-0.2 0.4-0.5 0.6-0.7 0.3-0.3 0.6-0.7 0.9-1l0.6-0.6 0.4-0.4c0.3-0.2 0.5-0.5 0.8-0.7l0.4-0.4c0.3-0.2 0.6-0.4 0.8-0.6 0.1-0.1 0.3-0.2 0.4-0.3 0.4-0.3 0.8-0.5 1.2-0.8 0.5-0.3 1.1-0.6 1.6-0.8 0.2-0.1 0.4-0.1 0.5-0.2l0.9-0.3c0.2-0.1 0.4-0.1 0.6-0.2 0.2 0 0.4-0.1 0.5-0.1 0.3 0 0.5-0.1 0.8-0.1h1.5c0.4 0 0.7 0.1 1.1 0.1 0.1 0 0.2 0 0.3 0.1 0.3 0.1 0.5 0.1 0.8 0.2 0.1 0 0.2 0.1 0.3 0.1 0.4 0.1 0.7 0.3 1 0.5l14.2 8.1-14.9-8.8z" fill="#C68620" /><path d="M661.3 534.3c0.1-0.2 0.2-0.3 0.3-0.5 0.5-1 1-1.9 1.6-3 0.3-0.6 0.7-1.3 1-1.9 0.3-0.6 0.7-1.2 1-1.9 0.4-0.7 0.8-1.4 1.1-2.1 0.4-0.7 0.7-1.3 1.1-2 0.4-0.7 0.8-1.4 1.2-2.2l1.2-2.1c0.4-0.7 0.9-1.5 1.3-2.3 0.4-0.7 0.8-1.5 1.3-2.2 0.3-0.5 0.5-0.9 0.8-1.4l1.8-3c0.3-0.6 0.7-1.1 1-1.7 0.6-0.9 1.1-1.9 1.7-2.8 0.4-0.6 0.8-1.2 1.2-1.9 0.6-0.9 1.2-1.9 1.8-2.8 0.4-0.6 0.8-1.3 1.2-1.9 0.4-0.7 0.8-1.3 1.3-2 1.4-2.2 2.8-4.4 4.3-6.6 0.2-0.2 0.3-0.4 0.4-0.7 1.6-2.4 3.2-4.8 4.9-7.2 0.5-0.6 0.9-1.3 1.4-1.9 1-1.4 2-2.9 3.1-4.3 0.5-0.7 0.9-1.3 1.4-2 1.5-2.1 3-4.1 4.6-6.2l-10.8-6.3c-1.6 2.1-3.1 4.1-4.6 6.2-0.5 0.7-0.9 1.3-1.4 1.9-1.1 1.4-2.1 2.9-3.1 4.3-0.3 0.4-0.5 0.7-0.8 1.1l-0.6 0.9c-1.7 2.4-3.3 4.8-4.9 7.2-0.2 0.2-0.3 0.4-0.4 0.7-1.5 2.2-2.9 4.4-4.3 6.6l-0.6 0.9c-0.2 0.4-0.5 0.7-0.7 1.1-0.4 0.7-0.8 1.3-1.2 1.9-0.6 1-1.2 1.9-1.8 2.8-0.4 0.6-0.8 1.3-1.2 1.9-0.6 1-1.2 1.9-1.7 2.8-0.3 0.6-0.7 1.1-1 1.7l-1.8 3c-0.3 0.5-0.6 0.9-0.8 1.4-0.1 0.1-0.1 0.2-0.2 0.3-0.4 0.6-0.7 1.3-1.1 1.9-0.5 0.8-0.9 1.6-1.3 2.3l-1.2 2.1c-0.4 0.7-0.8 1.5-1.2 2.2-0.4 0.7-0.7 1.3-1.1 2-0.4 0.7-0.8 1.4-1.1 2.1-0.3 0.6-0.7 1.2-1 1.8-0.4 0.7-0.7 1.3-1 1.9-0.1 0.1-0.1 0.2-0.2 0.3-0.5 0.9-0.9 1.8-1.4 2.6-0.1 0.2-0.2 0.4-0.3 0.5l-1.2 2.4c-0.1 0.2-0.2 0.5-0.4 0.7-0.4 0.9-0.9 1.7-1.3 2.5l-17.6-6.1-7.7 11.8 10.8 6.3 7.7-11.8 17.6 6.1c0.4-0.8 0.8-1.6 1.3-2.5 0.1-0.2 0.2-0.5 0.4-0.7 0.4-0.6 0.8-1.4 1.2-2.2z" fill="#E8CFAC" /><path d="M663.5 564.7l-10.7-6.3-30.4-19 10.7 6.2z" fill="#808080" /><path d="M703.4 467.8l1.9 4c-20.1 33.6-36.6 74.1-41.7 92.9l-30.4-19 7.7-11.8 17.6 6.1c7.1-14.3 23-43.6 44.9-72.2z" fill="#FFFFFF" /></svg>