<?xml version="1.0" encoding="utf-8"?>
<!-- Uploaded to: SVG Repo, www.svgrepo.com, Generator: SVG Repo Mixer Tools -->
<svg width="800px" height="800px" viewBox="0 0 1024 1024" class="icon"  version="1.1" xmlns="http://www.w3.org/2000/svg"><path d="M906.3 554.2c-1.1 11-11.2 16.5-19.8 21.5-8 4.6-16 9.3-23.9 13.9-12.8 7.4-25.5 14.8-38.3 22.2-16 9.3-31.9 18.6-47.9 27.8-17.6 10.2-35.2 20.5-52.9 30.7-17.7 10.3-35.4 20.6-53.2 30.9-16.3 9.5-32.5 18.9-48.8 28.4-13.3 7.7-26.5 15.4-39.8 23.1-8.7 5-17.4 10.1-26.1 15.1-6.6 3.8-12.8 7.6-20.3 9.8-19.5 5.6-41.1 3.7-58.7-6.5-6.3-3.7-12.7-7.3-19-11-11.6-6.7-23.1-13.3-34.7-20-15.2-8.8-30.4-17.6-45.6-26.3-17.3-10-34.7-20-52-30-17.9-10.3-35.8-20.7-53.7-31-16.9-9.8-33.8-19.5-50.8-29.3l-43.2-24.9c-10.3-6-20.7-11.9-31-17.9-4.7-2.7-9.4-5.4-14.1-8.2-7.4-4.3-14.7-11.1-14.7-20.3 0 8.4 0 16.8-0.1 25.3 0 3-0.2 6.1 0 9.2 0.6 8.1 7 14.4 13.7 18.4 4.1 2.5 8.3 4.8 12.5 7.2 10.8 6.2 21.6 12.5 32.4 18.7 15.6 9 31.1 18 46.7 27 18.5 10.7 37.1 21.4 55.6 32.1 19.3 11.2 38.6 22.3 58 33.5 18.4 10.6 36.7 21.2 55.1 31.8 15.3 8.8 30.5 17.6 45.8 26.4 10.3 6 20.7 11.9 31 17.9 6 3.4 11.9 7.3 18.4 9.7 20.3 7.4 44.1 5.8 62.8-5.1 7.1-4.1 14.2-8.3 21.3-12.4 13.1-7.6 26.2-15.2 39.2-22.8 17.1-9.9 34.1-19.8 51.2-29.8 19.1-11.1 38.2-22.2 57.2-33.3l57.3-33.3c17.1-10 34.2-19.9 51.4-29.9 13.3-7.7 26.6-15.4 39.9-23.2 7.3-4.3 14.7-8.5 22-12.8 2.2-1.3 4.5-2.6 6.6-4.1 5.6-4.2 10-10 10.1-17.3 0.1-3.7 0-7.3 0-11 0-7.3 0-14.7 0.1-22 0.4 0.7 0.3 1.3 0.3 1.8-0.1 0.2 0-0.3 0 0zM906.4 552.6z" fill="#7A9EFD" /><path d="M892 532.6c19 11 19.1 28.9 0.2 39.9L547.9 772.7c-18.9 11-49.8 11-68.8 0L132.3 572.5c-19-11-19.1-28.9-0.2-39.9l344.4-200.2c18.9-11 49.8-11 68.8 0L892 532.6z" fill="#E4ECF9" /><path d="M349.5 587.4v-4.2l-16.4-9.5v4.2c0 4.8 0.9 8.8 2.4 12.1 1.5 3.3 3.7 5.7 6.4 7.3l16.4 9.5c-5.4-3.2-8.7-9.9-8.8-19.4z" fill="#2A2ABC" /><path d="M349.5 583.2l-16.3-9.5 228.5-132 16.4 9.5z" fill="#2A2ABC" /><path d="M578.1 451.2v4.2c0.1 19.2-13.4 42.5-30.2 52.2l-168 97c-16.7 9.7-30.3 1.9-30.3-17.3v-4.2l228.5-131.9z" fill="#4040FF" /><path d="M591.1 219.1c0.4-0.2 0.7-0.3 1.1-0.4 0.6-0.2 1.1-0.4 1.6-0.6 0.3-0.1 0.7-0.2 1-0.3 0.3-0.1 0.6-0.1 0.9-0.2 0.4-0.1 0.8-0.1 1.2-0.2 0.2 0 0.4 0 0.6-0.1h1.7c0.6 0 1.1 0.1 1.6 0.2 0.1 0 0.3 0.1 0.4 0.1l1.2 0.3c0.1 0 0.2 0.1 0.4 0.1 0.5 0.2 1 0.4 1.4 0.7l-16.4-9.5s-0.1 0-0.1-0.1c-0.4-0.2-0.7-0.4-1.1-0.5-0.1 0-0.1 0-0.2-0.1-0.1 0-0.2-0.1-0.4-0.1-0.2-0.1-0.4-0.1-0.6-0.2-0.2-0.1-0.4-0.1-0.6-0.1-0.1 0-0.3-0.1-0.4-0.1h-0.2c-0.4-0.1-0.9-0.1-1.3-0.2H581.1c-0.2 0-0.4 0-0.6 0.1-0.2 0-0.4 0-0.6 0.1-0.2 0-0.4 0.1-0.6 0.1-0.3 0.1-0.6 0.1-0.9 0.2-0.2 0-0.3 0.1-0.5 0.1s-0.3 0.1-0.5 0.2c-0.5 0.2-1.1 0.3-1.6 0.6-0.2 0.1-0.4 0.1-0.5 0.2l-0.6 0.3c-0.2 0.1-0.4 0.2-0.5 0.2-0.7 0.3-1.4 0.7-2.1 1.1-0.4 0.2-0.8 0.5-1.2 0.7-1 0.6-2 1.3-2.9 2.1 0 0-0.1 0-0.1 0.1l-2.7 2.4-0.1 0.1-0.1 0.1c-0.8 0.8-1.6 1.6-2.4 2.5 0 0.1-0.1 0.1-0.1 0.2-0.1 0.1-0.2 0.3-0.4 0.4-0.4 0.5-0.9 1-1.3 1.6-0.3 0.3-0.5 0.7-0.7 1-0.1 0.2-0.3 0.4-0.4 0.5-0.1 0.1-0.2 0.3-0.3 0.4-0.4 0.6-0.9 1.3-1.3 1.9-0.1 0.2-0.3 0.4-0.4 0.7-0.1 0.2-0.2 0.3-0.3 0.5-0.1 0.2-0.3 0.5-0.4 0.7-0.4 0.6-0.7 1.2-1 1.8l-0.3 0.6c-0.1 0.1-0.2 0.3-0.2 0.4-0.1 0.2-0.3 0.5-0.4 0.7-0.3 0.6-0.6 1.2-0.8 1.8-0.1 0.2-0.2 0.5-0.3 0.7-0.1 0.2-0.1 0.3-0.2 0.5s-0.2 0.5-0.3 0.7c-0.3 0.7-0.5 1.3-0.7 2l-0.3 0.9c-0.1 0.5-0.3 0.9-0.4 1.4 0 0.1 0 0.2-0.1 0.3-0.2 0.7-0.4 1.4-0.5 2.1 0 0.1 0 0.2-0.1 0.3-0.2 1-0.4 1.9-0.5 2.8 0 0.1 0 0.2-0.1 0.3v0.3c-0.1 0.9-0.2 1.7-0.2 2.5v3c0 0.7 0.1 1.5 0.2 2.2 0 0.1 0 0.2 0.1 0.4 0.1 0.6 0.2 1.2 0.4 1.8 0 0.1 0.1 0.2 0.1 0.4l0.6 1.8c0.1 0.1 0.1 0.2 0.2 0.4 0.2 0.5 0.5 1 0.8 1.5 0 0.1 0.1 0.1 0.1 0.2 0.3 0.5 0.6 1 1 1.4l0.3 0.3 1.2 1.2-2.2 12.3c-0.2 1.2-0.5 2.3-0.7 3.5-0.2 0.9-0.4 1.8-0.7 2.7-0.2 0.8-0.4 1.5-0.6 2.3l-0.6 2.1c-0.3 0.9-0.6 1.7-0.9 2.6l-0.6 1.8c-0.4 1-0.7 1.9-1.1 2.8l-0.6 1.5c-0.5 1.3-1.1 2.5-1.7 3.8-0.1 0.1-0.1 0.3-0.2 0.4-0.7 1.4-1.4 2.8-2.1 4.1-0.2 0.4-0.5 0.8-0.7 1.3-0.5 0.9-1 1.9-1.6 2.8l-0.9 1.5-1.5 2.4c-0.4 0.6-0.8 1.1-1.1 1.7l-1.5 2.1c-0.5 0.6-0.9 1.3-1.4 1.9-0.5 0.6-0.9 1.2-1.4 1.8-0.6 0.8-1.3 1.6-2 2.4l-1.8 2.1c-0.3 0.3-0.5 0.6-0.8 0.9-1 1.1-2 2.1-3 3.1-0.7 0.6-1.3 1.3-2 1.9-0.5 0.5-1 0.9-1.5 1.4l-2.1 1.8c-0.5 0.4-1 0.8-1.4 1.2-0.8 0.6-1.6 1.2-2.5 1.8l-1.2 0.9c-1.2 0.8-2.5 1.6-3.8 2.4-0.9 0.5-1.8 1-2.8 1.5-0.3 0.1-0.5 0.3-0.8 0.4-0.7 0.3-1.4 0.7-2.1 1-0.2 0.1-0.5 0.2-0.7 0.3-0.7 0.3-1.3 0.5-1.9 0.7-0.1 0.1-0.3 0.1-0.4 0.2-0.8 0.3-1.6 0.5-2.3 0.7-0.4 0.1-0.9 0.2-1.3 0.3-0.2 0.1-0.5 0.1-0.7 0.2l-1.8 0.3h-0.1c-1 0.2-2 0.2-2.9 0.3H490c-0.7-0.1-1.3-0.1-1.9-0.2-0.2 0-0.4-0.1-0.6-0.1-0.7-0.1-1.5-0.3-2.2-0.5h-0.1c-0.7-0.2-1.3-0.4-1.9-0.7-0.2-0.1-0.4-0.2-0.6-0.2-0.5-0.2-1.1-0.5-1.6-0.8-0.2-0.1-0.3-0.2-0.5-0.3l16.4 9.5c0.1 0 0.2 0.1 0.2 0.1 0.1 0.1 0.2 0.1 0.3 0.1 0.5 0.3 1.1 0.5 1.6 0.8 0.1 0 0.2 0.1 0.3 0.1 0.1 0 0.2 0.1 0.3 0.1 0.6 0.3 1.3 0.5 1.9 0.7h0.1c0.7 0.2 1.4 0.4 2.2 0.5 0.1 0 0.2 0 0.2 0.1h0.4c0.6 0.1 1.3 0.2 1.9 0.2h0.4c0.8 0 1.7 0.1 2.5 0h0.5c1-0.1 1.9-0.1 2.9-0.3h0.1c0.6-0.1 1.2-0.2 1.9-0.3 0.2 0 0.4-0.1 0.7-0.2l1.2-0.3h0.1c0.8-0.2 1.5-0.4 2.3-0.7 0.1 0 0.3-0.1 0.4-0.2 0.6-0.2 1.3-0.5 1.9-0.7 0.1 0 0.2-0.1 0.2-0.1 0.2-0.1 0.3-0.1 0.5-0.2 0.7-0.3 1.4-0.6 2.1-1 0.3-0.1 0.5-0.3 0.8-0.4 0.9-0.5 1.8-0.9 2.8-1.5 1.3-0.7 2.5-1.5 3.8-2.4l1.2-0.9c0.8-0.6 1.6-1.2 2.5-1.8 0.5-0.4 1-0.8 1.4-1.2l2.1-1.8c0.5-0.4 1-0.9 1.5-1.4 0.7-0.6 1.3-1.2 2-1.9l0.1-0.1c1-1 1.9-2 2.9-3 0.3-0.3 0.5-0.6 0.8-0.9 0.4-0.4 0.7-0.8 1.1-1.2 0.3-0.3 0.5-0.6 0.7-0.9 0.7-0.8 1.3-1.6 2-2.4 0.3-0.3 0.5-0.6 0.8-1 0.2-0.3 0.4-0.6 0.6-0.8 0.5-0.6 0.9-1.3 1.4-1.9l0.9-1.2c0.2-0.3 0.4-0.6 0.6-1 0.4-0.6 0.8-1.1 1.1-1.7 0.2-0.4 0.5-0.7 0.7-1.1 0.3-0.4 0.5-0.9 0.8-1.3l0.9-1.5c0.2-0.3 0.3-0.5 0.5-0.8 0.4-0.7 0.7-1.3 1.1-2 0.2-0.4 0.5-0.8 0.7-1.3 0.1-0.1 0.1-0.3 0.2-0.4 0.6-1.2 1.3-2.4 1.9-3.7v-0.1c0.1-0.1 0.1-0.3 0.2-0.4 0.5-1.1 1-2.2 1.5-3.2 0.1-0.2 0.1-0.4 0.2-0.5l0.6-1.5c0.3-0.6 0.5-1.3 0.8-1.9 0.1-0.3 0.2-0.6 0.3-1l0.6-1.8c0.2-0.5 0.3-0.9 0.5-1.4 0.1-0.4 0.2-0.8 0.4-1.2l0.6-2.1c0.1-0.4 0.2-0.7 0.3-1.1l0.3-1.2c0.2-0.9 0.5-1.8 0.7-2.7 0.1-0.4 0.2-0.8 0.3-1.1 0.2-0.8 0.3-1.6 0.5-2.3l2.2-12.3-1.2-1.2-0.3-0.3c-0.4-0.4-0.7-0.9-1-1.4 0-0.1-0.1-0.1-0.1-0.2-0.3-0.5-0.5-1-0.8-1.5-0.1-0.1-0.1-0.2-0.2-0.4-0.2-0.6-0.5-1.2-0.6-1.8 0-0.1-0.1-0.2-0.1-0.4-0.2-0.6-0.3-1.2-0.4-1.8 0-0.1 0-0.2-0.1-0.4-0.1-0.7-0.2-1.4-0.2-2.2v-0.5-2.2-0.3c0-0.8 0.1-1.7 0.2-2.5 0-0.2 0.1-0.4 0.1-0.6 0.1-0.9 0.3-1.8 0.5-2.8 0-0.1 0.1-0.2 0.1-0.3 0.2-0.7 0.3-1.4 0.5-2.1 0.2-0.6 0.3-1.1 0.5-1.7 0.4-1.2 0.8-2.4 1.3-3.6 0.1-0.2 0.1-0.3 0.2-0.5l1.5-3.3c0.1-0.1 0.1-0.3 0.2-0.4 0.6-1.1 1.2-2.1 1.8-3.2 0.1-0.2 0.2-0.3 0.3-0.5 0.6-1 1.3-2 2-3 0.1-0.2 0.3-0.4 0.4-0.5 0.6-0.9 1.3-1.7 2-2.6 0.1-0.1 0.2-0.3 0.4-0.4 0.8-1 1.7-1.9 2.6-2.8l0.1-0.1c0.9-0.9 1.8-1.7 2.7-2.4 0 0 0.1 0 0.1-0.1 1-0.8 1.9-1.5 2.9-2.1 0.4-0.3 0.8-0.5 1.2-0.7 0.7-0.4 1.4-0.8 2.1-1.1 0.1 0.3 0.2 0.2 0.4 0.1zM429.8 306.2l-2.1 32.5c-0.1 1.6-0.3 3.2-0.5 4.9 0 0.2-0.1 0.5-0.1 0.7-0.2 1.5-0.5 3-0.8 4.4 0 0.1 0 0.2-0.1 0.3-0.3 1.4-0.6 2.7-1 4.1-0.1 0.3-0.2 0.7-0.3 1-0.4 1.6-1 3.2-1.5 4.9-0.1 0.4-0.3 0.8-0.5 1.3-0.4 1.2-0.9 2.3-1.3 3.5l-0.6 1.5c-0.5 1.2-1 2.3-1.5 3.5-0.2 0.4-0.3 0.8-0.5 1.2-0.7 1.5-1.5 3-2.2 4.5-0.2 0.3-0.3 0.6-0.5 0.9-0.6 1.2-1.3 2.3-2 3.5-0.3 0.5-0.6 0.9-0.9 1.4-0.6 1-1.3 2-1.9 3-0.3 0.5-0.6 1-1 1.4-0.7 1-1.4 1.9-2.1 2.9-0.3 0.5-0.7 0.9-1 1.4-0.6 0.7-1.2 1.4-1.7 2.2-0.6 0.7-1.1 1.4-1.7 2.1-1 1.2-2.1 2.3-3.1 3.4-0.2 0.3-0.5 0.5-0.8 0.8-0.8 0.8-1.6 1.6-2.4 2.3-0.5 0.5-1 1-1.5 1.4-0.8 0.7-1.5 1.3-2.3 2l-1.5 1.2c-0.9 0.7-1.7 1.3-2.6 1.9-0.4 0.3-0.9 0.6-1.3 0.9-1.3 0.9-2.7 1.8-4 2.5-0.9 0.5-1.9 1-2.8 1.5-0.3 0.1-0.5 0.3-0.8 0.4-0.7 0.4-1.4 0.7-2.2 1l-0.6 0.3c-0.7 0.3-1.4 0.6-2.1 0.8-0.1 0-0.2 0.1-0.2 0.1-0.8 0.3-1.6 0.5-2.3 0.7l-1.2 0.3c-0.3 0.1-0.5 0.1-0.8 0.2-0.5 0.1-1 0.2-1.4 0.3-0.2 0-0.4 0.1-0.5 0.1h-0.1c-1 0.1-1.9 0.2-2.8 0.3h-3.6c-0.7-0.1-1.3-0.1-1.9-0.2-0.2 0-0.4-0.1-0.6-0.1-0.7-0.1-1.5-0.3-2.2-0.5-0.1 0-0.1 0-0.2-0.1-0.6-0.2-1.3-0.4-1.9-0.7-0.2-0.1-0.4-0.2-0.6-0.2-0.5-0.2-1.1-0.5-1.6-0.8-0.2-0.1-0.4-0.2-0.5-0.3l16.4 9.5c0.1 0 0.2 0.1 0.2 0.1 0.1 0.1 0.2 0.1 0.3 0.1 0.5 0.3 1.1 0.5 1.6 0.8 0.1 0 0.2 0.1 0.3 0.1 0.1 0 0.2 0.1 0.3 0.1 0.6 0.2 1.2 0.5 1.9 0.7 0.1 0 0.1 0 0.2 0.1 0.7 0.2 1.4 0.4 2.2 0.5 0.1 0 0.2 0 0.2 0.1h0.4c0.6 0.1 1.3 0.2 1.9 0.2h0.4c0.8 0 1.7 0.1 2.5 0h0.5c0.9-0.1 1.9-0.1 2.8-0.3h0.1c0.2 0 0.4-0.1 0.5-0.1 0.5-0.1 0.9-0.2 1.4-0.3 0.3-0.1 0.5-0.1 0.8-0.2 0.4-0.1 0.7-0.2 1.1-0.3h0.2c0.8-0.2 1.5-0.4 2.3-0.7 0.1 0 0.2-0.1 0.2-0.1 0.7-0.2 1.4-0.5 2.1-0.8 0.1 0 0.1 0 0.2-0.1s0.3-0.1 0.4-0.2c0.7-0.3 1.4-0.6 2.2-1 0.3-0.1 0.5-0.2 0.8-0.4 0.9-0.5 1.8-1 2.8-1.5 1.3-0.8 2.7-1.6 4-2.5 0.4-0.3 0.9-0.6 1.3-0.9 0.9-0.6 1.7-1.3 2.6-1.9l1.5-1.2c0.8-0.6 1.5-1.3 2.3-2 0.5-0.5 1-0.9 1.5-1.4 0.4-0.4 0.9-0.8 1.3-1.2 0.4-0.4 0.8-0.8 1.1-1.2l0.8-0.8c1-1 2-2.1 2.9-3.2 0.1-0.1 0.1-0.2 0.2-0.3 0.6-0.7 1.2-1.4 1.7-2.1 0.5-0.6 1-1.2 1.5-1.9 0.1-0.1 0.1-0.2 0.2-0.3 0.3-0.5 0.7-0.9 1-1.4 0.6-0.7 1.1-1.5 1.7-2.3 0.1-0.2 0.3-0.4 0.4-0.6 0.3-0.5 0.6-1 1-1.4 0.4-0.6 0.8-1.1 1.1-1.7 0.3-0.4 0.5-0.8 0.8-1.3 0.3-0.5 0.6-0.9 0.9-1.4 0.2-0.3 0.4-0.7 0.6-1 0.5-0.8 0.9-1.7 1.4-2.5 0.2-0.3 0.3-0.6 0.5-0.9 0-0.1 0.1-0.2 0.2-0.3 0.6-1.2 1.3-2.5 1.9-3.7 0.1-0.2 0.1-0.3 0.2-0.5 0.2-0.4 0.4-0.8 0.5-1.2 0.3-0.7 0.7-1.4 1-2.1 0.2-0.4 0.4-0.9 0.6-1.3l0.6-1.5c0.1-0.4 0.3-0.7 0.4-1.1l0.9-2.4c0.1-0.4 0.3-0.8 0.5-1.3 0-0.1 0.1-0.3 0.1-0.4 0.5-1.5 0.9-3 1.4-4.4 0.1-0.3 0.2-0.7 0.3-1 0.3-1.3 0.7-2.6 1-3.9v-0.2c0-0.1 0-0.2 0.1-0.3 0.3-1.5 0.6-3 0.8-4.4 0-0.2 0.1-0.5 0.1-0.7 0-0.2 0-0.3 0.1-0.5 0.2-1.5 0.3-3 0.4-4.4l2.1-32.5-16.5-9.4z" fill="#2A2ABC" /><path d="M470.6 234.7c0.6-0.2 1.3-0.4 1.9-0.5 0.7-0.2 1.4-0.3 2-0.4 0.2 0 0.3-0.1 0.5-0.1 0.8-0.1 1.5-0.2 2.2-0.2H479.3c0.4 0 0.9 0.1 1.3 0.2 0.2 0 0.4 0 0.6 0.1 0.6 0.1 1.2 0.2 1.8 0.4 0.1 0 0.3 0.1 0.4 0.2 0.4 0.1 0.9 0.3 1.3 0.5l0.6 0.3c0.4 0.2 0.7 0.3 1.1 0.5l-16.4-9.5c-0.1 0-0.1-0.1-0.2-0.1-0.3-0.2-0.6-0.3-0.9-0.4l-0.6-0.3h-0.1c-0.4-0.2-0.8-0.3-1.3-0.4-0.1 0-0.3-0.1-0.4-0.1-0.6-0.2-1.2-0.3-1.8-0.4-0.2 0-0.4 0-0.6-0.1-0.4-0.1-0.9-0.1-1.3-0.2h-2c-0.7 0-1.5 0.1-2.2 0.2h-0.1c-0.1 0-0.3 0.1-0.4 0.1-0.7 0.1-1.3 0.3-2 0.4-0.1 0-0.2 0-0.3 0.1-0.5 0.1-1.1 0.3-1.6 0.5-0.8 0.3-1.5 0.5-2.2 0.8-0.3 0.1-0.6 0.3-0.9 0.4-0.3 0.1-0.5 0.2-0.8 0.4-1 0.5-2.1 1-3.1 1.6-1 0.6-2.1 1.3-3.1 1.9-0.3 0.2-0.6 0.5-1 0.7-0.7 0.5-1.4 1-2 1.5-0.4 0.3-0.7 0.6-1.1 0.9-0.6 0.5-1.2 1-1.8 1.6-0.4 0.3-0.7 0.7-1.1 1-0.2 0.2-0.5 0.4-0.7 0.6l-0.7 0.7c-0.7 0.7-1.4 1.5-2.1 2.3l-0.7 0.7c-0.2 0.2-0.4 0.4-0.5 0.7l-1.2 1.5c-0.3 0.3-0.5 0.6-0.8 1l-0.6 0.9-0.9 1.2c-0.2 0.3-0.4 0.5-0.6 0.8-0.3 0.5-0.7 1-1 1.5l-0.6 0.9c-0.1 0.1-0.2 0.2-0.3 0.4-0.6 0.9-1.1 1.8-1.7 2.7 0 0.1-0.1 0.1-0.1 0.2l-0.3 0.6c-0.4 0.6-0.7 1.3-1.1 1.9-0.2 0.3-0.3 0.6-0.5 1-0.2 0.3-0.3 0.6-0.5 1-0.1 0.3-0.3 0.5-0.4 0.8-0.4 0.8-0.7 1.6-1.1 2.3-0.1 0.1-0.1 0.2-0.2 0.4v0.1c-0.4 1-0.8 1.9-1.2 2.9-0.1 0.2-0.1 0.4-0.2 0.5-0.1 0.4-0.3 0.7-0.4 1.1-0.2 0.5-0.4 0.9-0.5 1.4-0.1 0.4-0.2 0.8-0.3 1.1-0.1 0.4-0.3 0.9-0.4 1.3-0.1 0.3-0.2 0.5-0.2 0.8-0.1 0.5-0.2 1-0.4 1.5-0.1 0.5-0.3 1.1-0.4 1.6 0 0.2-0.1 0.4-0.1 0.6-0.1 0.4-0.1 0.8-0.2 1.2-0.2 0.9-0.3 1.7-0.4 2.6 0 0.2-0.1 0.5-0.1 0.7-0.1 0.5-0.1 1.1-0.2 1.6 0 0.4-0.1 0.8-0.1 1.1-0.1 1.2-0.1 2.4-0.1 3.6 0 10.1 3.6 17.2 9.4 20.6l16.4 9.5c-5.8-3.4-9.4-10.5-9.4-20.6 0-1.2 0.1-2.4 0.1-3.6 0-0.4 0.1-0.8 0.1-1.1 0.1-0.8 0.2-1.5 0.3-2.3 0.1-0.9 0.3-1.7 0.4-2.6 0.1-0.6 0.2-1.2 0.3-1.7 0.1-0.5 0.3-1.1 0.4-1.6 0.2-0.8 0.4-1.5 0.6-2.3 0.1-0.4 0.3-0.9 0.4-1.3 0.3-0.9 0.6-1.7 0.9-2.6 0.1-0.4 0.2-0.7 0.4-1.1 0.4-1.2 0.9-2.4 1.4-3.5 0.1-0.1 0.1-0.2 0.2-0.3 0.5-1.1 1-2.1 1.5-3.2 0.2-0.3 0.3-0.6 0.5-1 0.5-1 1-1.9 1.5-2.9l0.3-0.6c0.6-1.1 1.3-2.2 2-3.3l0.6-0.9c0.5-0.8 1.1-1.5 1.6-2.3l0.9-1.2c0.5-0.6 1-1.2 1.4-1.9l1.2-1.5c0.4-0.5 0.8-0.9 1.2-1.4 0.7-0.8 1.4-1.5 2.1-2.3l1.4-1.4c0.4-0.3 0.7-0.7 1.1-1 0.6-0.5 1.2-1.1 1.8-1.6 0.4-0.3 0.7-0.6 1.1-0.9 0.7-0.5 1.3-1 2-1.5 0.3-0.2 0.6-0.5 1-0.7 1-0.7 2-1.3 3.1-1.9 1-0.6 2-1.1 3.1-1.6 0.3-0.1 0.5-0.2 0.8-0.4 1.2-0.7 2.2-1.1 3.2-1.4zM350.2 571l-16.4-9.5-19.9-153.2 16.4 9.6z" fill="#2A2ABC" /><path d="M463.7 237.8c2.3-1.3 4.6-2.4 7-3.2 12.1-4 21.9 1.5 24.5 13.8 3.1 14.4-3.1 32.8-13.5 46.8l2.3 30c1.9 24.9 20.8 34.1 43.5 21 20.2-11.6 37.6-37.6 42.2-62.8l2.2-12.3c-4.8-4.2-6.6-12.8-3.1-24.3 3.2-10.3 10.5-20.5 18.6-25.6 0.4-0.3 0.8-0.5 1.2-0.7 14-8.1 24.1 0.4 21.9 16.9-1.3 9.3-6.2 19-12.7 26.1l-19 175.5-228.6 132-19.9-153.1c-6.5 0.4-11.5-3.5-12.8-11.4-2.4-13.8 7.6-34 21.7-42.1 0.4-0.2 0.8-0.4 1.2-0.7 8-4.2 15.4-2.5 18.6 4.1 3.6 7.4 1.9 18.1-2.9 27.8l2.3 9.7c4.7 19.8 22.3 25.6 42.4 14 22.7-13.1 41.5-44 43.2-71.1l2.1-32.5c-8.7-1.6-14.5-9.6-14.5-22.5 0-20.3 14.3-45.1 32.1-55.4z" fill="#4040FF" /><path d="M323.5 416.4l-16.4-9.5c-3-1.8-5.2-5.1-6-9.9-0.4-2.6-0.4-5.4-0.1-8.3l16.4 9.5c-0.4 2.9-0.4 5.7 0.1 8.3 0.8 4.8 2.9 8.1 6 9.9" fill="#2A2ABC" /><path d="M317.4 398.2l-16.4-9.5c0.1-1 0.3-2.1 0.5-3.1l16.4 9.5c-0.2 1-0.4 2-0.5 3.1M317.9 395l-16.4-9.5c0.2-0.8 0.4-1.7 0.6-2.5l16.4 9.5c-0.2 0.9-0.4 1.7-0.6 2.5" fill="#2A2ABC" /><path d="M318.5 392.5l-16.4-9.5c0.2-0.7 0.4-1.5 0.7-2.2l16.4 9.5c-0.2 0.7-0.4 1.5-0.7 2.2" fill="#2A2ABC" /><path d="M319.2 390.3l-16.4-9.5c0.2-0.7 0.5-1.4 0.7-2.1l16.4 9.5c-0.2 0.7-0.4 1.4-0.7 2.1M320 388.2l-16.4-9.5c0.3-0.7 0.5-1.3 0.8-2l16.4 9.5c-0.3 0.7-0.6 1.4-0.8 2" fill="#2A2ABC" /><path d="M320.8 386.3l-16.4-9.5c0.3-0.6 0.6-1.3 0.9-1.9l16.4 9.5c-0.4 0.6-0.6 1.2-0.9 1.9" fill="#2A2ABC" /><path d="M321.6 384.4l-16.4-9.5c0.3-0.6 0.6-1.2 0.9-1.9l16.4 9.5c-0.2 0.6-0.5 1.2-0.9 1.9M322.6 382.5l-16.4-9.5c0.3-0.6 0.7-1.2 1-1.8l16.4 9.5c-0.3 0.6-0.7 1.2-1 1.8M323.6 380.6l-16.4-9.5c0.4-0.6 0.7-1.2 1.1-1.8l16.4 9.5c-0.3 0.6-0.7 1.2-1.1 1.8" fill="#2A2ABC" /><path d="M324.7 378.8l-16.4-9.5c0.4-0.6 0.8-1.3 1.3-1.9l16.4 9.5c-0.4 0.6-0.8 1.3-1.3 1.9M326 376.9l-16.4-9.5c0.5-0.7 1-1.3 1.5-2l16.4 9.5c-0.5 0.7-1 1.3-1.5 2" fill="#2A2ABC" /><path d="M327.5 374.9l-16.4-9.5 1.8-2.1 16.4 9.5c-0.7 0.7-1.3 1.4-1.8 2.1" fill="#2A2ABC" /><path d="M329.2 372.8l-16.4-9.5c0.8-0.9 1.6-1.7 2.4-2.6l16.4 9.5c-0.8 0.9-1.6 1.7-2.4 2.6M331.6 370.2l-16.4-9.5c2.3-2.3 4.9-4.3 7.5-5.8 0.4-0.2 0.8-0.4 1.2-0.7l1.8-0.9 16.4 9.5c-0.6 0.3-1.2 0.5-1.8 0.9-0.4 0.2-0.8 0.4-1.2 0.7-2.6 1.6-5.1 3.5-7.5 5.8" fill="#2A2ABC" /><path d="M342.2 362.9l-16.4-9.5c0.8-0.3 1.7-0.6 2.5-0.8l16.4 9.5c-0.8 0.2-1.7 0.5-2.5 0.8" fill="#2A2ABC" /><path d="M344.7 362.1l-16.4-9.5c0.6-0.2 1.3-0.3 1.9-0.4l16.4 9.5c-0.7 0-1.3 0.2-1.9 0.4M346.6 361.6l-16.4-9.5c0.6-0.1 1.1-0.1 1.6-0.2l16.4 9.5c-0.5 0.1-1.1 0.2-1.6 0.2" fill="#2A2ABC" /><path d="M348.2 361.5l-16.4-9.5h1.5l16.4 9.5h-1.5" fill="#2A2ABC" /><path d="M349.6 361.5l-16.4-9.5c0.5 0 0.9 0.1 1.3 0.2l16.4 9.5c-0.4-0.1-0.8-0.2-1.3-0.2M351 361.7l-16.4-9.5 1.2 0.3 16.4 9.5c-0.4-0.2-0.8-0.3-1.2-0.3M352.2 361.9l-16.4-9.5c0.4 0.1 0.8 0.3 1.2 0.4l16.4 9.5c-0.4-0.1-0.8-0.2-1.2-0.4" fill="#2A2ABC" /><path d="M353.4 362.3l-16.4-9.5c0.4 0.2 0.7 0.3 1.1 0.5l16.4 9.5c-0.4-0.1-0.8-0.3-1.1-0.5" fill="#2A2ABC" /><path d="M354.5 362.9l-16.4-9.5s0.1 0 0.1 0.1l16.4 9.5-0.1-0.1" fill="#2A2ABC" /><path d="M478.4 391.1l-11.9-6.9 37.4 21.3 11.9 6.9z" fill="#9E9E9E" /><path d="M463.9 379.2l37.4 21.3-37.1 64.4-37.4-21.3z" fill="#2828CE" /><path d="M441.3 455.4l-11.9-6.9 37.1-64.3 11.9 6.9z" fill="#ACC5EA" /><path d="M478.4 391.1l37.4 21.3-37.1 64.4-37.4-21.4z" fill="#FFFFFF" /><path d="M535.9 653.1c0.6 1 1.4 1.7 2.3 2.2L553 664c-2.4-1.4-4-4.4-4-8.7l-14.8-8.6c0 2.6 0.6 4.8 1.7 6.4z" fill="#C68620" /><path d="M717.8 422.8c-0.3-0.2-0.5-0.3-0.8-0.4h-0.1c-0.1 0-0.2-0.1-0.2-0.1-0.1 0-0.2-0.1-0.4-0.1-0.1 0-0.3-0.1-0.4-0.1-0.1 0-0.2 0-0.2-0.1h-0.1c-0.3 0-0.5-0.1-0.8-0.1h-1.9c-0.1 0-0.2 0-0.3 0.1-0.2 0-0.4 0.1-0.6 0.1-0.1 0-0.2 0-0.3 0.1-0.1 0-0.2 0.1-0.3 0.1-0.3 0.1-0.6 0.2-1 0.3-0.1 0-0.2 0.1-0.3 0.1-0.1 0-0.1 0.1-0.2 0.1-0.6 0.2-1.1 0.5-1.7 0.8l-160.8 92.8c-0.7 0.4-1.4 0.9-2.1 1.4-0.1 0.1-0.2 0.2-0.4 0.3-0.6 0.5-1.3 1.1-1.9 1.7-0.1 0-0.1 0.1-0.2 0.1l-0.3 0.3c-0.3 0.3-0.6 0.6-0.9 1l-0.3 0.3c-0.1 0.1-0.2 0.2-0.2 0.3-0.2 0.2-0.4 0.4-0.5 0.6-0.1 0.1-0.2 0.3-0.3 0.4-0.1 0.1-0.2 0.2-0.3 0.4-0.1 0.2-0.3 0.3-0.4 0.5l-0.3 0.3c-0.1 0.2-0.3 0.4-0.4 0.6-0.1 0.1-0.2 0.3-0.3 0.4 0 0.1-0.1 0.1-0.1 0.2-0.2 0.4-0.5 0.8-0.7 1.2v0.1c0 0.1-0.1 0.2-0.1 0.2-0.2 0.3-0.3 0.6-0.5 0.8-0.1 0.1-0.1 0.3-0.2 0.4-0.1 0.1-0.1 0.3-0.2 0.4-0.1 0.1-0.1 0.2-0.2 0.4-0.1 0.3-0.3 0.6-0.4 0.9 0 0.1-0.1 0.1-0.1 0.2v0.1c-0.2 0.4-0.3 0.8-0.5 1.2 0 0.1 0 0.1-0.1 0.2s-0.1 0.3-0.2 0.4c-0.1 0.2-0.2 0.4-0.2 0.6-0.1 0.2-0.1 0.3-0.1 0.5-0.1 0.2-0.1 0.4-0.2 0.6 0 0.1-0.1 0.2-0.1 0.4-0.1 0.2-0.1 0.4-0.1 0.6-0.1 0.2-0.1 0.5-0.2 0.7 0 0.1 0 0.2-0.1 0.3 0 0.2-0.1 0.3-0.1 0.5-0.1 0.4-0.1 0.7-0.2 1.1 0 0.1 0 0.2-0.1 0.3v0.3c-0.1 0.8-0.2 1.6-0.2 2.4l0.3 106.7 14.8 8.6-0.3-106.7c0-0.8 0.1-1.6 0.2-2.4 0-0.2 0-0.4 0.1-0.6 0.1-0.4 0.1-0.7 0.2-1.1 0-0.2 0.1-0.5 0.1-0.8 0.1-0.2 0.1-0.5 0.2-0.7 0.1-0.3 0.2-0.6 0.3-1 0.1-0.2 0.1-0.4 0.2-0.6 0.1-0.4 0.2-0.7 0.4-1.1 0.1-0.1 0.1-0.3 0.2-0.4l0.6-1.5c0-0.1 0.1-0.1 0.1-0.2 0.2-0.4 0.4-0.9 0.6-1.3 0.1-0.1 0.1-0.3 0.2-0.4 0.2-0.4 0.4-0.8 0.7-1.2 0-0.1 0.1-0.2 0.1-0.2 0.3-0.5 0.6-0.9 0.9-1.4 0.1-0.1 0.2-0.3 0.3-0.4 0.2-0.3 0.4-0.6 0.7-1 0.1-0.2 0.3-0.3 0.4-0.5 0.2-0.3 0.4-0.5 0.6-0.8 0.2-0.2 0.4-0.4 0.5-0.7 0.2-0.2 0.3-0.4 0.5-0.6 0.3-0.3 0.6-0.6 0.9-1 0.1-0.2 0.3-0.3 0.5-0.5 0.6-0.6 1.2-1.2 1.9-1.7 0.1-0.1 0.2-0.2 0.4-0.3 0.7-0.5 1.4-1 2.1-1.4L723 432.4c0.6-0.3 1.1-0.6 1.7-0.8 0.2-0.1 0.4-0.1 0.5-0.2l0.9-0.3c0.2-0.1 0.4-0.1 0.6-0.2 0.2 0 0.4-0.1 0.6-0.1 0.2 0 0.5-0.1 0.7-0.1h1.5c0.3 0 0.7 0.1 1 0.1 0.1 0 0.2 0 0.2 0.1 0.3 0.1 0.5 0.1 0.7 0.2 0.1 0 0.2 0.1 0.2 0.1 0.3 0.1 0.6 0.3 0.9 0.4l-14.7-8.8z" fill="#C68620" /><path d="M723 432.4c7.5-4.3 13.6-0.8 13.6 7.7l0.3 106.7c0 8.6-6.1 19.1-13.5 23.4L562.6 663c-7.5 4.3-13.6 0.8-13.6-7.7l-0.3-106.7c0-8.6 6.1-19.1 13.5-23.4L723 432.4z" fill="#FFCD2E" /><path d="M736.7 454.4v21.4L548.8 584.1l-0.1-21.4z" fill="#FFFFFF" /><path d="M665.9 532.2c6.9-4 11.3-1.3 11.3 5.8s-4.4 14.8-11.3 18.8l-8 4.6v15.9l-5.3 3.1-0.1-40.5 13.4-7.7z m-0.2 19.1c3.7-2.1 6.2-6.1 6.2-10.3 0-4.3-2.5-5.3-6.3-3.2l-7.7 4.5v13.5l7.8-4.5M640.4 546.9l0.1 40.5-5.3 3.1-0.1-40.5zM627.2 554.5l-11.5 47.2-4.2 2.4-11.7-33.8 5.6-3.2 8.2 24.8 8-34.1z" fill="#C68620" /><path d="M686.4 546.6l-12.2-7.1c1 0.6 1.6 1.9 1.6 3.9 0 0.5 0 1-0.1 1.5v0.2c-0.1 0.5-0.2 0.9-0.3 1.4v0.1c-0.1 0.5-0.3 0.9-0.5 1.4v0.1c-0.2 0.5-0.4 0.9-0.7 1.3v0.1c-0.3 0.4-0.5 0.8-0.8 1.2l-0.1 0.1c-0.3 0.4-0.6 0.7-1 1.1-0.3 0.3-0.5 0.5-0.8 0.7-0.1 0.1-0.3 0.2-0.4 0.3-0.4 0.3-0.9 0.6-1.4 0.9l12.2 7.1c0.5-0.3 0.9-0.6 1.4-0.9 0.1-0.1 0.3-0.2 0.4-0.3 0.3-0.2 0.6-0.5 0.8-0.7l0.7-0.7 0.3-0.3 0.1-0.1 0.1-0.1c0.1-0.2 0.2-0.3 0.4-0.5 0.1-0.1 0.2-0.3 0.3-0.4 0-0.1 0.1-0.1 0.1-0.2v-0.1c0-0.1 0.1-0.1 0.1-0.2 0.1-0.1 0.2-0.3 0.2-0.4 0.1-0.1 0.1-0.3 0.2-0.4 0-0.1 0.1-0.2 0.1-0.3v-0.1-0.1c0.1-0.2 0.1-0.3 0.2-0.5s0.1-0.3 0.2-0.5c0-0.1 0.1-0.2 0.1-0.4v-0.1-0.1c0.1-0.2 0.1-0.4 0.2-0.7 0-0.2 0.1-0.4 0.1-0.6v-0.2-0.1c0.1-0.5 0.1-0.9 0.1-1.4 0-2.1-0.6-3.4-1.6-3.9z" fill="#E8CFAC" /><path d="M661.8 558.1l12.2 7.1 7.8-4.4-12.3-7.1zM684.2 540.5c0.4-0.1 0.7-0.3 1-0.4 0.1 0 0.2-0.1 0.3-0.1 0.2 0 0.3-0.1 0.5-0.1s0.4-0.1 0.6-0.1h1.3c0.3 0 0.5 0 0.8 0.1 0.3 0 0.5 0.1 0.8 0.2 0.1 0 0.1 0 0.2 0.1 0.2 0.1 0.5 0.2 0.7 0.3l-12.2-7.1h-0.1c-0.2-0.1-0.3-0.2-0.5-0.2-0.1 0-0.1 0-0.2-0.1-0.1 0-0.1 0-0.2-0.1-0.1 0-0.1 0-0.2-0.1-0.2-0.1-0.4-0.1-0.6-0.1-0.2 0-0.4-0.1-0.6-0.1H674.4h-0.1c-0.2 0-0.3 0.1-0.5 0.1s-0.3 0.1-0.5 0.1h-0.1c-0.1 0-0.2 0.1-0.3 0.1-0.3 0.1-0.7 0.2-1 0.4-0.1 0-0.1 0-0.2 0.1-0.1 0-0.1 0.1-0.2 0.1-0.6 0.3-1.2 0.5-1.8 0.9l-13.4 7.7 12.2 7.1 13.4-7.7c0.6-0.4 1.2-0.7 1.8-0.9 0.3-0.1 0.4-0.1 0.5-0.2z" fill="#E8CFAC" /><path d="M668.8 589.8l-12.3-7.1-0.1-40.5 12.2 7.1zM651.2 599.9l-12.2-7.1-0.1-40.5 12.2 7.1z" fill="#E8CFAC" /><path d="M651.1 559.4l-12.2-7.1 5.3-3.1 12.3 7.2zM629.6 601.4l-12.2-7.2 8-34.1 12.2 7.1z" fill="#E8CFAC" /><path d="M637.6 567.2l-12.2-7.1 5.7-3.3 12.2 7.2zM615.9 579.8l-12.3-7.1 5.6-3.2 12.2 7.1zM627.6 613.6l-12.3-7.1-11.7-33.8 12.3 7.1z" fill="#E8CFAC" /><path d="M682 541.6c6.9-4 11.3-1.3 11.3 5.8s-4.4 14.8-11.3 18.8l-8 4.6v15.9l-5.3 3.1-0.1-40.5 13.4-7.7z m-0.2 19.2c3.7-2.1 6.2-6.1 6.2-10.3 0-4.3-2.5-5.3-6.3-3.2l-7.7 4.5v13.5l7.8-4.5M656.5 556.4l0.1 40.4-5.4 3.1-0.1-40.5zM643.3 564l-11.6 47.2-4.1 2.4-11.7-33.8 5.5-3.2 8.2 24.8 8-34.2z" fill="#FFFFFF" /></svg>