<?xml version="1.0" encoding="UTF-8" standalone="no"?>
<!-- Generator: Adobe Illustrator 19.0.0, SVG Export Plug-In . SVG Version: 6.00 Build 0)  -->

<svg
   version="1.1"
   id="Layer_1"
   x="0px"
   y="0px"
   viewBox="0 0 512 512"
   style="enable-background:new 0 0 512 512;"
   xml:space="preserve"
   sodipodi:docname="logo.svg"
   inkscape:version="1.1.1 (3bf5ae0d25, 2021-09-20)"
   xmlns:inkscape="http://www.inkscape.org/namespaces/inkscape"
   xmlns:sodipodi="http://sodipodi.sourceforge.net/DTD/sodipodi-0.dtd"
   xmlns="http://www.w3.org/2000/svg"
   xmlns:svg="http://www.w3.org/2000/svg"><defs
   id="defs91" /><sodipodi:namedview
   id="namedview89"
   pagecolor="#ffffff"
   bordercolor="#999999"
   borderopacity="1"
   inkscape:pageshadow="0"
   inkscape:pageopacity="0"
   inkscape:pagecheckerboard="0"
   showgrid="false"
   inkscape:zoom="1.6505311"
   inkscape:cx="255.97821"
   inkscape:cy="274.15417"
   inkscape:window-width="1920"
   inkscape:window-height="986"
   inkscape:window-x="-11"
   inkscape:window-y="-11"
   inkscape:window-maximized="1"
   inkscape:current-layer="Layer_1" />
<path
   style="fill:#E4EAF8;"
   d="M486.881,465.503H25.119c-9.446,0-17.102-7.656-17.102-17.102V63.599  c0-9.446,7.656-17.102,17.102-17.102h461.762c9.446,0,17.102,7.656,17.102,17.102v384.802  C503.983,457.846,496.326,465.503,486.881,465.503z"
   id="path2" />



<path
   style="fill:#5B5D6E;"
   d="M486.881,465.503H256V89.253h247.983v359.148C503.983,457.846,496.326,465.503,486.881,465.503z"
   id="path14" />
<path
   style="fill:#D5DCED;"
   d="M503.983,89.253H50.772V46.497h436.109c9.446,0,17.102,7.656,17.102,17.102V89.253z"
   id="path16" />
<rect
   x="375.716"
   y="46.497"
   style="fill:#FF5050;"
   width="42.756"
   height="42.756"
   id="rect18" />
<rect
   x="418.472"
   y="46.497"
   style="fill:#FFF082;"
   width="42.756"
   height="42.756"
   id="rect20" />
<path
   style="fill:#A0FFB4;"
   d="M503.983,89.253h-42.756V46.497h25.653c9.446,0,17.102,7.656,17.102,17.102V89.253z"
   id="path22" />

<path
   d="M298.756,165.678h17.102c4.427,0,8.017-3.589,8.017-8.017c0-4.427-3.589-8.017-8.017-8.017h-17.102  c-4.427,0-8.017,3.589-8.017,8.017C290.739,162.089,294.328,165.678,298.756,165.678z"
   id="path26"
   style="fill:#ffffff" />
<path
   d="M298.756,234.088h17.102c4.427,0,8.017-3.589,8.017-8.017s-3.589-8.017-8.017-8.017h-17.102  c-4.427,0-8.017,3.589-8.017,8.017S294.328,234.088,298.756,234.088z"
   id="path28" />
<path
   d="M316.392,191.866c0,4.427,3.589,8.017,8.017,8.017h17.102c4.427,0,8.017-3.589,8.017-8.017s-3.589-8.017-8.017-8.017  h-17.102C319.982,183.85,316.392,187.439,316.392,191.866z"
   id="path30" />
<path
   d="M461.228,149.645H350.063c-4.427,0-8.017,3.589-8.017,8.017c0,4.427,3.589,8.017,8.017,8.017h111.165  c4.427,0,8.017-3.589,8.017-8.017C469.244,153.234,465.655,149.645,461.228,149.645z"
   id="path32" />
<path
   d="M461.228,218.054H350.063c-4.427,0-8.017,3.589-8.017,8.017s3.589,8.017,8.017,8.017h111.165  c4.427,0,8.017-3.589,8.017-8.017S465.655,218.054,461.228,218.054z"
   id="path34"
   style="fill:#ff0000" />
<path
   d="M461.228,183.85h-85.511c-4.427,0-8.017,3.589-8.017,8.017s3.589,8.017,8.017,8.017h85.511c4.427,0,8.017-3.589,8.017-8.017  S465.655,183.85,461.228,183.85z"
   id="path36"
   style="fill:#aa0000" />
<path
   d="M349.528,260.276c0-4.427-3.589-8.017-8.017-8.017h-17.102c-4.427,0-8.017,3.589-8.017,8.017  c0,4.427,3.589,8.017,8.017,8.017h17.102C345.939,268.292,349.528,264.703,349.528,260.276z"
   id="path38" />
<path
   d="M461.228,252.259h-85.511c-4.427,0-8.017,3.589-8.017,8.017c0,4.427,3.589,8.017,8.017,8.017h85.511  c4.427,0,8.017-3.589,8.017-8.017C469.244,255.848,465.655,252.259,461.228,252.259z"
   id="path40" />
<path
   d="M298.756,302.497h17.102c4.427,0,8.017-3.589,8.017-8.017c0-4.427-3.589-8.017-8.017-8.017h-17.102  c-4.427,0-8.017,3.589-8.017,8.017C290.739,298.908,294.328,302.497,298.756,302.497z"
   id="path42" />
<path
   d="M323.875,362.889c0-4.427-3.589-8.017-8.017-8.017h-17.102c-4.427,0-8.017,3.589-8.017,8.017  c0,4.427,3.589,8.017,8.017,8.017h17.102C320.285,370.906,323.875,367.317,323.875,362.889z"
   id="path44"
   style="fill:#0000ff" />
<path
   d="M316.392,328.685c0,4.427,3.589,8.017,8.017,8.017h17.102c4.427,0,8.017-3.589,8.017-8.017c0-4.427-3.589-8.017-8.017-8.017  h-17.102C319.982,320.668,316.392,324.257,316.392,328.685z"
   id="path46"
   style="fill:#ff00ff" />
<path
   d="M461.228,286.463H350.063c-4.427,0-8.017,3.589-8.017,8.017c0,4.427,3.589,8.017,8.017,8.017h111.165  c4.427,0,8.017-3.589,8.017-8.017C469.244,290.053,465.655,286.463,461.228,286.463z"
   id="path48"
   style="fill:#00ffff" />
<path
   d="M461.228,354.873H350.063c-4.427,0-8.017,3.589-8.017,8.017c0,4.427,3.589,8.017,8.017,8.017h111.165  c4.427,0,8.017-3.589,8.017-8.017C469.244,358.462,465.655,354.873,461.228,354.873z"
   id="path50"
   style="fill:#ff0000" />
<path
   d="M461.228,320.668h-85.511c-4.427,0-8.017,3.589-8.017,8.017c0,4.427,3.589,8.017,8.017,8.017h85.511  c4.427,0,8.017-3.589,8.017-8.017C469.244,324.257,465.655,320.668,461.228,320.668z"
   id="path52" />
<path
   d="M341.511,389.077h-17.102c-4.427,0-8.017,3.589-8.017,8.017c0,4.427,3.589,8.017,8.017,8.017h17.102  c4.427,0,8.017-3.589,8.017-8.017C349.528,392.667,345.939,389.077,341.511,389.077z"
   id="path54"
   style="fill:#ffff00" />
<path
   d="M461.228,389.077h-85.511c-4.427,0-8.017,3.589-8.017,8.017c0,4.427,3.589,8.017,8.017,8.017h85.511  c4.427,0,8.017-3.589,8.017-8.017C469.244,392.667,465.655,389.077,461.228,389.077z"
   id="path56" />
<g
   id="g58">
</g>
<g
   id="g60">
</g>
<g
   id="g62">
</g>
<g
   id="g64">
</g>
<g
   id="g66">
</g>
<g
   id="g68">
</g>
<g
   id="g70">
</g>
<g
   id="g72">
</g>
<g
   id="g74">
</g>
<g
   id="g76">
</g>
<g
   id="g78">
</g>
<g
   id="g80">
</g>
<g
   id="g82">
</g>
<g
   id="g84">
</g>
<g
   id="g86">
</g>
<path
   d="M 486.881,38.48 H 264.017 v -9.086 c 0,-4.427 -3.589,-8.017 -8.017,-8.017 -4.427,0 -8.017,3.589 -8.017,8.017 V 38.48 H 25.119 C 11.268,38.48 0,49.748 0,63.599 v 384.802 c 0,13.851 11.268,25.119 25.119,25.119 h 222.864 v 9.086 c 0,4.427 3.589,8.017 8.017,8.017 4.427,0 8.017,-3.589 8.017,-8.017 V 473.52 H 486.881 C 500.732,473.52 512,462.252 512,448.401 V 63.599 C 512,49.748 500.732,38.48 486.881,38.48 Z m 9.086,25.119 V 81.236 H 469.245 V 54.514 h 17.637 c 5.009,0 9.085,4.075 9.085,9.085 z M 426.489,81.236 V 54.514 h 26.722 v 26.722 z m -42.756,0 V 54.514 h 26.722 V 81.236 Z M 367.699,54.514 V 81.236 H 264.017 V 54.514 Z M 247.983,81.236 H 58.789 V 54.514 H 247.983 Z M 25.119,54.514 H 42.756 V 81.236 H 16.033 V 63.599 c 0,-5.01 4.076,-9.085 9.086,-9.085 z m 0,402.972 c -5.01,0 -9.086,-4.076 -9.086,-9.086 V 97.269 h 231.95 c 0.30286,198.15892 0,198.25853 0,360.217 z m 461.762,0 H 264.017 V 97.269 h 231.95 v 351.132 c 0,5.01 -4.076,9.085 -9.086,9.085 z"
   id="path24"
   sodipodi:nodetypes="scssscsssscssscssssscccssccccccccccccccccccccscccsssscccsscccss" /><rect
   x="461.70279"
   y="540.48273"
   style="fill:#ffffff"
   width="83.096001"
   height="83.096001"
   id="rect8" /><path
   d="m 95.030298,178.24178 c -5.430689,0 -9.754582,4.37722 -9.754582,9.8079 v 160.3842 c 0,5.43067 4.323892,9.8079 9.754582,9.8079 H 214.1108 c 5.43067,0 9.75457,-4.37723 9.75457,-9.8079 v -120.513 h -35.87338 c -7.34502,0 -13.75236,-5.35785 -13.75236,-12.4731 v -37.206 z m 86.032202,0 v 37.206 c 0,2.9238 2.78368,5.6502 6.92949,5.6502 h 35.87338 z m -59.08718,90.58298 11.69018,13.68577 11.6935,-13.68577 14.61188,0.2835 v 44.4153 H 145.359 v -22.3509 l -11.63688,14.47192 v 0.14025 l -0.0563,-0.0675 -0.0533,0.0675 v -0.14025 l -11.63688,-14.47192 v 22.3509 h -14.6123 v -44.41538 z m 52.6241,0 h 15.02166 v 22.89067 h 12.15657 l -19.66907,26.13547 -19.66575,-26.13547 h 12.15659 z"
   id="path8"
   style="stroke-width:1;fill:#ff0000" /><path
   style="fill:none;stroke:#ff0000;stroke-width:8;stroke-linecap:butt;stroke-linejoin:miter;stroke-opacity:1"
   d="m 290.81548,154.49572 c -87.24465,46.04579 -87.24465,46.04579 -87.24465,46.04579"
   id="path5340" /></svg>
