<svg xmlns="http://www.w3.org/2000/svg" width="700" height="350"><path fill="#d6594c" d="M246.86 106.65a15.45 15.45 0 0 1 13.28 3.07c6.4 5.13 9.92 15.47 7.71 23.72a23 23 0 0 1-9.26 12.56Z"/><path fill="#08668d" d="M27.09 291.22c-1.9 4.59-2.8 11.35-2.35 18.86s.3 11.57-1.95 19.08-6.16 21-6.16 21H84.8V271s-18.75-4.21-32.57 3a143.4 143.4 0 0 0-25.14 17.22"/><path fill="#0b597f" d="M52.23 274a143.4 143.4 0 0 0-25.14 17.19 29 29 0 0 0-1.47 5c.14.18 5.66 7.16 18.08 10.33s15.3 2.13 15.3 2.13l6.83-18.6 1.49 20a115 115 0 0 0 17.44 1.91V271s-18.71-4.18-32.53 3"/><path fill="#19313a" d="M106.68 43.42s12.68-6.08 21.3 5.79 2.07 27-7.67 28.63-13.63-34.42-13.63-34.42"/><path fill="#ffdbc2" d="M118.14 60.28c1.4 4.78 3.19 18.85 1.79 30.51s-10 27.83-14.94 31-13.22-1-13.22-1a45.5 45.5 0 0 0-1.62 5.58c-.6 2.89 2.5 6.78 7 12.9a56.9 56.9 0 0 1 7 13.13s-36.46-9-43-30.72c0 0 4.18-6.16 6.17-16.71 0 0-10-10.14-11.34-21.28s2.39-24.26 14.32-34.41 37.7-12.47 47.84 11"/><path fill="#edc1a4" d="M73.61 116.19c3.52 4.17 14 8.11 16.8 9.09.57-2.26 1.36-4.43 1.36-4.43-4.79-1.68-14.59-7.48-17.09-12.09s-2-14.61-2-14.61-1.34 1.49-2.33 6.27-.8 10.97 3.26 15.77"/><path fill="#19313a" d="M66.5 108.34a23.5 23.5 0 0 0 3.84-6.26 35.2 35.2 0 0 0 2.33-7.93c-2.59.8-9.15-1.42-10.61-7.51-1.57-6.58-.44-10 2.14-12s6.57-2.15 9.35 2c2.38 3.58 1.68 6.49 3.14 7.09s6.55-4.4 7-13.35c0 0 7.56 5.17 14.32 0a11.16 11.16 0 0 0 4.38-12.14 10.44 10.44 0 0 0 8.61 5.62c6.27.4 7.16-3.58 7.16-3.58s2-8-5.77-13.73c0 0 .73-11.72-12.83-15.09-14.42-3.58-26.83 3.17-29.17 13.25 0 0-11.13-1.42-16 7.23-5.82 10.37-3.69 19.92-.61 31.42 2.42 9 6 17.63 7.89 20.88 2.61 4.6 4.83 4.1 4.83 4.1"/><path fill="#def1f8" d="M63.34 117.48c-1.59 3.13-10.07 6.18-15.71 9.81s-18.8 16.47-15 42.27 9.3 72.1 8.68 80.66-2.51 14-7.31 23.8-7.94 16.07-7.94 16.07 7.31 10 31.11 12.11l9.2-23.2 2.09 25.26s29.5 4.49 40.63.71c0 0 7-102.08 5.23-120-3.25-32.54-21.15-51.13-21.15-51.13s-9.13 1-15.76-2.67c-11.63-6.44-14.07-13.69-14.07-13.69"/><path fill="#90c8ee" d="m113.57 228.43-24.51-19.51-25-32.47-6.47-33.93-19-5.83c-4.53 7-8.18 17.67-5.93 32.87.32 2.17.65 4.49 1 6.9 2.78 11.66 6.31 24.64 9.64 32.76a8.3 8.3 0 0 0 4.36 0l6.43 15L41.3 246a40 40 0 0 1 0 4.24c-.54 7.29-2 12.32-5.37 19.71 8.77 1.9 37.82-14.21 44.86-18.72a16.9 16.9 0 0 0 2.09 6c1.72 2.91.12 6.71 1.9 8.75S68.11 300 68.11 300l.35 4.25s29.5 4.49 40.63.71c0 .04 2.91-41.74 4.48-76.53" opacity=".37"/><path fill="#3f292d" d="M163.78 106.36A14.11 14.11 0 0 1 176.3 110c6.63 6.46 8.88 25-5.56 32.51 0 0-7.38-9.5-9.15-18.22s2.19-17.93 2.19-17.93"/><path fill="#47b" d="m166.09 299.55 6.91 50.66H62.36s3.3-28.07 17.2-51.35Z"/><path fill="#35679e" d="M84.8 350.21s2.78-25 12-38.29h3.8s-9.22 12-12.52 38.29Z"/><path fill="#35679e" d="m166.09 299.55-86.53-.69c-1.65 2.76-3.14 5.58-4.5 8.42 0 .13.75 13.19 22.52 18.76s38.92 1 52.15-10.94c0 0 8.26 9.86 19.78 9.36Z"/><path fill="#c17a61" d="M89.34 193.05c-5.92 4.45-41.27 32.27-50.66 41.33s-12.12 19.82-8.54 24.94 7.69 5.64 16.22 2.05 42.28-23.27 42.28-23.27 2.12-3.2 3.32-16.86-2.62-28.19-2.62-28.19"/><path fill="#aa6552" d="M92 221.24a73.4 73.4 0 0 0 0-11.77c-5.78-1.1-13.52-2.56-19-3.56-6.29 5-13.38 10.71-19.64 15.87 1.93 6.67 7.82 18.65 12.29 20.27 3.11 1.14 12.78-.27 18.37-1.22l4.71-2.73s2.03-3.2 3.27-16.86"/><path fill="#c17a61" d="M158.06 185.56c-6.82-1-9.18-1.87-9.59-2.79s.17-9.58 1.82-12.26a18.24 18.24 0 0 0 8.94 1.47c4.75-.53 6.68-3.63 9.37-12.91s2.89-31.63 1.45-38.24-19.22-18.91-38.23-11.11-22.11 35.9-19 44.58 10.75 14.47 10.75 17.15.41 7.91-2.69 9.44-11.78 3.41-11.78 3.41.62 6.59 22.73 8.75 26.23-7.49 26.23-7.49"/><path fill="#f9b354" d="M152.09 184.3s-8.15 5.62-22.44 4.07-13.29-5.9-13.29-5.9S106.69 184 103 185c-7.31 2-11.5 3.45-13.61 8.05-1.41 3.06-4 27.15-1.74 39.36L90 245.53s4 14.57 3.08 21.69-16.83 30.54-16.83 30.54-1 19.16 30 22.47S152.07 302 152.07 302c4.55 15.5 19.24 13 19.24 13-3.28-9.29-4.78-37.4-3.59-47.17s12.81-71.7 9.14-74.84c-7.12-6.09-18-7.78-24.77-8.75"/><path fill="#dd9845" d="m172.47 203.48-51.26 10.25L87.13 229c.13 1.2.28 2.35.47 3.4l1.4 7.67c5.08-1.27 17.51-5 30.13-8 17.3-4.07 37.62-9.46 46.45-11.61l10.94-10c.24-2 .44-3.84.6-5.56Z"/><path fill="#dd9845" d="m141.78 266.87-27.63-5.27-11.88-14.73-5.65-10.5c-2.1 2.29-2.06 6.09-1.17 9.27a73 73 0 0 0 4.19 9.45l-6.47 8.21a22.5 22.5 0 0 1-.1 3.92 21.4 21.4 0 0 1-1.83 5.29 28.2 28.2 0 0 0 10.76 4.56c6.51 1.11 21.62 3.43 37.31 9.32s21.42 6.25 24 5.37c1.19-.39 2.84-2.07 4.3-3.81-.42-8.11-.42-15.82.1-20.06q.1-.92.33-2.4L168 265Z"/><path fill="#ffdbc2" d="M142.64 255.38c-4-.23-21.17-.91-23.69-1.3a5.15 5.15 0 0 1-4.51-3.36c-.76-1.83-1.75-4.81-4.66-6.8s-6.19-3.36-7.41-5.12-1.84-5.2-4.36-4.13-1.53 5.74-.61 7.8 3.67 5.88 3.9 6.72-.84 1.07-2.91.46-8.4-4.12-8.4-4.12l-.61-3.21a3.75 3.75 0 0 0-3.82 2.14 7.49 7.49 0 0 0 0 6.57c.76 1.53-.16 3.44 1.3 5.73s2.29 2.52 2.59 4.05a11 11 0 0 0 4.55 7.08c3.21 2.09 8.87 2.7 15.21 3.69s30.1 8.36 30.1 8.36 2-2.45 3.37-9a35 35 0 0 0-.04-15.56"/><path fill="#3f292d" d="M170.32 122.43c-1.09 4.11-4.23 7.65-7.77 10.38s-4 4.5-4.91 8.31-3 6.27-4.9 6-1.09-4.08-2.46-6.74-3.82-6.48-9-4.57-4.44 12.26-1.27 15.67 5.5 3.41 7.27 2.59 2.73.55 2.32 2.73-1.07 8.95-6.25 12.76-18.12 2.31-20 .95a53 53 0 0 1-10.77-9.13 28.66 28.66 0 0 1-7.48-18c-.49-8.77 1.1-19.28 4-22l17.81-20s4.84-8 18.61-7.09a21.29 21.29 0 0 1 18.27 12.13s10.62 8.98 6.53 16.01"/><ellipse cx="112.54" cy="110.01" fill="#3f292d" rx="19.3" ry="15.33" transform="rotate(-47.05 112.544 110.01)"/><path fill="#ffdbc2" d="M269.12 193.05c-7.82-1.23-14.41-1.32-22.26-2.65s-11.56-2.1-10.78-9.53 1.57-12.31 1.57-12.31l-25.22-1.37s-1.17 11.92-1.76 14.66-.78 2.74-6.64 3.71-18 3.37-18 3.37 1.61 6.6 33.66 12.47 49.43-8.35 49.43-8.35"/><path fill="#3cb28e" d="M244.34 190s18.57 2.22 24.78 3.09 11.25 2.72 16.49 15.43c0 0-13.26 37.17-12.23 43 1.47 8.43-1.83 32.19-2.85 37.67s.85 18 4.62 36 5.52 25 5.52 25H148.35a271.4 271.4 0 0 1 23-35.15c13.2-16.79 22.79-31.52 24.33-36.32s-6.34-31.87-6.34-31.87-21.59 32.38-24.16 36-3.94 3.26-10.79 1.54-15.08-4.45-15.08-4.45-3.08-5.71-1.2-14 4.57-10.57 4.57-10.57 3.48.05 4.85.05 3.77-.17 5.83-5 16.45-40.78 20.39-49.17 6.56-13 14.93-14.36a100 100 0 0 1 15.32-1.33s4.52 6.91 17.67 8.28a41.7 41.7 0 0 0 22.67-3.84"/><path fill="#349977" d="M270.28 294.39 259.8 310c1.47 8.39 2.94 19.92-12.2 28.14s-72.33 12.06-72.33 12.06h105.4s-1.75-7-5.52-25c-2.86-13.67-4.63-24.15-4.87-30.81M275.82 238.73l-11.28 3.73-25.78-12.85s-25.57-31.86-25.86-32.3-11.55-4.26-11.55-4.26l-27.61 8.18v.06c-1.49 3.17-4.89 11.31-8.13 19.18a175 175 0 0 1 18.16-2.41c6.06-.44 12.94-5.55 12.94-5.55s21.77 33 30.37 41.79 14.34 16.37 22.52 16.8 14.08-9.8 20.9-15.48l3-3.27c0-.29-.08-.57-.12-.83-.33-1.85.78-6.84 2.44-12.79"/><path fill="#349977" d="m258.42 284.38 3.72 8.91L271.4 305c-1.1-7.33-1.46-12.69-.87-15.8.93-5 3.73-25.05 3.13-35l-.08-.48-7.53-15s-1.31 15.48-2.89 26.09c-1.16 7.56-4.74 19.57-4.74 19.57"/><path fill="#349977" d="m253.74 294.4-61.36-9.18c-2.28 3.87-5.59 8.9-9.67 14.64 5.58.82 28.9 4.3 46.78 7.41 20.45 3.56 28.77 6.28 35.05 4.68s5.16-4.78 6.86-7a97 97 0 0 1-1.12-10.6c-3.9.44-16.54.05-16.54.05"/><path fill="#ffdbc2" d="M256.66 121.61c2.91 8.55 4.91 27.65 2.18 37.46S253 170.51 249 170.51s-17.81-2.3-17.81-2.3l-18.79-1s.43-4.32-2.84-6.68-16.72-18.36-7.64-38.9 31.63-22.17 41.63-14.54 13.11 14.52 13.11 14.52"/><path fill="#f2c5a7" d="M249 170.51a7.14 7.14 0 0 0 4.74-1.47c-3.06.19-6.92-1-12.18-5.82l-5.25 1.92-.22 3.85a130 130 0 0 0 12.91 1.52"/><path fill="#d6594c" d="M256.66 121.61c0-4.26-9.8-15-9.8-15a31.78 31.78 0 0 0-20.49-7.79c-12.74-.19-23.68 6.35-27.52 22.38-3.8 15.87-5.56 15-8.41 20.84-2.63 5.39-6.07 21.07 11.23 31 18.53 10.62 36.47 6.36 40.84 4.54s5.42-4.83 2.42-9.68a27.1 27.1 0 0 1-3.47-12c-.16-2.91.27-4.29-1.21-3.78-1.11.39-3.81.45-6.08-3.25-2.54-4.14-1.14-12.93 3-13.69s6.27 2.28 6.84 6.11-.57 5.3 1.53 5.68 4-1.14 7-5.68 4.46-13.15 4.12-19.68"/><path fill="#47b" d="M626.09 273.3c4.07 4.31 9.63 14.25 10.63 22a62.7 62.7 0 0 1-1.39 22.07 34.64 34.64 0 0 0 0 15.32c1.19 6 3.78 17.51 3.78 17.51H587l-9.62-67.86Z"/><path fill="#35679e" d="M604.26 290.5c15.26-2.38 21.45-7.33 25.47-12.4a34 34 0 0 0-3.64-4.8l-48.68 9.05 1.23 8.7a100.4 100.4 0 0 0 25.62-.55"/><path fill="#724472" d="M617.56 185.51c1.38 9.25.9 32.6-4 42.38S609 242 612 247.19c4.16 7.27 16.87 26.11 16.87 26.11s-4.19 6.88-17.38 10.62-35.5 2.57-35.5 2.57a127.1 127.1 0 0 1-8.39-48.7c1-26.5 13.87-69.11 13.87-69.11s15.45-8.16 24.31-2.65 11.78 19.48 11.78 19.48"/><path fill="#673c68" d="m617.8 208.07-3.09-5.25-25-22.24-13.63 7.77c-.55 2.22.94 3.38.37 5.8 2.63 8.82 6.47 24.78 9.85 27.94 4.56 4.27 17 11.75 24.93 10.55.89-1.94 1.12-2.28 2.35-4.75 2.28-4.58 3.6-12.13 4.22-19.82"/><path fill="#ffdbc2" d="M597 140.3s2.2 10.61 2.55 12.9 1.51 5.22 3.77 5.71c0 0-1.85 7.23-8.49 9.77s-13.4 0-13.4 0a49.5 49.5 0 0 0-2.92-7.42c-1.47-2.64-5.35-4.1-5.35-4.1Z"/><path fill="#edc1a4" d="M597.18 141.13c-.1-.51-.17-.83-.17-.83l-23.84 16.86s3.88 1.46 5.35 4.1c0 0 11.2-2.34 16-7.12 3.89-3.91 3.09-10.67 2.66-13.01"/><path fill="#19313a" d="M579.6 90.79s-11.25-5.73-20.37 1.44-9 25.43-1.2 30.05c0 0 15.09-2.8 20.36-11.84s1.21-19.65 1.21-19.65"/><path fill="#ffdbc2" d="M568.39 100.06c-4.72 2-8.89 9.66-10.24 20.9-1 8.13 1 23.22 3.33 30.12s11.23 6.55 18.53 5.5 12.85-4.77 14.7-9.31a40.8 40.8 0 0 0 2.3-7s3.88 4 7.41 3.54 10.61-7.82 10.27-16-.84-23.54-13-27.75-33.3 0-33.3 0"/><path fill="#edc1a4" d="m577.35 153.2 6 2.67a23.3 23.3 0 0 0 4.45-1.73s-9.18-13.45-12.09-16.39-17.64-8.58-17.77-8.63c0 .75.08 1.51.13 2.28l6.91 6.35Z"/><path fill="#19313a" d="M568.39 100.06s.15 6.06 8.92 12.27 12.59 8.6 13.4 10-1 6.51.22 8 4.29-.13 5.83-4.15c1.49-3.84 6.32-5.79 8.9-3.84s3.56 5.09 1.45 11.21c-1.75 5.08-7.07 8.55-10.1 6.81 0 0-.14 8.45 2.55 12.9a50.5 50.5 0 0 1 7.42-7.6c5-4.27 10.39-9.4 12-23.69S609.68 93 604 89.67s-18.22-4.5-24.42 1.12Z"/><path fill="#19313a" d="M603.33 89.29s2.57-7.58 9.18-11.9 21.72-5.26 28.47 0a35.64 35.64 0 0 1 13.08 22.8c1.49 9.53 3.24 14.18 10.66 19.84s16.46 15.91 10.38 31.42-24.82 15.78-28.46 15.24-4.72-3.1-2.16-6.61 5.94-9.94 1.62-14.48-7.55-6-13.62-9.8-10.25-8.21-10-15.77 2.56-17 .27-21.84-6.93-8.58-13.77-4c.02-.05-4.72-.56-5.65-4.9"/><path fill="#673c68" d="M603.33 158.91c5.85 0 13 1.89 15.36 14.83s3.51 26 3 33.67a44 44 0 0 1-3.52 14l-23.64-13.85s-1.63-23.21-2.06-31.74 1.58-16.57 10.86-16.91"/><path fill="#5ea4dd" d="M582.67 292.61a94 94 0 0 1 5.33 29.51c0 8-1 28.09-1 28.09h-89.5l-3.9-43.66s6.45-20.76 28-26.17 52.88-5.02 61.07 12.23"/><path fill="#518ecc" d="M582.67 292.61c-8.19-17.25-39.61-17.65-61.11-12.23s-28 26.17-28 26.17l.64 7.14a39.54 39.54 0 0 0 34.8 2.44l-.73-18.55 9 17.61c29.3-.19 41-10.55 47.14-17.1-.59-2.27-1.22-4.16-1.74-5.48"/><path fill="#5b343c" d="M506 64.48a24.33 24.33 0 0 1-13.31 2.32c-3.83-.51-5.87-3.47-8.29-1.25-3 2.73-8.57 19.76 3 27.41C502 102.69 506 64.48 506 64.48"/><path fill="#e0a375" d="M488.73 84.05c-1.92 6.74-2 15.39 0 27.67s5.91 23.59 9.59 25.16c2.58 1.11 7.42 1.26 11.16.84s5-.76 5.71 5.45 24.46-.87 27.58-5.65c0 0-2.91-11.24-2.08-14.57s5-8.11 6.24-18.31-.21-28.5-14.15-34.74-30.43-1-36.82 3.75a18.26 18.26 0 0 0-7.23 10.4"/><path fill="#5b343c" d="M515.19 119.39c-.21 1.63 2.21 5.7 3.49 8.43s4 5.45 7.14 5.62 11.61 0 15.29-3.65c2-1.83 2-5.47 5-12s5.1-18 3.64-27S547.64 72.52 539 72.7c0 0-2.43-9.84-11.73-11.67s-16.5.89-23.16 4.38-14.19 8.85-14.3 15.59a7.57 7.57 0 0 0 5.37 4.65c3.1.69 1.72 2.63 1.88 4.69.27 3.58.82 5.84 3.46 7.81s3.6 2 3.6 6.1c0 5.49.18 6.75 1.82 7.12s3.47-1.1 5.47-6.39 5.84-5.88 8.94-2.48 2.2 12.89 0 15.47c-2.69 3.12-4.86-.97-5.16 1.42"/><path fill="#08668d" d="M408.27 309.52c-1.5 6.64-3.63 34-3.91 40.69h104.33s-2.62-19.46-9.5-31c0 0-21.65-17.32-45.11-20.11s-45.81 10.42-45.81 10.42"/><path fill="#0a5c75" d="M408.27 309.52c-.69 3.05-1.51 10.46-2.22 18.24s3.59 1.05 8.25-3.32 4.67-6.6 5.76-6 2.89 5.68 9.32 12.21c4.9 5 25.85 16.33 48.64 11.95 16.65-3.21 22.77-11.44 24.86-15.64a52.4 52.4 0 0 0-3.69-7.83A115.7 115.7 0 0 0 482 308.31l-15.71 3L436 299.68a90.4 90.4 0 0 0-27.73 9.84"/><path fill="#47b" d="M401.8 305.33s3.8 22.52 5.15 44.88H282.22s4-35.5 6.52-52.45Z"/><path fill="#35679e" d="M286.74 312.42S297.52 342.1 346.3 340s56.79-26.26 56.79-26.26l-1.29-8.43-113.06-7.57Z"/><path fill="#f8c6a3" d="M337.66 63.72c-8.63 0-24.74 5-24.74 28.9 0 0-1.83-3.16-4.16-1.83s-1.49 9 0 13.45 4.77 5.43 6.77 5.26c0 0 2.39 7.23 4.38 10.38s6.94 8 6.94 8l-.15 13.42h30.39v-15.13c0-5 7.22-16.45 7.22-16.45s3.29 1.26 5.55-2.9c2.58-4.74 3.75-14.18 1.38-16-3.73-2.9-5.17 3.32-5.17 3.32s-1.67-18.77-11.63-23.42-16.78-7-16.78-7"/><path fill="#3d3360" d="M312.85 95.25c-.54-4.82-2.51-14.36-1.61-23.19s4.64-15.27 7.33-15.86 2.84 2.24 5.84 2.84a8.2 8.2 0 0 1 1.35-7c2.54-3.44 4.65.77 9.58 3.3 6 3.08 8.75 1.63 13.1 4.32 5.14 3.18 5.29 6.94 5.29 6.94a7.7 7.7 0 0 1 6.38.86c4.46 2.54 7.95 11.27 6.51 27.41-1.28 14.33-4.81 25.8-9.53 31.34s-23.19 5.12-30.24 1.69c0 0-5.89-1.74-10.09-14.92a92 92 0 0 1-3.91-17.73"/><path fill="#def1f8" d="M314.45 146.87a56.4 56.4 0 0 1-17.9 6.36c-7.94 1.25-12.65 1.78-15.88 5.92 0 0 11.56 13 13.56 36.59 1.45 17-3.39 25.45-3.39 25.45s2.26 9.38 6.53 16.44-4.83 32.15-7.07 40.64-4.69 20.39-4.69 20.39c.8 3.22 16 32.66 57.48 32.66s59.21-25.1 60-28.49-4.2-22.78-7.24-38.85-5.18-29.75-2.59-41.54 7.15-27.77 8.22-41.71-1.48-26.88-3.48-28.49-4.47-1.34-11.53-2.77a68 68 0 0 1-14.72-4.47s-2.05-1.45-12.67-.38-18.4 3.84-27.87 1.61-13.94-.93-16.76.64"/><path fill="#def1f8" d="M399.1 154.14a18 18 0 0 0-1.09-1.89 4.94 4.94 0 0 1 1.09 1.89"/><path fill="#90c8ee" d="M395.87 264c-.54-2.87-1.05-5.66-1.51-8.37h-83.51l-11.57-28.46c6.05-17.15 4.29-34.77 0-42.84l-6.73.62a79 79 0 0 1 1.68 10.82c1.45 17-3.39 25.45-3.39 25.45s2.26 9.38 6.53 16.44-4.83 32.15-7.07 40.64c-.82 3.13-1.47 5.84-1.93 8.18 3.13 2 12.33-1.75 12.33-1.75s59.25 21.84 65.59 20.2c5.29-1.37 25.28-23 31.77-30.13-.77-3.65-1.52-7.32-2.19-10.8" opacity=".37"/><path fill="#ffdbc2" d="m407 253.71-29.39 31.76s-6.92 7.76-9.23 9.57-2.8 4.13-14.84 1S291 275.65 291 275.65a9.62 9.62 0 0 1-1-9.65c2.48-5.38 5.66-6 5.66-6l58.18 12.86 4.44-5Z"/><path fill="#ffdbc2" d="M290.84 221.19s11.63 24.8 13.21 27.68 1.8 3.11 7.43 2.66 70.3-5.86 70.3-5.86l1.65 16.26s-82.25 17.49-88.88 19c-4.48 1-6.57-.46-9.5-5.27s-19.53-37.86-19.53-37.86Z"/><path fill="#3cb28e" d="m315.41 251.21-3.93.32c-5.63.45-5.85.23-7.43-2.66s-13.21-27.68-13.21-27.68l-25.32 16.6s16.61 33 19.53 37.86 5 6.29 9.5 5.27c1.86-.42 9.65-2.09 19.9-4.28 4.43-7.88 2.3-20.64.96-25.43"/><path fill="#f8c6a3" d="M246.86 221.86S212.61 191 206.78 184.3s-8-11.69-13.1-13.72-4.8-.44-8 0-5.24-.15-7.86 1.89-4.08 1.75-6 3.35-4.51 6.48-4.08 8.48.73 9 10.63 10 14 3.2 14 3.2l37.2 51.36Z"/><path fill="#eab18b" d="M188.76 175.47c1.1 1.79 2.23 4.11.54 6s-7.22 7.86-7.22 7.86-5.37 2.65-4.51-.91 11.19-12.95 11.19-12.95M207.38 185.56c1.56 5.58 1.64 13.14-.09 16.62s-6.44 7-6.44 7l-3-4.19Z"/><path fill="#def1f8" d="M280.67 159.15c-4.37 5-7.52 11.64-13.08 23.95s-20.73 38.76-20.73 38.76l-6.16-6s-12.61 14.42-12.31 31.54c0 0 10.36 13.07 14.27 16.23s8 3.6 13.67-1.81 34.51-40.62 34.51-40.62 7.84-4.59 9.65-20.81-8.09-42.97-19.82-41.24"/><path fill="#bce3f6" d="M245.41 220.44c-2.61 2.33-13.63 18.09-11 34.32l1.25 1.48s-1.18 1-2.9-.85-7.73-8.15-8.73-10-.43-10.16 3.72-20 9.28-14.62 11.71-12.66a41 41 0 0 1 5.18 4.79c1.25 1.33 2.55 2.77 2.2 4.39Z"/><path fill="#93bf56" d="M419.85 215.69c-5.52-3-15.06-4.38-22.3.89a15.7 15.7 0 0 0-3.91 4.27c-9.3 13.64-35.38 46.93-35.38 46.93s1.41 11.86 19.3 17.69L407 253.71a174 174 0 0 1 3.56 20.1c1 9.65-4.82 50.18-4.82 50.18s4.42.06 8.44-4.76 4.61-7.64 5.72-7.64 2.29 7.47 13.18 15.31c8.65 6.23 33.26 14.68 48.71 9.78 17.7-5.61 17.76-13.8 18.76-17.62a80.7 80.7 0 0 0-8.19-11.49c-5-6-6-8.77-6-9.81s2-5.66 1.21-7.47-5-5.63-4.1-8.44 7.91-25.12 9.92-38 0-29.35 0-29.35Z"/><path fill="#80ad4d" d="M401.37 214.83c5.83-1.65 19.13 3.41 22.39 6.6s4.74 17.6 21 23.49 42.69 2 42.69 2L473 212.24l-49.69-7.38Z"/><path fill="#80ad4d" d="M489.8 259.75c1.47-5.62 2.8-11.34 3.51-15.88a88 88 0 0 0 .89-14c-6.74 1.34-66.29 13.16-66.7 12.74s-23.14-13.09-23.14-13.09l-15.28-2.28c-7 9.63-17.13 22.85-23.85 31.53a87.6 87.6 0 0 0 11.64 5.74 39.24 39.24 0 0 0 17.84 2.38L407 253.71s1.17 4.77 2.24 10.84c6.11 0 23.91-.25 42.38-1.35 19.57-1.2 34.38-2.96 38.18-3.45"/><path fill="#ec6469" d="M515.19 143.17c6-2.19 24-7.26 33.47-6.12s22.69 6.08 28 11.78 4.94 25 4.94 31.56-3 21.62-5.38 28.43-3 22-2.6 34.44 8.11 42.45 9.63 46-5.73 9.25-16.78 13.58c-13.73 5.38-34.8 6.83-34.8 6.83l-7-19.39-1.4 20a51.4 51.4 0 0 1-17.36.51c-9.25-1.39-12.8-4.31-13.56-5.45s-3.2-33.59-1.16-51.65c0 0 15.48-10.07 17.89-22.24s6.11-88.28 6.11-88.28"/><path fill="#d3545e" d="M532.26 149.51c4.22 3.54 10.49 8.76 10.48 20.3 0 9.11-4.77 27.54-4.77 27.54l-9-2.53Z"/><path fill="#d3545e" d="M576.23 208.82c2.35-6.81 5.38-21.84 5.38-28.43 0-5.69.28-20.84-3.07-28.53l-4.26-5.16c-6.23-4.76-17.32-8.66-25.62-9.65a42.9 42.9 0 0 0-10.67.46c1.62.57 6.09 4.26 7.41 7s5.53 5 10.8 3.82 4.74.63 7.63 8.81 6.85 21.86 6.85 21.86l-13.56 5.26s-30.12 15.33-45.66 23.17c-.42 5.86-.85 11.17-1.26 15.43 10.09-2.3 24.21-5.4 28.22-5.65 6.45-.39 17.25 1.06 22.65 2 3 .52 9.11-2.1 13.81-4.49a36 36 0 0 1 1.35-5.9"/><path fill="#d3545e" d="M533.46 217.93v-18.42l-21.64 2.84c-.92 13.43-1.88 25-2.7 29.12-2.41 12.17-17.89 22.24-17.89 22.24-.2 1.84-.36 3.83-.49 5.92 4.84 0 13.45 0 17.91-.67 6.39-.93 10.14-2.81 13.88-14.32s7.61-26.09 10.93-26.71"/><path fill="#e0a375" d="m487.45 223.39-64.65 9.83c-4.09.57-10.67-2.05-15.85-4.52s-5.93-3.3-12.29-3.34-12.25-2.61-13.46-.65 2.07 5.9 6.51 7 7.29 1.59 7.29 1.59h-9.83c-4.75 0-7 .69-8.43 2.25s-1.15 4.48-2.44 5.3-3 2.24-3 4.34-3.46 3.67-3.53 5.57-.65 2.39.56 4.08 10.58 6.45 18.59 7 15.36-1.27 20.05-2.46c3.55-.9 5.49-1.6 13.43-1.94 6.07-.26 39.49-1.83 39.49-1.83Z"/><path fill="#f2f2f2" d="M525 144.26c-6.73-3.47-19.21-1.59-23.24 13.79s-14.33 65.34-14.33 65.34l-27.58 4.2s3.84 16.48 0 28c0 0 33.09-1.75 39.51-1.89s14.11-1.05 18.51-12.39 17.24-56.19 19.42-63.14 5.3-24.88-12.29-33.91"/><path fill="#65439b" d="M441.88 117.6c-10.53 2.75-20.21 11.38-22.79 25.18s-1.59 20 3.38 31.7S433.16 194 431 206.3s1.83 19.32 10.86 28.08c12.86 12.49 45.14 15.53 61.28 0 15-14.47 2.8-35.19 2.8-35.19s11.18-10.19 8.59-21.33-6.76-13.73-16.31-18.79S483.49 143 480.71 136s-14.45-24.76-38.83-18.4"/><path fill="#523c7c" d="M431 206.3c-1.44 8.28-.11 14.14 3.64 19.75 6.9 2.85 20.45 7.76 23.58 8.33s23.16-4.31 25.15-4.17 4.4 1.16 9.77 0 7.34-4.19 7.34-4.19l9.27-2.67c1.89-6.95.37-13.87-1.28-18.52h-77.25c-.06.51-.11.98-.22 1.47"/><path fill="#f8c6a3" d="M490.09 193.68s46.57-5.77 50.91-6.59 7.2-4.07 12.09-7.19 9.11-4.49 12.5-3.94 8.7.81 10.33.95.81 3.26-1.9 4.07-8 1.63-7.61 2.18 9.51.54 11-.41 2.31-1.36 3.13-3.13 2.85-1.35 3.94.14a6.26 6.26 0 0 1 .67 6.79c-1.49 2.58-3 3.84-3.12 5s.41 4.32.54 6.23-2.58 4.34-3.12 5.7-.68 3.53-3.94 5.84a29.5 29.5 0 0 1-11.76 4.53c-3 .28-15-1.52-20.35-1.66s-13 1.77-26.14 4.25c-10.16 1.93-28.53 6.68-28.53 6.68Z"/><path fill="#def1f8" d="M398 152.24s3.58-.91 8.27 2.11 60.35 39.48 61.41 40.09 22.39-.76 22.39-.76 3.33 17.09-1.36 29.49c0 0-23 3.94-26.47 5s-5.9.61-12.71-2-28.74-10.89-35.39-11.95-15.68-1.18-20.62 7.05c0 0-2.55-10.93.43-28.25 3.17-18.33 4.05-40.78 4.05-40.78"/><path fill="#90c8ee" d="M490 218.89a34 34 0 0 1-1.28 4.29s-23 3.93-26.47 5-5.9.6-12.7-2-28.74-10.89-35.4-11.95-15.66-1.18-20.61 7c2.62-11.66 6.92-27.06 8-40.54.88-11.45-.71-22.23-2.4-26.6a58.4 58.4 0 0 1 5.61 18.52c2 13.5 1.52 18.94 1.3 23.51s5.45 9.09 19.16 14.15 31.52 12 34.7 12.86c2.9.87 26.64-3.59 30.09-4.24" opacity=".37"/><path fill="#bce3f6" d="M483.39 194.07c0-1.79 2.38-2 6.13-2.24s5.58-.72 7 1.12 3 9.35 2.91 16.87c0 5.6-1.32 12.75-3.37 13.66a23 23 0 0 1-6.37 1.48c-2.39.34-5.79 1-6.25-.86l1.58-.28a46.5 46.5 0 0 0 2.51-14 60.2 60.2 0 0 0-1.82-15.88Z"/><path fill="#ffdbc2" d="M560.1 144.26c-1.3.13-5.81 2-9.92.77s-8.72-8.09-12.19-7.52l-11.59 2.33a18.5 18.5 0 0 1 4.91-4.51c2.91-1.73 11.67-4.25 14.8-5.1 4.13-1.12 9.28-2.11 12.25-1 6.75 2.6 15.61 7.88 17 9.61s31.69 44.62 36.26 50.77 9.46 14 8 24.75-4.73 13.46-8.2 14.3-15.76-6.26-19.7-11.78-26.17-63.69-27.44-66.69-2.73-6.08-4.18-5.93"/><path fill="#c17a61" d="m271.49 283-.66 4.41a21 21 0 0 1-6 .78c-2.17-.26-3.08-.9-2.53-1.6s4-2.48 5.79-4c3.82-3.27 3.8-8 1.19-7-1.51.57-2.78 1.63-4.72 2-2.14.4-4.06 1-7.57 1.67a18.2 18.2 0 0 0-7.59 3.45 5.62 5.62 0 0 1-4.4 1.59l-24.6-8.39c-10.19-3.47-19.7-6.71-21.42-7.31-3.83-1.33-4.79-2.57-5.34-5.25-1.12-5.4-4.31-16.48-4.31-16.48l-18.18 27.18a62 62 0 0 0 2.5 9.39c2 6 4.66 8.33 9.33 8.83 2.47.26 17.09 3 31.19 5.82s24.86 5.34 31.19 7 12.42 2.67 16.27 2a11.23 11.23 0 0 0 7.07-4.8c.9-1.31 1.78-1.18 4.06-2.74s1-5.1 1.86-6.59c1.05-1.73 2.08-2.49 2-5.34s-5.13-4.62-5.13-4.62"/><path fill="#ffdbc2" d="M79.58 166.8s11.61 28 12.61 30.18 3.13 1.94 16.9 1.46 42.95-1.7 46.84-2.92 5.11-3.65 7.06-7.05 3.64-6.08 11.91-8.76 13-5.84 13.86-4.24c.47.88 1.23 3.29-2 5.87s-8 5.95-7.3 6.76 19.11-3.13 21.73-5.32 1.64-3.47 1.64-3.47a3.31 3.31 0 0 1 3.51 1.54c1.29 2.1 1.51 9.25 1 12.52s-1.16 7.77-5.18 11.47-10.8 7.16-17 8.75c-5 1.28-12 .55-21 2.64s-41.28 9.57-58.65 13.49c-15.66 3.54-32.54 7.37-37.29 5.76s-10-11.8-16.74-30.8Z"/><path fill="#00a5c8" d="M46.26 128.89c-6.19 2.67-15.07 11.43-8.51 38.3S49.42 206 49.42 206s25.29 4.37 39.64-18.48c-.24-1.46-7.54-21.89-14.1-37.21s-14.59-27.5-28.7-21.42"/><path fill="#90c8ee" d="M314.45 146.87s8.29 1.29 12.72 3.84 9.3 3.63 16.75 3.42a37.3 37.3 0 0 0 16.87-4.54c4.53-2.27 7.77-4.8 11-4.56 0 0-1.67-2.95-27.93-2.95s-29.41 4.79-29.41 4.79" opacity=".37"/><path fill="#def1f8" d="M342.11 137.52c-6.78.32-11.9-1.8-15.41-2.37s-7.46 1.41-12.25 11.72a33 33 0 0 1 10.16 1c5.36 1.41 10.74 3.21 18.49 2.8 9.46-.5 14.95-3.13 19.31-4.22a48 48 0 0 1 9.34-1.4s-7.68-13.77-14.66-11.29c-5.09 1.81-9.09 3.48-14.98 3.76"/><path fill="#edc1a4" d="m316.89 284.38 32.22-12.64-5.62-1.25h-.27l-41.34 8.84c4.3 1.46 9.52 3.22 15.01 5.05"/><path fill="#00a5c8" d="M63.9 116.19s4.94 8.49 12.33 12.45a29.6 29.6 0 0 0 15.88 3.64l3.14 4s-9.35 2.27-20.2-3.39c-10.19-5.31-13.79-13.27-13.79-13.27Z"/><path fill="#349977" d="m183.74 298.4 4.53-.82v-5.82c-1.36 2.06-2.87 4.29-4.53 6.64M165.14 282.85c2.57-3.6 24.16-36 24.16-36a75.7 75.7 0 0 1-3.3-27.23 71.2 71.2 0 0 0-3.29 27.55s-17.08 28-21.57 31.43-21.87 1.32-21.87 1.32 8.22 2.74 15.08 4.45 8.22 2.08 10.79-1.52"/><path fill="#aa6552" d="m191.46 254.64-18.42 26.59-1.92-7.18 18.19-27.18z"/><path fill="#2b1c1f" d="M106.34 127.42s13.34 0 22-14.2c0 0-4 18-22.6 16.85.26-.95.4-1.84.6-2.65"/><path fill="#35679e" d="M610.3 293.19c1.52 7 3.8 17.25 5.16 18.57s20.27 3.72 20.27 3.72l.33-1.72s-16.53-2.3-18.68-3.14c-1.44-.57-5.38-11.97-7.08-17.43"/><path fill="#518ecc" d="M517.73 350.21a296.5 296.5 0 0 1-2.79-41.07h-2.29s-2.07 13.59 2.24 41.07Z"/><path fill="#35679e" d="M105.43 324.54s-3.21 11.82-3.21 15.58 8.34 9.11 10.26 8.9 16.48-3.21 18.4-5.35 4.06-23.1 4.06-23.1-4 20.3-5.3 21.58-14.38 5.07-16.74 4.86-8.76-5.37-8.76-7.12 1.29-15.35 1.29-15.35M83.88 318.23c-3.17 7-5.87 16.56-6.92 18.09s-12.53 2.41-12.53 2.41l.51-2.21s7.36-.67 9.22-1 2.33-1.94 3.38-4.43 6.34-12.86 6.34-12.86"/><path fill="#0b597f" d="m31.96 350.21 12.61-48.4h1.86l-12.05 48.4z"/><path fill="#0b597f" d="M42.75 314.83c8.7 1.15 20.9-.49 25.36-14.79l.25 3.11s-1.63 7.8-8.44 11.25a25.85 25.85 0 0 1-17.81 2Z"/><path fill="#518ecc" d="M526.93 314.8c1.11 8.78 2.31 18.07 4.55 20s18.06 3 20.21 2.19 8.33-7.18 8.46-9.52-2.79-21.47-2.79-21.47.67 18.9.49 20.82-5.05 7.56-7.37 7.94-15.22.46-17-1.64-6.55-18.32-6.55-18.32"/><path fill="#35679e" d="M601.81 287.64s4 15.43 6.45 29.45 3.74 33.12 3.74 33.12h-2.44a247 247 0 0 0-3.45-33.12c-3.05-16.86-6.5-29.45-6.5-29.45Z"/><path fill="#518ecc" d="M567.5 306.48c2.07 12.26 3.46 22.53 1.69 31.67s-2.27 12.06-2.27 12.06h1.54l2.62-13.92c.89-4.67.64-12.25-2.08-30.25ZM578 301.93c1.15 7.71 2.18 16.58 3.08 18.64s6.9 3.87 6.9 3.87v1.66s-6.61-1.32-8.54-4.46-1.44-19.71-1.44-19.71"/></svg>