<svg width="333" height="210" viewBox="0 0 333 210" fill="none" xmlns="http://www.w3.org/2000/svg">
<path d="M90.9429 31.0779V96.2995" stroke="#212121" stroke-miterlimit="10" stroke-dasharray="4 6"/>
<path d="M206.806 171.266L186.733 188.858L27.6326 93.3891L47.6983 75.804H206.806V171.266Z" fill="white" stroke="#212121" stroke-miterlimit="10"/>
<path d="M186.733 93.3892H27.6326V188.851H186.733V93.3892Z" fill="white" stroke="#212121" stroke-miterlimit="10"/>
<path d="M107.185 162.906C120.91 162.906 132.036 153.155 132.036 141.127C132.036 129.099 120.91 119.348 107.185 119.348C93.4606 119.348 82.3345 129.099 82.3345 141.127C82.3345 153.155 93.4606 162.906 107.185 162.906Z" fill="#7AF7C2"/>
<path d="M119.522 134.205L103.741 148.042L95.8503 141.127" stroke="#212121" stroke-width="5" stroke-miterlimit="10"/>
<path d="M186.733 93.3891L206.807 75.804" stroke="#212121" stroke-miterlimit="10"/>
<path d="M226.873 75.804L246.946 58.2122L206.807 75.804L186.733 93.3892L226.873 75.804Z" fill="white" stroke="#212121" stroke-linecap="round" stroke-linejoin="round"/>
<path d="M291.499 191.384L271.433 208.969L152.464 139.884L172.53 122.299H291.499V191.384Z" fill="white" stroke="#212121" stroke-miterlimit="10"/>
<path d="M271.433 139.884H152.464V208.969H271.433V139.884Z" fill="white" stroke="#212121" stroke-miterlimit="10"/>
<path d="M214.087 190.425C224.169 190.425 232.342 183.262 232.342 174.426C232.342 165.591 224.169 158.428 214.087 158.428C204.005 158.428 195.832 165.591 195.832 174.426C195.832 183.262 204.005 190.425 214.087 190.425Z" fill="#00C1A4"/>
<path d="M223.157 169.348L211.56 179.512L205.765 174.426" stroke="#212121" stroke-width="4" stroke-miterlimit="10"/>
<path d="M311.565 122.299L331.638 104.707L291.499 122.299L271.433 139.884L311.565 122.299Z" fill="white" stroke="#212121" stroke-linecap="round" stroke-linejoin="round"/>
<path d="M125.833 122.299L145.899 104.707L172.53 122.299L152.465 139.884L125.833 122.299Z" fill="white" stroke="#212121" stroke-linecap="round" stroke-linejoin="round"/>
<path d="M27.6323 93.3893L47.6981 75.8042H173.856V93.3893H27.6323Z" fill="#212121"/>
<path d="M103.271 92.5114V52.0737H57.1293V92.5114H103.271Z" fill="#FFA100"/>
<path d="M161.289 54.2093L173.859 43.1929L161.289 32.1765L148.719 43.1929L161.289 54.2093Z" fill="#212121" stroke="#212121" stroke-miterlimit="10"/>
<path d="M94.2833 29.7756L94.2888 29.7709C96.3772 27.9406 96.3773 24.9731 94.2889 23.1428L94.2834 23.138C92.195 21.3078 88.8088 21.3079 86.7204 23.1381L86.7149 23.1429C84.6265 24.9732 84.6265 27.9406 86.715 29.7708L86.7204 29.7756C88.8089 31.6059 92.1949 31.6059 94.2833 29.7756Z" fill="#212121" stroke="#212121" stroke-miterlimit="10"/>
<path d="M126.158 92.5112C126.158 86.9303 128.688 81.578 133.191 77.6318C137.694 73.6855 143.801 71.4685 150.169 71.4685C156.538 71.4685 162.645 73.6855 167.148 77.6318C171.651 81.578 174.18 86.9303 174.18 92.5112" fill="#FF76C4"/>
<path d="M280.218 131.97H199.747V58.1243C199.747 55.7959 200.802 53.5629 202.681 51.9165C204.559 50.2702 207.107 49.3452 209.764 49.3452H270.177C272.834 49.3452 275.382 50.2702 277.26 51.9165C279.139 53.5629 280.194 55.7959 280.194 58.1243L280.218 131.97Z" fill="white"/>
<path d="M271.019 140.234V32.2212" stroke="#212121" stroke-miterlimit="10"/>
<path d="M245.06 140.235V8.53418" stroke="#212121" stroke-miterlimit="10"/>
<path d="M218.02 140.235V8.53418" stroke="#212121" stroke-miterlimit="10"/>
<path d="M280.754 126.022H173.674" stroke="#212121" stroke-miterlimit="10"/>
<path d="M280.753 102.335H176.918" stroke="#212121" stroke-miterlimit="10"/>
<path d="M280.753 78.6479H168.266" stroke="#212121" stroke-miterlimit="10"/>
<path d="M279.672 55.9084H199.632" stroke="#212121" stroke-miterlimit="10"/>
<path d="M280.217 31.9829H200.556" stroke="#212121" stroke-miterlimit="10"/>
<path d="M258.1 105.987L258.105 105.982C260.193 104.152 260.193 101.185 258.105 99.3542L258.1 99.3495C256.011 97.5192 252.625 97.5192 250.537 99.3494L250.531 99.3542C248.443 101.184 248.443 104.152 250.531 105.982L250.537 105.987C252.625 107.817 256.011 107.817 258.1 105.987Z" fill="#212121" stroke="#212121" stroke-miterlimit="10"/>
<path d="M280.219 131.97L271.427 139.884H199.763V58.1243C199.763 55.7959 200.819 53.5629 202.697 51.9165C204.576 50.2702 207.124 49.3452 209.781 49.3452H270.194C272.851 49.3452 275.399 50.2702 277.277 51.9165C279.156 53.5629 280.211 55.7959 280.211 58.1243L280.219 131.97Z" stroke="#212121" stroke-miterlimit="10"/>
<path d="M254.32 139.878H173.849V72.4746C173.849 70.1463 174.905 67.9133 176.783 66.2669C178.662 64.6205 181.21 63.6956 183.867 63.6956H244.287C246.944 63.6956 249.492 64.6205 251.371 66.2669C253.249 67.9133 254.305 70.1463 254.305 72.4746L254.32 139.878Z" fill="white" stroke="#212121" stroke-miterlimit="10"/>
<path d="M187.103 84.9341H224.445" stroke="#212121" stroke-miterlimit="10"/>
<path d="M187.103 104.289H237.252" stroke="#212121" stroke-miterlimit="10"/>
<path d="M187.103 94.6113H213.372" stroke="#212121" stroke-miterlimit="10"/>
<path d="M237.244 112.014H187.103V126.013H237.244V112.014Z" fill="#0081FF"/>
<path d="M1 75.804L21.0657 58.2122L47.6968 75.804L27.631 93.3892L1 75.804Z" fill="white" stroke="#212121" stroke-linecap="round" stroke-linejoin="round"/>
<path d="M119.684 10.5823V75.1556" stroke="#212121" stroke-miterlimit="10" stroke-dasharray="4 6"/>
<path d="M119.684 92.5111V75.1555" stroke="white" stroke-miterlimit="10" stroke-dasharray="4 6"/>
<path d="M152.464 139.884L172.53 122.299H173.855V139.884H152.464Z" fill="#212121"/>
<path d="M280.219 122.299V131.97L291.5 122.299H280.219Z" fill="#212121"/>
<path d="M113.196 11.3655L126.165 11.3655V-3.05176e-05L113.196 -3.05176e-05V11.3655Z" fill="#00CAFF"/>
<path d="M199.863 126.013C199.863 126.013 203.277 119.01 214.982 119.01C226.687 119.01 226.895 112.014 226.895 112.014" stroke="#212121" stroke-miterlimit="10"/>
<path d="M218.126 58.9414C220.152 58.9414 221.794 57.5023 221.794 55.7269C221.794 53.9516 220.152 52.5125 218.126 52.5125C216.1 52.5125 214.458 53.9516 214.458 55.7269C214.458 57.5023 216.1 58.9414 218.126 58.9414Z" fill="#FF0076" stroke="#212121" stroke-miterlimit="10"/>
</svg>
