<svg xmlns="http://www.w3.org/2000/svg" width="333" height="210" fill="none"><path stroke="#212121" stroke-dasharray="4 6" stroke-miterlimit="10" d="M90.943 31.078v65.221"/><path fill="#fff" stroke="#212121" stroke-miterlimit="10" d="m206.806 171.266-20.073 17.592-159.1-95.469 20.065-17.585h159.108z"/><path fill="#fff" stroke="#212121" stroke-miterlimit="10" d="M186.733 93.39h-159.1v95.461h159.1z"/><path fill="#7AF7C2" d="M107.185 162.906c13.725 0 24.851-9.751 24.851-21.779s-11.126-21.779-24.851-21.779-24.85 9.751-24.85 21.779 11.126 21.779 24.85 21.779"/><path stroke="#212121" stroke-miterlimit="10" stroke-width="5" d="m119.522 134.205-15.781 13.837-7.89-6.915"/><path stroke="#212121" stroke-miterlimit="10" d="m186.733 93.39 20.074-17.586"/><path fill="#fff" stroke="#212121" stroke-linecap="round" stroke-linejoin="round" d="m226.873 75.804 20.073-17.592-40.139 17.592-20.074 17.585z"/><path fill="#fff" stroke="#212121" stroke-miterlimit="10" d="m291.499 191.384-20.066 17.585-118.969-69.085 20.066-17.585h118.969z"/><path fill="#fff" stroke="#212121" stroke-miterlimit="10" d="M271.433 139.884H152.464v69.085h118.969z"/><path fill="#00C1A4" d="M214.087 190.425c10.082 0 18.255-7.163 18.255-15.999s-8.173-15.998-18.255-15.998-18.255 7.163-18.255 15.998c0 8.836 8.173 15.999 18.255 15.999"/><path stroke="#212121" stroke-miterlimit="10" stroke-width="4" d="m223.157 169.348-11.597 10.164-5.795-5.086"/><path fill="#fff" stroke="#212121" stroke-linecap="round" stroke-linejoin="round" d="m311.565 122.299 20.073-17.592-40.139 17.592-20.066 17.585zM125.833 122.299l20.066-17.592 26.631 17.592-20.065 17.585z"/><path fill="#212121" d="m27.632 93.39 20.066-17.586h126.158V93.39z"/><path fill="#FFA100" d="M103.271 92.511V52.074H57.129V92.51z"/><path fill="#212121" stroke="#212121" stroke-miterlimit="10" d="m161.289 54.21 12.57-11.017-12.57-11.016-12.57 11.016zM94.283 29.776l.006-.005c2.088-1.83 2.088-4.798 0-6.628l-.006-.005c-2.088-1.83-5.474-1.83-7.563 0l-.005.005c-2.089 1.83-2.089 4.798 0 6.628l.005.005c2.089 1.83 5.475 1.83 7.563 0Z"/><path fill="#FF76C4" d="M126.158 92.511c0-5.58 2.53-10.933 7.033-14.88 4.503-3.945 10.61-6.162 16.978-6.162s12.476 2.217 16.979 6.163 7.032 9.298 7.032 14.88"/><path fill="#fff" d="M280.218 131.97h-80.471V58.124c0-2.328 1.055-4.561 2.934-6.208 1.878-1.646 4.426-2.57 7.083-2.57h60.413c2.657 0 5.205.924 7.083 2.57 1.879 1.647 2.934 3.88 2.934 6.208z"/><path stroke="#212121" stroke-miterlimit="10" d="M271.019 140.234V32.221M245.06 140.235V8.535M218.02 140.235V8.535M280.754 126.022h-107.08M280.753 102.335H176.918M280.753 78.648H168.266M279.672 55.908h-80.04M280.217 31.983h-79.661"/><path fill="#212121" stroke="#212121" stroke-miterlimit="10" d="m258.1 105.987.005-.005c2.088-1.83 2.088-4.797 0-6.628l-.005-.004c-2.089-1.83-5.475-1.83-7.563 0l-.006.004c-2.088 1.83-2.088 4.798 0 6.628l.006.005c2.088 1.83 5.474 1.83 7.563 0Z"/><path stroke="#212121" stroke-miterlimit="10" d="m280.219 131.97-8.792 7.914h-71.664v-81.76c0-2.328 1.056-4.561 2.934-6.208 1.879-1.646 4.427-2.57 7.084-2.57h60.413c2.657 0 5.205.924 7.083 2.57 1.879 1.647 2.934 3.88 2.934 6.208z"/><path fill="#fff" stroke="#212121" stroke-miterlimit="10" d="M254.32 139.878h-80.471V72.475c0-2.329 1.056-4.562 2.934-6.208s4.427-2.571 7.084-2.571h60.42c2.657 0 5.205.925 7.084 2.57 1.878 1.647 2.934 3.88 2.934 6.209z"/><path stroke="#212121" stroke-miterlimit="10" d="M187.103 84.934h37.342M187.103 104.289h50.149M187.103 94.611h26.269"/><path fill="#0081FF" d="M237.244 112.014h-50.141v13.999h50.141z"/><path fill="#fff" stroke="#212121" stroke-linecap="round" stroke-linejoin="round" d="m1 75.804 20.066-17.592 26.63 17.592-20.065 17.585z"/><path stroke="#212121" stroke-dasharray="4 6" stroke-miterlimit="10" d="M119.684 10.582v64.574"/><path stroke="#fff" stroke-dasharray="4 6" stroke-miterlimit="10" d="M119.684 92.511V75.156"/><path fill="#212121" d="m152.464 139.884 20.066-17.585h1.325v17.585zM280.219 122.299v9.671l11.281-9.671z"/><path fill="#00CAFF" d="M113.196 11.366h12.969V0h-12.969z"/><path stroke="#212121" stroke-miterlimit="10" d="M199.863 126.013s3.414-7.003 15.119-7.003 11.913-6.996 11.913-6.996"/><path fill="#FF0076" stroke="#212121" stroke-miterlimit="10" d="M218.126 58.941c2.026 0 3.668-1.439 3.668-3.214s-1.642-3.214-3.668-3.214-3.668 1.439-3.668 3.214 1.642 3.214 3.668 3.214Z"/></svg>