<svg enable-background="new 0 0 87 53.5" viewBox="0 0 87 53.5" xmlns="http://www.w3.org/2000/svg"><path d="m9.2 22.7h.4l.1-.4c1.8-6.4 8.6-10 14.9-8.2 1.1.3 2.2.8 3.2 1.5l.7.4.1-.8c1.4-9.1 9.9-15.4 19-14 6.3 1 11.6 5.4 13.5 11.5l.1.5.5-.1c.9-.3 2-.4 2.9-.4 5.6 0 10.3 4.1 11.2 9.6l.1.4h.4 1.9c4.6 0 8.3 3.7 8.3 8.3v.7c0 4.6-3.7 8.3-8.3 8.3h-69.3c-4.6 0-8.3-3.7-8.4-8.3v-.7c0-4.6 3.8-8.3 8.4-8.3z" fill="#fcf9f9" stroke="#000"/><path d="m65.8 40.5h12.4c4.9 0 8.8-4 8.8-8.8v-.7c0-4.9-4-8.8-8.8-8.8h-1.9c-.9-5.7-5.8-10-11.7-10-1 0-2.1.1-3.1.4-2.8-9.1-12.5-14.1-21.5-11.3-6.3 2-10.9 7.3-11.9 13.8-5.8-3.7-13.6-2.1-17.3 3.7-.7 1-1.2 2.1-1.5 3.3h-.5c-4.8.1-8.8 4-8.8 8.9v.7c0 4.9 4 8.8 8.8 8.8z" fill="#fcf9f9"/><path d="m43.5 1.7s-9.8 19.8-.4 38l-18.8.7c.1 0-1.1-39.7 19.2-38.7z" fill="#ebecfb"/><path d="m26.6 40.5s-6.6-38 17.8-39.9c0 0-4.1 23.6-1.2 39.9z" fill="#ebecfb"/><path d="m7.5 40.4s-7.2-.4-7.5-8.7c-.4-9.5 9.2-9.5 9.2-9.5s2.1-7 8.7-8.6 10.2 1.7 10.2 1.7-4.1 7-1.4 25.2z" fill="#cccff6"/><path d="m60 32.5c0 6.1-4.9 11-11 11-.7 0-1.4-.1-2.1-.2l-1.5 1.7c-.1.2-.3.3-.5.4s-.4.1-.6.1h-2.3v2.5c0 .8-.7 1.5-1.5 1.5h-2.5v2.5c0 .8-.7 1.5-1.5 1.5h-7c-.8 0-1.5-.7-1.5-1.5v-4.9c0-.4.2-.8.4-1.1l10.2-10c-.4-1.1-.6-2.2-.6-3.4 0-6.1 4.9-11 11-11 6.1-.1 11 4.8 11 10.9zm-11-3c0 1.7 1.3 3 3 3s3-1.3 3-3-1.3-3-3-3-3 1.4-3 3z" fill="#5a62d3"/></svg>