<?xml version="1.0" encoding="iso-8859-1"?>
<!-- Generator: Adobe Illustrator 21.1.0, SVG Export Plug-In . SVG Version: 6.00 Build 0)  -->
<svg xmlns="http://www.w3.org/2000/svg" xmlns:xlink="http://www.w3.org/1999/xlink" version="1.1" id="Layer_1" x="0px" y="0px" viewBox="0 0 64 64" style="enable-background:new 0 0 64 64;" xml:space="preserve">
<g>
	<path style="fill:#ED7899;" d="M11,57V7c0-1.105,0.895-2,2-2h29.343c1.061,0,2.078,0.421,2.828,1.172l8.657,8.657   c0.75,0.75,1.172,1.768,1.172,2.828V57c0,1.105-0.895,2-2,2l-40,0C11.895,59,11,58.104,11,57z"/>
	<path style="fill:#F98CB3;" d="M55,29L25,59H11l-0.04-2.66l-0.03-1.75l-0.08-5.05l0.08-0.08l38.75-38.74l4.37,4.37   c0.24,0.24,0.44,0.52,0.57,0.82l0.31,10.66L55,29z"/>
	<path style="fill:#F98CB3;" d="M47.48,8.52L11,45l-0.07-2.73l-0.08-3.12l0.08-0.08L44.45,5.55c0.13,0.08,0.25,0.19,0.36,0.3   L47.48,8.52z"/>
	<polygon style="fill:#F98CB3;" points="10.853,33.147 39,5 42,5 10.853,36.147  "/>
	<polygon style="fill:#FFF8F8;" points="20.424,16.027 19.186,18.291 16.922,19.529 19.186,20.767 20.424,23.031 21.663,20.767    23.926,19.529 21.663,18.291  "/>
	<polygon style="fill:#FFF8F8;" points="35.508,10.031 34.653,11.595 33.089,12.45 34.653,13.305 35.508,14.869 36.363,13.305    37.926,12.45 36.363,11.595  "/>
	<polygon style="fill:#FFF8F8;" points="50.279,42.031 49.696,43.097 48.631,43.679 49.696,44.262 50.279,45.327 50.861,44.262    51.926,43.679 50.861,43.097  "/>
	<polygon style="fill:#FAEFDE;" points="43,6 43,16 45,17 54.946,17 44,6  "/>
	<rect x="31" y="33" style="fill:#FFF7F0;" width="12" height="12"/>
	<circle style="fill:#FFF7F0;" cx="27.5" cy="31.5" r="7.5"/>
	<g>
		<path style="fill:#8D6C9F;" d="M54.535,14.121L45.88,5.465C44.936,4.521,43.68,4,42.343,4H13c-1.654,0-3,1.346-3,3v50    c0,1.654,1.346,3,3,3h40c1.654,0,3-1.346,3-3V17.656C56,16.321,55.479,15.065,54.535,14.121z M53.121,15.535    c0.142,0.142,0.268,0.298,0.378,0.465H45c-0.552,0-1-0.448-1-1V6.498c0.165,0.11,0.321,0.237,0.465,0.381L53.121,15.535z M53,58    H13c-0.552,0-1-0.448-1-1V7c0-0.552,0.448-1,1-1h29v9c0,1.654,1.346,3,3,3h9v39C54,57.552,53.552,58,53,58z"/>
		<path style="fill:#8D6C9F;" d="M15,50c-0.553,0-1,0.447-1,1v2c0,0.553,0.447,1,1,1s1-0.447,1-1v-2C16,50.447,15.553,50,15,50z"/>
		<path style="fill:#8D6C9F;" d="M20,50c-0.553,0-1,0.447-1,1v2c0,0.553,0.447,1,1,1s1-0.447,1-1v-2C21,50.447,20.553,50,20,50z"/>
		<path style="fill:#8D6C9F;" d="M25,50c-0.553,0-1,0.447-1,1v2c0,0.553,0.447,1,1,1s1-0.447,1-1v-2C26,50.447,25.553,50,25,50z"/>
		<path style="fill:#8D6C9F;" d="M30,50c-0.553,0-1,0.447-1,1v2c0,0.553,0.447,1,1,1s1-0.447,1-1v-2C31,50.447,30.553,50,30,50z"/>
		<path style="fill:#8D6C9F;" d="M35,50c-0.553,0-1,0.447-1,1v2c0,0.553,0.447,1,1,1s1-0.447,1-1v-2C36,50.447,35.553,50,35,50z"/>
		<path style="fill:#8D6C9F;" d="M40,50c-0.553,0-1,0.447-1,1v2c0,0.553,0.447,1,1,1s1-0.447,1-1v-2C41,50.447,40.553,50,40,50z"/>
		<path style="fill:#8D6C9F;" d="M45,50c-0.553,0-1,0.447-1,1v2c0,0.553,0.447,1,1,1s1-0.447,1-1v-2C46,50.447,45.553,50,45,50z"/>
		<path style="fill:#8D6C9F;" d="M50,50c-0.553,0-1,0.447-1,1v2c0,0.553,0.447,1,1,1s1-0.447,1-1v-2C51,50.447,50.553,50,50,50z"/>
		<path style="fill:#8D6C9F;" d="M32,46h10c1.105,0,2-0.895,2-2V34c0-1.105-0.895-2-2-2h-6.01c0.005-0.081,0.007-0.16,0.009-0.238    c0.064-3.822-2.288-7.322-5.958-8.392c-5.854-1.706-11.189,2.738-11.037,8.364c0.112,4.164,3.365,7.742,7.504,8.21    c1.224,0.138,2.406,0.016,3.493-0.314V44C30,45.105,30.895,46,32,46z M27.5,38c-3.58,0-6.5-2.92-6.5-6.5c0-3.58,2.92-6.5,6.5-6.5    s6.5,2.92,6.5,6.5c0,0.17-0.01,0.34-0.02,0.5c-0.05,0.71-0.22,1.38-0.48,2c-0.35,0.82-0.86,1.56-1.5,2.17    c-0.57,0.56-1.25,1.02-2,1.33C29.23,37.82,28.38,38,27.5,38z M35.63,34h5.87c0.276,0,0.5,0.224,0.5,0.5v9    c0,0.276-0.224,0.5-0.5,0.5h-9c-0.276,0-0.5-0.224-0.5-0.5v-4.79C33.71,37.64,35.02,35.97,35.63,34z"/>
	</g>
</g>
</svg>
