<?xml version="1.0" encoding="UTF-8" standalone="no"?>
<!-- Generator: Adobe Illustrator 16.0.0, SVG Export Plug-In . SVG Version: 6.00 Build 0)  -->

<svg
   version="1.1"
   id="Capa_1"
   x="0px"
   y="0px"
   width="28.09px"
   height="28.09px"
   viewBox="0 0 28.09 28.09"
   style="enable-background:new 0 0 28.09 28.09;"
   xml:space="preserve"
   sodipodi:docname="mermaid-side-view-silhouette.svg"
   inkscape:version="1.1.1 (3bf5ae0d25, 2021-09-20)"
   xmlns:inkscape="http://www.inkscape.org/namespaces/inkscape"
   xmlns:sodipodi="http://sodipodi.sourceforge.net/DTD/sodipodi-0.dtd"
   xmlns="http://www.w3.org/2000/svg"
   xmlns:svg="http://www.w3.org/2000/svg"><defs
   id="defs39">
	
</defs><sodipodi:namedview
   id="namedview37"
   pagecolor="#ffffff"
   bordercolor="#999999"
   borderopacity="1"
   inkscape:pageshadow="0"
   inkscape:pageopacity="0"
   inkscape:pagecheckerboard="0"
   showgrid="false"
   inkscape:zoom="27.981488"
   inkscape:cx="14.062869"
   inkscape:cy="11.168098"
   inkscape:window-width="1920"
   inkscape:window-height="986"
   inkscape:window-x="-11"
   inkscape:window-y="-11"
   inkscape:window-maximized="1"
   inkscape:current-layer="Capa_1" />
<path
   d="M 26.211,1.599 C 25.717,0.744 24.752,0.003 23.713,0.004 23.707,0.002 23.703,0 23.697,0 c -1,0.016 -1.301,0.039 -2.254,0.452 -0.414,0.18 -1.229,0.97 -1.527,1.275 C 19.893,1.755 19.865,1.783 19.836,1.81 19.443,1.884 19.047,1.988 18.678,2.165 18.342,2.326 18.051,2.521 17.783,2.778 17.66,2.894 17.547,3.002 17.42,3.097 17.391,3.091 17.359,3.085 17.328,3.078 17.031,3.003 16.773,2.84 16.66,2.574 16.596,2.423 16.59,2.258 16.629,2.101 16.635,2.086 16.641,2.072 16.647,2.057 16.901,2.11 17.012,2.393 16.954,2.477 17.022,2.368 16.991,2.086 16.839,1.96 16.8,1.929 16.761,1.902 16.722,1.879 c 0.18,-0.319 0.537,-0.545 0.906,-0.454 0.057,0.015 0.109,0.035 0.164,0.063 0.246,0.125 0.324,0.375 0.271,0.587 -0.063,0.235 -0.276,0.42 -0.629,0.333 -0.004,0 -0.01,-0.002 -0.012,-0.003 -0.16,-0.041 -0.287,-0.223 -0.246,-0.373 0.012,-0.045 0.037,-0.089 0.082,-0.13 0.068,-0.061 0.18,-0.083 0.27,-0.061 0.102,0.029 0.174,0.101 0.152,0.249 -0.002,0.019 0.012,0.036 0.029,0.039 0.02,0.003 0.035,-0.01 0.037,-0.029 C 17.775,1.922 17.67,1.807 17.543,1.778 17.434,1.75 17.305,1.776 17.215,1.852 c -0.057,0.049 -0.09,0.105 -0.104,0.165 -0.049,0.197 0.102,0.401 0.293,0.454 0.004,10e-4 0.008,0.002 0.012,0.003 0.193,0.048 0.355,0.02 0.477,-0.054 C 18.016,2.346 18.094,2.226 18.127,2.092 18.189,1.853 18.096,1.568 17.82,1.428 17.761,1.398 17.703,1.376 17.642,1.361 17.236,1.26 16.85,1.503 16.66,1.846 16.301,1.67 15.861,1.757 15.549,2.137 15.176,2.585 15.111,3.315 15.32,3.915 c 0.111,0.32 0.275,0.597 0.484,0.823 -0.352,0.147 -0.691,0.33 -0.964,0.545 -0.517,0.408 -0.858,0.931 -1.009,1.53 -0.039,0.157 -0.066,0.317 -0.078,0.484 -0.039,0.514 0.23,1.044 0.534,1.311 0.179,0.158 0.396,0.254 0.608,0.308 0.218,0.055 0.433,0.063 0.599,0.042 0.102,-0.015 0.189,-0.038 0.246,-0.075 -0.062,0.339 0.033,0.653 0.127,1.198 0.146,0.871 0.17,0.915 0.111,1.337 -0.004,0.035 -0.012,0.069 -0.02,0.102 -0.129,0.509 -0.654,0.716 -1.097,0.605 -0.313,-0.08 -0.581,-0.314 -0.636,-0.717 -0.013,-0.101 -0.007,-0.191 0.013,-0.272 0.091,-0.363 0.482,-0.527 0.78,-0.454 0.202,0.053 0.356,0.206 0.35,0.493 -0.002,0.023 -0.004,0.047 -0.01,0.071 -0.021,0.085 -0.076,0.171 -0.146,0.227 -0.068,0.057 -0.148,0.084 -0.228,0.065 -0.048,-0.013 -0.099,-0.043 -0.146,-0.103 -0.046,-0.062 -0.057,-0.121 -0.045,-0.173 0.025,-0.099 0.142,-0.176 0.271,-0.144 0.012,0.003 0.025,0 0.037,-0.01 0.012,-0.014 0.01,-0.035 -0.006,-0.047 0,0 -0.002,-0.004 -0.012,-0.007 -0.166,-0.042 -0.319,0.054 -0.355,0.193 -0.018,0.072 -10e-4,0.156 0.059,0.231 0.053,0.069 0.117,0.11 0.183,0.126 0.208,0.049 0.403,-0.142 0.454,-0.341 0.006,-0.029 0.014,-0.057 0.014,-0.086 0.01,-0.315 -0.176,-0.504 -0.401,-0.559 -0.33,-0.083 -0.759,0.098 -0.862,0.502 -0.021,0.089 -0.027,0.188 -0.014,0.298 0.057,0.429 0.348,0.688 0.683,0.772 0,0 0.001,0 0.002,0 0.474,0.117 1.039,-0.103 1.179,-0.655 0.01,-0.035 0.018,-0.071 0.02,-0.109 0.061,-0.428 0.035,-0.493 -0.111,-1.357 -0.084,-0.492 -0.166,-0.79 -0.141,-1.074 0.021,0.129 0.051,0.262 0.088,0.38 0.215,0.701 0.398,1.416 0.42,1.973 0.021,0.611 0.074,1.258 -0.297,1.952 -0.111,0.213 -0.586,0.638 -1.007,0.565 -0.758,-0.132 -0.764,-0.86 -0.475,-1.119 0.166,-0.15 0.462,-0.044 0.587,0.085 -0.071,-0.396 -0.58,-0.454 -0.89,-0.266 -0.268,0.164 -0.535,0.445 -0.585,1.129 -0.025,0.369 0.184,0.895 0.693,1.175 0.551,0.302 1.242,0.407 1.746,0.243 0.965,-0.315 1.438,-0.772 1.705,-1.32 -0.004,0.017 -0.006,0.036 -0.01,0.053 -0.004,0.015 -0.008,0.03 -0.012,0.045 -0.037,0.144 -0.092,0.276 -0.16,0.4 -0.09,0.108 -0.195,0.245 -0.312,0.403 -0.395,0.386 -0.955,0.622 -1.494,0.694 -0.305,0.041 -0.625,0.021 -0.929,-0.055 -0.886,-0.225 -1.609,-0.919 -1.334,-2.019 0.021,-0.083 0.048,-0.17 0.082,-0.259 0.154,-0.41 0.482,-0.682 0.936,-0.675 0.059,0.001 0.121,0.01 0.188,0.026 0.245,0.061 0.503,0.231 0.574,0.48 0.027,0.096 0.027,0.18 0.01,0.25 -0.051,0.198 -0.242,0.297 -0.392,0.26 -0.087,-0.022 -0.161,-0.086 -0.191,-0.214 -0.007,-0.027 -0.007,-0.052 -10e-4,-0.073 0.012,-0.047 0.051,-0.084 0.098,-0.106 0.048,-0.023 0.104,-0.029 0.141,-0.021 0.033,0.011 0.041,0.021 0.041,0.047 -10e-4,0.019 0.015,0.035 0.032,0.037 0.021,0 0.035,-0.014 0.035,-0.033 0.006,-0.062 -0.042,-0.105 -0.092,-0.115 -0.11,-0.027 -0.278,0.03 -0.318,0.174 -0.008,0.033 -0.008,0.067 10e-4,0.105 0.035,0.147 0.13,0.236 0.24,0.263 0.187,0.047 0.414,-0.076 0.474,-0.309 0.021,-0.083 0.02,-0.18 -0.012,-0.286 -0.082,-0.283 -0.361,-0.461 -0.622,-0.527 -0.07,-0.018 -0.14,-0.027 -0.202,-0.027 -0.48,-0.007 -0.839,0.288 -1.001,0.719 -0.033,0.09 -0.062,0.179 -0.084,0.266 -0.142,0.567 -0.023,1.039 0.246,1.392 0.269,0.355 0.685,0.592 1.141,0.708 0.311,0.079 0.637,0.098 0.952,0.057 0.461,-0.062 0.939,-0.24 1.32,-0.529 -0.436,0.628 -1.088,1.486 -1.279,2.312 -0.455,1.976 1.922,5.537 1.961,6.832 0.09,2.94 -7.678,-0.125 -9.9,-3.518 C 7.526,19.97 10.272,14.37 8.32,11.815 7.764,14.029 5.302,13.892 5.897,17.067 4.317,15.325 2.96,16.713 1.423,15.752 c -0.105,4.057 5.519,4.843 5.905,5.373 0.191,0.261 2.529,4.069 5.389,5.554 5.516,2.862 8.051,0.989 8.646,-2.186 0.445,-2.372 0.121,-5.656 -0.035,-6.545 -0.154,-0.89 0.691,-5.107 1.604,-6.317 0.275,-0.363 1.225,-1.313 0.75,-1.746 -1.098,-1.002 -2.301,-2.55 -2.414,-3.918 0,0 0.299,-0.695 0.863,-1.052 0.025,0.099 0.045,0.154 0.045,0.154 0,0 0.479,0.963 0.748,1.031 0.211,0.053 0.213,-0.138 0.305,-0.231 0.09,-0.091 0.512,0 0.512,0 0.197,-0.046 0.076,-0.354 0.076,-0.354 0.197,0.348 0.318,0.193 0.318,0.193 -0.062,-0.278 0.285,-0.266 0.285,-0.266 0.275,0.218 0.361,0.191 0.402,0.126 0.062,-0.102 0.016,-0.02 0.107,-0.532 0.02,-0.107 0.061,-0.201 0.107,-0.282 0.117,0.134 0.266,0.268 0.432,0.32 0,0 -0.199,-0.165 -0.352,-0.433 0.189,-0.228 0.449,-0.326 0.449,-0.326 0.416,-0.116 0.646,-0.312 0.773,-0.513 0.078,-0.034 0.119,-0.055 0.119,-0.055 0.059,-0.102 0.574,-0.731 -0.246,-2.148 z m -10.33,5.583 c -0.053,0.184 -0.088,0.361 -0.109,0.536 -0.16,-0.066 -0.338,-0.086 -0.49,-0.037 0.096,0.017 0.17,0.051 0.229,0.096 0.021,0.03 0.029,0.066 0.021,0.105 -0.012,0.05 -0.055,0.102 -0.127,0.13 -0.039,0.016 -0.09,0.018 -0.143,0.004 -0.107,-0.027 -0.215,-0.118 -0.244,-0.259 -0.016,-0.08 -0.016,-0.166 0.007,-0.253 0.03,-0.122 0.104,-0.246 0.237,-0.359 0.127,-0.11 0.502,-0.25 0.721,-0.288 -0.038,0.11 -0.071,0.219 -0.102,0.325 z M 15.244,8.081 C 15.308,8.097 15.371,8.096 15.428,8.075 15.518,8.04 15.576,7.972 15.594,7.899 15.596,7.89 15.6,7.88 15.6,7.87 15.772,8.117 15.614,8.49 15.205,8.364 14.4,8.116 14.83,6.968 15.49,6.837 c 0.131,-0.026 0.258,-0.029 0.385,-0.024 -0.23,0.055 -0.525,0.173 -0.658,0.282 -0.143,0.12 -0.224,0.257 -0.259,0.394 -0.022,0.096 -0.022,0.192 -0.007,0.283 0.034,0.167 0.162,0.276 0.293,0.309 z m -0.697,-1.83 c -0.522,0.937 -0.498,1.936 0.226,2.382 0.243,0.152 0.69,0.259 0.987,0.117 0.002,0.002 0,0.005 0.002,0.007 -0.01,0.005 -0.016,0.014 -0.016,0.025 0,0 0,0 -0.002,10e-4 C 15.74,8.817 15.64,8.874 15.486,8.892 15.328,8.913 15.121,8.905 14.91,8.852 14.707,8.801 14.5,8.707 14.33,8.56 14.043,8.309 13.781,7.789 13.819,7.304 c 0.013,-0.163 0.038,-0.32 0.077,-0.473 0.146,-0.585 0.481,-1.094 0.985,-1.494 0.271,-0.215 0.615,-0.398 0.974,-0.546 0.088,0.091 0.184,0.173 0.287,0.244 -0.72,0.177 -1.209,0.526 -1.595,1.216 z m 2.521,-2.945 c -0.945,0.428 -1.691,-0.964 -0.639,-1.24 0.053,-0.014 0.102,-0.019 0.146,-0.017 -0.004,0.012 -0.008,0.024 -0.012,0.035 -0.043,0.169 -0.035,0.349 0.031,0.514 0.125,0.294 0.406,0.466 0.717,0.544 0.012,0.002 0.021,0.005 0.033,0.008 -0.082,0.058 -0.172,0.11 -0.276,0.156 z m 0.698,10.789 c 0.023,-0.062 0.043,-0.122 0.059,-0.187 0.004,-0.016 0.008,-0.032 0.012,-0.048 0.004,-0.007 0.004,-0.015 0.006,-0.021 0,0.108 0,0.169 0,0.169 0,0 -0.029,0.032 -0.077,0.087 z M 20.443,1.714 C 20.285,1.736 20.117,1.761 19.949,1.791 19.957,1.785 19.961,1.78 19.967,1.775 20.256,1.473 21.082,0.681 21.469,0.515 22.199,0.2 22.533,0.117 23.1,0.086 22.121,0.322 21.217,1.029 20.443,1.714 Z"
   id="path2"
   style="fill:#ff7f2a" />
<g
   id="g6">
</g>
<g
   id="g8">
</g>
<g
   id="g10">
</g>
<g
   id="g12">
</g>
<g
   id="g14">
</g>
<g
   id="g16">
</g>
<g
   id="g18">
</g>
<g
   id="g20">
</g>
<g
   id="g22">
</g>
<g
   id="g24">
</g>
<g
   id="g26">
</g>
<g
   id="g28">
</g>
<g
   id="g30">
</g>
<g
   id="g32">
</g>
<g
   id="g34">
</g>
</svg>
