<svg xmlns="http://www.w3.org/2000/svg" xml:space="preserve" width="28.09" height="28.09"><path d="M26.211 1.599C25.717.744 24.752.003 23.713.004Q23.705.001 23.697 0c-1 .016-1.301.039-2.254.452-.414.18-1.229.97-1.527 1.275a1 1 0 0 1-.08.083 4.7 4.7 0 0 0-1.158.355 3.4 3.4 0 0 0-.895.613c-.123.116-.236.224-.363.319l-.092-.019c-.297-.075-.555-.238-.668-.504a.75.75 0 0 1-.031-.473l.018-.044c.254.053.365.336.307.42.068-.109.037-.391-.115-.517a1 1 0 0 0-.117-.081c.18-.319.537-.545.906-.454a1 1 0 0 1 .164.063.51.51 0 0 1 .271.587c-.063.235-.276.42-.629.333l-.012-.003c-.16-.041-.287-.223-.246-.373a.27.27 0 0 1 .082-.13c.068-.061.18-.083.27-.061.102.029.174.101.152.249a.036.036 0 0 0 .029.039c.02.003.035-.01.037-.029.029-.178-.076-.293-.203-.322a.38.38 0 0 0-.328.074.3.3 0 0 0-.104.165c-.049.197.102.401.293.454l.012.003c.193.048.355.02.477-.054a.52.52 0 0 0 .234-.328.576.576 0 0 0-.307-.664.8.8 0 0 0-.178-.067c-.406-.101-.792.142-.982.485-.359-.176-.799-.089-1.111.291-.373.448-.438 1.178-.229 1.778q.169.482.484.823c-.352.147-.691.33-.964.545a2.8 2.8 0 0 0-1.087 2.014c-.039.514.23 1.044.534 1.311.179.158.396.254.608.308.218.055.433.063.599.042a.6.6 0 0 0 .246-.075c-.062.339.033.653.127 1.198.146.871.17.915.111 1.337a1 1 0 0 1-.02.102c-.129.509-.654.716-1.097.605a.83.83 0 0 1-.636-.717.7.7 0 0 1 .013-.272c.091-.363.482-.527.78-.454.202.053.356.206.35.493q-.002.035-.01.071a.44.44 0 0 1-.146.227.26.26 0 0 1-.228.065.28.28 0 0 1-.146-.103c-.046-.062-.057-.121-.045-.173.025-.099.142-.176.271-.144q.018.005.037-.01a.032.032 0 0 0-.006-.047q.001-.001-.012-.007c-.166-.042-.319.054-.355.193a.27.27 0 0 0 .059.231.33.33 0 0 0 .183.126c.208.049.403-.142.454-.341.006-.029.014-.057.014-.086.01-.315-.176-.504-.401-.559-.33-.083-.759.098-.862.502a.9.9 0 0 0-.014.298.89.89 0 0 0 .683.772h.002c.474.117 1.039-.103 1.179-.655a.5.5 0 0 0 .02-.109c.061-.428.035-.493-.111-1.357-.084-.492-.166-.79-.141-1.074.021.129.051.262.088.38.215.701.398 1.416.42 1.973.021.611.074 1.258-.297 1.952-.111.213-.586.638-1.007.565-.758-.132-.764-.86-.475-1.119.166-.15.462-.044.587.085-.071-.396-.58-.454-.89-.266-.268.164-.535.445-.585 1.129-.025.369.184.895.693 1.175.551.302 1.242.407 1.746.243.965-.315 1.438-.772 1.705-1.32l-.01.053-.012.045a1.7 1.7 0 0 1-.16.4 9 9 0 0 0-.312.403c-.395.386-.955.622-1.494.694a2.5 2.5 0 0 1-.929-.055c-.886-.225-1.609-.919-1.334-2.019q.031-.125.082-.259c.154-.41.482-.682.936-.675q.088.002.188.026c.245.061.503.231.574.48a.5.5 0 0 1 .01.25c-.051.198-.242.297-.392.26-.087-.022-.161-.086-.191-.214a.14.14 0 0 1-.001-.073.17.17 0 0 1 .098-.106.24.24 0 0 1 .141-.021c.033.011.041.021.041.047-.001.019.015.035.032.037.021 0 .035-.014.035-.033.006-.062-.042-.105-.092-.115-.11-.027-.278.03-.318.174a.2.2 0 0 0 .001.105c.035.147.13.236.24.263.187.047.414-.076.474-.309a.53.53 0 0 0-.012-.286c-.082-.283-.361-.461-.622-.527a.8.8 0 0 0-.202-.027c-.48-.007-.839.288-1.001.719q-.05.135-.084.266c-.142.567-.023 1.039.246 1.392.269.355.685.592 1.141.708.311.079.637.098.952.057.461-.062.939-.24 1.32-.529-.436.628-1.088 1.486-1.279 2.312-.455 1.976 1.922 5.537 1.961 6.832.09 2.94-7.678-.125-9.9-3.518-.379-.579 2.367-6.179.415-8.734-.556 2.214-3.018 2.077-2.423 5.252-1.58-1.742-2.937-.354-4.474-1.315-.105 4.057 5.519 4.843 5.905 5.373.191.261 2.529 4.069 5.389 5.554 5.516 2.862 8.051.989 8.646-2.186.445-2.372.121-5.656-.035-6.545-.154-.89.691-5.107 1.604-6.317.275-.363 1.225-1.313.75-1.746-1.098-1.002-2.301-2.55-2.414-3.918 0 0 .299-.695.863-1.052.025.099.045.154.045.154s.479.963.748 1.031c.211.053.213-.138.305-.231.09-.091.512 0 .512 0 .197-.046.076-.354.076-.354.197.348.318.193.318.193-.062-.278.285-.266.285-.266.275.218.361.191.402.126.062-.102.016-.02.107-.532a.9.9 0 0 1 .107-.282c.117.134.266.268.432.32 0 0-.199-.165-.352-.433.189-.228.449-.326.449-.326.416-.116.646-.312.773-.513.078-.034.119-.055.119-.055.059-.102.574-.731-.246-2.148m-10.33 5.583a3.4 3.4 0 0 0-.109.536.73.73 0 0 0-.49-.037q.142.027.229.096.032.046.021.105c-.012.05-.055.102-.127.13a.23.23 0 0 1-.143.004.34.34 0 0 1-.244-.259.56.56 0 0 1 .007-.253.7.7 0 0 1 .237-.359c.127-.11.502-.25.721-.288q-.056.166-.102.325m-.637.899a.3.3 0 0 0 .184-.006.26.26 0 0 0 .166-.176q.004-.014.006-.029c.172.247.014.62-.395.494-.805-.248-.375-1.396.285-1.527.131-.026.258-.029.385-.024-.23.055-.525.173-.658.282a.76.76 0 0 0-.259.394.7.7 0 0 0-.007.283.4.4 0 0 0 .293.309m-.697-1.83c-.522.937-.498 1.936.226 2.382.243.152.69.259.987.117.002.002 0 .005.002.007a.03.03 0 0 0-.016.025l-.002.001c-.004.034-.104.091-.258.109a1.6 1.6 0 0 1-.576-.04 1.4 1.4 0 0 1-.58-.292c-.287-.251-.549-.771-.511-1.256q.019-.244.077-.473a2.74 2.74 0 0 1 .985-1.494c.271-.215.615-.398.974-.546a2 2 0 0 0 .287.244c-.72.177-1.209.526-1.595 1.216m2.521-2.945c-.945.428-1.691-.964-.639-1.24a.5.5 0 0 1 .146-.017l-.012.035a.83.83 0 0 0 .031.514c.125.294.406.466.717.544l.033.008q-.121.087-.276.156m.698 10.789q.035-.091.059-.187l.012-.048q.005-.011.006-.021v.169zm2.677-12.381a13 13 0 0 0-.494.077l.018-.016c.289-.302 1.115-1.094 1.502-1.26C22.199.2 22.533.117 23.1.086c-.979.236-1.883.943-2.657 1.628" style="fill:#ff7f2a"/></svg>