<?xml version="1.0"?>
<svg xmlns="http://www.w3.org/2000/svg" viewBox="0 0 80 80">
    <path d="M 13 10 C 11.35503 10 10 11.35503 10 13 L 10 51 C 10 52.64497 11.35503 54 13 54 L 18 54 L 18 59 C 18 60.64497 19.35503 62 21 62 L 26 62 L 26 67 C 26 68.654 27.346 70 29 70 L 57.849609 70 L 55.849609 68 L 29 68 C 28.448 68 28 67.552 28 67 L 28 29 C 28 28.448 28.448 28 29 28 L 67 28 C 67.552 28 68 28.448 68 29 L 68 55.849609 L 70 57.849609 L 70 29 C 70 27.346 68.654 26 67 26 L 62 26 L 62 21 C 62 19.35503 60.64497 18 59 18 L 54 18 L 54 13 C 54 11.35503 52.64497 10 51 10 L 13 10 z M 13 12 L 51 12 C 51.56503 12 52 12.43497 52 13 L 52 18 L 21 18 C 19.35503 18 18 19.35503 18 21 L 18 52 L 13 52 C 12.43497 52 12 51.56503 12 51 L 12 13 C 12 12.43497 12.43497 12 13 12 z M 21 20 L 59 20 C 59.56503 20 60 20.43497 60 21 L 60 26 L 29 26 C 27.346 26 26 27.346 26 29 L 26 60 L 21 60 C 20.43497 60 20 59.56503 20 59 L 20 21 C 20 20.43497 20.43497 20 21 20 z M 32 31 A 1 1 0 0 0 31 32 A 1 1 0 0 0 32 33 A 1 1 0 0 0 33 32 A 1 1 0 0 0 32 31 z M 36 31 A 1 1 0 0 0 35 32 A 1 1 0 0 0 36 33 A 1 1 0 0 0 37 32 A 1 1 0 0 0 36 31 z M 40 31 A 1 1 0 0 0 39 32 A 1 1 0 0 0 40 33 A 1 1 0 0 0 41 32 A 1 1 0 0 0 40 31 z M 44 31 A 1 1 0 0 0 43 32 A 1 1 0 0 0 44 33 A 1 1 0 0 0 45 32 A 1 1 0 0 0 44 31 z M 48 31 A 1 1 0 0 0 47 32 A 1 1 0 0 0 48 33 A 1 1 0 0 0 49 32 A 1 1 0 0 0 48 31 z M 52 31 A 1 1 0 0 0 51 32 A 1 1 0 0 0 52 33 A 1 1 0 0 0 53 32 A 1 1 0 0 0 52 31 z M 56 31 A 1 1 0 0 0 55 32 A 1 1 0 0 0 56 33 A 1 1 0 0 0 57 32 A 1 1 0 0 0 56 31 z M 60 31 A 1 1 0 0 0 59 32 A 1 1 0 0 0 60 33 A 1 1 0 0 0 61 32 A 1 1 0 0 0 60 31 z M 64 31 A 1 1 0 0 0 63 32 A 1 1 0 0 0 64 33 A 1 1 0 0 0 65 32 A 1 1 0 0 0 64 31 z M 32 35 A 1 1 0 0 0 31 36 A 1 1 0 0 0 32 37 A 1 1 0 0 0 33 36 A 1 1 0 0 0 32 35 z M 64 35 A 1 1 0 0 0 63 36 A 1 1 0 0 0 64 37 A 1 1 0 0 0 65 36 A 1 1 0 0 0 64 35 z M 32 39 A 1 1 0 0 0 31 40 A 1 1 0 0 0 32 41 A 1 1 0 0 0 33 40 A 1 1 0 0 0 32 39 z M 64 39 A 1 1 0 0 0 63 40 A 1 1 0 0 0 64 41 A 1 1 0 0 0 65 40 A 1 1 0 0 0 64 39 z M 32 43 A 1 1 0 0 0 31 44 A 1 1 0 0 0 32 45 A 1 1 0 0 0 33 44 A 1 1 0 0 0 32 43 z M 64 43 A 1 1 0 0 0 63 44 A 1 1 0 0 0 64 45 A 1 1 0 0 0 65 44 A 1 1 0 0 0 64 43 z M 43.259766 43.259766 L 48.201172 56.109375 L 48.351562 56.259766 L 64.599609 72.505859 L 64.597656 72.507812 L 65.304688 73.214844 L 70.070312 77.978516 L 70.611328 78.517578 C 72.578359 80.484609 75.798594 80.484609 77.765625 78.517578 L 78.519531 77.763672 C 80.486562 75.796641 80.486562 72.578359 78.519531 70.611328 L 77.978516 70.070312 L 72.505859 64.599609 L 56.109375 48.201172 L 43.259766 43.259766 z M 32 47 A 1 1 0 0 0 31 48 A 1 1 0 0 0 32 49 A 1 1 0 0 0 33 48 A 1 1 0 0 0 32 47 z M 64 47 A 1 1 0 0 0 63 48 A 1 1 0 0 0 64 49 A 1 1 0 0 0 65 48 A 1 1 0 0 0 64 47 z M 48.914062 47.578125 L 54.478516 49.71875 C 54.474495 49.740618 54.475204 49.752896 54.470703 49.775391 C 54.389333 50.182037 54.203646 50.614713 54.033203 50.785156 C 53.86276 50.955599 53.428131 51.141287 53.021484 51.222656 C 52.614838 51.304026 52.304687 51.304688 52.304688 51.304688 L 51.304688 51.304688 L 51.304688 52.304688 C 51.304688 52.304688 51.304024 52.614838 51.222656 53.021484 C 51.141286 53.428131 50.955599 53.86276 50.785156 54.033203 C 50.614713 54.203646 50.182037 54.389334 49.775391 54.470703 C 49.752135 54.475357 49.739382 54.474375 49.716797 54.478516 L 47.578125 48.914062 L 48.914062 47.578125 z M 32 51 A 1 1 0 0 0 31 52 A 1 1 0 0 0 32 53 A 1 1 0 0 0 33 52 A 1 1 0 0 0 32 51 z M 64 51 A 1 1 0 0 0 63 52 A 1 1 0 0 0 64 53 A 1 1 0 0 0 65 52 A 1 1 0 0 0 64 51 z M 56.164062 51.085938 L 71.091797 66.013672 L 66.013672 71.091797 L 51.085938 56.166016 C 51.465732 56.014197 51.851794 55.79469 52.199219 55.447266 C 52.840776 54.805709 53.061963 54.021916 53.183594 53.414062 C 53.206304 53.300576 53.192091 53.310524 53.207031 53.207031 C 53.310524 53.192051 53.300571 53.206305 53.414062 53.183594 C 54.021918 53.061963 54.805709 52.840776 55.447266 52.199219 C 55.794503 51.851982 56.012248 51.465536 56.164062 51.085938 z M 32 55 A 1 1 0 0 0 31 56 A 1 1 0 0 0 32 57 A 1 1 0 0 0 33 56 A 1 1 0 0 0 32 55 z M 32 59 A 1 1 0 0 0 31 60 A 1 1 0 0 0 32 61 A 1 1 0 0 0 33 60 A 1 1 0 0 0 32 59 z M 32 63 A 1 1 0 0 0 31 64 A 1 1 0 0 0 32 65 A 1 1 0 0 0 33 64 A 1 1 0 0 0 32 63 z M 36 63 A 1 1 0 0 0 35 64 A 1 1 0 0 0 36 65 A 1 1 0 0 0 37 64 A 1 1 0 0 0 36 63 z M 40 63 A 1 1 0 0 0 39 64 A 1 1 0 0 0 40 65 A 1 1 0 0 0 41 64 A 1 1 0 0 0 40 63 z M 44 63 A 1 1 0 0 0 43 64 A 1 1 0 0 0 44 65 A 1 1 0 0 0 45 64 A 1 1 0 0 0 44 63 z M 48 63 A 1 1 0 0 0 47 64 A 1 1 0 0 0 48 65 A 1 1 0 0 0 49 64 A 1 1 0 0 0 48 63 z M 52 63 A 1 1 0 0 0 51 64 A 1 1 0 0 0 52 65 A 1 1 0 0 0 53 64 A 1 1 0 0 0 52 63 z M 72.505859 67.427734 L 75.150391 70.070312 L 70.070312 75.150391 L 67.427734 72.507812 L 72.505859 67.427734 z M 76.564453 71.484375 L 77.105469 72.025391 C 78.308438 73.22836 78.308438 75.14664 77.105469 76.349609 L 76.351562 77.103516 C 75.148595 78.306485 73.22836 78.306485 72.025391 77.103516 L 71.484375 76.564453 L 76.564453 71.484375 z"/>
</svg>
