<?xml version="1.0" encoding="UTF-8" standalone="no"?>
<!-- Created with Inkscape (http://www.inkscape.org/) -->
<svg
   xmlns:dc="http://purl.org/dc/elements/1.1/"
   xmlns:cc="http://web.resource.org/cc/"
   xmlns:rdf="http://www.w3.org/1999/02/22-rdf-syntax-ns#"
   xmlns:svg="http://www.w3.org/2000/svg"
   xmlns="http://www.w3.org/2000/svg"
   xmlns:xlink="http://www.w3.org/1999/xlink"
   xmlns:sodipodi="http://sodipodi.sourceforge.net/DTD/sodipodi-0.dtd"
   xmlns:inkscape="http://www.inkscape.org/namespaces/inkscape"
   version="1.0"
   width="400"
   height="360"
   id="svg2"
   sodipodi:version="0.32"
   inkscape:version="0.45"
   sodipodi:docname="P medicine.svg"
   inkscape:output_extension="org.inkscape.output.svg.inkscape"
   sodipodi:docbase="C:\Documents and Settings\Ben\Desktop\wiki-graphics"
   sodipodi:modified="true">
  <metadata
     id="metadata2344">
    <rdf:RDF>
      <cc:Work
         rdf:about="">
        <dc:format>image/svg+xml</dc:format>
        <dc:type
           rdf:resource="http://purl.org/dc/dcmitype/StillImage" />
      </cc:Work>
    </rdf:RDF>
  </metadata>
  <sodipodi:namedview
     inkscape:window-height="719"
     inkscape:window-width="1024"
     inkscape:pageshadow="2"
     inkscape:pageopacity="0.0"
     guidetolerance="10.0"
     gridtolerance="10.0"
     objecttolerance="10.0"
     borderopacity="1.0"
     bordercolor="#666666"
     pagecolor="#ffffff"
     id="base"
     inkscape:zoom="0.74246212"
     inkscape:cx="285.68158"
     inkscape:cy="68.304479"
     inkscape:window-x="-4"
     inkscape:window-y="-4"
     inkscape:current-layer="svg2" />
  <defs
     id="defs5">
    <linearGradient
       id="linearGradient4186">
      <stop
         style="stop-color:#868686;stop-opacity:1"
         offset="0"
         id="stop4188" />
      <stop
         style="stop-color:#ddd;stop-opacity:1"
         offset="1"
         id="stop4190" />
    </linearGradient>
    <linearGradient
       id="linearGradient4170">
      <stop
         style="stop-color:#5c5c5c;stop-opacity:1"
         offset="0"
         id="stop4172" />
      <stop
         style="stop-color:#c3c3c3;stop-opacity:1"
         offset="1"
         id="stop4174" />
    </linearGradient>
    <linearGradient
       id="linearGradient4152">
      <stop
         style="stop-color:black;stop-opacity:1"
         offset="0"
         id="stop4154" />
      <stop
         style="stop-color:black;stop-opacity:0"
         offset="1"
         id="stop4156" />
    </linearGradient>
    <linearGradient
       id="linearGradient4146">
      <stop
         style="stop-color:#8b8b8b;stop-opacity:1"
         offset="0"
         id="stop4148" />
      <stop
         style="stop-color:#c3c3c3;stop-opacity:1"
         offset="1"
         id="stop4150" />
    </linearGradient>
    <linearGradient
       id="linearGradient4132">
      <stop
         style="stop-color:black;stop-opacity:1"
         offset="0"
         id="stop4134" />
      <stop
         style="stop-color:#c3c3c3;stop-opacity:1"
         offset="1"
         id="stop4136" />
    </linearGradient>
    <linearGradient
       id="linearGradient4066">
      <stop
         style="stop-color:#848484;stop-opacity:1"
         offset="0"
         id="stop4068" />
      <stop
         style="stop-color:white;stop-opacity:1"
         offset="0.5"
         id="stop4074" />
      <stop
         style="stop-color:#848484;stop-opacity:1"
         offset="1"
         id="stop4070" />
    </linearGradient>
    <linearGradient
       id="linearGradient3964">
      <stop
         style="stop-color:black;stop-opacity:1"
         offset="0"
         id="stop3966" />
      <stop
         style="stop-color:white;stop-opacity:1"
         offset="1"
         id="stop3968" />
    </linearGradient>
    <linearGradient
       id="linearGradient3938">
      <stop
         style="stop-color:#6b6b6b;stop-opacity:1"
         offset="0"
         id="stop3940" />
      <stop
         style="stop-color:#d5d5d5;stop-opacity:1"
         offset="1"
         id="stop3942" />
    </linearGradient>
    <linearGradient
       id="linearGradient2965">
      <stop
         style="stop-color:white;stop-opacity:1"
         offset="0"
         id="stop2967" />
      <stop
         style="stop-color:#3f3f3f;stop-opacity:1"
         offset="1"
         id="stop2969" />
    </linearGradient>
    <linearGradient
       id="linearGradient2889">
      <stop
         style="stop-color:#a0a3e1;stop-opacity:1"
         offset="0"
         id="stop2891" />
      <stop
         style="stop-color:#dedcfa;stop-opacity:1"
         offset="1"
         id="stop2893" />
    </linearGradient>
    <linearGradient
       id="linearGradient2812">
      <stop
         style="stop-color:black;stop-opacity:1"
         offset="0"
         id="stop2814" />
      <stop
         style="stop-color:white;stop-opacity:0"
         offset="1"
         id="stop2816" />
    </linearGradient>
    <mask
       id="mask2799">
      <path
         d="M 168.99397,144.76334 C 168.99397,144.76334 214.49314,156.63269 246.14473,148.71979 C 277.79633,140.80689 309.44793,103.22062 309.44793,103.22062 C 309.44793,103.22062 344.06686,191.25162 348.02331,221.91411 C 351.97976,252.57659 350.00153,289.17375 327.25195,311.92334 C 304.50236,334.67292 255.67246,325.40751 232.29716,302.03221 C 218.4143,288.14936 204.60201,261.4786 192.73266,233.78346 C 180.86331,206.08831 168.00485,143.77423 168.99397,144.76334 z "
         style="fill:#e8e7fe;fill-opacity:1;fill-rule:evenodd;stroke:black;stroke-width:3.125;stroke-linecap:butt;stroke-linejoin:round;stroke-miterlimit:4;stroke-dasharray:none;stroke-opacity:1"
         id="use2796" />
    </mask>
    <mask
       id="mask2858">
      <path
         d="M 100,24 C 100,24 88.5,66.5 134,76 C 179.5,85.5 217,67 217,67 C 217,67 211,163.46447 196,192.46447 C 181,221.46447 141.5,254 118,254 C 94.5,254 76,238.5 70,223.5 C 64,208.5 60.5,128 71,102 C 78.202941,84.164147 73,78.5 82,49.5 C 87.643273,31.316121 100.5,23 100,24 z "
         style="fill:#e8e7fe;fill-opacity:1;fill-rule:evenodd;stroke:black;stroke-width:3.125;stroke-linecap:butt;stroke-linejoin:miter;stroke-miterlimit:4;stroke-dasharray:none;stroke-opacity:1"
         id="use2848" />
    </mask>
    <linearGradient
       x1="92.604424"
       y1="304.50995"
       x2="263.82959"
       y2="26.290426"
       id="linearGradient2895"
       xlink:href="#linearGradient2889"
       gradientUnits="userSpaceOnUse"
       gradientTransform="matrix(0.8024808,-0.4938723,0.4938723,0.8024808,-31.120889,135.2532)" />
    <linearGradient
       x1="54.572109"
       y1="199.28218"
       x2="70.764488"
       y2="199.28218"
       id="linearGradient4072"
       xlink:href="#linearGradient4066"
       gradientUnits="userSpaceOnUse" />
    <linearGradient
       x1="54.572109"
       y1="199.28218"
       x2="70.764488"
       y2="199.28218"
       id="linearGradient4096"
       xlink:href="#linearGradient4066"
       gradientUnits="userSpaceOnUse" />
    <linearGradient
       x1="225.375"
       y1="310.64001"
       x2="225.375"
       y2="262.35352"
       id="linearGradient4112"
       xlink:href="#linearGradient4066"
       gradientUnits="userSpaceOnUse" />
    <linearGradient
       x1="224.30043"
       y1="193.32704"
       x2="312"
       y2="281.02661"
       id="linearGradient4138"
       xlink:href="#linearGradient4146"
       gradientUnits="userSpaceOnUse" />
    <linearGradient
       x1="183.7058"
       y1="130.49966"
       x2="368.3764"
       y2="306.94699"
       id="linearGradient4158"
       xlink:href="#linearGradient4152"
       gradientUnits="userSpaceOnUse" />
    <linearGradient
       x1="242.73433"
       y1="94.385635"
       x2="223.98433"
       y2="21.034321"
       id="linearGradient4176"
       xlink:href="#linearGradient4170"
       gradientUnits="userSpaceOnUse" />
    <linearGradient
       x1="182.0625"
       y1="145.75"
       x2="177.875"
       y2="53.125"
       id="linearGradient4184"
       xlink:href="#linearGradient4186"
       gradientUnits="userSpaceOnUse" />
    <linearGradient
       x1="242.73433"
       y1="94.385635"
       x2="223.98433"
       y2="21.034321"
       id="linearGradient4210"
       xlink:href="#linearGradient4170"
       gradientUnits="userSpaceOnUse" />
    <linearGradient
       x1="224.30043"
       y1="193.32704"
       x2="312"
       y2="281.02661"
       id="linearGradient4212"
       xlink:href="#linearGradient4146"
       gradientUnits="userSpaceOnUse" />
    <linearGradient
       x1="183.7058"
       y1="130.49966"
       x2="368.3764"
       y2="306.94699"
       id="linearGradient4214"
       xlink:href="#linearGradient4152"
       gradientUnits="userSpaceOnUse" />
    <linearGradient
       x1="54.572109"
       y1="199.28218"
       x2="70.764488"
       y2="199.28218"
       id="linearGradient4216"
       xlink:href="#linearGradient4066"
       gradientUnits="userSpaceOnUse" />
    <linearGradient
       x1="225.375"
       y1="310.64001"
       x2="225.375"
       y2="262.35352"
       id="linearGradient4218"
       xlink:href="#linearGradient4066"
       gradientUnits="userSpaceOnUse" />
    <linearGradient
       x1="182.0625"
       y1="145.75"
       x2="177.875"
       y2="53.125"
       id="linearGradient4220"
       xlink:href="#linearGradient4186"
       gradientUnits="userSpaceOnUse" />
    <linearGradient
       inkscape:collect="always"
       xlink:href="#linearGradient4066"
       id="linearGradient2404"
       gradientUnits="userSpaceOnUse"
       x1="54.572109"
       y1="199.28218"
       x2="70.764488"
       y2="199.28218"
       gradientTransform="translate(278,0)" />
    <linearGradient
       inkscape:collect="always"
       xlink:href="#linearGradient4066"
       id="linearGradient2408"
       gradientUnits="userSpaceOnUse"
       x1="54.572109"
       y1="199.28218"
       x2="70.764488"
       y2="199.28218"
       gradientTransform="translate(238.2857,0)" />
    <linearGradient
       inkscape:collect="always"
       xlink:href="#linearGradient4066"
       id="linearGradient2412"
       gradientUnits="userSpaceOnUse"
       x1="54.572109"
       y1="199.28218"
       x2="70.764488"
       y2="199.28218"
       gradientTransform="translate(198.5714,0)" />
    <linearGradient
       inkscape:collect="always"
       xlink:href="#linearGradient4066"
       id="linearGradient2416"
       gradientUnits="userSpaceOnUse"
       x1="54.572109"
       y1="199.28218"
       x2="70.764488"
       y2="199.28218"
       gradientTransform="translate(158.8571,0)" />
    <linearGradient
       inkscape:collect="always"
       xlink:href="#linearGradient4066"
       id="linearGradient2420"
       gradientUnits="userSpaceOnUse"
       x1="54.572109"
       y1="199.28218"
       x2="70.764488"
       y2="199.28218"
       gradientTransform="translate(119.1429,0)" />
    <linearGradient
       inkscape:collect="always"
       xlink:href="#linearGradient4066"
       id="linearGradient2424"
       gradientUnits="userSpaceOnUse"
       x1="54.572109"
       y1="199.28218"
       x2="70.764488"
       y2="199.28218"
       gradientTransform="translate(79.42857,0)" />
    <linearGradient
       inkscape:collect="always"
       xlink:href="#linearGradient4066"
       id="linearGradient2428"
       gradientUnits="userSpaceOnUse"
       x1="54.572109"
       y1="199.28218"
       x2="70.764488"
       y2="199.28218"
       gradientTransform="translate(39.71429,0)" />
    <linearGradient
       inkscape:collect="always"
       xlink:href="#linearGradient4066"
       id="linearGradient2432"
       gradientUnits="userSpaceOnUse"
       x1="225.375"
       y1="310.64001"
       x2="225.375"
       y2="262.35352"
       gradientTransform="matrix(0.981087,0,0,0.639098,3.820331,-73.89474)" />
    <filter
       inkscape:collect="always"
       id="filter3559">
      <feGaussianBlur
         inkscape:collect="always"
         stdDeviation="4.8005426"
         id="feGaussianBlur3561" />
    </filter>
    <filter
       inkscape:collect="always"
       id="filter7454">
      <feGaussianBlur
         inkscape:collect="always"
         stdDeviation="2.2388109"
         id="feGaussianBlur7456" />
    </filter>
    <filter
       inkscape:collect="always"
       x="-0.13289637"
       width="1.2657927"
       y="-0.41077059"
       height="1.8215412"
       id="filter9758">
      <feGaussianBlur
         inkscape:collect="always"
         stdDeviation="6.0858008"
         id="feGaussianBlur9760" />
    </filter>
  </defs>
  <path
     d="M 352.47135,86.164231 C 393.93059,153.53031 359.27619,250.15301 275.06858,301.97705 C 190.86098,353.80109 88.987873,341.20177 47.528639,273.83569 C 6.0694048,206.46961 40.723807,109.84692 124.93141,58.022875 C 209.13902,6.1988331 311.01212,18.798146 352.47135,86.164231 L 352.47135,86.164231 z "
     style="opacity:1;fill:url(#linearGradient2895);fill-opacity:1;stroke:none;stroke-width:3.125;stroke-linecap:butt;stroke-linejoin:round;stroke-miterlimit:4;stroke-dasharray:none;stroke-dashoffset:0;stroke-opacity:1"
     id="path2869" />
  <path
     sodipodi:type="arc"
     style="opacity:0.72560748;fill:#000000;fill-opacity:0.48387095;stroke:none;stroke-width:8;stroke-miterlimit:4;stroke-dasharray:none;stroke-opacity:1;filter:url(#filter9758)"
     id="path7458"
     sodipodi:cx="180.48059"
     sodipodi:cy="316.90015"
     sodipodi:rx="45.793583"
     sodipodi:ry="14.815571"
     d="M 226.27417 316.90015 A 45.793583 14.815571 0 1 1  134.68701,316.90015 A 45.793583 14.815571 0 1 1  226.27417 316.90015 z"
     transform="matrix(1.2941176,0,0,1,-50.429395,-4)" />
  <g
     style="stroke:#a7a1a1;stroke-width:0.97897357;stroke-opacity:1;filter:url(#filter7454);fill:#ffffff"
     transform="matrix(1.2281016,0,0,0.8349032,135.70313,4.4322049)"
     id="g2223">
    <path
       id="path2225"
       style="fill:#ffffff;stroke:#a7a1a1;stroke-width:4.93781471;stroke-linecap:round;stroke-linejoin:round;stroke-opacity:1"
       d="M 37.23,54.95 C 38.43,63.42 39.38,72.1 39,80.62 C 43.74,84.715 49.945,88.958 56.725,93.652 C 57.341,94.079 57.966,94.52 58.59,94.96 C 58.75,93.812 58.871,92.656 59.078,91.516 C 60.48,83.791 61.353,76.725 61.515,69.297 C 52.431921,68.021891 46.69387,52.191751 37.229,54.954 L 37.23,54.95 z M 60.913,31.588 C 61.792393,24.885698 66.443381,17.251411 64.57,10.488 C 61.067,5.577 55.905,11.433 52.409,10.488 C 45.515,8.627 47.31,4.212 39.856,3.035 C 33.413,2.018 31.619,1.465 33.187,16.372 C 33.657,20.843 33.983,25.123 34.311,29.367 C 38.092,28.122 41.783,27.57 44.956,27.749 C 51.25,28.104 56.496,29.554 60.913,31.588 z M 42.441,351.399 C 30.614053,360.29469 16.790914,365.67108 2.589,369.426 C 20.16,367.183 32.971,362.354 42.502,357.235 C 42.5,355.304 42.466,353.348 42.441,351.399 z M 42.501,357.235 C 42.518,371.077 41.927,384.501 40.247,397.278 C 53.977,384.333 54.762,380.412 53.194,357.658 C 53.033,355.332 52.936,353.061 52.872,350.815 C 52.789,347.977 52.794,345.191 52.86,342.435 C 53.102,332.475 54.281,322.883 56.331,312.544 C 57.628,306.012 57.704,298.321 57.433,290.497 C 52.149,286.665 45.704,283.431 39.341,279.933 C 39.837,290.851 40.421,301.868 41.032,313.33 C 41.72,326.239 42.279,338.966 42.44,351.398 C 42.466,353.348 42.5,355.304 42.501,357.235 z M 37.885,222.486 C 37.885,222.562 37.894,222.635 37.894,222.714 C 37.894,234.554 38.102,245.883 38.451,257.07 C 42.587,260.894 48.152,264.915 54.763,269.788 C 55.337,270.211 55.919,270.657 56.498,271.102 C 56.403,268.757 56.332,266.463 56.332,264.294 C 56.332,255.324 56.374,250.14 59.272,242.694 C 60.982,238.299 68.494,228.597 59.038,226.733 C 57.969,228.509 56.077,229.294 55.119,231.087 C 53.092,223.686 56.187,213.646 55.549,205.844 C 55.459,204.735 55.367,203.643 55.279,202.561 C 54.64,194.664 54.195,187.414 55.5,179.507 C 55.519,179.393 55.53,179.282 55.549,179.169 C 56.82,171.746 59.079,165.831 58.312,156.809 C 58.05,153.729 61.433,151.318 61.041,147.002 C 60.542,141.532 56.727,147.002 57.474,137.195 C 57.693,134.331 59.235,130.829 59.255,127.78 C 59.269,125.852 58.984,123.892 58.681,121.934 C 53.576,117.05 47.742,113.661 43.388,110.911 C 41.781,109.895 40.109,108.729 38.415,107.474 C 39.513,130.515 43.374,154.066 38.681,155.239 C 34.981,154.546 35.524,149.484 31.62,148.178 C 22.597,150.923 24.749,154.696 27.304,161.123 C 29.617,166.945 28.089,171.715 31.622,177.99 C 34.143,182.468 37.11,188.19 35.927,197.666 C 35.901,197.878 35.905,198.089 35.884,198.301 C 35.099,206.141 37.835,213.935 37.885,222.486 z M 58.679,121.935 C 64.914,127.902 70.061,136.103 70.061,148.179 C 70.061,163.878 63.641,171.95 55.499,179.507 C 54.194,187.413 54.64,194.663 55.278,202.561 C 58.926,199.069 62.436,195.926 65.353,193.291 C 77.514,182.308 89.74,164.654 90.067,143.863 C 90.444,119.766 73.492,105.423 58.59,94.96 C 57.965,94.521 57.34,94.078 56.724,93.651 C 49.944,88.958 43.74,84.714 39.008,80.617 C 33.856,76.156 30.456,71.867 30.047,67.367 C 29.587,62.321 32.241,56.687 37.228,54.953 C 38.043,54.669 38.916,54.477 39.855,54.422 C 44.026,54.176 51.9,65.908 61.514,69.295 C 63.631,70.041 65.833,70.398 68.099,70.114 C 72.381,69.578 72.528581,69.318149 72.528581,62.650149 C 76.842581,63.042149 80.229,67.205 80.652,56.384 C 80.891,50.264 76.041,38.554 60.912,31.588 C 56.495,29.554 51.249,28.103 44.955,27.748 C 41.782,27.569 38.092,28.122 34.31,29.366 C 22.218,33.347 9.164,44.62 8.865,63.446 C 8.614,79.192 24.419,97.1 38.414,107.475 C 40.107,108.73 41.779,109.896 43.387,110.912 C 47.74,113.662 53.574,117.051 58.679,121.935 z M 57.433,290.498 C 80.56918,306.19654 66.469377,326.99069 52.861,342.435 C 52.795,345.191 52.79,347.977 52.873,350.815 C 57.617,347.451 61.123,344.388 63.787,342.359 C 72.024,336.082 85.263142,321.77861 83.4,308.624 C 80.55895,288.43064 67.910084,279.66411 54.763,269.789 C 48.153,264.916 42.587,260.895 38.451,257.071 C 33.262,252.271 30.326,247.785 30.441,242.328 C 30.582,235.713 33.575,228.951 37.885,222.487 C 37.835,213.936 35.099,206.142 35.882,198.303 C 22.81,212.272 11.843,227.286 12.395,245.859 C 12.933,263.953 25.916,272.551 39.341,279.934 C 45.704,283.431 52.149,286.666 57.433,290.498 z " />
    <ellipse
       id="ellipse2227"
       ry="4.3499999"
       rx="4.1199999"
       cy="45"
       cx="63"
       sodipodi:cx="63"
       sodipodi:cy="45"
       sodipodi:rx="4.1199999"
       sodipodi:ry="4.3499999"
       style="stroke:#a7a1a1;stroke-width:0.97897357;stroke-opacity:1;fill:#ffffff" />
  </g>
  <g
     id="g2398"
     transform="matrix(1,0,0,0.9430099,96.526055,43.56551)">
    <g
       id="g2434"
       transform="matrix(1.1097338,0,0,0.8855101,40.904911,-41.528302)">
      <path
         d="M 37.23,54.95 C 38.43,63.42 39.38,72.1 39,80.62 C 43.74,84.715 49.945,88.958 56.725,93.652 C 57.341,94.079 57.966,94.52 58.59,94.96 C 58.75,93.812 58.871,92.656 59.078,91.516 C 60.48,83.791 61.353,76.725 61.515,69.297 C 52.431921,68.021891 46.69387,52.191751 37.229,54.954 L 37.23,54.95 z M 60.913,31.588 C 61.792393,24.885698 66.443381,17.251411 64.57,10.488 C 61.067,5.577 55.905,11.433 52.409,10.488 C 45.515,8.627 47.31,4.212 39.856,3.035 C 33.413,2.018 31.619,1.465 33.187,16.372 C 33.657,20.843 33.983,25.123 34.311,29.367 C 38.092,28.122 41.783,27.57 44.956,27.749 C 51.25,28.104 56.496,29.554 60.913,31.588 z M 42.441,351.399 C 30.614053,360.29469 16.790914,365.67108 2.589,369.426 C 20.16,367.183 32.971,362.354 42.502,357.235 C 42.5,355.304 42.466,353.348 42.441,351.399 z M 42.501,357.235 C 42.518,371.077 41.927,384.501 40.247,397.278 C 53.977,384.333 54.762,380.412 53.194,357.658 C 53.033,355.332 52.936,353.061 52.872,350.815 C 52.789,347.977 52.794,345.191 52.86,342.435 C 53.102,332.475 54.281,322.883 56.331,312.544 C 57.628,306.012 57.704,298.321 57.433,290.497 C 52.149,286.665 45.704,283.431 39.341,279.933 C 39.837,290.851 40.421,301.868 41.032,313.33 C 41.72,326.239 42.279,338.966 42.44,351.398 C 42.466,353.348 42.5,355.304 42.501,357.235 z M 37.885,222.486 C 37.885,222.562 37.894,222.635 37.894,222.714 C 37.894,234.554 38.102,245.883 38.451,257.07 C 42.587,260.894 48.152,264.915 54.763,269.788 C 55.337,270.211 55.919,270.657 56.498,271.102 C 56.403,268.757 56.332,266.463 56.332,264.294 C 56.332,255.324 56.374,250.14 59.272,242.694 C 60.982,238.299 68.494,228.597 59.038,226.733 C 57.969,228.509 56.077,229.294 55.119,231.087 C 53.092,223.686 56.187,213.646 55.549,205.844 C 55.459,204.735 55.367,203.643 55.279,202.561 C 54.64,194.664 54.195,187.414 55.5,179.507 C 55.519,179.393 55.53,179.282 55.549,179.169 C 56.82,171.746 59.079,165.831 58.312,156.809 C 58.05,153.729 61.433,151.318 61.041,147.002 C 60.542,141.532 56.727,147.002 57.474,137.195 C 57.693,134.331 59.235,130.829 59.255,127.78 C 59.269,125.852 58.984,123.892 58.681,121.934 C 53.576,117.05 47.742,113.661 43.388,110.911 C 41.781,109.895 40.109,108.729 38.415,107.474 C 39.513,130.515 43.374,154.066 38.681,155.239 C 34.981,154.546 35.524,149.484 31.62,148.178 C 22.597,150.923 24.749,154.696 27.304,161.123 C 29.617,166.945 28.089,171.715 31.622,177.99 C 34.143,182.468 37.11,188.19 35.927,197.666 C 35.901,197.878 35.905,198.089 35.884,198.301 C 35.099,206.141 37.835,213.935 37.885,222.486 z M 58.679,121.935 C 64.914,127.902 70.061,136.103 70.061,148.179 C 70.061,163.878 63.641,171.95 55.499,179.507 C 54.194,187.413 54.64,194.663 55.278,202.561 C 58.926,199.069 62.436,195.926 65.353,193.291 C 77.514,182.308 89.74,164.654 90.067,143.863 C 90.444,119.766 73.492,105.423 58.59,94.96 C 57.965,94.521 57.34,94.078 56.724,93.651 C 49.944,88.958 43.74,84.714 39.008,80.617 C 33.856,76.156 30.456,71.867 30.047,67.367 C 29.587,62.321 32.241,56.687 37.228,54.953 C 38.043,54.669 38.916,54.477 39.855,54.422 C 44.026,54.176 51.9,65.908 61.514,69.295 C 63.631,70.041 65.833,70.398 68.099,70.114 C 72.381,69.578 72.528581,69.318149 72.528581,62.650149 C 76.842581,63.042149 80.229,67.205 80.652,56.384 C 80.891,50.264 76.041,38.554 60.912,31.588 C 56.495,29.554 51.249,28.103 44.955,27.748 C 41.782,27.569 38.092,28.122 34.31,29.366 C 22.218,33.347 9.164,44.62 8.865,63.446 C 8.614,79.192 24.419,97.1 38.414,107.475 C 40.107,108.73 41.779,109.896 43.387,110.912 C 47.74,113.662 53.574,117.051 58.679,121.935 z M 57.433,290.498 C 80.56918,306.19654 66.469377,326.99069 52.861,342.435 C 52.795,345.191 52.79,347.977 52.873,350.815 C 57.617,347.451 61.123,344.388 63.787,342.359 C 72.024,336.082 85.263142,321.77861 83.4,308.624 C 80.55895,288.43064 67.910084,279.66411 54.763,269.789 C 48.153,264.916 42.587,260.895 38.451,257.071 C 33.262,252.271 30.326,247.785 30.441,242.328 C 30.582,235.713 33.575,228.951 37.885,222.487 C 37.835,213.936 35.099,206.142 35.882,198.303 C 22.81,212.272 11.843,227.286 12.395,245.859 C 12.933,263.953 25.916,272.551 39.341,279.934 C 45.704,283.431 52.149,286.666 57.433,290.498 z "
         style="fill:none;stroke:#000000;stroke-width:5.19404507;stroke-linecap:round;stroke-linejoin:round"
         id="trace" />
      <ellipse
         sodipodi:ry="4.3499999"
         sodipodi:rx="4.1199999"
         sodipodi:cy="45"
         sodipodi:cx="63"
         cx="63"
         cy="45"
         rx="4.1199999"
         ry="4.3499999"
         id="eye" />
    </g>
  </g>
</svg>
