<svg xmlns="http://www.w3.org/2000/svg" xmlns:xlink="http://www.w3.org/1999/xlink" width="400" height="360" version="1.0"><defs><linearGradient id="a"><stop offset="0" style="stop-color:#a0a3e1;stop-opacity:1"/><stop offset="1" style="stop-color:#dedcfa;stop-opacity:1"/></linearGradient><linearGradient xlink:href="#a" id="g" x1="92.604" x2="263.83" y1="304.51" y2="26.29" gradientTransform="scale(.94228)rotate(-31.609 237.034 130.109)" gradientUnits="userSpaceOnUse"/><filter id="i"><feGaussianBlur stdDeviation="2.239"/></filter><filter id="h" width="1.266" height="1.822" x="-.133" y="-.411"><feGaussianBlur stdDeviation="6.086"/></filter></defs><path d="M352.471 86.164c41.46 67.366 6.805 163.989-77.402 215.813-84.208 51.824-186.081 39.225-227.54-28.141s-6.805-163.99 77.402-215.813c84.208-51.824 186.081-39.225 227.54 28.141" style="opacity:1;fill:url(#g);fill-opacity:1;stroke:none;stroke-width:3.125;stroke-linecap:butt;stroke-linejoin:round;stroke-miterlimit:4;stroke-dasharray:none;stroke-dashoffset:0;stroke-opacity:1"/><path d="M226.274 316.9a45.794 14.816 0 1 1-91.587 0 45.794 14.816 0 1 1 91.587 0" style="opacity:.72560748;fill:#000;fill-opacity:.48387095;stroke:none;stroke-width:8;stroke-miterlimit:4;stroke-dasharray:none;stroke-opacity:1;filter:url(#h)" transform="matrix(1.29412 0 0 1 -50.43 -4)"/><g style="stroke:#a7a1a1;stroke-width:.97897357;stroke-opacity:1;filter:url(#i);fill:#fff" transform="matrix(1.2281 0 0 .8349 135.703 4.432)"><path d="M37.23 54.95c1.2 8.47 2.15 17.15 1.77 25.67 4.74 4.095 10.945 8.338 17.725 13.032.616.427 1.241.868 1.865 1.308.16-1.148.281-2.304.488-3.444 1.402-7.725 2.275-14.791 2.437-22.219-9.083-1.275-14.821-17.105-24.286-14.343zm23.683-23.362c.88-6.702 5.53-14.337 3.657-21.1-3.503-4.911-8.665.945-12.161 0-6.894-1.861-5.099-6.276-12.553-7.453-6.443-1.017-8.237-1.57-6.669 13.337.47 4.471.796 8.751 1.124 12.995 3.781-1.245 7.472-1.797 10.645-1.618 6.294.355 11.54 1.805 15.957 3.839M42.441 351.399c-11.827 8.896-25.65 14.272-39.852 18.027 17.571-2.243 30.382-7.072 39.913-12.191-.002-1.931-.036-3.887-.061-5.836m.06 5.836c.017 13.842-.574 27.266-2.254 40.043 13.73-12.945 14.515-16.866 12.947-39.62a168 168 0 0 1-.322-6.843 157 157 0 0 1-.012-8.38c.242-9.96 1.421-19.552 3.471-29.891 1.297-6.532 1.373-14.223 1.102-22.047-5.284-3.832-11.729-7.066-18.092-10.564.496 10.918 1.08 21.935 1.691 33.397.688 12.909 1.247 25.636 1.408 38.068.026 1.95.06 3.906.061 5.837m-4.616-134.749c0 .076.009.149.009.228 0 11.84.208 23.169.557 34.356 4.136 3.824 9.701 7.845 16.312 12.718.574.423 1.156.869 1.735 1.314-.095-2.345-.166-4.639-.166-6.808 0-8.97.042-14.154 2.94-21.6 1.71-4.395 9.222-14.097-.234-15.961-1.069 1.776-2.961 2.561-3.919 4.354-2.027-7.401 1.068-17.441.43-25.243q-.137-1.662-.27-3.283c-.639-7.897-1.084-15.147.221-23.054.019-.114.03-.225.049-.338 1.271-7.423 3.53-13.338 2.763-22.36-.262-3.08 3.121-5.491 2.729-9.807-.499-5.47-4.314 0-3.567-9.807.219-2.864 1.761-6.366 1.781-9.415.014-1.928-.271-3.888-.574-5.846-5.105-4.884-10.939-8.273-15.293-11.023a83 83 0 0 1-4.973-3.437c1.098 23.041 4.959 46.592.266 47.765-3.7-.693-3.157-5.755-7.061-7.061-9.023 2.745-6.871 6.518-4.316 12.945 2.313 5.822.785 10.592 4.318 16.867 2.521 4.478 5.488 10.2 4.305 19.676-.026.212-.022.423-.043.635-.785 7.84 1.951 15.634 2.001 24.185m20.794-100.551c6.235 5.967 11.382 14.168 11.382 26.244 0 15.699-6.42 23.771-14.562 31.328-1.305 7.906-.859 15.156-.221 23.054 3.648-3.492 7.158-6.635 10.075-9.27 12.161-10.983 24.387-28.637 24.714-49.428.377-24.097-16.575-38.44-31.477-48.903-.625-.439-1.25-.882-1.866-1.309-6.78-4.693-12.984-8.937-17.716-13.034-5.152-4.461-8.552-8.75-8.961-13.25-.46-5.046 2.194-10.68 7.181-12.414a9.7 9.7 0 0 1 2.627-.531c4.171-.246 12.045 11.486 21.659 14.873 2.117.746 4.319 1.103 6.585.819 4.282-.536 4.43-.796 4.43-7.464 4.314.392 7.7 4.555 8.123-6.266.239-6.12-4.611-17.83-19.74-24.796-4.417-2.034-9.663-3.485-15.957-3.84-3.173-.179-6.863.374-10.645 1.618C22.218 33.347 9.164 44.62 8.865 63.446 8.614 79.192 24.419 97.1 38.414 107.475a82 82 0 0 0 4.973 3.437c4.353 2.75 10.187 6.139 15.292 11.023m-1.246 168.563c23.136 15.699 9.036 36.493-4.572 51.937-.066 2.756-.071 5.542.012 8.38 4.744-3.364 8.25-6.427 10.914-8.456 8.237-6.277 21.476-20.58 19.613-33.735-2.841-20.193-15.49-28.96-28.637-38.835-6.61-4.873-12.176-8.894-16.312-12.718-5.189-4.8-8.125-9.286-8.01-14.743.141-6.615 3.134-13.377 7.444-19.841-.05-8.551-2.786-16.345-2.003-24.184-13.072 13.969-24.039 28.983-23.487 47.556.538 18.094 13.521 26.692 26.946 34.075 6.363 3.497 12.808 6.732 18.092 10.564" style="fill:#fff;stroke:#a7a1a1;stroke-width:4.93781471;stroke-linecap:round;stroke-linejoin:round;stroke-opacity:1"/><ellipse cx="63" cy="45" rx="4.12" ry="4.35" style="stroke:#a7a1a1;stroke-width:.97897357;stroke-opacity:1;fill:#fff"/></g><g transform="matrix(1.10973 0 0 .83504 137.431 4.404)"><path d="M37.23 54.95c1.2 8.47 2.15 17.15 1.77 25.67 4.74 4.095 10.945 8.338 17.725 13.032.616.427 1.241.868 1.865 1.308.16-1.148.281-2.304.488-3.444 1.402-7.725 2.275-14.791 2.437-22.219-9.083-1.275-14.821-17.105-24.286-14.343zm23.683-23.362c.88-6.702 5.53-14.337 3.657-21.1-3.503-4.911-8.665.945-12.161 0-6.894-1.861-5.099-6.276-12.553-7.453-6.443-1.017-8.237-1.57-6.669 13.337.47 4.471.796 8.751 1.124 12.995 3.781-1.245 7.472-1.797 10.645-1.618 6.294.355 11.54 1.805 15.957 3.839M42.441 351.399c-11.827 8.896-25.65 14.272-39.852 18.027 17.571-2.243 30.382-7.072 39.913-12.191-.002-1.931-.036-3.887-.061-5.836m.06 5.836c.017 13.842-.574 27.266-2.254 40.043 13.73-12.945 14.515-16.866 12.947-39.62a168 168 0 0 1-.322-6.843 157 157 0 0 1-.012-8.38c.242-9.96 1.421-19.552 3.471-29.891 1.297-6.532 1.373-14.223 1.102-22.047-5.284-3.832-11.729-7.066-18.092-10.564.496 10.918 1.08 21.935 1.691 33.397.688 12.909 1.247 25.636 1.408 38.068.026 1.95.06 3.906.061 5.837m-4.616-134.749c0 .076.009.149.009.228 0 11.84.208 23.169.557 34.356 4.136 3.824 9.701 7.845 16.312 12.718.574.423 1.156.869 1.735 1.314-.095-2.345-.166-4.639-.166-6.808 0-8.97.042-14.154 2.94-21.6 1.71-4.395 9.222-14.097-.234-15.961-1.069 1.776-2.961 2.561-3.919 4.354-2.027-7.401 1.068-17.441.43-25.243q-.137-1.662-.27-3.283c-.639-7.897-1.084-15.147.221-23.054.019-.114.03-.225.049-.338 1.271-7.423 3.53-13.338 2.763-22.36-.262-3.08 3.121-5.491 2.729-9.807-.499-5.47-4.314 0-3.567-9.807.219-2.864 1.761-6.366 1.781-9.415.014-1.928-.271-3.888-.574-5.846-5.105-4.884-10.939-8.273-15.293-11.023a83 83 0 0 1-4.973-3.437c1.098 23.041 4.959 46.592.266 47.765-3.7-.693-3.157-5.755-7.061-7.061-9.023 2.745-6.871 6.518-4.316 12.945 2.313 5.822.785 10.592 4.318 16.867 2.521 4.478 5.488 10.2 4.305 19.676-.026.212-.022.423-.043.635-.785 7.84 1.951 15.634 2.001 24.185m20.794-100.551c6.235 5.967 11.382 14.168 11.382 26.244 0 15.699-6.42 23.771-14.562 31.328-1.305 7.906-.859 15.156-.221 23.054 3.648-3.492 7.158-6.635 10.075-9.27 12.161-10.983 24.387-28.637 24.714-49.428.377-24.097-16.575-38.44-31.477-48.903-.625-.439-1.25-.882-1.866-1.309-6.78-4.693-12.984-8.937-17.716-13.034-5.152-4.461-8.552-8.75-8.961-13.25-.46-5.046 2.194-10.68 7.181-12.414a9.7 9.7 0 0 1 2.627-.531c4.171-.246 12.045 11.486 21.659 14.873 2.117.746 4.319 1.103 6.585.819 4.282-.536 4.43-.796 4.43-7.464 4.314.392 7.7 4.555 8.123-6.266.239-6.12-4.611-17.83-19.74-24.796-4.417-2.034-9.663-3.485-15.957-3.84-3.173-.179-6.863.374-10.645 1.618C22.218 33.347 9.164 44.62 8.865 63.446 8.614 79.192 24.419 97.1 38.414 107.475a82 82 0 0 0 4.973 3.437c4.353 2.75 10.187 6.139 15.292 11.023m-1.246 168.563c23.136 15.699 9.036 36.493-4.572 51.937-.066 2.756-.071 5.542.012 8.38 4.744-3.364 8.25-6.427 10.914-8.456 8.237-6.277 21.476-20.58 19.613-33.735-2.841-20.193-15.49-28.96-28.637-38.835-6.61-4.873-12.176-8.894-16.312-12.718-5.189-4.8-8.125-9.286-8.01-14.743.141-6.615 3.134-13.377 7.444-19.841-.05-8.551-2.786-16.345-2.003-24.184-13.072 13.969-24.039 28.983-23.487 47.556.538 18.094 13.521 26.692 26.946 34.075 6.363 3.497 12.808 6.732 18.092 10.564" style="fill:none;stroke:#000;stroke-width:5.19404507;stroke-linecap:round;stroke-linejoin:round"/><ellipse cx="63" cy="45" rx="4.12" ry="4.35"/></g></svg>