<svg xmlns="http://www.w3.org/2000/svg" xmlns:xlink="http://www.w3.org/1999/xlink" viewBox="0 0 1143.99 1384.93"><defs><style>.cls-1{isolation:isolate;}.cls-2{fill:#0db739;}.cls-3{fill:#dfe0e3;}.cls-4{fill:#f6f6f6;}.cls-5{fill:#ed773f;}.cls-6{fill:#0e902b;}.cls-7{fill:#383440;}.cls-8{fill:#5a4f6f;}.cls-9{fill:#dcdfe1;}.cls-10{fill:#fff;}.cls-11{opacity:0.1;mix-blend-mode:difference;fill:url(#linear-gradient);}.cls-12{fill:#d88d2b;}.cls-13{fill:#dd4078;}.cls-14{fill:#d8e3f0;}.cls-15{fill:#dea749;}.cls-16{fill:#ffc605;}.cls-17,.cls-18{fill:none;stroke:#baced8;stroke-miterlimit:10;}.cls-17{stroke-width:2.17px;}.cls-18{stroke-width:2.2px;}.cls-19{fill:#6271f0;}.cls-20{fill:#1ea13e;}.cls-21{fill:#042144;}.cls-22{fill:#432918;}.cls-23{fill:#ffbca8;}.cls-24{fill:#714e51;}.cls-25{fill:#d9edfe;}.cls-26{fill:#f39200;}.cls-27{opacity:0.71;}.cls-27,.cls-43{mix-blend-mode:multiply;}.cls-28{fill:#683c11;}.cls-29{fill:#323538;}.cls-30{fill:#4d5257;}.cls-31{fill:#585e63;}.cls-32{fill:#686f75;}.cls-33{fill:#7d858c;}.cls-34{fill:#d97e7e;}.cls-35{fill:#9ca4ba;}.cls-36{fill:#e69b0c;}.cls-37{fill:#ffbc3c;}.cls-38{fill:#e6aa36;}.cls-39{fill:#cc9630;}.cls-40{fill:#626775;}.cls-41{fill:#d9e8ff;}.cls-42{fill:#575756;}.cls-44{fill:#714f52;}.cls-45{fill:#563639;}</style><linearGradient id="linear-gradient" x1="866.81" y1="1291.06" x2="651.87" y2="918.76" gradientTransform="matrix(0.86, 0.05, 0.05, 0.83, 36.62, 121.08)" gradientUnits="userSpaceOnUse"><stop offset="0.3" stop-color="#f6f6f6" stop-opacity="0"></stop><stop offset="0.7" stop-color="#878787"></stop></linearGradient></defs><g class="cls-1"><g id="Layer_1" data-name="Layer 1"><polygon class="cls-2" points="964.78 364.76 807.94 457.83 807.94 473.78 991.67 364.76 964.78 364.76"></polygon><polygon class="cls-2" points="807.94 903.2 807.94 919.15 1015.61 795.92 1015.61 779.97 807.94 903.2"></polygon><polygon class="cls-2" points="807.94 680.51 807.94 696.47 1015.61 573.24 1015.61 557.29 807.94 680.51"></polygon><polygon class="cls-2" points="839.68 364.76 807.94 383.61 807.94 399.56 866.57 364.76 839.68 364.76"></polygon><polygon class="cls-2" points="807.94 828.98 807.94 844.93 1015.61 721.69 1015.61 705.74 807.94 828.98"></polygon><polygon class="cls-2" points="807.94 606.28 807.94 622.25 1015.61 499.01 1015.61 483.05 807.94 606.28"></polygon><polygon class="cls-2" points="956.98 963.21 983.87 963.21 1015.61 944.37 1015.61 928.43 956.98 963.21"></polygon><polygon class="cls-2" points="807.94 754.74 807.94 770.7 1015.61 647.47 1015.61 631.51 807.94 754.74"></polygon><polygon class="cls-2" points="807.94 532.06 807.94 548.01 1015.61 424.78 1015.61 408.83 807.94 532.06"></polygon><polygon class="cls-2" points="831.9 963.21 858.77 963.21 1015.61 870.15 1015.61 854.2 831.9 963.21"></polygon><path class="cls-3" d="M1138.07,1057l-558.15,326.2a12.3,12.3,0,0,1-12.69,0L6,1059.87a12.29,12.29,0,0,1,.22-21.21L580.86,710.28a12.26,12.26,0,0,1,12.74.33l544.75,325.49A12.29,12.29,0,0,1,1138.07,1057Z"></path><path class="cls-4" d="M1138.07,1018.65l-558.15,326.2a12.28,12.28,0,0,1-12.69,0L6,1021.56a12.29,12.29,0,0,1,.22-21.21L580.86,672a12.29,12.29,0,0,1,12.74.34l544.75,325.48A12.3,12.3,0,0,1,1138.07,1018.65Z"></path><polyline class="cls-5" points="294.02 466.63 255.28 505.37 259.81 509.9 298.55 471.16"></polyline><polyline class="cls-5" points="255.28 471.16 294.02 509.9 298.55 505.37 259.81 466.63"></polyline><path class="cls-6" d="M626.15,474.54,366.39,334.69c-19.82-9-36.07-30.81-36.07-53.58V86.82c0-22.77,16.25-48.37,44.19-34.91L640.83,192.15c15.19,9.62,28.7,28,28.7,50.76V437.19C669.53,466.3,648.24,485.82,626.15,474.54Z"></path><polygon class="cls-6" points="582.2 508.46 584.18 427.49 559.09 409.41 558.66 514 582.2 508.46"></polygon><polygon class="cls-6" points="327.14 60.64 351.27 49.6 358.37 65.53 334.13 76.33 327.14 60.64"></polygon><rect class="cls-6" x="616.2" y="464.31" width="33.37" height="17.44" transform="translate(-137.73 298.53) rotate(-24.02)"></rect><path class="cls-2" d="M603,485,343.28,345.18c-19.83-9-36.07-30.81-36.07-53.59V97.31c0-22.78,16.24-48.38,44.18-34.91L617.72,202.64c15.19,9.61,28.69,28,28.69,50.75V447.68C646.41,476.78,625.13,496.3,603,485Z"></path><polygon class="cls-2" points="558.66 514 558.66 429.56 459.71 402.76 558.66 514"></polygon><path class="cls-7" d="M823,494.21,600.2,374.27c-17-7.69-30.94-26.42-30.94-45.95V161.7c0-19.54,13.94-41.49,37.9-29.95L835.56,252c13,8.25,24.61,24,24.61,43.53V462.18C860.17,487.14,841.92,503.88,823,494.21Z"></path><polygon class="cls-7" points="785.28 523.3 786.98 453.86 765.46 438.35 765.09 528.05 785.28 523.3"></polygon><polygon class="cls-7" points="566.53 139.24 587.23 129.77 593.32 143.44 572.53 152.7 566.53 139.24"></polygon><rect class="cls-7" x="814.44" y="485.44" width="28.62" height="14.96" transform="translate(-128.87 379.97) rotate(-24.02)"></rect><path class="cls-8" d="M803.15,503.2,580.37,383.27c-17-7.7-30.93-26.43-30.93-46V170.69c0-19.53,13.94-41.49,37.9-29.94L815.74,261c13,8.25,24.61,24,24.61,43.53V471.17C840.35,496.13,822.1,512.87,803.15,503.2Z"></path><polygon class="cls-8" points="765.09 528.05 765.09 455.63 680.23 432.65 765.09 528.05"></polygon><path class="cls-9" d="M653.34,279.52,483,187.84c-13-5.88-23.65-20.2-23.65-35.13V25.33c0-14.93,10.65-31.71,29-22.88L663,94.39c9.95,6.3,18.81,18.34,18.81,33.27V255C681.78,274.12,667.82,286.92,653.34,279.52Z"></path><polygon class="cls-9" points="624.52 301.76 625.83 248.68 609.38 236.82 609.09 305.39 624.52 301.76"></polygon><polygon class="cls-9" points="457.31 8.17 473.13 0.93 477.78 11.38 461.89 18.45 457.31 8.17"></polygon><rect class="cls-9" x="646.81" y="272.82" width="21.88" height="11.43" transform="translate(-56.42 291.82) rotate(-24.02)"></rect><path class="cls-10" d="M638.19,286.4l-170.3-91.69c-13-5.88-23.65-20.2-23.65-35.13V32.21c0-14.93,10.65-31.72,29-22.89l174.6,91.94c10,6.31,18.82,18.35,18.82,33.28V261.91C666.63,281,652.67,293.79,638.19,286.4Z"></path><polygon class="cls-10" points="609.09 305.39 609.09 250.04 544.22 232.46 609.09 305.39"></polygon><path class="cls-11" d="M756.77,1250.45,433.47,1067.8c-12.59-8.53-17-16.55-2.5-24.51L678.33,890.88c14.5-8,39.29-7.18,50.27-1l321.92,184c11,6.16,8.11,17.72-6.38,25.69l-249,153.12C780.65,1260.62,767.75,1256.62,756.77,1250.45Z"></path><path class="cls-12" d="M493.17,1104.6,274.77,978.5a4,4,0,0,1,0-7L574.18,798.64a4,4,0,0,1,4,0l218.4,126.1a4,4,0,0,1,0,7L497.21,1104.6A4,4,0,0,1,493.17,1104.6Z"></path><rect class="cls-12" x="272.75" y="966.86" width="8.83" height="8.83"></rect><rect class="cls-13" x="789.98" y="917.81" width="7.99" height="7.99"></rect><path class="cls-12" d="M493.17,1097.19,274.77,971.1a4,4,0,0,1,0-7L574.18,791.24a4,4,0,0,1,4,0l218.4,126.09a4,4,0,0,1,0,7L497.21,1097.19A4,4,0,0,1,493.17,1097.19Z"></path><polygon class="cls-14" points="483.07 1092.95 292.85 982.72 292.85 915.88 483.07 1026.11 483.07 1092.95"></polygon><path class="cls-12" d="M493.17,1045.45,274.77,919.36a4,4,0,0,1,0-7L574.18,739.5a4,4,0,0,1,4,0l218.4,126.09a4,4,0,0,1,0,7L497.21,1045.45A4,4,0,0,1,493.17,1045.45Z"></path><rect class="cls-15" x="272.75" y="907.99" width="8.83" height="7.85"></rect><rect class="cls-15" x="789.79" y="862.86" width="8.83" height="5.89"></rect><path class="cls-16" d="M493.17,1038.05,274.77,912a4,4,0,0,1,0-7L574.18,732.1a4,4,0,0,1,4,0l218.4,126.09a4,4,0,0,1,0,7L497.21,1038.05A4,4,0,0,1,493.17,1038.05Z"></path><polygon class="cls-16" points="497.45 1105.14 797.97 928.58 797.97 869.43 497.45 1038.29 497.45 1105.14"></polygon><line class="cls-17" x1="291.51" y1="958.75" x2="476.61" y2="1064.57"></line><line class="cls-17" x1="291.51" y1="939.25" x2="476.61" y2="1045.07"></line><line class="cls-17" x1="291.51" y1="971.75" x2="476.61" y2="1077.57"></line><polygon class="cls-2" points="275.48 891.28 583.99 714.56 584.55 654.39 276.11 823.29 275.48 891.28"></polygon><path class="cls-2" d="M498.43,1028.32,277.48,896.21c-2.72-1.61-2.66-8.35.09-9.91l306.23-173a4.11,4.11,0,0,1,4.11,0l221,130.36a4.11,4.11,0,0,1-.07,7.11L502.53,1028.36A4.09,4.09,0,0,1,498.43,1028.32Z"></path><rect class="cls-2" x="275.54" y="881.41" width="5.69" height="6.83" transform="translate(8.33 -2.58) rotate(0.54)"></rect><rect class="cls-2" x="802.13" y="839.67" width="9.11" height="7.97" transform="translate(7.95 -7.53) rotate(0.54)"></rect><path class="cls-2" d="M498.54,1016.24l-221-130.36a4.1,4.1,0,0,1,.07-7.11l306.22-173a4.13,4.13,0,0,1,4.11,0l221,130.36a4.11,4.11,0,0,1-.07,7.11l-306.22,173A4.11,4.11,0,0,1,498.54,1016.24Z"></path><polygon class="cls-14" points="502.21 1016.73 293.64 897.86 294.28 829.86 503.84 955.38 502.21 1016.73"></polygon><line class="cls-18" x1="294.73" y1="873.48" x2="500.86" y2="993.9"></line><line class="cls-18" x1="294.91" y1="853.64" x2="504.16" y2="973.78"></line><line class="cls-18" x1="294.6" y1="886.71" x2="500.73" y2="1007.13"></line><polygon class="cls-10" points="502.09 1016.73 796.4 847.49 796.96 787.33 502.72 949.87 502.09 1016.73"></polygon><path class="cls-2" d="M499,963.6l-221-130.35a4.11,4.11,0,0,1,.07-7.11l306.22-173a4.11,4.11,0,0,1,4.11,0l221,130.35a4.11,4.11,0,0,1-.07,7.12l-306.22,173A4.11,4.11,0,0,1,499,963.6Z"></path><rect class="cls-19" x="276.09" y="822.19" width="5.69" height="6.83" transform="translate(7.78 -2.59) rotate(0.54)"></rect><rect class="cls-2" x="802.69" y="779.31" width="9.11" height="7.97" transform="translate(7.39 -7.54) rotate(0.54)"></rect><path class="cls-6" d="M499.1,956.07l-221-130.35a4.11,4.11,0,0,1,.07-7.11l306.22-173a4.11,4.11,0,0,1,4.11,0L809.5,776a4.11,4.11,0,0,1-.06,7.12l-306.23,173A4.11,4.11,0,0,1,499.1,956.07Z"></path><line class="cls-18" x1="792.89" y1="812.3" x2="504.16" y2="973.78"></line><line class="cls-18" x1="792.76" y1="826.32" x2="504.03" y2="987.8"></line><line class="cls-18" x1="792.62" y1="840.34" x2="503.9" y2="1001.82"></line><path class="cls-10" d="M615.4,807,523,752.52c-4-2.38-3.48-6.45,1.21-9.1l43-24.31c4.7-2.65,11.76-2.88,15.78-.51l92.37,54.49c4,2.37,3.47,6.44-1.22,9.1l-43,24.31C626.48,809.15,619.42,809.38,615.4,807Z"></path><path class="cls-15" d="M653.83,780.14l-83.1-49c-1.25-.73-1.08-2,.38-2.83h0a5.5,5.5,0,0,1,4.91-.16l83.1,49c1.24.73,1.07,2-.38,2.83h0A5.5,5.5,0,0,1,653.83,780.14Z"></path><path class="cls-15" d="M639.74,788.1l-83.11-49c-1.24-.73-1.07-2,.38-2.83h0a5.46,5.46,0,0,1,4.91-.15l83.1,49c1.25.74,1.08,2-.38,2.83h0A5.48,5.48,0,0,1,639.74,788.1Z"></path><path class="cls-15" d="M625.64,796.06l-83.1-49c-1.25-.74-1.08-2,.38-2.83h0a5.43,5.43,0,0,1,4.91-.16l83.1,49c1.24.74,1.07,2-.38,2.83h0A5.5,5.5,0,0,1,625.64,796.06Z"></path><polygon class="cls-6" points="277.44 804.95 585.95 628.22 586.52 568.06 278.07 736.95 277.44 804.95"></polygon><path class="cls-20" d="M500.39,942,279.44,809.87c-2.72-1.61-2.66-8.35.1-9.91L585.76,627a4.11,4.11,0,0,1,4.11,0l221,130.35a4.11,4.11,0,0,1-.07,7.11L504.5,942A4.11,4.11,0,0,1,500.39,942Z"></path><rect class="cls-20" x="277.5" y="795.07" width="5.69" height="6.83" transform="translate(7.52 -2.6) rotate(0.54)"></rect><rect class="cls-20" x="804.09" y="753.34" width="9.11" height="7.97" transform="translate(7.14 -7.56) rotate(0.54)"></rect><path class="cls-6" d="M500.5,929.9l-221-130.35a4.12,4.12,0,0,1,.07-7.12l306.22-173a4.11,4.11,0,0,1,4.11,0l221,130.35a4.1,4.1,0,0,1-.07,7.11l-306.22,173A4.13,4.13,0,0,1,500.5,929.9Z"></path><polygon class="cls-14" points="504.18 930.39 295.6 811.52 296.24 743.52 505.81 869.05 504.18 930.39"></polygon><line class="cls-18" x1="296.69" y1="787.14" x2="502.82" y2="907.57"></line><line class="cls-18" x1="296.88" y1="767.31" x2="506.12" y2="887.44"></line><line class="cls-18" x1="296.57" y1="800.37" x2="502.69" y2="920.79"></line><polygon class="cls-10" points="504.06 930.39 798.36 761.16 798.92 700.99 504.68 863.53 504.06 930.39"></polygon><path class="cls-20" d="M501,877.27,280,746.91a4.1,4.1,0,0,1,.06-7.11l306.23-173a4.11,4.11,0,0,1,4.1,0l221,130.36a4.1,4.1,0,0,1-.06,7.11L505.1,877.3A4.09,4.09,0,0,1,501,877.27Z"></path><rect class="cls-20" x="278.06" y="735.85" width="5.69" height="6.83" transform="translate(6.96 -2.61) rotate(0.54)"></rect><rect class="cls-20" x="804.66" y="692.98" width="9.11" height="7.97" transform="translate(6.58 -7.56) rotate(0.54)"></rect><path class="cls-2" d="M501.07,869.73l-221-130.35a4.1,4.1,0,0,1,.06-7.11l306.23-173a4.11,4.11,0,0,1,4.1,0l221,130.35a4.11,4.11,0,0,1-.06,7.12l-306.23,173A4.06,4.06,0,0,1,501.07,869.73Z"></path><line class="cls-18" x1="794.85" y1="725.96" x2="506.12" y2="887.44"></line><line class="cls-18" x1="794.72" y1="739.98" x2="505.99" y2="901.46"></line><line class="cls-18" x1="794.59" y1="754.01" x2="505.86" y2="915.49"></line><polygon class="cls-21" points="773.67 738.05 804.09 757.32 611.92 828.27 773.67 738.05"></polygon><path class="cls-22" d="M260.86,1085.67l.61.35a5.43,5.43,0,0,0,2.71.73,5.51,5.51,0,0,0,2.13-.43,8.35,8.35,0,0,0,4.5-5.76l13.48-50.43,62.5,35.63L333,1117.51c-1.22,4.58.28,9.42,3.5,11.26l.61.34a5.35,5.35,0,0,0,4.84.3,8.27,8.27,0,0,0,4.49-5.76l16.37-61.19.1-.37h0l30.38-113.61h0l.75-2.8,15.72-58.8.5-1.87h0l28-104.61c1.23-4.58-.28-9.42-3.5-11.26l-.61-.34a5.34,5.34,0,0,0-4.84-.3,8.3,8.3,0,0,0-4.49,5.76l-10.4,38.89-62.5-35.63,10.75-40.22c1.23-4.58-.28-9.42-3.49-11.25l-.61-.35a5.42,5.42,0,0,0-4.85-.3,8.3,8.3,0,0,0-4.49,5.76L337,776.73h0l-1.19,4.44h0L321,836.47l-1,3.74h0L305.4,894.8h0l-1.19,4.43h0L289.62,953.8v0l-1.19,4.44h0l-14.68,54.9-1.1,4.12v0l-15.27,57.1C256.14,1079,257.64,1083.83,260.86,1085.67Zm133.29-197L382.78,931.2l-62.5-35.64,11.37-42.51Zm-15.79,59L367,990.22l-62.5-35.63,11.37-42.52ZM347.43,794l62.5,35.64-11.37,42.51-62.5-35.64Zm3.78,255.23-62.5-35.63,11.37-42.52,62.5,35.64Z"></path><path class="cls-23" d="M641.19,719.91H630.78a3.41,3.41,0,0,1-3.4-3.41V710a3.41,3.41,0,0,1,3.4-3.41h17a3.41,3.41,0,0,1,3.4,3.41h0A10,10,0,0,1,641.19,719.91Z"></path><path class="cls-23" d="M636.37,701.72a7.93,7.93,0,0,0-9,2.59l-20.16,26-23.09-39.63a7.94,7.94,0,1,0-13.58,8.24L595,739.22c2.3,3.79,7.6,9.63,12,9.63l.63,0a12.33,12.33,0,0,0,10.38-6.63l18.3-23.57Z"></path><path class="cls-16" d="M567.52,681.78A10,10,0,0,1,581.45,685l22.29,38.25a7.77,7.77,0,0,1,.62,6.75c-2.1,5.21-6.56,8.85-12.36,10.65-.25-.37-.5-.74-.71-1.09l-26.64-43.87A10.22,10.22,0,0,1,567.52,681.78Z"></path><path class="cls-24" d="M622.2,880a5,5,0,0,0-4.37,3.28,14.67,14.67,0,0,0-.78,5.72c0,1.69.08,3.59,1.29,4.78a6.43,6.43,0,0,0,2.94,1.36,34.56,34.56,0,0,0,6,1.26c2.33.2,4.68-.07,7,.28,1.47.22,2.88.69,4.33,1a24.59,24.59,0,0,0,12.46-.32,4.63,4.63,0,0,0,2.42-1.33,3.52,3.52,0,0,0-.34-4.29,10.26,10.26,0,0,0-3.86-2.53l-12.74-5.85c-4.16-1.91-8.47-3.86-13.06-4-1.46,0-3.39.63-3.26,2.09Z"></path><rect class="cls-25" x="620.73" y="868.37" width="10.64" height="18.84" rx="0.76" transform="matrix(1, 0.08, -0.08, 1, 72.59, -47.48)"></rect><path class="cls-24" d="M621.83,898.92c.74,1.65,1.51,3.28,2.23,4.92a44.75,44.75,0,0,1,2,5.13c.79,2.65,2.28,7.79.41,10.18-2.82,3.62-7.41.52-9.7-2a106.13,106.13,0,0,1-9.47-12.28,16.26,16.26,0,0,1-2.85-6.26c-1.17-7.25,2.32-17.53,9.63-15.12,2.67.88,3.81,3.16,4.44,6.12A46.23,46.23,0,0,0,621.83,898.92Z"></path><rect class="cls-25" x="606.61" y="876" width="10.64" height="18.84" rx="0.76"></rect><path class="cls-21" d="M566.42,765.47l16.88-4.72,4.43,8.88,51.36,25.21a10,10,0,0,1,6.12,10.93l-.82,5h0L635,874.55a6.24,6.24,0,0,1-5.72,5.33l-3.11.23a6.25,6.25,0,0,1-6.71-6.53l2.64-55-.39.13-45.39-23.8-.21.79,1.27,1.06-1.4-.55-.07.26c9.87,7,22.39,17.22,33.29,25.87a11.49,11.49,0,0,1,4,6.26,15.28,15.28,0,0,1,.66,3.81l6.4,51.32a6.42,6.42,0,0,1-6.4,5.88H609.5a6.42,6.42,0,0,1-6.43-6.42l-10.3-40.9-62.69-35.06a16.73,16.73,0,0,1-7.93-13.11L521.33,772Z"></path><path class="cls-16" d="M521.94,788.48c4.12,3.8,11.87,3.87,19.91,2.25a76.18,76.18,0,0,0,22.76-8.57c1.18-.71,14.81-7,20.57-10.47a3.68,3.68,0,0,0,1.46-4.58c-3.38-8-7.81-18.87-7.37-27.78.36-7.12,4.11-14.47,5.13-21.67,1.85-13.12,2-32-11.22-39.61a16,16,0,0,0-7.91-1.68,23.9,23.9,0,0,0-4.39.3c-20.28,3.69-31,10.23-37.13,20.26-4.11,6.7-6.15,15-7.59,25C514,736.92,514.34,781.49,521.94,788.48Z"></path><path class="cls-25" d="M539.38,688l11,12.3a3,3,0,0,0,4.6-.24l6.38-8.86,9.17,1.63a1.82,1.82,0,0,0,2.14-1.8V688.2a13.34,13.34,0,0,0-10.54-13.05,30.79,30.79,0,0,0-6.4-.66A26.78,26.78,0,0,0,540.32,679,6.12,6.12,0,0,0,539.38,688Z"></path><path class="cls-16" d="M521.94,788.48c4.12,3.8,11.87,3.87,19.91,2.25a22.45,22.45,0,0,0-2.4-8.18c-6.73-10.93-7.6-14.06-6.25-27,.54-5.12,1.06-10.39-.29-15.35-1.31-4.72-4.3-9.28-3.39-14.09.4-2.18,1.58-4.1,2.47-6.13a23.53,23.53,0,0,0,1.51-13.66,12.81,12.81,0,0,0-3.24-6.85,9.26,9.26,0,0,0-6.51-2.52c-4.11,6.7-6.15,15-7.59,25C514,736.92,514.34,781.49,521.94,788.48Z"></path><path class="cls-26" d="M546.79,681.35a5.41,5.41,0,0,0,1.74,3.87,12.11,12.11,0,0,0,15.44.14,5.21,5.21,0,0,0,0-8l-.36-.31,0,0a10.83,10.83,0,0,0-5.29-2.21c-.33,0-.65-.09-1-.11s-.66,0-1,0a11.06,11.06,0,0,0-7.79,2.85A5.38,5.38,0,0,0,546.79,681.35Z"></path><path class="cls-23" d="M548.53,661v24.21a11.08,11.08,0,0,0,7.79,2.85,11.26,11.26,0,0,0,7.48-2.56c.06,0,.11-.1.18-.15V661Z"></path><g class="cls-27"><path class="cls-23" d="M549.33,664.37l1.33,2,6.73,9.64,1,1.34,5.46,8.18c.06,0,.11-.1.18-.15V672.74l0-.06a90.46,90.46,0,0,0-7.44-7.9l-6-.34Z"></path></g><path class="cls-23" d="M518.49,708.73V765a21.46,21.46,0,0,0,8.74,17.27L563.62,804a9.43,9.43,0,0,0,11.13-15.22l-36.37-21.68a2.59,2.59,0,0,1-1-2.06V708.73a9.43,9.43,0,1,0-18.85,0Z"></path><path class="cls-16" d="M517.58,710.07v45.35a6.81,6.81,0,0,0,2.1,4.23,9.9,9.9,0,0,0,7.63,3,28.48,28.48,0,0,0,3.36-.25l.47-.08a23.7,23.7,0,0,0,6.8-1.58c1.46-.62,1.76-2,1.76-3.63v-47c0-7.59-4.91-13.77-11.06-13.77S517.58,702.48,517.58,710.07Zm13.66,51-.27,0,.22,0a36.77,36.77,0,0,0,3.68-.58A35,35,0,0,1,531.24,761Zm-7.46-.25a10.43,10.43,0,0,0,4,.55A10.22,10.22,0,0,1,523.78,760.79Z"></path><path class="cls-23" d="M544.67,662c-3.58-6.44-4.28-13.9,2.39-19.62,5.35-4.59,21-10.82,27.09-5.45,6.55,5.76,5.72,27,1,34C571,677,563,677.61,557,674.39A33.28,33.28,0,0,1,544.67,662Z"></path><path class="cls-28" d="M535.25,642.19a11.11,11.11,0,0,1,3.23-7.35c1.36-1,2.75-2,4.16-2.85,4.71-2.25,10.94-3,16.54-3.4,3.85.79,7.65,2.1,11.75,1.79a27.44,27.44,0,0,0,6.7-1.39,8.3,8.3,0,0,1,2.74,7.55c-1,7.12-8.07,6.55-12.69,10.16a3.93,3.93,0,0,1-.5,1.87,29,29,0,0,1-6.46,16.82,35.87,35.87,0,0,1-3.53,4.5C541.63,687,534.61,651,535.25,642.19Z"></path><path class="cls-23" d="M559.26,660.64c.83,3,3.3,5,5.52,4.37s3.34-3.61,2.51-6.65-3.31-5-5.52-4.38S558.43,657.59,559.26,660.64Z"></path><rect class="cls-28" x="565.51" y="642.51" width="4.83" height="18.53" rx="0.35"></rect><g class="cls-1"><path class="cls-29" d="M837.26,1022.56,953.1,955.18c2.17-1.26,5.18-1.08,8.49.83l-115.84,67.38C842.44,1021.48,839.43,1021.3,837.26,1022.56Z"></path><path class="cls-29" d="M970,984.2l-115.84,67.39c2.14-1.25,3.46-3.9,3.48-7.67,0-7.54-5.29-16.74-11.86-20.53L961.59,956c6.57,3.79,11.88,13,11.85,20.53C973.43,980.31,972.11,983,970,984.2Z"></path><path class="cls-29" d="M845.75,1023.39c6.57,3.79,11.88,13,11.86,20.53s-5.37,10.63-11.94,6.84-11.9-13-11.88-20.59S839.19,1019.6,845.75,1023.39Z"></path></g><g class="cls-1"><path class="cls-30" d="M805.57,1038.71,937.4,962c2.47-1.44,5.9-1.24,9.67.94l-131.84,76.69C811.46,1037.47,808,1037.27,805.57,1038.71Z"></path><path class="cls-30" d="M956.6,995.05l-131.83,76.69c2.43-1.42,3.94-4.43,4-8.73,0-8.58-6-19-13.49-23.36L947.07,963c7.47,4.32,13.52,14.78,13.49,23.37C960.55,990.62,959,993.63,956.6,995.05Z"></path><path class="cls-29" d="M815.23,1039.65c7.48,4.31,13.52,14.78,13.49,23.36s-6.1,12.1-13.57,7.79-13.56-14.81-13.53-23.44S807.76,1035.33,815.23,1039.65Z"></path></g><g class="cls-1"><path class="cls-30" d="M579.55,1173.09l224.82-130.45c2.07-1.21,5-1,8.12.79L587.68,1173.88C584.51,1172.05,581.63,1171.88,579.55,1173.09Z"></path><path class="cls-30" d="M820.5,1070.39,595.68,1200.85c2.05-1.19,3.32-3.73,3.33-7.34,0-7.21-5.06-16-11.33-19.63l224.81-130.45c6.28,3.62,11.36,12.42,11.34,19.63C823.82,1066.67,822.55,1069.2,820.5,1070.39Z"></path><path class="cls-29" d="M587.68,1173.88C594,1177.5,599,1186.3,599,1193.51s-5.13,10.17-11.41,6.54-11.39-12.44-11.37-19.69S581.4,1170.25,587.68,1173.88Z"></path></g><g class="cls-1"><polygon class="cls-31" points="904.85 973.08 904.89 985.17 915.1 991.11 915.06 979.01 904.85 973.08"></polygon><polygon class="cls-32" points="915.06 979.01 915.1 991.11 936.13 978.97 936.09 966.87 915.06 979.01"></polygon><polygon class="cls-33" points="904.85 973.08 915.06 979.01 936.09 966.87 925.88 960.94 904.85 973.08"></polygon></g><g class="cls-1"><polygon class="cls-31" points="816.51 1016.8 816.54 1024.11 826.76 1030.05 826.72 1022.73 816.51 1016.8"></polygon><polygon class="cls-32" points="826.72 1022.73 826.76 1030.05 936.13 966.9 936.09 959.59 826.72 1022.73"></polygon><polygon class="cls-33" points="816.51 1016.8 826.72 1022.73 936.09 959.59 925.88 953.65 816.51 1016.8"></polygon></g><g class="cls-1"><path class="cls-34" d="M1031.55,1019c0,2.83-1,4.84-2.63,5.75L833.13,1138.3c1.58-.91,2.59-2.92,2.59-5.74,0-5.7-4-12.6-8.91-15.43-2.5-1.48-4.75-1.58-6.37-.62l195.78-113.59c1.63-.9,3.93-.81,6.42.63C1027.58,1006.42,1031.55,1013.32,1031.55,1019Z"></path><path class="cls-35" d="M1020.58,1026.41c0,3.09-1.1,5.28-2.88,6.28l-213.85,124c1.73-1,2.83-3.19,2.83-6.27.05-6.23-4.35-13.76-9.74-16.85-2.72-1.62-5.18-1.73-7-.68l213.84-124.06c1.78-1,4.29-.89,7,.68C1016.23,1012.65,1020.58,1020.18,1020.58,1026.41Z"></path><path class="cls-36" d="M999.1,1045.22a7.21,7.21,0,0,1-3.26,4.83L729.42,1204.54a6.85,6.85,0,0,0,3.13-4.63Z"></path><path class="cls-37" d="M999.43,1042.22a13.77,13.77,0,0,1-.33,3L732.55,1199.91a12.28,12.28,0,0,0,.39-3.19,20.65,20.65,0,0,0-1.11-6.46,29.12,29.12,0,0,0-6.32-10.75,23.22,23.22,0,0,0-4.7-3.78,10,10,0,0,0-3.58-1.43,6.63,6.63,0,0,0-5.09.58l266.43-154.56a6.86,6.86,0,0,1,4.89-.59,10.63,10.63,0,0,1,3.84,1.44,22.19,22.19,0,0,1,4.63,3.71,28.76,28.76,0,0,1,6.26,10.63A19.24,19.24,0,0,1,999.43,1042.22Z"></path><path class="cls-38" d="M999.43,1042.22a13.77,13.77,0,0,1-.33,3L732.55,1199.91a12.28,12.28,0,0,0,.39-3.19,20.65,20.65,0,0,0-1.11-6.46,29.12,29.12,0,0,0-6.32-10.75l266.42-154.63a28.76,28.76,0,0,1,6.26,10.63A19.24,19.24,0,0,1,999.43,1042.22Z"></path><path class="cls-37" d="M991.93,1024.88,725.51,1179.51a23.22,23.22,0,0,0-4.7-3.78,10,10,0,0,0-3.58-1.43l266.23-154.57a10.63,10.63,0,0,1,3.84,1.44A22.19,22.19,0,0,1,991.93,1024.88Z"></path><path class="cls-36" d="M999.43,1042.22a13.77,13.77,0,0,1-.33,3L732.55,1199.91a12.28,12.28,0,0,0,.39-3.19,20.65,20.65,0,0,0-1.11-6.46l266.36-154.75A19.24,19.24,0,0,1,999.43,1042.22Z"></path><path class="cls-37" d="M732.94,1196.72c0,3.84-1.31,6.52-3.52,7.82h-.07l-4.3.72H725l-28.3,4.69-13,2.15,8-10.56,17.93-23.79,1.56-2c2.22-2.22,5.74-2.35,9.71,0C727.53,1179.58,733,1189,732.94,1196.72Z"></path><path class="cls-39" d="M709.54,1177.75a5.53,5.53,0,0,1,1.56-2Z"></path><path class="cls-39" d="M729.35,1204.54a6.33,6.33,0,0,1-4.3.72Z"></path></g><path class="cls-40" d="M696.69,1210l-13,2.15,8-10.56A13.1,13.1,0,0,1,696.69,1210Z"></path><path class="cls-23" d="M676.52,631l-28.31,30.42a17.42,17.42,0,0,0-4.35,15.07l12.2,35.89a7.64,7.64,0,0,0,15-2.88l-12.19-35.88a2.07,2.07,0,0,1,.53-1.79l28.3-30.42A7.64,7.64,0,1,0,676.52,631Z"></path><path class="cls-41" d="M687.11,642.3l-22.58,24.28a20.36,20.36,0,0,0-2.59-2.92,22.51,22.51,0,0,0-11.41-5.59.67.67,0,0,1-.36-1.12l24.45-26.27c4-4.31,10-5.2,13.5-2S691.12,638,687.11,642.3Z"></path><path class="cls-21" d="M768.77,734.94a9.6,9.6,0,0,0,4.76-18.13l-47-24.22a9.6,9.6,0,0,0-8.79,17.07l47,24.22A9.64,9.64,0,0,0,768.77,734.94Z"></path><path class="cls-24" d="M780.51,821.13c-4.62-4.69-29.35-32.16-28.77-9.73.06,2.68.22,5.51,1.67,7.78,2.38,3.74,7.32,4.7,11.19,6.87,2.31,1.3,4.3,3.09,6.49,4.58a12.66,12.66,0,0,0,7.37,2.61c2.65-.1,5.37-1.86,5.85-4.47C784.84,825.86,782.59,823.24,780.51,821.13Z"></path><path class="cls-25" d="M757.17,793.18c.74-.5,1.49-1,2.26-1.43a5.68,5.68,0,0,1,1.05-.43l.18-.05a11.28,11.28,0,0,0,2,.16,5.61,5.61,0,0,1,.13.59l2.08,12.45a6.09,6.09,0,0,1-12,2l-1.48-8.85C753.26,796.09,755.15,794.55,757.17,793.18Z"></path><path class="cls-21" d="M712,694.33l13.75-3.85,3.6,7.24,3.53,1.73a34.43,34.43,0,0,0-1.48,7.7c-7.22,4.08-18.21,5.77-14.3,11.06,6.5,8.81,33.78,21.22,37.87,24.47a9.36,9.36,0,0,1,3.27,5.09l7.93,48a7.61,7.61,0,0,1-7.44,9.18h-3.66a6.8,6.8,0,0,1-6.64-5.33l-6.87-40.71-59.16-30.58A13.65,13.65,0,0,1,676,717.67l-.66-18Z"></path><path class="cls-10" d="M672.94,710.5c3.53,3.25,10.18,3.32,17.07,1.93a65.34,65.34,0,0,0,19.51-7.35h0c1-.61,12.69-6,17.63-9a3.15,3.15,0,0,0,1.25-3.93c-6.07-14.44-10.07-32.18-5.17-46.81a68.48,68.48,0,0,0,2.33-8.39v-1.8l0,1.58c1.55-8.1.39-15.61-8.73-20.93a13.8,13.8,0,0,0-6.79-1.44,20.45,20.45,0,0,0-3.76.26c-17.39,3.17-26.59,8.77-31.83,17.36-3.52,5.75-5.27,12.86-6.51,21.47C666.14,666.3,666.42,704.51,672.94,710.5Z"></path><path class="cls-41" d="M672.94,710.5c3.53,3.25,10.18,3.32,17.07,1.93a19.28,19.28,0,0,0-2.06-7c-5.77-9.36-6.52-12-5.36-23.16.46-4.39.91-8.9-.25-13.16-1.12-4-3.68-8-2.9-12.07a24.51,24.51,0,0,1,2.11-5.26,20.1,20.1,0,0,0,1.3-11.71,10.88,10.88,0,0,0-2.78-5.87,7.94,7.94,0,0,0-5.58-2.17c-3.52,5.75-5.27,12.86-6.51,21.47C666.14,666.3,666.42,704.51,672.94,710.5Z"></path><path class="cls-23" d="M724.14,624.57,752.44,655a17.4,17.4,0,0,1,4.35,15.07l-6.86,34.82a7.64,7.64,0,1,1-15-2.87l6.85-34.82a2.07,2.07,0,0,0-.52-1.79L713,635a7.64,7.64,0,0,1,11.19-10.41Z"></path><path class="cls-10" d="M748.23,651.08c-7.21,0-10.43,6.18-9.67,11.72l-25-26.88c-4-4.31-4.45-10.41-1-13.61s9.49-2.33,13.5,2L750,650a.67.67,0,0,1-.57,1.12A11.22,11.22,0,0,0,748.23,651.08Z"></path><path class="cls-21" d="M722.18,770.08a9,9,0,0,0,5.36-1.75L773.7,734.7A9.12,9.12,0,1,0,763,720L716.8,753.59a9.12,9.12,0,0,0,5.38,16.49Z"></path><path class="cls-25" d="M709.77,769.36c-.78-.43-1.55-.88-2.29-1.37a6.51,6.51,0,0,1-.86-.75l-.13-.14a10.35,10.35,0,0,0-.74-1.85l.47-.38,10.2-7.44a6.08,6.08,0,0,1,7.17,9.83l-7.25,5.29C714.12,771.55,711.9,770.55,709.77,769.36Z"></path><path class="cls-21" d="M713.55,627.23l-2,5.7a2.76,2.76,0,0,1-4.57.14l-3.76-4.85Z"></path><path class="cls-25" d="M689.84,625.62c2.83,3.18,5.87,6.71,8.33,9.48a2.54,2.54,0,0,0,4-.21l6.53-6.53,7.86,1.4a1.57,1.57,0,0,0,1.84-1.54v-2.44a11.44,11.44,0,0,0-9-11.19,26.26,26.26,0,0,0-5.49-.57,23,23,0,0,0-13.18,3.82A5.26,5.26,0,0,0,689.84,625.62Z"></path><path class="cls-21" d="M708.8,631.72l1.55-1,6.13,35.71a5.74,5.74,0,0,1-.49,3.22l-5.48,11.47a1.24,1.24,0,0,1-2.17.22l-5.91-8.3Z"></path><path class="cls-42" d="M711.05,618.23a5.2,5.2,0,0,1-1.9,3.89,5.79,5.79,0,0,1-.77.59,10.51,10.51,0,0,1-5.85,1.64,9.57,9.57,0,0,1-7.3-2.9v0l-.06-.08a5.08,5.08,0,0,1-1.07-2.23,4.41,4.41,0,0,1-.09-.89,4.24,4.24,0,0,1,.09-.88,4.89,4.89,0,0,1,1.07-2.22,9.41,9.41,0,0,1,7.37-3,10.53,10.53,0,0,1,5.85,1.64,7.79,7.79,0,0,1,1.07.87A5.08,5.08,0,0,1,711.05,618.23Z"></path><path class="cls-23" d="M708.38,605.35v17.36a10.51,10.51,0,0,1-5.85,1.64,9.57,9.57,0,0,1-7.3-2.9v0l-.06-.08a5.08,5.08,0,0,1-1.07-2.23V605.35a7.16,7.16,0,0,1,6.2-7.1c.37,0,.77-.06,1.17-.06a7.68,7.68,0,0,1,2.44.49,7.05,7.05,0,0,1,2.53,1.75A7.17,7.17,0,0,1,708.38,605.35Z"></path><g class="cls-43"><path class="cls-23" d="M695,621.89c6.11-.32,11-4.22,11-8.95V597.76a14.32,14.32,0,0,0-4.36-.63h-.4a8.1,8.1,0,0,0-.86.06H700a6.22,6.22,0,0,0-2,.69,3,3,0,0,0-.8.49l-.35.26a10.06,10.06,0,0,0-.8.8,8.35,8.35,0,0,0-2,5.51V618.5Z"></path></g><path class="cls-24" d="M710.54,603.6a.1.1,0,0,1,.07,0,1.27,1.27,0,0,0,0-.34A.43.43,0,0,1,710.54,603.6Z"></path><path class="cls-23" d="M706.78,614.37c1.59-2.32,2.27-6.06,2.67-8.52s3.86-1.48,3.87-4.09c0-1.86-1.73-3.83-2.51-5.44A11.75,11.75,0,0,0,707,591.6a23,23,0,0,0-7.21-3,56.34,56.34,0,0,0-8.62-1.68l-.8-2.76h-9V610a4.67,4.67,0,0,0,.18,1.08,11,11,0,0,0,14.79,7.42Z"></path><path class="cls-22" d="M678.3,582.62c2.57-1.8,6-3,8.88-4.43a27.51,27.51,0,0,1,10.48-3c4.89-.27,10,1.33,13.33,5,4.7,5.19,5.57,12.72,5,19.38-.24,2.59-.59,5.46-2,7.7-.75,1.19-4.6,4.81-6.29,3.38-1.43-1.21.31-3.46-.35-5.29a1.74,1.74,0,0,0-.37-.68,1.53,1.53,0,0,0-1.28-.15,1.93,1.93,0,0,1-1,0c-.75-.28-.85-1.29-.8-2.09.16-2.59.52-5.57-2.45-6.36-2.06-.54-4.38.22-6.38-.65-4.05-1.75-7.59-4.77-11.9-5.7-.59-.13-1.62-.49-1.76.09-.48,1.89-.18,2.54-.65,3.83a6.2,6.2,0,0,1-4.46-3.19,6.38,6.38,0,0,1,.11-5.7A6.69,6.69,0,0,1,678.3,582.62Z"></path><path class="cls-22" d="M698.87,622.44a12.22,12.22,0,0,0,4.63-3,21.59,21.59,0,0,0,4.78-9.11,14.22,14.22,0,0,0,.3-2.7,1.55,1.55,0,0,0-.41-1.27,1.17,1.17,0,0,0-1.56.34,4.44,4.44,0,0,0-.65,1.64,10.78,10.78,0,0,1-1.33,2.93,6,6,0,0,1-6.35,2.66,13.05,13.05,0,0,1-5.89-3.16,11.64,11.64,0,0,0-4.77-2.95c-8-2.38-9.09,2.36-5.92,8.3a16.15,16.15,0,0,0,2.63,3.42C688.49,623.41,693.28,624.24,698.87,622.44Z"></path><path class="cls-23" d="M704.79,604.69a1.11,1.11,0,0,0,.86.07.87.87,0,0,1,.05-.22Z"></path><path class="cls-23" d="M710.79,600.23c-1.35-.35-2.68.76-3.26,2a9.34,9.34,0,0,1-.91,1.88,1.87,1.87,0,0,1-1,.64,2,2,0,0,0,1.45,2.47,4.12,4.12,0,0,0,3.28-1,5,5,0,0,0,2.11-3A2.64,2.64,0,0,0,710.79,600.23Z"></path><path class="cls-44" d="M702.26,764.05,706,760.7h0a2.37,2.37,0,0,1,2.11-.62c2,.33,4.12,2.35,6.2,3.59A21.93,21.93,0,0,0,720.8,766a17,17,0,0,1,6.49,2.78c4.25,3.18,7.34,11.91,4.49,14.47a2.4,2.4,0,0,1-.9.75L727,787.19l-5.71-7.6-.52-.47a38.37,38.37,0,0,0-6.45-5.17c-2.08-1.16-4.24-1.63-6.2-3.57a11.42,11.42,0,0,1-2.6-4.26Z"></path><path class="cls-45" d="M723.88,771.64c4.25,3.18,7.34,11.91,4.49,14.47-.9,1.24-2.69,1.36-4.49.62-2.17-.88-4.38-2.78-6.49-4.7a38.37,38.37,0,0,0-6.45-5.17c-2.08-1.16-4.24-1.63-6.2-3.57a11.26,11.26,0,0,1-3.06-6.2v0a.86.86,0,0,1,0-.16l0-.32v-.44l0-.29a.76.76,0,0,1,0-.15v0c.25-1.83,1.44-2.95,3.06-2.68,2,.33,4.12,2.35,6.2,3.59a21.93,21.93,0,0,0,6.45,2.28A17,17,0,0,1,723.88,771.64Z"></path><circle class="cls-23" cx="739.55" cy="703.85" r="8.93"></circle><path class="cls-23" d="M657.72,712.78a8.93,8.93,0,1,0,8.93-8.93A8.93,8.93,0,0,0,657.72,712.78Z"></path></g></g></svg>