<?xml version="1.0" encoding="UTF-8" standalone="no"?>
<svg
   xmlns:dc="http://purl.org/dc/elements/1.1/"
   xmlns:cc="http://creativecommons.org/ns#"
   xmlns:rdf="http://www.w3.org/1999/02/22-rdf-syntax-ns#"
   xmlns:svg="http://www.w3.org/2000/svg"
   xmlns="http://www.w3.org/2000/svg"
   xmlns:sodipodi="http://sodipodi.sourceforge.net/DTD/sodipodi-0.dtd"
   xmlns:inkscape="http://www.inkscape.org/namespaces/inkscape"
   version="1.1"
   id="Layer_1"
   x="0px"
   y="0px"
   viewBox="0 0 60 60"
   xml:space="preserve"
   sodipodi:docname="zoom-out.svg"
   inkscape:version="1.0.1 (3bc2e813f5, 2020-09-07)"
   width="60"
   height="60"><metadata
   id="metadata57"><rdf:RDF><cc:Work
       rdf:about=""><dc:format>image/svg+xml</dc:format><dc:type
         rdf:resource="http://purl.org/dc/dcmitype/StillImage" /><dc:title></dc:title></cc:Work></rdf:RDF></metadata><defs
   id="defs55" /><sodipodi:namedview
   pagecolor="#ffffff"
   bordercolor="#666666"
   borderopacity="1"
   objecttolerance="10"
   gridtolerance="10"
   guidetolerance="10"
   inkscape:pageopacity="0"
   inkscape:pageshadow="2"
   inkscape:window-width="1920"
   inkscape:window-height="986"
   id="namedview53"
   showgrid="false"
   inkscape:zoom="1.1009789"
   inkscape:cx="236.9655"
   inkscape:cy="237.09724"
   inkscape:window-x="-11"
   inkscape:window-y="-11"
   inkscape:window-maximized="1"
   inkscape:current-layer="Layer_1" />







<g
   id="g69"
   transform="scale(0.12660044)"
   style="stroke-width:7.89887"><circle
     style="fill:#4abc96;stroke-width:62.3921"
     cx="236.966"
     cy="236.966"
     r="236.966"
     id="circle2" /><path
     style="fill:#a07238;stroke-width:62.3921"
     d="m 113.903,379.224 c -5.306,5.302 -13.916,5.302 -19.214,0 v 0 c -5.313,-5.313 -5.313,-13.912 0,-19.221 l 99.456,-99.46 c 5.298,-5.291 13.901,-5.291 19.214,0.011 v 0 c 5.298,5.295 5.298,13.893 -0.007,19.21 z"
     id="path4" /><path
     style="fill:#d4a160;stroke-width:62.3921"
     d="m 127.19,382.868 c -4.647,4.636 -16.501,0.318 -26.477,-9.665 v 0 C 90.722,363.22 86.405,351.362 91.044,346.726 L 196.663,241.089 c 4.655,-4.636 16.509,-0.311 26.492,9.672 v 0 c 9.983,9.964 14.308,21.822 9.661,26.484 z"
     id="path6" /><circle
     style="fill:#60c3b6;stroke-width:62.3921"
     cx="277.63901"
     cy="196.255"
     r="97.696999"
     id="circle8" /><circle
     style="fill:#83ceca;stroke-width:62.3921"
     cx="283.401"
     cy="205.685"
     r="76.739998"
     id="circle10" /><path
     style="fill:#a07238;stroke-width:62.3921"
     d="m 191.78,245.504 -13.893,13.886 c 0,0 12.688,28.026 39.977,32.329 l 10.077,-10.073 v -13.029 z"
     id="path12" /><path
     style="fill:#ebedef;stroke-width:62.3921"
     d="m 201.909,120.545 c -41.825,41.822 -41.825,109.637 0,151.451 41.84,41.833 109.637,41.833 151.463,0.011 41.825,-41.825 41.825,-109.641 0,-151.463 -41.826,-41.829 -109.626,-41.829 -151.463,0.001 z m 132.372,132.368 c -31.27,31.277 -81.997,31.285 -113.274,0 -31.285,-31.274 -31.285,-82.004 0,-113.274 31.277,-31.285 82.004,-31.285 113.274,-0.007 31.293,31.284 31.285,82.004 0,113.281 z"
     id="path14" /><g
     style="opacity:0.7;stroke-width:62.3921"
     id="g20">
	<rect
   x="243.177"
   y="186.355"
   style="fill:#ffffff;stroke-width:7.89887"
   width="68.953003"
   height="19.839001"
   id="rect16" />
	<path
   style="fill:#ffffff;stroke-width:7.89887"
   d="m 245.968,206.19 c 0,-6.615 0,-13.223 0,-19.839 -0.935,0.935 -1.871,1.871 -2.806,2.806 22.986,0 45.967,0 68.953,0 -0.935,-0.935 -1.871,-1.871 -2.806,-2.806 0,6.615 0,13.223 0,19.839 0.935,-0.935 1.871,-1.871 2.806,-2.806 -22.986,0 -45.968,0 -68.953,0 -3.622,0 -3.622,5.613 0,5.613 22.986,0 45.967,0 68.953,0 1.53,0 2.806,-1.276 2.806,-2.806 0,-6.615 0,-13.223 0,-19.839 0,-1.53 -1.276,-2.806 -2.806,-2.806 -22.986,0 -45.968,0 -68.953,0 -1.53,0 -2.806,1.276 -2.806,2.806 0,6.615 0,13.223 0,19.839 0,3.621 5.612,3.621 5.612,-0.001 z"
   id="path18" />
</g></g>
<g
   id="g22">
</g>
<g
   id="g24">
</g>
<g
   id="g26">
</g>
<g
   id="g28">
</g>
<g
   id="g30">
</g>
<g
   id="g32">
</g>
<g
   id="g34">
</g>
<g
   id="g36">
</g>
<g
   id="g38">
</g>
<g
   id="g40">
</g>
<g
   id="g42">
</g>
<g
   id="g44">
</g>
<g
   id="g46">
</g>
<g
   id="g48">
</g>
<g
   id="g50">
</g>
</svg>
