<svg xmlns="http://www.w3.org/2000/svg" width="100" height="100">
   <defs>
      <style>
         @media (prefers-color-scheme:dark) {
            path {
               fill: #e3e3e3
            }
         }
      </style>
   </defs>
   <path
      d="M37.462 96H4V4h33.462v15.977H16.294v20.23h19.703v15.978H16.294v23.708h21.168ZM66.528 4q7.897 0 13.026 3.092 5.13 2.964 7.653 9.148 2.524 6.057 2.524 15.334 0 6.314-1.547 11.081-1.465 4.639-3.989 7.989-2.442 3.221-5.292 5.283L96 96H82.323L68.482 60.694h-6.595V96H49.593V4Zm-.896 15.977h-3.745v24.869h3.99q6.106 0 8.71-3.222 2.688-3.22 2.688-9.535 0-4.38-1.303-6.958-1.221-2.706-3.827-3.865-2.523-1.289-6.513-1.289z"
      aria-label="ER" fill="#1f1f1f" />
</svg>
