<svg xmlns="http://www.w3.org/2000/svg" xml:space="preserve" width="32" height="32"><path d="M3 4.19v23.62c0 2.269 1.83 4.087 4.074 4.177V32h21.808v-1.18a3.037 3.037 0 0 1-3.039-3.038 3.037 3.037 0 0 1 3.039-3.038V0H7.292C4.972 0 3 1.87 3 4.19m21.664 23.58c0 1.192.513 2.268 1.308 3.038H7.24a3.04 3.04 0 0 1-3.051-3.039 3.033 3.033 0 0 1 2.807-3.013l19.013-.038c-.82.77-1.346 1.846-1.346 3.051M11.128 10.413h1.286V8.127a4.073 4.073 0 0 1 4.061-4.061 4.073 4.073 0 0 1 4.061 4.06v2.288h1.137v9.733H11.128Zm6.16 5.388.324 1.908h-2.436l.325-1.908a1.57 1.57 0 0 1-.731-1.34c0-.894.73-1.625 1.624-1.625.893 0 1.624.731 1.624 1.625 0 .568-.284 1.055-.73 1.34m1.637-7.675v2.287h-4.873V8.127A2.444 2.444 0 0 1 16.49 5.69a2.444 2.444 0 0 1 2.436 2.437" style="stroke-width:.126984"/></svg>