<?xml version="1.0" encoding="UTF-8" standalone="no"?>
<!-- Uploaded to SVGRepo https://www.svgrepo.com -->

<svg
   version="1.1"
   id="Layer_1"
   x="0px"
   y="0px"
   width="32"
   height="32"
   viewBox="0 0 32 32"
   enable-background="new 0 0 208 256"
   xml:space="preserve"
   sodipodi:docname="privacy.svg"
   inkscape:version="1.3.1 (91b66b0783, 2023-11-16)"
   xmlns:inkscape="http://www.inkscape.org/namespaces/inkscape"
   xmlns:sodipodi="http://sodipodi.sourceforge.net/DTD/sodipodi-0.dtd"
   xmlns="http://www.w3.org/2000/svg"
   xmlns:svg="http://www.w3.org/2000/svg"><defs
   id="defs1" /><sodipodi:namedview
   id="namedview1"
   pagecolor="#ffffff"
   bordercolor="#000000"
   borderopacity="0.25"
   inkscape:showpageshadow="2"
   inkscape:pageopacity="0.0"
   inkscape:pagecheckerboard="0"
   inkscape:deskcolor="#d1d1d1"
   inkscape:zoom="3.3868041"
   inkscape:cx="103.78516"
   inkscape:cy="101.42305"
   inkscape:window-width="1920"
   inkscape:window-height="986"
   inkscape:window-x="-11"
   inkscape:window-y="-11"
   inkscape:window-maximized="1"
   inkscape:current-layer="Layer_1" />
<path
   d="m 3,4.1904769 c 0,0 0,23.4267971 0,23.6190501 0,2.269207 1.8306035,4.087875 4.0741593,4.177652 v 0.01282 H 28.881907 V 30.82057 c -1.679492,0 -3.038476,-1.358984 -3.038476,-3.038477 0,-1.679492 1.358984,-3.038476 3.038476,-3.038476 V 24.717971 0 H 7.2920641 C 4.9715558,0 3,1.8699684 3,4.1904769 Z M 24.663876,27.769273 c 0,1.192255 0.512761,2.269207 1.307681,3.038476 H 7.2408894 c -1.6794923,0.01282 -3.0513018,-1.358984 -3.0513018,-3.038476 0,-1.589713 1.2435556,-2.897396 2.8077462,-3.012826 L 26.01016,24.717967 c -0.820571,0.769271 -1.346284,1.846096 -1.346284,3.051302 z M 11.128383,10.414224 h 1.285968 V 8.1266036 c 0,-2.2335237 1.827427,-4.0609529 4.060953,-4.0609529 2.233524,0 4.060953,1.8274292 4.060953,4.0609529 v 2.2876204 h 1.137015 v 9.732573 H 11.128383 Z m 6.158985,5.387428 0.324824,1.908572 h -2.436444 l 0.324825,-1.908572 c -0.446731,-0.284317 -0.730921,-0.771555 -0.730921,-1.340063 0,-0.893461 0.730921,-1.624381 1.624382,-1.624381 0.893459,0 1.62438,0.73092 1.62438,1.624381 0,0.568508 -0.284318,1.055873 -0.731046,1.340063 z M 18.925335,8.1266036 V 10.414224 H 18.018414 14.052191 V 8.1266036 c 0,-1.3400626 1.096381,-2.436571 2.436573,-2.436571 1.340062,0 2.436571,1.0965084 2.436571,2.436571 z"
   id="path1"
   style="stroke-width:0.126984" />
</svg>
