<?xml version="1.0" encoding="utf-8"?>
<!-- Uploaded to SVGRepo https://www.svgrepo.com -->
<svg version="1.1" id="Layer_1" xmlns="http://www.w3.org/2000/svg" xmlns:xlink="http://www.w3.org/1999/xlink" x="0px" y="0px"
	 width="208px" height="256px" viewBox="0 0 208 256" enable-background="new 0 0 208 256" xml:space="preserve">
<path d="M2,35c0,0,0,184.486,0,186c0,17.87,14.416,32.192,32.084,32.899V254H205.82v-9.288c-13.226,0-23.928-10.702-23.928-23.928
	s10.702-23.928,23.928-23.928v-0.202V2H35.8C17.526,2,2,16.726,2,35z M172.603,220.683c0,9.389,4.038,17.87,10.298,23.928H35.397
	c-13.226,0.101-24.029-10.702-24.029-23.928c0-12.519,9.793-22.817,22.111-23.726l149.726-0.303
	C176.743,202.712,172.603,211.192,172.603,220.683z M66.011,84.012h10.127V65.997c0-17.589,14.391-31.98,31.98-31.98
	s31.98,14.391,31.98,31.98v18.015h8.954v76.644H66.011V84.012z M114.513,126.438l2.558,15.03H97.884l2.558-15.03
	c-3.518-2.239-5.756-6.076-5.756-10.553c0-7.036,5.756-12.792,12.792-12.792s12.792,5.756,12.792,12.792
	C120.27,120.362,118.031,124.2,114.513,126.438z M127.412,65.997v18.015h-7.142H89.036V65.997c0-10.553,8.634-19.188,19.188-19.188
	C118.777,46.809,127.412,55.444,127.412,65.997z"/>
</svg>
