<?xml version="1.0" encoding="utf-8"?>
<!-- Generator: Adobe Illustrator 19.2.0, SVG Export Plug-In . SVG Version: 6.00 Build 0)  -->
<svg version="1.1" id="Layer_1" xmlns="http://www.w3.org/2000/svg" xmlns:xlink="http://www.w3.org/1999/xlink" x="0px" y="0px"
	 viewBox="0 0 960 960" style="enable-background:new 0 0 960 960;" xml:space="preserve">
<style type="text/css">
	.st0{fill:#135468;}
	.st1{fill:#FFFFFF;}
	.st2{fill:#6DBCDB;}
	.st3{fill:#333333;}
	.st4{fill:none;stroke:#FFFFFF;stroke-width:22.1618;stroke-linecap:round;stroke-miterlimit:10;}
</style>
<g>
	<circle class="st0" cx="480" cy="480" r="300.9"/>
	<path class="st1" d="M750.4,480c0,0-121.1,130-270.4,130S209.6,480,209.6,480S330.7,350,480,350S750.4,480,750.4,480z"/>
	<path class="st1" d="M750.4,480c0,0-121.1,130-270.4,130S209.6,480,209.6,480S330.7,350,480,350S750.4,480,750.4,480z"/>
	<circle class="st2" cx="480" cy="478.4" r="102.8"/>
	<circle class="st3" cx="480" cy="478.4" r="58.6"/>
	<circle class="st1" cx="441.2" cy="444.1" r="24.3"/>
	<line class="st4" x1="363.1" y1="323.7" x2="328.1" y2="286.8"/>
	<line class="st4" x1="631.9" y1="286.8" x2="596.9" y2="323.7"/>
	<line class="st4" x1="482.7" y1="300.9" x2="482.7" y2="256.8"/>
</g>
</svg>
