<svg xmlns="http://www.w3.org/2000/svg" xml:space="preserve" width="208" height="256"><path d="M2 35v186c0 17.87 14.416 32.192 32.084 32.899V254H205.82v-9.288c-13.226 0-23.928-10.702-23.928-23.928s10.702-23.928 23.928-23.928V2H35.8C17.526 2 2 16.726 2 35m170.603 185.683c0 9.389 4.038 17.87 10.298 23.928H35.397c-13.226.101-24.029-10.702-24.029-23.928 0-12.519 9.793-22.817 22.111-23.726l149.726-.303c-6.462 6.058-10.602 14.538-10.602 24.029M66.011 84.012h10.127V65.997c0-17.589 14.391-31.98 31.98-31.98s31.98 14.391 31.98 31.98v18.015h8.954v76.644H66.011zm48.502 42.426 2.558 15.03H97.884l2.558-15.03c-3.518-2.239-5.756-6.076-5.756-10.553 0-7.036 5.756-12.792 12.792-12.792s12.792 5.756 12.792 12.792c0 4.477-2.239 8.315-5.757 10.553m12.899-60.441v18.015H89.036V65.997c0-10.553 8.634-19.188 19.188-19.188s19.188 8.635 19.188 19.188"/></svg>