<svg xmlns="http://www.w3.org/2000/svg" width="228" height="142"><g fill="none" fill-rule="evenodd"><path fill="#FFF" d="M0 0h228v142H0z"/><path fill="#FFF" d="M0 0h228v142H0z"/><g transform="translate(23 36)"><path fill="#50A7FD" d="M133 36.557h21a2 2 0 0 1 2 2v6h-25v-6a2 2 0 0 1 2-2"/><path stroke="#06274F" stroke-width="1.2" d="M134 58.057c-18.384 0-25-8.955-25-20s6.212-20 25-20"/><g fill="#D5D9EC" stroke="#ADB2C9" transform="matrix(-1 0 0 1 158 11.057)"><rect width="26" height="13" x=".5" y=".5" rx="2"/><rect width="26" height="13" x=".5" y="39.5" rx="2"/></g><g stroke="#06274F" stroke-width="1.2"><path d="M50 58.057c18.384 0 25-8.955 25-20s-6.212-20-25-20M82.75 38.057h-30.5"/></g><g fill="#D5D9EC" stroke="#ADB2C9" transform="translate(26 11.057)"><rect width="26" height="13" x=".5" y=".5" rx="2"/><rect width="26" height="13" x=".5" y="20.5" rx="2"/><rect width="26" height="13" x=".5" y="39.5" rx="2"/></g><path stroke="#06274F" d="M52.64 6.972Q70.526-.988 92.5.14T129 9.75"/><path fill="#06274F" d="m125.577 10.495 2.51-4.417 2.55 4.417z"/><g transform="translate(0 10.675)"><g stroke="#06274F"><path d="M24.016 0q-4.133 2.638-4.133 16.762c0 14.124 1.938 17.326 4.133 18.238M16.883 17.5h2.788"/></g><rect width="15" height="9" y="12.882" fill="#50A7FD" rx="1"/></g><rect width="47" height="19" x="68.5" y="28.557" fill="#50A7FD" stroke="#1975CD" rx="2"/><g transform="translate(158 48.057)"><path stroke="#06274F" d="M7.14 3.558H4.803a2 2 0 0 0-2 2v7.734a2 2 0 0 0 2 2H7.14"/><rect width="13" height="6" x="6.921" y=".5" fill="#D5D9EC" stroke="#ADB2C9" rx="1"/><rect width="13" height="6" x="6.921" y="12" fill="#D5D9EC" stroke="#ADB2C9" rx="1"/><path stroke="#06274F" d="M2.804 9.425H0"/></g><path stroke="#06274F" stroke-dasharray="3" stroke-linecap="round" d="M131.5 44.557h47a4 4 0 0 1 4 4v17a4 4 0 0 1-4 4h-47a4 4 0 0 1-4-4v-17a4 4 0 0 1 4-4Z"/></g></g></svg>