<?xml version="1.0" encoding="iso-8859-1"?>
<!-- Generator: Adobe Illustrator 19.0.0, SVG Export Plug-In . SVG Version: 6.00 Build 0)  -->
<svg version="1.1" id="Layer_1" xmlns="http://www.w3.org/2000/svg" xmlns:xlink="http://www.w3.org/1999/xlink" x="0px" y="0px"
	 viewBox="0 0 503.284 503.284" style="enable-background:new 0 0 503.284 503.284;" xml:space="preserve">
<g>
	<path style="fill:#005ECE;" d="M325.784,74.142c-33.67,0-66.443,9.476-94.775,27.403c-27.546,17.429-49.763,42.048-64.25,71.196
		l35.82,17.803c23.422-47.126,70.632-76.401,123.205-76.401c75.817,0,137.5,61.682,137.5,137.5s-61.683,137.5-137.5,137.5
		c-52.573,0-99.783-29.275-123.205-76.401l-35.82,17.803c14.487,29.147,36.704,53.767,64.25,71.196
		c28.332,17.927,61.105,27.403,94.775,27.403c97.874,0,177.5-79.626,177.5-177.5S423.658,74.142,325.784,74.142z"/>
	<polygon style="fill:#2488FF;" points="325.784,271.642 325.784,231.642 76.569,231.642 102.427,205.784 74.142,177.5 0,251.643 
		74.143,325.784 102.426,297.5 76.568,271.642 	"/>
</g>
<g>
</g>
<g>
</g>
<g>
</g>
<g>
</g>
<g>
</g>
<g>
</g>
<g>
</g>
<g>
</g>
<g>
</g>
<g>
</g>
<g>
</g>
<g>
</g>
<g>
</g>
<g>
</g>
<g>
</g>
</svg>
