<?xml version="1.0" encoding="iso-8859-1"?>
<!-- Generator: Adobe Illustrator 19.0.0, SVG Export Plug-In . SVG Version: 6.00 Build 0)  -->
<svg version="1.1" id="Layer_1" xmlns="http://www.w3.org/2000/svg" xmlns:xlink="http://www.w3.org/1999/xlink" x="0px" y="0px"
	 viewBox="0 0 505 505" style="enable-background:new 0 0 505 505;" xml:space="preserve">
<circle style="fill:#324A5E;" cx="252.5" cy="252.5" r="252.5"/>
<rect x="76.6" y="156.7" style="fill:#FFFFFF;" width="351.9" height="192.3"/>
<rect x="87.8" y="169.4" style="fill:#4CDBC4;" width="329.4" height="166.8"/>
<path style="fill:#FFFFFF;" d="M102.4,314.9V190.7c3.7,0,6.7-3,6.7-6.7H396c0,3.7,3,6.7,6.7,6.7V315c-3.7,0-6.7,3-6.7,6.7H109.1
	C109.1,317.9,106.1,314.9,102.4,314.9z"/>
<g>
	<ellipse style="fill:#4CDBC4;" cx="252.5" cy="252.8" rx="48.7" ry="59.4"/>
	<circle style="fill:#4CDBC4;" cx="339.6" cy="252.8" r="22.7"/>
	<circle style="fill:#4CDBC4;" cx="165.4" cy="252.8" r="22.7"/>
</g>
<path style="fill:#FFFFFF;" d="M250.4,291.5v-6.8c-8.5-0.9-16.2-4.3-22.9-10.2l6.8-8.1c5.2,4.5,10.6,7.2,16.1,8.1v-18.1
	c-7-1.7-12.2-3.9-15.4-6.6c-3.3-2.7-4.9-6.8-4.9-12.2s1.9-9.8,5.6-13.2c3.8-3.4,8.7-5.3,14.7-5.6v-4.7h6v4.8
	c6.8,0.5,13.3,2.8,19.4,7l-6.1,8.6c-4.1-2.9-8.6-4.7-13.3-5.4v17.5h0.3c7.2,1.7,12.4,4,15.8,6.8c3.4,2.9,5,7,5,12.5
	c0,5.4-1.9,9.9-5.8,13.3s-9,5.3-15.3,5.6v6.7H250.4z M243.9,231.3c-1.6,1.4-2.4,3.1-2.4,5.2c0,2.1,0.6,3.7,1.9,4.9
	c1.2,1.2,3.6,2.4,7.1,3.5v-16.1C247.7,229,245.5,229.9,243.9,231.3z M263.5,272.2c1.7-1.4,2.6-3.2,2.6-5.4c0-2.2-0.7-3.9-2.1-5.2
	c-1.4-1.3-3.9-2.5-7.6-3.6v16.8C259.4,274.5,261.8,273.6,263.5,272.2z"/>
<rect x="168.1" y="156.7" style="fill:#E6E9EE;" width="71.3" height="192.3"/>
<rect x="175" y="156.7" style="fill:#CED5E0;" width="57.6" height="192.3"/>
<rect x="181.8" y="156.7" style="fill:#E6E9EE;" width="43.9" height="192.3"/>
<path style="fill:#F9B54C;" d="M396.2,361c-11.5-5.1-30.5-8.4-52.1-8.4s-40.6,3.3-52.1,8.4h-11.4v11.2c0,10.9,28.4,19.6,63.5,19.6
	s63.5-8.8,63.5-19.6V361H396.2z"/>
<ellipse style="fill:#FFD05B;" cx="344.1" cy="361" rx="63.5" ry="19.6"/>
<path style="fill:#FFFFFF;" d="M383.2,359.1h-6.9c0.5,2.6-1.9,5.2-7.5,7.7l-9.8-2.5c4.4-1.8,6.7-3.5,7-5.2h-18.3
	c-1.6,2.2-3.9,3.8-6.9,5c-3.1,1.2-7.7,1.7-13.8,1.7c-6,0-10.7-0.7-13.9-2c-3-1.3-4.1-2.9-3.4-4.7H305l1.1-1.7h4.7
	c1.5-1.9,4.6-3.5,9.1-5l7.3,1.5c-3.1,1-5.2,2.2-6.4,3.5H338v-0.1c1.8-1.9,4-3.3,6.6-4.1c2.6-0.8,6.2-1.2,11.1-1.2s9,0.4,12.5,1.4
	c3.6,1,6,2.3,7.3,4h6.6L383.2,359.1z M321.6,361.1c1.3,0.5,3,0.8,5.2,0.8s4-0.2,5.3-0.6s2.7-1.1,4-2.2h-16.3
	C319.8,359.9,320.4,360.6,321.6,361.1z M362.5,355.4c-1.5-0.5-3.3-0.7-5.3-0.7s-3.6,0.2-4.8,0.5c-1.2,0.4-2.2,1-3.2,2.1h16.5
	C365.1,356.5,364,355.9,362.5,355.4z"/>
<path style="fill:#F9B54C;" d="M381.2,343.2c-11.5-5.1-30.5-8.4-52.1-8.4s-40.6,3.3-52.1,8.4h-11.4v11.2c0,10.9,28.4,19.6,63.5,19.6
	s63.5-8.8,63.5-19.6v-11.2H381.2z"/>
<ellipse style="fill:#FFD05B;" cx="329.2" cy="343.2" rx="63.5" ry="19.6"/>
<path style="fill:#FFFFFF;" d="M368.2,341.2h-6.9c0.5,2.6-1.9,5.2-7.5,7.7l-9.8-2.5c4.4-1.8,6.7-3.5,7-5.2h-18.3
	c-1.6,2.2-3.9,3.8-6.9,5c-3.1,1.2-7.7,1.7-13.8,1.7c-6,0-10.7-0.7-13.9-2c-3-1.3-4.1-2.9-3.4-4.7H290l1.1-1.7h4.7
	c1.5-1.9,4.6-3.5,9.1-5l7.3,1.5c-3.1,1-5.2,2.2-6.4,3.5H323v-0.1c1.8-1.9,4-3.3,6.6-4.1c2.6-0.8,6.2-1.2,11.1-1.2s9,0.4,12.5,1.4
	c3.6,1,6,2.3,7.3,4h6.6L368.2,341.2z M306.7,343.3c1.3,0.5,3,0.8,5.2,0.8s4-0.2,5.3-0.6s2.7-1.1,4-2.2h-16.3
	C304.8,342.1,305.4,342.8,306.7,343.3z M347.5,337.6c-1.5-0.5-3.3-0.7-5.3-0.7s-3.6,0.2-4.8,0.5c-1.2,0.4-2.2,1-3.2,2.1h16.5
	C350.1,338.7,349.1,338.1,347.5,337.6z"/>
<path style="fill:#F9B54C;" d="M403.8,328.6c-11.5-5.1-30.5-8.4-52.1-8.4s-40.6,3.3-52.1,8.4h-11.4v11.2c0,10.9,28.4,19.6,63.5,19.6
	s63.5-8.8,63.5-19.6v-11.2H403.8z"/>
<ellipse style="fill:#FFD05B;" cx="351.8" cy="328.6" rx="63.5" ry="19.6"/>
<path style="fill:#FFFFFF;" d="M390.9,326.6H384c0.5,2.6-1.9,5.2-7.5,7.7l-9.8-2.5c4.4-1.8,6.7-3.5,7-5.2h-18.3
	c-1.6,2.2-3.9,3.8-6.9,5c-3.1,1.2-7.7,1.7-13.8,1.7c-6,0-10.7-0.7-13.9-2c-3-1.3-4.1-2.9-3.4-4.7h-4.7l1.1-1.7h4.7
	c1.5-1.9,4.6-3.5,9.1-5l7.3,1.5c-3.1,1-5.2,2.2-6.4,3.5h17.2v-0.1c1.8-1.9,4-3.3,6.6-4.1c2.6-0.8,6.2-1.2,11.1-1.2s9,0.4,12.5,1.4
	c3.6,1,6,2.3,7.3,4h6.6L390.9,326.6z M329.3,328.6c1.3,0.5,3,0.8,5.2,0.8s4-0.2,5.3-0.6s2.7-1.1,4-2.2h-16.3
	C327.5,327.5,328,328.1,329.3,328.6z M370.2,323c-1.5-0.5-3.3-0.7-5.3-0.7s-3.6,0.2-4.8,0.5c-1.2,0.4-2.2,1-3.2,2.1h16.5
	C372.7,324.1,371.7,323.4,370.2,323z"/>
<path style="fill:#F9B54C;" d="M379.4,316c-11.5-5.1-30.5-8.4-52.1-8.4s-40.6,3.3-52.1,8.4h-11.4v11.2c0,10.9,28.4,19.6,63.5,19.6
	s63.5-8.8,63.5-19.6V316H379.4z"/>
<ellipse style="fill:#FFD05B;" cx="327.4" cy="316" rx="63.5" ry="19.6"/>
<path style="fill:#FFFFFF;" d="M366.5,314.1h-6.9c0.5,2.6-1.9,5.2-7.5,7.7l-9.8-2.5c4.4-1.8,6.7-3.5,7-5.2H331
	c-1.6,2.2-3.9,3.8-6.9,5c-3.1,1.2-7.7,1.7-13.8,1.7c-6,0-10.7-0.7-13.9-2c-3-1.3-4.1-2.9-3.4-4.7h-4.7l1.1-1.7h4.7
	c1.5-1.9,4.6-3.5,9.1-5l7.3,1.5c-3.1,1-5.2,2.2-6.4,3.5h17.2v-0.1c1.8-1.9,4-3.3,6.6-4.1c2.6-0.8,6.2-1.2,11.1-1.2s9,0.4,12.5,1.4
	c3.6,1,6,2.3,7.3,4h6.6L366.5,314.1z M304.9,316.1c1.3,0.5,3,0.8,5.2,0.8s4-0.2,5.3-0.6s2.7-1.1,4-2.2h-16.3
	C303.1,314.9,303.6,315.6,304.9,316.1z M345.8,310.4c-1.5-0.5-3.3-0.7-5.3-0.7s-3.6,0.2-4.8,0.5c-1.2,0.4-2.2,1-3.2,2.1H349
	C348.3,311.5,347.3,310.9,345.8,310.4z"/>
<path style="fill:#F9B54C;" d="M402.3,303.3c-11.5-5.1-30.5-8.4-52.1-8.4s-40.6,3.3-52.1,8.4h-11.4v11.2c0,10.9,28.4,19.6,63.5,19.6
	s63.5-8.8,63.5-19.6v-11.2H402.3z"/>
<ellipse style="fill:#FFD05B;" cx="350.3" cy="303.3" rx="63.5" ry="19.6"/>
<path style="fill:#FFFFFF;" d="M389.4,301.4h-6.9c0.5,2.6-1.9,5.2-7.5,7.7l-9.8-2.5c4.4-1.8,6.7-3.5,7-5.2h-18.3
	c-1.6,2.2-3.9,3.8-6.9,5c-3.1,1.2-7.7,1.7-13.8,1.7c-6,0-10.7-0.7-13.9-2c-3-1.3-4.1-2.9-3.4-4.7h-4.7l1.1-1.7h4.7
	c1.5-1.9,4.6-3.5,9.1-5l7.3,1.5c-3.1,1-5.2,2.2-6.4,3.5h17.2v-0.1c1.8-1.9,4-3.3,6.6-4.1c2.6-0.8,6.2-1.2,11.1-1.2
	c4.8,0,9,0.4,12.5,1.4c3.6,1,6,2.3,7.3,4h6.6L389.4,301.4z M327.8,303.4c1.3,0.5,3,0.8,5.2,0.8s4-0.2,5.3-0.6s2.7-1.1,4-2.2H326
	C326,302.2,326.5,302.9,327.8,303.4z M368.7,297.7c-1.5-0.5-3.3-0.7-5.3-0.7s-3.6,0.2-4.8,0.5c-1.2,0.4-2.2,1-3.2,2.1h16.5
	C371.2,298.8,370.2,298.2,368.7,297.7z"/>
<g>
</g>
<g>
</g>
<g>
</g>
<g>
</g>
<g>
</g>
<g>
</g>
<g>
</g>
<g>
</g>
<g>
</g>
<g>
</g>
<g>
</g>
<g>
</g>
<g>
</g>
<g>
</g>
<g>
</g>
</svg>
