<?xml version="1.0" encoding="UTF-8" standalone="no"?>
<svg
   xmlns:dc="http://purl.org/dc/elements/1.1/"
   xmlns:cc="http://creativecommons.org/ns#"
   xmlns:rdf="http://www.w3.org/1999/02/22-rdf-syntax-ns#"
   xmlns:svg="http://www.w3.org/2000/svg"
   xmlns="http://www.w3.org/2000/svg"
   xmlns:sodipodi="http://sodipodi.sourceforge.net/DTD/sodipodi-0.dtd"
   xmlns:inkscape="http://www.inkscape.org/namespaces/inkscape"
   version="1.1"
   id="Layer_1"
   x="0px"
   y="0px"
   viewBox="0 0 330 330"
   style="enable-background:new 0 0 330 330;"
   xml:space="preserve"
   sodipodi:docname="move-vert.svg"
   inkscape:version="1.0.1 (3bc2e813f5, 2020-09-07)"><metadata
   id="metadata38"><rdf:RDF><cc:Work
       rdf:about=""><dc:format>image/svg+xml</dc:format><dc:type
         rdf:resource="http://purl.org/dc/dcmitype/StillImage" /></cc:Work></rdf:RDF></metadata><defs
   id="defs36" /><sodipodi:namedview
   pagecolor="#ffffff"
   bordercolor="#666666"
   borderopacity="1"
   objecttolerance="10"
   gridtolerance="10"
   guidetolerance="10"
   inkscape:pageopacity="0"
   inkscape:pageshadow="2"
   inkscape:window-width="1920"
   inkscape:window-height="986"
   id="namedview34"
   showgrid="false"
   inkscape:zoom="2.2272727"
   inkscape:cx="165"
   inkscape:cy="218.42857"
   inkscape:window-x="-11"
   inkscape:window-y="-11"
   inkscape:window-maximized="1"
   inkscape:current-layer="Layer_1" />
<path
   id="XMLID_71_"
   d="m 180,67.5 h 22.5 c 6.067,0 11.536,-3.655 13.858,-9.26 2.321,-5.605 1.038,-12.057 -3.252,-16.347 l -37.5,-37.5 c -5.857,-5.858 -15.355,-5.858 -21.213,0 l -37.5,37.5 c -4.29,4.29 -5.573,10.742 -3.252,16.347 2.322,5.605 7.792,9.26 13.858,9.26 H 150 v 195 h -22.5 c -6.067,0 -11.537,3.655 -13.858,9.26 -2.321,5.605 -1.038,12.057 3.252,16.347 l 37.5,37.5 c 2.928,2.929 6.767,4.393 10.606,4.393 3.839,0 7.678,-1.464 10.606,-4.394 l 37.5,-37.5 c 4.29,-4.29 5.573,-10.742 3.252,-16.347 -2.322,-5.605 -7.791,-9.26 -13.858,-9.26 H 180 c 0,0 0,1.8508 0,-194.999 z"
   sodipodi:nodetypes="cscscsscsccssscscscscc" />
<g
   id="g3">
</g>
<g
   id="g5">
</g>
<g
   id="g7">
</g>
<g
   id="g9">
</g>
<g
   id="g11">
</g>
<g
   id="g13">
</g>
<g
   id="g15">
</g>
<g
   id="g17">
</g>
<g
   id="g19">
</g>
<g
   id="g21">
</g>
<g
   id="g23">
</g>
<g
   id="g25">
</g>
<g
   id="g27">
</g>
<g
   id="g29">
</g>
<g
   id="g31">
</g>
</svg>
