<?xml version="1.0" encoding="UTF-8" standalone="no"?>
<!-- Uploaded to: SVG Repo, www.svgrepo.com, Generator: SVG Repo Mixer Tools -->

<svg
   width="800px"
   height="800px"
   viewBox="0 0 32 32"
   version="1.1"
   id="svg481"
   sodipodi:docname="icon.svg"
   inkscape:version="1.2.2 (732a01da63, 2022-12-09)"
   xmlns:inkscape="http://www.inkscape.org/namespaces/inkscape"
   xmlns:sodipodi="http://sodipodi.sourceforge.net/DTD/sodipodi-0.dtd"
   xmlns="http://www.w3.org/2000/svg"
   xmlns:svg="http://www.w3.org/2000/svg">
  <defs
     id="defs485" />
  <sodipodi:namedview
     id="namedview483"
     pagecolor="#ffffff"
     bordercolor="#000000"
     borderopacity="0.25"
     inkscape:showpageshadow="2"
     inkscape:pageopacity="0.0"
     inkscape:pagecheckerboard="0"
     inkscape:deskcolor="#d1d1d1"
     showgrid="false"
     inkscape:zoom="0.99"
     inkscape:cx="479.29293"
     inkscape:cy="400"
     inkscape:window-width="1920"
     inkscape:window-height="986"
     inkscape:window-x="-11"
     inkscape:window-y="-11"
     inkscape:window-maximized="1"
     inkscape:current-layer="svg481" />
  <rect
     style="fill:#ffffff;stroke:#000000;stroke-width:0.0398359"
     id="rect1695"
     width="22.924"
     height="17.060001"
     x="2.6719999"
     y="5.3379998" />
  <g
     id="icomoon-ignore" />
  <path
     d="M26.662 8.536v-4.265h-25.057v19.192h3.732v4.265h25.057v-19.192h-3.732zM2.672 22.398v-17.060h22.924v3.199h-20.259v13.861h-2.666zM29.328 26.663h-22.924v-17.060h22.924v17.060z"
     fill="#000000"
     id="path479" />
  <rect
     style="fill:#ffffff;stroke:#000000;stroke-width:0.0398359"
     id="rect913"
     width="22.924"
     height="17.059999"
     x="6.4039998"
     y="9.6029997" />
  <g
     id="g708"
     transform="matrix(0.78125013,0,0,0.78125013,0.99927903,6.4671085)">
    <circle
       class="cls-2"
       cx="26.152676"
       cy="13.371253"
       r="0.41384709"
       id="circle602"
       style="fill:#ff0000;stroke-width:0.435629" />
    <path
       class="cls-1"
       d="m 24.84579,12.491283 a 1.8296397,1.8296397 0 0 1 2.587633,0"
       id="path604"
       style="fill:none;stroke:#ff0000;stroke-width:0.83205px;stroke-miterlimit:10" />
    <path
       class="cls-1"
       d="m 23.887407,11.524188 a 3.1975133,3.1975133 0 0 1 4.530536,0"
       id="path606"
       style="fill:none;stroke:#ff0000;stroke-width:0.83205px;stroke-miterlimit:10" />
  </g>
  <g
     id="g7170"
     transform="translate(-0.16161594,-0.04040408)">
    <circle
       class="cls-2"
       cx="24.845201"
       cy="3.8224924"
       r="0.32331809"
       id="circle710"
       style="fill:#000000;stroke-width:0.340335" />
    <path
       class="cls-1"
       d="m 23.824197,3.1350158 a 1.4294063,1.4294063 0 0 1 2.021588,0"
       id="path712"
       style="fill:none;stroke:#000000;stroke-width:0.650039px;stroke-miterlimit:10" />
    <path
       class="cls-1"
       d="m 23.07546,2.3794727 a 2.4980577,2.4980577 0 0 1 3.539482,0"
       id="path714"
       style="fill:none;stroke:#000000;stroke-width:0.650039px;stroke-miterlimit:10" />
  </g>
  <path
     fill="#444"
     d="m 11.777778,15.757576 v 3 h -1.5 v 5 h 7 v -8 z m 4,5.5 h -2.5 v 1 l -1.5,-1.25 1.5,-1.25 v 1 h 2 v -1.5 h 0.5 z"
     id="path1816"
     style="fill:#ff0000;stroke-width:0.5" />
  <g
     id="g7115">
    <path
       d="m 20.034325,18.416527 c 0,-0.140201 -0.114711,-0.254912 -0.254913,-0.254912 h -0.889644 c -0.140202,0 -0.254912,0.114711 -0.254912,0.254912 v 0.889645 c 0,0.140201 0.11471,0.254912 0.254912,0.254912 h 0.889644 c 0.140202,0 0.254913,-0.114711 0.254913,-0.254912 z"
       id="path4421"
       style="stroke-width:0.0127456;fill:#ff0000" />
    <path
       d="m 21.10878,19.55981 h 0.889645 c 0.140202,0 0.254912,-0.114711 0.254912,-0.254913 v -0.88837 c 0,-0.140201 -0.11471,-0.254912 -0.254912,-0.254912 H 21.10878 c -0.140201,0 -0.254912,0.114711 -0.254912,0.254912 v 0.889645 c 0,0.140201 0.114711,0.253638 0.254912,0.253638 z"
       id="path4423"
       style="stroke-width:0.0127456;fill:#ff0000" />
    <path
       d="m 23.327793,19.55981 h 0.889644 c 0.140202,0 0.254913,-0.114711 0.254913,-0.254913 v -0.88837 c 0,-0.140201 -0.114711,-0.254912 -0.254913,-0.254912 h -0.889644 c -0.140202,0 -0.254912,0.114711 -0.254912,0.254912 v 0.889645 c 0,0.140201 0.11471,0.253638 0.254912,0.253638 z"
       id="path4425"
       style="stroke-width:0.0127456;fill:#ff0000" />
    <path
       d="m 20.034325,20.570537 c 0,-0.140202 -0.114711,-0.254912 -0.254913,-0.254912 h -0.889644 c -0.140202,0 -0.254912,0.11471 -0.254912,0.254912 v 0.889644 c 0,0.140202 0.11471,0.254913 0.254912,0.254913 h 0.889644 c 0.140202,0 0.254913,-0.114711 0.254913,-0.254913 z"
       id="path4427"
       style="stroke-width:0.0127456;fill:#ff0000" />
    <path
       d="m 20.853868,21.460181 c 0,0.140202 0.114711,0.254913 0.254912,0.254913 h 0.889645 c 0.140202,0 0.254912,-0.114711 0.254912,-0.254913 v -0.889644 c 0,-0.140202 -0.11471,-0.254912 -0.254912,-0.254912 H 21.10878 c -0.140201,0 -0.254912,0.11471 -0.254912,0.254912 z"
       id="path4429"
       style="stroke-width:0.0127456;fill:#ff0000" />
    <path
       d="m 23.072881,21.460181 c 0,0.140202 0.11471,0.254913 0.254912,0.254913 h 0.313542 c 0,-0.165693 0,-0.331386 0,-0.495805 0,-0.309718 0.05227,-0.678067 0.280404,-0.903664 h -0.593946 c -0.140202,0 -0.254912,0.11471 -0.254912,0.254912 z"
       id="path4431"
       style="stroke-width:0.0127456;fill:#ff0000" />
    <path
       d="m 18.889768,23.870378 h 0.889644 c 0.140202,0 0.254913,-0.11471 0.254913,-0.254912 v -0.889644 c 0,-0.140202 -0.114711,-0.254913 -0.254913,-0.254913 h -0.889644 c -0.140202,0 -0.254912,0.114711 -0.254912,0.254913 v 0.889644 c 0,0.140202 0.11471,0.254912 0.254912,0.254912 z"
       id="path4433"
       style="stroke-width:0.0127456;fill:#ff0000" />
    <path
       d="m 20.853868,23.615466 c 0,0.140202 0.114711,0.254912 0.254912,0.254912 h 0.889645 c 0.140202,0 0.254912,-0.11471 0.254912,-0.254912 v -0.889644 c 0,-0.140202 -0.11471,-0.254913 -0.254912,-0.254913 H 21.10878 c -0.140201,0 -0.254912,0.114711 -0.254912,0.254913 z"
       id="path4435"
       style="stroke-width:0.0127456;fill:#ff0000" />
    <path
       d="m 23.072881,23.615466 c 0,0.140202 0.11471,0.254912 0.254912,0.254912 h 0.312268 v -1.399469 h -0.312268 c -0.140202,0 -0.254912,0.114711 -0.254912,0.254913 z"
       id="path4437"
       style="stroke-width:0.0127456;fill:#ff0000" />
    <path
       d="m 28.563694,28.184771 c 0.154222,-0.258749 0.235794,-0.554435 0.235794,-0.856519 v -2.030364 c 0,-0.24854 -0.159321,-0.469052 -0.396389,-0.545526 -0.707382,-0.230683 -2.134892,-0.6908 -2.352842,-0.734135 -0.06755,-0.01274 -0.133829,-0.01912 -0.197557,-0.01912 -0.172066,0 -0.322464,0.04715 -0.412945,0.127456 h -0.0013 c 0,0 0,0 0,-0.0013 -0.0064,-0.05736 -0.330099,-3.190229 -0.330099,-3.195327 -0.05991,-0.55316 -0.958471,-0.485608 -0.957209,0.06883 l -0.0025,5.153054 c 0,0.06117 -0.04461,0.112149 -0.105789,0.121084 -0.0013,0 -0.0013,0 -0.0025,0 -0.0064,0.0013 -0.01275,0.0013 -0.01912,0.0013 -0.173341,-0.0051 -0.564631,-0.01021 -0.945713,-0.562081 -0.05098,-0.07266 -0.09688,-0.138928 -0.138927,-0.200119 -0.132554,-0.189885 -0.309718,-0.271469 -0.476686,-0.271469 -0.293149,0 -0.556971,0.253637 -0.493243,0.632182 0.09176,0.551898 0.695911,1.837906 1.886352,3.043667 h 4.277405 z"
       id="path4439"
       style="stroke-width:0.0127456;fill:#ff0000" />
    <path
       d="m 23.854187,29.906704 c 0,0.140202 0.114711,0.254912 0.254912,0.254912 h 3.767606 c 0.140202,0 0.254912,-0.11471 0.254912,-0.254912 v -0.583762 h -4.27743 z"
       id="path4441"
       style="stroke-width:0.0127456;fill:#ff0000" />
  </g>
</svg>
