<?xml version="1.0" encoding="UTF-8" standalone="no"?>
<svg
   xmlns:dc="http://purl.org/dc/elements/1.1/"
   xmlns:cc="http://creativecommons.org/ns#"
   xmlns:rdf="http://www.w3.org/1999/02/22-rdf-syntax-ns#"
   xmlns:svg="http://www.w3.org/2000/svg"
   xmlns="http://www.w3.org/2000/svg"
   xmlns:sodipodi="http://sodipodi.sourceforge.net/DTD/sodipodi-0.dtd"
   xmlns:inkscape="http://www.inkscape.org/namespaces/inkscape"
   version="1.1"
   id="Capa_1"
   x="0px"
   y="0px"
   width="1024"
   height="1024"
   viewBox="0 0 1024 1024"
   xml:space="preserve"
   sodipodi:docname="mind-gears-svgrepo-com.svg"
   inkscape:version="1.0.1 (3bc2e813f5, 2020-09-07)"><metadata
   id="metadata49"><rdf:RDF><cc:Work
       rdf:about=""><dc:format>image/svg+xml</dc:format><dc:type
         rdf:resource="http://purl.org/dc/dcmitype/StillImage" /><dc:title></dc:title></cc:Work></rdf:RDF></metadata><defs
   id="defs47">
	

		
		
		
		
	</defs><sodipodi:namedview
   pagecolor="#ffffff"
   bordercolor="#666666"
   borderopacity="1"
   objecttolerance="10"
   gridtolerance="10"
   guidetolerance="10"
   inkscape:pageopacity="0"
   inkscape:pageshadow="2"
   inkscape:window-width="1920"
   inkscape:window-height="986"
   id="namedview45"
   showgrid="false"
   inkscape:zoom="0.70898437"
   inkscape:cx="446.30142"
   inkscape:cy="513.41047"
   inkscape:window-x="-11"
   inkscape:window-y="-11"
   inkscape:window-maximized="1"
   inkscape:current-layer="layer2"
   inkscape:document-rotation="0" />

<g
   id="g14">
</g>
<g
   id="g16">
</g>
<g
   id="g18">
</g>
<g
   id="g20">
</g>
<g
   id="g22">
</g>
<g
   id="g24">
</g>
<g
   id="g26">
</g>
<g
   id="g28">
</g>
<g
   id="g30">
</g>
<g
   id="g32">
</g>
<g
   id="g34">
</g>
<g
   id="g36">
</g>
<g
   id="g38">
</g>
<g
   id="g40">
</g>
<g
   id="g42">
</g>
<g
   inkscape:groupmode="layer"
   id="layer1"
   inkscape:label="Layer 1"
   style="display:inline" /><g
   inkscape:groupmode="layer"
   id="layer2"
   inkscape:label="Layer 2"
   style="display:inline"><path
     d="M 836.59452,151.82186 C 791.52484,95.432775 674.4623,0 521.57467,0 419.35025,0 322.07659,42.737266 232.46185,127.02314 c -0.1536,0.14652 -0.30484,0.29303 -0.45136,0.44427 -87.39103,89.90068 -75.97237,172.94591 -61.50763,278.14079 0.88854,6.47026 1.79125,13.03032 2.68452,19.68963 2.39621,17.8771 -13.25009,45.45487 -28.3836,72.12755 -22.74043,40.07402 -46.251242,81.51392 -17.52736,101.08775 49.08465,33.45252 57.61319,99.2965 65.86762,163.00421 1.9614,15.12878 3.98897,30.77272 6.52225,45.98185 4.37179,26.24023 26.51199,38.99406 67.68486,38.99406 18.30719,0 37.8574,-2.26152 56.779,-4.44741 16.21346,-1.87161 31.52893,-3.64396 43.78886,-3.64396 6.85309,0 12.20795,0.54589 16.3647,1.6731 49.46747,13.40606 92.68209,113.42804 108.30476,173.32402 1.26664,4.8633 5.01221,8.6892 9.84482,10.0599 1.27845,0.3639 2.58054,0.5411 3.87317,0.5411 3.59669,0 7.11776,-1.3706 9.79046,-3.9228 L 769.63986,778.1089 c 3.92516,-3.74793 5.36667,-9.40291 3.71721,-14.5758 -22.38833,-70.04091 24.13468,-138.39927 65.19176,-198.73952 17.91491,-26.32766 34.83494,-51.19019 46.40721,-75.68407 53.37845,-112.97667 14.92555,-258.10141 -48.36152,-337.28765 z"
     id="path8"
     sodipodi:nodetypes="csccccccccscscccscccccc"
     style="stroke-width:1" /><g
     id="g4"
     transform="matrix(1.6900028,0,0,1.6900028,351.95631,113.65825)"
     style="fill:#ffffff;stroke-width:0.591715"><path
       d="m 257.981,210.805 c -0.535,0 -1.065,0.023 -1.592,0.058 -0.369,0.024 -0.737,0.054 -1.101,0.095 l -30.401,-57.075 c 3.601,-4.246 5.779,-9.735 5.779,-15.725 0,-6.7 -2.721,-12.776 -7.114,-17.183 l 21.395,-49.463 c 0.24,0.007 0.478,0.018 0.719,0.018 0.535,0 1.065,-0.023 1.591,-0.058 12.688,-0.823 22.761,-11.402 22.761,-24.295 0,-13.428 -10.925,-24.353 -24.353,-24.353 -13.428,0 -24.353,10.925 -24.353,24.353 0,6.7 2.721,12.776 7.114,17.183 l -18.242,42.175 C 199.362,74.157 172.395,49.109 138.885,40.987 136.139,30.548 126.621,22.825 115.332,22.825 104.043,22.825 94.525,30.548 91.779,40.987 55.534,49.773 26.946,78.36 18.16,114.605 7.723,117.351 0,126.868 0,138.157 c 0,11.289 7.723,20.807 18.162,23.553 8.786,36.245 37.374,64.833 73.619,73.619 2.746,10.439 12.264,18.162 23.553,18.162 11.289,0 20.807,-7.723 23.553,-18.162 34.632,-8.395 62.272,-34.868 72.329,-68.826 l 28.193,52.929 c -3.601,4.246 -5.779,9.735 -5.779,15.725 0,13.428 10.925,24.353 24.353,24.353 13.428,0 24.353,-10.925 24.353,-24.353 0,-13.428 -10.927,-24.352 -24.355,-24.352 z m 6.353,24.352 c 0,3.503 -2.85,6.353 -6.353,6.353 -3.503,0 -6.353,-2.85 -6.353,-6.353 0,-3.503 2.85,-6.353 6.353,-6.353 3.503,0 6.353,2.85 6.353,6.353 z m -142.647,-6.018 c 0,3.503 -2.85,6.353 -6.353,6.353 -3.503,0 -6.353,-2.85 -6.353,-6.353 0,-3.503 2.85,-6.353 6.353,-6.353 3.503,0 6.353,2.85 6.353,6.353 z m 14.929,-11.819 c -4.164,-7.469 -12.141,-12.534 -21.282,-12.534 -9.141,0 -17.118,5.065 -21.282,12.534 -28.126,-7.569 -50.312,-29.754 -57.881,-57.881 7.469,-4.164 12.534,-12.141 12.534,-21.282 0,-9.141 -5.065,-17.118 -12.534,-21.282 7.569,-28.126 29.754,-50.311 57.881,-57.88 4.164,7.469 12.141,12.534 21.282,12.534 9.141,0 17.118,-5.065 21.282,-12.534 28.125,7.569 50.311,29.754 57.88,57.88 -7.469,4.164 -12.534,12.141 -12.534,21.282 0,9.141 5.065,17.118 12.534,21.282 -7.569,28.127 -29.754,50.312 -57.88,57.881 z M 24.353,131.805 c 3.503,0 6.353,2.85 6.353,6.353 0,3.503 -2.85,6.353 -6.353,6.353 -3.503,0 -6.353,-2.851 -6.353,-6.354 0,-3.503 2.85,-6.352 6.353,-6.352 z m 84.628,-84.628 c 0,-3.503 2.85,-6.353 6.353,-6.353 3.503,0 6.353,2.85 6.353,6.353 0,3.503 -2.85,6.353 -6.353,6.353 -3.503,0 -6.353,-2.85 -6.353,-6.353 z m 97.333,97.333 c -3.503,0 -6.353,-2.85 -6.353,-6.353 0,-3.503 2.85,-6.353 6.353,-6.353 3.503,0 6.353,2.85 6.353,6.353 0,3.503 -2.85,6.353 -6.353,6.353 z M 252.02,47.177 c 0,3.503 -2.85,6.353 -6.353,6.353 -3.503,0 -6.353,-2.85 -6.353,-6.353 0,-3.503 2.85,-6.353 6.353,-6.353 3.503,0 6.353,2.85 6.353,6.353 z"
       id="path2"
       style="fill:#ffffff;stroke-width:0.591715" /></g><g
     id="ðŸ”-Product-Icons"
     stroke="none"
     stroke-width="0.1"
     fill="none"
     fill-rule="evenodd"
     transform="matrix(10.000002,0,0,10.000002,426.99175,228.45183)"
     style="fill:#ffffff"><g
       id="ic_fluent_code_24_filled"
       fill="#212121"
       fill-rule="nonzero"
       style="fill:#ffffff;stroke-width:0.01"><path
         d="M 8.0855272,18.610924 14.081672,4.606402 c 0.217378,-0.5077058 0.805175,-0.7430628 1.312881,-0.5256847 0.471441,0.2018512 0.70805,0.7230938 0.565401,1.2030249 L 15.920237,5.393598 9.9240925,19.39812 C 9.7067143,19.905826 9.1189176,20.141183 8.6112118,19.923805 8.1397707,19.721954 7.903161,19.200711 8.04581,18.72078 L 8.0855272,18.610924 14.081672,4.606402 Z m -5.792634,-7.318031 4,-3.9999998 c 0.3905243,-0.3905243 1.0236893,-0.3905243 1.4142136,0 0.3604839,0.360484 0.3882135,0.927715 0.083189,1.3200062 L 7.7071068,8.7071068 4.4142136,12 7.7071068,15.292893 c 0.3905243,0.390524 0.3905243,1.023689 0,1.414214 -0.360484,0.360484 -0.927715,0.388213 -1.3200062,0.08319 l -0.094207,-0.08319 -4,-4 C 1.9324093,12.346623 1.9046797,11.779392 2.2097046,11.387101 l 0.083189,-0.09421 4,-3.9999998 z M 16.292086,7.2916554 c 0.360501,-0.3604675 0.927733,-0.388171 1.32001,-0.083128 l 0.0942,0.083193 4.000839,4.0012056 c 0.360625,0.360658 0.388174,0.928189 0.08278,1.320456 l -0.08328,0.09419 -4.000839,3.995529 c -0.390784,0.390265 -1.023949,0.389845 -1.414213,-9.39e-4 -0.360245,-0.360723 -0.387598,-0.927972 -0.08231,-1.320061 l 0.08325,-0.09415 3.292825,-3.288455 -3.293327,-3.2936287 c -0.390507,-0.3905422 -0.390478,-1.0237072 6.4e-5,-1.4142136 z"
         id="ðŸŽ¨-Color"
         style="fill:#ffffff;stroke-width:0.1" /></g></g></g></svg>
