<svg xmlns="http://www.w3.org/2000/svg" xml:space="preserve" id="Layer_1" x="0" y="0" version="1.1" viewBox="0 0 540.8 388"><style>.st1{fill:#02253f}.st2{fill:#fff}</style><path d="M37.7-38.7h465.5v465.5H37.7z" style="fill:none"/><g id="Group_804" transform="translate(-994.32 -808.724)"><g id="Group_793" transform="translate(994.32 916.293)"><g id="Group_791" transform="translate(447.073)"><path id="Path_1504" d="m17.9 133.2-21.2-18.5 22.1-25.4-22.1-25.5 21.2-18.5 38.1 44z" class="st1"/></g><g id="Group_792" transform="translate(0 33.588)"><path id="Rectangle_498" d="M37.7 42.5h446.9v26.8H37.7z" class="st1"/></g></g><g id="Group_794" transform="translate(1104.899 1076.985)"><circle id="Ellipse_211" cx="47.3" cy="50.5" r="19.8" class="st2"/></g><g id="Group_795" transform="translate(1273.521 1076.985)"><circle id="Ellipse_212" cx="31.8" cy="50.5" r="19.8" class="st2"/></g><g id="Group_796" transform="translate(1020.588 808.724)"><circle id="Ellipse_213" cx="55" cy="75.1" r="19.8" class="st2"/></g><g id="Group_797" transform="translate(1189.21 808.724)"><circle id="Ellipse_214" cx="39.5" cy="75.1" r="19.8" class="st2"/></g><g id="Group_798" transform="translate(1357.832 808.724)"><circle id="Ellipse_215" cx="24.1" cy="75.1" r="19.8" style="fill:#fc460a"/></g><g id="Group_799" transform="translate(1364.859 875.39)"><path id="Rectangle_499" d="M3.7 49.3h26.8v81H3.7z" class="st1"/></g><g id="Group_800" transform="translate(1027.617 875.39)"><path id="Rectangle_500" d="M34.6 49.3h26.8v81H34.6z" class="st1"/></g><g id="Group_801" transform="translate(1111.928 964.584)"><path id="Rectangle_501" d="M26.8 41.1h26.8v81H26.8z" class="st1"/></g><g id="Group_802" transform="translate(1196.238 875.39)"><path id="Rectangle_502" d="M19.2 49.3H46v81H19.2z" class="st1"/></g><g id="Group_803" transform="translate(1280.549 964.584)"><path id="Rectangle_503" d="M11.4 41.1h26.8v81H11.4z" class="st1"/></g></g></svg>