<svg xmlns="http://www.w3.org/2000/svg" xml:space="preserve" id="Layer_1" x="0" y="0" version="1.1" viewBox="0 0 960 960"><style>.st1{fill:#fff}.st4{fill:none;stroke:#fff;stroke-width:22.1618;stroke-linecap:round;stroke-miterlimit:10}</style><circle cx="480" cy="480" r="300.9" style="fill:#135468"/><path d="M750.4 480S629.3 610 480 610 209.6 480 209.6 480 330.7 350 480 350s270.4 130 270.4 130" class="st1"/><path d="M750.4 480S629.3 610 480 610 209.6 480 209.6 480 330.7 350 480 350s270.4 130 270.4 130" class="st1"/><circle cx="480" cy="478.4" r="102.8" style="fill:#6dbcdb"/><circle cx="480" cy="478.4" r="58.6" style="fill:#333"/><circle cx="441.2" cy="444.1" r="24.3" class="st1"/><path d="m363.1 323.7-35-36.9M631.9 286.8l-35 36.9M482.7 300.9v-44.1" class="st4"/></svg>