<?xml version="1.0" encoding="UTF-8" standalone="no"?>
<svg
   width="991px"
   height="898px"
   viewBox="0 0 991 898"
   version="1.1"
   id="svg109"
   sodipodi:docname="logo.svg"
   inkscape:version="1.1.1 (3bf5ae0d25, 2021-09-20)"
   xmlns:inkscape="http://www.inkscape.org/namespaces/inkscape"
   xmlns:sodipodi="http://sodipodi.sourceforge.net/DTD/sodipodi-0.dtd"
   xmlns="http://www.w3.org/2000/svg"
   xmlns:svg="http://www.w3.org/2000/svg">
  <defs
     id="defs113" />
  <sodipodi:namedview
     id="namedview111"
     pagecolor="#ffffff"
     bordercolor="#999999"
     borderopacity="1"
     inkscape:pageshadow="0"
     inkscape:pageopacity="0"
     inkscape:pagecheckerboard="0"
     showgrid="false"
     inkscape:snap-global="false"
     inkscape:zoom="0.8752784"
     inkscape:cx="495.27099"
     inkscape:cy="449"
     inkscape:window-width="1920"
     inkscape:window-height="986"
     inkscape:window-x="-11"
     inkscape:window-y="-11"
     inkscape:window-maximized="1"
     inkscape:current-layer="svg109" />
  <!-- Generator: Sketch 54.1 (76490) - https://sketchapp.com -->
  <title
     id="title2">Group 21</title>
  <desc
     id="desc4">Created with Sketch.</desc>
  <g
     id="Page-1"
     stroke="none"
     stroke-width="1"
     fill="none"
     fill-rule="evenodd">
    <g
       id="Group-21">
      <g
         id="graph-copy-9"
         opacity="0.350818452">
        <polygon
           id="Path-726-Copy-71"
           fill="#4A90E2"
           fill-rule="nonzero"
           points="530.41311 457.541702 522.146048 223 510.154122 223.458298 518.421184 458" />
        <polygon
           id="Path-726-Copy-72"
           fill="#4A90E2"
           fill-rule="nonzero"
           points="494.154122 40.1005981 510.125728 224 522.154122 222.899402 506.182516 39" />
        <polygon
           id="Path-726-Copy-73"
           fill="#4A90E2"
           fill-rule="nonzero"
           points="657.89702 127 513.154122 217.343577 519.411224 228 664.154122 137.656423" />
        <polygon
           id="Path-726-Copy-74"
           fill="#4A90E2"
           fill-rule="nonzero"
           points="658.154122 137.857434 785.198024 212 791.154122 201.142566 664.11022 127" />
        <polygon
           id="Path-726-Copy-75"
           fill="#4A90E2"
           fill-rule="nonzero"
           points="663.408416 139 818.154122 78.7509833 813.899828 67 659.154122 127.249017" />
        <polygon
           id="Path-726-Copy-76"
           fill="#FA781A"
           fill-rule="nonzero"
           points="529.153213 462 718.154122 349.805562 712.155031 339 523.154122 451.194438" />
        <polygon
           id="Path-726-Copy-77"
           fill="#FA781A"
           fill-rule="nonzero"
           points="787.89047 208 709.154122 340.481017 719.417774 347 798.154122 214.518983" />
        <polygon
           id="Path-726-Copy-78"
           fill="#FA781A"
           fill-rule="nonzero"
           points="861.154122 376.962003 717.160965 339 714.154122 351.037997 858.147278 389" />
        <polygon
           id="Path-726-Copy-79"
           fill="#4A90E2"
           fill-rule="nonzero"
           points="853.154122 385.467007 943.350099 575 954.154122 569.532993 863.958144 380" />
        <polygon
           id="Path-726-Copy-80"
           fill="#FA781A"
           fill-rule="nonzero"
           points="521.154122 228.720488 711.932721 349 718.154122 338.279512 527.375523 218" />
        <polygon
           id="Path-726-Copy-81"
           fill="#4A90E2"
           fill-rule="nonzero"
           points="526.154122 220.030619 355.369979 90 348.154122 99.9693806 518.938265 230" />
        <polygon
           id="Path-726-Copy-82"
           fill="#4A90E2"
           fill-rule="nonzero"
           points="304.408236 248 357.154122 96.2163473 345.900008 92 293.154122 243.783653" />
        <polygon
           id="Path-726-Copy-83"
           fill="#4A90E2"
           fill-rule="nonzero"
           points="303.154122 243.018373 202.389787 118 193.154122 125.981627 293.918456 251" />
        <polygon
           id="Path-726-Copy-84"
           fill="#4A90E2"
           fill-rule="nonzero"
           points="156.760038 281 301.154122 248.225709 298.548206 236 154.154122 268.774291" />
        <polygon
           id="Path-726-Copy-85"
           fill="#4A90E2"
           fill-rule="nonzero"
           points="151.154122 278.373536 246.284544 387 255.154122 378.626464 160.0237 270" />
        <polygon
           id="Path-726-Copy-86"
           fill="#4A90E2"
           fill-rule="nonzero"
           points="22.1541219 367.98763 251.047067 389 252.154122 377.01237 23.2611765 356" />
        <polygon
           id="Path-726-Copy-87"
           fill="#4A90E2"
           fill-rule="nonzero"
           points="105.852644 491 254.154122 387.37551 247.4556 377 99.1541219 480.62449" />
        <polygon
           id="Path-726-Copy-88"
           fill="#4A90E2"
           fill-rule="nonzero"
           points="524.154122 462.209461 781.898605 513 784.154122 500.790539 526.409639 450" />
        <polygon
           id="Path-726-Copy-89"
           fill="#4A90E2"
           fill-rule="nonzero"
           points="946.154122 567.389341 786.595179 502 782.154122 513.610659 941.713065 579" />
        <polygon
           id="Path-726-Copy-90"
           fill="#4A90E2"
           fill-rule="nonzero"
           points="520.154122 460.502428 641.414618 626 651.154122 618.497572 529.893626 453" />
        <polygon
           id="Path-726-Copy-91"
           fill="#4A90E2"
           fill-rule="nonzero"
           points="520.154122 460.502428 641.414618 626 651.154122 618.497572 529.893626 453" />
        <polygon
           id="Path-726-Copy-92"
           fill="#4A90E2"
           fill-rule="nonzero"
           points="776.154122 669.461884 647.779983 615 643.154122 626.538116 771.528261 681" />
        <polygon
           id="Path-726-Copy-93"
           fill="#4A90E2"
           fill-rule="nonzero"
           points="767.154122 677.262375 817.787168 822 829.154122 817.737625 778.521076 673" />
        <polygon
           id="Path-726-Copy-94"
           fill="#4A90E2"
           fill-rule="nonzero"
           points="775.290701 682 946.154122 578.737817 940.017543 568 769.154122 671.262183" />
        <polygon
           id="Path-726-Copy-95"
           fill="#4A90E2"
           fill-rule="nonzero"
           points="597.784945 813 651.154122 623.442154 639.523298 620 586.154122 809.557846" />
        <polygon
           id="Path-726-Copy-96"
           fill="#4A90E2"
           fill-rule="nonzero"
           points="518.608226 453 410.154122 656.953415 420.700017 663 529.154122 459.046585" />
        <polygon
           id="Path-726-Copy-97"
           fill="#4A90E2"
           fill-rule="nonzero"
           points="241.633134 704 417.154122 666.132551 414.67511 654 239.154122 691.867449" />
        <polygon
           id="Path-726-Copy-98"
           fill="#4A90E2"
           fill-rule="nonzero"
           points="372.977633 871 422.154122 660.909208 410.33061 658 361.154122 868.090792" />
        <polygon
           id="Path-726-Copy-99"
           fill="#4A90E2"
           fill-rule="nonzero"
           points="579.154122 789.318173 420.774932 655 413.154122 664.681827 571.533311 799" />
        <polygon
           id="Path-726-Copy-100"
           fill="#4A90E2"
           fill-rule="nonzero"
           points="522.886818 450 291.154122 495.700423 293.421426 508 525.154122 462.299577" />
        <polygon
           id="Path-726-Copy-101"
           fill="#4A90E2"
           fill-rule="nonzero"
           points="522.886818 450 291.154122 495.700423 293.421426 508 525.154122 462.299577" />
        <polygon
           id="Path-726-Copy-102"
           fill="#4A90E2"
           fill-rule="nonzero"
           points="240.863549 706 300.154122 503.60607 288.444695 500 229.154122 702.39393" />
        <polygon
           id="Path-726-Copy-103"
           fill="#4A90E2"
           fill-rule="nonzero"
           points="102.154122 492.102683 293.164776 508 294.154122 495.897317 103.143468 480" />
        <polygon
           id="Path-726-Copy-104"
           fill="#4A90E2"
           fill-rule="nonzero"
           points="526.154122 450.962252 247.16413 377 244.154122 389.037748 523.144114 463" />
        <polygon
           id="Path-726-Copy-105"
           fill="#4A90E2"
           fill-rule="nonzero"
           points="528.154122 452.83806 301.386952 237 293.154122 246.16194 519.921291 462" />
        <polygon
           id="Path-726-Copy-106"
           fill="#4A90E2"
           fill-rule="nonzero"
           points="528.154122 452.83806 301.386952 237 293.154122 246.16194 519.921291 462" />
        <ellipse
           id="Oval-1-Copy-50"
           stroke="#4A90E2"
           stroke-width="10"
           fill="#CFE0F5"
           cx="191.654122"
           cy="119"
           rx="32.5"
           ry="33" />
        <ellipse
           id="Oval-1-Copy-51"
           stroke="#4A90E2"
           stroke-width="10"
           fill="#CFE0F5"
           cx="500.154122"
           cy="32.5"
           rx="27"
           ry="27.5" />
        <ellipse
           id="Oval-1-Copy-52"
           stroke="#4A90E2"
           stroke-width="10"
           fill="#CFE0F5"
           cx="292.154122"
           cy="238.5"
           rx="27"
           ry="27.5" />
        <ellipse
           id="Oval-1-Copy-53"
           stroke="#FA781A"
           stroke-width="10"
           fill="#CFE0F5"
           cx="516.654122"
           cy="451.5"
           rx="95.5"
           ry="98.5" />
        <ellipse
           id="Oval-1-Copy-54"
           stroke="#4A90E2"
           stroke-width="10"
           fill="#CFE0F5"
           cx="410.154122"
           cy="653"
           rx="48"
           ry="49" />
        <ellipse
           id="Oval-1-Copy-55"
           stroke="#FA781A"
           stroke-width="10"
           fill="#FCC7A1"
           cx="702.654122"
           cy="342"
           rx="42.5"
           ry="44" />
        <ellipse
           id="Oval-1-Copy-56"
           stroke="#4A90E2"
           stroke-width="10"
           fill="#CFE0F5"
           cx="293.654122"
           cy="501"
           rx="42.5"
           ry="44" />
        <ellipse
           id="Oval-1-Copy-57"
           stroke="#FA781A"
           stroke-width="10"
           fill="#CFE0F5"
           cx="511.654122"
           cy="228.5"
           rx="59.5"
           ry="60.5" />
        <ellipse
           id="Oval-1-Copy-58"
           stroke="#4A90E2"
           stroke-width="10"
           fill="#CFE0F5"
           cx="942.654122"
           cy="565"
           rx="42.5"
           ry="44" />
        <ellipse
           id="Oval-1-Copy-59"
           stroke="#FA781A"
           stroke-width="10"
           fill="#CFE0F5"
           cx="847.654122"
           cy="375"
           rx="42.5"
           ry="44" />
        <ellipse
           id="Oval-1-Copy-60"
           stroke="#4A90E2"
           stroke-width="10"
           fill="#CFE0F5"
           cx="96.1541219"
           cy="483.5"
           rx="27"
           ry="27.5" />
        <ellipse
           id="Oval-1-Copy-61"
           stroke="#4A90E2"
           stroke-width="10"
           fill="#CFE0F5"
           cx="652.154122"
           cy="127.5"
           rx="19"
           ry="19.5" />
        <ellipse
           id="Oval-1-Copy-62"
           stroke="#4A90E2"
           stroke-width="10"
           fill="#CFE0F5"
           cx="152.154122"
           cy="268.5"
           rx="19"
           ry="19.5" />
        <ellipse
           id="Oval-1-Copy-63"
           stroke="#4A90E2"
           stroke-width="10"
           fill="#CFE0F5"
           cx="817.154122"
           cy="818.5"
           rx="19"
           ry="19.5" />
        <ellipse
           id="Oval-1-Copy-64"
           stroke="#4A90E2"
           stroke-width="10"
           fill="#CFE0F5"
           cx="24.1541219"
           cy="355.5"
           rx="19"
           ry="19.5" />
        <ellipse
           id="Oval-1-Copy-65"
           stroke="#4A90E2"
           stroke-width="10"
           fill="#CFE0F5"
           cx="780.154122"
           cy="503.5"
           rx="19"
           ry="19.5" />
        <ellipse
           id="Oval-1-Copy-66"
           stroke="#4A90E2"
           stroke-width="10"
           fill="#CFE0F5"
           cx="365.154122"
           cy="872.5"
           rx="19"
           ry="19.5" />
        <ellipse
           id="Oval-1-Copy-67"
           stroke="#4A90E2"
           stroke-width="10"
           fill="#CFE0F5"
           cx="349.154122"
           cy="90.5"
           rx="19"
           ry="19.5" />
        <ellipse
           id="Oval-1-Copy-68"
           stroke="#FA781A"
           stroke-width="10"
           fill="#CFE0F5"
           cx="785.154122"
           cy="208.5"
           rx="19"
           ry="19.5" />
        <ellipse
           id="Oval-1-Copy-69"
           stroke="#4A90E2"
           stroke-width="10"
           fill="#CFE0F5"
           cx="586.654122"
           cy="804"
           rx="32.5"
           ry="33" />
        <ellipse
           id="Oval-1-Copy-70"
           stroke="#4A90E2"
           stroke-width="10"
           fill="#CFE0F5"
           cx="767.654122"
           cy="675"
           rx="32.5"
           ry="33" />
        <ellipse
           id="Oval-1-Copy-71"
           stroke="#4A90E2"
           stroke-width="10"
           fill="#CFE0F5"
           cx="238.654122"
           cy="375"
           rx="32.5"
           ry="33" />
        <ellipse
           id="Oval-1-Copy-72"
           stroke="#4A90E2"
           stroke-width="10"
           fill="#CFE0F5"
           cx="228.654122"
           cy="696"
           rx="32.5"
           ry="33" />
        <ellipse
           id="Oval-1-Copy-73"
           stroke="#4A90E2"
           stroke-width="10"
           fill="#CFE0F5"
           cx="644.654122"
           cy="620"
           rx="32.5"
           ry="33" />
        <ellipse
           id="Oval-1-Copy-74"
           stroke="#4A90E2"
           stroke-width="10"
           fill="#CFE0F5"
           cx="809.654122"
           cy="76"
           rx="32.5"
           ry="33" />
      </g>
      <g
         id="Group-19"
         transform="translate(0.000000, 245.000000)">
        <polygon
           id="polygon68"
           fill="#48DA56"
           fill-rule="nonzero"
           points="151 34.3735359 246.130422 143 255 134.626464 159.869578 26" />
        <polygon
           id="polygon70"
           fill="#48DA56"
           fill-rule="nonzero"
           points="22 123.98763 250.892945 145 252 133.01237 23.1070547 112" />
        <polygon
           id="polygon72"
           fill="#48DA56"
           fill-rule="nonzero"
           points="105.698522 247 254 143.37551 247.301478 133 99 236.62449" />
        <polygon
           id="polygon74"
           fill="#F06059"
           fill-rule="nonzero"
           points="776 425.461884 647.625861 371 643 382.538116 771.374139 437" />
        <polygon
           id="polygon76"
           fill="#F06059"
           fill-rule="nonzero"
           points="767 433.262375 817.633046 578 829 573.737625 778.366954 429" />
        <polygon
           id="polygon78"
           fill="#F06059"
           fill-rule="nonzero"
           points="597.630824 569 651 379.442154 639.369176 376 586 565.557846" />
        <polygon
           id="polygon80"
           fill="#9013FE"
           fill-rule="nonzero"
           points="241.479012 460 417 422.132551 414.520988 410 239 447.867449" />
        <polygon
           id="polygon82"
           fill="#9013FE"
           fill-rule="nonzero"
           points="372.823511 627 422 416.909208 410.176489 414 361 624.090792" />
        <ellipse
           id="ellipse84"
           stroke="#9013FE"
           stroke-width="10"
           fill="#D1A4F9"
           cx="410"
           cy="409"
           rx="48"
           ry="49" />
        <ellipse
           id="ellipse86"
           stroke="#48DA56"
           stroke-width="10"
           fill="#CFE0F5"
           cx="96"
           cy="239.5"
           rx="27"
           ry="27.5" />
        <ellipse
           id="ellipse88"
           stroke="#48DA56"
           stroke-width="10"
           fill="#CFE0F5"
           cx="152"
           cy="24.5"
           rx="19"
           ry="19.5" />
        <ellipse
           id="ellipse90"
           stroke="#F06059"
           stroke-width="10"
           fill="#CFE0F5"
           cx="817"
           cy="574.5"
           rx="19"
           ry="19.5" />
        <ellipse
           id="ellipse92"
           stroke="#48DA56"
           stroke-width="10"
           fill="#CFE0F5"
           cx="24"
           cy="111.5"
           rx="19"
           ry="19.5" />
        <ellipse
           id="ellipse94"
           stroke="#9013FE"
           stroke-width="10"
           fill="#CFE0F5"
           cx="365"
           cy="628.5"
           rx="19"
           ry="19.5" />
        <ellipse
           id="ellipse96"
           stroke="#F06059"
           stroke-width="10"
           fill="#CFE0F5"
           cx="586.5"
           cy="560"
           rx="32.5"
           ry="33" />
        <ellipse
           id="ellipse98"
           stroke="#F06059"
           stroke-width="10"
           fill="#CFE0F5"
           cx="767.5"
           cy="431"
           rx="32.5"
           ry="33" />
        <ellipse
           id="ellipse100"
           stroke="#48DA56"
           stroke-width="10"
           fill="#C0FFC7"
           cx="238.5"
           cy="131"
           rx="32.5"
           ry="33" />
        <ellipse
           id="ellipse102"
           stroke="#9013FE"
           stroke-width="10"
           fill="#CFE0F5"
           cx="228.5"
           cy="452"
           rx="32.5"
           ry="33" />
        <ellipse
           id="ellipse104"
           stroke="#F06059"
           stroke-width="10"
           fill="#F7C2BF"
           cx="644.5"
           cy="376"
           rx="32.5"
           ry="33" />
      </g>
    </g>
  </g>
  <path
     style="color:#4d4d4d;fill:#ff0000;fill-opacity:1;stroke:none;stroke-width:1"
     d="m 516.15233,316.31496 c -11.39418,0.0675 -22.73416,1.56937 -33.75,4.48243 v 17.43561 0.19755 a 118.125,118.12655 0 0 0 -22.21435,9.19561 l -0.13162,-0.135 -12.35962,-12.35975 c -19.69228,11.61102 -36.11374,28.03262 -47.72459,47.72516 l 8.80004,8.80024 3.69142,3.69149 a 118.125,118.12655 0 0 0 -9.22858,22.21455 h -0.23052 -17.46825 c -2.87921,11.02017 -4.352,22.36051 -4.38355,33.75044 0.0675,11.39429 1.56938,22.73447 4.48244,33.75043 h 17.43529 0.19778 a 118.125,118.12655 0 0 0 9.19554,22.21471 l -3.6914,3.69149 -8.80003,8.80006 c 11.61083,19.69272 28.03215,36.11433 47.72458,47.72533 l 8.80005,-8.80026 3.6914,-3.69144 a 118.125,118.12655 0 0 0 22.21437,9.22871 v 5.20757 12.49147 c 11.02003,2.87925 22.36003,4.35208 33.74998,4.38367 11.38995,-0.0338 22.72995,-1.50527 33.75,-4.38367 v -12.49147 -5.20757 a 118.125,118.12655 0 0 0 22.21434,-9.22871 l 3.69142,3.69144 8.80006,8.80026 c 19.69245,-11.611 36.11376,-28.03261 47.72459,-47.72533 l -8.80004,-8.80006 -3.6914,-3.69149 a 118.125,118.12655 0 0 0 9.19554,-22.21471 h 0.19778 17.43527 c 2.91314,-11.01596 4.41493,-22.35614 4.48243,-33.75043 -0.0338,-11.38993 -1.50441,-22.73027 -4.38356,-33.75044 h -17.46825 -0.23052 a 118.125,118.12655 0 0 0 -9.22853,-22.21473 l 3.69141,-3.69146 8.80005,-8.80009 c -11.61085,-19.69254 -28.03232,-36.11433 -47.7246,-47.72533 l -12.35962,12.35992 -0.13162,0.135 a 118.125,118.12655 0 0 0 -22.2146,-9.19561 V 338.233 320.79737 c -11.01581,-2.91319 -22.35581,-4.41491 -33.74999,-4.48241 z m 0,16.87519 c 5.65161,0.0181 11.29882,0.46243 16.875,1.28593 v 0.0675 15.52386 1.44958 a 101.24999,101.25134 0 0 1 41.6931,17.3695 l 1.08758,-1.08677 10.97537,-10.97548 0.0337,-0.0337 c 9.06762,6.76139 17.11035,14.77951 23.89527,23.82966 l -0.066,0.0675 -10.97532,10.97548 -1.05468,1.05471 a 101.24999,101.25134 0 0 1 17.26962,41.72652 h 1.51605 15.55664 0.0657 c 0.81507,5.58672 1.24403,11.21445 1.25247,16.87523 -0.0202,5.65168 -0.46188,11.2988 -1.28538,16.87523 h -0.0657 -15.52367 -1.45024 a 101.24999,101.25134 0 0 1 -17.36938,41.69361 l 1.0876,1.08677 10.97533,10.97548 0.0337,0.0337 c -6.76126,9.0677 -14.77925,17.1108 -23.82931,23.89563 l -0.0657,-0.0675 -10.97536,-10.97546 -1.05469,-1.05473 a 101.24999,101.25134 0 0 1 -41.72693,17.26994 v 1.51542 15.55675 0.0675 c -5.58663,0.81507 -11.21425,1.24373 -16.875,1.25216 -5.66069,-0.006 -11.28836,-0.43709 -16.87499,-1.25216 v -0.0675 -15.55675 -1.51542 a 101.24999,101.25134 0 0 1 -41.72602,-17.27077 l -1.0547,1.0547 -10.97531,10.97548 -0.0657,0.0675 c -9.05,-6.78466 -17.06796,-14.82777 -23.82926,-23.89547 l 0.0337,-0.0337 10.97529,-10.97547 1.08759,-1.08847 a 101.24999,101.25134 0 0 1 -17.3693,-41.69292 h -1.45023 -15.52367 -0.0657 c -0.8235,-5.57644 -1.26514,-11.22357 -1.28539,-16.87525 0.006,-5.66078 0.4374,-11.28849 1.25247,-16.87523 h 0.0657 15.55665 1.51605 a 101.24999,101.25134 0 0 1 17.27048,-41.72667 l -1.05469,-1.05473 -10.97531,-10.97546 -0.0657,-0.0675 c 6.78499,-9.04998 14.82768,-17.06811 23.89529,-23.8295 l 0.0338,0.0337 10.97538,10.97548 1.0876,1.08677 a 101.24999,101.25134 0 0 1 41.69314,-17.3695 v -1.44958 -15.52385 -0.0675 c 5.57617,-0.8235 11.22341,-1.26568 16.875,-1.28593 z m -33.75,67.50094 v 101.25134 l 84.37499,-50.62567 z"
     class="ColorScheme-Text"
     id="path4" />
  <path
     style="color:#4d4d4d;fill:#ff00ff;fill-opacity:1;stroke:none;stroke-width:0.999999"
     d="m 511.5392,139.34347 c -7.59614,0.045 -15.15614,1.04625 -22.5,2.98829 v 11.62374 0.1317 a 78.75,78.75104 0 0 0 -14.80957,6.1304 l -0.0877,-0.09 -8.23978,-8.23982 c -13.12819,7.74067 -24.07584,18.68841 -31.81641,31.81677 l 5.86674,5.86682 2.46093,2.46101 a 78.75,78.75104 0 0 0 -6.15241,14.80969 h -0.15364 -11.6455 c -1.91946,7.34679 -2.90138,14.90701 -2.9224,22.50029 0.045,7.5962 1.04625,15.15632 2.98828,22.50029 h 11.62357 0.13184 a 78.75,78.75104 0 0 0 6.13033,14.80982 l -2.46094,2.46098 -5.86666,5.86672 c 7.74056,13.12848 18.68808,24.07621 31.81641,31.81689 l 5.86667,-5.86685 2.46093,-2.46096 a 78.75,78.75104 0 0 0 14.80957,6.15248 v 3.4717 8.32765 c 7.34675,1.9195 14.90675,2.90139 22.5,2.92245 7.59333,-0.0225 15.15333,-1.00352 22.5,-2.92245 v -8.32765 -3.4717 a 78.75,78.75104 0 0 0 14.80957,-6.15248 l 2.46094,2.46096 5.86674,5.86685 c 13.12825,-7.74068 24.07583,-18.68841 31.8164,-31.81689 l -5.86673,-5.86672 -2.46094,-2.46098 a 78.75,78.75104 0 0 0 6.1304,-14.80982 h 0.13184 11.6235 c 1.9421,-7.34397 2.94328,-14.90409 2.98828,-22.50029 -0.0225,-7.59328 -1.00293,-15.1535 -2.92233,-22.50029 h -11.6455 -0.15371 a 78.75,78.75104 0 0 0 -6.15234,-14.80982 l 2.46093,-2.46097 5.86667,-5.86673 c -7.74057,-13.12836 -18.68822,-24.07621 -31.81634,-31.81689 l -8.23978,8.23995 -0.0878,0.09 a 78.75,78.75104 0 0 0 -14.80971,-6.1304 v -0.13171 -11.62375 c -7.34393,-1.94213 -14.90393,-2.94328 -22.5,-2.98828 z m 0,11.25013 c 3.76769,0.0121 7.53251,0.30829 11.25,0.85729 v 0.045 10.34924 0.96638 a 67.499995,67.500895 0 0 1 27.79538,11.57967 l 0.72506,-0.72452 7.31692,-7.31698 0.0225,-0.0225 c 6.04505,4.5076 11.40687,9.85301 15.93015,15.88644 l -0.0436,0.045 -7.31686,7.31698 -0.70312,0.70314 a 67.499995,67.500895 0 0 1 11.5131,27.81769 h 1.01068 10.37109 0.0436 c 0.54338,3.72449 0.82933,7.4763 0.83496,11.25015 -0.0133,3.76779 -0.3079,7.53254 -0.8569,11.25017 h -0.0436 -10.34915 -0.9668 a 67.499995,67.500895 0 0 1 -11.57955,27.79573 l 0.72499,0.72451 7.31693,7.31698 0.0225,0.0225 c -4.50753,6.04514 -9.85282,11.4072 -15.8862,15.93042 l -0.0436,-0.045 -7.31693,-7.31697 -0.70312,-0.70315 a 67.499995,67.500895 0 0 1 -27.81795,11.51329 v 1.01029 10.37116 0.045 c -3.72445,0.54337 -7.47618,0.82915 -11.25,0.83478 -3.77381,-0.005 -7.52555,-0.29141 -11.25,-0.83478 v -0.045 -10.37116 -1.01029 A 67.499995,67.500895 0 0 1 472.4723,284.32121 l -0.70312,0.70314 -7.31686,7.31699 -0.0436,0.045 c -6.03338,-4.52311 -11.37867,-9.88518 -15.8862,-15.93031 l 0.0225,-0.0225 7.31686,-7.31699 0.72507,-0.72563 a 67.499995,67.500895 0 0 1 -11.57956,-27.7953 h -0.9668 -10.34909 -0.0436 c -0.549,-3.71762 -0.84347,-7.48237 -0.85697,-11.25016 0.007,-3.77385 0.29166,-7.52567 0.83503,-11.25015 h 0.0436 10.3711 1.01067 a 67.499995,67.500895 0 0 1 11.51366,-27.81779 l -0.70312,-0.70315 -7.31686,-7.31697 -0.0436,-0.045 c 4.52335,-6.03332 9.88517,-11.37874 15.93022,-15.88634 l 0.0225,0.0225 7.31693,7.31699 0.72506,0.72451 a 67.499995,67.500895 0 0 1 27.79544,-11.57967 v -0.96638 -10.34923 -0.045 c 3.71743,-0.549 7.48224,-0.84379 11.25,-0.85729 z m -22.5,45.00063 v 67.5009 l 56.25,-33.75045 z"
     class="ColorScheme-Text"
     id="path4-4" />
  <path
     style="color:#4d4d4d;fill:#0000ff;fill-opacity:1;stroke:none;stroke-width:1"
     d="m 942.26186,505.23916 c -5.06413,0.03 -10.10413,0.6975 -15,1.99219 v 7.74916 0.0878 a 52.500009,52.500702 0 0 0 -9.87307,4.08694 l -0.0587,-0.06 -5.4932,-5.49322 c -8.75214,5.16045 -16.05054,12.45894 -21.21094,21.21119 l 3.91113,3.91121 1.64067,1.64067 a 52.500009,52.500702 0 0 0 -4.1016,9.87313 h -0.10247 -7.76367 c -1.2796,4.89786 -1.93426,9.93801 -1.94826,15.0002 0.03,5.06413 0.69753,10.10421 1.9922,15.00019 h 7.74907 0.0879 a 52.500009,52.500702 0 0 0 4.08687,9.87322 l -1.6406,1.64065 -3.91114,3.91115 c 5.16041,8.75232 12.45874,16.05081 21.21094,21.21126 l 3.91114,-3.91123 1.6406,-1.64064 a 52.500009,52.500702 0 0 0 9.87306,4.10165 v 2.31447 5.55177 c 4.89787,1.27966 9.93787,1.93426 15.00001,1.9483 5.0622,-0.015 10.1022,-0.66902 15,-1.9483 v -5.55177 -2.31447 a 52.500009,52.500702 0 0 0 9.87307,-4.10165 l 1.6406,1.64064 3.9112,3.91123 c 8.75211,-5.16045 16.05051,-12.45894 21.21092,-21.21126 l -3.9112,-3.91115 -1.64061,-1.64065 a 52.500009,52.500702 0 0 0 4.08694,-9.87322 h 0.0879 7.74898 c 1.2947,-4.89598 1.9622,-9.93606 1.9922,-15.00019 -0.015,-5.06219 -0.6686,-10.10234 -1.9482,-15.0002 h -7.76365 -0.10247 a 52.500009,52.500702 0 0 0 -4.1016,-9.87321 l 1.64067,-1.64065 3.91107,-3.91115 c -5.16034,-8.75225 -12.45881,-16.05081 -21.21085,-21.21127 l -5.49321,5.4933 -0.0587,0.06 a 52.500009,52.500702 0 0 0 -9.87314,-4.08693 v -0.0878 -7.74917 c -4.89593,-1.29475 -9.93593,-1.96218 -15,-1.99218 z m 0,7.50009 c 2.51174,0.008 5.02167,0.20552 7.50001,0.57152 v 0.03 6.8995 0.64425 a 45.000004,45.000604 0 0 1 18.5302,7.71978 l 0.4834,-0.48301 4.87793,-4.87799 0.0153,-0.015 c 4.03006,3.00507 7.60458,6.56868 10.62011,10.59096 l -0.0293,0.03 -4.87794,4.87799 -0.46871,0.46876 a 45.000004,45.000604 0 0 1 7.67538,18.54513 h 0.6738 6.91407 0.0293 c 0.3622,2.48299 0.55287,4.9842 0.5566,7.5001 -0.009,2.51186 -0.20526,5.0217 -0.57126,7.50012 h -0.0293 -6.8994 -0.64453 a 45.000004,45.000604 0 0 1 -7.71972,18.53049 l 0.48332,0.483 4.87793,4.87799 0.0153,0.015 c -3.005,4.03009 -6.56851,7.6048 -10.59078,10.62028 l -0.0293,-0.03 -4.87794,-4.87798 -0.46873,-0.46877 a 45.000004,45.000604 0 0 1 -18.54533,7.67553 v 0.67353 6.91411 0.03 c -2.48294,0.36224 -4.98407,0.55276 -7.50001,0.55652 -2.51586,-0.003 -5.017,-0.19428 -7.5,-0.55652 v -0.03 -6.91411 -0.67353 a 45.000004,45.000604 0 0 1 -18.54487,-7.6759 l -0.4688,0.46876 -4.87786,4.878 -0.0293,0.03 c -4.02227,-3.01541 -7.5858,-6.59013 -10.5908,-10.62021 l 0.0153,-0.015 4.87787,-4.878 0.4834,-0.48375 a 45.000004,45.000604 0 0 1 -7.71973,-18.5302 h -0.64454 -6.89933 -0.0293 c -0.366,-2.47842 -0.56226,-4.98825 -0.57126,-7.50011 0.007,-2.5159 0.1944,-5.01712 0.55666,-7.5001 h 0.0293 6.91407 0.6738 a 45.000004,45.000604 0 0 1 7.67573,-18.5452 l -0.46873,-0.46877 -4.87787,-4.87798 -0.0293,-0.03 c 3.01553,-4.02221 6.59006,-7.58583 10.62013,-10.59089 l 0.0153,0.015 4.87793,4.87799 0.4834,0.48301 a 45.000004,45.000604 0 0 1 18.53027,-7.71978 v -0.64426 -6.89948 -0.03 c 2.47827,-0.366 4.9882,-0.56253 7.5,-0.57153 z m -15,30.00042 v 45.00061 l 37.50001,-22.50031 z"
     class="ColorScheme-Text"
     id="path4-4-6" />
</svg>
