<svg id="icons" xmlns="http://www.w3.org/2000/svg" viewBox="0 0 64 64"><title>daylight-saving-alarm-clock</title><g id="daylight-saving-alarm-clock"><ellipse cx="47.38" cy="13.63" rx="8.65" ry="8.7" fill="#f8dd94"/><path d="M56,13.63a8.68,8.68,0,0,0-8.66-8.7,8.59,8.59,0,0,0-7,3.6,8.55,8.55,0,0,1,5.07-1.66,8.69,8.69,0,0,1,7,13.8A8.68,8.68,0,0,0,56,13.63Z" fill="#ffefc4"/><ellipse cx="16.62" cy="13.63" rx="8.65" ry="8.7" fill="#f8dd94"/><path d="M8,13.63a8.68,8.68,0,0,1,8.66-8.7,8.59,8.59,0,0,1,7,3.6,8.55,8.55,0,0,0-5.07-1.66,8.69,8.69,0,0,0-7,13.8A8.68,8.68,0,0,1,8,13.63Z" fill="#ffefc4"/><ellipse cx="54.12" cy="5.9" rx="0.96" ry="0.97" fill="#2d3030"/><ellipse cx="16.62" cy="13.63" rx="8.65" ry="8.7" fill="none" stroke="#2d3030" stroke-linecap="round" stroke-linejoin="round" stroke-width="2"/><line x1="20.46" y1="55.2" x2="17.58" y2="61" fill="none" stroke="#2d3030" stroke-linecap="round" stroke-linejoin="round" stroke-width="2"/><line x1="43.54" y1="55.2" x2="46.42" y2="61" fill="none" stroke="#2d3030" stroke-linecap="round" stroke-linejoin="round" stroke-width="2"/><ellipse cx="47.38" cy="13.63" rx="8.65" ry="8.7" fill="none" stroke="#2d3030" stroke-linecap="round" stroke-linejoin="round" stroke-width="2"/><path d="M57,32c0,.5,0,1,0,1.5a25,25,0,0,1-49.9,0c0-.5,0-1,0-1.5a25,25,0,0,1,50,0Z" fill="#b0de7c"/><ellipse cx="32" cy="33.5" rx="24.95" ry="23.5" fill="#98c16a"/><path d="M57,32.25a25,25,0,0,1-50,0c0-.5,0-1,0-1.5a25,25,0,0,0,49.9,0C57,31.25,57,31.75,57,32.25Z" fill="#84a65d"/><path d="M46.14,17.86A20,20,0,0,1,17.86,46.14" fill="#e8dfc8"/><path d="M17.86,46.14A20,20,0,0,1,46.14,17.86" fill="#faf4e8"/><path d="M52,32H32L46.14,17.86A20.08,20.08,0,0,1,52,32Z" fill="#ff7965"/><line x1="32" y1="3" x2="32" y2="7.83" fill="none" stroke="#2d3030" stroke-linejoin="round" stroke-width="2"/><line x1="29.12" y1="3" x2="34.88" y2="3" fill="none" stroke="#2d3030" stroke-linecap="round" stroke-linejoin="round" stroke-width="2"/><circle cx="32" cy="32" r="25" fill="none" stroke="#2d3030" stroke-linecap="round" stroke-linejoin="round" stroke-width="2"/><line x1="32" y1="15" x2="32" y2="19" fill="none" stroke="#2d3030" stroke-miterlimit="10" stroke-width="2"/><line x1="32" y1="45.22" x2="32" y2="49" fill="none" stroke="#2d3030" stroke-miterlimit="10" stroke-width="2"/><line x1="19.06" y1="20.66" x2="21.94" y2="23.5" fill="none" stroke="#2d3030" stroke-miterlimit="10" stroke-width="2"/><line x1="45" y1="32" x2="49" y2="32" fill="none" stroke="#2d3030" stroke-miterlimit="10" stroke-width="2"/><line x1="43.23" y1="43.33" x2="40.35" y2="40.5" fill="none" stroke="#2d3030" stroke-miterlimit="10" stroke-width="2"/><line x1="19" y1="32" x2="15" y2="32" fill="none" stroke="#2d3030" stroke-miterlimit="10" stroke-width="2"/><line x1="20.77" y1="43.33" x2="23.65" y2="40.5" fill="none" stroke="#2d3030" stroke-miterlimit="10" stroke-width="2"/><line x1="32" y1="32" x2="32" y2="20.83" fill="none" stroke="#2d3030" stroke-miterlimit="10" stroke-width="2"/><line x1="42.43" y1="32" x2="31" y2="32" fill="none" stroke="#2d3030" stroke-miterlimit="10" stroke-width="2"/><path d="M52,32a20,20,0,1,1-5.88-14.17" fill="none" stroke="#2d3030" stroke-miterlimit="10" stroke-width="2"/><polygon points="44.2 18.78 48 20 47.16 16.1 44.2 18.78" fill="#2d3030"/><path d="M50.91,30.18a17.19,17.19,0,0,0-.27-1.87l2-.39c.14.69.24,1.39.31,2.08Z" fill="#2d3030"/><path d="M50.18,26.46a18.87,18.87,0,0,0-.64-1.78l1.84-.77c.27.65.51,1.31.71,2Z" fill="#2d3030"/><path d="M48.72,23a16.84,16.84,0,0,0-1-1.63l1.66-1.12A20.33,20.33,0,0,1,50.48,22Z" fill="#2d3030"/></g></svg>