<svg xmlns="http://www.w3.org/2000/svg" xml:space="preserve" id="_x32_" width="800" height="800" version="1.1" viewBox="0 0 512 512"><style>.st0{fill:#000}</style><path d="M386.8 291.064c-16.951-9.852-36.163-21.017-65.082-21.017-25.516 0-42.931 7.648-59.771 15.043-16.539 7.263-33.643 14.771-58.49 14.771-24.548 0-39.89-14.037-56.134-28.897-15.976-14.62-32.498-29.736-58.28-29.736h-1.59V388.51h337.093v-83.68h-1.59c-12.464 0-23.442-6.378-36.156-13.766M294.634 232.267c26.052 0 48.517-18.54 53.416-44.084l.939-4.903-3.602 3.455c-6.728 6.452-15.592 10.004-24.965 10.004-19.992 0-36.258-16.238-36.258-36.2 0-14.237 8.4-27.193 21.399-33.006l4.546-2.034-4.882-.976a54 54 0 0 0-10.594-1.032c-29.99 0-54.389 24.398-54.389 54.387s24.399 54.389 54.39 54.389" class="st0"/><path d="M0 47.702v416.596h512V47.702zm50.881 365.711V98.583h410.238v314.83z" class="st0"/></svg>