<?xml version="1.0" encoding="UTF-8" standalone="no"?>
<!-- Created with Inkscape (http://www.inkscape.org/) -->

<svg
   width="512"
   height="512"
   viewBox="0 0 135.46666 135.46667"
   version="1.1"
   id="svg524"
   inkscape:version="1.2.2 (732a01da63, 2022-12-09)"
   sodipodi:docname="Logo.svg"
   xmlns:inkscape="http://www.inkscape.org/namespaces/inkscape"
   xmlns:sodipodi="http://sodipodi.sourceforge.net/DTD/sodipodi-0.dtd"
   xmlns="http://www.w3.org/2000/svg"
   xmlns:svg="http://www.w3.org/2000/svg">
  <sodipodi:namedview
     id="namedview526"
     pagecolor="#ffffff"
     bordercolor="#000000"
     borderopacity="0.25"
     inkscape:showpageshadow="2"
     inkscape:pageopacity="0.0"
     inkscape:pagecheckerboard="0"
     inkscape:deskcolor="#d1d1d1"
     inkscape:document-units="px"
     showgrid="false"
     inkscape:zoom="1.0824912"
     inkscape:cx="216.16804"
     inkscape:cy="260.5102"
     inkscape:window-width="1920"
     inkscape:window-height="986"
     inkscape:window-x="-11"
     inkscape:window-y="-11"
     inkscape:window-maximized="1"
     inkscape:current-layer="layer1" />
  <defs
     id="defs521" />
  <g
     inkscape:label="图层 1"
     inkscape:groupmode="layer"
     id="layer1"
     style="display:inline">
    <path
       d="M 101.6,0 C 82.895947,0 67.733332,15.162614 67.733332,33.866668 c 0,18.70389 15.162615,33.86667 33.866668,33.86667 18.70388,0 33.86667,-15.16278 33.86667,-33.86667 C 135.46667,15.162614 120.30388,0 101.6,0 Z m 11.59121,18.369788 c 1.50435,1.111436 1.82304,3.231964 0.71154,4.736355 l -5.44746,7.373518 H 111.76 c 1.87046,0 3.38667,1.516549 3.38667,3.386667 0,1.87046 -1.51621,3.38667 -3.38667,3.38667 h -6.77333 v 3.38667 H 111.76 c 1.87046,0 3.38667,1.51655 3.38667,3.38666 0,1.87046 -1.51621,3.38667 -3.38667,3.38667 h -6.77333 v 3.38667 c 0,1.87045 -1.51621,3.38666 -3.38667,3.38666 -1.870454,0 -3.386664,-1.51621 -3.386664,-3.38666 v -3.38667 h -6.773337 c -1.870389,0 -3.386667,-1.51621 -3.386667,-3.38667 0,-1.87011 1.516278,-3.38666 3.386667,-3.38666 h 6.773337 v -3.38667 h -6.773337 c -1.870389,0 -3.386667,-1.51621 -3.386667,-3.38667 0,-1.870118 1.516278,-3.386667 3.386667,-3.386667 h 3.304777 l -5.447623,-7.373518 c -1.111436,-1.504391 -0.792886,-3.624919 0.711505,-4.736355 1.504357,-1.111402 3.624885,-0.792853 4.736321,0.711505 l 6.855021,9.278653 6.85495,-9.278653 c 1.11151,-1.504358 3.2319,-1.822907 4.73626,-0.711505 z"
       id="形状"
       fill="#09244b"
       style="fill:#e60000;stroke-width:3.38667;fill-opacity:1" />
    <path
       d="m 33.866667,67.733332 c 18.70388,0 33.866665,15.162615 33.866665,33.866668 0,18.70388 -15.162785,33.86667 -33.866665,33.86667 C 15.162614,135.46667 0,120.30388 0,101.6 0,82.895947 15.162614,67.733332 33.866667,67.733332 Z m 0,13.546667 c -1.736851,0 -3.168257,1.307374 -3.363882,2.991706 l -0.02277,0.39496 v 3.386666 h -3.386666 c -4.676007,0 -8.466667,3.790664 -8.466667,8.466667 0,4.488932 3.493475,8.162002 7.909982,8.448662 l 0.556685,0.018 h 3.386665 v 3.38667 H 23.70668 c -1.870387,0 -3.386665,1.51621 -3.386665,3.38666 0,1.73685 1.307405,3.16826 2.991713,3.36389 l 0.394952,0.0228 h 6.773334 v 3.38666 c 0,1.87046 1.516212,3.38667 3.386669,3.38667 1.736851,0 3.168257,-1.30734 3.363882,-2.9917 l 0.02277,-0.39497 v -3.38666 h 3.386669 c 4.675968,0 8.466666,-3.7907 8.466666,-8.46667 0,-4.48893 -3.493505,-8.161999 -7.909989,-8.448659 l -0.556677,-0.01803 h -3.386669 v -3.386665 h 6.773334 c 1.870456,0 3.386665,-1.516277 3.386665,-3.386665 0,-1.736789 -1.307344,-3.168249 -2.991698,-3.363882 l -0.394967,-0.02277 h -6.773334 v -3.386668 c 0,-1.870388 -1.516208,-3.386667 -3.386665,-3.386667 z m 6.773334,23.706671 c 0.935056,0 1.693333,0.75827 1.693333,1.69333 0,0.93506 -0.758277,1.69334 -1.693333,1.69334 h -3.386669 v -3.38667 z M 30.479999,94.826665 v 3.386665 h -3.386666 c -0.935193,0 -1.693332,-0.758273 -1.693332,-1.693332 0,-0.93506 0.758139,-1.693333 1.693332,-1.693333 z"
       id="形状-6"
       fill="#09244b"
       style="fill:#00e600;stroke-width:3.38666;fill-opacity:1" />
    <path
       d="m 67.733332,101.81564 c 0,-18.704051 15.162615,-33.866666 33.866668,-33.866666 18.70388,0 33.86666,15.162615 33.86666,33.866666 0,18.70388 -15.16278,33.86667 -33.86666,33.86667 -18.704053,0 -33.866668,-15.16279 -33.866668,-33.86667 z m 22.690429,3.38667 c 0.353365,2.89898 1.208025,5.81084 2.661887,8.32341 2.022111,3.49402 5.325465,6.36863 10.023112,6.92167 4.76808,0.5615 9.60865,-1.72957 12.52999,-5.47252 1.14977,-1.47557 0.88561,-3.60341 -0.58996,-4.75285 -1.66827,-1.30014 -3.70197,-0.67394 -4.9425,0.8233 -3.21293,3.8774 -8.63871,3.4412 -11.158051,-0.91237 -0.807721,-1.3953 -1.377696,-3.10388 -1.682835,-4.93064 H 111.76 c 1.87045,0 3.38666,-1.51621 3.38666,-3.38667 0,-1.870455 -1.51621,-3.386666 -3.38666,-3.386666 H 97.351764 c 0.340699,-1.749891 0.926592,-3.379893 1.729571,-4.719286 2.403855,-4.011032 7.903465,-5.048233 10.982955,-1.149672 1.19008,1.506898 3.21564,2.187414 4.90152,0.955176 1.51012,-1.103647 1.82643,-3.225529 0.72272,-4.73561 -2.86173,-3.915495 -7.10489,-5.827979 -11.959,-5.413451 -4.853089,0.41446 -8.320358,3.294752 -10.458056,6.861386 -1.475774,2.462209 -2.378964,5.324484 -2.784992,8.201457 h -2.43315 c -1.870388,0 -3.386667,1.516211 -3.386667,3.386666 0,1.87046 1.516279,3.38667 3.386667,3.38667 z"
       id="形状-5"
       fill="#09244b"
       style="fill:#ffe600;stroke-width:3.38666;fill-opacity:1" />
  </g>
</svg>
