<svg xmlns="http://www.w3.org/2000/svg" width="512" height="512" viewBox="0 0 135.467 135.467"><g fill="#09244b" style="display:inline"><path d="M101.6 0C82.896 0 67.733 15.163 67.733 33.867S82.896 67.733 101.6 67.733s33.867-15.162 33.867-33.866S120.304 0 101.6 0m11.591 18.37a3.387 3.387 0 0 1 .712 4.736l-5.448 7.374h3.305a3.387 3.387 0 0 1 0 6.773h-6.773v3.387h6.773a3.387 3.387 0 0 1 0 6.773h-6.773V50.8a3.387 3.387 0 1 1-6.774 0v-3.387H91.44a3.387 3.387 0 1 1 0-6.773h6.773v-3.387H91.44a3.387 3.387 0 1 1 0-6.773h3.305l-5.448-7.374a3.387 3.387 0 0 1 5.448-4.025l6.855 9.279 6.855-9.279a3.387 3.387 0 0 1 4.736-.711" style="fill:#e60000;stroke-width:3.38667;fill-opacity:1"/><path d="M33.867 67.733c18.704 0 33.866 15.163 33.866 33.867s-15.162 33.867-33.866 33.867S0 120.304 0 101.6s15.163-33.867 33.867-33.867m0 13.547a3.387 3.387 0 0 0-3.364 2.992l-.023.395v3.386h-3.387a8.467 8.467 0 0 0-.556 16.916l.556.018h3.387v3.386h-6.773a3.387 3.387 0 0 0-.395 6.75l.395.024h6.773v3.386a3.387 3.387 0 0 0 6.75.395l.023-.395v-3.386h3.387a8.467 8.467 0 0 0 .557-16.916l-.557-.018h-3.387v-3.386h6.774a3.387 3.387 0 0 0 .395-6.75l-.395-.024h-6.774v-3.386a3.387 3.387 0 0 0-3.386-3.387m6.773 23.707a1.694 1.694 0 0 1 0 3.386h-3.387v-3.386zm-10.16-10.16v3.386h-3.387a1.693 1.693 0 0 1 0-3.386z" style="fill:#00e600;stroke-width:3.38666;fill-opacity:1"/><path d="M67.733 101.816c0-18.704 15.163-33.867 33.867-33.867s33.867 15.163 33.867 33.867-15.163 33.866-33.867 33.866-33.867-15.162-33.867-33.866m22.69 3.386c.354 2.9 1.209 5.811 2.663 8.324 2.022 3.494 5.325 6.368 10.023 6.921 4.768.562 9.608-1.73 12.53-5.472a3.386 3.386 0 0 0-.59-4.753c-1.668-1.3-3.702-.674-4.943.823-3.213 3.878-8.638 3.442-11.158-.912-.807-1.395-1.377-3.104-1.683-4.93h14.495a3.387 3.387 0 1 0 0-6.774H97.352c.34-1.75.926-3.38 1.73-4.72 2.403-4.01 7.903-5.048 10.982-1.149 1.19 1.507 3.216 2.187 4.902.955 1.51-1.103 1.826-3.225.723-4.735-2.862-3.916-7.105-5.828-11.96-5.414-4.853.415-8.32 3.295-10.458 6.862-1.475 2.462-2.378 5.324-2.785 8.201h-2.433a3.387 3.387 0 1 0 0 6.773z" style="fill:#ffe600;stroke-width:3.38666;fill-opacity:1"/></g></svg>