<svg xmlns="http://www.w3.org/2000/svg" width="800" height="800" viewBox="0 0 32 32"><circle cx="16" cy="16" r="16" style="fill:#fff;stroke-width:.0492307"/><path d="M16 0C7.163 0 0 7.163 0 16s7.163 16 16 16 16-7.163 16-16S24.837 0 16 0m3.686 22.593q-1.524 1.47-3.798 1.47-2.153 0-3.57-1.237-1.418-1.237-1.645-3.233l2.943-.356q.14 1.12.758 1.714.615.593 1.493.594.941 0 1.587-.717.642-.714.642-1.927 0-1.147-.617-1.82-.617-.672-1.505-.671-.584 0-1.398.226l.335-2.458q1.233.034 1.882-.534.647-.567.647-1.506 0-.798-.474-1.274-.475-.475-1.261-.475-.778 0-1.326.539-.55.54-.67 1.577l-2.807-.475q.292-1.444.883-2.308.59-.864 1.644-1.358 1.055-.494 2.364-.493 2.24 0 3.592 1.429 1.114 1.169 1.113 2.64 0 2.088-2.286 3.333 1.365.292 2.18 1.308.819 1.016.818 2.454.002 2.09-1.524 3.558" style="stroke-width:1.23078"/></svg>