<?xml version="1.0" encoding="UTF-8" standalone="no"?>
<!-- Uploaded to: SVG Repo, www.svgrepo.com, Generator: SVG Repo Mixer Tools -->

<svg
   fill="#000000"
   width="800px"
   height="800px"
   viewBox="0 0 32 32"
   version="1.1"
   id="svg6"
   sodipodi:docname="number-white3.svg"
   inkscape:version="1.2.2 (732a01da63, 2022-12-09)"
   inkscape:export-filename="number-white3.png"
   inkscape:export-xdpi="96"
   inkscape:export-ydpi="96"
   xmlns:inkscape="http://www.inkscape.org/namespaces/inkscape"
   xmlns:sodipodi="http://sodipodi.sourceforge.net/DTD/sodipodi-0.dtd"
   xmlns="http://www.w3.org/2000/svg"
   xmlns:svg="http://www.w3.org/2000/svg">
  <defs
     id="defs10" />
  <sodipodi:namedview
     id="namedview8"
     pagecolor="#ffffff"
     bordercolor="#000000"
     borderopacity="0.25"
     inkscape:showpageshadow="2"
     inkscape:pageopacity="0.0"
     inkscape:pagecheckerboard="0"
     inkscape:deskcolor="#d1d1d1"
     showgrid="false"
     inkscape:zoom="0.99"
     inkscape:cx="345.45455"
     inkscape:cy="480.80808"
     inkscape:window-width="1920"
     inkscape:window-height="986"
     inkscape:window-x="-11"
     inkscape:window-y="-11"
     inkscape:window-maximized="1"
     inkscape:current-layer="svg6" />
  <title
     id="title2">number12</title>
  <circle
     style="fill:#ffffff;stroke-width:0.0492307"
     id="path318"
     cx="16"
     cy="16"
     r="16" />
  <path
     d="M 16,0 C 7.163077,0 0,7.163077 0,16 0,24.836922 7.163077,32 16,32 24.836924,32 32,24.836922 32,16 32,7.163077 24.836924,0 16,0 Z m 3.686154,22.593231 c -1.016616,0.980923 -2.281846,1.469539 -3.798154,1.469539 -1.435076,0 -2.62523,-0.412308 -3.56923,-1.236924 -0.946462,-0.824616 -1.494155,-1.901538 -1.645539,-3.23323 L 13.616,19.236922 c 0.09354,0.747078 0.345846,1.318154 0.758154,1.714462 0.409846,0.395078 0.908308,0.593231 1.492922,0.593231 0.627694,0 1.155694,-0.238769 1.586462,-0.716307 C 17.881846,20.352 18.096,19.709538 18.096,18.900924 c 0,-0.764308 -0.205538,-1.372309 -0.616616,-1.820308 -0.412308,-0.448 -0.91323,-0.67077 -1.50523,-0.67077 -0.390154,0 -0.855384,0.07631 -1.398154,0.226462 l 0.33477,-2.457846 c 0.822154,0.02216 1.449846,-0.156308 1.881846,-0.534154 0.432,-0.377847 0.647384,-0.88 0.647384,-1.506462 0,-0.532924 -0.157538,-0.956308 -0.473846,-1.273846 -0.317538,-0.316308 -0.73723,-0.475077 -1.261538,-0.475077 -0.518154,0 -0.95877,0.179692 -1.32554,0.539077 -0.366768,0.359384 -0.589538,0.886154 -0.669538,1.576615 l -2.807384,-0.475077 c 0.194462,-0.962462 0.488616,-1.731692 0.882462,-2.3076919 0.393846,-0.5759999 0.941538,-1.0276923 1.644308,-1.3575385 0.702768,-0.3298461 1.491692,-0.4935384 2.364306,-0.4935384 1.492924,0 2.690462,0.4763078 3.591386,1.4289232 0.743384,0.7790766 1.113846,1.6590766 1.113846,2.6399996 0,1.392 -0.761846,2.503386 -2.28677,3.332924 0.909538,0.194462 1.636924,0.631384 2.180924,1.308306 0.54523,0.678156 0.81723,1.495386 0.81723,2.454154 0.0012,1.393232 -0.507076,2.578462 -1.523692,3.558155 z"
     id="path4"
     style="stroke-width:1.23078" />
</svg>
