<svg xmlns="http://www.w3.org/2000/svg" width="328" height="200" viewBox="0 0 328 200">
  <defs>
    <linearGradient id="product-roadmap-step3-a" x1="10.954%" x2="89.585%" y1="41.266%" y2="55.236%">
      <stop offset="0%" stop-color="#42526E"/>
      <stop offset="100%" stop-color="#42526E"/>
    </linearGradient>
    <linearGradient id="product-roadmap-step3-b" x1="10.297%" x2="96.164%" y1="75.173%" y2="30.539%">
      <stop offset="0%" stop-color="#42526E"/>
      <stop offset="100%" stop-color="#42526E"/>
    </linearGradient>
  </defs>
  <g fill="none" fill-rule="evenodd">
    <rect width="27" height="54" x="20" y="24" fill="#FF7452"/>
    <rect width="27" height="55" x="20" y="81" fill="#4C9AFF"/>
    <line x1="130" x2="130" y1="25" y2="137" stroke="#DFE1E6" stroke-dasharray="3" stroke-width="2"/>
    <line x1="207" x2="207" y1="24" y2="136" stroke="#DFE1E6" stroke-dasharray="3" stroke-width="2"/>
    <line x1="284" x2="284" y1="24" y2="136" stroke="#DFE1E6" stroke-dasharray="3" stroke-width="2"/>
    <g fill="#FFBDAD" transform="translate(54 33)">
      <rect width="96" height="16" rx="3"/>
      <rect width="65" height="16" x="82" y="21" rx="3"/>
    </g>
    <g fill-rule="nonzero" transform="translate(246 78)">
      <path fill="url(#product-roadmap-step3-a)" d="M0.392307692,21.0996348 L4.71417777e-14,24.0880964 C5.68910491,26.4846892 11.7368,27.9196033 17.8961538,28.3342502 C22.2077619,26.9721151 26.3291303,25.0684539 30.1615385,22.6688656 C30.9651773,22.2991159 31.5197713,21.5392785 31.6269231,20.6611733 L31.7192308,19.8880964 C31.8336871,18.9495127 31.4193992,18.0246486 30.6428582,17.4851825 C29.8663173,16.9457163 28.8550218,16.8802218 28.0153846,17.3150194 L16.6038462,23.2342502 L0.392307692,21.0996348 Z"/>
      <path fill="#CEA28B" d="M10.5,35.297841 L7.37307692,37.2132256 C6.69543676,37.3881861 6.00470366,37.5078103 5.30769231,37.5709179 C4.76538462,37.5709179 4.32692308,37.5709179 4.03846154,37.3170717 C3.93837832,37.2121758 3.86341727,37.0859256 3.81923077,36.947841 C3.64287607,37.0586179 3.41866239,37.0586179 3.24230769,36.947841 C3.04946092,36.8367086 2.93397959,36.6279539 2.94230769,36.4055333 C2.95199191,36.1978157 3.09017769,36.0181742 3.28846154,35.9555333 C3.20180143,35.8427949 3.15330342,35.7053839 3.15,35.5632256 C3.15,35.0093794 4.10769231,34.524764 5.45769231,34.3401487 C4.70769231,34.097841 4.22307692,33.6363025 4.24615385,33.1863025 C4.25268405,33.0767803 4.29299449,32.9719732 4.36153846,32.8863025 L6.24230769,33.324764 C6.61677623,33.2150356 7.00607675,33.1644266 7.39615385,33.174764 C8.09365764,33.2067058 8.77202589,33.4129932 9.36923077,33.774764 L10.5,35.297841 Z"/>
      <path fill="#344563" d="M58.9269231,90.6132256 C60.5076317,91.1309154 61.9110009,92.0824877 62.9769231,93.3593794 C62.85,93.7170717 62.7,94.074764 62.5269231,94.4555333 C61.7163997,96.1964823 60.5761448,97.763843 59.1692308,99.0709179 L54.75,99.0709179 C54.7314069,98.952412 54.7314069,98.8317315 54.75,98.7132256 C54.9346154,97.5593794 56.9423077,97.1555333 57.0576923,97.1324563 C57.7661932,95.6229979 57.7661932,93.8765302 57.0576923,92.3670717 L58.9269231,90.6132256 Z"/>
      <circle cx="41.7" cy="20.113" r="8.723" fill="#253858"/>
      <path fill="#42526E" d="M39.1269231,32.8286102 C36.1846154,30.3709179 29.3769231,31.524764 27.3115385,35.0209179 C25.2461538,38.5170717 28.2692308,44.7593794 31.9269231,51.9016871 C32.9423077,53.874764 34.5115385,56.7593794 41.5384615,67.974764 C45.45,74.2055333 46.2461538,75.347841 48.7153846,79.374764 C52.2576923,85.1439948 54.9807692,89.8632256 56.7115385,92.9209179 L60.5076923,91.1439948 C58.6615385,86.8401487 57.3115385,83.297841 56.4346154,80.8863025 C54.5653846,75.7863025 53.7923077,73.0286102 51.8192308,68.6670717 C50.5038462,65.7939948 49.2461538,63.5439948 48.4153846,62.1132256 C47.6461538,59.8055333 46.8769231,57.4439948 46.1076923,55.0286102 C44.6153846,50.3670717 43.2307692,45.7863025 41.9538462,41.2863025 C42.0925571,39.7269149 41.907937,38.1556801 41.4115385,36.6709179 C40.990389,35.2161637 40.2038915,33.8934179 39.1269231,32.8286102 Z"/>
      <path fill="#344563" d="M31.8115385,93.7055333 C31.9846154,94.3170717 32.1461538,94.974764 32.2730769,95.6786102 C32.4406291,96.5560383 32.5600384,97.4419784 32.6307692,98.3324563 C32.6469126,98.5319694 32.5787308,98.7291205 32.4427808,98.8760342 C32.3068308,99.022948 32.1155486,99.1061853 31.9153846,99.1055371 L22.8,99.1055371 C22.7515564,98.6968916 22.8586527,98.2849831 23.1,97.9516871 C23.4692308,97.524764 24.0115385,97.547841 24.6576923,97.4439948 C25.9274699,97.1763219 27.0979152,96.561139 28.0384615,95.6670717 C28.5970399,95.1115921 29.0298674,94.4426769 29.3076923,93.7055333 L31.8115385,93.7055333 Z"/>
      <path fill="#505F79" d="M33.6230769,29.1132256 C31.6047328,28.5992403 29.4646099,28.9150643 27.6807692,29.9901487 C25.4538462,31.524764 24.4038462,34.524764 24.5538462,45.7632256 C24.6346154,51.3593794 24.9807692,57.4170717 25.9615385,66.5324563 C26.7,73.3632256 27.0461538,74.9670717 27.5884615,81.047841 C28.0961538,86.6901487 28.35,91.3286102 28.4769231,94.3863025 L33.0230769,94.6516871 C34.0153846,89.0093794 34.6730769,84.2670717 35.1,80.574764 C35.5691734,77.6449885 35.6699561,74.6680237 35.4,71.7132256 C35.0937206,69.3507964 34.5998528,67.0164995 33.9230769,64.7324563 C33.7038462,64.0170717 33.4846154,63.347841 33.2769231,62.7593794 C33.5538462,61.2363025 34.0153846,58.8709179 34.6615385,55.9863025 C35.4692308,52.4093794 36.1730769,49.2363025 37.3384615,45.2786102 C39.2769231,38.6093794 40.0730769,37.9170717 39.6461538,35.7363025 C38.9945183,32.5964246 36.6871553,30.0592095 33.6230769,29.1132256 L33.6230769,29.1132256 Z"/>
      <path fill="#253858" d="M23.9653846,5.09014865 C23.3269179,6.66434047 23.2656126,8.41358326 23.7923077,10.0286102 C24.2440633,11.3925955 25.1583092,12.5558102 26.3769231,13.3170717 C26.8887792,13.6095569 27.4534855,13.7977923 28.0384615,13.8709179 C28.5742575,13.9682393 29.1259604,13.9285484 29.6423077,13.7555333 C31.4423077,12.774764 29.4115385,5.12476404 26.8038462,3.20937942 C26.488284,2.92660286 26.0730284,2.78126341 25.65,2.80553327 C24.7038462,2.95553327 24.2423077,4.30553327 23.9653846,5.09014865 Z"/>
      <path fill="#505F79" d="M41.7,37.3286102 C36.0567036,41.7876081 28.0581836,41.6719668 22.5461538,37.0516871 C23.1328924,36.1561783 23.6057656,35.1910518 23.9538462,34.1786102 C24.8777213,31.4676527 24.9381906,28.5369069 24.1269231,25.7901487 C23.5269231,23.9209179 22.9730769,23.7016871 22.9730769,22.247841 C22.9730769,21.5901487 23.0769231,21.2901487 23.9538462,18.1516871 C24.5884615,15.8439948 24.6115385,15.7055333 24.8307692,15.4055333 C26.1545329,14.1841168 27.9273492,13.5694848 29.7230769,13.7093794 C30.3576923,13.7093794 36.4615385,13.7786102 38.3307692,17.6786102 C38.9402664,19.2688617 39.056865,21.0057788 38.6653846,22.6632256 C38.4576923,24.1286102 37.5807692,28.4324563 38.0192308,29.7016871 C38.5130675,30.7908422 39.0837378,31.8434975 39.7269231,32.8516871 C40.4752867,34.3023668 41.1342095,35.7974666 41.7,37.3286102 Z"/>
      <path fill="#CEA28B" d="M24.1269231,7.96322557 C24.227658,8.08977823 24.3484976,8.19892369 24.4846154,8.2863025 C24.6279392,8.39597172 24.7782577,8.49618408 24.9346154,8.5863025 C24.9346154,8.89784096 24.9346154,9.22091788 24.9346154,9.55553327 C24.9724684,10.1593006 25.0456708,10.7603308 25.1538462,11.3555333 C25.767269,11.518039 26.3921403,11.6337559 27.0230769,11.7016871 C28.1759002,11.8632862 29.3483825,11.8163869 30.4846154,11.5632256 C31.25609,11.4151475 31.9922909,11.1214503 32.6538462,10.697841 C34.7337309,9.25560078 35.4143989,6.49042689 34.2416393,4.24752426 C33.0688798,2.00462164 30.4096514,0.985798805 28.0384615,1.87091788 C27.0833949,2.25464197 26.3002194,2.97221113 25.8346154,3.89014865 C25.5923077,4.45553327 25.7192308,4.52476404 25.3153846,5.4939948 C25.1882339,5.80095288 25.0457467,6.10133124 24.8884615,6.3939948 C24.3923077,7.32861019 24.0115385,7.66322557 24.1269231,7.96322557 Z"/>
      <path fill="#CEA28B" d="M32.9769231,9.0939948 C32.0721223,10.6477509 31.9943665,12.5484482 32.7692308,14.1709179 C31.9230769,14.7324563 31.0615385,15.3209179 30.1846154,15.9363025 C28.9307692,16.8209179 27.7346154,17.697841 26.5961538,18.5670717 L28.1076923,14.7016871 C28.1232783,13.6890543 28.0187016,12.6781469 27.7961538,11.6901487 L32.9769231,9.0939948 Z"/>
      <path fill="url(#product-roadmap-step3-b)" d="M9.12692308,32.8401487 L9.84230769,35.7709179 C13.4949317,35.6218605 17.1357399,35.2597061 20.7461538,34.6863025 C23.3423077,34.2709179 25.7884615,33.774764 28.05,33.2324563 C31.5758741,30.4001079 34.7279864,27.1316815 37.4307692,23.5055333 C37.6915029,23.1500996 37.9048355,22.7622222 38.0653846,22.3516871 C38.1346154,22.1670717 39.3115385,19.1786102 37.7192308,17.897841 C36.3689876,17.071248 34.6300311,17.2660491 33.4961538,18.3709179 L25.0038462,28.9286102 L9.12692308,32.8401487 Z"/>
      <path fill="#253858" d="M27.4730769,6.49784096 C27.9807692,7.12091788 28.2461538,6.82091788 28.7307692,7.37476404 C29.7576923,8.52861019 28.7307692,10.0286102 29.6884615,11.1016871 C30.15,11.6209179 30.6,11.2516871 30.9807692,11.7593794 C31.3615385,12.2670717 30.9,13.6516871 30.9807692,14.5863025 C31.1307692,16.2016871 33.3576923,17.5055333 35.0769231,17.8170717 C36.2307692,18.024764 36.4846154,17.6786102 37.7653846,17.6439948 C41.4807692,17.5516871 42.8307692,20.4016871 44.6884615,19.7901487 C46.5461538,19.1786102 47.3307692,15.5670717 46.6269231,12.8670717 C46.1059788,11.0098777 44.8915833,9.42372844 43.2346154,8.4363025 C41.6538462,7.51322557 40.6961538,7.85937942 39.1846154,6.59014865 C38.3525016,5.92007061 37.6754343,5.07767286 37.2,4.12091788 C36.4193867,2.7608311 35.3182119,1.61212365 33.9923077,0.774764035 C32.5973575,0.0660125808 31.0082627,-0.165054773 29.4692308,0.117071728 C28.4769231,0.255533266 26.5730769,0.50937942 25.9384615,1.81322557 C25.6517409,2.35941571 25.6139082,3.00257136 25.8346154,3.57861019 C25.9615385,3.80937942 26.0653846,3.8439948 26.3076923,4.09784096 C27.0576923,4.96322557 26.8269231,5.69014865 27.4730769,6.49784096 Z"/>
    </g>
    <rect width="135" height="16" fill="#B3D4FF" rx="3" transform="translate(117 90)"/>
    <rect width="36" height="7" x="75" y="8" fill="#DFE1E6" rx="3.5"/>
    <rect width="36" height="7" x="152" y="8" fill="#DFE1E6" rx="3.5"/>
    <rect width="36" height="7" x="228" y="8" fill="#DFE1E6" rx="3.5"/>
  </g>
</svg>
