<?xml version="1.0" encoding="utf-8"?>
<!-- Generator: Adobe Illustrator 22.1.0, SVG Export Plug-In . SVG Version: 6.00 Build 0)  -->
<svg version="1.1" id="Layer_1" xmlns="http://www.w3.org/2000/svg" xmlns:xlink="http://www.w3.org/1999/xlink" x="0px" y="0px"
	 width="754.7px" height="388.8px" viewBox="0 0 754.7 388.8" style="enable-background:new 0 0 754.7 388.8;" xml:space="preserve"
	>
<style type="text/css">
	.st0{fill:url(#SVGID_1_);}
	.st1{fill:#104D83;}
	.st2{fill:#A1DBE6;}
	.st3{fill:none;stroke:#FFFFFF;stroke-width:0.7817;stroke-linejoin:round;stroke-miterlimit:10;}
	.st4{fill:#6FC6D7;}
	.st5{fill:#36ADC6;}
	.st6{fill:none;}
	.st7{enable-background:new    ;}
	.st8{fill:#4E4E58;}
	.st9{fill:url(#SVGID_2_);}
	.st10{fill:#ABCA37;}
	.st11{fill:#CEE185;}
	.st12{fill:#DDEAAE;}
	.st13{fill:#DCAACE;}
	.st14{fill:#9F3F91;}
	.st15{fill:#C781B7;}
	.st16{fill:#F89822;}
	.st17{fill:#FAC077;}
	.st18{fill:#F9D5A4;}
	.st19{fill:url(#SVGID_3_);}
	.st20{fill:#010101;}
	.st21{fill:#FFFFFF;}
</style>
<linearGradient id="SVGID_1_" gradientUnits="userSpaceOnUse" x1="174.1" y1="623.1" x2="729.2999" y2="623.1" gradientTransform="matrix(1 0 0 1 0 -452)">
	<stop  offset="0" style="stop-color:#ACCA37"/>
	<stop  offset="9.836540e-02" style="stop-color:#B2C836"/>
	<stop  offset="0.2462" style="stop-color:#C1C131"/>
	<stop  offset="0.4253" style="stop-color:#D8B32B"/>
	<stop  offset="0.6271" style="stop-color:#F39B23"/>
	<stop  offset="0.6487" style="stop-color:#F89921"/>
	<stop  offset="1" style="stop-color:#9F3E91"/>
</linearGradient>
<path class="st0" d="M174.2,329.1l-0.1-7c63-0.8,124.1-3.4,177.9-25.2c48.2-19.6,81.9-57.2,97.6-108.9c2.6-8.5,4.9-17.3,7.1-25.8
	c7.5-28.5,15.3-58,34.1-82.6C510.4,54,542.6,34.3,581.6,24c39.3-10.4,80.4-10.5,120.1-10.7c9,0,18.3-0.1,27.5-0.2l0.1,7
	c-9.2,0.2-18.5,0.2-27.6,0.2c-39.3,0.2-79.9,0.3-118.3,10.5c-37.5,9.9-68.3,28.7-86.9,53c-18,23.5-25.5,52.3-32.9,80.2
	c-2.3,8.6-4.6,17.5-7.2,26.1c-16.3,53.7-51.5,92.9-101.7,113.3C299.8,325.7,238,328.2,174.2,329.1z"/>
<g>
	<path class="st1" d="M136.1,332.6H16.9V104.3H0.7l75.8-67.7l75.8,67.7h-16.3V332.6z M18.9,330.6h115.3V102.3h13.1L76.5,39.2
		L5.7,102.3h13.1V330.6z"/>
</g>
<polygon class="st2" points="25.9,174.6 34.3,157.9 54.9,157.9 63.2,174.6 54.9,191.3 34.3,191.3 "/>
<polygon class="st3" points="25.9,174.6 34.3,157.9 54.9,157.9 63.2,174.6 54.9,191.3 34.3,191.3 "/>
<polygon class="st4" points="25.9,210.9 34.3,194.2 54.9,194.2 63.2,210.9 54.9,227.6 34.3,227.6 "/>
<polygon class="st3" points="25.9,210.9 34.3,194.2 54.9,194.2 63.2,210.9 54.9,227.6 34.3,227.6 "/>
<polygon class="st5" points="25.9,247.1 34.3,230.4 54.9,230.4 63.2,247.1 54.9,263.9 34.3,263.9 "/>
<polygon class="st3" points="25.9,247.1 34.3,230.4 54.9,230.4 63.2,247.1 54.9,263.9 34.3,263.9 "/>
<polygon class="st2" points="57.9,156.5 66.2,139.8 86.8,139.8 95.1,156.5 86.8,173.2 66.2,173.2 "/>
<polygon class="st3" points="57.9,156.5 66.2,139.8 86.8,139.8 95.1,156.5 86.8,173.2 66.2,173.2 "/>
<polygon class="st4" points="57.9,192.8 66.2,176.1 86.8,176.1 95.1,192.8 86.8,209.5 66.2,209.5 "/>
<polygon class="st3" points="57.9,192.8 66.2,176.1 86.8,176.1 95.1,192.8 86.8,209.5 66.2,209.5 "/>
<polygon class="st5" points="57.9,229 66.2,212.3 86.8,212.3 95.1,229 86.8,245.7 66.2,245.7 "/>
<polygon class="st3" points="57.9,229 66.2,212.3 86.8,212.3 95.1,229 86.8,245.7 66.2,245.7 "/>
<polygon class="st2" points="89.8,174.6 98.1,157.9 118.7,157.9 127.1,174.6 118.7,191.3 98.1,191.3 "/>
<polygon class="st3" points="89.8,174.6 98.1,157.9 118.7,157.9 127.1,174.6 118.7,191.3 98.1,191.3 "/>
<polygon class="st4" points="89.8,210.9 98.1,194.2 118.7,194.2 127.1,210.9 118.7,227.6 98.1,227.6 "/>
<polygon class="st3" points="89.8,210.9 98.1,194.2 118.7,194.2 127.1,210.9 118.7,227.6 98.1,227.6 "/>
<polygon class="st5" points="89.8,247.1 98.1,230.4 118.7,230.4 127.1,247.1 118.7,263.9 98.1,263.9 "/>
<polygon class="st3" points="89.8,247.1 98.1,230.4 118.7,230.4 127.1,247.1 118.7,263.9 98.1,263.9 "/>
<rect y="345.3" class="st6" width="153" height="43.5"/>
<g class="st7">
	<path class="st8" d="M27,354.4c0,1-0.4,1.8-1.1,2.4s-1.7,0.9-3,0.9s-2.3-0.2-3.2-0.6v-1.8c0.5,0.2,1.1,0.4,1.7,0.6s1.1,0.2,1.6,0.2
		c0.7,0,1.3-0.1,1.6-0.4s0.5-0.7,0.5-1.1s-0.2-0.8-0.5-1.1c-0.3-0.3-1-0.6-2-1.1c-1-0.4-1.8-0.9-2.2-1.4c-0.4-0.5-0.6-1.2-0.6-2
		c0-1,0.3-1.7,1-2.3c0.7-0.5,1.6-0.8,2.7-0.8s2.2,0.2,3.3,0.7l-0.6,1.5c-1-0.4-1.9-0.6-2.7-0.6c-0.6,0-1.1,0.1-1.4,0.4
		s-0.5,0.6-0.5,1c0,0.3,0.1,0.6,0.2,0.8s0.3,0.4,0.6,0.6c0.3,0.2,0.8,0.4,1.5,0.7c0.8,0.3,1.5,0.7,1.8,1s0.7,0.6,0.9,1
		C26.9,353.4,27,353.9,27,354.4z"/>
	<path class="st8" d="M32.3,356.2c0.4,0,0.9-0.1,1.3-0.2v1.4c-0.2,0.1-0.5,0.2-0.8,0.2s-0.7,0.1-1,0.1c-1.7,0-2.6-0.9-2.6-2.8v-4.7
		H28v-0.8l1.3-0.7l0.6-1.8H31v1.9h2.5v1.4H31v4.6c0,0.4,0.1,0.8,0.3,1C31.6,356.1,31.9,356.2,32.3,356.2z"/>
	<path class="st8" d="M39.7,348.7c0.4,0,0.7,0,0.9,0.1l-0.2,1.7c-0.3-0.1-0.5-0.1-0.8-0.1c-0.7,0-1.3,0.2-1.8,0.7s-0.7,1.1-0.7,1.9
		v4.5h-1.8v-8.6h1.4l0.2,1.5H37c0.3-0.5,0.7-0.9,1.1-1.2S39.2,348.7,39.7,348.7z"/>
	<path class="st8" d="M47.6,357.5l-0.4-1.2h-0.1c-0.4,0.5-0.8,0.9-1.3,1.1s-1,0.3-1.6,0.3c-0.8,0-1.5-0.2-2-0.7s-0.7-1.1-0.7-1.9
		c0-0.9,0.3-1.6,1-2c0.7-0.5,1.7-0.7,3-0.7H47v-0.5c0-0.6-0.1-1-0.4-1.2s-0.7-0.4-1.2-0.4c-0.4,0-0.9,0.1-1.3,0.2s-0.8,0.3-1.2,0.5
		l-0.6-1.3c0.5-0.2,1-0.4,1.5-0.6c0.6-0.1,1.1-0.2,1.6-0.2c1.1,0,1.9,0.2,2.5,0.7s0.8,1.2,0.8,2.3v5.8h-1.1V357.5z M44.9,356.3
		c0.7,0,1.2-0.2,1.6-0.6c0.4-0.4,0.6-0.9,0.6-1.6v-0.8H46c-0.9,0-1.5,0.2-1.9,0.4c-0.4,0.3-0.6,0.7-0.6,1.2c0,0.4,0.1,0.7,0.3,0.9
		C44.1,356.1,44.4,356.3,44.9,356.3z"/>
	<path class="st8" d="M54.7,356.2c0.4,0,0.9-0.1,1.3-0.2v1.4c-0.2,0.1-0.5,0.2-0.8,0.2s-0.7,0.1-1,0.1c-1.7,0-2.6-0.9-2.6-2.8v-4.7
		h-1.2v-0.8l1.3-0.7l0.6-1.8h1.1v1.9H56v1.4h-2.5v4.6c0,0.4,0.1,0.8,0.3,1C54.1,356.1,54.4,356.2,54.7,356.2z"/>
	<path class="st8" d="M61.6,357.7c-1.3,0-2.4-0.4-3.2-1.2s-1.1-1.9-1.1-3.2c0-1.4,0.4-2.5,1.1-3.3s1.7-1.2,2.9-1.2
		c1.1,0,2,0.3,2.7,1c0.7,0.7,1,1.6,1,2.9v1h-5.8c0,0.8,0.3,1.5,0.7,1.9c0.4,0.5,1,0.7,1.8,0.7c0.5,0,1,0,1.4-0.1s0.9-0.3,1.4-0.5
		v1.5c-0.4,0.2-0.9,0.4-1.4,0.5C62.7,357.6,62.2,357.7,61.6,357.7z M61.2,350.1c-0.6,0-1.1,0.2-1.4,0.6s-0.6,0.9-0.6,1.6h3.9
		c0-0.7-0.2-1.3-0.5-1.6C62.3,350.3,61.8,350.1,61.2,350.1z"/>
	<path class="st8" d="M74.3,348.9v1l-1.5,0.3c0.1,0.2,0.2,0.4,0.3,0.7c0.1,0.3,0.1,0.5,0.1,0.8c0,0.9-0.3,1.6-0.9,2.1
		s-1.5,0.8-2.5,0.8c-0.3,0-0.5,0-0.8-0.1c-0.4,0.2-0.6,0.5-0.6,0.9c0,0.2,0.1,0.3,0.3,0.4c0.2,0.1,0.5,0.1,1,0.1h1.5
		c1,0,1.7,0.2,2.2,0.6s0.7,1,0.7,1.8c0,1-0.4,1.7-1.2,2.3c-0.8,0.5-2,0.8-3.5,0.8c-1.2,0-2.1-0.2-2.7-0.6s-0.9-1-0.9-1.8
		c0-0.5,0.2-1,0.5-1.3s0.8-0.6,1.4-0.8c-0.2-0.1-0.4-0.3-0.6-0.5s-0.2-0.5-0.2-0.7c0-0.3,0.1-0.6,0.3-0.8c0.2-0.2,0.5-0.4,0.8-0.7
		c-0.4-0.2-0.8-0.5-1.1-0.9c-0.3-0.4-0.4-0.9-0.4-1.5c0-0.9,0.3-1.7,0.9-2.2s1.4-0.8,2.5-0.8c0.2,0,0.5,0,0.8,0.1
		c0.3,0,0.5,0.1,0.6,0.1L74.3,348.9L74.3,348.9z M67.5,358.8c0,0.4,0.2,0.7,0.5,0.9c0.4,0.2,0.9,0.3,1.5,0.3c1,0,1.7-0.1,2.2-0.4
		s0.7-0.7,0.7-1.1s-0.1-0.6-0.4-0.8c-0.3-0.2-0.8-0.2-1.5-0.2h-1.4c-0.5,0-0.9,0.1-1.3,0.4C67.7,358.1,67.5,358.4,67.5,358.8z
		 M68.3,351.7c0,0.5,0.1,1,0.4,1.3s0.7,0.4,1.2,0.4c1.1,0,1.6-0.6,1.6-1.7c0-0.6-0.1-1-0.4-1.3s-0.7-0.5-1.2-0.5s-0.9,0.2-1.2,0.5
		S68.3,351.1,68.3,351.7z"/>
	<path class="st8" d="M75.8,346.6c0-0.3,0.1-0.6,0.3-0.8s0.4-0.3,0.8-0.3c0.3,0,0.6,0.1,0.8,0.3s0.3,0.4,0.3,0.8
		c0,0.3-0.1,0.6-0.3,0.7s-0.4,0.3-0.8,0.3c-0.3,0-0.6-0.1-0.8-0.3S75.8,346.9,75.8,346.6z M77.8,357.5H76v-8.6h1.8V357.5z"/>
	<path class="st8" d="M83.9,357.7c-1.3,0-2.3-0.4-3-1.1s-1-1.9-1-3.3c0-1.5,0.4-2.6,1.1-3.4s1.7-1.2,3.1-1.2c0.9,0,1.7,0.2,2.5,0.5
		l-0.6,1.5c-0.8-0.3-1.4-0.5-1.9-0.5c-1.5,0-2.2,1-2.2,3c0,1,0.2,1.7,0.6,2.2s0.9,0.7,1.6,0.7c0.8,0,1.6-0.2,2.3-0.6v1.6
		c-0.3,0.2-0.7,0.3-1.1,0.4C84.8,357.6,84.4,357.7,83.9,357.7z"/>
	<path class="st8" d="M97.3,351.3h4.2v5.7c-0.7,0.2-1.3,0.4-2,0.5s-1.3,0.1-2.1,0.1c-1.7,0-3.1-0.5-4-1.5s-1.4-2.5-1.4-4.3
		s0.5-3.3,1.6-4.3s2.5-1.6,4.4-1.6c1.2,0,2.3,0.2,3.4,0.7l-0.7,1.6c-0.9-0.4-1.9-0.6-2.8-0.6c-1.2,0-2.2,0.4-2.9,1.1
		c-0.7,0.8-1.1,1.8-1.1,3.1c0,1.4,0.3,2.5,1,3.2c0.6,0.7,1.6,1.1,2.8,1.1c0.6,0,1.3-0.1,1.9-0.2V353h-2.4L97.3,351.3L97.3,351.3z"/>
	<path class="st8" d="M111.7,353.2c0,1.4-0.4,2.5-1.1,3.3s-1.7,1.2-3,1.2c-0.8,0-1.5-0.2-2.1-0.5c-0.6-0.4-1.1-0.9-1.4-1.6
		s-0.5-1.5-0.5-2.4c0-1.4,0.4-2.5,1.1-3.3s1.7-1.2,3-1.2s2.2,0.4,3,1.2C111.4,350.7,111.7,351.8,111.7,353.2z M105.4,353.2
		c0,2,0.7,3,2.2,3s2.2-1,2.2-3s-0.7-3-2.2-3c-0.8,0-1.3,0.3-1.7,0.8C105.6,351.5,105.4,352.2,105.4,353.2z"/>
	<path class="st8" d="M119.3,357.5l-0.4-1.2h-0.1c-0.4,0.5-0.8,0.9-1.3,1.1s-1,0.3-1.6,0.3c-0.8,0-1.5-0.2-2-0.7s-0.7-1.1-0.7-1.9
		c0-0.9,0.3-1.6,1-2c0.7-0.5,1.7-0.7,3-0.7h1.5v-0.5c0-0.6-0.1-1-0.4-1.2s-0.7-0.4-1.2-0.4c-0.4,0-0.9,0.1-1.3,0.2s-0.8,0.3-1.2,0.5
		l-0.6-1.3c0.5-0.2,1-0.4,1.5-0.6c0.6-0.1,1.1-0.2,1.6-0.2c1.1,0,1.9,0.2,2.5,0.7s0.8,1.2,0.8,2.3v5.8h-1.1V357.5z M116.5,356.3
		c0.7,0,1.2-0.2,1.6-0.6s0.6-0.9,0.6-1.6v-0.8h-1.1c-0.9,0-1.5,0.2-1.9,0.4c-0.4,0.3-0.6,0.7-0.6,1.2c0,0.4,0.1,0.7,0.3,0.9
		C115.7,356.1,116.1,356.3,116.5,356.3z"/>
	<path class="st8" d="M125,357.5h-1.8v-12.2h1.8V357.5z"/>
	<path class="st8" d="M133.4,355c0,0.8-0.3,1.5-0.9,1.9c-0.6,0.5-1.5,0.7-2.6,0.7c-1.2,0-2.1-0.2-2.8-0.5v-1.6c1,0.5,2,0.7,2.8,0.7
		c1.1,0,1.7-0.3,1.7-1c0-0.2-0.1-0.4-0.2-0.5s-0.3-0.3-0.6-0.5s-0.7-0.3-1.2-0.5c-1-0.4-1.7-0.8-2-1.2s-0.5-0.9-0.5-1.5
		c0-0.7,0.3-1.3,0.9-1.7c0.6-0.4,1.4-0.6,2.4-0.6s2,0.2,2.9,0.6l-0.6,1.4c-0.9-0.4-1.7-0.6-2.4-0.6c-1,0-1.5,0.3-1.5,0.8
		c0,0.3,0.1,0.5,0.4,0.7c0.3,0.2,0.8,0.4,1.7,0.8c0.7,0.3,1.2,0.5,1.6,0.8c0.3,0.2,0.6,0.5,0.7,0.8S133.4,354.6,133.4,355z"/>
</g>
<rect x="233.3" y="345.3" class="st6" width="100.6" height="28.2"/>
<g class="st7">
	<path class="st8" d="M257.1,357.5h-1.9v-5.1H250v5.1h-1.9v-11.4h1.9v4.7h5.3v-4.7h1.9v11.4H257.1z"/>
	<path class="st8" d="M267.6,353.2c0,1.4-0.4,2.5-1.1,3.3s-1.7,1.2-3,1.2c-0.8,0-1.5-0.2-2.1-0.5c-0.6-0.4-1.1-0.9-1.4-1.6
		s-0.5-1.5-0.5-2.4c0-1.4,0.4-2.5,1.1-3.3s1.7-1.2,3-1.2s2.2,0.4,3,1.2C267.2,350.7,267.6,351.8,267.6,353.2z M261.3,353.2
		c0,2,0.7,3,2.2,3s2.2-1,2.2-3s-0.7-3-2.2-3c-0.8,0-1.3,0.3-1.7,0.8C261.5,351.5,261.3,352.2,261.3,353.2z"/>
	<path class="st8" d="M274.1,348.7c0.4,0,0.7,0,0.9,0.1l-0.2,1.7c-0.3-0.1-0.5-0.1-0.8-0.1c-0.7,0-1.3,0.2-1.8,0.7s-0.7,1.1-0.7,1.9
		v4.5h-1.8v-8.6h1.4l0.2,1.5h0.1c0.3-0.5,0.7-0.9,1.1-1.2S273.6,348.7,274.1,348.7z"/>
	<path class="st8" d="M276.5,346.6c0-0.3,0.1-0.6,0.3-0.8s0.4-0.3,0.8-0.3c0.3,0,0.6,0.1,0.8,0.3s0.3,0.4,0.3,0.8
		c0,0.3-0.1,0.6-0.3,0.7s-0.4,0.3-0.8,0.3c-0.3,0-0.6-0.1-0.8-0.3S276.5,346.9,276.5,346.6z M278.5,357.5h-1.8v-8.6h1.8V357.5z"/>
	<path class="st8" d="M286.9,357.5h-6.6v-1.1l4.4-6.1h-4.1v-1.4h6.2v1.3l-4.3,6h4.4V357.5z"/>
	<path class="st8" d="M296.4,353.2c0,1.4-0.4,2.5-1.1,3.3s-1.7,1.2-3,1.2c-0.8,0-1.5-0.2-2.1-0.5c-0.6-0.4-1.1-0.9-1.4-1.6
		s-0.5-1.5-0.5-2.4c0-1.4,0.4-2.5,1.1-3.3s1.7-1.2,3-1.2s2.2,0.4,3,1.2C296,350.7,296.4,351.8,296.4,353.2z M290.1,353.2
		c0,2,0.7,3,2.2,3s2.2-1,2.2-3s-0.7-3-2.2-3c-0.8,0-1.3,0.3-1.7,0.8C290.3,351.5,290.1,352.2,290.1,353.2z"/>
	<path class="st8" d="M306.1,357.5h-1.8v-5.3c0-0.7-0.1-1.2-0.4-1.5s-0.7-0.5-1.3-0.5c-0.8,0-1.3,0.2-1.7,0.7s-0.5,1.2-0.5,2.3v4.3
		h-1.8v-8.6h1.4l0.3,1.1h0.1c0.3-0.4,0.6-0.7,1.1-1c0.5-0.2,1-0.3,1.6-0.3c2.1,0,3.1,1.1,3.1,3.2v5.6H306.1z"/>
	<path class="st8" d="M317.6,357.5h-1.8v-7.4c0-0.9,0-1.6,0.1-2.1c-0.1,0.1-0.3,0.3-0.4,0.4c-0.2,0.2-0.8,0.6-1.8,1.4l-0.9-1.2
		l3.4-2.6h1.5v11.5H317.6z"/>
</g>
<rect x="414.3" y="345.3" class="st6" width="100.6" height="28.2"/>
<g class="st7">
	<path class="st8" d="M438.1,357.5h-1.9v-5.1h-5.3v5.1H429v-11.4h1.9v4.7h5.3v-4.7h1.9V357.5z"/>
	<path class="st8" d="M448.5,353.2c0,1.4-0.4,2.5-1.1,3.3s-1.7,1.2-3,1.2c-0.8,0-1.5-0.2-2.1-0.5c-0.6-0.4-1.1-0.9-1.4-1.6
		s-0.5-1.5-0.5-2.4c0-1.4,0.4-2.5,1.1-3.3s1.7-1.2,3-1.2s2.2,0.4,3,1.2C448.2,350.7,448.5,351.8,448.5,353.2z M442.3,353.2
		c0,2,0.7,3,2.2,3s2.2-1,2.2-3s-0.7-3-2.2-3c-0.8,0-1.3,0.3-1.7,0.8C442.4,351.5,442.3,352.2,442.3,353.2z"/>
	<path class="st8" d="M455,348.7c0.4,0,0.7,0,0.9,0.1l-0.2,1.7c-0.3-0.1-0.5-0.1-0.8-0.1c-0.7,0-1.3,0.2-1.8,0.7s-0.7,1.1-0.7,1.9
		v4.5h-1.8v-8.6h1.4l0.2,1.5h0.1c0.3-0.5,0.7-0.9,1.1-1.2S454.5,348.7,455,348.7z"/>
	<path class="st8" d="M457.4,346.6c0-0.3,0.1-0.6,0.3-0.8s0.4-0.3,0.8-0.3c0.3,0,0.6,0.1,0.8,0.3s0.3,0.4,0.3,0.8
		c0,0.3-0.1,0.6-0.3,0.7s-0.4,0.3-0.8,0.3c-0.3,0-0.6-0.1-0.8-0.3S457.4,346.9,457.4,346.6z M459.4,357.5h-1.8v-8.6h1.8V357.5z"/>
	<path class="st8" d="M467.8,357.5h-6.6v-1.1l4.4-6.1h-4.1v-1.4h6.2v1.3l-4.3,6h4.4V357.5z"/>
	<path class="st8" d="M477.3,353.2c0,1.4-0.4,2.5-1.1,3.3s-1.7,1.2-3,1.2c-0.8,0-1.5-0.2-2.1-0.5c-0.6-0.4-1.1-0.9-1.4-1.6
		s-0.5-1.5-0.5-2.4c0-1.4,0.4-2.5,1.1-3.3s1.7-1.2,3-1.2s2.2,0.4,3,1.2C477,350.7,477.3,351.8,477.3,353.2z M471,353.2
		c0,2,0.7,3,2.2,3s2.2-1,2.2-3s-0.7-3-2.2-3c-0.8,0-1.3,0.3-1.7,0.8C471.2,351.5,471,352.2,471,353.2z"/>
	<path class="st8" d="M487,357.5h-1.8v-5.3c0-0.7-0.1-1.2-0.4-1.5s-0.7-0.5-1.3-0.5c-0.8,0-1.3,0.2-1.7,0.7s-0.5,1.2-0.5,2.3v4.3
		h-1.8v-8.6h1.4l0.3,1.1h0.1c0.3-0.4,0.6-0.7,1.1-1c0.5-0.2,1-0.3,1.6-0.3c2.1,0,3.1,1.1,3.1,3.2v5.6H487z"/>
	<path class="st8" d="M500.9,357.5h-7.7v-1.4l2.9-3c0.9-0.9,1.4-1.5,1.7-1.9c0.3-0.4,0.5-0.7,0.6-1.1c0.1-0.3,0.2-0.7,0.2-1.1
		c0-0.5-0.2-0.9-0.5-1.2c-0.3-0.3-0.7-0.4-1.3-0.4c-0.4,0-0.9,0.1-1.3,0.2c-0.4,0.2-0.9,0.5-1.4,0.9l-1-1.2c0.6-0.5,1.3-0.9,1.9-1.1
		s1.2-0.3,1.9-0.3c1.1,0,1.9,0.3,2.6,0.8s1,1.3,1,2.2c0,0.5-0.1,1-0.3,1.5c-0.2,0.5-0.5,0.9-0.9,1.4s-1,1.2-1.9,2l-2,1.9v0.1h5.4
		L500.9,357.5L500.9,357.5z"/>
</g>
<rect x="595.2" y="345.3" class="st6" width="100.6" height="28.2"/>
<g class="st7">
	<path class="st8" d="M619,357.5h-1.9v-5.1h-5.3v5.1H610v-11.4h1.9v4.7h5.3v-4.7h1.9v11.4H619z"/>
	<path class="st8" d="M629.5,353.2c0,1.4-0.4,2.5-1.1,3.3s-1.7,1.2-3,1.2c-0.8,0-1.5-0.2-2.1-0.5s-1.1-0.9-1.4-1.6s-0.5-1.5-0.5-2.4
		c0-1.4,0.4-2.5,1.1-3.3s1.7-1.2,3-1.2s2.2,0.4,3,1.2S629.5,351.8,629.5,353.2z M623.2,353.2c0,2,0.7,3,2.2,3s2.2-1,2.2-3
		s-0.7-3-2.2-3c-0.8,0-1.3,0.3-1.7,0.8S623.2,352.2,623.2,353.2z"/>
	<path class="st8" d="M636,348.7c0.4,0,0.7,0,0.9,0.1l-0.2,1.7c-0.3-0.1-0.5-0.1-0.8-0.1c-0.7,0-1.3,0.2-1.8,0.7s-0.7,1.1-0.7,1.9
		v4.5h-1.8v-8.6h1.4l0.2,1.5h0.1c0.3-0.5,0.7-0.9,1.1-1.2S635.4,348.7,636,348.7z"/>
	<path class="st8" d="M638.4,346.6c0-0.3,0.1-0.6,0.3-0.8s0.4-0.3,0.8-0.3c0.3,0,0.6,0.1,0.8,0.3s0.3,0.4,0.3,0.8
		c0,0.3-0.1,0.6-0.3,0.7s-0.4,0.3-0.8,0.3c-0.3,0-0.6-0.1-0.8-0.3S638.4,346.9,638.4,346.6z M640.3,357.5h-1.8v-8.6h1.8V357.5z"/>
	<path class="st8" d="M648.7,357.5h-6.6v-1.1l4.4-6.1h-4.1v-1.4h6.2v1.3l-4.3,6h4.4L648.7,357.5L648.7,357.5z"/>
	<path class="st8" d="M658.3,353.2c0,1.4-0.4,2.5-1.1,3.3s-1.7,1.2-3,1.2c-0.8,0-1.5-0.2-2.1-0.5s-1.1-0.9-1.4-1.6s-0.5-1.5-0.5-2.4
		c0-1.4,0.4-2.5,1.1-3.3s1.7-1.2,3-1.2s2.2,0.4,3,1.2S658.3,351.8,658.3,353.2z M652,353.2c0,2,0.7,3,2.2,3s2.2-1,2.2-3
		s-0.7-3-2.2-3c-0.8,0-1.3,0.3-1.7,0.8S652,352.2,652,353.2z"/>
	<path class="st8" d="M668,357.5h-1.8v-5.3c0-0.7-0.1-1.2-0.4-1.5s-0.7-0.5-1.3-0.5c-0.8,0-1.3,0.2-1.7,0.7s-0.5,1.2-0.5,2.3v4.3
		h-1.8v-8.6h1.4l0.3,1.1h0.1c0.3-0.4,0.6-0.7,1.1-1s1-0.3,1.6-0.3c2.1,0,3.1,1.1,3.1,3.2L668,357.5L668,357.5z"/>
	<path class="st8" d="M681.4,348.7c0,0.7-0.2,1.3-0.6,1.8s-1,0.8-1.8,1v0.1c0.9,0.1,1.6,0.4,2.1,0.9s0.7,1.1,0.7,1.8
		c0,1.1-0.4,1.9-1.2,2.5s-1.9,0.9-3.3,0.9c-1.3,0-2.3-0.2-3.2-0.6v-1.6c0.5,0.2,1,0.4,1.5,0.6s1.1,0.2,1.6,0.2c0.9,0,1.5-0.2,2-0.5
		s0.7-0.8,0.7-1.5c0-0.6-0.2-1.1-0.7-1.3s-1.2-0.4-2.3-0.4h-1v-1.5h1c1.8,0,2.7-0.6,2.7-1.9c0-0.5-0.2-0.9-0.5-1.1s-0.8-0.4-1.4-0.4
		c-0.4,0-0.8,0.1-1.3,0.2s-0.9,0.4-1.4,0.7l-0.9-1.3c1-0.8,2.3-1.2,3.6-1.2c1.2,0,2,0.2,2.7,0.7S681.4,347.8,681.4,348.7z"/>
</g>
<linearGradient id="SVGID_2_" gradientUnits="userSpaceOnUse" x1="336.0072" y1="571.2" x2="379.0186" y2="571.2" gradientTransform="matrix(1 0 0 1 0 -452)">
	<stop  offset="0" style="stop-color:#ACCA37"/>
	<stop  offset="1" style="stop-color:#F89921"/>
</linearGradient>
<path class="st9" d="M340.5,123.1l2.4,5.8l-7-0.4L340.5,123.1z M347.3,122.6c-0.1,0-0.3,0-0.4,0.1l-3.8,1.6
	c-0.5,0.2-0.8,0.8-0.6,1.4c0.2,0.5,0.8,0.8,1.4,0.6l3.8-1.6c0.5-0.2,0.8-0.8,0.6-1.4C348.1,122.8,347.7,122.6,347.3,122.6z
	 M354.9,119.3c-0.1,0-0.3,0-0.4,0.1l-3.8,1.6c-0.5,0.2-0.8,0.8-0.6,1.4c0.2,0.5,0.8,0.8,1.4,0.5l3.8-1.6c0.5-0.2,0.8-0.8,0.6-1.4
	C355.7,119.5,355.4,119.3,354.9,119.3z M362.6,116c-0.1,0-0.3,0-0.4,0.1l-3.8,1.6c-0.5,0.2-0.8,0.8-0.6,1.4c0.2,0.5,0.8,0.8,1.4,0.6
	l3.8-1.6c0.5-0.2,0.8-0.8,0.6-1.4C363.4,116.3,363,116,362.6,116z M370.3,112.8c-0.1,0-0.3,0-0.4,0.1l-3.8,1.6
	c-0.5,0.2-0.8,0.8-0.6,1.4c0.2,0.5,0.8,0.8,1.4,0.6l3.8-1.6c0.5-0.2,0.8-0.8,0.6-1.4C371.1,113,370.7,112.8,370.3,112.8z
	 M378.9,110.1c-0.2-0.4-0.6-0.6-1-0.6c-0.1,0-0.3,0-0.4,0.1l-3.8,1.6c-0.5,0.2-0.8,0.8-0.6,1.4c0.2,0.5,0.8,0.8,1.4,0.6l3.8-1.6
	C378.9,111.3,379.2,110.7,378.9,110.1z"/>
<polygon class="st10" points="276,148.4 287.7,125.1 316.3,125.1 327.9,148.4 316.3,171.7 287.7,171.7 "/>
<polygon class="st11" points="231.6,122.5 243.2,99.3 271.9,99.3 283.5,122.5 271.9,145.8 243.2,145.8 "/>
<polygon class="st10" points="186.2,148.4 197.8,125.1 226.5,125.1 238.1,148.4 226.5,171.7 197.8,171.7 "/>
<polygon class="st12" points="231.6,173.5 243.2,150.3 271.9,150.3 283.5,173.5 271.9,196.8 243.2,196.8 "/>
<polygon class="st11" points="231.6,224 243.2,200.8 271.9,200.8 283.5,224 271.9,247.3 243.2,247.3 "/>
<polygon class="st10" points="231.6,274.5 243.2,251.2 271.9,251.2 283.5,274.5 271.9,297.8 243.2,297.8 "/>
<polygon class="st12" points="276,198.8 287.7,175.5 316.3,175.5 327.9,198.8 316.3,222 287.7,222 "/>
<polygon class="st12" points="276,249.2 287.7,226 316.3,226 327.9,249.2 316.3,272.5 287.7,272.5 "/>
<polygon class="st11" points="276,299.7 287.7,276.5 316.3,276.5 327.9,299.7 316.3,323 287.7,323 "/>
<polygon class="st13" points="625.1,83.6 636.7,60.3 665.4,60.3 677,83.6 665.4,106.8 636.7,106.8 "/>
<polygon class="st13" points="580.7,57.7 592.3,34.4 620.9,34.4 632.6,57.7 620.9,81 592.3,81 "/>
<polygon class="st14" points="670.2,108.7 681.8,85.4 710.5,85.4 722.1,108.7 710.5,132 681.8,132 "/>
<polygon class="st15" points="580.7,108.7 592.3,85.4 620.9,85.4 632.6,108.7 620.9,132 592.3,132 "/>
<polygon class="st14" points="580.7,159.2 592.3,135.9 620.9,135.9 632.6,159.2 620.9,182.4 592.3,182.4 "/>
<polygon class="st14" points="580.7,209.7 592.3,186.4 620.9,186.4 632.6,209.7 620.9,232.9 592.3,232.9 "/>
<polygon class="st15" points="625.1,133.9 636.7,110.7 665.4,110.7 677,133.9 665.4,157.2 636.7,157.2 "/>
<polygon class="st13" points="625.1,184.4 636.7,161.1 665.4,161.1 677,184.4 665.4,207.7 636.7,207.7 "/>
<polygon class="st15" points="625.1,32.8 636.7,9.6 665.4,9.6 677,32.8 665.4,56.1 636.7,56.1 "/>
<polygon class="st16" points="437.6,116.3 449.3,93 477.9,93 489.6,116.3 477.9,139.6 449.3,139.6 "/>
<polygon class="st17" points="393.2,90.4 404.8,67.2 433.5,67.2 445.1,90.4 433.5,113.7 404.8,113.7 "/>
<polygon class="st16" points="482.7,141.4 494.4,118.2 523,118.2 534.6,141.4 523,164.7 494.4,164.7 "/>
<polygon class="st18" points="393.2,141.4 404.8,118.2 433.5,118.2 445.1,141.4 433.5,164.7 404.8,164.7 "/>
<polygon class="st17" points="393.2,191.9 404.8,168.7 433.5,168.7 445.1,191.9 433.5,215.2 404.8,215.2 "/>
<polygon class="st16" points="393.2,242.4 404.8,219.1 433.5,219.1 445.1,242.4 433.5,265.7 404.8,265.7 "/>
<polygon class="st18" points="437.6,166.6 449.3,143.4 477.9,143.4 489.6,166.6 477.9,189.9 449.3,189.9 "/>
<polygon class="st17" points="437.6,217.1 449.3,193.9 477.9,193.9 489.6,217.1 477.9,240.4 449.3,240.4 "/>
<polygon class="st18" points="482.7,242.4 494.4,219.1 523,219.1 534.6,242.4 523,265.7 494.4,265.7 "/>
<linearGradient id="SVGID_3_" gradientUnits="userSpaceOnUse" x1="526.3" y1="536.0625" x2="569.3055" y2="536.0625" gradientTransform="matrix(1 0 0 1 0 -452)">
	<stop  offset="0" style="stop-color:#F89921"/>
	<stop  offset="1" style="stop-color:#9F3E91"/>
</linearGradient>
<path class="st19" d="M526.3,93.3l7,0.4l-2.4-5.8L526.3,93.3z M537.1,87.5l-3.8,1.6c-0.5,0.2-0.8,0.8-0.6,1.4
	c0.2,0.5,0.8,0.8,1.4,0.5l3.8-1.6c0.5-0.2,0.8-0.8,0.6-1.4c-0.2-0.4-0.5-0.6-1-0.6C537.4,87.5,537.2,87.5,537.1,87.5 M544.8,84.3
	l-3.8,1.6c-0.5,0.2-0.8,0.8-0.6,1.4c0.2,0.5,0.8,0.8,1.4,0.6l3.8-1.6c0.5-0.2,0.8-0.8,0.6-1.4c-0.2-0.4-0.6-0.6-1-0.6
	C545.1,84.2,544.9,84.2,544.8,84.3 M552.5,81l-3.8,1.6c-0.5,0.2-0.8,0.8-0.6,1.4c0.2,0.5,0.8,0.8,1.4,0.6l3.8-1.6
	c0.5-0.2,0.8-0.8,0.6-1.4c-0.2-0.4-0.6-0.6-1-0.6C552.7,80.9,552.6,81,552.5,81 M560.1,77.8l-3.8,1.6c-0.5,0.2-0.8,0.8-0.6,1.4
	c0.2,0.5,0.8,0.8,1.4,0.6l3.8-1.6c0.5-0.2,0.8-0.8,0.6-1.4c-0.2-0.4-0.6-0.6-1-0.6C560.4,77.7,560.3,77.7,560.1,77.8 M567.8,74.5
	l-3.8,1.6c-0.5,0.2-0.8,0.8-0.6,1.4c0.2,0.5,0.8,0.8,1.4,0.6l3.8-1.6c0.5-0.2,0.8-0.8,0.5-1.4c-0.2-0.4-0.5-0.6-1-0.6
	C568.1,74.4,568,74.4,567.8,74.5"/>
<rect x="238.5" y="263.2" class="st6" width="38" height="25.3"/>
<g class="st7">
	<path class="st20" d="M255.1,263.7v4.6c0,0.8-0.2,1.5-0.7,1.9s-1.1,0.7-2,0.7c-0.8,0-1.5-0.2-1.9-0.7c-0.5-0.5-0.7-1.1-0.7-1.9
		v-4.6h0.5v4.6c0,0.7,0.2,1.2,0.6,1.6c0.4,0.4,0.9,0.6,1.6,0.6c0.7,0,1.2-0.2,1.6-0.6c0.4-0.4,0.6-0.9,0.6-1.6v-4.7h0.4V263.7z"/>
	<path class="st20" d="M260.2,269.4c0,0.5-0.2,0.8-0.5,1.1c-0.4,0.3-0.9,0.4-1.5,0.4c-0.7,0-1.3-0.1-1.7-0.3v-0.5
		c0.5,0.3,1.1,0.4,1.7,0.4c0.5,0,0.9-0.1,1.2-0.3c0.3-0.2,0.4-0.4,0.4-0.7c0-0.3-0.1-0.5-0.3-0.7s-0.6-0.4-1.1-0.5
		c-0.5-0.2-0.9-0.4-1.1-0.5s-0.4-0.3-0.5-0.5s-0.2-0.4-0.2-0.6c0-0.4,0.2-0.7,0.5-0.9s0.8-0.3,1.4-0.3s1.1,0.1,1.6,0.3l-0.2,0.4
		c-0.5-0.2-1-0.3-1.5-0.3c-0.4,0-0.8,0.1-1,0.2s-0.4,0.3-0.4,0.6c0,0.3,0.1,0.5,0.3,0.7s0.6,0.4,1.2,0.6c0.5,0.2,0.8,0.3,1,0.5
		c0.2,0.1,0.4,0.3,0.5,0.5S260.2,269.2,260.2,269.4z"/>
	<path class="st20" d="M263.7,270.9c-0.8,0-1.4-0.2-1.8-0.7s-0.6-1.1-0.6-2c0-0.8,0.2-1.5,0.6-2s1-0.8,1.7-0.8
		c0.6,0,1.1,0.2,1.5,0.7s0.5,1,0.5,1.8v0.4h-3.8c0,0.7,0.2,1.3,0.5,1.7s0.8,0.6,1.4,0.6c0.3,0,0.6,0,0.8-0.1s0.5-0.1,0.9-0.3v0.4
		c-0.3,0.1-0.6,0.2-0.8,0.3C264.3,270.9,264.1,270.9,263.7,270.9z M263.6,265.8c-0.5,0-0.9,0.2-1.2,0.5c-0.3,0.3-0.5,0.8-0.5,1.5
		h3.3c0-0.6-0.1-1.1-0.4-1.4C264.4,266,264.1,265.8,263.6,265.8z"/>
</g>
<g class="st7">
	<path class="st20" d="M250.7,277c-0.9,0-1.6,0.3-2.1,0.9s-0.8,1.4-0.8,2.4s0.2,1.8,0.7,2.4s1.2,0.8,2.1,0.8c0.6,0,1.1-0.1,1.7-0.2
		v0.4c-0.5,0.2-1.1,0.2-1.8,0.2c-1,0-1.8-0.3-2.4-1s-0.9-1.6-0.9-2.7c0-0.7,0.1-1.4,0.4-1.9s0.7-1,1.2-1.3s1.1-0.5,1.8-0.5
		s1.3,0.1,1.9,0.4l-0.2,0.4C251.8,277.2,251.3,277,250.7,277z"/>
	<path class="st20" d="M257,283.8l-0.1-0.8l0,0c-0.3,0.3-0.5,0.6-0.8,0.7c-0.3,0.1-0.6,0.2-1,0.2c-0.5,0-0.9-0.1-1.2-0.4
		s-0.4-0.6-0.4-1.1s0.2-0.9,0.6-1.2s1.1-0.4,1.9-0.5h1v-0.4c0-0.5-0.1-0.9-0.3-1.1s-0.5-0.4-1-0.4s-1,0.1-1.5,0.4l-0.2-0.4
		c0.6-0.3,1.2-0.4,1.7-0.4c0.6,0,1,0.2,1.3,0.5s0.4,0.8,0.4,1.4v3.5L257,283.8L257,283.8z M255,283.5c0.6,0,1-0.2,1.3-0.5
		s0.5-0.8,0.5-1.3v-0.5h-0.9c-0.7,0-1.3,0.2-1.6,0.3c-0.3,0.2-0.5,0.5-0.5,0.9c0,0.3,0.1,0.6,0.3,0.8
		C254.4,283.4,254.7,283.5,255,283.5z"/>
	<path class="st20" d="M262.4,282.4c0,0.5-0.2,0.8-0.5,1.1c-0.4,0.3-0.9,0.4-1.5,0.4c-0.7,0-1.3-0.1-1.7-0.3v-0.5
		c0.5,0.3,1.1,0.4,1.7,0.4c0.5,0,0.9-0.1,1.2-0.3c0.3-0.2,0.4-0.4,0.4-0.7c0-0.3-0.1-0.5-0.3-0.7s-0.6-0.4-1.1-0.5
		c-0.5-0.2-0.9-0.4-1.1-0.5s-0.4-0.3-0.5-0.5s-0.2-0.4-0.2-0.6c0-0.4,0.2-0.7,0.5-0.9s0.8-0.3,1.4-0.3s1.1,0.1,1.6,0.3l-0.2,0.4
		c-0.5-0.2-1-0.3-1.5-0.3c-0.4,0-0.8,0.1-1,0.2s-0.4,0.3-0.4,0.6c0,0.3,0.1,0.5,0.3,0.7s0.6,0.4,1.2,0.6c0.5,0.2,0.8,0.3,1,0.5
		c0.2,0.1,0.4,0.3,0.5,0.5S262.4,282.2,262.4,282.4z"/>
	<path class="st20" d="M265.9,283.9c-0.8,0-1.4-0.2-1.8-0.7s-0.6-1.1-0.6-2c0-0.8,0.2-1.5,0.6-2s1-0.8,1.7-0.8
		c0.6,0,1.1,0.2,1.5,0.7s0.5,1,0.5,1.8v0.4H264c0,0.7,0.2,1.3,0.5,1.7s0.8,0.6,1.4,0.6c0.3,0,0.6,0,0.8-0.1s0.5-0.1,0.9-0.3v0.4
		c-0.3,0.1-0.6,0.2-0.8,0.3C266.5,283.9,266.2,283.9,265.9,283.9z M265.7,278.8c-0.5,0-0.9,0.2-1.2,0.5c-0.3,0.3-0.5,0.8-0.5,1.5
		h3.3c0-0.6-0.1-1.1-0.4-1.4C266.6,279,266.2,278.8,265.7,278.8z"/>
</g>
<rect x="283" y="288.2" class="st6" width="38" height="25.3"/>
<g class="st7">
	<path class="st20" d="M299.6,288.7v4.6c0,0.8-0.2,1.5-0.7,1.9s-1.1,0.7-2,0.7c-0.8,0-1.5-0.2-1.9-0.7c-0.5-0.5-0.7-1.1-0.7-1.9
		v-4.6h0.5v4.6c0,0.7,0.2,1.2,0.6,1.6s0.9,0.6,1.6,0.6s1.2-0.2,1.6-0.6s0.6-0.9,0.6-1.6v-4.7h0.4V288.7z"/>
	<path class="st20" d="M304.7,294.4c0,0.5-0.2,0.8-0.5,1.1c-0.4,0.3-0.9,0.4-1.5,0.4c-0.7,0-1.3-0.1-1.7-0.3v-0.5
		c0.5,0.3,1.1,0.4,1.7,0.4c0.5,0,0.9-0.1,1.2-0.3c0.3-0.2,0.4-0.4,0.4-0.7c0-0.3-0.1-0.5-0.3-0.7s-0.6-0.4-1.1-0.5
		c-0.5-0.2-0.9-0.4-1.1-0.5s-0.4-0.3-0.5-0.5s-0.2-0.4-0.2-0.6c0-0.4,0.2-0.7,0.5-0.9s0.8-0.3,1.4-0.3s1.1,0.1,1.6,0.3l-0.2,0.4
		c-0.5-0.2-1-0.3-1.5-0.3c-0.4,0-0.8,0.1-1,0.2s-0.4,0.3-0.4,0.6c0,0.3,0.1,0.5,0.3,0.7s0.6,0.4,1.2,0.6c0.5,0.2,0.8,0.3,1,0.5
		c0.2,0.1,0.4,0.3,0.5,0.5S304.7,294.2,304.7,294.4z"/>
	<path class="st20" d="M308.2,295.9c-0.8,0-1.4-0.2-1.8-0.7s-0.6-1.1-0.6-2c0-0.8,0.2-1.5,0.6-2s1-0.8,1.7-0.8
		c0.6,0,1.1,0.2,1.5,0.7s0.5,1,0.5,1.8v0.4h-3.8c0,0.7,0.2,1.3,0.5,1.7s0.8,0.6,1.4,0.6c0.3,0,0.6,0,0.8-0.1s0.5-0.1,0.9-0.3v0.4
		c-0.3,0.1-0.6,0.2-0.8,0.3C308.8,295.9,308.5,295.9,308.2,295.9z M308.1,290.8c-0.5,0-0.9,0.2-1.2,0.5c-0.3,0.3-0.5,0.8-0.5,1.5
		h3.3c0-0.6-0.1-1.1-0.4-1.4C308.9,291,308.5,290.8,308.1,290.8z"/>
</g>
<g class="st7">
	<path class="st20" d="M295.2,302c-0.9,0-1.6,0.3-2.1,0.9s-0.8,1.4-0.8,2.4s0.2,1.8,0.7,2.4s1.2,0.8,2.1,0.8c0.6,0,1.1-0.1,1.7-0.2
		v0.4c-0.5,0.2-1.1,0.2-1.8,0.2c-1,0-1.8-0.3-2.4-1s-0.9-1.6-0.9-2.7c0-0.7,0.1-1.4,0.4-1.9s0.7-1,1.2-1.3s1.1-0.5,1.8-0.5
		c0.7,0,1.3,0.1,1.9,0.4l-0.2,0.4C296.3,302.2,295.8,302,295.2,302z"/>
	<path class="st20" d="M301.4,308.8l-0.1-0.8l0,0c-0.3,0.3-0.5,0.6-0.8,0.7s-0.6,0.2-1,0.2c-0.5,0-0.9-0.1-1.2-0.4s-0.4-0.6-0.4-1.1
		s0.2-0.9,0.6-1.2s1.1-0.4,1.9-0.5h1v-0.4c0-0.5-0.1-0.9-0.3-1.1s-0.5-0.4-1-0.4s-1,0.1-1.5,0.4l-0.2-0.4c0.6-0.3,1.2-0.4,1.7-0.4
		c0.6,0,1,0.2,1.3,0.5s0.4,0.8,0.4,1.4v3.5L301.4,308.8L301.4,308.8z M299.5,308.5c0.6,0,1-0.2,1.3-0.5s0.5-0.8,0.5-1.3v-0.5h-0.9
		c-0.7,0-1.3,0.2-1.6,0.3c-0.3,0.2-0.5,0.5-0.5,0.9c0,0.3,0.1,0.6,0.3,0.8C298.8,308.4,299.1,308.5,299.5,308.5z"/>
	<path class="st20" d="M306.8,307.4c0,0.5-0.2,0.8-0.5,1.1c-0.4,0.3-0.9,0.4-1.5,0.4c-0.7,0-1.3-0.1-1.7-0.3v-0.5
		c0.5,0.3,1.1,0.4,1.7,0.4c0.5,0,0.9-0.1,1.2-0.3c0.3-0.2,0.4-0.4,0.4-0.7c0-0.3-0.1-0.5-0.3-0.7s-0.6-0.4-1.1-0.5
		c-0.5-0.2-0.9-0.4-1.1-0.5s-0.4-0.3-0.5-0.5s-0.2-0.4-0.2-0.6c0-0.4,0.2-0.7,0.5-0.9s0.8-0.3,1.4-0.3s1.1,0.1,1.6,0.3l-0.2,0.4
		c-0.5-0.2-1-0.3-1.5-0.3c-0.4,0-0.8,0.1-1,0.2s-0.4,0.3-0.4,0.6c0,0.3,0.1,0.5,0.3,0.7s0.6,0.4,1.2,0.6c0.5,0.2,0.8,0.3,1,0.5
		c0.2,0.1,0.4,0.3,0.5,0.5S306.8,307.2,306.8,307.4z"/>
	<path class="st20" d="M310.3,308.9c-0.8,0-1.4-0.2-1.8-0.7s-0.6-1.1-0.6-2c0-0.8,0.2-1.5,0.6-2s1-0.8,1.7-0.8
		c0.6,0,1.1,0.2,1.5,0.7s0.5,1,0.5,1.8v0.4h-3.8c0,0.7,0.2,1.3,0.5,1.7s0.8,0.6,1.4,0.6c0.3,0,0.6,0,0.8-0.1s0.5-0.1,0.9-0.3v0.4
		c-0.3,0.1-0.6,0.2-0.8,0.3C310.9,308.9,310.6,308.9,310.3,308.9z M310.2,303.8c-0.5,0-0.9,0.2-1.2,0.5c-0.3,0.3-0.5,0.8-0.5,1.5
		h3.3c0-0.6-0.1-1.1-0.4-1.4C311,304,310.7,303.8,310.2,303.8z"/>
</g>
<rect x="283" y="188.2" class="st6" width="38" height="25.3"/>
<g class="st7">
	<path class="st20" d="M299.6,188.7v4.6c0,0.8-0.2,1.5-0.7,1.9s-1.1,0.7-2,0.7c-0.8,0-1.5-0.2-1.9-0.7c-0.5-0.5-0.7-1.1-0.7-1.9
		v-4.6h0.5v4.6c0,0.7,0.2,1.2,0.6,1.6c0.4,0.4,0.9,0.6,1.6,0.6s1.2-0.2,1.6-0.6c0.4-0.4,0.6-0.9,0.6-1.6v-4.7L299.6,188.7
		L299.6,188.7z"/>
	<path class="st20" d="M304.7,194.4c0,0.5-0.2,0.8-0.5,1.1c-0.4,0.3-0.9,0.4-1.5,0.4c-0.7,0-1.3-0.1-1.7-0.3v-0.5
		c0.5,0.3,1.1,0.4,1.7,0.4c0.5,0,0.9-0.1,1.2-0.3c0.3-0.2,0.4-0.4,0.4-0.7s-0.1-0.5-0.3-0.7s-0.6-0.4-1.1-0.5
		c-0.5-0.2-0.9-0.4-1.1-0.5s-0.4-0.3-0.5-0.5s-0.2-0.4-0.2-0.6c0-0.4,0.2-0.7,0.5-0.9s0.8-0.3,1.4-0.3s1.1,0.1,1.6,0.3l-0.2,0.4
		c-0.5-0.2-1-0.3-1.5-0.3c-0.4,0-0.8,0.1-1,0.2s-0.4,0.3-0.4,0.6s0.1,0.5,0.3,0.7s0.6,0.4,1.2,0.6c0.5,0.2,0.8,0.3,1,0.5
		c0.2,0.1,0.4,0.3,0.5,0.5S304.7,194.2,304.7,194.4z"/>
	<path class="st20" d="M308.2,195.9c-0.8,0-1.4-0.2-1.8-0.7s-0.6-1.1-0.6-2c0-0.8,0.2-1.5,0.6-2s1-0.8,1.7-0.8
		c0.6,0,1.1,0.2,1.5,0.7s0.5,1,0.5,1.8v0.4h-3.8c0,0.7,0.2,1.3,0.5,1.7s0.8,0.6,1.4,0.6c0.3,0,0.6,0,0.8-0.1s0.5-0.1,0.9-0.3v0.4
		c-0.3,0.1-0.6,0.2-0.8,0.3C308.8,195.9,308.5,195.9,308.2,195.9z M308.1,190.8c-0.5,0-0.9,0.2-1.2,0.5c-0.3,0.3-0.5,0.8-0.5,1.5
		h3.3c0-0.6-0.1-1.1-0.4-1.4C308.9,191,308.5,190.8,308.1,190.8z"/>
</g>
<g class="st7">
	<path class="st20" d="M295.2,202c-0.9,0-1.6,0.3-2.1,0.9s-0.8,1.4-0.8,2.4s0.2,1.8,0.7,2.4s1.2,0.8,2.1,0.8c0.6,0,1.1-0.1,1.7-0.2
		v0.4c-0.5,0.2-1.1,0.2-1.8,0.2c-1,0-1.8-0.3-2.4-1s-0.9-1.6-0.9-2.7c0-0.7,0.1-1.4,0.4-1.9s0.7-1,1.2-1.3s1.1-0.5,1.8-0.5
		c0.7,0,1.3,0.1,1.9,0.4l-0.2,0.4C296.3,202.2,295.8,202,295.2,202z"/>
	<path class="st20" d="M301.4,208.8l-0.1-0.8l0,0c-0.3,0.3-0.5,0.6-0.8,0.7c-0.3,0.1-0.6,0.2-1,0.2c-0.5,0-0.9-0.1-1.2-0.4
		s-0.4-0.6-0.4-1.1s0.2-0.9,0.6-1.2s1.1-0.4,1.9-0.5h1v-0.4c0-0.5-0.1-0.9-0.3-1.1s-0.5-0.4-1-0.4s-1,0.1-1.5,0.4l-0.2-0.4
		c0.6-0.3,1.2-0.4,1.7-0.4c0.6,0,1,0.2,1.3,0.5s0.4,0.8,0.4,1.4v3.5H301.4z M299.5,208.5c0.6,0,1-0.2,1.3-0.5s0.5-0.8,0.5-1.3v-0.5
		h-0.9c-0.7,0-1.3,0.2-1.6,0.3c-0.3,0.2-0.5,0.5-0.5,0.9c0,0.3,0.1,0.6,0.3,0.8C298.8,208.4,299.1,208.5,299.5,208.5z"/>
	<path class="st20" d="M306.8,207.4c0,0.5-0.2,0.8-0.5,1.1c-0.4,0.3-0.9,0.4-1.5,0.4c-0.7,0-1.3-0.1-1.7-0.3v-0.5
		c0.5,0.3,1.1,0.4,1.7,0.4c0.5,0,0.9-0.1,1.2-0.3c0.3-0.2,0.4-0.4,0.4-0.7s-0.1-0.5-0.3-0.7s-0.6-0.4-1.1-0.5
		c-0.5-0.2-0.9-0.4-1.1-0.5s-0.4-0.3-0.5-0.5s-0.2-0.4-0.2-0.6c0-0.4,0.2-0.7,0.5-0.9s0.8-0.3,1.4-0.3s1.1,0.1,1.6,0.3l-0.2,0.4
		c-0.5-0.2-1-0.3-1.5-0.3c-0.4,0-0.8,0.1-1,0.2s-0.4,0.3-0.4,0.6s0.1,0.5,0.3,0.7s0.6,0.4,1.2,0.6c0.5,0.2,0.8,0.3,1,0.5
		c0.2,0.1,0.4,0.3,0.5,0.5S306.8,207.2,306.8,207.4z"/>
	<path class="st20" d="M310.3,208.9c-0.8,0-1.4-0.2-1.8-0.7s-0.6-1.1-0.6-2c0-0.8,0.2-1.5,0.6-2s1-0.8,1.7-0.8
		c0.6,0,1.1,0.2,1.5,0.7s0.5,1,0.5,1.8v0.4h-3.8c0,0.7,0.2,1.3,0.5,1.7s0.8,0.6,1.4,0.6c0.3,0,0.6,0,0.8-0.1s0.5-0.1,0.9-0.3v0.4
		c-0.3,0.1-0.6,0.2-0.8,0.3C310.9,208.9,310.6,208.9,310.3,208.9z M310.2,203.8c-0.5,0-0.9,0.2-1.2,0.5c-0.3,0.3-0.5,0.8-0.5,1.5
		h3.3c0-0.6-0.1-1.1-0.4-1.4C311,204,310.7,203.8,310.2,203.8z"/>
</g>
<rect x="489.7" y="230.2" class="st6" width="38" height="25.3"/>
<g class="st7">
	<path class="st20" d="M506.3,230.7v4.6c0,0.8-0.2,1.5-0.7,1.9c-0.5,0.5-1.1,0.7-2,0.7c-0.8,0-1.5-0.2-1.9-0.7
		c-0.5-0.5-0.7-1.1-0.7-1.9v-4.6h0.5v4.6c0,0.7,0.2,1.2,0.6,1.6c0.4,0.4,0.9,0.6,1.6,0.6s1.2-0.2,1.6-0.6c0.4-0.4,0.6-0.9,0.6-1.6
		v-4.7L506.3,230.7L506.3,230.7z"/>
	<path class="st20" d="M511.4,236.4c0,0.5-0.2,0.8-0.5,1.1c-0.4,0.3-0.9,0.4-1.5,0.4c-0.7,0-1.3-0.1-1.7-0.3v-0.5
		c0.5,0.3,1.1,0.4,1.7,0.4c0.5,0,0.9-0.1,1.2-0.3c0.3-0.2,0.4-0.4,0.4-0.7s-0.1-0.5-0.3-0.7c-0.2-0.2-0.6-0.4-1.1-0.5
		c-0.5-0.2-0.9-0.4-1.1-0.5s-0.4-0.3-0.5-0.5s-0.2-0.4-0.2-0.6c0-0.4,0.2-0.7,0.5-0.9s0.8-0.3,1.4-0.3s1.1,0.1,1.6,0.3l-0.2,0.4
		c-0.5-0.2-1-0.3-1.5-0.3c-0.4,0-0.8,0.1-1,0.2s-0.4,0.3-0.4,0.6s0.1,0.5,0.3,0.7c0.2,0.2,0.6,0.4,1.2,0.6c0.5,0.2,0.8,0.3,1,0.5
		c0.2,0.1,0.4,0.3,0.5,0.5C511.3,236,511.4,236.2,511.4,236.4z"/>
	<path class="st20" d="M514.9,237.9c-0.8,0-1.4-0.2-1.8-0.7c-0.4-0.5-0.6-1.1-0.6-2c0-0.8,0.2-1.5,0.6-2c0.4-0.5,1-0.8,1.7-0.8
		c0.6,0,1.1,0.2,1.5,0.7s0.5,1,0.5,1.8v0.4H513c0,0.7,0.2,1.3,0.5,1.7s0.8,0.6,1.4,0.6c0.3,0,0.6,0,0.8-0.1s0.5-0.1,0.9-0.3v0.4
		c-0.3,0.1-0.6,0.2-0.8,0.3C515.5,237.9,515.2,237.9,514.9,237.9z M514.8,232.8c-0.5,0-0.9,0.2-1.2,0.5s-0.5,0.8-0.5,1.5h3.3
		c0-0.6-0.1-1.1-0.4-1.4C515.6,233,515.2,232.8,514.8,232.8z"/>
</g>
<g class="st7">
	<path class="st20" d="M501.9,244c-0.9,0-1.6,0.3-2.1,0.9c-0.5,0.6-0.8,1.4-0.8,2.4s0.2,1.8,0.7,2.4c0.5,0.6,1.2,0.8,2.1,0.8
		c0.6,0,1.1-0.1,1.7-0.2v0.4c-0.5,0.2-1.1,0.2-1.8,0.2c-1,0-1.8-0.3-2.4-1s-0.9-1.6-0.9-2.7c0-0.7,0.1-1.4,0.4-1.9
		c0.3-0.6,0.7-1,1.2-1.3s1.1-0.5,1.8-0.5c0.7,0,1.3,0.1,1.9,0.4l-0.2,0.4C503,244.2,502.5,244,501.9,244z"/>
	<path class="st20" d="M508.1,250.8L508,250l0,0c-0.3,0.3-0.5,0.6-0.8,0.7c-0.3,0.1-0.6,0.2-1,0.2c-0.5,0-0.9-0.1-1.2-0.4
		c-0.3-0.3-0.4-0.6-0.4-1.1s0.2-0.9,0.6-1.2s1.1-0.4,1.9-0.5h1v-0.4c0-0.5-0.1-0.9-0.3-1.1s-0.5-0.4-1-0.4s-1,0.1-1.5,0.4l-0.2-0.4
		c0.6-0.3,1.2-0.4,1.7-0.4c0.6,0,1,0.2,1.3,0.5s0.4,0.8,0.4,1.4v3.5H508.1z M506.2,250.5c0.6,0,1-0.2,1.3-0.5s0.5-0.8,0.5-1.3v-0.5
		h-0.9c-0.7,0-1.3,0.2-1.6,0.3c-0.3,0.2-0.5,0.5-0.5,0.9c0,0.3,0.1,0.6,0.3,0.8C505.5,250.4,505.8,250.5,506.2,250.5z"/>
	<path class="st20" d="M513.5,249.4c0,0.5-0.2,0.8-0.5,1.1c-0.4,0.3-0.9,0.4-1.5,0.4c-0.7,0-1.3-0.1-1.7-0.3v-0.5
		c0.5,0.3,1.1,0.4,1.7,0.4c0.5,0,0.9-0.1,1.2-0.3s0.4-0.4,0.4-0.7s-0.1-0.5-0.3-0.7s-0.6-0.4-1.1-0.5c-0.5-0.2-0.9-0.4-1.1-0.5
		s-0.4-0.3-0.5-0.5s-0.2-0.4-0.2-0.6c0-0.4,0.2-0.7,0.5-0.9s0.8-0.3,1.4-0.3s1.1,0.1,1.6,0.3l-0.2,0.4c-0.5-0.2-1-0.3-1.5-0.3
		c-0.4,0-0.8,0.1-1,0.2s-0.4,0.3-0.4,0.6s0.1,0.5,0.3,0.7c0.2,0.2,0.6,0.4,1.2,0.6c0.5,0.2,0.8,0.3,1,0.5c0.2,0.1,0.4,0.3,0.5,0.5
		C513.5,249,513.5,249.2,513.5,249.4z"/>
	<path class="st20" d="M517,250.9c-0.8,0-1.4-0.2-1.8-0.7c-0.4-0.5-0.6-1.1-0.6-2c0-0.8,0.2-1.5,0.6-2c0.4-0.5,1-0.8,1.7-0.8
		c0.6,0,1.1,0.2,1.5,0.7s0.5,1,0.5,1.8v0.4h-3.8c0,0.7,0.2,1.3,0.5,1.7s0.8,0.6,1.4,0.6c0.3,0,0.6,0,0.8-0.1s0.5-0.1,0.9-0.3v0.4
		c-0.3,0.1-0.6,0.2-0.8,0.3C517.6,250.9,517.3,250.9,517,250.9z M516.9,245.8c-0.5,0-0.9,0.2-1.2,0.5s-0.5,0.8-0.5,1.5h3.3
		c0-0.6-0.1-1.1-0.4-1.4C517.7,246,517.4,245.8,516.9,245.8z"/>
</g>
<polygon class="st14" points="754.7,15.9 727.2,31.8 727.2,0 "/>
<rect x="444.6" y="104.2" class="st6" width="38" height="25.3"/>
<g class="st7">
	<path class="st21" d="M461.2,104.7v4.6c0,0.8-0.2,1.5-0.7,1.9c-0.5,0.5-1.1,0.7-2,0.7c-0.8,0-1.5-0.2-1.9-0.7
		c-0.5-0.5-0.7-1.1-0.7-1.9v-4.6h0.5v4.6c0,0.7,0.2,1.2,0.6,1.6s0.9,0.6,1.6,0.6s1.2-0.2,1.6-0.6s0.6-0.9,0.6-1.6v-4.7L461.2,104.7
		L461.2,104.7z"/>
	<path class="st21" d="M466.3,110.4c0,0.5-0.2,0.8-0.5,1.1c-0.4,0.3-0.9,0.4-1.5,0.4c-0.7,0-1.3-0.1-1.7-0.3v-0.5
		c0.5,0.3,1.1,0.4,1.7,0.4c0.5,0,0.9-0.1,1.2-0.3c0.3-0.2,0.4-0.4,0.4-0.7c0-0.3-0.1-0.5-0.3-0.7c-0.2-0.2-0.6-0.4-1.1-0.5
		c-0.5-0.2-0.9-0.4-1.1-0.5s-0.4-0.3-0.5-0.5s-0.2-0.4-0.2-0.6c0-0.4,0.2-0.7,0.5-0.9c0.3-0.2,0.8-0.3,1.4-0.3s1.1,0.1,1.6,0.3
		l-0.2,0.4c-0.5-0.2-1-0.3-1.5-0.3c-0.4,0-0.8,0.1-1,0.2s-0.4,0.3-0.4,0.6c0,0.3,0.1,0.5,0.3,0.7c0.2,0.2,0.6,0.4,1.2,0.6
		c0.5,0.2,0.8,0.3,1,0.5c0.2,0.1,0.4,0.3,0.5,0.5C466.3,110,466.3,110.2,466.3,110.4z"/>
	<path class="st21" d="M469.8,111.9c-0.8,0-1.4-0.2-1.8-0.7s-0.6-1.1-0.6-2c0-0.8,0.2-1.5,0.6-2s1-0.8,1.7-0.8
		c0.6,0,1.1,0.2,1.5,0.7s0.5,1,0.5,1.8v0.4h-3.8c0,0.7,0.2,1.3,0.5,1.7c0.3,0.4,0.8,0.6,1.4,0.6c0.3,0,0.6,0,0.8-0.1
		s0.5-0.1,0.9-0.3v0.4c-0.3,0.1-0.6,0.2-0.8,0.3C470.4,111.9,470.1,111.9,469.8,111.9z M469.7,106.8c-0.5,0-0.9,0.2-1.2,0.5
		c-0.3,0.3-0.5,0.8-0.5,1.5h3.3c0-0.6-0.1-1.1-0.4-1.4C470.5,107,470.1,106.8,469.7,106.8z"/>
</g>
<g class="st7">
	<path class="st21" d="M456.8,118c-0.9,0-1.6,0.3-2.1,0.9s-0.8,1.4-0.8,2.4s0.2,1.8,0.7,2.4s1.2,0.8,2.1,0.8c0.6,0,1.1-0.1,1.7-0.2
		v0.4c-0.5,0.2-1.1,0.2-1.8,0.2c-1,0-1.8-0.3-2.4-1s-0.9-1.6-0.9-2.7c0-0.7,0.1-1.4,0.4-1.9c0.3-0.6,0.7-1,1.2-1.3s1.1-0.5,1.8-0.5
		c0.7,0,1.3,0.1,1.9,0.4l-0.2,0.4C457.9,118.2,457.4,118,456.8,118z"/>
	<path class="st21" d="M463.1,124.8L463,124l0,0c-0.3,0.3-0.5,0.6-0.8,0.7s-0.6,0.2-1,0.2c-0.5,0-0.9-0.1-1.2-0.4
		c-0.3-0.3-0.4-0.6-0.4-1.1s0.2-0.9,0.6-1.2c0.4-0.3,1.1-0.4,1.9-0.5h1v-0.4c0-0.5-0.1-0.9-0.3-1.1s-0.5-0.4-1-0.4s-1,0.1-1.5,0.4
		l-0.2-0.4c0.6-0.3,1.2-0.4,1.7-0.4c0.6,0,1,0.2,1.3,0.5s0.4,0.8,0.4,1.4v3.5C463.5,124.8,463.1,124.8,463.1,124.8z M461.1,124.5
		c0.6,0,1-0.2,1.3-0.5s0.5-0.8,0.5-1.3v-0.5H462c-0.7,0-1.3,0.2-1.6,0.3c-0.3,0.2-0.5,0.5-0.5,0.9c0,0.3,0.1,0.6,0.3,0.8
		C460.4,124.4,460.7,124.5,461.1,124.5z"/>
	<path class="st21" d="M468.4,123.4c0,0.5-0.2,0.8-0.5,1.1c-0.4,0.3-0.9,0.4-1.5,0.4c-0.7,0-1.3-0.1-1.7-0.3v-0.5
		c0.5,0.3,1.1,0.4,1.7,0.4c0.5,0,0.9-0.1,1.2-0.3c0.3-0.2,0.4-0.4,0.4-0.7c0-0.3-0.1-0.5-0.3-0.7c-0.2-0.2-0.6-0.4-1.1-0.5
		c-0.5-0.2-0.9-0.4-1.1-0.5s-0.4-0.3-0.5-0.5s-0.2-0.4-0.2-0.6c0-0.4,0.2-0.7,0.5-0.9c0.3-0.2,0.8-0.3,1.4-0.3s1.1,0.1,1.6,0.3
		l-0.2,0.4c-0.5-0.2-1-0.3-1.5-0.3c-0.4,0-0.8,0.1-1,0.2s-0.4,0.3-0.4,0.6c0,0.3,0.1,0.5,0.3,0.7c0.2,0.2,0.6,0.4,1.2,0.6
		c0.5,0.2,0.8,0.3,1,0.5c0.2,0.1,0.4,0.3,0.5,0.5C468.4,123,468.4,123.2,468.4,123.4z"/>
	<path class="st21" d="M471.9,124.9c-0.8,0-1.4-0.2-1.8-0.7s-0.6-1.1-0.6-2c0-0.8,0.2-1.5,0.6-2s1-0.8,1.7-0.8
		c0.6,0,1.1,0.2,1.5,0.7s0.5,1,0.5,1.8v0.4H470c0,0.7,0.2,1.3,0.5,1.7c0.3,0.4,0.8,0.6,1.4,0.6c0.3,0,0.6,0,0.8-0.1s0.5-0.1,0.9-0.3
		v0.4c-0.3,0.1-0.6,0.2-0.8,0.3C472.5,124.9,472.2,124.9,471.9,124.9z M471.8,119.8c-0.5,0-0.9,0.2-1.2,0.5
		c-0.3,0.3-0.5,0.8-0.5,1.5h3.3c0-0.6-0.1-1.1-0.4-1.4C472.6,120,472.3,119.8,471.8,119.8z"/>
</g>
<rect x="400.7" y="181.2" class="st6" width="38" height="25.3"/>
<g class="st7">
	<path class="st20" d="M417.3,181.7v4.6c0,0.8-0.2,1.5-0.7,1.9c-0.5,0.5-1.1,0.7-2,0.7c-0.8,0-1.5-0.2-1.9-0.7
		c-0.5-0.5-0.7-1.1-0.7-1.9v-4.6h0.5v4.6c0,0.7,0.2,1.2,0.6,1.6c0.4,0.4,0.9,0.6,1.6,0.6s1.2-0.2,1.6-0.6c0.4-0.4,0.6-0.9,0.6-1.6
		v-4.7L417.3,181.7L417.3,181.7z"/>
	<path class="st20" d="M422.4,187.4c0,0.5-0.2,0.8-0.5,1.1c-0.4,0.3-0.9,0.4-1.5,0.4c-0.7,0-1.3-0.1-1.7-0.3v-0.5
		c0.5,0.3,1.1,0.4,1.7,0.4c0.5,0,0.9-0.1,1.2-0.3c0.3-0.2,0.4-0.4,0.4-0.7s-0.1-0.5-0.3-0.7c-0.2-0.2-0.6-0.4-1.1-0.5
		c-0.5-0.2-0.9-0.4-1.1-0.5s-0.4-0.3-0.5-0.5s-0.2-0.4-0.2-0.6c0-0.4,0.2-0.7,0.5-0.9s0.8-0.3,1.4-0.3s1.1,0.1,1.6,0.3l-0.2,0.4
		c-0.5-0.2-1-0.3-1.5-0.3c-0.4,0-0.8,0.1-1,0.2s-0.4,0.3-0.4,0.6s0.1,0.5,0.3,0.7c0.2,0.2,0.6,0.4,1.2,0.6c0.5,0.2,0.8,0.3,1,0.5
		c0.2,0.1,0.4,0.3,0.5,0.5C422.3,187,422.4,187.2,422.4,187.4z"/>
	<path class="st20" d="M425.9,188.9c-0.8,0-1.4-0.2-1.8-0.7s-0.6-1.1-0.6-2c0-0.8,0.2-1.5,0.6-2s1-0.8,1.7-0.8
		c0.6,0,1.1,0.2,1.5,0.7s0.5,1,0.5,1.8v0.4H424c0,0.7,0.2,1.3,0.5,1.7s0.8,0.6,1.4,0.6c0.3,0,0.6,0,0.8-0.1s0.5-0.1,0.9-0.3v0.4
		c-0.3,0.1-0.6,0.2-0.8,0.3C426.5,188.9,426.2,188.9,425.9,188.9z M425.8,183.8c-0.5,0-0.9,0.2-1.2,0.5c-0.3,0.3-0.5,0.8-0.5,1.5
		h3.3c0-0.6-0.1-1.1-0.4-1.4C426.6,184,426.2,183.8,425.8,183.8z"/>
</g>
<g class="st7">
	<path class="st20" d="M412.9,195c-0.9,0-1.6,0.3-2.1,0.9c-0.5,0.6-0.8,1.4-0.8,2.4s0.2,1.8,0.7,2.4c0.5,0.6,1.2,0.8,2.1,0.8
		c0.6,0,1.1-0.1,1.7-0.2v0.4c-0.5,0.2-1.1,0.2-1.8,0.2c-1,0-1.8-0.3-2.4-1s-0.9-1.6-0.9-2.7c0-0.7,0.1-1.4,0.4-1.9
		c0.3-0.6,0.7-1,1.2-1.3s1.1-0.5,1.8-0.5c0.7,0,1.3,0.1,1.9,0.4l-0.2,0.4C414,195.2,413.5,195,412.9,195z"/>
	<path class="st20" d="M419.1,201.8L419,201l0,0c-0.3,0.3-0.5,0.6-0.8,0.7c-0.3,0.1-0.6,0.2-1,0.2c-0.5,0-0.9-0.1-1.2-0.4
		c-0.3-0.3-0.4-0.6-0.4-1.1s0.2-0.9,0.6-1.2s1.1-0.4,1.9-0.5h1v-0.4c0-0.5-0.1-0.9-0.3-1.1s-0.5-0.4-1-0.4s-1,0.1-1.5,0.4l-0.2-0.4
		c0.6-0.3,1.2-0.4,1.7-0.4c0.6,0,1,0.2,1.3,0.5s0.4,0.8,0.4,1.4v3.5H419.1z M417.2,201.5c0.6,0,1-0.2,1.3-0.5s0.5-0.8,0.5-1.3v-0.5
		h-0.9c-0.7,0-1.3,0.2-1.6,0.3c-0.3,0.2-0.5,0.5-0.5,0.9c0,0.3,0.1,0.6,0.3,0.8C416.5,201.4,416.8,201.5,417.2,201.5z"/>
	<path class="st20" d="M424.5,200.4c0,0.5-0.2,0.8-0.5,1.1c-0.4,0.3-0.9,0.4-1.5,0.4c-0.7,0-1.3-0.1-1.7-0.3v-0.5
		c0.5,0.3,1.1,0.4,1.7,0.4c0.5,0,0.9-0.1,1.2-0.3c0.3-0.2,0.4-0.4,0.4-0.7s-0.1-0.5-0.3-0.7c-0.2-0.2-0.6-0.4-1.1-0.5
		c-0.5-0.2-0.9-0.4-1.1-0.5s-0.4-0.3-0.5-0.5s-0.2-0.4-0.2-0.6c0-0.4,0.2-0.7,0.5-0.9s0.8-0.3,1.4-0.3s1.1,0.1,1.6,0.3l-0.2,0.4
		c-0.5-0.2-1-0.3-1.5-0.3c-0.4,0-0.8,0.1-1,0.2s-0.4,0.3-0.4,0.6s0.1,0.5,0.3,0.7c0.2,0.2,0.6,0.4,1.2,0.6c0.5,0.2,0.8,0.3,1,0.5
		c0.2,0.1,0.4,0.3,0.5,0.5C424.5,200,424.5,200.2,424.5,200.4z"/>
	<path class="st20" d="M428,201.9c-0.8,0-1.4-0.2-1.8-0.7s-0.6-1.1-0.6-2c0-0.8,0.2-1.5,0.6-2s1-0.8,1.7-0.8c0.6,0,1.1,0.2,1.5,0.7
		s0.5,1,0.5,1.8v0.4h-3.8c0,0.7,0.2,1.3,0.5,1.7s0.8,0.6,1.4,0.6c0.3,0,0.6,0,0.8-0.1s0.5-0.1,0.9-0.3v0.4c-0.3,0.1-0.6,0.2-0.8,0.3
		C428.6,201.9,428.3,201.9,428,201.9z M427.9,196.8c-0.5,0-0.9,0.2-1.2,0.5c-0.3,0.3-0.5,0.8-0.5,1.5h3.3c0-0.6-0.1-1.1-0.4-1.4
		C428.7,197,428.4,196.8,427.9,196.8z"/>
</g>
<rect x="587.6" y="198.2" class="st6" width="38" height="25.3"/>
<g class="st7">
	<path class="st21" d="M604.2,198.7v4.6c0,0.8-0.2,1.5-0.7,1.9c-0.5,0.5-1.1,0.7-2,0.7c-0.8,0-1.5-0.2-1.9-0.7
		c-0.5-0.5-0.7-1.1-0.7-1.9v-4.6h0.5v4.6c0,0.7,0.2,1.2,0.6,1.6c0.4,0.4,0.9,0.6,1.6,0.6c0.7,0,1.2-0.2,1.6-0.6
		c0.4-0.4,0.6-0.9,0.6-1.6v-4.7L604.2,198.7L604.2,198.7z"/>
	<path class="st21" d="M609.3,204.4c0,0.5-0.2,0.8-0.5,1.1c-0.4,0.3-0.9,0.4-1.5,0.4c-0.7,0-1.3-0.1-1.7-0.3v-0.5
		c0.5,0.3,1.1,0.4,1.7,0.4c0.5,0,0.9-0.1,1.2-0.3s0.4-0.4,0.4-0.7s-0.1-0.5-0.3-0.7s-0.6-0.4-1.1-0.5c-0.5-0.2-0.9-0.4-1.1-0.5
		c-0.2-0.1-0.4-0.3-0.5-0.5s-0.2-0.4-0.2-0.6c0-0.4,0.2-0.7,0.5-0.9s0.8-0.3,1.4-0.3c0.6,0,1.1,0.1,1.6,0.3l-0.2,0.4
		c-0.5-0.2-1-0.3-1.5-0.3c-0.4,0-0.8,0.1-1,0.2s-0.4,0.3-0.4,0.6s0.1,0.5,0.3,0.7s0.6,0.4,1.2,0.6c0.5,0.2,0.8,0.3,1,0.5
		c0.2,0.1,0.4,0.3,0.5,0.5C609.3,204,609.3,204.2,609.3,204.4z"/>
	<path class="st21" d="M612.8,205.9c-0.8,0-1.4-0.2-1.8-0.7c-0.4-0.5-0.6-1.1-0.6-2c0-0.8,0.2-1.5,0.6-2c0.4-0.5,1-0.8,1.7-0.8
		c0.6,0,1.1,0.2,1.5,0.7s0.5,1,0.5,1.8v0.4h-3.8c0,0.7,0.2,1.3,0.5,1.7s0.8,0.6,1.4,0.6c0.3,0,0.6,0,0.8-0.1s0.5-0.1,0.9-0.3v0.4
		c-0.3,0.1-0.6,0.2-0.8,0.3C613.4,205.9,613.1,205.9,612.8,205.9z M612.7,200.8c-0.5,0-0.9,0.2-1.2,0.5s-0.5,0.8-0.5,1.5h3.3
		c0-0.6-0.1-1.1-0.4-1.4C613.5,201,613.1,200.8,612.7,200.8z"/>
</g>
<g class="st7">
	<path class="st21" d="M599.8,212c-0.9,0-1.6,0.3-2.1,0.9c-0.5,0.6-0.8,1.4-0.8,2.4s0.2,1.8,0.7,2.4c0.5,0.6,1.2,0.8,2.1,0.8
		c0.6,0,1.1-0.1,1.7-0.2v0.4c-0.5,0.2-1.1,0.2-1.8,0.2c-1,0-1.8-0.3-2.4-1s-0.9-1.6-0.9-2.7c0-0.7,0.1-1.4,0.4-1.9
		c0.3-0.6,0.7-1,1.2-1.3s1.1-0.5,1.8-0.5s1.3,0.1,1.9,0.4l-0.2,0.4C600.9,212.2,600.4,212,599.8,212z"/>
	<path class="st21" d="M606.1,218.8L606,218l0,0c-0.3,0.3-0.5,0.6-0.8,0.7c-0.3,0.1-0.6,0.2-1,0.2c-0.5,0-0.9-0.1-1.2-0.4
		c-0.3-0.3-0.4-0.6-0.4-1.1s0.2-0.9,0.6-1.2c0.4-0.3,1.1-0.4,1.9-0.5h1v-0.4c0-0.5-0.1-0.9-0.3-1.1s-0.5-0.4-1-0.4s-1,0.1-1.5,0.4
		l-0.2-0.4c0.6-0.3,1.2-0.4,1.7-0.4c0.6,0,1,0.2,1.3,0.5s0.4,0.8,0.4,1.4v3.5H606.1z M604.1,218.5c0.6,0,1-0.2,1.3-0.5
		s0.5-0.8,0.5-1.3v-0.5H605c-0.7,0-1.3,0.2-1.6,0.3c-0.3,0.2-0.5,0.5-0.5,0.9c0,0.3,0.1,0.6,0.3,0.8
		C603.4,218.4,603.7,218.5,604.1,218.5z"/>
	<path class="st21" d="M611.4,217.4c0,0.5-0.2,0.8-0.5,1.1c-0.4,0.3-0.9,0.4-1.5,0.4c-0.7,0-1.3-0.1-1.7-0.3v-0.5
		c0.5,0.3,1.1,0.4,1.7,0.4c0.5,0,0.9-0.1,1.2-0.3s0.4-0.4,0.4-0.7s-0.1-0.5-0.3-0.7s-0.6-0.4-1.1-0.5c-0.5-0.2-0.9-0.4-1.1-0.5
		c-0.2-0.1-0.4-0.3-0.5-0.5s-0.2-0.4-0.2-0.6c0-0.4,0.2-0.7,0.5-0.9s0.8-0.3,1.4-0.3c0.6,0,1.1,0.1,1.6,0.3l-0.2,0.4
		c-0.5-0.2-1-0.3-1.5-0.3c-0.4,0-0.8,0.1-1,0.2s-0.4,0.3-0.4,0.6s0.1,0.5,0.3,0.7s0.6,0.4,1.2,0.6c0.5,0.2,0.8,0.3,1,0.5
		c0.2,0.1,0.4,0.3,0.5,0.5C611.4,217,611.4,217.2,611.4,217.4z"/>
	<path class="st21" d="M614.9,218.9c-0.8,0-1.4-0.2-1.8-0.7c-0.4-0.5-0.6-1.1-0.6-2c0-0.8,0.2-1.5,0.6-2c0.4-0.5,1-0.8,1.7-0.8
		c0.6,0,1.1,0.2,1.5,0.7s0.5,1,0.5,1.8v0.4H613c0,0.7,0.2,1.3,0.5,1.7s0.8,0.6,1.4,0.6c0.3,0,0.6,0,0.8-0.1s0.5-0.1,0.9-0.3v0.4
		c-0.3,0.1-0.6,0.2-0.8,0.3C615.5,218.9,615.2,218.9,614.9,218.9z M614.8,213.8c-0.5,0-0.9,0.2-1.2,0.5s-0.5,0.8-0.5,1.5h3.3
		c0-0.6-0.1-1.1-0.4-1.4C615.6,214,615.3,213.8,614.8,213.8z"/>
</g>
<rect x="587.6" y="46.2" class="st6" width="38" height="25.3"/>
<g class="st7">
	<path class="st20" d="M604.2,46.7v4.6c0,0.8-0.2,1.5-0.7,1.9c-0.5,0.5-1.1,0.7-2,0.7c-0.8,0-1.5-0.2-1.9-0.7
		c-0.5-0.5-0.7-1.1-0.7-1.9v-4.6h0.5v4.6c0,0.7,0.2,1.2,0.6,1.6c0.4,0.4,0.9,0.6,1.6,0.6c0.7,0,1.2-0.2,1.6-0.6
		c0.4-0.4,0.6-0.9,0.6-1.6v-4.7h0.4V46.7z"/>
	<path class="st20" d="M609.3,52.4c0,0.5-0.2,0.8-0.5,1.1c-0.4,0.3-0.9,0.4-1.5,0.4c-0.7,0-1.3-0.1-1.7-0.3v-0.5
		c0.5,0.3,1.1,0.4,1.7,0.4c0.5,0,0.9-0.1,1.2-0.3s0.4-0.4,0.4-0.7s-0.1-0.5-0.3-0.7s-0.6-0.4-1.1-0.5c-0.5-0.2-0.9-0.4-1.1-0.5
		c-0.2-0.1-0.4-0.3-0.5-0.5s-0.2-0.4-0.2-0.6c0-0.4,0.2-0.7,0.5-0.9s0.8-0.3,1.4-0.3c0.6,0,1.1,0.1,1.6,0.3l-0.2,0.4
		c-0.5-0.2-1-0.3-1.5-0.3c-0.4,0-0.8,0.1-1,0.2s-0.4,0.3-0.4,0.6s0.1,0.5,0.3,0.7s0.6,0.4,1.2,0.6c0.5,0.2,0.8,0.3,1,0.5
		c0.2,0.1,0.4,0.3,0.5,0.5C609.3,52,609.3,52.2,609.3,52.4z"/>
	<path class="st20" d="M612.8,53.9c-0.8,0-1.4-0.2-1.8-0.7c-0.4-0.5-0.6-1.1-0.6-2c0-0.8,0.2-1.5,0.6-2c0.4-0.5,1-0.8,1.7-0.8
		c0.6,0,1.1,0.2,1.5,0.7s0.5,1,0.5,1.8v0.4h-3.8c0,0.7,0.2,1.3,0.5,1.7s0.8,0.6,1.4,0.6c0.3,0,0.6,0,0.8-0.1s0.5-0.1,0.9-0.3v0.4
		c-0.3,0.1-0.6,0.2-0.8,0.3C613.4,53.9,613.1,53.9,612.8,53.9z M612.7,48.8c-0.5,0-0.9,0.2-1.2,0.5s-0.5,0.8-0.5,1.5h3.3
		c0-0.6-0.1-1.1-0.4-1.4C613.5,49,613.2,48.8,612.7,48.8z"/>
</g>
<g class="st7">
	<path class="st20" d="M599.8,60c-0.9,0-1.6,0.3-2.1,0.9c-0.5,0.6-0.8,1.4-0.8,2.4s0.2,1.8,0.7,2.4s1.2,0.8,2.1,0.8
		c0.6,0,1.1-0.1,1.7-0.2v0.4c-0.5,0.2-1.1,0.2-1.8,0.2c-1,0-1.8-0.3-2.4-1s-0.9-1.6-0.9-2.7c0-0.7,0.1-1.4,0.4-1.9
		c0.3-0.6,0.7-1,1.2-1.3s1.1-0.5,1.8-0.5s1.3,0.1,1.9,0.4l-0.2,0.4C600.9,60.2,600.4,60,599.8,60z"/>
	<path class="st20" d="M606.1,66.8L606,66l0,0c-0.3,0.3-0.5,0.6-0.8,0.7s-0.6,0.2-1,0.2c-0.5,0-0.9-0.1-1.2-0.4s-0.4-0.6-0.4-1.1
		s0.2-0.9,0.6-1.2c0.4-0.3,1.1-0.4,1.9-0.5h1v-0.4c0-0.5-0.1-0.9-0.3-1.1s-0.5-0.4-1-0.4s-1,0.1-1.5,0.4l-0.2-0.4
		c0.6-0.3,1.2-0.4,1.7-0.4c0.6,0,1,0.2,1.3,0.5s0.4,0.8,0.4,1.4v3.5C606.5,66.8,606.1,66.8,606.1,66.8z M604.1,66.5
		c0.6,0,1-0.2,1.3-0.5s0.5-0.8,0.5-1.3v-0.5H605c-0.7,0-1.3,0.2-1.6,0.3c-0.3,0.2-0.5,0.5-0.5,0.9c0,0.3,0.1,0.6,0.3,0.8
		C603.5,66.4,603.7,66.5,604.1,66.5z"/>
	<path class="st20" d="M611.4,65.4c0,0.5-0.2,0.8-0.5,1.1c-0.4,0.3-0.9,0.4-1.5,0.4c-0.7,0-1.3-0.1-1.7-0.3v-0.5
		c0.5,0.3,1.1,0.4,1.7,0.4c0.5,0,0.9-0.1,1.2-0.3c0.3-0.2,0.4-0.4,0.4-0.7c0-0.3-0.1-0.5-0.3-0.7s-0.6-0.4-1.1-0.5
		c-0.5-0.2-0.9-0.4-1.1-0.5c-0.2-0.1-0.4-0.3-0.5-0.5s-0.2-0.4-0.2-0.6c0-0.4,0.2-0.7,0.5-0.9s0.8-0.3,1.4-0.3
		c0.6,0,1.1,0.1,1.6,0.3l-0.2,0.4c-0.5-0.2-1-0.3-1.5-0.3c-0.4,0-0.8,0.1-1,0.2s-0.4,0.3-0.4,0.6s0.1,0.5,0.3,0.7s0.6,0.4,1.2,0.6
		c0.5,0.2,0.8,0.3,1,0.5c0.2,0.1,0.4,0.3,0.5,0.5C611.4,65,611.4,65.2,611.4,65.4z"/>
	<path class="st20" d="M614.9,66.9c-0.8,0-1.4-0.2-1.8-0.7c-0.4-0.5-0.6-1.1-0.6-2c0-0.8,0.2-1.5,0.6-2c0.4-0.5,1-0.8,1.7-0.8
		c0.6,0,1.1,0.2,1.5,0.7s0.5,1,0.5,1.8v0.4H613c0,0.7,0.2,1.3,0.5,1.7c0.3,0.4,0.8,0.6,1.4,0.6c0.3,0,0.6,0,0.8-0.1s0.5-0.1,0.9-0.3
		v0.4c-0.3,0.1-0.6,0.2-0.8,0.3C615.5,66.9,615.2,66.9,614.9,66.9z M614.8,61.8c-0.5,0-0.9,0.2-1.2,0.5s-0.5,0.8-0.5,1.5h3.3
		c0-0.6-0.1-1.1-0.4-1.4C615.6,62,615.3,61.8,614.8,61.8z"/>
</g>
<rect x="632.1" y="123.2" class="st6" width="38" height="25.3"/>
<g class="st7">
	<path class="st21" d="M648.7,123.7v4.6c0,0.8-0.2,1.5-0.7,1.9c-0.5,0.5-1.1,0.7-2,0.7c-0.8,0-1.5-0.2-1.9-0.7
		c-0.5-0.5-0.7-1.1-0.7-1.9v-4.6h0.5v4.6c0,0.7,0.2,1.2,0.6,1.6c0.4,0.4,0.9,0.6,1.6,0.6c0.7,0,1.2-0.2,1.6-0.6
		c0.4-0.4,0.6-0.9,0.6-1.6v-4.7L648.7,123.7L648.7,123.7z"/>
	<path class="st21" d="M653.8,129.4c0,0.5-0.2,0.8-0.5,1.1c-0.4,0.3-0.9,0.4-1.5,0.4c-0.7,0-1.3-0.1-1.7-0.3v-0.5
		c0.5,0.3,1.1,0.4,1.7,0.4c0.5,0,0.9-0.1,1.2-0.3s0.4-0.4,0.4-0.7s-0.1-0.5-0.3-0.7s-0.6-0.4-1.1-0.5c-0.5-0.2-0.9-0.4-1.1-0.5
		c-0.2-0.1-0.4-0.3-0.5-0.5s-0.2-0.4-0.2-0.6c0-0.4,0.2-0.7,0.5-0.9c0.3-0.2,0.8-0.3,1.4-0.3c0.6,0,1.1,0.1,1.6,0.3l-0.2,0.4
		c-0.5-0.2-1-0.3-1.5-0.3c-0.4,0-0.8,0.1-1,0.2s-0.4,0.3-0.4,0.6c0,0.3,0.1,0.5,0.3,0.7s0.6,0.4,1.2,0.6c0.5,0.2,0.8,0.3,1,0.5
		c0.2,0.1,0.4,0.3,0.5,0.5C653.7,129,653.8,129.2,653.8,129.4z"/>
	<path class="st21" d="M657.3,130.9c-0.8,0-1.4-0.2-1.8-0.7c-0.4-0.5-0.6-1.1-0.6-2c0-0.8,0.2-1.5,0.6-2c0.4-0.5,1-0.8,1.7-0.8
		c0.6,0,1.1,0.2,1.5,0.7s0.5,1,0.5,1.8v0.4h-3.8c0,0.7,0.2,1.3,0.5,1.7s0.8,0.6,1.4,0.6c0.3,0,0.6,0,0.8-0.1s0.5-0.1,0.9-0.3v0.4
		c-0.3,0.1-0.6,0.2-0.8,0.3C657.9,130.9,657.6,130.9,657.3,130.9z M657.1,125.8c-0.5,0-0.9,0.2-1.2,0.5s-0.5,0.8-0.5,1.5h3.3
		c0-0.6-0.1-1.1-0.4-1.4C658,126,657.6,125.8,657.1,125.8z"/>
</g>
<g class="st7">
	<path class="st21" d="M644.3,137c-0.9,0-1.6,0.3-2.1,0.9c-0.5,0.6-0.8,1.4-0.8,2.4s0.2,1.8,0.7,2.4c0.5,0.6,1.2,0.8,2.1,0.8
		c0.6,0,1.1-0.1,1.7-0.2v0.4c-0.5,0.2-1.1,0.2-1.8,0.2c-1,0-1.8-0.3-2.4-1s-0.9-1.6-0.9-2.7c0-0.7,0.1-1.4,0.4-1.9
		c0.3-0.6,0.7-1,1.2-1.3s1.1-0.5,1.8-0.5s1.3,0.1,1.9,0.4l-0.2,0.4C645.4,137.2,644.8,137,644.3,137z"/>
	<path class="st21" d="M650.5,143.8l-0.1-0.8l0,0c-0.3,0.3-0.5,0.6-0.8,0.7c-0.3,0.1-0.6,0.2-1,0.2c-0.5,0-0.9-0.1-1.2-0.4
		c-0.3-0.3-0.4-0.6-0.4-1.1s0.2-0.9,0.6-1.2c0.4-0.3,1.1-0.4,1.9-0.5h1v-0.4c0-0.5-0.1-0.9-0.3-1.1s-0.5-0.4-1-0.4s-1,0.1-1.5,0.4
		l-0.2-0.4c0.6-0.3,1.2-0.4,1.7-0.4c0.6,0,1,0.2,1.3,0.5s0.4,0.8,0.4,1.4v3.5H650.5z M648.6,143.5c0.6,0,1-0.2,1.3-0.5
		s0.5-0.8,0.5-1.3v-0.5h-0.9c-0.7,0-1.3,0.2-1.6,0.3c-0.3,0.2-0.5,0.5-0.5,0.9c0,0.3,0.1,0.6,0.3,0.8
		C647.9,143.4,648.2,143.5,648.6,143.5z"/>
	<path class="st21" d="M655.9,142.4c0,0.5-0.2,0.8-0.5,1.1c-0.4,0.3-0.9,0.4-1.5,0.4c-0.7,0-1.3-0.1-1.7-0.3v-0.5
		c0.5,0.3,1.1,0.4,1.7,0.4c0.5,0,0.9-0.1,1.2-0.3s0.4-0.4,0.4-0.7s-0.1-0.5-0.3-0.7s-0.6-0.4-1.1-0.5c-0.5-0.2-0.9-0.4-1.1-0.5
		c-0.2-0.1-0.4-0.3-0.5-0.5s-0.2-0.4-0.2-0.6c0-0.4,0.2-0.7,0.5-0.9s0.8-0.3,1.4-0.3c0.6,0,1.1,0.1,1.6,0.3l-0.2,0.4
		c-0.5-0.2-1-0.3-1.5-0.3c-0.4,0-0.8,0.1-1,0.2s-0.4,0.3-0.4,0.6s0.1,0.5,0.3,0.7s0.6,0.4,1.2,0.6c0.5,0.2,0.8,0.3,1,0.5
		c0.2,0.1,0.4,0.3,0.5,0.5C655.8,142,655.9,142.2,655.9,142.4z"/>
	<path class="st21" d="M659.4,143.9c-0.8,0-1.4-0.2-1.8-0.7c-0.4-0.5-0.6-1.1-0.6-2c0-0.8,0.2-1.5,0.6-2c0.4-0.5,1-0.8,1.7-0.8
		c0.6,0,1.1,0.2,1.5,0.7s0.5,1,0.5,1.8v0.4h-3.8c0,0.7,0.2,1.3,0.5,1.7s0.8,0.6,1.4,0.6c0.3,0,0.6,0,0.8-0.1s0.5-0.1,0.9-0.3v0.4
		c-0.3,0.1-0.6,0.2-0.8,0.3C660,143.9,659.7,143.9,659.4,143.9z M659.3,138.8c-0.5,0-0.9,0.2-1.2,0.5s-0.5,0.8-0.5,1.5h3.3
		c0-0.6-0.1-1.1-0.4-1.4C660.1,139,659.7,138.8,659.3,138.8z"/>
</g>
</svg>
