<?xml version="1.0" encoding="iso-8859-1"?>
<!-- Generator: Adobe Illustrator 19.0.0, SVG Export Plug-In . SVG Version: 6.00 Build 0)  -->
<svg version="1.1" id="Layer_1" xmlns="http://www.w3.org/2000/svg" xmlns:xlink="http://www.w3.org/1999/xlink" x="0px" y="0px"
	 viewBox="0 0 474.145 474.145" style="enable-background:new 0 0 474.145 474.145;" xml:space="preserve">
<g>
	<g>
		<g id="XMLID_41_">
			<g>
				<path style="fill:#AFB6BB;" d="M391.9,348.259c27.258,27.258,28.655,70.191,1.298,97.448
					c-27.258,27.358-72.388,28.156-99.745,0.899c-21.067-21.067-23.064-54.915-16.075-76.082l-40.238-40.337l-40.337,40.337
					c6.989,21.167,4.992,55.014-16.075,76.082c-27.357,27.258-72.487,26.459-99.745-0.899c-27.258-27.258-25.96-70.191,1.298-97.448
					c21.067-21.067,50.921-27.158,79.277-13.08l40.238-40.237L101.152,194.199l3.495-67.096l132.494,132.494l132.394-132.494
					l3.594,67.096L272.386,294.942l40.337,40.237C340.98,321.101,370.833,327.192,391.9,348.259z"/>
			</g>
			<g>
				<g>
					<path d="M342.496,474.143c-20.667,0.001-39.93-7.87-54.336-22.224c-21.152-21.151-25.539-54.843-19.226-79.24l-31.799-31.878
						l-31.885,31.885c6.31,24.396,1.922,58.084-19.218,79.225c-14.637,14.583-34.283,22.473-55.301,22.228
						c-20.885-0.245-40.439-8.461-55.06-23.136c-29.922-29.923-29.353-77.387,1.308-108.047
						c22.663-22.663,54.022-28.86,82.957-16.759l31.256-31.257l-97.703-97.801l4.545-87.256l139.105,139.105l138.985-139.09
						l4.674,87.238L283,294.935l31.336,31.259c28.87-12.114,60.192-5.914,82.868,16.761c15.069,15.069,23.358,34.742,23.339,55.395
						c-0.018,19.816-7.849,38.521-22.051,52.671c-14.602,14.656-34.155,22.872-55.041,23.117
						C343.133,474.142,342.813,474.143,342.496,474.143z M237.147,319.574l48.799,48.92l-1.447,4.382
						c-6.682,20.237-3.931,50.239,14.257,68.427c11.739,11.696,27.555,18.003,44.519,17.836c16.935-0.198,32.777-6.849,44.61-18.725
						c11.379-11.337,17.643-26.274,17.657-42.078c0.015-16.641-6.713-32.542-18.945-44.773
						c-19.563-19.564-45.929-23.926-70.529-11.67l-4.825,2.404l-49.47-49.348L365.462,191.26l-2.516-46.952L237.143,270.205
						L111.26,144.322l-2.444,46.935L212.4,294.945l-49.349,49.349l-4.827-2.396c-24.677-12.254-51.084-7.891-70.639,11.665
						c-11.886,11.886-18.597,27.355-18.897,43.56c-0.3,16.262,5.95,31.633,17.599,43.282c11.842,11.886,27.685,18.536,44.62,18.734
						c16.959,0.204,32.779-6.139,44.528-17.845c18.178-18.179,20.929-48.181,14.247-68.418l-1.449-4.388L237.147,319.574z"/>
				</g>
			</g>
		</g>
		<g id="XMLID_42_">
			<g>
				<path style="fill:#E7ECED;" d="M130.806,369.925c15.176,0,27.457,12.281,27.457,27.457s-12.281,27.457-27.457,27.457
					s-27.457-12.281-27.457-27.457S115.63,369.925,130.806,369.925z"/>
				<path style="fill:#E7ECED;" d="M340.48,369.925c15.176,0,27.457,12.281,27.457,27.457s-12.281,27.457-27.457,27.457
					s-27.457-12.281-27.457-27.457S325.304,369.925,340.48,369.925z"/>
			</g>
			<g>
				<g>
					<path d="M340.48,432.34c-19.276,0-34.958-15.682-34.958-34.957s15.682-34.957,34.958-34.957
						c19.275,0,34.957,15.682,34.957,34.957S359.756,432.34,340.48,432.34z M340.48,377.426c-11.004,0-19.958,8.953-19.958,19.957
						s8.953,19.957,19.958,19.957s19.957-8.953,19.957-19.957S351.485,377.426,340.48,377.426z"/>
				</g>
				<g>
					<path d="M130.806,432.34c-19.275,0-34.957-15.682-34.957-34.957s15.682-34.957,34.957-34.957
						c19.276,0,34.958,15.682,34.958,34.957S150.082,432.34,130.806,432.34z M130.806,377.426c-11.004,0-19.957,8.953-19.957,19.957
						s8.953,19.957,19.957,19.957s19.958-8.953,19.958-19.957S141.811,377.426,130.806,377.426z"/>
				</g>
			</g>
		</g>
	</g>
	<g>
		<rect x="229.641" width="15" height="59.907"/>
	</g>
	<g>
		<rect x="229.641" y="79.876" width="15" height="59.907"/>
	</g>
	<g>
		<rect x="229.641" y="159.752" width="15" height="59.907"/>
	</g>
</g>
<g>
</g>
<g>
</g>
<g>
</g>
<g>
</g>
<g>
</g>
<g>
</g>
<g>
</g>
<g>
</g>
<g>
</g>
<g>
</g>
<g>
</g>
<g>
</g>
<g>
</g>
<g>
</g>
<g>
</g>
</svg>
