<?xml version="1.0" encoding="iso-8859-1"?>
<!-- Generator: Adobe Illustrator 19.0.0, SVG Export Plug-In . SVG Version: 6.00 Build 0)  -->
<svg version="1.1" id="Layer_1" xmlns="http://www.w3.org/2000/svg" xmlns:xlink="http://www.w3.org/1999/xlink" x="0px" y="0px"
	 viewBox="0 0 495.7 495.7" style="enable-background:new 0 0 495.7 495.7;" xml:space="preserve">
<path style="fill:#D1DBD6;" d="M331.8,163.85c46.4,46.4,46.4,122.4,0,168.8s-122.4,46.4-168.8,0s-46.4-122.4,0-168.8
	C210.2,116.65,285.4,116.65,331.8,163.85 M423,72.65c-96.8-96.8-253.6-96.8-350.4,0s-96.8,253.6,0,350.4s253.6,96.8,350.4,0
	S519.8,169.45,423,72.65L423,72.65z"/>
<path style="fill:#C5D1CA;" d="M267,0.65c-56.8,4.8-112.8,28-156,72c-96.8,96.8-96.8,253.6,0,350.4c43.2,43.2,99.2,67.2,156,72
	c56.8-4.8,112.8-28,156-72c96.8-96.8,96.8-253.6,0-350.4C379.8,28.65,323.8,5.45,267,0.65z M371,331.85c-28,28-67.2,39.2-104,33.6
	c-36.8,5.6-75.2-4.8-104-33.6c-46.4-46.4-46.4-122.4,0-168.8c28-28,67.2-39.2,104-33.6c36.8-5.6,75.2,4.8,104,33.6
	C417.4,210.25,417.4,285.45,371,331.85z"/>
<path style="fill:#B9C6BE;" d="M423,72.65c-3.2-3.2-5.6-5.6-8.8-8.8c-0.8-0.8-2.4-1.6-3.2-2.4c-2.4-1.6-4-3.2-6.4-5.6
	c-1.6-0.8-2.4-2.4-4-3.2c-1.6-1.6-4-3.2-5.6-4c-0.8-0.8-2.4-1.6-3.2-3.2c-1.6-1.6-4-2.4-5.6-4c-1.6-0.8-3.2-1.6-4.8-3.2
	c-1.6-0.8-4-2.4-5.6-3.2s-3.2-1.6-4.8-2.4c-1.6-0.8-3.2-1.6-5.6-3.2c-1.6-0.8-3.2-1.6-4.8-2.4c-1.6-0.8-4-1.6-5.6-3.2
	c-1.6,0-3.2-0.8-4.8-1.6c-2.4-0.8-5.6-2.4-8-3.2c-2.4-0.8-4.8-2.4-8-3.2c-1.6-0.8-3.2-1.6-5.6-1.6c-1.6-0.8-4-1.6-5.6-1.6
	c-1.6-0.8-3.2-0.8-4.8-1.6c-2.4-0.8-4-0.8-6.4-1.6c-0.8-1.6-2.4-1.6-4-2.4c-2.4-0.8-4-0.8-6.4-1.6c-1.6,0-3.2-0.8-4.8-0.8
	c-2.4-0.8-4-0.8-6.4-0.8c-1.6,0-3.2-0.8-4.8-0.8c-2.4,0-4-0.8-6.4-0.8c-1.6,0-3.2,0-4.8-0.8c-2.4,0-4.8-0.8-6.4-0.8h0.8
	c-7.2,0.8-12.8,1.6-20.8,2.4v125.6c0,0,2.4,0,4,0s2.4,0,4,0c4,0,7.2,0.8,10.4,0.8c0.8,0,0.8,0,1.6,0c36.8-5.6,75.2,4.8,104,33.6
	c46.4,46.4,46.4,122.4,0,168.8c-28,28-67.2,39.2-104,33.6c-0.8,0-0.8,0-1.6,0c-4,0.8-7.2,0.8-11.2,0.8c-1.6,0-1.6,0-3.2,0s-4,0-4,0
	v125.6c8,1.6,13.6,2.4,20.8,2.4l0,0c2.4,0,4-0.8,6.4-0.8c1.6,0,3.2,0,4.8-0.8c2.4,0,4-0.8,6.4-0.8c1.6,0,3.2-0.8,4.8-0.8
	c2.4,0,4-0.8,6.4-0.8c1.6,0,3.2-0.8,4.8-0.8c2.4-0.8,4-0.8,6.4-1.6c1.6-0.8,3.2-0.8,4.8-1.6c2.4-0.8,4-0.8,6.4-1.6
	c1.6-0.8,3.2-0.8,4.8-1.6c1.6-0.8,4-1.6,5.6-1.6c1.6-0.8,3.2-1.6,5.6-1.6c2.4-0.8,4.8-1.6,7.2-3.2c2.4-0.8,5.6-2.4,8-3.2
	c1.6-0.8,3.2-1.6,4.8-2.4c1.6-0.8,4-1.6,5.6-3.2c1.6-0.8,3.2-1.6,4.8-2.4c1.6-0.8,4-2.4,5.6-3.2c1.6-0.8,3.2-1.6,4.8-2.4
	c1.6-0.8,4-2.4,5.6-3.2c1.6-0.8,3.2-1.6,4-3.2c1.6-1.6,4-2.4,5.6-4c1.6-0.8,2.4-1.6,4-3.2s4-3.2,5.6-4.8c1.6-0.8,2.4-1.6,4-3.2
	c2.4-1.6,4-3.2,6.4-5.6c0.8-0.8,2.4-1.6,3.2-2.4c3.2-2.4,5.6-5.6,8.8-8.8C519.8,326.25,519.8,169.45,423,72.65z"/>
<path style="fill:#F79406;" d="M370.2,31.85l-73.6,107.2c12.8,5.6,24.8,13.6,36,24.8c10.4,10.4,18.4,23.2,24.8,36l106.4-74.4
	c-10.4-19.2-24-36.8-40.8-53.6C407,56.65,388.6,43.05,370.2,31.85z"/>
<path id="SVGCleanerId_0" style="fill:#F79406;" d="M125.4,463.85l73.6-107.2c-12.8-5.6-24.8-13.6-36-24.8
	c-10.4-10.4-18.4-23.2-24.8-36l-106.4,74.4c10.4,19.2,24,36.8,40.8,53.6C88.6,439.05,107,452.65,125.4,463.85z"/>
<g>
	<path style="fill:#F79406;" d="M331.8,331.85c-10.4,10.4-23.2,18.4-36,24.8l74.4,107.2c19.2-10.4,36.8-24,53.6-40.8
		s29.6-34.4,40.8-53.6l-107.2-73.6C351,309.45,343,321.45,331.8,331.85z"/>
	<path style="fill:#F79406;" d="M163.8,163.85c10.4-10.4,23.2-18.4,36-24.8l-74.4-107.2c-19.2,10.4-36.8,24-53.6,40.8
		s-28.8,34.4-40,52.8l107.2,73.6C144.6,186.25,152.6,174.25,163.8,163.85z"/>
</g>
<path style="fill:#F46D08;" d="M370.2,31.85l-73.6,107.2c12.8,5.6,24.8,13.6,36,24.8c10.4,10.4,18.4,23.2,24.8,36l106.4-74.4
	c-10.4-19.2-24-36.8-40.8-53.6C407,56.65,388.6,43.05,370.2,31.85z"/>
<path style="fill:#E05A00;" d="M411,61.45c-0.8-0.8-1.6-1.6-2.4-2.4c-3.2-2.4-6.4-5.6-9.6-8c-0.8-0.8-1.6-0.8-2.4-1.6
	c-4-3.2-8-5.6-12.8-8.8c0,0-0.8,0-0.8-0.8c-4.8-3.2-8.8-5.6-13.6-8l0,0l-67.2,97.6c24.8,3.2,48.8,14.4,68,33.6
	c4.8,4.8,9.6,10.4,13.6,16.8l79.2-54.4l0,0c-5.6-9.6-11.2-18.4-17.6-27.2c-0.8-0.8-0.8-0.8-1.6-1.6c-2.4-3.2-5.6-7.2-8-10.4
	c-0.8-0.8-1.6-1.6-2.4-3.2c-3.2-4-7.2-8-10.4-11.2C419.8,68.65,415.8,65.45,411,61.45C411.8,61.45,411.8,61.45,411,61.45z"/>
<g>
	<path id="SVGCleanerId_0_1_" style="fill:#F79406;" d="M125.4,463.85l73.6-107.2c-12.8-5.6-24.8-13.6-36-24.8
		c-10.4-10.4-18.4-23.2-24.8-36l-106.4,74.4c10.4,19.2,24,36.8,40.8,53.6C88.6,439.05,107,452.65,125.4,463.85z"/>
</g>
<g>
	<path style="fill:#F46D08;" d="M125.4,463.85l73.6-107.2c-12.8-5.6-24.8-13.6-36-24.8c-10.4-10.4-18.4-23.2-24.8-36"/>
	<path style="fill:#F46D08;" d="M331.8,331.85c-10.4,10.4-23.2,18.4-36,24.8l74.4,107.2c19.2-10.4,36.8-24,53.6-40.8
		s29.6-34.4,40.8-53.6l-107.2-73.6C351,309.45,343,321.45,331.8,331.85z"/>
</g>
<path style="fill:#E05A00;" d="M436.6,408.65c3.2-3.2,5.6-6.4,8-10.4c0.8-0.8,0.8-1.6,1.6-1.6c6.4-8.8,12.8-17.6,17.6-27.2l0,0
	l-79.2-54.4c-4,5.6-8.8,11.2-13.6,16.8c-19.2,19.2-43.2,30.4-68,33.6l67.2,98.4l0,0c4.8-2.4,8.8-5.6,13.6-8c0,0,0.8,0,0.8-0.8
	c4-2.4,8-5.6,12-8.8c0.8-0.8,1.6-0.8,2.4-1.6c3.2-2.4,6.4-5.6,9.6-8c0.8-0.8,1.6-1.6,2.4-2.4c0,0,0.8,0,0.8-0.8
	c4-3.2,7.2-7.2,11.2-10.4c4-4,7.2-7.2,10.4-11.2C435,411.05,435.8,410.25,436.6,408.65z"/>
<path style="fill:#F46D08;" d="M139,199.05c5.6-12.8,13.6-24.8,24.8-36c10.4-10.4,23.2-18.4,36-24.8l-74.4-106.4"/>
<g>
</g>
<g>
</g>
<g>
</g>
<g>
</g>
<g>
</g>
<g>
</g>
<g>
</g>
<g>
</g>
<g>
</g>
<g>
</g>
<g>
</g>
<g>
</g>
<g>
</g>
<g>
</g>
<g>
</g>
</svg>
