<?xml version="1.0" encoding="iso-8859-1"?>
<!-- Generator: Adobe Illustrator 19.0.0, SVG Export Plug-In . SVG Version: 6.00 Build 0)  -->
<svg version="1.1" id="Layer_1" xmlns="http://www.w3.org/2000/svg" xmlns:xlink="http://www.w3.org/1999/xlink" x="0px" y="0px"
	 viewBox="0 0 512 512" style="enable-background:new 0 0 512 512;" xml:space="preserve">
<circle style="fill:#324A5E;" cx="256" cy="256" r="256"/>
<path style="fill:#2B3B4E;" d="M344.836,145.58l-29.449,29.449l-4.579,71.704l-93.968-93.915l-1.395,2.574l-21.583-22.725
	l-54.582,31.03l-4.884,8.332l-8.39,217.559l122.282,122.282c68.063,2.039,136.787-22.9,188.737-74.852
	c51.274-51.276,76.241-118.889,74.921-186.084L404.29,142.419L344.836,145.58z"/>
<path style="fill:#FFD15D;" d="M369.654,107.787l-8.533,8.532l19.542,19.542h-18.832c-28.598,0-51.862,23.266-51.862,51.864v155.82
	c0,21.944-17.851,39.795-39.795,39.795s-39.796-17.851-39.796-39.795v-155.82c0-28.598-23.266-51.864-51.862-51.864
	c-28.598,0-51.862,23.266-51.862,51.864v201.649h12.067V187.726c0-21.944,17.851-39.796,39.795-39.796s39.795,17.851,39.795,39.796
	v155.82c0,28.596,23.266,51.862,51.864,51.862s51.862-23.266,51.862-51.862v-155.82c0-21.944,17.851-39.796,39.795-39.796h19.88
	l-20.589,20.589l8.533,8.532l34.632-34.632L369.654,107.787z"/>
<path style="fill:#F9B54C;" d="M369.654,107.787l-8.533,8.532l19.542,19.542h-18.832c-28.598,0-51.862,23.266-51.862,51.864v155.82
	c0,21.876-17.746,39.683-39.6,39.789v12.067c28.508-0.107,51.667-23.326,51.667-51.857v-155.82
	c0-21.944,17.851-39.796,39.795-39.796h19.88l-20.589,20.589l8.533,8.532l34.632-34.632L369.654,107.787z"/>
<circle style="fill:#7DCC93;" cx="315.578" cy="265.637" r="19.323"/>
<g>
	<circle style="fill:#90DFAA;" cx="225.987" cy="265.637" r="19.323"/>
	<circle style="fill:#90DFAA;" cx="179.976" cy="146.101" r="19.323"/>
	<circle style="fill:#90DFAA;" cx="132.12" cy="265.637" r="19.323"/>
	<circle style="fill:#90DFAA;" cx="270.153" cy="385.345" r="19.323"/>
</g>
<path style="fill:#7DCC93;" d="M289.473,385.343c0-10.599-8.535-19.194-19.106-19.313v38.626
	C280.938,404.539,289.473,395.941,289.473,385.343z"/>
<g>
</g>
<g>
</g>
<g>
</g>
<g>
</g>
<g>
</g>
<g>
</g>
<g>
</g>
<g>
</g>
<g>
</g>
<g>
</g>
<g>
</g>
<g>
</g>
<g>
</g>
<g>
</g>
<g>
</g>
</svg>
