<?xml version="1.0" encoding="iso-8859-1"?>
<!-- Generator: Adobe Illustrator 19.0.0, SVG Export Plug-In . SVG Version: 6.00 Build 0)  -->
<svg version="1.1" id="Layer_1" xmlns="http://www.w3.org/2000/svg" xmlns:xlink="http://www.w3.org/1999/xlink" x="0px" y="0px"
	 viewBox="0 0 511.999 511.999" style="enable-background:new 0 0 511.999 511.999;" xml:space="preserve">
<g>
	<path style="fill:#1D1D1F;" d="M260.096,485.414v21.663c0,0,4.952,6.954,14.236,4.332c9.284-2.621,41.832-19.543,39.427-24.849
		c-5.85-12.904-20.007-4.154-37.997-2.748C265.858,484.584,260.096,485.414,260.096,485.414z"/>
	<path style="fill:#1D1D1F;" d="M209.962,457.562v21.663c0,0,4.952,6.954,14.235,4.332c9.284-2.621,42.659-20.003,39.428-24.849
		c-8.179-12.264-20.007-4.154-37.997-2.748C215.725,456.732,209.962,457.562,209.962,457.562z"/>
</g>
<g>
	<path style="fill:#A66206;" d="M203.863,246.324l0.994,18.829c0,0,6.266,4.177,6.963,4.874c0.696,0.696,16.21-4.952,16.21-6.731
		c0-1.779-3.445-12.765-3.445-14.39c0-1.625-4.676-9.445-4.676-9.445L203.863,246.324z"/>
	<path style="fill:#A66206;" d="M229.864,88.236c-5.789-0.776-25.471-2.14-28.566,36.651c-1.342,16.811-2.532,43.855-1.703,64.072
		c1.291,31.536,4.268,57.363,4.268,57.363s1.456,4.448,16.581-7.399c0,0,3.825-57.567,5.92-81.234
		C229.459,122.72,241.837,89.843,229.864,88.236z"/>
</g>
<path style="fill:#5B2478;" d="M229.691,88.246c-5.693-2.012-26.333-3.027-29.533,37.891c-1.184,15.143-2.298,38.311-1.992,57.849
	c7.119,6.123,17.521,7.977,25.66,4.566c0.806-10.937,1.604-21.257,2.245-28.503C229.273,123.895,242.069,92.621,229.691,88.246z"/>
<path style="fill:#1A6FB0;" d="M209.279,232.662l-2.461,225.945c0,0-0.489,6.222,16.101,6.222c16.589,0,17.465-7.936,17.465-7.936
	l6.61-166.06l3.006,1.653l6.88,194.444c0,0-0.489,6.222,16.1,6.222c16.589,0,17.465-7.936,17.465-7.936l2.382-237.783
	L209.279,232.662z"/>
<path style="fill:#5B2478;" d="M208.181,240.128c0,0-3.03-33.105-2.511-64.449c0.436-26.302,1.146-36.09,1.146-49.693
	c0-30.605,13.127-37.942,23.048-37.75c0,0,39.722,11.858,70.381,38.982L294.791,251.6
	C283.647,266.267,229.395,261.931,208.181,240.128z"/>
<path style="fill:#51216D;" d="M280.607,229.702c-1.525-20.583-3.235-42.586-3.973-60.319l-3.06,90.487
	c4.452-0.398,8.512-1.18,11.945-2.353l-2.016-27.017C282.52,230.26,281.551,229.994,280.607,229.702z"/>
<g>
	<path style="fill:#A66206;" d="M285.995,41.908c0,0,1.806,32.58-6.158,38.418c-7.963,5.838-45.756,2.007-56.954-17.685
		c-11.198-19.691-5.056-56.892,19.839-60.932C271.802-3.009,287.731,12.645,285.995,41.908z"/>
	<path style="fill:#A66206;" d="M243.526,71.893l-6.611,33.673c0,0,11.056,11.922,31.629,3.384c0,0,1.906-25.917,3.763-29.863
		C274.163,75.142,243.526,71.893,243.526,71.893z"/>
</g>
<path style="fill:#884D01;" d="M257.205,44.575c6.528-3.367,6.847,4.167,10.989,17.461c3.162-7.376-0.25-22.516,5.379-27.398
	c6.78-5.881,9.264-3.809,12.598-4.539C283.737,2.78,258.806-3.757,238.648,1.843C217.67,7.672,211.157,42.608,222.355,62.3
	c5.315,9.346,18.178,18.32,28.416,18.32C251.839,58.084,251.813,49.396,257.205,44.575z"/>
<g>
	<path style="fill:#A66206;" d="M286.362,289.747c0,0,0.463,16.044,0.567,18.093c0.104,2.066-1.954,3.473-0.317,7.555
		c0.256,0.638,5.024,3.971,6.736,4.524c1.852,0.599,13.333-7.264,15.024-8.512s0.283-11.249,0.162-13.642
		c-0.037-0.732-0.323-12.495-1.743-13.004C305.372,284.253,286.362,289.747,286.362,289.747z"/>
	<path style="fill:#A66206;" d="M302.126,128.661c-3.315-5.03-16.654-13.365-22.843,7.678
		c-6.189,21.043,7.079,153.409,7.079,153.409s10.074,12.015,20.843-4.466c0,0-2.546-48.141-2.546-79.853
		S308.37,138.134,302.126,128.661z"/>
</g>
<path style="fill:#5B2478;" d="M302.379,128.823c-4.059-5.688-18.384-13.731-24.742,7.888c-3.356,11.41,0.132,54.675,2.97,92.991
	c7.954,2.461,17.516,3.188,24.674,0.177c-0.183-7.733-0.299-15.337-0.299-22.193C304.981,175.107,309.642,139,302.379,128.823z"/>
<g>
</g>
<g>
</g>
<g>
</g>
<g>
</g>
<g>
</g>
<g>
</g>
<g>
</g>
<g>
</g>
<g>
</g>
<g>
</g>
<g>
</g>
<g>
</g>
<g>
</g>
<g>
</g>
<g>
</g>
</svg>
