<?xml version="1.0" encoding="iso-8859-1"?>
<!-- Generator: Adobe Illustrator 19.0.0, SVG Export Plug-In . SVG Version: 6.00 Build 0)  -->
<svg version="1.1" id="Layer_1" xmlns="http://www.w3.org/2000/svg" xmlns:xlink="http://www.w3.org/1999/xlink" x="0px" y="0px"
	 viewBox="0 0 512 512" style="enable-background:new 0 0 512 512;" xml:space="preserve">
<path style="fill:#30C9B0;" d="M353.915,389.12H158.086c-30.754,0-55.685-24.931-55.685-55.685V174.08h307.2v159.355
	C409.6,364.189,384.67,389.12,353.915,389.12z"/>
<g>
	<path style="fill:#EFEFEF;" d="M176.387,10.24L176.387,10.24c-15.553,0-28.16,12.607-28.16,28.16v135.68h56.32V38.4
		C204.547,22.847,191.94,10.24,176.387,10.24z"/>
	<path style="fill:#EFEFEF;" d="M335.614,10.24L335.614,10.24c-15.552,0-28.16,12.607-28.16,28.16v135.68h56.32V38.4
		C363.774,22.847,351.166,10.24,335.614,10.24z"/>
</g>
<rect x="186.88" y="389.12" style="fill:#30C9B0;" width="138.24" height="46.08"/>
<rect x="230.4" y="435.2" style="fill:#D1D5D8;" width="51.2" height="66.56"/>
<g>
	<path style="fill:#231F20;" d="M409.6,163.84h-35.586V38.4c0-21.174-17.226-38.4-38.4-38.4s-38.4,17.226-38.4,38.4v125.44h-82.427
		V38.4c0-21.174-17.226-38.4-38.4-38.4s-38.4,17.226-38.4,38.4v125.44H102.4c-5.655,0-10.24,4.585-10.24,10.24v159.354
		c0,36.352,29.574,65.926,65.926,65.926h18.554v35.84c0,5.655,4.585,10.24,10.24,10.24h33.28v56.32c0,5.655,4.585,10.24,10.24,10.24
		h51.2c5.655,0,10.24-4.585,10.24-10.24v-56.32h33.28c5.655,0,10.24-4.585,10.24-10.24v-35.84h18.555
		c36.351,0,65.925-29.574,65.925-65.926V174.08C419.84,168.425,415.255,163.84,409.6,163.84z M317.694,38.4
		c0-9.881,8.039-17.92,17.92-17.92s17.92,8.039,17.92,17.92v125.44h-35.84V38.4z M158.467,38.4c0-9.881,8.039-17.92,17.92-17.92
		c9.881,0,17.92,8.039,17.92,17.92v125.44h-35.84V38.4z M271.36,491.52h-30.72v-46.08h30.72V491.52z M314.88,424.96H197.12v-25.6
		h117.76V424.96z M353.915,378.88H158.086c-25.059,0-45.446-20.387-45.446-45.446V232.181H256c5.655,0,10.24-4.585,10.24-10.24
		c0-5.655-4.585-10.24-10.24-10.24H112.64V184.32h286.72v27.381h-56.578c-5.655,0-10.24,4.585-10.24,10.24
		c0,5.655,4.585,10.24,10.24,10.24h56.578v101.253C399.36,358.493,378.973,378.88,353.915,378.88z"/>
	<path style="fill:#231F20;" d="M301.31,211.701h-2.56c-5.655,0-10.24,4.585-10.24,10.24c0,5.655,4.585,10.24,10.24,10.24h2.56
		c5.655,0,10.24-4.585,10.24-10.24C311.55,216.286,306.966,211.701,301.31,211.701z"/>
</g>
<g>
</g>
<g>
</g>
<g>
</g>
<g>
</g>
<g>
</g>
<g>
</g>
<g>
</g>
<g>
</g>
<g>
</g>
<g>
</g>
<g>
</g>
<g>
</g>
<g>
</g>
<g>
</g>
<g>
</g>
</svg>
