<?xml version="1.0" encoding="iso-8859-1"?>
<!-- Generator: Adobe Illustrator 18.0.0, SVG Export Plug-In . SVG Version: 6.00 Build 0)  -->
<!DOCTYPE svg PUBLIC "-//W3C//DTD SVG 1.1//EN" "http://www.w3.org/Graphics/SVG/1.1/DTD/svg11.dtd">
<svg version="1.1" id="Capa_1" xmlns="http://www.w3.org/2000/svg" xmlns:xlink="http://www.w3.org/1999/xlink" x="0px" y="0px"
	 viewBox="0 0 60 60" style="enable-background:new 0 0 60 60;" xml:space="preserve">
<g>
	<path d="M1.912,38.088C1.755,37.741,1.405,37.5,1,37.5c-0.553,0-1,0.447-1,1V40h1.5c0.553,0,1-0.447,1-1
		C2.5,38.595,2.259,38.245,1.912,38.088z"/>
	<path d="M1,31.447c0.553,0,1-0.447,1-1v-0.895c0-0.553-0.447-1-1-1s-1,0.447-1,1v0.895C0,31,0.447,31.447,1,31.447z"/>
	<path d="M1,35.921c0.553,0,1-0.447,1-1v-0.895c0-0.553-0.447-1-1-1s-1,0.447-1,1v0.895C0,35.474,0.447,35.921,1,35.921z"/>
	<path d="M1,26.974c0.553,0,1-0.447,1-1v-0.895c0-0.553-0.447-1-1-1s-1,0.447-1,1v0.895C0,26.526,0.447,26.974,1,26.974z"/>
	<path d="M1.5,20H0v1.5c0,0.553,0.447,1,1,1c0.405,0,0.755-0.241,0.912-0.588C2.259,21.755,2.5,21.405,2.5,21
		C2.5,20.447,2.053,20,1.5,20z"/>
	<path d="M35.313,20h-0.966c-0.553,0-1,0.447-1,1s0.447,1,1,1h0.966c0.553,0,1-0.447,1-1S35.866,20,35.313,20z"/>
	<path d="M29.517,22h0.966c0.553,0,1-0.447,1-1s-0.447-1-1-1h-0.966c-0.553,0-1,0.447-1,1S28.964,22,29.517,22z"/>
	<path d="M25.652,20h-0.966c-0.553,0-1,0.447-1,1s0.447,1,1,1h0.966c0.553,0,1-0.447,1-1S26.205,20,25.652,20z"/>
	<path d="M5.364,22H6.33c0.553,0,1-0.447,1-1s-0.447-1-1-1H5.364c-0.553,0-1,0.447-1,1S4.812,22,5.364,22z"/>
	<path d="M20.822,20h-0.967c-0.553,0-1,0.447-1,1s0.447,1,1,1h0.967c0.553,0,1-0.447,1-1S21.375,20,20.822,20z"/>
	<path d="M44.975,20h-0.966c-0.553,0-1,0.447-1,1s0.447,1,1,1h0.966c0.553,0,1-0.447,1-1S45.527,20,44.975,20z"/>
	<path d="M11.161,20h-0.967c-0.553,0-1,0.447-1,1s0.447,1,1,1h0.967c0.553,0,1-0.447,1-1S11.714,20,11.161,20z"/>
	<path d="M15.991,20h-0.966c-0.553,0-1,0.447-1,1s0.447,1,1,1h0.966c0.553,0,1-0.447,1-1S16.544,20,15.991,20z"/>
	<path d="M54.636,20h-0.967c-0.553,0-1,0.447-1,1s0.447,1,1,1h0.967c0.553,0,1-0.447,1-1S55.188,20,54.636,20z"/>
	<path d="M39.178,22h0.966c0.553,0,1-0.447,1-1s-0.447-1-1-1h-0.966c-0.553,0-1,0.447-1,1S38.625,22,39.178,22z"/>
	<path d="M48.839,22h0.966c0.553,0,1-0.447,1-1s-0.447-1-1-1h-0.966c-0.553,0-1,0.447-1,1S48.286,22,48.839,22z"/>
	<path d="M58.5,20c-0.553,0-1,0.447-1,1c0,0.405,0.241,0.755,0.588,0.912C58.245,22.259,58.595,22.5,59,22.5c0.553,0,1-0.447,1-1V20
		H58.5z"/>
	<path d="M59,33.026c-0.553,0-1,0.447-1,1v0.895c0,0.553,0.447,1,1,1s1-0.447,1-1v-0.895C60,33.474,59.553,33.026,59,33.026z"/>
	<path d="M59,24.079c-0.553,0-1,0.447-1,1v0.895c0,0.553,0.447,1,1,1s1-0.447,1-1v-0.895C60,24.526,59.553,24.079,59,24.079z"/>
	<path d="M59,28.553c-0.553,0-1,0.447-1,1v0.895c0,0.553,0.447,1,1,1s1-0.447,1-1v-0.895C60,29,59.553,28.553,59,28.553z"/>
	<path d="M59,37.5c-0.405,0-0.755,0.241-0.912,0.588C57.741,38.245,57.5,38.595,57.5,39c0,0.553,0.447,1,1,1H60v-1.5
		C60,37.947,59.553,37.5,59,37.5z"/>
	<path d="M35.313,38h-0.966c-0.553,0-1,0.447-1,1s0.447,1,1,1h0.966c0.553,0,1-0.447,1-1S35.866,38,35.313,38z"/>
	<path d="M40.145,38h-0.967c-0.553,0-1,0.447-1,1s0.447,1,1,1h0.967c0.553,0,1-0.447,1-1S40.697,38,40.145,38z"/>
	<path d="M44.975,38h-0.966c-0.553,0-1,0.447-1,1s0.447,1,1,1h0.966c0.553,0,1-0.447,1-1S45.527,38,44.975,38z"/>
	<path d="M49.806,38h-0.967c-0.553,0-1,0.447-1,1s0.447,1,1,1h0.967c0.553,0,1-0.447,1-1S50.358,38,49.806,38z"/>
	<path d="M54.636,38H53.67c-0.553,0-1,0.447-1,1s0.447,1,1,1h0.966c0.553,0,1-0.447,1-1S55.188,38,54.636,38z"/>
	<path d="M30.483,38h-0.966c-0.553,0-1,0.447-1,1s0.447,1,1,1h0.966c0.553,0,1-0.447,1-1S31.036,38,30.483,38z"/>
	<path d="M11.161,38h-0.966c-0.553,0-1,0.447-1,1s0.447,1,1,1h0.966c0.553,0,1-0.447,1-1S11.714,38,11.161,38z"/>
	<path d="M6.331,38H5.364c-0.553,0-1,0.447-1,1s0.447,1,1,1h0.967c0.553,0,1-0.447,1-1S6.884,38,6.331,38z"/>
	<path d="M25.652,38h-0.966c-0.553,0-1,0.447-1,1s0.447,1,1,1h0.966c0.553,0,1-0.447,1-1S26.205,38,25.652,38z"/>
	<path d="M20.822,38h-0.966c-0.553,0-1,0.447-1,1s0.447,1,1,1h0.966c0.553,0,1-0.447,1-1S21.375,38,20.822,38z"/>
	<path d="M15.991,38h-0.966c-0.553,0-1,0.447-1,1s0.447,1,1,1h0.966c0.553,0,1-0.447,1-1S16.544,38,15.991,38z"/>
</g>
<g>
</g>
<g>
</g>
<g>
</g>
<g>
</g>
<g>
</g>
<g>
</g>
<g>
</g>
<g>
</g>
<g>
</g>
<g>
</g>
<g>
</g>
<g>
</g>
<g>
</g>
<g>
</g>
<g>
</g>
</svg>
