<?xml version="1.0" encoding="iso-8859-1"?>
<!-- Generator: Adobe Illustrator 16.0.0, SVG Export Plug-In . SVG Version: 6.00 Build 0)  -->
<!DOCTYPE svg PUBLIC "-//W3C//DTD SVG 1.1//EN" "http://www.w3.org/Graphics/SVG/1.1/DTD/svg11.dtd">
<svg version="1.1" id="Capa_1" xmlns="http://www.w3.org/2000/svg" xmlns:xlink="http://www.w3.org/1999/xlink" x="0px" y="0px"
	 width="585.918px" height="585.918px" viewBox="0 0 585.918 585.918" style="enable-background:new 0 0 585.918 585.918;"
	 xml:space="preserve">
<g>
	<path d="M357.396,535.335c0.776,0.042,1.542,0.115,2.329,0.115h177.39c20.75,0,37.627-16.883,37.627-37.628V86.604
		c0-20.743-16.877-37.628-37.627-37.628h-177.39c-0.781,0-1.553,0.069-2.329,0.113V0L11.176,46.207v492.31l346.22,47.401V535.335z
		 M357.396,272.575v-17.651h2.592v-8.097l11.014-9.9L357.396,272.575z M379.82,235.869h4.758v-2.688h12.104v2.231l-39.286,103.259
		v-44.096L379.82,235.869z M553.24,352.624h-1.122l0.167-53.325h0.955V352.624z M359.726,70.479h177.39
		c8.893,0,16.125,7.233,16.125,16.125v199.9h-11.411v2.688H487.78v-2.688h-12.976v12.794h2.151v12.296h-2.151v12.977h12.976v-2.337
		h19.087c-5.532,5.423-11.946,8.783-19.443,10.19v-1.838h-12.798v2.015c-8.347-1.117-15.465-4.607-21.681-10.624
		c-6.168-5.973-9.848-12.894-11.17-21.071h1.563v-12.974h-1.795c1.233-8.325,4.903-15.425,11.159-21.63
		c6.269-6.213,13.46-9.813,21.923-10.947v2.015h12.798v-1.716c5.848,1.039,11.224,3.404,16.047,7.063v6.656h12.977v-2.312
		l18.022,0.129v2.179h12.977v-12.801h-5.664c-5.99-9.838-13.917-17.893-23.598-23.969c-9.37-5.89-19.7-9.372-30.771-10.393v-3.087
		h-12.798v3.027c-17.492,1.251-32.715,8.223-45.292,20.743c-12.577,12.515-19.633,27.656-20.999,45.035h-3.043v12.974h3.076
		c1.596,17.271,8.755,32.263,21.35,44.61c12.566,12.336,27.658,19.202,44.908,20.451v2.688h12.798v-2.761
		c10.772-1.104,20.841-4.536,30.026-10.206v9.744h12.8v-2.509h11.579v2.509h11.412v132.4c0,8.893-7.233,16.127-16.127,16.127
		H359.716c-0.793,0-1.564-0.127-2.33-0.243V365.237h2.272v-9.622l-0.1-0.566l45.518-119.18h4.394v-12.795h-12.798v2.144h-12.109
		v-0.478l20.697-18.599h8.378v-12.294h-12.294v9.428l-22.037,19.798h-7.539v6.779l-14.226,12.777h-0.151V70.709
		C358.162,70.602,358.929,70.479,359.726,70.479z M517.449,340.078v6.225c-9.076,6.451-19.154,10.352-30.025,11.575v-2.036h-12.798
		v2.137c-15.16-1.223-28.399-7.328-39.393-18.163c-10.981-10.813-17.329-23.896-18.871-38.909h1.706v-12.979h-1.759
		c1.349-15.142,7.612-28.381,18.662-39.374c11.055-11.002,24.372-17.238,39.654-18.572v2.128h12.798v-1.892
		c9.281,0.989,18.031,3.989,26.068,8.945c8.315,5.118,15.191,11.875,20.483,20.103h-17.523v-2.688h-8.157
		c-6.1-4.746-13.106-7.746-20.871-8.942v-3.242h-12.798v2.94c-10.61,1.205-19.827,5.664-27.465,13.31
		c-7.643,7.638-12.158,16.809-13.46,27.289h-3.16v12.974h3.197c1.412,10.383,6.021,19.381,13.727,26.803
		c7.685,7.392,16.81,11.718,27.161,12.898v2.777h12.798v-3.044c11.349-1.628,20.897-6.926,28.431-15.77h6.509v-12.977h-12.798v2.86
		H487.78v-2.86h-2.865v-12.296h2.865v-2.146h54.049v2.146h2.478c-0.021,4.379-0.078,13.239-0.153,26.574v26.751h-2.324v2.335h-11.58
		v-14.881H517.449L517.449,340.078z M65.297,349.175c-11.53-0.311-22.783-3.838-28.368-7.354l4.549-20.206
		c6.057,3.482,15.423,7.04,25.168,7.198c10.615,0.189,16.239-4.484,16.239-11.717c0-6.908-4.872-10.876-17.137-15.69
		c-16.735-6.389-27.496-16.38-27.496-32.15c0-18.509,14.175-33.048,38.079-33.682c11.633-0.308,20.271,2.118,26.481,4.945
		l-5.281,20.486c-4.176-2.092-11.577-5.103-21.646-4.935c-9.981,0.165-14.792,5.133-14.792,10.827
		c0,6.998,5.72,10.045,18.911,15.368c18.307,7.202,27.032,17.499,27.032,33.285C107.03,334.324,93.505,349.926,65.297,349.175z
		 M178.115,350.461l-29.302-0.756l-34.547-113.296l26.626-0.682l13.312,48.063c3.759,13.583,7.195,26.711,9.827,41.063l0.506,0.011
		c2.801-13.797,6.268-27.454,10.101-40.646l14.394-49.723l27.614-0.703L178.115,350.461z M330.235,348.729
		c-8.902,2.709-25.575,6.289-42.026,5.858c-22.363-0.6-38.289-6.51-49.25-17.354c-10.859-10.383-16.764-25.879-16.598-43.203
		c0.178-39.203,28.795-62.355,68.778-63.392c16.115-0.425,28.683,2.354,34.908,5.124l-6.048,22.405
		c-6.949-2.811-15.537-5.042-29.23-4.812c-23.142,0.376-40.326,13.418-40.326,39.278c0,24.631,15.567,39.424,38.299,39.812
		c6.454,0.104,11.624-0.531,13.862-1.575v-25.544l-19.174-0.109v-21.384l46.806-0.164V348.729z"/>
</g>
<g>
</g>
<g>
</g>
<g>
</g>
<g>
</g>
<g>
</g>
<g>
</g>
<g>
</g>
<g>
</g>
<g>
</g>
<g>
</g>
<g>
</g>
<g>
</g>
<g>
</g>
<g>
</g>
<g>
</g>
</svg>
