<?xml version="1.0" encoding="iso-8859-1"?>
<!-- Generator: Adobe Illustrator 19.0.0, SVG Export Plug-In . SVG Version: 6.00 Build 0)  -->
<svg version="1.1" id="Capa_1" xmlns="http://www.w3.org/2000/svg" xmlns:xlink="http://www.w3.org/1999/xlink" x="0px" y="0px"
	 viewBox="0 0 490 490" style="enable-background:new 0 0 490 490;" xml:space="preserve">
<g>
	<path d="M449.605,388.405l0.213,66.49l-89.656-89.08c28.49-33.654,45.699-77.147,45.699-124.594
		c0-45.515-15.837-87.394-42.277-120.436l86.233-85.681l-0.213,66.491l20.417,0.059l0.32-101.335L369.005,0l-0.059,20.417
		l66.478,0.213l-85.431,84.882c-35.024-35.413-83.606-57.391-137.232-57.391c-106.48,0-193.101,86.621-193.101,193.101
		c0,106.48,86.621,193.101,193.101,193.101c51.702,0,98.719-20.425,133.415-53.627l89.248,88.675l-66.477,0.213L369.005,490
		l101.336-0.318l-0.32-101.336L449.605,388.405z M212.76,413.906c-95.215,0-172.684-77.469-172.684-172.685
		c0-95.214,77.469-172.684,172.684-172.684c95.214,0,172.684,77.47,172.684,172.684C385.444,336.438,307.974,413.906,212.76,413.906
		z"/>
	<polygon points="206.18,231.014 79.832,231.014 79.832,251.431 219.339,251.431 256.623,169.226 238.022,160.791 	"/>
</g>
<g>
</g>
<g>
</g>
<g>
</g>
<g>
</g>
<g>
</g>
<g>
</g>
<g>
</g>
<g>
</g>
<g>
</g>
<g>
</g>
<g>
</g>
<g>
</g>
<g>
</g>
<g>
</g>
<g>
</g>
</svg>
