<?xml version="1.0" encoding="UTF-8" standalone="no"?>
<svg
   id="Layer_1"
   x="0"
   y="0"
   version="1.1"
   viewBox="0 0 256 256"
   xml:space="preserve"
   sodipodi:docname="logo2.svg"
   width="256"
   height="256"
   inkscape:version="1.2.2 (b0a8486541, 2022-12-01)"
   xmlns:inkscape="http://www.inkscape.org/namespaces/inkscape"
   xmlns:sodipodi="http://sodipodi.sourceforge.net/DTD/sodipodi-0.dtd"
   xmlns="http://www.w3.org/2000/svg"
   xmlns:svg="http://www.w3.org/2000/svg"><defs
     id="defs15" /><sodipodi:namedview
     id="namedview13"
     pagecolor="#ffffff"
     bordercolor="#000000"
     borderopacity="0.25"
     inkscape:showpageshadow="2"
     inkscape:pageopacity="0.0"
     inkscape:pagecheckerboard="0"
     inkscape:deskcolor="#d1d1d1"
     showgrid="false"
     inkscape:zoom="1.4368708"
     inkscape:cx="15.31105"
     inkscape:cy="98.477887"
     inkscape:window-width="1360"
     inkscape:window-height="695"
     inkscape:window-x="0"
     inkscape:window-y="49"
     inkscape:window-maximized="1"
     inkscape:current-layer="Layer_1" /><style
     id="style2">.st0{fill:#009e92}</style><path
     d="m 83.402337,161.03138 -21.40168,11.27951 -19.178844,10.06706 -19.775887,10.42528 h -0.03674 V 172.366 c 0,-0.11941 0,-0.25718 0.03674,-0.38578 0.119409,-3.2424 1.974834,-6.2368 4.868194,-7.76155 L 47.598154,153.8485 67.741451,143.26707 a 71.259326,71.259326 0 0 0 15.660886,17.76431 M 232.88342,172.366 v 20.44641 h -0.0275 l -19.79426,-10.43446 -19.16047,-10.06706 -21.42005,-11.27032 a 70.662284,70.662284 0 0 0 15.63333,-17.81024 l 20.17085,10.62735 19.65648,10.36099 a 9.1944555,9.1944555 0 0 1 4.94167,8.15652"
     class="st0"
     id="path4"
     style="stroke-width:9.18527" /><path
     fill="#abd9d5"
     d="m 188.11442,143.23033 a 70.662284,70.662284 0 0 1 -15.63333,17.81024 l -40.24986,-21.19042 a 9.1209733,9.1209733 0 0 0 -8.56985,0 L 83.402337,161.04057 A 71.158288,71.158288 0 0 1 67.750636,143.25788 l 55.910744,-29.4296 c 2.66372,-1.39616 5.87857,-1.39616 8.56985,0 z"
     id="path6"
     style="stroke-width:9.18527" /><path
     fill="#8bbe29"
     d="M 123.65219,224.9333 23,171.97104 v 20.43722 c 0,3.41692 1.892166,6.5491 4.923305,8.14734 l 95.728885,50.39039 c 2.6821,1.40535 5.88776,1.40535 8.57904,0 l 95.72889,-50.39039 c 3.02195,-1.59824 4.9233,-4.73042 4.9233,-8.14734 V 171.97104 L 132.23123,224.9333 a 9.2220113,9.2220113 0 0 1 -8.57904,0"
     id="path8"
     style="stroke-width:9.18527" /><path
     fill="#00a0dc"
     d="m 127.94171,4.0000004 c -51.621216,0 -93.469307,41.8480906 -93.469307,93.4693096 0,51.62122 41.857276,93.46931 93.469307,93.46931 51.62122,0 93.46931,-41.83891 93.46931,-93.46931 0,-51.621219 -41.84809,-93.4693096 -93.46931,-93.4693096 m 0,164.1867096 a 70.717398,70.717398 0 1 1 0,-141.434795 70.726581,70.726581 0 0 1 0,141.434795"
     id="path10"
     style="stroke-width:9.185;stroke-dasharray:none;fill:#ff6600" /><circle
     style="fill:#ff6600;stroke-width:0.746744;fill-opacity:1"
     id="path32"
     cx="127.17719"
     cy="97.95948"
     r="84" /><g
     id="g1070"
     transform="translate(87.707757,58.459479)"><circle
       style="fill:#ffffff;stroke-width:0.0933434"
       id="circle25"
       cx="-1.218071"
       cy="80.187492"
       r="10.5" /><text
       xml:space="preserve"
       style="font-style:normal;font-weight:normal;font-size:62.9995px;line-height:1.25;font-family:sans-serif;letter-spacing:0px;word-spacing:0px;fill:#ffffff;fill-opacity:1;stroke:none;stroke-width:1.4"
       x="-25.607508"
       y="55.653847"
       id="text26"><tspan
         sodipodi:role="line"
         id="tspan24"
         x="-25.607508"
         y="55.653847"
         style="font-style:normal;font-variant:normal;font-weight:bold;font-stretch:normal;font-size:62.9995px;font-family:'Microsoft YaHei';-inkscape-font-specification:'Microsoft YaHei Bold';fill:#ffffff;stroke-width:1.4">Edit</tspan></text><text
       xml:space="preserve"
       style="font-style:normal;font-weight:normal;font-size:31.4998px;line-height:1.25;font-family:sans-serif;letter-spacing:0px;word-spacing:0px;fill:#ffffff;fill-opacity:1;stroke:none;stroke-width:1.4"
       x="16.70063"
       y="83.758942"
       id="text30"><tspan
         sodipodi:role="line"
         id="tspan28"
         x="16.70063"
         y="83.758942"
         style="font-style:normal;font-variant:normal;font-weight:bold;font-stretch:normal;font-size:31.4998px;font-family:'Microsoft YaHei';-inkscape-font-specification:'Microsoft YaHei Bold';fill:#ffffff;stroke-width:1.4">Fund</tspan></text></g></svg>
