<svg xmlns="http://www.w3.org/2000/svg" xmlns:xlink="http://www.w3.org/1999/xlink" viewBox="0 0 85 85" fill="#fff" fill-rule="evenodd" stroke="#000" stroke-linecap="round" stroke-linejoin="round"><use xlink:href="#A" x="2.5" y="2.5"/><symbol id="A" overflow="visible"><g stroke="none"><path d="M80 41.721C80 62.862 62.092 80 40 80S0 62.862 0 41.721v-3.442S26.468 3.442 40 3.442c15.809 0 40 34.837 40 34.837z" fill="#876929"/><path d="M0 38.279C0 17.073 17.84 0 40 0s40 17.073 40 38.279-17.84 38.279-40 38.279S0 59.486 0 38.279z" fill="#d9a741"/><path d="M25.497 14.657h2.161v17.308h-2.161zm0 25.482h2.161v17.307h-2.161zm30.152 18.737h-2.161V37.307H26.251v-2.04h29.398v23.609z"/><path d="M26.338 45.552l12.937-9.077-12.937-9.077-12.357 8.536 12.357 9.618z" fill="#d9a741"/><path d="M26.309 46.842L12.212 35.878l14.141-9.715 14.735 10.354zM15.736 35.975l10.631 8.328 11.081-7.786-11.109-7.8z"/><path d="M46.164 53.158h17.491v9.882H46.164z" fill="#d9a741"/><path d="M64.655 64.052H45.076V52.13h19.579zm-17.404-9.868v7.842h15.316v-7.842z"/><path d="M17.999 10.659H35.49v9.882H17.999z" fill="#d9a741"/><path d="M36.563 21.568H16.911V9.646h19.652zm-17.491-2.054h15.33v-7.828h-15.33z"/><path d="M17.824 53.158h17.491v9.882H17.824z" fill="#d9a741"/><path d="M36.389 64.052H16.795V52.13h19.594zm-17.491-2.026h15.301v-7.842H18.898z"/></g></symbol></svg>