<svg xmlns="http://www.w3.org/2000/svg" xmlns:xlink="http://www.w3.org/1999/xlink" viewBox="0 0 61 81" fill="#fff" fill-rule="evenodd" stroke="#000" stroke-linecap="round" stroke-linejoin="round"><use xlink:href="#A" x=".5" y=".5"/><symbol id="A" overflow="visible"><path d="M30 0C13.333 0 0 5.698 0 11.852V67.92C0 74.074 13.556 80 30 80c16.667 0 30-5.47 30-11.852V12.08C60 5.926 46.667 0 30 0zM.667 70.199v-.684.684zm20.667-34.872c-2 0-2.889-.684-2.889 1.596v4.331c0 3.191-.444 5.242-2.667 5.926v.228c2.222.912 2.667 3.419 2.667 7.293v5.014c0 1.595.222 1.595.667 2.279s1.111.684 2.222.684v4.33c-3.111 0-5.333-.684-6.667-1.823s-2-3.419-2-6.61v-5.47c0-2.963-1.111-2.963-2.889-2.963v-5.698c2 0 2.889 0 2.889-2.507v-4.331c0-2.735.667-4.558 2-5.47 1.333-1.14 3.556-1.595 6.667-1.595v4.786zm29.556 10.484v4.558c-2 0-2.889 0-2.889 2.963v5.242c0 3.191-.667 5.47-2 6.837-1.333 1.14-3.556 1.824-6.889 1.824v-4.331c.889 0 1.778-.228 2.222-.684.445-.684.667-.684.667-2.279v-5.014c0-3.874.667-6.154 2.889-7.293v-.228C42.667 46.724 42 44.672 42 41.254v-4.102c0-2.279-1.111-1.596-2.889-1.596v-4.786c3.111 0 5.333.684 6.667 1.595 1.333 1.14 2.222 2.963 2.222 5.47v4.33c0 2.507.889 2.279 2.889 2.279v1.367zM30 17.322c-11.778 0-21.333-2.963-21.333-6.61S18.222 4.103 30 4.103s21.333 2.963 21.333 6.61-9.555 6.61-21.333 6.61z" fill="#0078d7" stroke="none"/></symbol></svg>