<svg xmlns="http://www.w3.org/2000/svg" viewBox="0 0 64 64" fill="#fff" fill-rule="evenodd" stroke="#000" stroke-linecap="round" stroke-linejoin="round"><g fill="none" stroke="#464646" stroke-linejoin="miter"><path d="M20.5 52.5h25"/><rect height="52" width="36" x="14.5" y="6.5" rx="5"/></g><g stroke="none"><path d="M25.335 5.382V3.524c-.143-1.239-1.138-2.17-2.318-2.17s-2.175.931-2.318 2.17v1.858H19.5V9.5h7V5.382zm-1.145 0h-2.375V3.524c.003-.322.134-.629.361-.844s.529-.321.832-.29c.624-.029 1.155.476 1.193 1.135z" fill="#ef6c00"/><path d="M25.335 5.028V3.17C25.192 1.931 24.198 1 23.017 1s-2.175.931-2.318 2.17v1.858H19.5v4.118h7V5.028zm-1.145 0h-2.375V3.17c.003-.322.134-.629.361-.844s.529-.321.832-.29c.624-.029 1.155.476 1.193 1.135z" fill="#ff9800"/></g></svg>