<?xml version="1.0" encoding="iso-8859-1"?>
<!-- Generator: Adobe Illustrator 16.0.0, SVG Export Plug-In . SVG Version: 6.00 Build 0)  -->
<!DOCTYPE svg PUBLIC "-//W3C//DTD SVG 1.1//EN" "http://www.w3.org/Graphics/SVG/1.1/DTD/svg11.dtd">
<svg version="1.1" id="Capa_1" xmlns="http://www.w3.org/2000/svg" xmlns:xlink="http://www.w3.org/1999/xlink" x="0px" y="0px"
	 width="98.176px" height="98.177px" viewBox="0 0 98.176 98.177" style="enable-background:new 0 0 98.176 98.177;"
	 xml:space="preserve">
<g>
	<g>
		<rect x="44.403" y="67.718" width="9.368" height="3.132"/>
		<path d="M83.789,83.723c-1.432-20.697-9.676-32.867-17.461-38.07c-0.721-0.482-2.791-2.053-2.791-2.053
			c1.591-2.086,2.936-4.532,3.994-7.27c3.543-0.309,5.502-3.773,6.213-7.934c0.842-4.914-0.924-7.311-4.031-7.848
			C68.656,9.009,65.429,0,49.085,0C32.837,0,29.52,9.009,28.46,20.549c-3.107,0.537-4.871,2.934-4.033,7.848
			c0.705,4.112,2.598,7.6,6.209,7.934c1.032,2.767,2.387,5.207,3.986,7.279c0,0-1.58,1.148-2.754,2.01
			c-8.176,5.995-16.312,18.065-17.486,38.104c-0.23,3.939,2.447,7.324,5.924,7.555c0.121,0.011,6.795,0.349,6.795,0.349
			c3.953,4.351,11.814,6.549,21.838,6.549c9.443,0,17.984-1.84,22.133-6.549c0,0,6.674-0.338,6.799-0.349
			C81.343,91.049,84.063,87.662,83.789,83.723z M58.702,28.534c0,1.523-1.24,2.764-2.764,2.764h-1.222
			c-1.522,0-2.764-1.24-2.764-2.764s1.24-2.764,2.764-2.764h0.953c0.757,0.365,1.548,0.701,2.376,0.999
			C58.449,27.25,58.702,27.86,58.702,28.534z M33.727,25.179c7.609-1.798,10.529-5.799,11.553-7.847
			c0.629,0.833,3.284,4.115,7.542,6.844c-0.792,0.349-1.476,0.902-1.974,1.6h-3.517c-0.865-1.21-2.273-2.006-3.87-2.006h-1.221
			c-2.627,0-4.764,2.137-4.764,4.764c0,2.627,2.137,4.764,4.764,4.764h1.221c2.627,0,4.764-2.137,4.764-4.764
			c0-0.26-0.036-0.51-0.076-0.758h1.882c-0.04,0.248-0.076,0.498-0.076,0.758c0,2.627,2.137,4.764,4.764,4.764h1.222
			c2.627,0,4.764-2.137,4.764-4.764c0-0.348-0.042-0.685-0.113-1.012c1.124,0.264,2.294,0.46,3.521,0.544
			c-1.566,10.043-7.107,17.332-15.023,17.332C40.681,45.399,34.443,37.026,33.727,25.179z M46.223,28.534
			c0,1.523-1.24,2.764-2.764,2.764h-1.22c-1.523,0-2.764-1.24-2.764-2.764s1.24-2.764,2.764-2.764h1.221
			C44.983,25.77,46.223,27.01,46.223,28.534z M62.738,49.219c-3.922,3.495-8.644,5.459-13.648,5.459
			c-5.086,0-9.844-1.933-13.764-5.379l2.801-2.059c3.18,2.58,6.935,4.006,10.959,4.006c4.163,0,7.866-1.45,10.969-4L62.738,49.219z
			 M77.281,85.057c-0.898,0.049-4.678,0.24-6.035,0.309v-6.288c0-0.863-0.699-1.562-1.563-1.562c-0.863,0-1.561,0.697-1.561,1.562
			v6.45c0,0-1.304,1.479-1.738,1.974c-2.442,2.772-8.965,4.432-17.445,4.432c-8.219,0-14.654-1.684-17.219-4.504
			c-0.417-0.459-1.67-1.836-1.67-1.836v-6.516c0-0.863-0.699-1.562-1.561-1.562c-0.863,0-1.561,0.697-1.561,1.562v6.288
			c-1.344-0.067-5.068-0.258-6.037-0.309c-0.109-0.133-0.299-0.473-0.271-1.014c0.867-16.768,6.029-25.527,10.607-30.039
			c3.855,3.369,8.383,5.596,13.176,6.482v3.054h9.368v-3.05c4.768-0.877,9.321-3.084,13.176-6.486
			c4.621,4.49,9.737,13.168,10.604,30.039C77.582,84.584,77.39,84.924,77.281,85.057z"/>
		<path d="M49.084,78.533c-1.813,0-3.279,1.47-3.279,3.279s1.467,3.277,3.279,3.277c1.807,0,3.275-1.469,3.275-3.277
			C52.361,80.003,50.891,78.533,49.084,78.533z"/>
	</g>
</g>
<g>
</g>
<g>
</g>
<g>
</g>
<g>
</g>
<g>
</g>
<g>
</g>
<g>
</g>
<g>
</g>
<g>
</g>
<g>
</g>
<g>
</g>
<g>
</g>
<g>
</g>
<g>
</g>
<g>
</g>
</svg>
