<?xml version="1.0"?>
<svg xmlns="http://www.w3.org/2000/svg" viewBox="0 0 32 32">
    <path style="text-indent:0;text-align:start;line-height:normal;text-transform:none;block-progression:tb;-inkscape-font-specification:Bitstream Vera Sans" d="M 6 3 L 6 4 L 6 10 L 8 10 L 8 5 L 24 5 L 24 10 L 26 10 L 26 4 L 26 3 L 25 3 L 7 3 L 6 3 z M 5 12 L 5 20 L 7 20 L 7 17 L 8 17 L 8 20 L 10 20 L 10 12 L 8 12 L 8 15 L 7 15 L 7 12 L 5 12 z M 11 12 L 11 14 L 12 14 L 12 20 L 14 20 L 14 14 L 15 14 L 15 12 L 11 12 z M 16 12 L 16 13 L 16 20 L 18 20 L 18 15.34375 L 18.1875 15.59375 L 19 16.65625 L 19.8125 15.59375 L 20 15.34375 L 20 20 L 22 20 L 22 13 L 22 12 L 21 12 L 20.5 12 L 20 12 L 19.6875 12.40625 L 19 13.3125 L 18.3125 12.40625 L 18 12 L 17.5 12 L 17 12 L 16 12 z M 23 12 L 23 19 L 23 20 L 24 20 L 27 20 L 27 18 L 25 18 L 25 12 L 23 12 z M 6 22 L 6 28 L 6 29 L 7 29 L 25 29 L 26 29 L 26 28 L 26 22 L 24 22 L 24 27 L 8 27 L 8 22 L 6 22 z"/>
</svg>
