<?xml version="1.0"?>
<svg xmlns="http://www.w3.org/2000/svg" viewBox="0 0 32 32">
    <path style="text-indent:0;text-align:start;line-height:normal;text-transform:none;block-progression:tb;-inkscape-font-specification:Sans" d="M 6 3 L 6 4 L 6 10 L 8 10 L 8 5 L 24 5 L 24 10 L 26 10 L 26 4 L 26 3 L 25 3 L 7 3 L 6 3 z M 7 12 L 7 17.5 C 7 17.786937 6.7869372 18 6.5 18 C 6.2130628 18 6 17.786937 6 17.5 L 6 17 L 4 17 L 4 17.5 C 4 18.869063 5.1309372 20 6.5 20 C 7.8690628 20 9 18.869063 9 17.5 L 9 12 L 7 12 z M 12.5 12 C 11.130937 12 10 13.130937 10 14.5 C 10 15.869063 11.130937 17 12.5 17 C 12.786937 17 13 17.213063 13 17.5 C 13 17.864232 12.93915 18 12.5 18 C 12.120705 18 12.068225 17.91215 12.0625 17.90625 C 12.056775 17.900353 12 17.866336 12 17.625 L 10 17.625 C 10 18.192664 10.156725 18.830147 10.625 19.3125 C 11.093275 19.794853 11.775295 20 12.5 20 C 13.908848 20 15 18.791768 15 17.5 C 15 16.130937 13.869063 15 12.5 15 C 12.213063 15 12 14.786937 12 14.5 C 12 14.213063 12.213063 14 12.5 14 C 12.77034 14 12.844119 14.05675 12.90625 14.125 C 12.968381 14.19325 13 14.320536 13 14.40625 L 15 14.40625 C 15 13.839964 14.805369 13.254 14.375 12.78125 C 13.944631 12.3085 13.25966 12 12.5 12 z M 18.5 12 C 17.130937 12 16 13.130937 16 14.5 L 16 17.5 C 16 18.869063 17.130937 20 18.5 20 C 19.869063 20 21 18.869063 21 17.5 L 21 14.5 C 21 13.130937 19.869063 12 18.5 12 z M 22 12 L 22 20 L 24 20 L 24 17 L 25 18.34375 L 25 20 L 27 20 L 27 12 L 25 12 L 25 15 L 24 13.65625 L 24 12 L 22 12 z M 18.5 14 C 18.786937 14 19 14.213063 19 14.5 L 19 17.5 C 19 17.786937 18.786937 18 18.5 18 C 18.213063 18 18 17.786937 18 17.5 L 18 14.5 C 18 14.213063 18.213063 14 18.5 14 z M 6 22 L 6 28 L 6 29 L 7 29 L 25 29 L 26 29 L 26 28 L 26 22 L 24 22 L 24 27 L 8 27 L 8 22 L 6 22 z"/>
</svg>
