<?xml version="1.0" encoding="UTF-8" standalone="no"?>
<!-- Generator: Adobe Illustrator 19.0.0, SVG Export Plug-In . SVG Version: 6.00 Build 0)  -->

<svg
   version="1.1"
   id="Layer_1"
   x="0px"
   y="0px"
   viewBox="0 0 485 485"
   style="enable-background:new 0 0 485 485;"
   xml:space="preserve"
   sodipodi:docname="document2.svg"
   inkscape:version="1.1.1 (3bf5ae0d25, 2021-09-20)"
   xmlns:inkscape="http://www.inkscape.org/namespaces/inkscape"
   xmlns:sodipodi="http://sodipodi.sourceforge.net/DTD/sodipodi-0.dtd"
   xmlns="http://www.w3.org/2000/svg"
   xmlns:svg="http://www.w3.org/2000/svg"><defs
   id="defs55">
	

		
	
			
			
			
			
			
			
			
		</defs><sodipodi:namedview
   id="namedview53"
   pagecolor="#ffffff"
   bordercolor="#999999"
   borderopacity="1"
   inkscape:pageshadow="0"
   inkscape:pageopacity="0"
   inkscape:pagecheckerboard="0"
   showgrid="false"
   inkscape:zoom="1.0729879"
   inkscape:cx="242.31401"
   inkscape:cy="192.91923"
   inkscape:window-width="1920"
   inkscape:window-height="986"
   inkscape:window-x="-11"
   inkscape:window-y="-11"
   inkscape:window-maximized="1"
   inkscape:current-layer="Layer_1" />
<path
   d="M 340.732,0 H 55 V 485 H 430 V 94.518 Z M 345,26.364 405.1,90 H 345 Z M 415,470 H 70 V 15 h 260 v 90 h 85 z"
   id="path2" /><path
   d="m 139.40168,136.19673 c -12.43752,0 -23,10.03128 -23,22.5 v 114.99998 c 0,12.46872 10.56248,22.5 23,22.5 h 210 c 12.43752,0 23,-10.03128 23,-22.5 V 158.69673 c 0,-12.46872 -10.56248,-22.5 -23,-22.5 z m 0,16 h 210 c 4.12496,0 7,3.06248 7,6.5 v 114.99998 c 0,3.43752 -2.87504,6.5 -7,6.5 h -210 c -4.12504,0 -7,-3.06248 -7,-6.5 V 158.69673 c 0,-3.43752 2.87496,-6.5 7,-6.5 z m 17,23.99998 v 80 h 24 v -53.25 l 24,31.75 24,-31.75 v 53.25 h 24 v -80 h -24 l -24,32 -24,-32 z m 136,0 v 40 h -24 l 36,40 36,-40 h -24 v -40 z"
   id="path2-6"
   style="stroke-width:1" />
<g
   id="g22">
</g>
<g
   id="g24">
</g>
<g
   id="g26">
</g>
<g
   id="g28">
</g>
<g
   id="g30">
</g>
<g
   id="g32">
</g>
<g
   id="g34">
</g>
<g
   id="g36">
</g>
<g
   id="g38">
</g>
<g
   id="g40">
</g>
<g
   id="g42">
</g>
<g
   id="g44">
</g>
<g
   id="g46">
</g>
<g
   id="g48">
</g>
<g
   id="g50">
</g>
</svg>
