<?xml version="1.0" encoding="UTF-8" standalone="no"?>
<svg
   class="logo"
   id="Layer_1"
   viewBox="0 0 256 256"
   version="1.1"
   sodipodi:docname="coder-logo.svg"
   width="256"
   height="256"
   inkscape:version="1.2.1 (9c6d41e410, 2022-07-14)"
   xmlns:inkscape="http://www.inkscape.org/namespaces/inkscape"
   xmlns:sodipodi="http://sodipodi.sourceforge.net/DTD/sodipodi-0.dtd"
   xmlns="http://www.w3.org/2000/svg"
   xmlns:svg="http://www.w3.org/2000/svg">
  <defs
     id="defs27" />
  <sodipodi:namedview
     id="namedview25"
     pagecolor="#ffffff"
     bordercolor="#999999"
     borderopacity="1"
     inkscape:showpageshadow="0"
     inkscape:pageopacity="0"
     inkscape:pagecheckerboard="0"
     inkscape:deskcolor="#d1d1d1"
     showgrid="false"
     inkscape:zoom="2.5938317"
     inkscape:cx="238.45032"
     inkscape:cy="127.99597"
     inkscape:window-width="1920"
     inkscape:window-height="986"
     inkscape:window-x="-11"
     inkscape:window-y="-11"
     inkscape:window-maximized="1"
     inkscape:current-layer="Layer_1" />
  <style
     id="style2">.st0{fill:#000}</style>
  <g
     id="g20"
     transform="matrix(1.5458937,0,0,1.5458937,-4.9468582,37.227053)"
     style="stroke-width:0.646875">
    <path
       class="st0"
       d="m 164.8,50.9 c -3.3,0 -5.5,-1.9 -5.5,-5.8 V 22.7 c 0,-14.3 -6,-22.2 -21.5,-22.2 h -7.2 v 15.1 h 2.2 c 6.1,0 9,3.3 9,9.2 v 19.8 c 0,8.6 2.6,12.1 8.3,13.9 -5.7,1.7 -8.3,5.3 -8.3,13.9 0,4.9 0,9.8 0,14.7 0,4.1 0,8.1 -1.1,12.2 -1.1,3.8 -2.9,7.4 -5.4,10.5 -1.4,1.8 -3,3.3 -4.8,4.7 v 2 h 7.2 c 15.5,0 21.5,-7.9 21.5,-22.2 V 71.9 c 0,-4 2.1,-5.8 5.5,-5.8 h 4.1 V 51 h -4 z"
       id="path6"
       style="stroke-width:0.646875" />
    <path
       class="st0"
       d="M 115.8,23.3 H 93.6 c -0.5,0 -0.9,-0.4 -0.9,-0.9 v -1.7 c 0,-0.5 0.4,-0.9 0.9,-0.9 h 22.3 c 0.5,0 0.9,0.4 0.9,0.9 v 1.7 c 0,0.5 -0.5,0.9 -1,0.9 z"
       id="path8"
       style="stroke-width:0.646875" />
    <path
       class="st0"
       d="m 119.6,44.9 h -16.2 c -0.5,0 -0.9,-0.4 -0.9,-0.9 v -1.7 c 0,-0.5 0.4,-0.9 0.9,-0.9 h 16.2 c 0.5,0 0.9,0.4 0.9,0.9 V 44 c 0,0.4 -0.4,0.9 -0.9,0.9 z"
       id="path10"
       style="stroke-width:0.646875" />
    <path
       class="st0"
       d="M 126,34.1 H 93.6 c -0.5,0 -0.9,-0.4 -0.9,-0.9 v -1.7 c 0,-0.5 0.4,-0.9 0.9,-0.9 h 32.3 c 0.5,0 0.9,0.4 0.9,0.9 v 1.7 c 0,0.4 -0.3,0.9 -0.8,0.9 z"
       id="path12"
       style="stroke-width:0.646875" />
    <g
       id="g16"
       style="stroke-width:0.646875">
      <path
         class="st0"
         d="m 67.9,28.2 c 2.2,0 4.4,0.2 6.5,0.7 v -4.1 c 0,-5.8 3,-9.2 9,-9.2 h 2.2 V 0.5 H 78.4 C 62.9,0.5 56.9,8.4 56.9,22.7 v 7.4 c 3.5,-1.2 7.2,-1.9 11,-1.9 z"
         id="path14"
         style="stroke-width:0.646875" />
    </g>
    <path
       class="st0"
       d="m 132.8,82.6 c -1.6,-12.7 -11.4,-23.3 -24,-25.7 -3.5,-0.7 -7,-0.8 -10.4,-0.2 -0.1,0 -0.1,-0.1 -0.2,-0.1 C 92.7,45.1 80.9,37.5 68.1,37.5 55.3,37.5 43.6,44.9 38,56.4 c -0.1,0 -0.1,0.1 -0.2,0.1 -3.6,-0.4 -7.2,-0.2 -10.8,0.7 -12.4,3 -21.8,13.4 -23.5,26 -0.2,1.3 -0.3,2.6 -0.3,3.8 0,3.8 2.6,7.3 6.4,7.8 4.7,0.7 8.8,-2.9 8.7,-7.5 0,-0.7 0,-1.5 0.1,-2.2 0.8,-6.4 5.7,-11.8 12.1,-13.3 2,-0.5 4,-0.6 5.9,-0.3 6.1,0.8 12.1,-2.3 14.7,-7.7 1.9,-4 4.9,-7.5 8.9,-9.4 4.4,-2.1 9.4,-2.4 14,-0.8 4.8,1.7 8.4,5.3 10.6,9.8 2.3,4.4 3.4,7.5 8.3,8.1 2,0.3 7.6,0.2 9.7,0.1 4.1,0 8.2,1.4 11.1,4.3 1.9,2 3.3,4.5 3.9,7.3 0.9,4.5 -0.2,9 -2.9,12.4 -1.9,2.4 -4.5,4.2 -7.4,5 -1.4,0.4 -2.8,0.5 -4.2,0.5 -0.8,0 -1.9,0 -3.2,0 -4,0 -12.5,0 -18.9,0 -4.4,0 -7.9,-3.5 -7.9,-7.9 V 78.4 63.9 c 0,-1.2 -1,-2.2 -2.2,-2.2 h -3.1 c -6.1,0.1 -11,6.9 -11,14.1 0,7.2 0,26.3 0,26.3 0,7.8 6.3,14.1 14.1,14.1 0,0 34.7,-0.1 35.2,-0.1 8,-0.8 15.4,-4.9 20.4,-11.2 5,-6.1 7.3,-14.1 6.3,-22.3 z"
       id="path18"
       style="stroke-width:0.646875" />
  </g>
</svg>
