<svg class="logo" id="Layer_1" xmlns="http://www.w3.org/2000/svg" xmlns:xlink="http://www.w3.org/1999/xlink" viewBox="0 0 471 117" style="enable-background:new 0 0 471 117"><style>.st0{fill:#000}</style><g><g id="Clip-291"><path id="path-2_1_" class="st0" d="M217 75.6c5.9.0 10.7-2.3 14.5-7l7.7 7.9c-6.1 6.9-13.3 10.3-21.6 10.3s-15.1-2.6-20.5-7.9C191.7 73.7 189 67 189 59s2.7-14.7 8.2-20 12.2-8 20.1-8c8.8.0 16.2 3.4 22.2 10.1l-7.5 8.5c-3.8-4.7-8.5-7.1-14.2-7.1-4.5.0-8.4 1.5-11.6 4.4-3.2 3-4.8 6.9-4.8 11.9s1.5 9 4.5 12.1C209 74.1 212.6 75.6 217 75.6zM284.1 46.7c-3.1-3.4-6.9-5.1-11.4-5.1s-8.3 1.7-11.4 5.1-4.6 7.5-4.6 12.3 1.5 8.9 4.6 12.3 6.9 5 11.4 5 8.3-1.7 11.4-5c3.1-3.4 4.6-7.5 4.6-12.3S287.2 50.1 284.1 46.7zM272.7 86.8c-8 0-14.7-2.7-20.1-8s-8.2-11.9-8.2-19.9c0-7.9 2.7-14.5 8.2-19.9 5.4-5.3 12.2-8 20.1-8 8 0 14.7 2.7 20.1 8s8.2 11.9 8.2 19.9c0 7.9-2.7 14.5-8.2 19.9C287.4 84.1 280.7 86.8 272.7 86.8zM352.3 39.4c5.1 4.7 7.7 11.2 7.7 19.6s-2.5 15-7.5 19.9-12.7 7.3-22.9 7.3h-18.4V32.3h19C339.8 32.4 347.2 34.7 352.3 39.4zM343.5 71.5c3-2.8 4.4-6.8 4.4-12.1s-1.5-9.4-4.4-12.2c-3-2.9-7.5-4.3-13.6-4.3h-6.7v32.8h7.6C336.3 75.6 340.5 74.2 343.5 71.5zM409.3 32.4v10.7h-26.8v11.1h24.1v10.3h-24.1v11.2h27.7v10.6h-39.7V32.4H409.3v0zM464.6 50.3c0 8.6-3.4 14.2-10.3 16.7l13.6 19.3h-14.8l-11.9-17.2h-8.3v17.2h-12V32.4h20.4c8.4.0 14.4 1.4 17.9 4.2C462.8 39.4 464.6 44 464.6 50.3zM450.1 56.7c1.5-1.3 2.2-3.5 2.2-6.4s-.8-4.9-2.3-6-4.2-1.6-8.1-1.6h-9v16h8.8C445.8 58.7 448.6 58 450.1 56.7z"></path></g><g><path class="st0" d="M164.8 50.9c-3.3.0-5.5-1.9-5.5-5.8V22.7c0-14.3-6-22.2-21.5-22.2h-7.2v15.1h2.2c6.1.0 9 3.3 9 9.2v19.8c0 8.6 2.6 12.1 8.3 13.9-5.7 1.7-8.3 5.3-8.3 13.9.0 4.9.0 9.8.0 14.7.0 4.1.0 8.1-1.1 12.2-1.1 3.8-2.9 7.4-5.4 10.5-1.4 1.8-3 3.3-4.8 4.7v2h7.2c15.5.0 21.5-7.9 21.5-22.2V71.9c0-4 2.1-5.8 5.5-5.8h4.1V51h-4V50.9H164.8z"></path><path class="st0" d="M115.8 23.3H93.6c-.5.0-.9-.4-.9-.9v-1.7c0-.5.4-.9.9-.9h22.3c.5.0.9.4.9.9v1.7C116.8 22.9 116.3 23.3 115.8 23.3z"></path><path class="st0" d="M119.6 44.9h-16.2c-.5.0-.9-.4-.9-.9v-1.7c0-.5.4-.9.9-.9h16.2c.5.0.9.4.9.9V44C120.5 44.4 120.1 44.9 119.6 44.9z"></path><path class="st0" d="M126 34.1H93.6c-.5.0-.9-.4-.9-.9v-1.7c0-.5.4-.9.9-.9h32.3c.5.0.9.4.9.9v1.7C126.8 33.6 126.5 34.1 126 34.1z"></path><g><path class="st0" d="M67.9 28.2c2.2.0 4.4.2 6.5.7v-4.1c0-5.8 3-9.2 9-9.2h2.2V.5h-7.2c-15.5.0-21.5 7.9-21.5 22.2v7.4C60.4 28.9 64.1 28.2 67.9 28.2z"></path></g><path class="st0" d="M132.8 82.6c-1.6-12.7-11.4-23.3-24-25.7-3.5-.7-7-.8-10.4-.2-.1.0-.1-.1-.2-.1-5.5-11.5-17.3-19.1-30.1-19.1S43.6 44.9 38 56.4c-.1.0-.1.1-.2.1-3.6-.4-7.2-.2-10.8.7-12.4 3-21.8 13.4-23.5 26-.2 1.3-.3 2.6-.3 3.8.0 3.8 2.6 7.3 6.4 7.8 4.7.7 8.8-2.9 8.7-7.5.0-.7.0-1.5.1-2.2.8-6.4 5.7-11.8 12.1-13.3 2-.5 4-.6 5.9-.3 6.1.8 12.1-2.3 14.7-7.7 1.9-4 4.9-7.5 8.9-9.4 4.4-2.1 9.4-2.4 14-.8 4.8 1.7 8.4 5.3 10.6 9.8 2.3 4.4 3.4 7.5 8.3 8.1 2 .3 7.6.2 9.7.1 4.1.0 8.2 1.4 11.1 4.3 1.9 2 3.3 4.5 3.9 7.3.9 4.5-.2 9-2.9 12.4-1.9 2.4-4.5 4.2-7.4 5-1.4.4-2.8.5-4.2.5-.8.0-1.9.0-3.2.0-4 0-12.5.0-18.9.0-4.4.0-7.9-3.5-7.9-7.9V78.4 63.9c0-1.2-1-2.2-2.2-2.2h-3.1c-6.1.1-11 6.9-11 14.1s0 26.3.0 26.3c0 7.8 6.3 14.1 14.1 14.1.0.0 34.7-.1 35.2-.1 8-.8 15.4-4.9 20.4-11.2C131.5 98.8 133.8 90.8 132.8 82.6z"></path></g></g></svg>
