<svg xmlns="http://www.w3.org/2000/svg" id="Layer_1" x="0" y="0" version="1.1" viewBox="0 0 31 31" xml:space="preserve"><style>.st0{fill:#009e92}</style><path d="M10.651 19.096l-2.33 1.228-2.088 1.096-2.153 1.135h-.004V20.33c0-.013 0-.028.004-.042.013-.353.215-.679.53-.845l2.143-1.129 2.193-1.152a7.758 7.758 0 0 0 1.705 1.934M26.925 20.33v2.226h-.003l-2.155-1.136-2.086-1.096-2.332-1.227a7.693 7.693 0 0 0 1.702-1.939l2.196 1.157 2.14 1.128a1.001 1.001 0 0 1 .538.888" class="st0"/><path fill="#abd9d5" d="M22.051 17.158a7.693 7.693 0 0 1-1.702 1.939l-4.382-2.307a.993.993 0 0 0-.933 0l-4.383 2.307a7.747 7.747 0 0 1-1.704-1.936l6.087-3.204c.29-.152.64-.152.933 0l6.084 3.201z"/><path fill="#8bbe29" d="M15.033 26.053L4.075 20.287v2.225c0 .372.206.713.536.887l10.422 5.486c.292.153.641.153.934 0l10.422-5.486c.329-.174.536-.515.536-.887v-2.225l-10.958 5.766a1.004 1.004 0 0 1-.934 0"/><path fill="#00a0dc" d="M15.5 2C9.88 2 5.324 6.556 5.324 12.176S9.881 22.352 15.5 22.352c5.62 0 10.176-4.555 10.176-10.176C25.676 6.556 21.12 2 15.5 2m0 17.875a7.699 7.699 0 1 1 0-15.398 7.7 7.7 0 0 1 0 15.398"/></svg>