<?xml version="1.0" encoding="UTF-8" standalone="no"?>
<!-- Uploaded to: SVG Repo, www.svgrepo.com, Generator: SVG Repo Mixer Tools -->

<svg
   width="512"
   height="512"
   viewBox="0 0 20.48 20.48"
   version="1.1"
   id="svg481"
   sodipodi:docname="icon.svg"
   inkscape:version="1.2.2 (732a01da63, 2022-12-09)"
   xmlns:inkscape="http://www.inkscape.org/namespaces/inkscape"
   xmlns:sodipodi="http://sodipodi.sourceforge.net/DTD/sodipodi-0.dtd"
   xmlns="http://www.w3.org/2000/svg"
   xmlns:svg="http://www.w3.org/2000/svg">
  <defs
     id="defs485" />
  <sodipodi:namedview
     id="namedview483"
     pagecolor="#ffffff"
     bordercolor="#000000"
     borderopacity="0.25"
     inkscape:showpageshadow="2"
     inkscape:pageopacity="0.0"
     inkscape:pagecheckerboard="0"
     inkscape:deskcolor="#d1d1d1"
     showgrid="false"
     inkscape:zoom="0.99"
     inkscape:cx="479.79798"
     inkscape:cy="238.38384"
     inkscape:window-width="1920"
     inkscape:window-height="986"
     inkscape:window-x="-11"
     inkscape:window-y="-11"
     inkscape:window-maximized="1"
     inkscape:current-layer="svg481" />
  <g
     id="icomoon-ignore" />
  <g
     id="g7115"
     transform="matrix(1.7066665,0,0,1.7066665,-30.203484,-30.99582)">
    <path
       d="m 20.034325,18.416527 c 0,-0.140201 -0.114711,-0.254912 -0.254913,-0.254912 h -0.889644 c -0.140202,0 -0.254912,0.114711 -0.254912,0.254912 v 0.889645 c 0,0.140201 0.11471,0.254912 0.254912,0.254912 h 0.889644 c 0.140202,0 0.254913,-0.114711 0.254913,-0.254912 z"
       id="path4421"
       style="fill:#ff0000;stroke-width:0.0127456" />
    <path
       d="m 21.10878,19.55981 h 0.889645 c 0.140202,0 0.254912,-0.114711 0.254912,-0.254913 v -0.88837 c 0,-0.140201 -0.11471,-0.254912 -0.254912,-0.254912 H 21.10878 c -0.140201,0 -0.254912,0.114711 -0.254912,0.254912 v 0.889645 c 0,0.140201 0.114711,0.253638 0.254912,0.253638 z"
       id="path4423"
       style="fill:#ff0000;stroke-width:0.0127456" />
    <path
       d="m 23.327793,19.55981 h 0.889644 c 0.140202,0 0.254913,-0.114711 0.254913,-0.254913 v -0.88837 c 0,-0.140201 -0.114711,-0.254912 -0.254913,-0.254912 h -0.889644 c -0.140202,0 -0.254912,0.114711 -0.254912,0.254912 v 0.889645 c 0,0.140201 0.11471,0.253638 0.254912,0.253638 z"
       id="path4425"
       style="fill:#ff0000;stroke-width:0.0127456" />
    <path
       d="m 20.034325,20.570537 c 0,-0.140202 -0.114711,-0.254912 -0.254913,-0.254912 h -0.889644 c -0.140202,0 -0.254912,0.11471 -0.254912,0.254912 v 0.889644 c 0,0.140202 0.11471,0.254913 0.254912,0.254913 h 0.889644 c 0.140202,0 0.254913,-0.114711 0.254913,-0.254913 z"
       id="path4427"
       style="fill:#ff0000;stroke-width:0.0127456" />
    <path
       d="m 20.853868,21.460181 c 0,0.140202 0.114711,0.254913 0.254912,0.254913 h 0.889645 c 0.140202,0 0.254912,-0.114711 0.254912,-0.254913 v -0.889644 c 0,-0.140202 -0.11471,-0.254912 -0.254912,-0.254912 H 21.10878 c -0.140201,0 -0.254912,0.11471 -0.254912,0.254912 z"
       id="path4429"
       style="fill:#ff0000;stroke-width:0.0127456" />
    <path
       d="m 23.072881,21.460181 c 0,0.140202 0.11471,0.254913 0.254912,0.254913 h 0.313542 c 0,-0.165693 0,-0.331386 0,-0.495805 0,-0.309718 0.05227,-0.678067 0.280404,-0.903664 h -0.593946 c -0.140202,0 -0.254912,0.11471 -0.254912,0.254912 z"
       id="path4431"
       style="fill:#ff0000;stroke-width:0.0127456" />
    <path
       d="m 18.889768,23.870378 h 0.889644 c 0.140202,0 0.254913,-0.11471 0.254913,-0.254912 v -0.889644 c 0,-0.140202 -0.114711,-0.254913 -0.254913,-0.254913 h -0.889644 c -0.140202,0 -0.254912,0.114711 -0.254912,0.254913 v 0.889644 c 0,0.140202 0.11471,0.254912 0.254912,0.254912 z"
       id="path4433"
       style="fill:#ff0000;stroke-width:0.0127456" />
    <path
       d="m 20.853868,23.615466 c 0,0.140202 0.114711,0.254912 0.254912,0.254912 h 0.889645 c 0.140202,0 0.254912,-0.11471 0.254912,-0.254912 v -0.889644 c 0,-0.140202 -0.11471,-0.254913 -0.254912,-0.254913 H 21.10878 c -0.140201,0 -0.254912,0.114711 -0.254912,0.254913 z"
       id="path4435"
       style="fill:#ff0000;stroke-width:0.0127456" />
    <path
       d="m 23.072881,23.615466 c 0,0.140202 0.11471,0.254912 0.254912,0.254912 h 0.312268 v -1.399469 h -0.312268 c -0.140202,0 -0.254912,0.114711 -0.254912,0.254913 z"
       id="path4437"
       style="fill:#ff0000;stroke-width:0.0127456" />
    <path
       d="m 28.563694,28.184771 c 0.154222,-0.258749 0.235794,-0.554435 0.235794,-0.856519 v -2.030364 c 0,-0.24854 -0.159321,-0.469052 -0.396389,-0.545526 -0.707382,-0.230683 -2.134892,-0.6908 -2.352842,-0.734135 -0.06755,-0.01274 -0.133829,-0.01912 -0.197557,-0.01912 -0.172066,0 -0.322464,0.04715 -0.412945,0.127456 h -0.0013 c 0,0 0,0 0,-0.0013 -0.0064,-0.05736 -0.330099,-3.190229 -0.330099,-3.195327 -0.05991,-0.55316 -0.958471,-0.485608 -0.957209,0.06883 l -0.0025,5.153054 c 0,0.06117 -0.04461,0.112149 -0.105789,0.121084 -0.0013,0 -0.0013,0 -0.0025,0 -0.0064,0.0013 -0.01275,0.0013 -0.01912,0.0013 -0.173341,-0.0051 -0.564631,-0.01021 -0.945713,-0.562081 -0.05098,-0.07266 -0.09688,-0.138928 -0.138927,-0.200119 -0.132554,-0.189885 -0.309718,-0.271469 -0.476686,-0.271469 -0.293149,0 -0.556971,0.253637 -0.493243,0.632182 0.09176,0.551898 0.695911,1.837906 1.886352,3.043667 h 4.277405 z"
       id="path4439"
       style="fill:#ff0000;stroke-width:0.0127456" />
    <path
       d="m 23.854187,29.906704 c 0,0.140202 0.114711,0.254912 0.254912,0.254912 h 3.767606 c 0.140202,0 0.254912,-0.11471 0.254912,-0.254912 v -0.583762 h -4.27743 z"
       id="path4441"
       style="fill:#ff0000;stroke-width:0.0127456" />
  </g>
</svg>
