<svg xmlns="http://www.w3.org/2000/svg" width="512" height="512" viewBox="0 0 20.48 20.48"><path d="M20.034 18.417a.256.256 0 0 0-.255-.255h-.89a.256.256 0 0 0-.254.255v.89c0 .14.115.254.255.254h.89c.14 0 .254-.115.254-.255zM21.109 19.56h.89c.14 0 .254-.115.254-.255v-.888a.256.256 0 0 0-.255-.255h-.89a.256.256 0 0 0-.254.255v.89c0 .14.115.253.255.253M23.328 19.56h.89c.14 0 .254-.115.254-.255v-.888a.256.256 0 0 0-.255-.255h-.89a.256.256 0 0 0-.254.255v.89c0 .14.115.253.255.253M20.034 20.57a.256.256 0 0 0-.255-.254h-.89a.256.256 0 0 0-.254.255v.89c0 .14.115.254.255.254h.89c.14 0 .254-.115.254-.255zM20.854 21.46c0 .14.115.255.255.255h.89c.14 0 .254-.115.254-.255v-.89a.256.256 0 0 0-.255-.254h-.89a.256.256 0 0 0-.254.255zM23.073 21.46c0 .14.115.255.255.255h.313v-.496c0-.31.053-.678.28-.903h-.593a.256.256 0 0 0-.255.255zM18.89 23.87h.89c.14 0 .254-.114.254-.255v-.89a.256.256 0 0 0-.255-.254h-.89a.256.256 0 0 0-.254.255v.89c0 .14.115.254.255.254M20.854 23.615c0 .14.115.255.255.255h.89c.14 0 .254-.114.254-.255v-.89a.256.256 0 0 0-.255-.254h-.89a.256.256 0 0 0-.254.255zM23.073 23.615c0 .14.115.255.255.255h.312v-1.4h-.312a.256.256 0 0 0-.255.256z" style="fill:red;stroke-width:.0127456" transform="matrix(1.70667 0 0 1.70667 -30.203 -30.996)"/><path d="M28.564 28.185c.154-.259.235-.555.235-.857v-2.03c0-.249-.159-.47-.396-.546-.707-.23-2.135-.69-2.353-.734a1 1 0 0 0-.197-.019c-.172 0-.323.047-.413.128h-.002v-.002l-.33-3.195c-.06-.553-.958-.486-.957.069l-.002 5.153a.12.12 0 0 1-.106.12h-.003q-.009.002-.019.002c-.173-.005-.564-.01-.945-.562l-.14-.2a.58.58 0 0 0-.476-.271c-.293 0-.557.253-.493.632.091.552.696 1.838 1.886 3.043h4.277zM23.854 29.907c0 .14.115.255.255.255h3.768c.14 0 .255-.115.255-.255v-.584h-4.278z" style="fill:red;stroke-width:.0127456" transform="matrix(1.70667 0 0 1.70667 -30.203 -30.996)"/></svg>