<svg xmlns="http://www.w3.org/2000/svg" xml:space="preserve" viewBox="0 0 1200 1200"><style>.st1{fill:#3caf99}.st2{fill:#fcafa7}.st3{fill:#ed938e}.st4{fill:#f9cca0}.st5{fill:#ce8c80}.st7{fill:#5584db}.st8{fill:#39215b}.st9{fill:#8fbbef}.st10{fill:#f78e81}.st11{opacity:.38}.st12{fill:#436aa8}.st14{fill:#db9a7d}.st15{fill:#ffe088}.st16{fill:#e0746c}</style><g id="bg"><circle cx="600" cy="600" r="455" style="fill:#e9f4fe"/><circle cx="262.04" cy="759.72" r="17.99" class="st1" transform="rotate(-22.5 262.025 759.683)"/><circle cx="1085.58" cy="614.67" r="9.98" class="st1"/><circle cx="546.2" cy="982.89" r="9.98" class="st1"/><path d="M953.06 763.24c-19.25 0-34.91-15.66-34.91-34.9 0-19.25 15.66-34.91 34.91-34.91s34.9 15.66 34.9 34.91-15.65 34.9-34.9 34.9m0-60.98c-14.38 0-26.08 11.7-26.08 26.08s11.7 26.08 26.08 26.08 26.08-11.7 26.08-26.08-11.7-26.08-26.08-26.08M201.88 669.81c-19.25 0-34.91-15.66-34.91-34.9 0-19.25 15.66-34.91 34.91-34.91s34.9 15.66 34.9 34.91c0 19.24-15.65 34.9-34.9 34.9m0-60.98c-14.38 0-26.08 11.7-26.08 26.08s11.7 26.08 26.08 26.08 26.08-11.7 26.08-26.08-11.7-26.08-26.08-26.08" class="st1"/></g><g id="h"><path d="M0 1200h119.37c54.2-65.25 109.85-129.12 150.6-168.25l-58.41-71.41L0 1132.99z" class="st2"/><path d="M836.59 733.79c28.57 85.42 86.88 81.58 107.03 137.07 7.51 20.68 20.75 41.18 29.04 53.39 13.61 20.01 25.4 29.22 25.97 29.67l.02.02-57.32-2.83-49.49-2.45s-24.26-30.54-21.76-73.62c2.49-43.08-14.34-52.17-34.19-97.24-.08-.18-.16-.36-.23-.54-22.15-50.87.93-43.47.93-43.47" class="st3"/><path d="M355.61 533.25c-21.22-87.54-72.68-105.44-88.05-162.44-5.73-21.24-13.3-38.16-20.52-51.03-11.86-21.09-22.83-31.27-23.36-31.76l-.02-.02 56.87 7.68 49.1 6.64s21.58 32.49 15.44 75.2c-6.13 42.71 9.86 53.2 25.82 99.79.06.18.13.38.18.56 17.76 52.56-15.46 55.38-15.46 55.38" class="st4"/><path d="M1022.45 373.07s-.01 0-.02.01l-22.14 6.47-23.62 23.79-8.63 8.7-91.54 71.74-56.4 12.54-47.66 10.59s-42.55-101.09-31.83-121.39c10.72-20.29 60.62-70.23 150.52-68.34 11.46.24 27.46-5.43 41.45-11.67 16.67-7.43 30.5-15.65 30.5-15.65z" class="st5"/><path d="M288.76 1016.1s41.19-42.79 66.17-45.14c31.09-2.93 114.06-70.46 119.22-92.83s-46.87-118.41-46.87-118.41l-94.64 49.04-70.99 95.8-21.93 36.69-19.76 11.93" class="st2"/><path d="M694.43 757.35c.03 26.26-20.75 47.66-46.75 48.65-.59.05-1.23.07-1.86.07-11.42 0-21.79-6.15-33.48-12.45-8.44-4.56-18.69 1.57-18.68 11.16l.08 78.57H447.33c-34.18 0-64.8-15.21-85.47-39.24-10.37-12.05-18.24-26.32-22.78-42-2.9-9.98-4.45-20.53-4.45-31.45v-145.8l77.46-.07c9.61-.01 15.73 10.26 11.14 18.71-5.85 10.77-11.23 20.53-11.22 31.22-.01.63.02 1.24.04 1.84 1.02 26 22.41 46.79 48.66 46.76 26.86-.03 48.62-21.83 48.59-48.69-2.5-14.19-7.04-22.56-11.99-30.68-5.14-8.45.91-19.26 10.8-19.27l85.38-.07.08 86.7c.01 9.91 10.87 15.97 19.3 10.78 8.86-5.45 17.42-10.59 32.87-13.33 26.85-.03 48.67 21.72 48.69 48.59" style="fill:#71a0e8"/><path d="M497.31 643.95c4.94 8.12 9.48 16.49 11.99 30.68.03 26.86-21.73 48.66-48.59 48.69-26.25.03-47.64-20.76-48.66-46.76-.02-.6-.05-1.21-.04-1.84-.01-10.69 5.37-20.46 11.23-31.23 4.58-8.43-1.54-18.71-11.14-18.7l-77.47.07V477.42c0-62.25 50.45-112.7 112.7-112.7h145.96l.04 79.7c0 9.59-10.25 15.73-18.69 11.17-11.69-6.29-22.06-12.44-33.49-12.43-.62-.01-1.24-.01-1.85.06-26 .98-46.76 22.39-46.73 48.64.01 26.86 21.81 48.61 48.68 48.58 15.46-2.73 24.01-7.86 32.86-13.31 8.43-5.19 19.3.88 19.3 10.77l.08 86.71-85.38.07c-9.89 0-15.94 10.83-10.8 19.27" class="st7"/><path d="M423.24 643.5c-3.6 6.64-7.02 12.89-9.12 19.21l-49.95-27.35v-10.53l47.93-.04c9.6-.01 15.73 10.27 11.14 18.71" class="st8"/><path d="m480.23 578.16-73.51 36.55 73.51 36.54v47.67l-66.11-36.21c2.1-6.32 5.52-12.57 9.12-19.21 4.59-8.44-1.54-18.73-11.14-18.72l-47.93.04v-30.79l116.06-63.56zM593.49 624.61l-24.6.03 24.55-57.29z" class="st8"/><path d="m593.56 699.14-17.55 42.35h-57.2l50.08-116.85 24.6-.03z" class="st8"/><path d="m869.99 637.27-78.04-7.2c-9.56-.89-14.72-11.67-9.38-19.66.85-1.26 1.68-2.5 2.5-3.75.2-.31.4-.62.61-.92 1.63-2.46 3.17-4.89 4.55-7.32l.51-.91c.34-.61.67-1.21.98-1.82.16-.3.31-.6.46-.91a48 48 0 0 0 1.68-3.67c.09-.2.17-.41.25-.62.32-.8.61-1.6.88-2.4.83-2.52 1.4-5.09 1.64-7.73.11-.64.14-1.25.14-1.85 1.4-25.99-17.98-48.65-44.13-51.06-26.75-2.45-50.42 17.25-52.87 44 .9 10.85 3.26 18.5 6.16 25.28.92 2.18 1.92 4.28 2.93 6.37 4.35 8.88-2.67 19.09-12.53 18.19l-8.69-.8-45.48-4.18-30.83-2.83 5.23-57.03v-.01l2.69-29.31c.92-9.85-9.35-16.9-18.22-12.51-9.32 4.61-18.3 8.92-33.95 10.22-26.76-2.45-46.46-26.13-43.98-52.87.18-1.94.47-3.85.87-5.71 4.91-23.2 26.11-39.72 50.15-38.41.62-.01 1.24.06 1.85.12 9.58.89 18.02 6.04 27.05 12.03 1.7 1.13 3.41 2.28 5.16 3.45 7.98 5.31 18.75.15 19.64-9.4l7.32-79.36 146.65 13.59c37.82 3.51 69.53 25.31 87.19 55.85 5.65 9.76 9.86 20.42 12.37 31.64 2.53 11.23 3.37 23.05 2.25 35.13z" class="st9"/><path d="m695.44 515.24-53.3 101.08-30.83-2.83 5.24-57.03v-.01l25.09-46.2zM842.14 619.81l-1.37 14.76-48.81-4.49c-9.56-.89-14.72-11.67-9.38-19.67 5.13-7.65 9.94-14.76 12.42-22.32z" class="st8"/><path d="m867.85 652.74-5.59 146.14c-1.54 40.19-23.94 74.66-56.38 93.37a112 112 0 0 1-41.78 14.1c-6.13.79-12.4 1.08-18.77.84l-146.71-5.62 2.92-78.52c.37-9.57 10.83-15.31 19.09-10.43 11.44 6.74 21.58 13.28 32.99 13.71.63.03 1.26.04 1.85.01 26.02 0 47.61-20.59 48.59-46.83a48.4 48.4 0 0 0-10.7-32.27c-8.53-10.61-21.44-17.59-36.1-18.14-15.55 2.15-24.3 6.96-33.36 12.07-8.62 4.86-19.25-1.62-18.87-11.52l.21-5.71.24-6.46.01-.01 2.78-74.46 30.93 1.15 54.37 2.03c9.89.37 16.35-10.2 11.53-18.83-4.62-8.31-8.83-16.84-10.79-31.12.13-3.38.59-6.67 1.37-9.83 2.49-10.14 8.14-18.98 15.81-25.48 8.93-7.57 20.6-11.96 33.23-11.49 26.24.99 46.82 22.57 46.82 48.59.04.59.04 1.21-.02 1.85-.1 2.67-.53 5.26-1.23 7.82-.06.23-.12.46-.19.69-.03.13-.07.27-.12.4-.08.28-.17.55-.26.83-.2.64-.42 1.27-.65 1.9-.12.32-.24.64-.36.95q-.36.945-.78 1.89c-.14.32-.28.64-.42.95-.28.63-.58 1.26-.88 1.89-.54 1.1-1.1 2.2-1.69 3.31-.08.16-.17.32-.26.48-.34.63-.69 1.27-1.05 1.91-.89 1.59-1.82 3.19-2.77 4.81-.58.98-1.16 1.96-1.75 2.95-2.26 3.81-2.26 8.1-.66 11.65.24.54.52 1.06.84 1.57.1.16.21.33.33.49.22.32.46.64.72.94.12.15.26.3.39.45.14.14.28.29.42.43.28.27.57.53.88.79a12.508 12.508 0 0 0 7.51 2.8l43.08 1.63 5.9.22z" class="st7"/><path d="m639.2 644.16-33.72 73.32 2.79-74.47zM838.52 651.63l-1.01 26.47-118.74 59.06 1.82-47.64 75.06-33.71-72.26-39.34 1.82-47.64 65.09 38.85c-2.07 7.68-6.49 15.05-11.19 22.96-4.9 8.27.83 18.76 10.43 19.13z" class="st8"/><path d="M269.96 1031.75c-5.54 5.33-11.36 11.1-17.41 17.28l-50.68-80.79 9.67-7.9z" class="st2"/><path d="M269.96 1031.75c-5.54 5.33-11.36 11.1-17.41 17.28l-50.68-80.79 9.67-7.9zM219.96 1083.6c-7.36 8.01-13.79 15.29-21.54 24.03l-44.69-100.1 15.64-12.77c1.65 1.19 4.38 4.46 5.3 6.45z" class="st10"/><path d="m214.6 1102.77-61.35-106.26c-3.75-6.49-1.52-14.8 4.97-18.55l5.47-3.16c6.49-3.75 14.8-1.52 18.55 4.97l61.35 106.26c3.75 6.49 1.52 14.8-4.97 18.55l-5.47 3.16c-6.5 3.75-14.8 1.53-18.55-4.97" class="st8"/><path d="M238.78 306.47 14.5 98.66l114.87-83.67s65.32 104.03 169.71 217.75" class="st4"/><path d="m982.02 936.81 210.05 164.71-91.32 81s-52.59-67.02-166.26-171.47" class="st3"/><g class="st11"><path d="m881.32 455.78-55.81 66.67-21.73 3.73s.96-34.48 29.75-58.2c19.78-16.3 30.59-34.23 35.42-43.85 5.65 9.76 9.85 20.42 12.37 31.65" class="st12"/></g><path d="M1022.45 373.07s-.01 0-.02.01c-.8.36-20.24 9.2-43.39 33.71-7.92 8.38-16.26 18.6-24.45 30.94-29.55 44.55-77.01 49.32-121.25 106.47-10.06 13.01-30.96 5.43-30.21-11 .43-9.13 4.32-20.39 14.64-33.9.78-1.02 1.57-2.03 2.34-3 28.78-36.08 51.32-35.42 58.84-76.77 7.71-42.46 38.46-66.44 38.46-66.44l35.29 6.71z" class="st5"/><path d="M1022.45 373.07s-.01 0-.02.01c-.8.36-20.24 9.2-43.39 33.71-.81-1.15-1.59-2.3-2.36-3.46-9.56-14.23-17.5-29.27-23.98-43.52-9.93-21.83-16.47-41.82-20.1-54.32 16.67-7.43 30.5-15.65 30.5-15.65z" style="fill:#aa6d65"/><g class="st11"><path d="M473.29 518.16s-11.62 10.48-30.96 8.81c0 0-33.33 6.28-71-33-15.4-16.06-28.31-30.3-36.7-40.63v-38.93l3.7-5.58z" class="st12"/></g><path d="M488.96 474.97c-1.33 1.09-2.31 1.62-2.31 1.62.87 2.67 1.66 5.31 2.15 7.9v.01c.72 3.72.85 7.26-.18 10.38-2.31 6.97-4.66 5.8-9.47 9.81-.57.47-1.18 1.02-1.83 1.67 0 0 .17 1.99-.23 4.45-.51 3.07-1.91 6.86-5.69 8.45-8 3.38-15.93 1.81-20.8.14-2.99-1.03-4.83-2.11-4.83-2.11-.83.58-1.68 1.09-2.57 1.51-18.17 8.68-47.9-15.69-72.14-40.94-22.13-23.04-39.67-46.8-39.67-46.8l-69.18-91.92L251 317.41l-8.38-16.26-18.95-13.12-.02-.02 72.62-58.47s8.19 9.64 19.44 20.43c13.13 12.56 30.43 26.67 43.77 28.78 30.85 4.87 85.52 62.75 104.59 103.57 5.56 11.9 28.02 42.09 32.43 74.53 1.27 9.44-4.24 15.44-7.54 18.12" class="st4"/><path d="M315.7 249.95c-7.77 18.23-21.48 33.7-35.19 45.73-10.83 9.52-21.65 16.88-29.52 21.73-1.42.87-2.75 1.67-3.97 2.38-11.86-21.09-22.83-31.27-23.36-31.76l-.02-.02 72.62-58.47c.01-.01 8.19 9.62 19.44 20.41M486.65 476.6c.87 2.67 1.66 5.31 2.15 7.9-5.93-8.99-52.86-80.13-76.01-110.42l4.28-3.27c20.19 26.44 58.32 83.67 71.89 104.17-1.33 1.08-2.31 1.62-2.31 1.62M477.32 506.36s.17 1.99-.23 4.45c-6.94-8.89-70.36-90.16-92.54-116.38l4.11-3.47c20.72 24.49 77.22 96.76 90.48 113.73-.56.48-1.17 1.02-1.82 1.67M450.6 519.41c-2.99-1.03-4.83-2.11-4.83-2.11-.83.58-1.68 1.09-2.57 1.51-14.87-18.45-69.23-85.75-87.65-106.39l4.01-3.58c20.36 22.79 84.21 102.08 91.04 110.57" class="st14"/><path d="M304.08 238.18 135.8 14.99 19.44 114.05s100.91 111.67 204.2 198.33c.01 0 60.42-27.42 80.44-74.2" class="st8"/><g class="st11"><path d="M386.02 784c-8.13 17.28-17.94 43.13-24.16 60.11-10.37-12.05-18.24-26.32-22.78-42l14.25-30.78 25.69-48.01c10.98 10.35 20.01 33.01 7 60.68" class="st12"/></g><path d="M219.96 953.18s30.09-23.98 49.02-79.9 71.41-70.55 98.08-156.58c0 0 33.22 4.94 11.73 56.79-18.86 45.5-35.47 54.95-32.03 97.97s-20.13 74.09-20.13 74.09" class="st2"/><path d="m318.57 932.23-2.14-4.52c1.27-.61 31.09-15.35 27.83-56.04-.6-7.44-.93-14.16-1.03-20.53l5-.08c.1 6.26.43 12.87 1.02 20.21 3.53 44.22-30.34 60.79-30.68 60.96" class="st10"/><path d="m280.72 1051.08-80.41-92.68c-4.91-5.66-4.31-14.24 1.36-19.16l4.77-4.14c5.66-4.91 14.24-4.31 19.16 1.36l80.41 92.68c4.91 5.66 4.31 14.24-1.36 19.16l-4.77 4.14c-5.66 4.91-14.24 4.31-19.16-1.36" class="st15"/><g class="st11"><path d="M805.88 892.25a112 112 0 0 1-41.78 14.1c-24.61-31.3-47.07-81.17-52.1-98.02-5.67-19 4.47-26.08 4.47-26.08 1.22-11.75 5.65-15.28 5.65-15.28z" class="st12"/></g><path d="m998.66 953.93-.73.77-59.15 62.18s-1.03-1.16-2.78-3.05c-2.67-2.87-7.01-7.42-11.91-12.12-3.44-3.29-7.16-6.66-10.76-9.57-.07-.07-.15-.13-.24-.19-14.15-11.33-35.37-20.69-55.52-29.22-28.78-12.17-79.19-44.38-101.65-83.43-6.55-11.38-29.56-48.46-38.73-79.89-3.76-12.91 8.34-16.4 8.34-16.4-9.95-22.99 4.25-25.53 4.84-26.22 0 0-4.68-22.84 26.44-12.42 0 0 7.3-19.05 68.31 36.22 23.68 21.45 53.78 45.53 53.78 45.53l77 80.13 13.01 20.7 9.73 15.49 2.76 1.58 14.8 8.5 2.43 1.4z" class="st3"/><path d="m997.93 954.7-59.15 62.18s-1.03-1.16-2.78-3.05c-2.67-2.87-7.01-7.42-11.91-12.12 7.74-14.29 18.84-26.66 29.95-36.72 9.87-8.93 19.77-16.03 27.36-20.97.63-.41 1.24-.8 1.84-1.18 1.41-.89 2.73-1.71 3.93-2.44 4.2 5.81 7.06 9.61 9.03 12.12.68.87 1.25 1.59 1.73 2.18" class="st16"/><path d="m928.49 1013.28 177.17 175.73 86.4-87.49s-94.61-83.53-204.89-161.12c0 0-42.7 24.58-58.68 72.88" class="st9"/><path d="m797.18 888.78-4.33 3.17c-19.98-27.28-57.24-85.91-70.73-107.3 1.84-1.19 3.42-1.65 3.42-1.65-1.11-2.57-1.93-4.87-2.48-6.96 8.4 13.4 51.99 82.51 74.12 112.74M819.31 867.44l-4.15 3.42c-19.65-23.88-71.7-92.31-87.29-112.86 1.31-.73 2.36-1.03 2.51-1.2 0 0-.42-2.04-.17-4.63 12.56 16.59 68.58 90.35 89.1 115.27M848.95 845l-3.9 3.7c-19.89-21.05-79.78-91.23-91.89-105.45 1.16.31 2.39.69 3.67 1.12 0 0 .69-1.14 2.61-2.04 15.82 18.59 70.7 82.78 89.51 102.67" class="st16"/><path d="M1200 128.6c-104.89 64.25-204.93 127.29-258.66 172.81 0 0 23.95 85 77.35 114.6L1200 303.29z" class="st8"/><path d="M1200 110.12c-98.5 62.24-181.68 115.48-231.63 151.62 0 0 36.35 104.32 98.93 131.81l132.7-65.31z" class="st1"/><path d="M1200 1200v-113.17c-75.86-54.24-149.32-106.61-190.52-135.6 0 0-64.16 31.85-75 99.34l144.5 149.42H1200z" class="st15"/><path d="M135.5 0H0v116.24c71.41 71.98 144.13 143.17 186.21 178.48 0 0 77.3-35.76 93.82-102.09z" style="fill:#454e6b"/></g></svg>