<svg xmlns="http://www.w3.org/2000/svg" xmlns:xlink="http://www.w3.org/1999/xlink" xml:space="preserve" id="Слой_1" x="0" y="0" version="1.1" viewBox="0 0 1176.7 1080"><style>.st0{fill:#e9f4fe}.st1{fill:#8fbbef}.st2{fill:#fff}.st4{fill:#ffd69f}.st7{fill:#3caf99}.st8{fill:#247b77}.st9{fill:#329587}.st10{fill:#fcafa7}.st12{clip-path:url(#SVGID_2_)}.st12,.st13{fill:#f78e81}.st14{fill:#39215b}</style><circle cx="618.9" cy="506.5" r="461.5" class="st0"/><path d="M806.8 581.1H136.5c-9.7 0-17.6-7.9-17.6-17.6V181.9c0-9.7 7.9-17.6 17.6-17.6h670.2c9.7 0 17.6 7.9 17.6 17.6v381.6c.1 9.7-7.8 17.6-17.5 17.6" class="st1"/><path d="M147.2 188.4h658.2v369.5H147.2z" class="st2"/><path d="M431.4 572.4h77v138.7h-77z" class="st1"/><path d="M228 711h549.6v24.6H228z" style="fill:#5584db"/><path d="M769 765.7H16.8c-9.3 0-16.8-7.5-16.8-16.8s7.5-16.8 16.8-16.8H769c9.3 0 16.8 7.5 16.8 16.8-.1 9.3-7.6 16.8-16.8 16.8" class="st4"/><path d="M.7 754.5c2.2 6.6 8.5 11.4 15.9 11.4h752.2c7.4 0 13.7-4.8 15.9-11.4z" class="st2"/><path d="M185.9 751.9H228v2.6h-42.1zM185.9 765.9v198.8c0 11.6 9.4 21.1 21.1 21.1s21.1-9.4 21.1-21.1V765.9z" class="st4"/><path d="M884.7 898.6H754c-81 0-146.6 54.7-146.6 135.7l270.5 2.9c85.6 0 144.5-37.9 144.5-135.7l-72.2-2.9z" style="fill:#212b46"/><path d="M772.8 922.2H642.1c-81 0-146.6 54.7-146.6 135.7H957c85.6 0 144.5-37.9 144.5-135.7z" style="fill:#454e6b"/><path d="M1102.2 1080h-734c-9.3 0-16.8-7.5-16.8-16.8s7.5-16.8 16.8-16.8h734c9.3 0 16.8 7.5 16.8 16.8s-7.5 16.8-16.8 16.8" class="st4"/><path d="M624.7 109.7c5.8-3.5 11.9-6.1 18.3-7.9l3.8-18.1 30.6-.5 4.4 17.9c6.4 1.6 12.6 4 18.5 7.3l15.4-10.1 22 21.2-9.6 15.8c3.5 5.8 6.1 11.9 7.9 18.3l18.1 3.8.5 30.5-17.9 4.4c-1.6 6.4-4 12.6-7.3 18.5l10.1 15.4-21.2 22-15.8-9.6c-5.8 3.5-11.9 6.1-18.3 7.9l-3.8 18.1-30.5.5-4.4-17.9c-6.4-1.6-12.6-4-18.5-7.3L611.6 250l-22-21.2 9.6-15.8c-3.5-5.8-6.1-11.9-7.9-18.3l-18.1-3.8-.5-30.5 17.9-4.4c1.6-6.4 4-12.6 7.3-18.5l-10.1-15.4 21.2-22z" class="st7"/><path d="m618.9 176.8 11.7-11.8 22.6 20.1 44.3-42.6 10.9 11.7-56.9 53.5z" class="st2"/><path d="M1124 603.4c-41.4-109.1-103.4-123.5-143.8-126.4l14.2 32.8c-28.7 9.3 2.2 41.8 11.5 70.5l54.3 167-213.3 69.4 32 98.4 245.8-79.9c39.5-12.8 61.2-55.2 48.4-94.8-21.1-65.5-41.9-118.1-49.1-137" class="st8"/><path d="m772.8 922.2-2.2-283.9c0-92.3 73.6-167.2 164.3-167.2s164.3 74.8 164.3 167.2l2.2 283.9z" class="st9"/><path d="m973.4 391.9 9.2 85.9s-44.3 19.3-93.7 2.6l-6.7-63.8zM498.7 702.5c-33.3-45.4-64.5-64.3-43.4-15.2s43.4 15.2 43.4 15.2" class="st10"/><defs><path id="SVGID_1_" d="M395.2 677.5c-2.2 24.4-7.8 45.1 34.7 65.5 22.1 10.6 71.4 33.2 82 11.1s1.8-53.1-22.5-55.5c-46.2-4.4-51.2-32.9-71.3-39.7-12.2-4.1-21.1-.9-22.9 18.6"/></defs><clipPath id="SVGID_2_"><use xlink:href="#SVGID_1_" style="overflow:visible"/></clipPath><path d="M395.2 677.5c-2.2 24.4-7.8 45.1 34.7 65.5 22.1 10.6 71.4 33.2 82 11.1s1.8-53.1-22.5-55.5c-46.2-4.4-51.2-32.9-71.3-39.7-12.2-4.1-21.1-.9-22.9 18.6" style="clip-path:url(#SVGID_2_);fill:#fcafa7"/><path d="m440.8 702.7 1.5-2.2c-32.1-21.9-41.2-40.5-41.3-40.7l-2.4 1.2c.4.7 9.5 19.3 42.2 41.7M427.7 711.8l1.2-2.4c-20.4-10.5-34-30-34.2-30.2l-2.2 1.5c.7.8 14.3 20.3 35.2 31.1M420.2 727.8c3.1 1.5 6.2 2.6 9.3 3.4l.6-2.6c-17.8-4.2-36.4-24.2-36.6-24.4l-2 1.8c.7.7 13.7 14.6 28.7 21.8" class="st12"/><path d="M900.8 606.5s-48.2 273.1-104 288.9c-.2.1-.4.1-.6.2-13.2 4.9-24-6.1-23.8-20.8l-.5-45.9z" class="st8"/><path d="m887.5 467.4 78.3-39.3-81.9 12.5z" class="st13"/><path d="M824.4 399.4c19.4 52.8 96.1 53.7 146.1 22.2s63.9-108.7 32.4-158.6-107.6-58.6-157.6-27.1S804 344 824.4 399.4" class="st10"/><path d="M809.1 292c29.4.7 46.9 49.2 57.6 49.6s6.6 3.2 6.6 3.2l-12.8-60-15.4-22.8h-22.4s-4 3.3-4.9 4.7c-3.6 5.6-8.7 25.3-8.7 25.3" class="st13"/><path d="M885.2 406.6c9.9 32.9 51.9 44.1 83.5 18.9 0 0 18.6 22.6 64.5-3.1s-.2-47.6-.2-47.6 32.2-3.2 35.3-24.9-19.9-31-19.9-31 18.4-7 15.1-40.8-29.1-27.2-29.1-27.2 11.8-23.1-8.1-43.8-49.2 3.7-49.2 3.7-14.7-44.8-62.9-33.1c-38.6 9.4-37.6 29.6-37.6 29.6s-22.5-29.4-64.1-10.2c-52.2 24 29.6 54.1 29.6 54.1s30.3 112.9 43.1 155.4" class="st14"/><circle cx="878.2" cy="361.3" r="29.4" class="st10"/><path d="M839 238.5s-55.4-15.5-40.7 16.7 46.8-.4 46.8-.4z" class="st14"/><path d="M817 269.5s30.2-2.5 36.1 21.1c7.1 28.4 14.8-40.7 14.8-40.7l-19.3-12.1-17.7 8.3z" class="st14"/><path d="M872.1 379.1c-5-1.8-7.9-6-7.6-11.2.2-4.4 2.5-8.1 5.5-8.8 1.4-.3 4.1-.3 6.6 3.9 3 5.2 7.7 5.1 10.8 3.4 3.8-2 6.2-6.9 3.5-12.4-1.9-3.8-4.4-6-7.3-6.5-6.1-1-12.5 5.4-12.6 5.5l-1.9-1.8c.3-.3 7.5-7.4 14.9-6.2 3.8.6 6.9 3.3 9.2 7.9 3.4 6.9.3 13.2-4.6 15.9-4.3 2.3-10.6 1.9-14.3-4.4-.7-1.2-2.1-3.1-3.7-2.7-1.8.4-3.4 3.3-3.5 6.4-.1 1.9.3 6.7 5.9 8.6zM502 703.1s-32.2 22.6-27 57.8c0 0 10.1 1.9 17.4 8.9z" class="st13"/><path d="M860.4 530.7c-32.1-9.8-66 8.3-75.7 40.4l-53.1 174.6-188.2-54.5c-20-5.4-46.2 8.8-52.1 28.7l-4.8 16.4c-5.9 19.9 7.5 46.4 27.3 52.7L765 863.4c26.7 8.4 55.3-6.3 63.8-33l72-223.9c9.7-32.1-8.4-66-40.4-75.8" class="st7"/><path d="m772.8 922.2 326.3 31.6s3.8-12.9 2.3-31.6z" style="fill:#3b215b"/><path d="M370.4 90.7c-4.8 0-9.6-1.2-14-3.6-14.1-7.8-19.3-25.5-11.5-39.7 3.8-6.8 10-11.8 17.4-14 7.5-2.2 15.4-1.3 22.2 2.5s11.8 10 14 17.4c2.2 7.5 1.3 15.4-2.5 22.2-5.3 9.8-15.3 15.2-25.6 15.2m.1-53.3c-2.3 0-4.5.3-6.8 1-6.2 1.8-11.3 5.9-14.4 11.5-6.4 11.6-2.1 26.3 9.5 32.7s26.3 2.1 32.7-9.5c3.1-5.6 3.8-12.1 2-18.3s-5.9-11.3-11.5-14.4c-3.5-2-7.5-3-11.5-3" class="st7"/><circle cx="454.9" cy="119.4" r="8.2" class="st7"/><circle cx="468.8" cy="12.8" r="12.8" class="st7"/><path d="M746.2 772.8c-3.4-19.7-15-26.1-15.1-26.1l1.6-3c.5.3 13.2 7.3 16.9 28.6z" class="st9"/><path d="M878.3 463.6c-4.2-.2 3.9 16.3 3.9 16.3s37.2 16.8 76 12.6c39.8-4.3 29.8-34.6 29.8-34.6s-33 9.5-109.7 5.7" class="st2"/><path d="M434.8 574.3H135.6V181.1h299.2zm-295.3-3.9h291.4V185H139.5z" class="st1"/><path d="M185.2 217.1H389v27.8H185.2zM467.1 233h103.3v27.8H467.1zM467.1 301.2h308.3V329H467.1z" class="st0"/><path d="M231.8 321.2h-31.7c-3.9 0-7.1-3.2-7.1-7.1v-31.7c0-3.9 3.2-7.1 7.1-7.1h31.7c3.9 0 7.1 3.2 7.1 7.1v31.7c0 3.9-3.2 7.1-7.1 7.1" style="fill:#a7c6e3"/><path d="M231.8 395.6h-31.7c-3.9 0-7.1-3.2-7.1-7.1v-31.7c0-3.9 3.2-7.1 7.1-7.1h31.7c3.9 0 7.1 3.2 7.1 7.1v31.7c0 4-3.2 7.1-7.1 7.1" style="fill:#fbe77d"/><path d="M231.8 470.1h-31.7c-3.9 0-7.1-3.2-7.1-7.1v-31.7c0-3.9 3.2-7.1 7.1-7.1h31.7c3.9 0 7.1 3.2 7.1 7.1V463c0 3.9-3.2 7.1-7.1 7.1" style="fill:#73cf94"/><path d="M257.8 291.9h34.1v3.9h-34.1zM257.8 306.6H360v3.9H257.8zM257.8 363.4h34.1v3.9h-34.1zM257.8 378.1H360v3.9H257.8zM257.8 434.9h34.1v3.9h-34.1zM257.8 449.6H360v3.9H257.8zM467.1 219.7h52.1v3.9h-52.1zM467.1 289.3h187.1v3.9H467.1zM467.1 361.2h222.2v3.9H467.1zM467.1 431.4h172.2v3.9H467.1zM467.1 468.1h294.2v3.9H467.1z" class="st1"/><circle cx="474.2" cy="385.2" r="7.1" class="st0"/><circle cx="474.2" cy="411.6" r="7.1" class="st0"/><circle cx="474.2" cy="487" r="7.1" class="st0"/><circle cx="474.2" cy="513.4" r="7.1" class="st0"/><circle cx="474.2" cy="453.1" r="7.1" class="st0"/><circle cx="818.4" cy="331.9" r="5.3" class="st14"/><path d="M829.4 322.8c-8.5-8.3-19.1-4.1-19.2-4l-.7-1.6c.1 0 11.7-4.7 21 4.4zM820.9 391.6q-.15 0 0 0v-1.7c.1 0 5.2 0 12.1-2.5l.6 1.6c-6.9 2.5-12.1 2.6-12.7 2.6" class="st14"/><path d="m809.7 333.3-16.2 37.9L817 375z" class="st10"/></svg>