<svg xmlns="http://www.w3.org/2000/svg" xmlns:xlink="http://www.w3.org/1999/xlink" xml:space="preserve" id="Слой_1" x="0" y="0" version="1.1" viewBox="0 0 859 1079.7"><style>.st0{fill:#e9f4fe}.st1{fill:#247b77}.st2{fill:#fff}.st3{fill:#39215b}.st4{fill:#aa6d65}.st5{fill:#5584db}.st9{fill:#212b46}.st11{fill:#3caf99}.st12{fill:#ce8c80}.st15{clip-path:url(#SVGID_2_);fill:#aa6d65}.st16{fill:#fcc05e}.st17,.st19{clip-path:url(#SVGID_4_);fill:#fff}.st19{clip-path:url(#SVGID_6_)}.st20{clip-path:url(#SVGID_8_);fill:#8e5b57}</style><path d="M404.8 1079.7H137.3c-6.6 0-12-5.4-12-12v-11.2c0-6.6 5.4-12 12-12h267.6c6.6 0 12 5.4 12 12v11.2c-.1 6.6-5.5 12-12.1 12" class="st0"/><circle cx="361.6" cy="493.7" r="361.6" class="st0" transform="matrix(.9999 -.01125 .01125 .9999 -5.53 4.098)"/><path d="m445.9 281.7-.9 2.5-62.7-79.3c-12-15.2-34-17.7-49.1-5.7-15.2 12-17.7 34-5.7 49.1 0 0 73 110.7 109.3 134.4 22.9 15 36.5 4.7 45.3-19.3l11.5-20.3c-26-14.9-33.1-41.7-47.7-61.4" class="st1"/><path d="m623.8 415.4-97.4-53.7c-24.1-12.9-47.2-27.2-71.5-39.4l-13.2 7.7c-22.1 12.8-21.5 44.9 1 57l150.9 83.3c11.6 6.4 26.1 2.2 32.5-9.4l7.1-12.8c6.4-11.7 2.2-26.3-9.4-32.7" class="st1"/><path d="M628.3 422.2s-21.9-20.2-40.5-5.4c-25.8 20.5-5.8 49.7 14.6 52.1s25.9-46.7 25.9-46.7" class="st2"/><path d="M633 426.7s-13-15.9-32.1-6-25 37.3-3.5 46.8c21.4 9.6 35.6-40.8 35.6-40.8" class="st3"/><path d="M667.7 455.7c-6.4 18.2-8.8 29.9-30.7 26.4-19.1-3-45.7-13.2-44.8-35.2.8-19.3 25.4-31.9 40.8-20.2 32.4 24.8 17.4-5 33.7.3 12.7 4.2 7.8 9.6 1 28.7" class="st4"/><path d="M857.8 427.5 791.2 615c-4.1 11.7-17 17.8-28.6 13.6l-113.3-40.2c-11.7-4.1-17.8-17-13.6-28.6l66.6-187.5c4.1-11.7 17-17.8 28.6-13.6l113.3 40.2c11.6 4.1 17.7 16.9 13.6 28.6" class="st5"/><path d="m661.1 418.8 46.1 16.4-29.8 83.8-46.1-16.4zm-8.5-17.7-39 110 72.2 25.6 39-110z" class="st5"/><path d="M570.2 448.4h243.2v51.4H570.2z" style="fill:#71a0ea" transform="rotate(-71.174 691.773 474.134)"/><path d="m744.5 465.6-16.6 48.8c-.6 1.7-2.4 2.6-4.1 2L693 506c-1.7-.6-2.6-2.4-2-4.1l16.6-48.8c.6-1.7 2.4-2.6 4.1-2l30.7 10.5c1.7.5 2.6 2.3 2.1 4" style="fill:#8fbbef"/><path d="M608.9 431.6c39.1-21.1 67.8-24.1 36.1 3.8s-36.1-3.8-36.1-3.8" class="st4"/><path d="m471.7 341.8-43.5-6.9c-5.6-.9-8.6-7-5.8-12l41.1-74.1c2.4-4.4 7.4-6.8 12.4-6l40.8 6.5c5.6.9 8.6 7 5.8 12L480 337.8c-1.6 2.9-5 4.6-8.3 4" style="fill:#4a586d"/><ellipse cx="490.5" cy="263.1" class="st9" rx="6" ry="5.1" transform="rotate(-53.564 490.52 263.153)"/><path d="M471.3 243c-3.3.7-6.1 2.8-7.8 5.9L422.3 323c-2.7 4.9.3 11.1 5.8 12l43.5 6.9c1.7.3 3.3 0 4.8-.7z" class="st9"/><path d="M425.3 490.1 250 503.3 232.6 272c-3.6-48.4 32.6-90.6 81-94.2s90.6 32.6 94.2 81z" style="fill:#329587"/><circle cx="33.5" cy="272.2" r="10.2" class="st11"/><circle cx="93.9" cy="335" r="5.7" class="st11"/><path d="M108.1 260.3c-10.9 0-19.8-8.9-19.8-19.8s8.9-19.8 19.8-19.8 19.8 8.9 19.8 19.8-8.9 19.8-19.8 19.8m0-34.6c-8.2 0-14.8 6.6-14.8 14.8s6.6 14.8 14.8 14.8 14.8-6.6 14.8-14.8-6.6-14.8-14.8-14.8" class="st11"/><path d="m294.8 121.2-3.7 61.4s37.3 16.7 54.7-6.1l2-44.4z" class="st12"/><path d="M399.8 321.3 269.5 337l39.7-90.9c7.7-17.7-.4-38.3-18.1-46.1-17.7-7.7-38.3.4-46.1 18.1l-55.8 128.3h-.3l-1.5 3.6c-12 27.9 10.7 58.3 40.8 54.8l178.9-21.4c14.4-1.7 24.7-14.8 22.8-29.2l-1.3-10.3c-1.7-14.2-14.6-24.2-28.8-22.6" class="st11"/><path d="m425.3 490.1 64.5 151.5c12.2 28.8 2.7 62.1-22.8 80.2L253 866.2s101 70.2 3.5 115.3c0 0-71.4-101.5-70.1-127.4 1.3-25.8 190.7-162 190.7-162l-24.5-196.5z" class="st9"/><path d="M291.1 182.6s32.2 14.4 50.4 15.3c5.9.3 4.4-21.1 4.4-21.1z" class="st12"/><path d="m341.4 197.9-21.9 12.8-28.4-28.1zM346 181.5l14.5 20.7-19.1-4.4c0-.1 5.3-7.3 4.6-16.3M408.6 322.8c-1.6-.4-3.3-.4-4.9-.1-5 1.1-15.8 5-20.5 19.2-4.1 12.5-3.2 24.4 4.4 32.4 8.9 9.4 24.3 10.6 34 1.9 2.5-2.2 4.7-5.1 6.2-9 5.9-15 2.9-39-19.2-44.4" class="st2"/><path d="M413.5 330.9c-1.8-5.9-20.1-3.4-23.5 19.3-4 26.5 27.5 32.9 31.6 18.1 3.9-14.4-5.4-28.3-8.1-37.4" class="st3"/><path d="M413.5 330.9c24-24.6 44.5-33.4 27.5-5.5-16.9 28-27.5 5.5-27.5 5.5" class="st12"/><defs><path id="SVGID_1_" d="M482 322.9c-.8 16.4 1 30.7-29.3 40.3-15.7 5-50.7 15.4-55.6-.3-5-15.7 3.8-35.5 20.2-34.8 31.2 1.4 37.1-17.1 51.2-19.8 8.6-1.6 14.2 1.4 13.5 14.6"/></defs><clipPath id="SVGID_2_"><use xlink:href="#SVGID_1_" style="overflow:visible"/></clipPath><path d="M482 322.9c-.8 16.4 1 30.7-29.3 40.3-15.7 5-50.7 15.4-55.6-.3-5-15.7 3.8-35.5 20.2-34.8 31.2 1.4 37.1-17.1 51.2-19.8 8.6-1.6 14.2 1.4 13.5 14.6" style="clip-path:url(#SVGID_2_);fill:#ce8c80"/><path d="m449.3 335.4-.8-1.6c23.4-11.6 31.2-23.1 31.3-23.2l1.5 1c-.3.4-8.1 12-32 23.8M457.2 342.6l-.6-1.7c14.6-5.1 25.5-16.8 25.6-16.9l1.3 1.2c-.5.6-11.3 12.2-26.3 17.4M460.7 354.1c-2.2.7-4.4 1.2-6.5 1.4l-.2-1.8c12.3-1.1 26.5-12.7 26.7-12.8l1.1 1.4c-.5.3-10.5 8.4-21.1 11.8" class="st15"/><path d="m309.2 246.1-2 86.4-37.7 4.5zM242.5 403.1l2.1 27.2 136.2-43.7z" class="st1"/><path d="M253.1 866.1 202 831.9c-9.6 9.8-15.4 17.6-15.6 22.1-1.3 25.9 70.3 127.8 70.3 127.8 97.7-45.2-3.6-115.7-3.6-115.7" class="st16"/><defs><path id="SVGID_3_" d="m425.3 490.1 64.5 151.5c12.2 28.8 2.7 62.1-22.8 80.2L253 866.2s101 70.2 3.5 115.3c0 0-71.4-101.5-70.1-127.4 1.3-25.8 190.7-162 190.7-162l-24.5-196.5z"/></defs><clipPath id="SVGID_4_"><use xlink:href="#SVGID_3_" style="overflow:visible"/></clipPath><path d="m265.7 900.9-1.5-1.5c19.9-20.5 33.9-12.6 34.5-12.3l-1.1 1.8c-.5-.2-13.1-7.3-31.9 12M256.7 892.2l-1.5-1.5c19.9-20.5 33.9-12.6 34.5-12.3l-1.1 1.8c-.5-.3-13.2-7.3-31.9 12M248.1 883.8l-1.5-1.5c19.9-20.5 33.9-12.6 34.5-12.3l-1.1 1.8c-.5-.3-13.2-7.3-31.9 12" class="st17"/><path d="m250.1 503.3 56.1 255.6-34 235.6-5.6 51.8c-.5 4.5 3 8.4 7.6 8.4H418s16.3-81.1-57.7-62.7c-5.1 1.3-18.8 6.2-18.8 6.2L393.2 745l-15.3-251.4z" style="fill:#4a5372"/><path d="m431.7 505.1-178 14.7-3.6-16.5 175.2-13.2z" class="st3"/><path d="m294.7 572-.6-4.2c23.4-3.3 39-13.8 46.4-31.5 5.5-13.2 4.2-25.4 4.2-25.6l4.2-.5c.1.5 1.5 13.5-4.5 27.7-5.4 13.2-18.5 29.8-49.7 34.1" class="st3"/><path d="M360.3 992c-5.1 1.3-18.9 6.3-18.9 6.3l-70.8 10.3-4.5 38.3c-.5 4.6 3.1 8.6 7.6 8.6h144.5c.1 0 16.5-82.2-57.9-63.5" class="st16"/><defs><path id="SVGID_5_" d="m250.1 503.3 56.1 255.6L262 998.3l3.7 56.5H418s16.3-81.1-57.7-62.7c-5.1 1.3-18.8 6.2-18.8 6.2l51.7-253.2-15.3-251.4z"/></defs><clipPath id="SVGID_6_"><use xlink:href="#SVGID_5_" style="overflow:visible"/></clipPath><path d="M382.6 1013.3h-2.1c0-28.6 15.5-32.7 16.2-32.9l.5 2.1-.2-1 .3 1c-.8.2-14.7 4-14.7 30.8M370 1013.3h-2.1c0-28.6 15.5-32.7 16.2-32.9l.5 2.1-.2-1 .3 1c-.7.2-14.7 4-14.7 30.8M358 1013.3h-2.1c0-28.6 15.5-32.7 16.2-32.9l.5 2.1-.2-1 .3 1c-.8.2-14.7 4-14.7 30.8" class="st19"/><path d="M345.9 184.9s-42.4-15.4-53.3-27.5l1.1-20.2 53.2 10.7z" class="st4"/><path d="M378.1 148.9c-20.4 29-55.5 29.5-83.6 8.3-28-21.2-33.2-68.5-12.9-97.5s66.6-39.5 94.6-18.3 22.3 78.5 1.9 107.5" class="st12"/><path d="M343.9 106.4c-1.2 1.6-3.5 1.9-5 .7-1.6-1.3-1.9-3.6-.6-5.2 1.2-1.6 3.5-1.9 5-.7s1.8 3.6.6 5.2M382.8 108.2c-1.2 1.6-3.5 1.9-5 .7-1.6-1.3-1.9-3.6-.6-5.2 1.2-1.6 3.5-1.9 5-.7 1.6 1.2 1.8 3.6.6 5.2M357.3 126.5h8l-3.1-22.6-1.5.2 2.9 20.9-6.3-.1zM334.2 92.4c6.4-4.4 13.9-.6 14-.6l.7-1.4c-.3-.2-8.3-4.2-15.5.7zM375.1 95s4.8-2.5 9.7.2l.7-1.4c-5.6-3-10.9-.3-11.1-.2zM359.8 140.8c-4.3.1-8.4-1.3-8.6-1.4l.5-1.3c.1 0 11.7 4 15.6-2.3l1.2.7c-2 3.2-5.4 4.2-8.7 4.3" class="st3"/><path d="M300.1 90c18.3-20 48.6 1.7 57.8-10.8s33-8.9 33-8.9l-38.1-16.2-51.6 16.4z" class="st4"/><path d="M410.6 57.2c-14.5 22.6-22 9.8-44.1 8.4-21.7-1.4-6.6 19.2-34 9s-28.2 20-42 23.8c-20.1 5.6-1.9 39.2-1.9 39.2l-9 2.7s-33.3-17.9-31.5-61.3c1.4-33.1 10-55.3 28.8-52.7 3.1-28.4 30.8-22.2 46-20.9s27-15.1 47.5 4.1c38.7 36.2 77.1-10.1 40.2 47.7" class="st3"/><path d="M268.9 101.7c-.1 9.9 7.6 18 17.2 18.1s17.4-7.8 17.5-17.7-7.6-18-17.2-18.1c-9.6-.2-17.4 7.8-17.5 17.7" class="st12"/><path d="M287.7 113.8c3.2-.7 5.4-3.1 5.7-6.4.3-2.8-.8-5.4-2.6-6.1-.8-.3-2.5-.6-4.4 1.9-2.3 3-5.2 2.5-6.9 1.2-2.1-1.6-3.2-5-1-8.2 1.5-2.3 3.2-3.4 5-3.4 3.8-.1 7.2 4.6 7.2 4.7l1.3-1c-.2-.2-3.9-5.4-8.6-5.4-2.4 0-4.5 1.4-6.4 4.2-2.7 4.1-1.4 8.4 1.4 10.5 2.4 1.9 6.3 2.2 9.2-1.5.5-.7 1.5-1.8 2.5-1.4 1.1.4 1.8 2.4 1.6 4.4-.1 1.2-.8 4.2-4.4 4.9z" class="st4"/><path d="M278.9 97.4c5.4-3.8 8.6-.7 9.9 2.5s1.2 6.4-2.2 7.6-6.6-5.8-4.9 5.4l1.6 11.3-3.4.3c.1 0-6.9-23.1-1-27.1" class="st2"/><defs><path id="SVGID_7_" d="m655.3 434.9-11.3 32h19.8l7.7-21.3s2.8-8 2.9-9.4-12.1-5.2-12.1-5.2z"/></defs><clipPath id="SVGID_8_"><use xlink:href="#SVGID_7_" style="overflow:visible"/></clipPath><path d="M672.7 442.4c0-.1-3.8-6.6-9.4-6.9-3.5-.2-7.1 2.1-10.6 6.9l-1.1-.8c3.8-5.2 7.8-7.7 11.8-7.4 6.3.4 10.3 7.3 10.5 7.6z" class="st20"/><path d="m646.1 458.9-1.2-.7c6.1-10.6 12.7-16.4 18.3-16 2.5.2 5.9 1.8 8.3 8.1l-1.3.5c-1.7-4.5-4.1-7-7.1-7.2-4.9-.4-11.3 5.3-17 15.3" class="st20"/><path d="M645.2 466.6c-.6 0-1-.1-1.1-.2l.5-1.3s4.4 1.3 8.6-8.6c1.3-3 3.1-4.8 5.4-5.2 4.9-.9 10 4.5 10.3 4.7l-1 .9c0-.1-4.9-5.1-9-4.3-1.8.3-3.3 1.8-4.4 4.4-3.6 8.5-7.4 9.6-9.3 9.6" class="st20"/></svg>