<svg xmlns="http://www.w3.org/2000/svg" id="_1" data-name="1" viewBox="0 0 1053.94 1044.25"><defs><clipPath id="clip-path"><path d="M503.45 973.53c-11.61 31.25-16.93 60-81.26 60-33.33 0-107.34-1.33-107.34-34.67s29.06-66.36 60.36-54.86c59.35 21.77 82.26-10.28 111-6.81 17.54 2.09 26.57 11.22 17.24 36.34" class="cls-1"/></clipPath><clipPath id="clip-path-2"><path d="M520.49 875.26c11.61 31.25 28.1 59.42 92.43 59.42 33.33 0 96.17-.74 96.17-34.08s-29-66.12-60.36-54.89c-66.25 23.7-72.56-7.5-102.2-7.32-23.05.13-36.85 7.8-26.04 36.87" class="cls-1"/></clipPath><style>.cls-1{fill:none}.cls-3{fill:#39215b}.cls-5{fill:#247b77}.cls-6{fill:#3caf99}.cls-7{fill:#329587}.cls-8{fill:#fcafa7}.cls-9{fill:#f78e81}.cls-10{fill:#fff}.cls-11{fill:#212b46}.cls-13{fill:#ffd69f}.cls-15{fill:#454f6b}.cls-21{fill:#332258}.cls-23{fill:#f29d91}.cls-26{fill:#e5877a}</style></defs><path d="M1053.87 597.28C1058.55 948.6 814.25 905 532.23 905S32.6 931.45 32.6 597.28c0-282 228.62-510.63 510.63-510.63s506.88 228.64 510.64 510.63" style="fill:#e9f4fe"/><path d="M543.54 32c-84.79-8.09-155.16 40.83-171.44 106.8-10.19 41.32-1.88 63.84-8 97.07-4.68 25.42-60.58 28.84-74.84 92.23-6.56 29.19 27.8 93.51 14.25 124.73-27.08 62.39-121.7 71.26-50.22 183.75 91.7 144.3 684.53 72.55 684.53 72.55S879 584.48 816.81 507.92c-46.48-57.2-16.08-88.75-18.22-156.22-1.58-50.08-23.16-69-25.71-92.47-3.19-29.42 19-77.68-13.1-145.92-19-40.39-49.13-85.89-123.31-106.65C521.65-25.49 494.9 69.29 494.9 69.29" class="cls-3"/><path d="M451.39 375.29a44.53 44.53 0 1 1 44.53-44.53 44.58 44.58 0 0 1-44.53 44.53m0-83.87a39.35 39.35 0 1 0 39.35 39.35 39.39 39.39 0 0 0-39.35-39.35" style="fill:#c7bee5"/><path d="M802.8 509.88c-71.37-70.1-139.29-76.77-225.94-71.11L653.62 492a80.66 80.66 0 0 0-2.56 114l140.71 141.26-318.85-4 89 154.2 382.72 9.11c65.69-16.12 153.86-58.75 83.16-150.75-79-102.82-189.52-211.09-225-245.94" class="cls-5"/><path d="M231 835a4.65 4.65 0 0 1-1.53-7.21l180.38-211.1a81.17 81.17 0 0 0-1.56-111 4.63 4.63 0 0 1 .62-6.95l60.47-44.19a4.65 4.65 0 0 0-2.67-8.4c-80-.84-136.74 21.55-203.09 90C220.54 580.62 95.11 720.68 18.05 807.1c-31.58 35.42-20.28 91.22 22.57 111.6l246 116.73a66.32 66.32 0 0 0 89-33 91.18 91.18 0 0 0-44-119.3Z" class="cls-6"/><path d="M551.27 432.81a241.27 241.27 0 0 1 241.27 241.26v55.37a185.9 185.9 0 0 1-185.9 185.9H495.9A185.9 185.9 0 0 1 310 729.44v-55.37a241.27 241.27 0 0 1 241.27-241.26" class="cls-7"/><path d="m609.21 330.07-1.6 127.17s-66.77 31.34-113.89-5.46l3-108.33Z" class="cls-8"/><path d="m494.25 433.46 114.22-66.81-.98-11.62L496.17 365z" class="cls-9"/><path d="M441.2 327c33.13 62.63 104.09 74 166.72 40.82S694.28 243.65 661.15 181s-123.35-79.89-186-46.76S408.08 264.34 441.2 327" class="cls-8"/><path d="M639.48 297.89s3.13 45.43 37.59 41.29c23.41-2.82 21.87-29.35 21.87-29.35L666.18 277l-23.06 11.44Z" class="cls-3"/><circle cx="41.99" cy="372.7" r="17.65" class="cls-6"/><circle cx="173.07" cy="292.89" r="9.79" class="cls-6"/><path d="M89 227.26A34.24 34.24 0 1 1 123.19 193 34.27 34.27 0 0 1 89 227.26m0-59.81A25.58 25.58 0 1 0 114.53 193 25.61 25.61 0 0 0 89 167.45" class="cls-6"/><circle cx="533.75" cy="248.11" r="8.41" class="cls-3" transform="rotate(-29.63 533.791 248.122)"/><circle cx="442.98" cy="238.94" r="8.41" class="cls-3" transform="rotate(-29.63 443.01 238.957)"/><path d="m489.09 292.65-18.72-2.54 14.6-49.74 3.34.98-13.46 45.85 14.71 2zM498.19 320.62h-.72l.08-3.48c13.58.38 32-9.54 32.22-9.64l1.65 3.06c-.77.44-18.83 10.06-33.23 10.06M553.5 224.06c-13.53-12-32-6.08-32.2-6l-1.09-3.3c.83-.28 20.59-6.61 35.61 6.72ZM457.74 216.19c-.1-.07-10.31-7.13-22.6-2.85l-1.14-3.29c14-4.88 25.28 3 25.76 3.3Z" class="cls-3"/><path d="M462.16 142.65c73.79-56.12 134.46 50.54 159.17 114.9 38.83 101.15 68 100.22 68 100.22l38.43-143.46S708.68 125 683.94 112.55c-116.75-58.82-221.78 30.1-221.78 30.1" class="cls-3"/><circle cx="647.23" cy="261.03" r="38.01" class="cls-8" transform="rotate(-82.36 647.188 261.043)"/><path d="M640.46 285.56c-6.85-2.39-10.73-8.09-10.4-15.24.28-5.94 3.42-11 7.48-12 1.9-.47 5.59-.41 8.94 5.29 4.15 7.06 10.48 6.92 14.65 4.66 5.13-2.78 8.4-9.47 4.71-16.85-2.6-5.21-5.94-8.17-9.92-8.8-8.28-1.34-17 7.42-17.12 7.51l-2.53-2.51c.41-.41 10.14-10.12 20.22-8.53 5.18.83 9.4 4.44 12.54 10.73 4.7 9.41.44 18-6.19 21.58-5.8 3.16-14.36 2.63-19.42-6-.93-1.59-2.84-4.16-5-3.64-2.44.6-4.58 4.5-4.77 8.69a11.29 11.29 0 0 0 8 11.71Z" class="cls-9"/><path d="M657.81 374.59a44.53 44.53 0 1 1 44.53-44.53 44.58 44.58 0 0 1-44.53 44.53m0-83.87a39.35 39.35 0 1 0 39.35 39.35 39.39 39.39 0 0 0-39.35-39.35" class="cls-10"/><path d="M448.77 155.48c40.53-37.74 152 57 152 57s-37.15-82-94.24-85.54c-19.74-1.2-41.53 3.17-57.76 28.54" class="cls-9"/><path d="M656.77 647.62 658 635.2c7.29-75.08-29.3-140.07-107-147.62-77.74-7.58-126.16 49.18-133.46 124.26l-1.21 12.42a31.72 31.72 0 0 0-31.68 28.64l-18.2 187.38c-4.22 43.48 26.67 59 70.15 63.18l79.68 18.4 10.15 1.49-14-11.24c79.92 7.76 150.33-29 158.09-108.9l.31-3.17L680 706.4l2.13-22.4.21-2.21a31.72 31.72 0 0 0-25.57-34.17m-167.45-97.28c14.54-14.47 33.83-20.65 57.34-18.36S587.9 544 599.39 561c11.83 17.51 16.87 42.32 14.2 69.85l-1.19 12.27-51.7-5-24.12-2.34-75.82-7.37 1.19-12.27c2.66-27.52 12.39-50.89 27.37-65.8" class="cls-5"/><rect width="304.14" height="424.14" x="603.65" y="563.36" class="cls-11" rx="40.41" ry="40.41" transform="rotate(32.16 755.727 775.458)"/><rect width="304.14" height="424.14" x="591.13" y="555.49" class="cls-11" rx="47.4" ry="47.4" transform="rotate(32.16 743.214 767.568)"/><path d="M942.85 642.58 769.32 533.47a49.34 49.34 0 0 0-26.12-7.6v483.38a49.54 49.54 0 0 0 42.24-23.19l173-275.12a49.58 49.58 0 0 0-15.59-68.36" style="fill:#34405b"/><circle cx="733.46" cy="758.36" r="24.54" class="cls-10" transform="rotate(-81.53 733.411 758.357)"/><path d="M571.26 524.93C594.77 527.22 612.51 537 624 554c11.83 17.51 16.87 42.32 14.2 69.85l-1.2 12.68-151.68-14.73 1.23-12.69c2.67-27.53 12.4-50.9 27.38-65.81 14.54-14.47 33.83-20.65 57.34-18.36m4.31-44.4C497.87 473 449.45 529.72 442.15 604.8l-5.55 57.08L677 685.24l5.55-57.08c7.29-75.08-29.3-140.07-107-147.62Z" class="cls-13"/><path d="M487.19 628.05h119.06a90 90 0 0 1 90 90v63.74a145.33 145.33 0 0 1-145.32 145.35h-41.31A112.44 112.44 0 0 1 397.18 814.7v-96.64a90 90 0 0 1 90.01-90.01" style="fill:#fcc05e" transform="rotate(5.55 546.603 777.42)"/><path d="m664.4 638.78-103.22-10-28.92 297.66 4.13.4a145.39 145.39 0 0 0 158.77-130.66l10.43-107.35a45.84 45.84 0 0 0-41.19-50.05" class="cls-13"/><circle cx="550.43" cy="739.45" r="32.05" class="cls-15" transform="rotate(-84.45 550.443 739.453)"/><rect width="34.51" height="120.79" x="529" y="721.99" class="cls-15" rx="3.33" ry="3.33" transform="rotate(5.55 546.111 782.2)"/><path d="M252.22 559.59c77.74 46.93 221 9.79 221 9.79 104.08 331.26-68.76 474.86-68.76 474.86S180.58 1025.31 76.5 694c0 0 138.79-51.45 175.72-134.41" style="fill:#5584db"/><path d="M252.22 559.59C215.29 642.55 76.5 694 76.5 694c104.08 331.26 328 350.21 328 350.21Z" style="fill:#71a0ea"/><path d="M252.22 559.59C215.29 642.55 76.5 694 76.5 694c104.08 331.26 328 350.21 328 350.21s172.84-143.6 68.76-474.86c-.01.04-143.26 37.17-221.04-9.76M393.1 1008s-190.42-16.1-278.93-297.82c0 0 118-43.79 149.44-114.34 66.11 39.91 188 8.33 188 8.33C540.1 885.88 393.1 1008 393.1 1008" style="fill:#8fbbef"/><path d="m252.22 559.59 11.39 36.24c66.13 42.21 187.93 8.65 187.93 8.65 85.54 282.59-59.5 402.14-59.5 402.14l1.07 1.38 11.39 36.24S577.42 900 473.34 568.76c0 0-142.23 36.16-221.12-9.17" style="fill:#6095e2"/><path d="M516.75 489.81a95.2 95.2 0 0 1 21.32-7.53 120.6 120.6 0 0 1 45.56-1.74 114.6 114.6 0 0 1 22.32 5.93c3.63 1.32 7.12 3 10.62 4.61 3.38 1.87 6.84 3.59 10 5.76a113.5 113.5 0 0 1 18.05 14.22 129.1 129.1 0 0 1 26.58 36.55c-9.52-11.61-19.65-22.4-30.95-31.6-1.37-1.2-2.85-2.26-4.32-3.32s-2.87-2.22-4.37-3.24c-3-2-6-4.07-9.17-5.78a120 120 0 0 0-19.46-9.3 135 135 0 0 0-42.29-8.56 158 158 0 0 0-21.94.55 155 155 0 0 0-21.95 3.45" style="fill:#fcfcfc"/><path d="m631.93 882.94 5.73-35.62 294.16-63.9 12.83 123.14-229 55q-1.09.26-2.17.49c-47.11 9.85-89.2-31.56-81.55-79.11" class="cls-5"/><path d="M630.09 849.88s86.83-40.12 94.07 35c5.49 57-58 67.92-76.45 54.77-20.34-14.48-17.62-89.77-17.62-89.77" class="cls-21"/><path d="m78.88 937.56 32.73-129.85 252.18 119.84a49.13 49.13 0 0 1 19.88 71.5 87.12 87.12 0 0 1-109.87 30.66Z" class="cls-6"/><path d="M382.8 943.62s-55.59-30.43-85.94 20.93c-44.32 75 48.83 61.68 48.83 61.68Z" class="cls-21"/><path d="M62.86 830.48 60 824.81c28.36-14.18 53.57-15.41 63-15.29l2.34 4.66 3.78 1.76c-.25-.01-32.68-2.24-66.26 14.54M120.91 805.61c-4.3-1.52-23.6-7.82-37.16-3.49l-1.93-6c11.89-3.8 26.77-.76 35.33 1.68Z" class="cls-7"/><path d="M987.59 788c-22.56-18.12-57.23-4.37-57.58-4.23l4.88-7.64c12.06-3.59 37.3-8.64 56.67 6.92Z" style="fill:#1d6d67"/><path d="M361.58 943.23c67.71-36.19 117.17-41.09 62.24 6.87s-62.24-6.87-62.24-6.87" class="cls-8"/><path d="M520.49 875.26c11.61 31.25 28.1 59.42 92.43 59.42 33.33 0 96.17-.74 96.17-34.08s-29-66.12-60.36-54.89c-66.25 23.7-72.56-7.5-102.2-7.32-23.05.13-36.85 7.8-26.04 36.87" class="cls-23"/><path d="M676.49 848.62c-67.71-36.19-117.17-41.09-62.24 6.87s62.24-6.87 62.24-6.87" class="cls-23"/><g style="clip-path:url(#clip-path)"><path d="M503.45 973.53c-11.61 31.25-16.93 60-81.26 60-33.33 0-107.34-1.33-107.34-34.67s29.06-66.36 60.36-54.86c59.35 21.77 82.26-10.28 111-6.81 17.54 2.09 26.57 11.22 17.24 36.34" class="cls-8"/><path d="M432.54 977.63 432 974c52.36-8.06 74.49-25.55 74.7-25.72l2.31 2.85c-.93.75-23.01 18.28-76.47 26.5M443.31 996.44l-.1-3.66c31.24-.89 59.48-16.82 59.76-17l1.82 3.18c-1.19.69-29.33 16.56-61.48 17.48M443.05 1020.62a63.5 63.5 0 0 1-13.47-1.33l.78-3.58c24.37 5.31 59-8.33 59.39-8.46l1.36 3.4c-1.21.49-25.33 9.97-48.06 9.97" class="cls-9"/></g><g style="clip-path:url(#clip-path-2)"><path d="M584.6 871.38c-34.95-3.68-62.33-25.46-63.48-26.39l2.3-2.85c.27.22 27.72 22 61.57 25.6ZM582.39 890.62c-42.29-1.84-65.82-20.57-66.8-21.36l2.31-2.85c.23.19 23.65 18.77 64.65 20.55ZM590.5 917.17a227.2 227.2 0 0 1-61.5-15.38l1.47-3.36a223.4 223.4 0 0 0 60.4 15.09Z" class="cls-26"/></g></svg>